<svg xmlns="http://www.w3.org/2000/svg" xmlns:xlink="http://www.w3.org/1999/xlink" viewBox="0 0 766 476"><defs><style type="text/css">circle,polygon,polyline,rect{fill:none;stroke:#000;stroke-linecap:round;stroke-linejoin:round;stroke-miterlimit:10}</style></defs><rect width="100%" height="100%" style="stroke:none;fill:none"/><rect width="766" height="476" x="0" y="0" style="stroke-width:.75;stroke:none"/><defs><clipPath id="cpMC4wMHw3NjYuMDB8NDY3LjExfDAuMDA="><rect width="766" height="467.11" x="0" y="0"/></clipPath></defs><polygon points="34.82 191.51 38.32 200.35 41.82 208.29 45.32 215.14 48.82 220.72 52.31 224.85 55.81 227.36 59.31 228.14 62.81 227.13 66.31 224.37 69.81 219.98 73.31 214.17 76.81 207.19 80.31 199.32 83.81 190.81 87.31 181.89 90.81 172.76 94.31 163.57 97.81 154.47 101.31 145.56 104.8 136.93 108.3 128.63 111.8 120.73 115.3 113.25 118.8 106.23 122.3 99.69 125.8 93.64 129.3 88.1 132.8 83.09 136.3 78.61 139.8 74.67 143.3 71.28 146.8 68.45 150.3 66.16 153.79 64.41 157.29 63.17 160.79 62.43 164.29 62.14 167.79 62.3 171.29 62.87 174.79 63.86 178.29 65.25 181.79 67.06 185.29 69.31 188.79 72.01 192.29 75.19 195.79 78.86 199.29 83.03 202.79 87.7 206.28 92.85 209.78 98.43 213.28 104.41 216.78 110.71 220.28 117.27 223.78 124.03 227.28 130.93 230.78 137.91 234.28 144.94 237.78 152.01 241.28 159.11 244.78 166.25 248.28 173.44 251.78 180.69 255.28 188 258.77 195.38 262.27 202.77 265.77 210.16 269.27 217.45 272.77 224.58 276.27 231.44 279.77 237.93 283.27 243.95 286.77 249.38 290.27 254.16 293.77 258.23 297.27 261.57 300.77 264.17 304.27 266.08 307.76 267.35 311.26 268.06 314.76 268.27 318.26 268.05 321.76 267.47 325.26 266.58 328.76 265.38 332.26 263.89 335.76 262.07 339.26 259.86 342.76 257.17 346.26 253.88 349.76 249.84 353.26 244.9 356.76 238.93 360.25 231.85 363.75 223.65 367.25 214.42 370.75 204.35 374.25 193.68 377.75 182.67 381.25 171.59 384.75 160.69 388.25 150.19 391.75 140.29 395.25 131.11 398.75 122.77 402.25 115.31 405.75 108.75 409.24 103.03 412.74 98.08 416.24 93.77 419.74 89.96 423.24 86.48 426.74 83.17 430.24 79.93 433.74 76.68 437.24 73.45 440.74 70.32 444.24 67.42 447.74 64.91 451.24 62.94 454.74 61.61 458.24 60.98 461.73 61.08 465.23 61.84 468.73 63.15 472.23 64.87 475.73 66.83 479.23 68.85 482.73 70.82 486.23 72.67 489.73 74.41 493.23 76.1 496.73 77.89 500.23 79.94 503.73 82.4 507.23 85.44 510.72 89.2 514.22 93.76 517.72 99.21 521.22 105.57 524.72 112.84 528.22 120.96 531.72 129.86 535.22 139.44 538.72 149.58 542.22 160.14 545.72 170.96 549.22 181.92 552.72 192.85 556.22 203.61 559.72 214.09 563.21 224.14 566.71 233.62 570.21 242.39 573.71 250.27 577.21 257.04 580.71 262.46 584.21 266.29 587.71 268.3 591.21 268.38 594.71 266.53 598.21 262.95 601.71 257.9 605.21 251.74 608.71 244.81 612.21 237.46 615.7 229.97 619.2 222.62 622.7 215.63 626.2 209.15 629.7 203.31 633.2 198.16 636.7 193.71 640.2 189.89 643.7 186.56 647.2 183.52 650.7 180.53 654.2 177.28 657.7 173.48 661.2 168.86 664.69 163.25 668.19 156.57 671.69 148.88 675.19 140.33 678.69 131.15 682.19 121.58 685.69 111.85 689.19 102.2 692.69 92.79 696.19 83.8 699.69 75.32 703.19 67.46 706.69 60.25 710.19 53.74 713.69 47.92 717.18 42.79 720.68 38.32 724.18 34.47 727.68 31.18 731.18 28.42 731.18 439.68 727.68 437.48 724.18 434.88 720.68 431.83 717.18 428.32 713.69 424.32 710.19 419.84 706.69 414.88 703.19 409.49 699.69 403.7 696.19 397.62 692.69 391.35 689.19 385.04 685.69 378.86 682.19 373.03 678.69 367.78 675.19 363.37 671.69 360.06 668.19 358.06 664.69 357.52 661.2 358.49 657.7 360.88 654.2 364.48 650.7 368.97 647.2 374.01 643.7 379.22 640.2 384.3 636.7 388.94 633.2 392.92 629.7 396.07 626.2 398.29 622.7 399.52 619.2 399.75 615.7 399.05 612.21 397.51 608.71 395.28 605.21 392.57 601.71 389.62 598.21 386.69 594.71 384.05 591.21 381.92 587.71 380.44 584.21 379.6 580.71 379.25 577.21 379.2 573.71 379.19 570.21 379.03 566.71 378.56 563.21 377.65 559.72 376.24 556.22 374.26 552.72 371.7 549.22 368.51 545.72 364.66 542.22 360.13 538.72 354.89 535.22 348.9 531.72 342.17 528.22 334.67 524.72 326.42 521.22 317.46 517.72 307.87 514.22 297.72 510.72 287.15 507.23 276.32 503.73 265.4 500.23 254.62 496.73 244.2 493.23 234.37 489.73 225.33 486.23 217.26 482.73 210.29 479.23 204.44 475.73 199.69 472.23 195.92 468.73 192.99 465.23 190.75 461.73 189.05 458.24 187.79 454.74 186.94 451.24 186.5 447.74 186.54 444.24 187.17 440.74 188.54 437.24 190.79 433.74 194.06 430.24 198.4 426.74 203.83 423.24 210.24 419.74 217.5 416.24 225.4 412.74 233.72 409.24 242.27 405.75 250.84 402.25 259.27 398.75 267.42 395.25 275.22 391.75 282.59 388.25 289.53 384.75 296.06 381.25 302.24 377.75 308.16 374.25 313.96 370.75 319.78 367.25 325.76 363.75 332.02 360.25 338.64 356.76 345.61 353.26 352.82 349.76 360.12 346.26 367.29 342.76 374.13 339.26 380.44 335.76 386.06 332.26 390.86 328.76 394.76 325.26 397.73 321.76 399.77 318.26 400.91 314.76 401.21 311.26 400.77 307.76 399.67 304.27 398.04 300.77 395.99 297.27 393.62 293.77 391.02 290.27 388.25 286.77 385.35 283.27 382.31 279.77 379.13 276.27 375.76 272.77 372.17 269.27 368.3 265.77 364.13 262.27 359.62 258.77 354.79 255.28 349.64 251.78 344.19 248.28 338.51 244.78 332.65 241.28 326.68 237.78 320.66 234.28 314.65 230.78 308.7 227.28 302.85 223.78 297.1 220.28 291.46 216.78 285.92 213.28 280.45 209.78 275.05 206.28 269.68 202.79 264.36 199.29 259.1 195.79 253.91 192.29 248.83 188.79 243.93 185.29 239.27 181.79 234.9 178.29 230.9 174.79 227.33 171.29 224.25 167.79 221.69 164.29 219.68 160.79 218.25 157.29 217.4 153.79 217.14 150.3 217.48 146.8 218.42 143.3 219.96 139.8 222.09 136.3 224.82 132.8 228.14 129.3 232.03 125.8 236.46 122.3 241.39 118.8 246.77 115.3 252.53 111.8 258.58 108.3 264.85 104.8 271.25 101.31 277.67 97.81 284.05 94.31 290.3 90.81 296.38 87.31 302.26 83.81 307.92 80.31 313.42 76.81 318.83 73.31 324.27 69.81 329.88 66.31 335.81 62.81 342.17 59.31 349.03 55.81 356.37 52.31 364.1 48.82 372.11 45.32 380.26 41.82 388.4 38.32 396.4 34.82 404.15" clip-path="url(#cpMC4wMHw3NjYuMDB8NDY3LjExfDAuMDA=)" style="stroke-width:0;stroke:none;fill:#f2f2f2"/><polyline points="34.82 191.51 38.32 200.35 41.82 208.29 45.32 215.14 48.82 220.72 52.31 224.85 55.81 227.36 59.31 228.14 62.81 227.13 66.31 224.37 69.81 219.98 73.31 214.17 76.81 207.19 80.31 199.32 83.81 190.81 87.31 181.89 90.81 172.76 94.31 163.57 97.81 154.47 101.31 145.56 104.8 136.93 108.3 128.63 111.8 120.73 115.3 113.25 118.8 106.23 122.3 99.69 125.8 93.64 129.3 88.1 132.8 83.09 136.3 78.61 139.8 74.67 143.3 71.28 146.8 68.45 150.3 66.16 153.79 64.41 157.29 63.17 160.79 62.43 164.29 62.14 167.79 62.3 171.29 62.87 174.79 63.86 178.29 65.25 181.79 67.06 185.29 69.31 188.79 72.01 192.29 75.19 195.79 78.86 199.29 83.03 202.79 87.7 206.28 92.85 209.78 98.43 213.28 104.41 216.78 110.71 220.28 117.27 223.78 124.03 227.28 130.93 230.78 137.91 234.28 144.94 237.78 152.01 241.28 159.11 244.78 166.25 248.28 173.44 251.78 180.69 255.28 188 258.77 195.38 262.27 202.77 265.77 210.16 269.27 217.45 272.77 224.58 276.27 231.44 279.77 237.93 283.27 243.95 286.77 249.38 290.27 254.16 293.77 258.23 297.27 261.57 300.77 264.17 304.27 266.08 307.76 267.35 311.26 268.06 314.76 268.27 318.26 268.05 321.76 267.47 325.26 266.58 328.76 265.38 332.26 263.89 335.76 262.07 339.26 259.86 342.76 257.17 346.26 253.88 349.76 249.84 353.26 244.9 356.76 238.93 360.25 231.85 363.75 223.65 367.25 214.42 370.75 204.35 374.25 193.68 377.75 182.67 381.25 171.59 384.75 160.69 388.25 150.19 391.75 140.29 395.25 131.11 398.75 122.77 402.25 115.31 405.75 108.75 409.24 103.03 412.74 98.08 416.24 93.77 419.74 89.96 423.24 86.48 426.74 83.17 430.24 79.93 433.74 76.68 437.24 73.45 440.74 70.32 444.24 67.42 447.74 64.91 451.24 62.94 454.74 61.61 458.24 60.98 461.73 61.08 465.23 61.84 468.73 63.15 472.23 64.87 475.73 66.83 479.23 68.85 482.73 70.82 486.23 72.67 489.73 74.41 493.23 76.1 496.73 77.89 500.23 79.94 503.73 82.4 507.23 85.44 510.72 89.2 514.22 93.76 517.72 99.21 521.22 105.57 524.72 112.84 528.22 120.96 531.72 129.86 535.22 139.44 538.72 149.58 542.22 160.14 545.72 170.96 549.22 181.92 552.72 192.85 556.22 203.61 559.72 214.09 563.21 224.14 566.71 233.62 570.21 242.39 573.71 250.27 577.21 257.04 580.71 262.46 584.21 266.29 587.71 268.3 591.21 268.38 594.71 266.53 598.21 262.95 601.71 257.9 605.21 251.74 608.71 244.81 612.21 237.46 615.7 229.97 619.2 222.62 622.7 215.63 626.2 209.15 629.7 203.31 633.2 198.16 636.7 193.71 640.2 189.89 643.7 186.56 647.2 183.52 650.7 180.53 654.2 177.28 657.7 173.48 661.2 168.86 664.69 163.25 668.19 156.57 671.69 148.88 675.19 140.33 678.69 131.15 682.19 121.58 685.69 111.85 689.19 102.2 692.69 92.79 696.19 83.8 699.69 75.32 703.19 67.46 706.69 60.25 710.19 53.74 713.69 47.92 717.18 42.79 720.68 38.32 724.18 34.47 727.68 31.18 731.18 28.42" clip-path="url(#cpMC4wMHw3NjYuMDB8NDY3LjExfDAuMDA=)" style="stroke-width:1.07;stroke:none"/><polyline points="731.18 439.68 727.68 437.48 724.18 434.88 720.68 431.83 717.18 428.32 713.69 424.32 710.19 419.84 706.69 414.88 703.19 409.49 699.69 403.7 696.19 397.62 692.69 391.35 689.19 385.04 685.69 378.86 682.19 373.03 678.69 367.78 675.19 363.37 671.69 360.06 668.19 358.06 664.69 357.52 661.2 358.49 657.7 360.88 654.2 364.48 650.7 368.97 647.2 374.01 643.7 379.22 640.2 384.3 636.7 388.94 633.2 392.92 629.7 396.07 626.2 398.29 622.7 399.52 619.2 399.75 615.7 399.05 612.21 397.51 608.71 395.28 605.21 392.57 601.71 389.62 598.21 386.69 594.71 384.05 591.21 381.92 587.71 380.44 584.21 379.6 580.71 379.25 577.21 379.2 573.71 379.19 570.21 379.03 566.71 378.56 563.21 377.65 559.72 376.24 556.22 374.26 552.72 371.7 549.22 368.51 545.72 364.66 542.22 360.13 538.72 354.89 535.22 348.9 531.72 342.17 528.22 334.67 524.72 326.42 521.22 317.46 517.72 307.87 514.22 297.72 510.72 287.15 507.23 276.32 503.73 265.4 500.23 254.62 496.73 244.2 493.23 234.37 489.73 225.33 486.23 217.26 482.73 210.29 479.23 204.44 475.73 199.69 472.23 195.92 468.73 192.99 465.23 190.75 461.73 189.05 458.24 187.79 454.74 186.94 451.24 186.5 447.74 186.54 444.24 187.17 440.74 188.54 437.24 190.79 433.74 194.06 430.24 198.4 426.74 203.83 423.24 210.24 419.74 217.5 416.24 225.4 412.74 233.72 409.24 242.27 405.75 250.84 402.25 259.27 398.75 267.42 395.25 275.22 391.75 282.59 388.25 289.53 384.75 296.06 381.25 302.24 377.75 308.16 374.25 313.96 370.75 319.78 367.25 325.76 363.75 332.02 360.25 338.64 356.76 345.61 353.26 352.82 349.76 360.12 346.26 367.29 342.76 374.13 339.26 380.44 335.76 386.06 332.26 390.86 328.76 394.76 325.26 397.73 321.76 399.77 318.26 400.91 314.76 401.21 311.26 400.77 307.76 399.67 304.27 398.04 300.77 395.99 297.27 393.62 293.77 391.02 290.27 388.25 286.77 385.35 283.27 382.31 279.77 379.13 276.27 375.76 272.77 372.17 269.27 368.3 265.77 364.13 262.27 359.62 258.77 354.79 255.28 349.64 251.78 344.19 248.28 338.51 244.78 332.65 241.28 326.68 237.78 320.66 234.28 314.65 230.78 308.7 227.28 302.85 223.78 297.1 220.28 291.46 216.78 285.92 213.28 280.45 209.78 275.05 206.28 269.68 202.79 264.36 199.29 259.1 195.79 253.91 192.29 248.83 188.79 243.93 185.29 239.27 181.79 234.9 178.29 230.9 174.79 227.33 171.29 224.25 167.79 221.69 164.29 219.68 160.79 218.25 157.29 217.4 153.79 217.14 150.3 217.48 146.8 218.42 143.3 219.96 139.8 222.09 136.3 224.82 132.8 228.14 129.3 232.03 125.8 236.46 122.3 241.39 118.8 246.77 115.3 252.53 111.8 258.58 108.3 264.85 104.8 271.25 101.31 277.67 97.81 284.05 94.31 290.3 90.81 296.38 87.31 302.26 83.81 307.92 80.31 313.42 76.81 318.83 73.31 324.27 69.81 329.88 66.31 335.81 62.81 342.17 59.31 349.03 55.81 356.37 52.31 364.1 48.82 372.11 45.32 380.26 41.82 388.4 38.32 396.4 34.82 404.15" clip-path="url(#cpMC4wMHw3NjYuMDB8NDY3LjExfDAuMDA=)" style="stroke-width:1.07;stroke:none"/><polygon points="34.82 191.51 38.32 200.35 41.82 208.29 45.32 215.14 48.82 220.72 52.31 224.85 55.81 227.36 59.31 228.14 62.81 227.13 66.31 224.37 69.81 219.98 73.31 214.17 76.81 207.19 80.31 199.32 83.81 190.81 87.31 181.89 90.81 172.76 94.31 163.57 97.81 154.47 101.31 145.56 104.8 136.93 108.3 128.63 111.8 120.73 115.3 113.25 118.8 106.23 122.3 99.69 125.8 93.64 129.3 88.1 132.8 83.09 136.3 78.61 139.8 74.67 143.3 71.28 146.8 68.45 150.3 66.16 153.79 64.41 157.29 63.17 160.79 62.43 164.29 62.14 167.79 62.3 171.29 62.87 174.79 63.86 178.29 65.25 181.79 67.06 185.29 69.31 188.79 72.01 192.29 75.19 195.79 78.86 199.29 83.03 202.79 87.7 206.28 92.85 209.78 98.43 213.28 104.41 216.78 110.71 220.28 117.27 223.78 124.03 227.28 130.93 230.78 137.91 234.28 144.94 237.78 152.01 241.28 159.11 244.78 166.25 248.28 173.44 251.78 180.69 255.28 188 258.77 195.38 262.27 202.77 265.77 210.16 269.27 217.45 272.77 224.58 276.27 231.44 279.77 237.93 283.27 243.95 286.77 249.38 290.27 254.16 293.77 258.23 297.27 261.57 300.77 264.17 304.27 266.08 307.76 267.35 311.26 268.06 314.76 268.27 318.26 268.05 321.76 267.47 325.26 266.58 328.76 265.38 332.26 263.89 335.76 262.07 339.26 259.86 342.76 257.17 346.26 253.88 349.76 249.84 353.26 244.9 356.76 238.93 360.25 231.85 363.75 223.65 367.25 214.42 370.75 204.35 374.25 193.68 377.75 182.67 381.25 171.59 384.75 160.69 388.25 150.19 391.75 140.29 395.25 131.11 398.75 122.77 402.25 115.31 405.75 108.75 409.24 103.03 412.74 98.08 416.24 93.77 419.74 89.96 423.24 86.48 426.74 83.17 430.24 79.93 433.74 76.68 437.24 73.45 440.74 70.32 444.24 67.42 447.74 64.91 451.24 62.94 454.74 61.61 458.24 60.98 461.73 61.08 465.23 61.84 468.73 63.15 472.23 64.87 475.73 66.83 479.23 68.85 482.73 70.82 486.23 72.67 489.73 74.41 493.23 76.1 496.73 77.89 500.23 79.94 503.73 82.4 507.23 85.44 510.72 89.2 514.22 93.76 517.72 99.21 521.22 105.57 524.72 112.84 528.22 120.96 531.72 129.86 535.22 139.44 538.72 149.58 542.22 160.14 545.72 170.96 549.22 181.92 552.72 192.85 556.22 203.61 559.72 214.09 563.21 224.14 566.71 233.62 570.21 242.39 573.71 250.27 577.21 257.04 580.71 262.46 584.21 266.29 587.71 268.3 591.21 268.38 594.71 266.53 598.21 262.95 601.71 257.9 605.21 251.74 608.71 244.81 612.21 237.46 615.7 229.97 619.2 222.62 622.7 215.63 626.2 209.15 629.7 203.31 633.2 198.16 636.7 193.71 640.2 189.89 643.7 186.56 647.2 183.52 650.7 180.53 654.2 177.28 657.7 173.48 661.2 168.86 664.69 163.25 668.19 156.57 671.69 148.88 675.19 140.33 678.69 131.15 682.19 121.58 685.69 111.85 689.19 102.2 692.69 92.79 696.19 83.8 699.69 75.32 703.19 67.46 706.69 60.25 710.19 53.74 713.69 47.92 717.18 42.79 720.68 38.32 724.18 34.47 727.68 31.18 731.18 28.42 731.18 439.68 727.68 437.48 724.18 434.88 720.68 431.83 717.18 428.32 713.69 424.32 710.19 419.84 706.69 414.88 703.19 409.49 699.69 403.7 696.19 397.62 692.69 391.35 689.19 385.04 685.69 378.86 682.19 373.03 678.69 367.78 675.19 363.37 671.69 360.06 668.19 358.06 664.69 357.52 661.2 358.49 657.7 360.88 654.2 364.48 650.7 368.97 647.2 374.01 643.7 379.22 640.2 384.3 636.7 388.94 633.2 392.92 629.7 396.07 626.2 398.29 622.7 399.52 619.2 399.75 615.7 399.05 612.21 397.51 608.71 395.28 605.21 392.57 601.71 389.62 598.21 386.69 594.71 384.05 591.21 381.92 587.71 380.44 584.21 379.6 580.71 379.25 577.21 379.2 573.71 379.19 570.21 379.03 566.71 378.56 563.21 377.65 559.72 376.24 556.22 374.26 552.72 371.7 549.22 368.51 545.72 364.66 542.22 360.13 538.72 354.89 535.22 348.9 531.72 342.17 528.22 334.67 524.72 326.42 521.22 317.46 517.72 307.87 514.22 297.72 510.72 287.15 507.23 276.32 503.73 265.4 500.23 254.62 496.73 244.2 493.23 234.37 489.73 225.33 486.23 217.26 482.73 210.29 479.23 204.44 475.73 199.69 472.23 195.92 468.73 192.99 465.23 190.75 461.73 189.05 458.24 187.79 454.74 186.94 451.24 186.5 447.74 186.54 444.24 187.17 440.74 188.54 437.24 190.79 433.74 194.06 430.24 198.4 426.74 203.83 423.24 210.24 419.74 217.5 416.24 225.4 412.74 233.72 409.24 242.27 405.75 250.84 402.25 259.27 398.75 267.42 395.25 275.22 391.75 282.59 388.25 289.53 384.75 296.06 381.25 302.24 377.75 308.16 374.25 313.96 370.75 319.78 367.25 325.76 363.75 332.02 360.25 338.64 356.76 345.61 353.26 352.82 349.76 360.12 346.26 367.29 342.76 374.13 339.26 380.44 335.76 386.06 332.26 390.86 328.76 394.76 325.26 397.73 321.76 399.77 318.26 400.91 314.76 401.21 311.26 400.77 307.76 399.67 304.27 398.04 300.77 395.99 297.27 393.62 293.77 391.02 290.27 388.25 286.77 385.35 283.27 382.31 279.77 379.13 276.27 375.76 272.77 372.17 269.27 368.3 265.77 364.13 262.27 359.62 258.77 354.79 255.28 349.64 251.78 344.19 248.28 338.51 244.78 332.65 241.28 326.68 237.78 320.66 234.28 314.65 230.78 308.7 227.28 302.85 223.78 297.1 220.28 291.46 216.78 285.92 213.28 280.45 209.78 275.05 206.28 269.68 202.79 264.36 199.29 259.1 195.79 253.91 192.29 248.83 188.79 243.93 185.29 239.27 181.79 234.9 178.29 230.9 174.79 227.33 171.29 224.25 167.79 221.69 164.29 219.68 160.79 218.25 157.29 217.4 153.79 217.14 150.3 217.48 146.8 218.42 143.3 219.96 139.8 222.09 136.3 224.82 132.8 228.14 129.3 232.03 125.8 236.46 122.3 241.39 118.8 246.77 115.3 252.53 111.8 258.58 108.3 264.85 104.8 271.25 101.31 277.67 97.81 284.05 94.31 290.3 90.81 296.38 87.31 302.26 83.81 307.92 80.31 313.42 76.81 318.83 73.31 324.27 69.81 329.88 66.31 335.81 62.81 342.17 59.31 349.03 55.81 356.37 52.31 364.1 48.82 372.11 45.32 380.26 41.82 388.4 38.32 396.4 34.82 404.15" clip-path="url(#cpMC4wMHw3NjYuMDB8NDY3LjExfDAuMDA=)" style="stroke-width:0;stroke:none;fill:#f2f2f2"/><polyline points="34.82 191.51 38.32 200.35 41.82 208.29 45.32 215.14 48.82 220.72 52.31 224.85 55.81 227.36 59.31 228.14 62.81 227.13 66.31 224.37 69.81 219.98 73.31 214.17 76.81 207.19 80.31 199.32 83.81 190.81 87.31 181.89 90.81 172.76 94.31 163.57 97.81 154.47 101.31 145.56 104.8 136.93 108.3 128.63 111.8 120.73 115.3 113.25 118.8 106.23 122.3 99.69 125.8 93.64 129.3 88.1 132.8 83.09 136.3 78.61 139.8 74.67 143.3 71.28 146.8 68.45 150.3 66.16 153.79 64.41 157.29 63.17 160.79 62.43 164.29 62.14 167.79 62.3 171.29 62.87 174.79 63.86 178.29 65.25 181.79 67.06 185.29 69.31 188.79 72.01 192.29 75.19 195.79 78.86 199.29 83.03 202.79 87.7 206.28 92.85 209.78 98.43 213.28 104.41 216.78 110.71 220.28 117.27 223.78 124.03 227.28 130.93 230.78 137.91 234.28 144.94 237.78 152.01 241.28 159.11 244.78 166.25 248.28 173.44 251.78 180.69 255.28 188 258.77 195.38 262.27 202.77 265.77 210.16 269.27 217.45 272.77 224.58 276.27 231.44 279.77 237.93 283.27 243.95 286.77 249.38 290.27 254.16 293.77 258.23 297.27 261.57 300.77 264.17 304.27 266.08 307.76 267.35 311.26 268.06 314.76 268.27 318.26 268.05 321.76 267.47 325.26 266.58 328.76 265.38 332.26 263.89 335.76 262.07 339.26 259.86 342.76 257.17 346.26 253.88 349.76 249.84 353.26 244.9 356.76 238.93 360.25 231.85 363.75 223.65 367.25 214.42 370.75 204.35 374.25 193.68 377.75 182.67 381.25 171.59 384.75 160.69 388.25 150.19 391.75 140.29 395.25 131.11 398.75 122.77 402.25 115.31 405.75 108.75 409.24 103.03 412.74 98.08 416.24 93.77 419.74 89.96 423.24 86.48 426.74 83.17 430.24 79.93 433.74 76.68 437.24 73.45 440.74 70.32 444.24 67.42 447.74 64.91 451.24 62.94 454.74 61.61 458.24 60.98 461.73 61.08 465.23 61.84 468.73 63.15 472.23 64.87 475.73 66.83 479.23 68.85 482.73 70.82 486.23 72.67 489.73 74.41 493.23 76.1 496.73 77.89 500.23 79.94 503.73 82.4 507.23 85.44 510.72 89.2 514.22 93.76 517.72 99.21 521.22 105.57 524.72 112.84 528.22 120.96 531.72 129.86 535.22 139.44 538.72 149.58 542.22 160.14 545.72 170.96 549.22 181.92 552.72 192.85 556.22 203.61 559.72 214.09 563.21 224.14 566.71 233.62 570.21 242.39 573.71 250.27 577.21 257.04 580.71 262.46 584.21 266.29 587.71 268.3 591.21 268.38 594.71 266.53 598.21 262.95 601.71 257.9 605.21 251.74 608.71 244.81 612.21 237.46 615.7 229.97 619.2 222.62 622.7 215.63 626.2 209.15 629.7 203.31 633.2 198.16 636.7 193.71 640.2 189.89 643.7 186.56 647.2 183.52 650.7 180.53 654.2 177.28 657.7 173.48 661.2 168.86 664.69 163.25 668.19 156.57 671.69 148.88 675.19 140.33 678.69 131.15 682.19 121.58 685.69 111.85 689.19 102.2 692.69 92.79 696.19 83.8 699.69 75.32 703.19 67.46 706.69 60.25 710.19 53.74 713.69 47.92 717.18 42.79 720.68 38.32 724.18 34.47 727.68 31.18 731.18 28.42" clip-path="url(#cpMC4wMHw3NjYuMDB8NDY3LjExfDAuMDA=)" style="stroke-width:1.07;stroke:none"/><polyline points="731.18 439.68 727.68 437.48 724.18 434.88 720.68 431.83 717.18 428.32 713.69 424.32 710.19 419.84 706.69 414.88 703.19 409.49 699.69 403.7 696.19 397.62 692.69 391.35 689.19 385.04 685.69 378.86 682.19 373.03 678.69 367.78 675.19 363.37 671.69 360.06 668.19 358.06 664.69 357.52 661.2 358.49 657.7 360.88 654.2 364.48 650.7 368.97 647.2 374.01 643.7 379.22 640.2 384.3 636.7 388.94 633.2 392.92 629.7 396.07 626.2 398.29 622.7 399.52 619.2 399.75 615.7 399.05 612.21 397.51 608.71 395.28 605.21 392.57 601.71 389.62 598.21 386.69 594.71 384.05 591.21 381.92 587.71 380.44 584.21 379.6 580.71 379.25 577.21 379.2 573.71 379.19 570.21 379.03 566.71 378.56 563.21 377.65 559.72 376.24 556.22 374.26 552.72 371.7 549.22 368.51 545.72 364.66 542.22 360.13 538.72 354.89 535.22 348.9 531.72 342.17 528.22 334.67 524.72 326.42 521.22 317.46 517.72 307.87 514.22 297.72 510.72 287.15 507.23 276.32 503.73 265.4 500.23 254.62 496.73 244.2 493.23 234.37 489.73 225.33 486.23 217.26 482.73 210.29 479.23 204.44 475.73 199.69 472.23 195.92 468.73 192.99 465.23 190.75 461.73 189.05 458.24 187.79 454.74 186.94 451.24 186.5 447.74 186.54 444.24 187.17 440.74 188.54 437.24 190.79 433.74 194.06 430.24 198.4 426.74 203.83 423.24 210.24 419.74 217.5 416.24 225.4 412.74 233.72 409.24 242.27 405.75 250.84 402.25 259.27 398.75 267.42 395.25 275.22 391.75 282.59 388.25 289.53 384.75 296.06 381.25 302.24 377.75 308.16 374.25 313.96 370.75 319.78 367.25 325.76 363.75 332.02 360.25 338.64 356.76 345.61 353.26 352.82 349.76 360.12 346.26 367.29 342.76 374.13 339.26 380.44 335.76 386.06 332.26 390.86 328.76 394.76 325.26 397.73 321.76 399.77 318.26 400.91 314.76 401.21 311.26 400.77 307.76 399.67 304.27 398.04 300.77 395.99 297.27 393.62 293.77 391.02 290.27 388.25 286.77 385.35 283.27 382.31 279.77 379.13 276.27 375.76 272.77 372.17 269.27 368.3 265.77 364.13 262.27 359.62 258.77 354.79 255.28 349.64 251.78 344.19 248.28 338.51 244.78 332.65 241.28 326.68 237.78 320.66 234.28 314.65 230.78 308.7 227.28 302.85 223.78 297.1 220.28 291.46 216.78 285.92 213.28 280.45 209.78 275.05 206.28 269.68 202.79 264.36 199.29 259.1 195.79 253.91 192.29 248.83 188.79 243.93 185.29 239.27 181.79 234.9 178.29 230.9 174.79 227.33 171.29 224.25 167.79 221.69 164.29 219.68 160.79 218.25 157.29 217.4 153.79 217.14 150.3 217.48 146.8 218.42 143.3 219.96 139.8 222.09 136.3 224.82 132.8 228.14 129.3 232.03 125.8 236.46 122.3 241.39 118.8 246.77 115.3 252.53 111.8 258.58 108.3 264.85 104.8 271.25 101.31 277.67 97.81 284.05 94.31 290.3 90.81 296.38 87.31 302.26 83.81 307.92 80.31 313.42 76.81 318.83 73.31 324.27 69.81 329.88 66.31 335.81 62.81 342.17 59.31 349.03 55.81 356.37 52.31 364.1 48.82 372.11 45.32 380.26 41.82 388.4 38.32 396.4 34.82 404.15" clip-path="url(#cpMC4wMHw3NjYuMDB8NDY3LjExfDAuMDA=)" style="stroke-width:1.07;stroke:none"/><polygon points="34.82 191.51 38.32 200.35 41.82 208.29 45.32 215.14 48.82 220.72 52.31 224.85 55.81 227.36 59.31 228.14 62.81 227.13 66.31 224.37 69.81 219.98 73.31 214.17 76.81 207.19 80.31 199.32 83.81 190.81 87.31 181.89 90.81 172.76 94.31 163.57 97.81 154.47 101.31 145.56 104.8 136.93 108.3 128.63 111.8 120.73 115.3 113.25 118.8 106.23 122.3 99.69 125.8 93.64 129.3 88.1 132.8 83.09 136.3 78.61 139.8 74.67 143.3 71.28 146.8 68.45 150.3 66.16 153.79 64.41 157.29 63.17 160.79 62.43 164.29 62.14 167.79 62.3 171.29 62.87 174.79 63.86 178.29 65.25 181.79 67.06 185.29 69.31 188.79 72.01 192.29 75.19 195.79 78.86 199.29 83.03 202.79 87.7 206.28 92.85 209.78 98.43 213.28 104.41 216.78 110.71 220.28 117.27 223.78 124.03 227.28 130.93 230.78 137.91 234.28 144.94 237.78 152.01 241.28 159.11 244.78 166.25 248.28 173.44 251.78 180.69 255.28 188 258.77 195.38 262.27 202.77 265.77 210.16 269.27 217.45 272.77 224.58 276.27 231.44 279.77 237.93 283.27 243.95 286.77 249.38 290.27 254.16 293.77 258.23 297.27 261.57 300.77 264.17 304.27 266.08 307.76 267.35 311.26 268.06 314.76 268.27 318.26 268.05 321.76 267.47 325.26 266.58 328.76 265.38 332.26 263.89 335.76 262.07 339.26 259.86 342.76 257.17 346.26 253.88 349.76 249.84 353.26 244.9 356.76 238.93 360.25 231.85 363.75 223.65 367.25 214.42 370.75 204.35 374.25 193.68 377.75 182.67 381.25 171.59 384.75 160.69 388.25 150.19 391.75 140.29 395.25 131.11 398.75 122.77 402.25 115.31 405.75 108.75 409.24 103.03 412.74 98.08 416.24 93.77 419.74 89.96 423.24 86.48 426.74 83.17 430.24 79.93 433.74 76.68 437.24 73.45 440.74 70.32 444.24 67.42 447.74 64.91 451.24 62.94 454.74 61.61 458.24 60.98 461.73 61.08 465.23 61.84 468.73 63.15 472.23 64.87 475.73 66.83 479.23 68.85 482.73 70.82 486.23 72.67 489.73 74.41 493.23 76.1 496.73 77.89 500.23 79.94 503.73 82.4 507.23 85.44 510.72 89.2 514.22 93.76 517.72 99.21 521.22 105.57 524.72 112.84 528.22 120.96 531.72 129.86 535.22 139.44 538.72 149.58 542.22 160.14 545.72 170.96 549.22 181.92 552.72 192.85 556.22 203.61 559.72 214.09 563.21 224.14 566.71 233.62 570.21 242.39 573.71 250.27 577.21 257.04 580.71 262.46 584.21 266.29 587.71 268.3 591.21 268.38 594.71 266.53 598.21 262.95 601.71 257.9 605.21 251.74 608.71 244.81 612.21 237.46 615.7 229.97 619.2 222.62 622.7 215.63 626.2 209.15 629.7 203.31 633.2 198.16 636.7 193.71 640.2 189.89 643.7 186.56 647.2 183.52 650.7 180.53 654.2 177.28 657.7 173.48 661.2 168.86 664.69 163.25 668.19 156.57 671.69 148.88 675.19 140.33 678.69 131.15 682.19 121.58 685.69 111.85 689.19 102.2 692.69 92.79 696.19 83.8 699.69 75.32 703.19 67.46 706.69 60.25 710.19 53.74 713.69 47.92 717.18 42.79 720.68 38.32 724.18 34.47 727.68 31.18 731.18 28.42 731.18 439.68 727.68 437.48 724.18 434.88 720.68 431.83 717.18 428.32 713.69 424.32 710.19 419.84 706.69 414.88 703.19 409.49 699.69 403.7 696.19 397.62 692.69 391.35 689.19 385.04 685.69 378.86 682.19 373.03 678.69 367.78 675.19 363.37 671.69 360.06 668.19 358.06 664.69 357.52 661.2 358.49 657.7 360.88 654.2 364.48 650.7 368.97 647.2 374.01 643.7 379.22 640.2 384.3 636.7 388.94 633.2 392.92 629.7 396.07 626.2 398.29 622.7 399.52 619.2 399.75 615.7 399.05 612.21 397.51 608.71 395.28 605.21 392.57 601.71 389.62 598.21 386.69 594.71 384.05 591.21 381.92 587.71 380.44 584.21 379.6 580.71 379.25 577.21 379.2 573.71 379.19 570.21 379.03 566.71 378.56 563.21 377.65 559.72 376.24 556.22 374.26 552.72 371.7 549.22 368.51 545.72 364.66 542.22 360.13 538.72 354.89 535.22 348.9 531.72 342.17 528.22 334.67 524.72 326.42 521.22 317.46 517.72 307.87 514.22 297.72 510.72 287.15 507.23 276.32 503.73 265.4 500.23 254.62 496.73 244.2 493.23 234.37 489.73 225.33 486.23 217.26 482.73 210.29 479.23 204.44 475.73 199.69 472.23 195.92 468.73 192.99 465.23 190.75 461.73 189.05 458.24 187.79 454.74 186.94 451.24 186.5 447.74 186.54 444.24 187.17 440.74 188.54 437.24 190.79 433.74 194.06 430.24 198.4 426.74 203.83 423.24 210.24 419.74 217.5 416.24 225.4 412.74 233.72 409.24 242.27 405.75 250.84 402.25 259.27 398.75 267.42 395.25 275.22 391.75 282.59 388.25 289.53 384.75 296.06 381.25 302.24 377.75 308.16 374.25 313.96 370.75 319.78 367.25 325.76 363.75 332.02 360.25 338.64 356.76 345.61 353.26 352.82 349.76 360.12 346.26 367.29 342.76 374.13 339.26 380.44 335.76 386.06 332.26 390.86 328.76 394.76 325.26 397.73 321.76 399.77 318.26 400.91 314.76 401.21 311.26 400.77 307.76 399.67 304.27 398.04 300.77 395.99 297.27 393.62 293.77 391.02 290.27 388.25 286.77 385.35 283.27 382.31 279.77 379.13 276.27 375.76 272.77 372.17 269.27 368.3 265.77 364.13 262.27 359.62 258.77 354.79 255.28 349.64 251.78 344.19 248.28 338.51 244.78 332.65 241.28 326.68 237.78 320.66 234.28 314.65 230.78 308.7 227.28 302.85 223.78 297.1 220.28 291.46 216.78 285.92 213.28 280.45 209.78 275.05 206.28 269.68 202.79 264.36 199.29 259.1 195.79 253.91 192.29 248.83 188.79 243.93 185.29 239.27 181.79 234.9 178.29 230.9 174.79 227.33 171.29 224.25 167.79 221.69 164.29 219.68 160.79 218.25 157.29 217.4 153.79 217.14 150.3 217.48 146.8 218.42 143.3 219.96 139.8 222.09 136.3 224.82 132.8 228.14 129.3 232.03 125.8 236.46 122.3 241.39 118.8 246.77 115.3 252.53 111.8 258.58 108.3 264.85 104.8 271.25 101.31 277.67 97.81 284.05 94.31 290.3 90.81 296.38 87.31 302.26 83.81 307.92 80.31 313.42 76.81 318.83 73.31 324.27 69.81 329.88 66.31 335.81 62.81 342.17 59.31 349.03 55.81 356.37 52.31 364.1 48.82 372.11 45.32 380.26 41.82 388.4 38.32 396.4 34.82 404.15" clip-path="url(#cpMC4wMHw3NjYuMDB8NDY3LjExfDAuMDA=)" style="stroke-width:0;stroke:none;fill:#f2f2f2"/><polyline points="34.82 191.51 38.32 200.35 41.82 208.29 45.32 215.14 48.82 220.72 52.31 224.85 55.81 227.36 59.31 228.14 62.81 227.13 66.31 224.37 69.81 219.98 73.31 214.17 76.81 207.19 80.31 199.32 83.81 190.81 87.31 181.89 90.81 172.76 94.31 163.57 97.81 154.47 101.31 145.56 104.8 136.93 108.3 128.63 111.8 120.73 115.3 113.25 118.8 106.23 122.3 99.69 125.8 93.64 129.3 88.1 132.8 83.09 136.3 78.61 139.8 74.67 143.3 71.28 146.8 68.45 150.3 66.16 153.79 64.41 157.29 63.17 160.79 62.43 164.29 62.14 167.79 62.3 171.29 62.87 174.79 63.86 178.29 65.25 181.79 67.06 185.29 69.31 188.79 72.01 192.29 75.19 195.79 78.86 199.29 83.03 202.79 87.7 206.28 92.85 209.78 98.43 213.28 104.41 216.78 110.71 220.28 117.27 223.78 124.03 227.28 130.93 230.78 137.91 234.28 144.94 237.78 152.01 241.28 159.11 244.78 166.25 248.28 173.44 251.78 180.69 255.28 188 258.77 195.38 262.27 202.77 265.77 210.16 269.27 217.45 272.77 224.58 276.27 231.44 279.77 237.93 283.27 243.95 286.77 249.38 290.27 254.16 293.77 258.23 297.27 261.57 300.77 264.17 304.27 266.08 307.76 267.35 311.26 268.06 314.76 268.27 318.26 268.05 321.76 267.47 325.26 266.58 328.76 265.38 332.26 263.89 335.76 262.07 339.26 259.86 342.76 257.17 346.26 253.88 349.76 249.84 353.26 244.9 356.76 238.93 360.25 231.85 363.75 223.65 367.25 214.42 370.75 204.35 374.25 193.68 377.75 182.67 381.25 171.59 384.75 160.69 388.25 150.19 391.75 140.29 395.25 131.11 398.75 122.77 402.25 115.31 405.75 108.75 409.24 103.03 412.74 98.08 416.24 93.77 419.74 89.96 423.24 86.48 426.74 83.17 430.24 79.93 433.74 76.68 437.24 73.45 440.74 70.32 444.24 67.42 447.74 64.91 451.24 62.94 454.74 61.61 458.24 60.98 461.73 61.08 465.23 61.84 468.73 63.15 472.23 64.87 475.73 66.83 479.23 68.85 482.73 70.82 486.23 72.67 489.73 74.41 493.23 76.1 496.73 77.89 500.23 79.94 503.73 82.4 507.23 85.44 510.72 89.2 514.22 93.76 517.72 99.21 521.22 105.57 524.72 112.84 528.22 120.96 531.72 129.86 535.22 139.44 538.72 149.58 542.22 160.14 545.72 170.96 549.22 181.92 552.72 192.85 556.22 203.61 559.72 214.09 563.21 224.14 566.71 233.62 570.21 242.39 573.71 250.27 577.21 257.04 580.71 262.46 584.21 266.29 587.71 268.3 591.21 268.38 594.71 266.53 598.21 262.95 601.71 257.9 605.21 251.74 608.71 244.81 612.21 237.46 615.7 229.97 619.2 222.62 622.7 215.63 626.2 209.15 629.7 203.31 633.2 198.16 636.7 193.71 640.2 189.89 643.7 186.56 647.2 183.52 650.7 180.53 654.2 177.28 657.7 173.48 661.2 168.86 664.69 163.25 668.19 156.57 671.69 148.88 675.19 140.33 678.69 131.15 682.19 121.58 685.69 111.85 689.19 102.2 692.69 92.79 696.19 83.8 699.69 75.32 703.19 67.46 706.69 60.25 710.19 53.74 713.69 47.92 717.18 42.79 720.68 38.32 724.18 34.47 727.68 31.18 731.18 28.42" clip-path="url(#cpMC4wMHw3NjYuMDB8NDY3LjExfDAuMDA=)" style="stroke-width:1.07;stroke:none"/><polyline points="731.18 439.68 727.68 437.48 724.18 434.88 720.68 431.83 717.18 428.32 713.69 424.32 710.19 419.84 706.69 414.88 703.19 409.49 699.69 403.7 696.19 397.62 692.69 391.35 689.19 385.04 685.69 378.86 682.19 373.03 678.69 367.78 675.19 363.37 671.69 360.06 668.19 358.06 664.69 357.52 661.2 358.49 657.7 360.88 654.2 364.48 650.7 368.97 647.2 374.01 643.7 379.22 640.2 384.3 636.7 388.94 633.2 392.92 629.7 396.07 626.2 398.29 622.7 399.52 619.2 399.75 615.7 399.05 612.21 397.51 608.71 395.28 605.21 392.57 601.71 389.62 598.21 386.69 594.71 384.05 591.21 381.92 587.71 380.44 584.21 379.6 580.71 379.25 577.21 379.2 573.71 379.19 570.21 379.03 566.71 378.56 563.21 377.65 559.72 376.24 556.22 374.26 552.72 371.7 549.22 368.51 545.72 364.66 542.22 360.13 538.72 354.89 535.22 348.9 531.72 342.17 528.22 334.67 524.72 326.42 521.22 317.46 517.72 307.87 514.22 297.72 510.72 287.15 507.23 276.32 503.73 265.4 500.23 254.62 496.73 244.2 493.23 234.37 489.73 225.33 486.23 217.26 482.73 210.29 479.23 204.44 475.73 199.69 472.23 195.92 468.73 192.99 465.23 190.75 461.73 189.05 458.24 187.79 454.74 186.94 451.24 186.5 447.74 186.54 444.24 187.17 440.74 188.54 437.24 190.79 433.74 194.06 430.24 198.4 426.74 203.83 423.24 210.24 419.74 217.5 416.24 225.4 412.74 233.72 409.24 242.27 405.75 250.84 402.25 259.27 398.75 267.42 395.25 275.22 391.75 282.59 388.25 289.53 384.75 296.06 381.25 302.24 377.75 308.16 374.25 313.96 370.75 319.78 367.25 325.76 363.75 332.02 360.25 338.64 356.76 345.61 353.26 352.82 349.76 360.12 346.26 367.29 342.76 374.13 339.26 380.44 335.76 386.06 332.26 390.86 328.76 394.76 325.26 397.73 321.76 399.77 318.26 400.91 314.76 401.21 311.26 400.77 307.76 399.67 304.27 398.04 300.77 395.99 297.27 393.62 293.77 391.02 290.27 388.25 286.77 385.35 283.27 382.31 279.77 379.13 276.27 375.76 272.77 372.17 269.27 368.3 265.77 364.13 262.27 359.62 258.77 354.79 255.28 349.64 251.78 344.19 248.28 338.51 244.78 332.65 241.28 326.68 237.78 320.66 234.28 314.65 230.78 308.7 227.28 302.85 223.78 297.1 220.28 291.46 216.78 285.92 213.28 280.45 209.78 275.05 206.28 269.68 202.79 264.36 199.29 259.1 195.79 253.91 192.29 248.83 188.79 243.93 185.29 239.27 181.79 234.9 178.29 230.9 174.79 227.33 171.29 224.25 167.79 221.69 164.29 219.68 160.79 218.25 157.29 217.4 153.79 217.14 150.3 217.48 146.8 218.42 143.3 219.96 139.8 222.09 136.3 224.82 132.8 228.14 129.3 232.03 125.8 236.46 122.3 241.39 118.8 246.77 115.3 252.53 111.8 258.58 108.3 264.85 104.8 271.25 101.31 277.67 97.81 284.05 94.31 290.3 90.81 296.38 87.31 302.26 83.81 307.92 80.31 313.42 76.81 318.83 73.31 324.27 69.81 329.88 66.31 335.81 62.81 342.17 59.31 349.03 55.81 356.37 52.31 364.1 48.82 372.11 45.32 380.26 41.82 388.4 38.32 396.4 34.82 404.15" clip-path="url(#cpMC4wMHw3NjYuMDB8NDY3LjExfDAuMDA=)" style="stroke-width:1.07;stroke:none"/><polygon points="34.82 191.51 38.32 200.35 41.82 208.29 45.32 215.14 48.82 220.72 52.31 224.85 55.81 227.36 59.31 228.14 62.81 227.13 66.31 224.37 69.81 219.98 73.31 214.17 76.81 207.19 80.31 199.32 83.81 190.81 87.31 181.89 90.81 172.76 94.31 163.57 97.81 154.47 101.31 145.56 104.8 136.93 108.3 128.63 111.8 120.73 115.3 113.25 118.8 106.23 122.3 99.69 125.8 93.64 129.3 88.1 132.8 83.09 136.3 78.61 139.8 74.67 143.3 71.28 146.8 68.45 150.3 66.16 153.79 64.41 157.29 63.17 160.79 62.43 164.29 62.14 167.79 62.3 171.29 62.87 174.79 63.86 178.29 65.25 181.79 67.06 185.29 69.31 188.79 72.01 192.29 75.19 195.79 78.86 199.29 83.03 202.79 87.7 206.28 92.85 209.78 98.43 213.28 104.41 216.78 110.71 220.28 117.27 223.78 124.03 227.28 130.93 230.78 137.91 234.28 144.94 237.78 152.01 241.28 159.11 244.78 166.25 248.28 173.44 251.78 180.69 255.28 188 258.77 195.38 262.27 202.77 265.77 210.16 269.27 217.45 272.77 224.58 276.27 231.44 279.77 237.93 283.27 243.95 286.77 249.38 290.27 254.16 293.77 258.23 297.27 261.57 300.77 264.17 304.27 266.08 307.76 267.35 311.26 268.06 314.76 268.27 318.26 268.05 321.76 267.47 325.26 266.58 328.76 265.38 332.26 263.89 335.76 262.07 339.26 259.86 342.76 257.17 346.26 253.88 349.76 249.84 353.26 244.9 356.76 238.93 360.25 231.85 363.75 223.65 367.25 214.42 370.75 204.35 374.25 193.68 377.75 182.67 381.25 171.59 384.75 160.69 388.25 150.19 391.75 140.29 395.25 131.11 398.75 122.77 402.25 115.31 405.75 108.75 409.24 103.03 412.74 98.08 416.24 93.77 419.74 89.96 423.24 86.48 426.74 83.17 430.24 79.93 433.74 76.68 437.24 73.45 440.74 70.32 444.24 67.42 447.74 64.91 451.24 62.94 454.74 61.61 458.24 60.98 461.73 61.08 465.23 61.84 468.73 63.15 472.23 64.87 475.73 66.83 479.23 68.85 482.73 70.82 486.23 72.67 489.73 74.41 493.23 76.1 496.73 77.89 500.23 79.94 503.73 82.4 507.23 85.44 510.72 89.2 514.22 93.76 517.72 99.21 521.22 105.57 524.72 112.84 528.22 120.96 531.72 129.86 535.22 139.44 538.72 149.58 542.22 160.14 545.72 170.96 549.22 181.92 552.72 192.85 556.22 203.61 559.72 214.09 563.21 224.14 566.71 233.62 570.21 242.39 573.71 250.27 577.21 257.04 580.71 262.46 584.21 266.29 587.71 268.3 591.21 268.38 594.71 266.53 598.21 262.95 601.71 257.9 605.21 251.74 608.71 244.81 612.21 237.46 615.7 229.97 619.2 222.62 622.7 215.63 626.2 209.15 629.7 203.31 633.2 198.16 636.7 193.71 640.2 189.89 643.7 186.56 647.2 183.52 650.7 180.53 654.2 177.28 657.7 173.48 661.2 168.86 664.69 163.25 668.19 156.57 671.69 148.88 675.19 140.33 678.69 131.15 682.19 121.58 685.69 111.85 689.19 102.2 692.69 92.79 696.19 83.8 699.69 75.32 703.19 67.46 706.69 60.25 710.19 53.74 713.69 47.92 717.18 42.79 720.68 38.32 724.18 34.47 727.68 31.18 731.18 28.42 731.18 439.68 727.68 437.48 724.18 434.88 720.68 431.83 717.18 428.32 713.69 424.32 710.19 419.84 706.69 414.88 703.19 409.49 699.69 403.7 696.19 397.62 692.69 391.35 689.19 385.04 685.69 378.86 682.19 373.03 678.69 367.78 675.19 363.37 671.69 360.06 668.19 358.06 664.69 357.52 661.2 358.49 657.7 360.88 654.2 364.48 650.7 368.97 647.2 374.01 643.7 379.22 640.2 384.3 636.7 388.94 633.2 392.92 629.7 396.07 626.2 398.29 622.7 399.52 619.2 399.75 615.7 399.05 612.21 397.51 608.71 395.28 605.21 392.57 601.71 389.62 598.21 386.69 594.71 384.05 591.21 381.92 587.71 380.44 584.21 379.6 580.71 379.25 577.21 379.2 573.71 379.19 570.21 379.03 566.71 378.56 563.21 377.65 559.72 376.24 556.22 374.26 552.72 371.7 549.22 368.51 545.72 364.66 542.22 360.13 538.72 354.89 535.22 348.9 531.72 342.17 528.22 334.67 524.72 326.42 521.22 317.46 517.72 307.87 514.22 297.72 510.72 287.15 507.23 276.32 503.73 265.4 500.23 254.62 496.73 244.2 493.23 234.37 489.73 225.33 486.23 217.26 482.73 210.29 479.23 204.44 475.73 199.69 472.23 195.92 468.73 192.99 465.23 190.75 461.73 189.05 458.24 187.79 454.74 186.94 451.24 186.5 447.74 186.54 444.24 187.17 440.74 188.54 437.24 190.79 433.74 194.06 430.24 198.4 426.74 203.83 423.24 210.24 419.74 217.5 416.24 225.4 412.74 233.72 409.24 242.27 405.75 250.84 402.25 259.27 398.75 267.42 395.25 275.22 391.75 282.59 388.25 289.53 384.75 296.06 381.25 302.24 377.75 308.16 374.25 313.96 370.75 319.78 367.25 325.76 363.75 332.02 360.25 338.64 356.76 345.61 353.26 352.82 349.76 360.12 346.26 367.29 342.76 374.13 339.26 380.44 335.76 386.06 332.26 390.86 328.76 394.76 325.26 397.73 321.76 399.77 318.26 400.91 314.76 401.21 311.26 400.77 307.76 399.67 304.27 398.04 300.77 395.99 297.27 393.62 293.77 391.02 290.27 388.25 286.77 385.35 283.27 382.31 279.77 379.13 276.27 375.76 272.77 372.17 269.27 368.3 265.77 364.13 262.27 359.62 258.77 354.79 255.28 349.64 251.78 344.19 248.28 338.51 244.78 332.65 241.28 326.68 237.78 320.66 234.28 314.65 230.78 308.7 227.28 302.85 223.78 297.1 220.28 291.46 216.78 285.92 213.28 280.45 209.78 275.05 206.28 269.68 202.79 264.36 199.29 259.1 195.79 253.91 192.29 248.83 188.79 243.93 185.29 239.27 181.79 234.9 178.29 230.9 174.79 227.33 171.29 224.25 167.79 221.69 164.29 219.68 160.79 218.25 157.29 217.4 153.79 217.14 150.3 217.48 146.8 218.42 143.3 219.96 139.8 222.09 136.3 224.82 132.8 228.14 129.3 232.03 125.8 236.46 122.3 241.39 118.8 246.77 115.3 252.53 111.8 258.58 108.3 264.85 104.8 271.25 101.31 277.67 97.81 284.05 94.31 290.3 90.81 296.38 87.31 302.26 83.81 307.92 80.31 313.42 76.81 318.83 73.31 324.27 69.81 329.88 66.31 335.81 62.81 342.17 59.31 349.03 55.81 356.37 52.31 364.1 48.82 372.11 45.32 380.26 41.82 388.4 38.32 396.4 34.82 404.15" clip-path="url(#cpMC4wMHw3NjYuMDB8NDY3LjExfDAuMDA=)" style="stroke-width:0;stroke:none;fill:#f2f2f2"/><polyline points="34.82 191.51 38.32 200.35 41.82 208.29 45.32 215.14 48.82 220.72 52.31 224.85 55.81 227.36 59.31 228.14 62.81 227.13 66.31 224.37 69.81 219.98 73.31 214.17 76.81 207.19 80.31 199.32 83.81 190.81 87.31 181.89 90.81 172.76 94.31 163.57 97.81 154.47 101.31 145.56 104.8 136.93 108.3 128.63 111.8 120.73 115.3 113.25 118.8 106.23 122.3 99.69 125.8 93.64 129.3 88.1 132.8 83.09 136.3 78.61 139.8 74.67 143.3 71.28 146.8 68.45 150.3 66.16 153.79 64.41 157.29 63.17 160.79 62.43 164.29 62.14 167.79 62.3 171.29 62.87 174.79 63.86 178.29 65.25 181.79 67.06 185.29 69.31 188.79 72.01 192.29 75.19 195.79 78.86 199.29 83.03 202.79 87.7 206.28 92.85 209.78 98.43 213.28 104.41 216.78 110.71 220.28 117.27 223.78 124.03 227.28 130.93 230.78 137.91 234.28 144.94 237.78 152.01 241.28 159.11 244.78 166.25 248.28 173.44 251.78 180.69 255.28 188 258.77 195.38 262.27 202.77 265.77 210.16 269.27 217.45 272.77 224.58 276.27 231.44 279.77 237.93 283.27 243.95 286.77 249.38 290.27 254.16 293.77 258.23 297.27 261.57 300.77 264.17 304.27 266.08 307.76 267.35 311.26 268.06 314.76 268.27 318.26 268.05 321.76 267.47 325.26 266.58 328.76 265.38 332.26 263.89 335.76 262.07 339.26 259.86 342.76 257.17 346.26 253.88 349.76 249.84 353.26 244.9 356.76 238.93 360.25 231.85 363.75 223.65 367.25 214.42 370.75 204.35 374.25 193.68 377.75 182.67 381.25 171.59 384.75 160.69 388.25 150.19 391.75 140.29 395.25 131.11 398.75 122.77 402.25 115.31 405.75 108.75 409.24 103.03 412.74 98.08 416.24 93.77 419.74 89.96 423.24 86.48 426.74 83.17 430.24 79.93 433.74 76.68 437.24 73.45 440.74 70.32 444.24 67.42 447.74 64.91 451.24 62.94 454.74 61.61 458.24 60.98 461.73 61.08 465.23 61.84 468.73 63.15 472.23 64.87 475.73 66.83 479.23 68.85 482.73 70.82 486.23 72.67 489.73 74.41 493.23 76.1 496.73 77.89 500.23 79.94 503.73 82.4 507.23 85.44 510.72 89.2 514.22 93.76 517.72 99.21 521.22 105.57 524.72 112.84 528.22 120.96 531.72 129.86 535.22 139.44 538.72 149.58 542.22 160.14 545.72 170.96 549.22 181.92 552.72 192.85 556.22 203.61 559.72 214.09 563.21 224.14 566.71 233.62 570.21 242.39 573.71 250.27 577.21 257.04 580.71 262.46 584.21 266.29 587.71 268.3 591.21 268.38 594.71 266.53 598.21 262.95 601.71 257.9 605.21 251.74 608.71 244.81 612.21 237.46 615.7 229.97 619.2 222.62 622.7 215.63 626.2 209.15 629.7 203.31 633.2 198.16 636.7 193.71 640.2 189.89 643.7 186.56 647.2 183.52 650.7 180.53 654.2 177.28 657.7 173.48 661.2 168.86 664.69 163.25 668.19 156.57 671.69 148.88 675.19 140.33 678.69 131.15 682.19 121.58 685.69 111.85 689.19 102.2 692.69 92.79 696.19 83.8 699.69 75.32 703.19 67.46 706.69 60.25 710.19 53.74 713.69 47.92 717.18 42.79 720.68 38.32 724.18 34.47 727.68 31.18 731.18 28.42" clip-path="url(#cpMC4wMHw3NjYuMDB8NDY3LjExfDAuMDA=)" style="stroke-width:1.07;stroke:none"/><polyline points="731.18 439.68 727.68 437.48 724.18 434.88 720.68 431.83 717.18 428.32 713.69 424.32 710.19 419.84 706.69 414.88 703.19 409.49 699.69 403.7 696.19 397.62 692.69 391.35 689.19 385.04 685.69 378.86 682.19 373.03 678.69 367.78 675.19 363.37 671.69 360.06 668.19 358.06 664.69 357.52 661.2 358.49 657.7 360.88 654.2 364.48 650.7 368.97 647.2 374.01 643.7 379.22 640.2 384.3 636.7 388.94 633.2 392.92 629.7 396.07 626.2 398.29 622.7 399.52 619.2 399.75 615.7 399.05 612.21 397.51 608.71 395.28 605.21 392.57 601.71 389.62 598.21 386.69 594.71 384.05 591.21 381.92 587.71 380.44 584.21 379.6 580.71 379.25 577.21 379.2 573.71 379.19 570.21 379.03 566.71 378.56 563.21 377.65 559.72 376.24 556.22 374.26 552.72 371.7 549.22 368.51 545.72 364.66 542.22 360.13 538.72 354.89 535.22 348.9 531.72 342.17 528.22 334.67 524.72 326.42 521.22 317.46 517.72 307.87 514.22 297.72 510.72 287.15 507.23 276.32 503.73 265.4 500.23 254.62 496.73 244.2 493.23 234.37 489.73 225.33 486.23 217.26 482.73 210.29 479.23 204.44 475.73 199.69 472.23 195.92 468.73 192.99 465.23 190.75 461.73 189.05 458.24 187.79 454.74 186.94 451.24 186.5 447.74 186.54 444.24 187.17 440.74 188.54 437.24 190.79 433.74 194.06 430.24 198.4 426.74 203.83 423.24 210.24 419.74 217.5 416.24 225.4 412.74 233.72 409.24 242.27 405.75 250.84 402.25 259.27 398.75 267.42 395.25 275.22 391.75 282.59 388.25 289.53 384.75 296.06 381.25 302.24 377.75 308.16 374.25 313.96 370.75 319.78 367.25 325.76 363.75 332.02 360.25 338.64 356.76 345.61 353.26 352.82 349.76 360.12 346.26 367.29 342.76 374.13 339.26 380.44 335.76 386.06 332.26 390.86 328.76 394.76 325.26 397.73 321.76 399.77 318.26 400.91 314.76 401.21 311.26 400.77 307.76 399.67 304.27 398.04 300.77 395.99 297.27 393.62 293.77 391.02 290.27 388.25 286.77 385.35 283.27 382.31 279.77 379.13 276.27 375.76 272.77 372.17 269.27 368.3 265.77 364.13 262.27 359.62 258.77 354.79 255.28 349.64 251.78 344.19 248.28 338.51 244.78 332.65 241.28 326.68 237.78 320.66 234.28 314.65 230.78 308.7 227.28 302.85 223.78 297.1 220.28 291.46 216.78 285.92 213.28 280.45 209.78 275.05 206.28 269.68 202.79 264.36 199.29 259.1 195.79 253.91 192.29 248.83 188.79 243.93 185.29 239.27 181.79 234.9 178.29 230.9 174.79 227.33 171.29 224.25 167.79 221.69 164.29 219.68 160.79 218.25 157.29 217.4 153.79 217.14 150.3 217.48 146.8 218.42 143.3 219.96 139.8 222.09 136.3 224.82 132.8 228.14 129.3 232.03 125.8 236.46 122.3 241.39 118.8 246.77 115.3 252.53 111.8 258.58 108.3 264.85 104.8 271.25 101.31 277.67 97.81 284.05 94.31 290.3 90.81 296.38 87.31 302.26 83.81 307.92 80.31 313.42 76.81 318.83 73.31 324.27 69.81 329.88 66.31 335.81 62.81 342.17 59.31 349.03 55.81 356.37 52.31 364.1 48.82 372.11 45.32 380.26 41.82 388.4 38.32 396.4 34.82 404.15" clip-path="url(#cpMC4wMHw3NjYuMDB8NDY3LjExfDAuMDA=)" style="stroke-width:1.07;stroke:none"/><polygon points="34.82 191.51 38.32 200.35 41.82 208.29 45.32 215.14 48.82 220.72 52.31 224.85 55.81 227.36 59.31 228.14 62.81 227.13 66.31 224.37 69.81 219.98 73.31 214.17 76.81 207.19 80.31 199.32 83.81 190.81 87.31 181.89 90.81 172.76 94.31 163.57 97.81 154.47 101.31 145.56 104.8 136.93 108.3 128.63 111.8 120.73 115.3 113.25 118.8 106.23 122.3 99.69 125.8 93.64 129.3 88.1 132.8 83.09 136.3 78.61 139.8 74.67 143.3 71.28 146.8 68.45 150.3 66.16 153.79 64.41 157.29 63.17 160.79 62.43 164.29 62.14 167.79 62.3 171.29 62.87 174.79 63.86 178.29 65.25 181.79 67.06 185.29 69.31 188.79 72.01 192.29 75.19 195.79 78.86 199.29 83.03 202.79 87.7 206.28 92.85 209.78 98.43 213.28 104.41 216.78 110.71 220.28 117.27 223.78 124.03 227.28 130.93 230.78 137.91 234.28 144.94 237.78 152.01 241.28 159.11 244.78 166.25 248.28 173.44 251.78 180.69 255.28 188 258.77 195.38 262.27 202.77 265.77 210.16 269.27 217.45 272.77 224.58 276.27 231.44 279.77 237.93 283.27 243.95 286.77 249.38 290.27 254.16 293.77 258.23 297.27 261.57 300.77 264.17 304.27 266.08 307.76 267.35 311.26 268.06 314.76 268.27 318.26 268.05 321.76 267.47 325.26 266.58 328.76 265.38 332.26 263.89 335.76 262.07 339.26 259.86 342.76 257.17 346.26 253.88 349.76 249.84 353.26 244.9 356.76 238.93 360.25 231.85 363.75 223.65 367.25 214.42 370.75 204.35 374.25 193.68 377.75 182.67 381.25 171.59 384.75 160.69 388.25 150.19 391.75 140.29 395.25 131.11 398.75 122.77 402.25 115.31 405.75 108.75 409.24 103.03 412.74 98.08 416.24 93.77 419.74 89.96 423.24 86.48 426.74 83.17 430.24 79.93 433.74 76.68 437.24 73.45 440.74 70.32 444.24 67.42 447.74 64.91 451.24 62.94 454.74 61.61 458.24 60.98 461.73 61.08 465.23 61.84 468.73 63.15 472.23 64.87 475.73 66.83 479.23 68.85 482.73 70.82 486.23 72.67 489.73 74.41 493.23 76.1 496.73 77.89 500.23 79.94 503.73 82.4 507.23 85.44 510.72 89.2 514.22 93.76 517.72 99.21 521.22 105.57 524.72 112.84 528.22 120.96 531.72 129.86 535.22 139.44 538.72 149.58 542.22 160.14 545.72 170.96 549.22 181.92 552.72 192.85 556.22 203.61 559.72 214.09 563.21 224.14 566.71 233.62 570.21 242.39 573.71 250.27 577.21 257.04 580.71 262.46 584.21 266.29 587.71 268.3 591.21 268.38 594.71 266.53 598.21 262.95 601.71 257.9 605.21 251.74 608.71 244.81 612.21 237.46 615.7 229.97 619.2 222.62 622.7 215.63 626.2 209.15 629.7 203.31 633.2 198.16 636.7 193.71 640.2 189.89 643.7 186.56 647.2 183.52 650.7 180.53 654.2 177.28 657.7 173.48 661.2 168.86 664.69 163.25 668.19 156.57 671.69 148.88 675.19 140.33 678.69 131.15 682.19 121.58 685.69 111.85 689.19 102.2 692.69 92.79 696.19 83.8 699.69 75.32 703.19 67.46 706.69 60.25 710.19 53.74 713.69 47.92 717.18 42.79 720.68 38.32 724.18 34.47 727.68 31.18 731.18 28.42 731.18 439.68 727.68 437.48 724.18 434.88 720.68 431.83 717.18 428.32 713.69 424.32 710.19 419.84 706.69 414.88 703.19 409.49 699.69 403.7 696.19 397.62 692.69 391.35 689.19 385.04 685.69 378.86 682.19 373.03 678.69 367.78 675.19 363.37 671.69 360.06 668.19 358.06 664.69 357.52 661.2 358.49 657.7 360.88 654.2 364.48 650.7 368.97 647.2 374.01 643.7 379.22 640.2 384.3 636.7 388.94 633.2 392.92 629.7 396.07 626.2 398.29 622.7 399.52 619.2 399.75 615.7 399.05 612.21 397.51 608.71 395.28 605.21 392.57 601.71 389.62 598.21 386.69 594.71 384.05 591.21 381.92 587.71 380.44 584.21 379.6 580.71 379.25 577.21 379.2 573.71 379.19 570.21 379.03 566.71 378.56 563.21 377.65 559.72 376.24 556.22 374.26 552.72 371.7 549.22 368.51 545.72 364.66 542.22 360.13 538.72 354.89 535.22 348.9 531.72 342.17 528.22 334.67 524.72 326.42 521.22 317.46 517.72 307.87 514.22 297.72 510.72 287.15 507.23 276.32 503.73 265.4 500.23 254.62 496.73 244.2 493.23 234.37 489.73 225.33 486.23 217.26 482.73 210.29 479.23 204.44 475.73 199.69 472.23 195.92 468.73 192.99 465.23 190.75 461.73 189.05 458.24 187.79 454.74 186.94 451.24 186.5 447.74 186.54 444.24 187.17 440.74 188.54 437.24 190.79 433.74 194.06 430.24 198.4 426.74 203.83 423.24 210.24 419.74 217.5 416.24 225.4 412.74 233.72 409.24 242.27 405.75 250.84 402.25 259.27 398.75 267.42 395.25 275.22 391.75 282.59 388.25 289.53 384.75 296.06 381.25 302.24 377.75 308.16 374.25 313.96 370.75 319.78 367.25 325.76 363.75 332.02 360.25 338.64 356.76 345.61 353.26 352.82 349.76 360.12 346.26 367.29 342.76 374.13 339.26 380.44 335.76 386.06 332.26 390.86 328.76 394.76 325.26 397.73 321.76 399.77 318.26 400.91 314.76 401.21 311.26 400.77 307.76 399.67 304.27 398.04 300.77 395.99 297.27 393.62 293.77 391.02 290.27 388.25 286.77 385.35 283.27 382.31 279.77 379.13 276.27 375.76 272.77 372.17 269.27 368.3 265.77 364.13 262.27 359.62 258.77 354.79 255.28 349.64 251.78 344.19 248.28 338.51 244.78 332.65 241.28 326.68 237.78 320.66 234.28 314.65 230.78 308.7 227.28 302.85 223.78 297.1 220.28 291.46 216.78 285.92 213.28 280.45 209.78 275.05 206.28 269.68 202.79 264.36 199.29 259.1 195.79 253.91 192.29 248.83 188.79 243.93 185.29 239.27 181.79 234.9 178.29 230.9 174.79 227.33 171.29 224.25 167.79 221.69 164.29 219.68 160.79 218.25 157.29 217.4 153.79 217.14 150.3 217.48 146.8 218.42 143.3 219.96 139.8 222.09 136.3 224.82 132.8 228.14 129.3 232.03 125.8 236.46 122.3 241.39 118.8 246.77 115.3 252.53 111.8 258.58 108.3 264.85 104.8 271.25 101.31 277.67 97.81 284.05 94.31 290.3 90.81 296.38 87.31 302.26 83.81 307.92 80.31 313.42 76.81 318.83 73.31 324.27 69.81 329.88 66.31 335.81 62.81 342.17 59.31 349.03 55.81 356.37 52.31 364.1 48.82 372.11 45.32 380.26 41.82 388.4 38.32 396.4 34.82 404.15" clip-path="url(#cpMC4wMHw3NjYuMDB8NDY3LjExfDAuMDA=)" style="stroke-width:0;stroke:none;fill:#f2f2f2"/><polyline points="34.82 191.51 38.32 200.35 41.82 208.29 45.32 215.14 48.82 220.72 52.31 224.85 55.81 227.36 59.31 228.14 62.81 227.13 66.31 224.37 69.81 219.98 73.31 214.17 76.81 207.19 80.31 199.32 83.81 190.81 87.31 181.89 90.81 172.76 94.31 163.57 97.81 154.47 101.31 145.56 104.8 136.93 108.3 128.63 111.8 120.73 115.3 113.25 118.8 106.23 122.3 99.69 125.8 93.64 129.3 88.1 132.8 83.09 136.3 78.61 139.8 74.67 143.3 71.28 146.8 68.45 150.3 66.16 153.79 64.41 157.29 63.17 160.79 62.43 164.29 62.14 167.79 62.3 171.29 62.87 174.79 63.86 178.29 65.25 181.79 67.06 185.29 69.31 188.79 72.01 192.29 75.19 195.79 78.86 199.29 83.03 202.79 87.7 206.28 92.85 209.78 98.43 213.28 104.41 216.78 110.71 220.28 117.27 223.78 124.03 227.28 130.93 230.78 137.91 234.28 144.94 237.78 152.01 241.28 159.11 244.78 166.25 248.28 173.44 251.78 180.69 255.28 188 258.77 195.38 262.27 202.77 265.77 210.16 269.27 217.45 272.77 224.58 276.27 231.44 279.77 237.93 283.27 243.95 286.77 249.38 290.27 254.16 293.77 258.23 297.27 261.57 300.77 264.17 304.27 266.08 307.76 267.35 311.26 268.06 314.76 268.27 318.26 268.05 321.76 267.47 325.26 266.58 328.76 265.38 332.26 263.89 335.76 262.07 339.26 259.86 342.76 257.17 346.26 253.88 349.76 249.84 353.26 244.9 356.76 238.93 360.25 231.85 363.75 223.65 367.25 214.42 370.75 204.35 374.25 193.68 377.75 182.67 381.25 171.59 384.75 160.69 388.25 150.19 391.75 140.29 395.25 131.11 398.75 122.77 402.25 115.31 405.75 108.75 409.24 103.03 412.74 98.08 416.24 93.77 419.74 89.96 423.24 86.48 426.74 83.17 430.24 79.93 433.74 76.68 437.24 73.45 440.74 70.32 444.24 67.42 447.74 64.91 451.24 62.94 454.74 61.61 458.24 60.98 461.73 61.08 465.23 61.84 468.73 63.15 472.23 64.87 475.73 66.83 479.23 68.85 482.73 70.82 486.23 72.67 489.73 74.41 493.23 76.1 496.73 77.89 500.23 79.94 503.73 82.4 507.23 85.44 510.72 89.2 514.22 93.76 517.72 99.21 521.22 105.57 524.72 112.84 528.22 120.96 531.72 129.86 535.22 139.44 538.72 149.58 542.22 160.14 545.72 170.96 549.22 181.92 552.72 192.85 556.22 203.61 559.72 214.09 563.21 224.14 566.71 233.62 570.21 242.39 573.71 250.27 577.21 257.04 580.71 262.46 584.21 266.29 587.71 268.3 591.21 268.38 594.71 266.53 598.21 262.95 601.71 257.9 605.21 251.74 608.71 244.81 612.21 237.46 615.7 229.97 619.2 222.62 622.7 215.63 626.2 209.15 629.7 203.31 633.2 198.16 636.7 193.71 640.2 189.89 643.7 186.56 647.2 183.52 650.7 180.53 654.2 177.28 657.7 173.48 661.2 168.86 664.69 163.25 668.19 156.57 671.69 148.88 675.19 140.33 678.69 131.15 682.19 121.58 685.69 111.85 689.19 102.2 692.69 92.79 696.19 83.8 699.69 75.32 703.19 67.46 706.69 60.25 710.19 53.74 713.69 47.92 717.18 42.79 720.68 38.32 724.18 34.47 727.68 31.18 731.18 28.42" clip-path="url(#cpMC4wMHw3NjYuMDB8NDY3LjExfDAuMDA=)" style="stroke-width:1.07;stroke:none"/><polyline points="731.18 439.68 727.68 437.48 724.18 434.88 720.68 431.83 717.18 428.32 713.69 424.32 710.19 419.84 706.69 414.88 703.19 409.49 699.69 403.7 696.19 397.62 692.69 391.35 689.19 385.04 685.69 378.86 682.19 373.03 678.69 367.78 675.19 363.37 671.69 360.06 668.19 358.06 664.69 357.52 661.2 358.49 657.7 360.88 654.2 364.48 650.7 368.97 647.2 374.01 643.7 379.22 640.2 384.3 636.7 388.94 633.2 392.92 629.7 396.07 626.2 398.29 622.7 399.52 619.2 399.75 615.7 399.05 612.21 397.51 608.71 395.28 605.21 392.57 601.71 389.62 598.21 386.69 594.71 384.05 591.21 381.92 587.71 380.44 584.21 379.6 580.71 379.25 577.21 379.2 573.71 379.19 570.21 379.03 566.71 378.56 563.21 377.65 559.72 376.24 556.22 374.26 552.72 371.7 549.22 368.51 545.72 364.66 542.22 360.13 538.72 354.89 535.22 348.9 531.72 342.17 528.22 334.67 524.72 326.42 521.22 317.46 517.72 307.87 514.22 297.72 510.72 287.15 507.23 276.32 503.73 265.4 500.23 254.62 496.73 244.2 493.23 234.37 489.73 225.33 486.23 217.26 482.73 210.29 479.23 204.44 475.73 199.69 472.23 195.92 468.73 192.99 465.23 190.75 461.73 189.05 458.24 187.79 454.74 186.94 451.24 186.5 447.74 186.54 444.24 187.17 440.74 188.54 437.24 190.79 433.74 194.06 430.24 198.4 426.74 203.83 423.24 210.24 419.74 217.5 416.24 225.4 412.74 233.72 409.24 242.27 405.75 250.84 402.25 259.27 398.75 267.42 395.25 275.22 391.75 282.59 388.25 289.53 384.75 296.06 381.25 302.24 377.75 308.16 374.25 313.96 370.75 319.78 367.25 325.76 363.75 332.02 360.25 338.64 356.76 345.61 353.26 352.82 349.76 360.12 346.26 367.29 342.76 374.13 339.26 380.44 335.76 386.06 332.26 390.86 328.76 394.76 325.26 397.73 321.76 399.77 318.26 400.91 314.76 401.21 311.26 400.77 307.76 399.67 304.27 398.04 300.77 395.99 297.27 393.62 293.77 391.02 290.27 388.25 286.77 385.35 283.27 382.31 279.77 379.13 276.27 375.76 272.77 372.17 269.27 368.3 265.77 364.13 262.27 359.62 258.77 354.79 255.28 349.64 251.78 344.19 248.28 338.51 244.78 332.65 241.28 326.68 237.78 320.66 234.28 314.65 230.78 308.7 227.28 302.85 223.78 297.1 220.28 291.46 216.78 285.92 213.28 280.45 209.78 275.05 206.28 269.68 202.79 264.36 199.29 259.1 195.79 253.91 192.29 248.83 188.79 243.93 185.29 239.27 181.79 234.9 178.29 230.9 174.79 227.33 171.29 224.25 167.79 221.69 164.29 219.68 160.79 218.25 157.29 217.4 153.79 217.14 150.3 217.48 146.8 218.42 143.3 219.96 139.8 222.09 136.3 224.82 132.8 228.14 129.3 232.03 125.8 236.46 122.3 241.39 118.8 246.77 115.3 252.53 111.8 258.58 108.3 264.85 104.8 271.25 101.31 277.67 97.81 284.05 94.31 290.3 90.81 296.38 87.31 302.26 83.81 307.92 80.31 313.42 76.81 318.83 73.31 324.27 69.81 329.88 66.31 335.81 62.81 342.17 59.31 349.03 55.81 356.37 52.31 364.1 48.82 372.11 45.32 380.26 41.82 388.4 38.32 396.4 34.82 404.15" clip-path="url(#cpMC4wMHw3NjYuMDB8NDY3LjExfDAuMDA=)" style="stroke-width:1.07;stroke:none"/><polyline points="34.82 295.41 38.32 297.55 41.82 298.22 45.32 297.58 48.82 295.7 52.31 292.73 55.81 288.79 59.31 283.99 62.81 278.51 66.31 272.49 69.81 266.02 73.31 259.27 76.81 252.37 80.31 245.38 83.81 238.47 87.31 231.64 90.81 225.01 94.31 218.65 97.81 212.57 101.31 206.78 104.8 201.29 108.3 196.06 111.8 191.06 115.3 186.26 118.8 181.55 122.3 176.92 125.8 172.33 129.3 167.68 132.8 163.03 136.3 158.29 139.8 153.54 143.3 148.77 146.8 144.04 150.3 139.42 153.79 134.98 157.29 130.79 160.79 126.97 164.29 123.5 167.79 120.51 171.29 118.02 174.79 116.02 178.29 114.6 181.79 113.69 185.29 113.34 188.79 113.55 192.29 114.32 195.79 115.65 199.29 117.59 202.79 120.16 206.28 123.43 209.78 127.44 213.28 132.23 216.78 137.89 220.28 144.43 223.78 151.85 227.28 160.26 230.78 169.54 234.28 179.65 237.78 190.59 241.28 202.17 244.78 214.31 248.28 226.95 251.78 239.89 255.28 252.96 258.77 266.08 262.27 279.08 265.77 291.8 269.27 304.16 272.77 316.02 276.27 327.26 279.77 337.78 283.27 347.51 286.77 356.3 290.27 364.1 293.77 370.83 297.27 376.43 300.77 380.78 304.27 383.88 307.76 385.65 311.26 386.11 314.76 385.17 318.26 382.85 321.76 379.15 325.26 374.05 328.76 367.65 332.26 359.92 335.76 350.91 339.26 340.66 342.76 329.25 346.26 316.73 349.76 303.18 353.26 288.67 356.76 273.3 360.25 257.24 363.75 240.59 367.25 223.54 370.75 206.27 374.25 188.98 377.75 171.93 381.25 155.34 384.75 139.45 388.25 124.54 391.75 110.81 395.25 98.51 398.75 87.78 402.25 78.8 405.75 71.65 409.24 66.39 412.74 63 416.24 61.4 419.74 61.46 423.24 63.04 426.74 65.92 430.24 69.87 433.74 74.64 437.24 79.97 440.74 85.59 444.24 91.32 447.74 96.95 451.24 102.26 454.74 107.16 458.24 111.51 461.73 115.32 465.23 118.49 468.73 121.11 472.23 123.12 475.73 124.7 479.23 125.81 482.73 126.63 486.23 127.22 489.73 127.71 493.23 128.21 496.73 128.87 500.23 129.78 503.73 131.12 507.23 133.04 510.72 135.65 514.22 139.15 517.72 143.63 521.22 149.28 524.72 156.19 528.22 164.45 531.72 174.16 535.22 185.31 538.72 197.88 542.22 211.81 545.72 226.95 549.22 243.07 552.72 259.96 556.22 277.32 559.72 294.69 563.21 311.83 566.71 328.2 570.21 343.47 573.71 357.17 577.21 368.95 580.71 378.45 584.21 385.42 587.71 389.62 591.21 390.97 594.71 389.41 598.21 385 601.71 378.01 605.21 368.58 608.71 357.13 612.21 344.09 615.7 329.89 619.2 315.13 622.7 300.27 626.2 285.91 629.7 272.51 633.2 260.59 636.7 250.52 640.2 242.63 643.7 237.21 647.2 234.36 650.7 234.17 654.2 236.6 657.7 241.53 661.2 248.79 664.69 258.11 668.19 269.22 671.69 281.75 675.19 295.41 678.69 309.79 682.19 324.56 685.69 339.41 689.19 354.01 692.69 368.11 696.19 381.45 699.69 393.77 703.19 405.01 706.69 414.96 710.19 423.57 713.69 430.75 717.18 436.5 720.68 440.86 724.18 443.81 727.68 445.47 731.18 445.88" clip-path="url(#cpMC4wMHw3NjYuMDB8NDY3LjExfDAuMDA=)" style="stroke-width:1.07;stroke:#f50;stroke-opacity:.25;stroke-linecap:butt"/><polyline points="34.82 335.5 38.32 326.81 41.82 318.91 45.32 311.91 48.82 305.76 52.31 300.41 55.81 295.77 59.31 291.63 62.81 287.94 66.31 284.38 69.81 280.81 73.31 277.11 76.81 273.06 80.31 268.55 83.81 263.52 87.31 257.92 90.81 251.66 94.31 244.84 97.81 237.43 101.31 229.58 104.8 221.33 108.3 212.86 111.8 204.26 115.3 195.67 118.8 187.25 122.3 179.14 125.8 171.43 129.3 164.29 132.8 157.83 136.3 152.03 139.8 147.1 143.3 143.03 146.8 139.87 150.3 137.57 153.79 136.2 157.29 135.73 160.79 136.12 164.29 137.34 167.79 139.35 171.29 142.12 174.79 145.62 178.29 149.8 181.79 154.65 185.29 160.19 188.79 166.33 192.29 173.13 195.79 180.57 199.29 188.64 202.79 197.33 206.28 206.57 209.78 216.37 213.28 226.56 216.78 237.19 220.28 248.04 223.78 259 227.28 269.95 230.78 280.69 234.28 291.06 237.78 300.92 241.28 310.12 244.78 318.52 248.28 326.05 251.78 332.62 255.28 338.29 258.77 342.99 262.27 346.85 265.77 349.91 269.27 352.33 272.77 354.24 276.27 355.8 279.77 357.16 283.27 358.48 286.77 359.87 290.27 361.43 293.77 363.23 297.27 365.27 300.77 367.6 304.27 370.11 307.76 372.73 311.26 375.28 314.76 377.6 318.26 379.48 321.76 380.66 325.26 380.94 328.76 380.02 332.26 377.65 335.76 373.67 339.26 367.83 342.76 360.04 346.26 350.13 349.76 338.22 353.26 324.28 356.76 308.46 360.25 290.98 363.75 272.18 367.25 252.41 370.75 232.06 374.25 211.62 377.75 191.65 381.25 172.52 384.75 154.76 388.25 138.75 391.75 124.88 395.25 113.39 398.75 104.42 402.25 98.05 405.75 94.28 409.24 92.94 412.74 93.83 416.24 96.62 419.74 100.97 423.24 106.58 426.74 113.05 430.24 120.02 433.74 127.19 437.24 134.33 440.74 141.27 444.24 147.84 447.74 154.06 451.24 159.9 454.74 165.45 458.24 170.82 461.73 176.13 465.23 181.52 468.73 187.19 472.23 193.18 475.73 199.66 479.23 206.6 482.73 214.11 486.23 222.17 489.73 230.65 493.23 239.57 496.73 248.79 500.23 258.22 503.73 267.71 507.23 277.15 510.72 286.42 514.22 295.43 517.72 304.02 521.22 312.11 524.72 319.63 528.22 326.48 531.72 332.59 535.22 337.88 538.72 342.35 542.22 345.93 545.72 348.6 549.22 350.44 552.72 351.41 556.22 351.59 559.72 351.09 563.21 349.97 566.71 348.44 570.21 346.56 573.71 344.6 577.21 342.67 580.71 340.98 584.21 339.66 587.71 338.84 591.21 338.6 594.71 338.99 598.21 339.99 601.71 341.55 605.21 343.56 608.71 345.86 612.21 348.25 615.7 350.42 619.2 352.19 622.7 353.2 626.2 353.22 629.7 352.03 633.2 349.34 636.7 345.01 640.2 338.94 643.7 331.06 647.2 321.35 650.7 309.84 654.2 296.68 657.7 282.07 661.2 266.17 664.69 249.32 668.19 231.77 671.69 213.88 675.19 195.95 678.69 178.36 682.19 161.4 685.69 145.44 689.19 130.78 692.69 117.69 696.19 106.37 699.69 97 703.19 89.79 706.69 84.73 710.19 81.91 713.69 81.32 717.18 82.86 720.68 86.47 724.18 91.95 727.68 99.15 731.18 107.89" clip-path="url(#cpMC4wMHw3NjYuMDB8NDY3LjExfDAuMDA=)" style="stroke-width:1.07;stroke:#f50;stroke-opacity:.25;stroke-linecap:butt"/><polyline points="34.82 277.73 38.32 275.69 41.82 273.86 45.32 272.15 48.82 270.5 52.31 268.83 55.81 267.02 59.31 264.93 62.81 262.44 66.31 259.45 69.81 255.84 73.31 251.47 76.81 246.36 80.31 240.45 83.81 233.65 87.31 226.08 90.81 217.69 94.31 208.58 97.81 198.85 101.31 188.55 104.8 177.8 108.3 166.72 111.8 155.45 115.3 144.11 118.8 132.83 122.3 121.73 125.8 110.96 129.3 100.72 132.8 91.02 136.3 82.09 139.8 74.01 143.3 66.9 146.8 60.85 150.3 55.97 153.79 52.3 157.29 49.93 160.79 48.91 164.29 49.25 167.79 50.97 171.29 54.1 174.79 58.62 178.29 64.52 181.79 71.82 185.29 80.45 188.79 90.36 192.29 101.48 195.79 113.7 199.29 126.95 202.79 141.06 206.28 155.81 209.78 171.03 213.28 186.45 216.78 201.83 220.28 216.85 223.78 231.26 227.28 244.83 230.78 257.24 234.28 268.3 237.78 277.87 241.28 285.79 244.78 292.04 248.28 296.65 251.78 299.71 255.28 301.35 258.77 301.81 262.27 301.31 265.77 300.11 269.27 298.6 272.77 296.99 276.27 295.62 279.77 294.74 283.27 294.55 286.77 295.21 290.27 296.83 293.77 299.41 297.27 302.94 300.77 307.3 304.27 312.33 307.76 317.84 311.26 323.48 314.76 329.07 318.26 334.29 321.76 338.89 325.26 342.57 328.76 345.11 332.26 346.35 335.76 346.13 339.26 344.4 342.76 341.13 346.26 336.36 349.76 330.19 353.26 322.73 356.76 314.22 360.25 304.84 363.75 294.82 367.25 284.39 370.75 273.85 374.25 263.45 377.75 253.35 381.25 243.82 384.75 235.02 388.25 227.06 391.75 220.03 395.25 214.02 398.75 208.99 402.25 204.89 405.75 201.65 409.24 199.2 412.74 197.3 416.24 195.87 419.74 194.74 423.24 193.75 426.74 192.77 430.24 191.72 433.74 190.55 437.24 189.24 440.74 187.77 444.24 186.17 447.74 184.59 451.24 183.12 454.74 181.88 458.24 181.01 461.73 180.57 465.23 180.78 468.73 181.67 472.23 183.32 475.73 185.77 479.23 189.09 482.73 193.19 486.23 198.08 489.73 203.69 493.23 209.92 496.73 216.7 500.23 223.87 503.73 231.42 507.23 239.16 510.72 247.03 514.22 254.86 517.72 262.66 521.22 270.29 524.72 277.7 528.22 284.82 531.72 291.63 535.22 298.07 538.72 304.17 542.22 309.82 545.72 315.12 549.22 319.96 552.72 324.49 556.22 328.55 559.72 332.27 563.21 335.62 566.71 338.59 570.21 341.2 573.71 343.39 577.21 345.24 580.71 346.64 584.21 347.61 587.71 348.1 591.21 348.09 594.71 347.49 598.21 346.28 601.71 344.46 605.21 341.9 608.71 338.6 612.21 334.5 615.7 329.58 619.2 323.79 622.7 317.11 626.2 309.51 629.7 300.95 633.2 291.49 636.7 281.07 640.2 269.8 643.7 257.64 647.2 244.67 650.7 230.99 654.2 216.7 657.7 201.91 661.2 186.79 664.69 171.5 668.19 156.21 671.69 141.1 675.19 126.4 678.69 112.26 682.19 98.85 685.69 86.4 689.19 74.92 692.69 64.58 696.19 55.36 699.69 47.38 703.19 40.6 706.69 34.94 710.19 30.39 713.69 26.85 717.18 24.21 720.68 22.48 724.18 21.5 727.68 21.23 731.18 21.67" clip-path="url(#cpMC4wMHw3NjYuMDB8NDY3LjExfDAuMDA=)" style="stroke-width:1.07;stroke:#f50;stroke-opacity:.25;stroke-linecap:butt"/><polyline points="34.82 364.88 38.32 359 41.82 352.92 45.32 346.87 48.82 340.94 52.31 335.28 55.81 329.96 59.31 325 62.81 320.33 66.31 315.93 69.81 311.64 73.31 307.4 76.81 303 80.31 298.33 83.81 293.26 87.31 287.68 90.81 281.51 94.31 274.71 97.81 267.31 101.31 259.35 104.8 250.93 108.3 242.23 111.8 233.37 115.3 224.58 118.8 216.09 122.3 208.07 125.8 200.77 129.3 194.3 132.8 188.84 136.3 184.53 139.8 181.37 143.3 179.46 146.8 178.81 150.3 179.26 153.79 180.84 157.29 183.33 160.79 186.66 164.29 190.66 167.79 195.12 171.29 199.94 174.79 204.98 178.29 210.1 181.79 215.15 185.29 220.13 188.79 224.93 192.29 229.53 195.79 233.93 199.29 238.12 202.79 242.18 206.28 246.1 209.78 249.9 213.28 253.6 216.78 257.25 220.28 260.83 223.78 264.34 227.28 267.78 230.78 271.12 234.28 274.3 237.78 277.36 241.28 280.21 244.78 282.89 248.28 285.36 251.78 287.73 255.28 289.98 258.77 292.17 262.27 294.36 265.77 296.63 269.27 298.95 272.77 301.43 276.27 304.07 279.77 306.83 283.27 309.66 286.77 312.55 290.27 315.29 293.77 317.85 297.27 320.09 300.77 321.83 304.27 322.97 307.76 323.46 311.26 323.19 314.76 322.14 318.26 320.32 321.76 317.76 325.26 314.53 328.76 310.81 332.26 306.68 335.76 302.28 339.26 297.71 342.76 293.13 346.26 288.62 349.76 284.28 353.26 280.14 356.76 276.18 360.25 272.43 363.75 268.79 367.25 265.24 370.75 261.61 374.25 257.86 377.75 253.88 381.25 249.57 384.75 244.85 388.25 239.63 391.75 233.9 395.25 227.61 398.75 220.85 402.25 213.55 405.75 205.88 409.24 197.9 412.74 189.74 416.24 181.57 419.74 173.56 423.24 165.88 426.74 158.69 430.24 152.19 433.74 146.52 437.24 141.76 440.74 138.08 444.24 135.48 447.74 133.96 451.24 133.48 454.74 133.95 458.24 135.27 461.73 137.28 465.23 139.79 468.73 142.61 472.23 145.67 475.73 148.73 479.23 151.68 482.73 154.48 486.23 157.08 489.73 159.49 493.23 161.81 496.73 164.1 500.23 166.51 503.73 169.17 507.23 172.28 510.72 176.01 514.22 180.5 517.72 185.85 521.22 192.17 524.72 199.44 528.22 207.77 531.72 217.02 535.22 227.12 538.72 237.91 542.22 249.25 545.72 260.94 549.22 272.77 552.72 284.54 556.22 296.06 559.72 307.11 563.21 317.52 566.71 327.2 570.21 335.99 573.71 343.73 577.21 350.41 580.71 355.95 584.21 360.26 587.71 363.32 591.21 365.1 594.71 365.54 598.21 364.7 601.71 362.5 605.21 359 608.71 354.22 612.21 348.21 615.7 341.03 619.2 332.76 622.7 323.56 626.2 313.52 629.7 302.86 633.2 291.72 636.7 280.32 640.2 268.85 643.7 257.6 647.2 246.76 650.7 236.57 654.2 227.2 657.7 218.92 661.2 211.85 664.69 206.05 668.19 201.78 671.69 198.91 675.19 197.51 678.69 197.48 682.19 198.67 685.69 200.95 689.19 204.03 692.69 207.68 696.19 211.57 699.69 215.46 703.19 219.01 706.69 221.97 710.19 224.06 713.69 225.14 717.18 225.05 720.68 223.74 724.18 221.18 727.68 217.47 731.18 212.7" clip-path="url(#cpMC4wMHw3NjYuMDB8NDY3LjExfDAuMDA=)" style="stroke-width:1.07;stroke:#f50;stroke-opacity:.25;stroke-linecap:butt"/><polyline points="34.82 284.94 38.32 290.58 41.82 295.46 45.32 299.33 48.82 302.04 52.31 303.41 55.81 303.35 59.31 301.87 62.81 298.89 66.31 294.56 69.81 288.95 73.31 282.22 76.81 274.44 80.31 265.88 83.81 256.66 87.31 247.05 90.81 237.1 94.31 227.05 97.81 217.05 101.31 207.21 104.8 197.66 108.3 188.47 111.8 179.84 115.3 171.77 118.8 164.42 122.3 157.85 125.8 152.23 129.3 147.51 132.8 143.87 136.3 141.3 139.8 139.87 143.3 139.58 146.8 140.43 150.3 142.34 153.79 145.31 157.29 149.18 160.79 153.92 164.29 159.32 167.79 165.34 171.29 171.83 174.79 178.69 178.29 185.79 181.79 193.03 185.29 200.39 188.79 207.78 192.29 215.1 195.79 222.43 199.29 229.61 202.79 236.69 206.28 243.58 209.78 250.27 213.28 256.66 216.78 262.78 220.28 268.48 223.78 273.79 227.28 278.6 230.78 282.89 234.28 286.67 237.78 289.89 241.28 292.57 244.78 294.76 248.28 296.53 251.78 297.94 255.28 299.1 258.77 300.08 262.27 301 265.77 301.95 269.27 303.01 272.77 304.24 276.27 305.65 279.77 307.29 283.27 309.17 286.77 311.16 290.27 313.33 293.77 315.5 297.27 317.66 300.77 319.63 304.27 321.33 307.76 322.67 311.26 323.58 314.76 323.93 318.26 323.68 321.76 322.75 325.26 321.11 328.76 318.73 332.26 315.58 335.76 311.66 339.26 306.96 342.76 301.52 346.26 295.31 349.76 288.36 353.26 280.7 356.76 272.35 360.25 263.37 363.75 253.79 367.25 243.72 370.75 233.16 374.25 222.33 377.75 211.29 381.25 200.17 384.75 189.14 388.25 178.35 391.75 167.97 395.25 158.18 398.75 149.14 402.25 141 405.75 133.82 409.24 127.76 412.74 122.84 416.24 119.1 419.74 116.43 423.24 114.88 426.74 114.29 430.24 114.58 433.74 115.57 437.24 117.14 440.74 119.14 444.24 121.37 447.74 123.74 451.24 126.12 454.74 128.38 458.24 130.47 461.73 132.32 465.23 133.99 468.73 135.39 472.23 136.66 475.73 137.8 479.23 138.99 482.73 140.3 486.23 141.87 489.73 143.77 493.23 146.2 496.73 149.28 500.23 153.1 503.73 157.7 507.23 163.17 510.72 169.51 514.22 176.75 517.72 184.74 521.22 193.47 524.72 202.79 528.22 212.51 531.72 222.49 535.22 232.56 538.72 242.48 542.22 252.2 545.72 261.46 549.22 270.17 552.72 278.26 556.22 285.66 559.72 292.38 563.21 298.41 566.71 303.8 570.21 308.62 573.71 312.99 577.21 316.97 580.71 320.66 584.21 324.17 587.71 327.56 591.21 330.83 594.71 334.07 598.21 337.21 601.71 340.25 605.21 343.1 608.71 345.74 612.21 347.99 615.7 349.77 619.2 351.01 622.7 351.54 626.2 351.26 629.7 350.14 633.2 348.11 636.7 345.09 640.2 341.2 643.7 336.4 647.2 330.77 650.7 324.45 654.2 317.57 657.7 310.29 661.2 302.8 664.69 295.23 668.19 287.76 671.69 280.55 675.19 273.76 678.69 267.39 682.19 261.58 685.69 256.33 689.19 251.57 692.69 247.27 696.19 243.32 699.69 239.65 703.19 236.08 706.69 232.51 710.19 228.86 713.69 225.01 717.18 220.93 720.68 216.63 724.18 212.08 727.68 207.43 731.18 202.75" clip-path="url(#cpMC4wMHw3NjYuMDB8NDY3LjExfDAuMDA=)" style="stroke-width:1.07;stroke:#f50;stroke-opacity:.25;stroke-linecap:butt"/><circle cx="347.28" cy="309.29" r="2.49" clip-path="url(#cpMC4wMHw3NjYuMDB8NDY3LjExfDAuMDA=)" style="stroke-width:.71;stroke:#0af;stroke-opacity:.5;fill:#0af;fill-opacity:.5"/><circle cx="142.57" cy="141.85" r="2.49" clip-path="url(#cpMC4wMHw3NjYuMDB8NDY3LjExfDAuMDA=)" style="stroke-width:.71;stroke:#0af;stroke-opacity:.5;fill:#0af;fill-opacity:.5"/><circle cx="296.06" cy="333.26" r="2.49" clip-path="url(#cpMC4wMHw3NjYuMDB8NDY3LjExfDAuMDA=)" style="stroke-width:.71;stroke:#0af;stroke-opacity:.5;fill:#0af;fill-opacity:.5"/><circle cx="114.76" cy="169.71" r="2.49" clip-path="url(#cpMC4wMHw3NjYuMDB8NDY3LjExfDAuMDA=)" style="stroke-width:.71;stroke:#0af;stroke-opacity:.5;fill:#0af;fill-opacity:.5"/><circle cx="49.13" cy="309" r="2.49" clip-path="url(#cpMC4wMHw3NjYuMDB8NDY3LjExfDAuMDA=)" style="stroke-width:.71;stroke:#0af;stroke-opacity:.5;fill:#0af;fill-opacity:.5"/><circle cx="661.06" cy="263.96" r="2.49" clip-path="url(#cpMC4wMHw3NjYuMDB8NDY3LjExfDAuMDA=)" style="stroke-width:.71;stroke:#0af;stroke-opacity:.5;fill:#0af;fill-opacity:.5"/><circle cx="424.14" cy="135.94" r="2.49" clip-path="url(#cpMC4wMHw3NjYuMDB8NDY3LjExfDAuMDA=)" style="stroke-width:.71;stroke:#0af;stroke-opacity:.5;fill:#0af;fill-opacity:.5"/><circle cx="317.38" cy="344.53" r="2.49" clip-path="url(#cpMC4wMHw3NjYuMDB8NDY3LjExfDAuMDA=)" style="stroke-width:.71;stroke:#0af;stroke-opacity:.5;fill:#0af;fill-opacity:.5"/><circle cx="429.94" cy="131.83" r="2.49" clip-path="url(#cpMC4wMHw3NjYuMDB8NDY3LjExfDAuMDA=)" style="stroke-width:.71;stroke:#0af;stroke-opacity:.5;fill:#0af;fill-opacity:.5"/><circle cx="588.68" cy="329.68" r="2.49" clip-path="url(#cpMC4wMHw3NjYuMDB8NDY3LjExfDAuMDA=)" style="stroke-width:.71;stroke:#0af;stroke-opacity:.5;fill:#0af;fill-opacity:.5"/><circle cx="229.31" cy="219.01" r="2.49" clip-path="url(#cpMC4wMHw3NjYuMDB8NDY3LjExfDAuMDA=)" style="stroke-width:.71;stroke:#0af;stroke-opacity:.5;fill:#0af;fill-opacity:.5"/><circle cx="87.51" cy="241.51" r="2.49" clip-path="url(#cpMC4wMHw3NjYuMDB8NDY3LjExfDAuMDA=)" style="stroke-width:.71;stroke:#0af;stroke-opacity:.5;fill:#0af;fill-opacity:.5"/><circle cx="596.28" cy="333.03" r="2.49" clip-path="url(#cpMC4wMHw3NjYuMDB8NDY3LjExfDAuMDA=)" style="stroke-width:.71;stroke:#0af;stroke-opacity:.5;fill:#0af;fill-opacity:.5"/><circle cx="488.34" cy="138.08" r="2.49" clip-path="url(#cpMC4wMHw3NjYuMDB8NDY3LjExfDAuMDA=)" style="stroke-width:.71;stroke:#0af;stroke-opacity:.5;fill:#0af;fill-opacity:.5"/><circle cx="443.51" cy="131.61" r="2.49" clip-path="url(#cpMC4wMHw3NjYuMDB8NDY3LjExfDAuMDA=)" style="stroke-width:.71;stroke:#0af;stroke-opacity:.5;fill:#0af;fill-opacity:.5"/><circle cx="65.44" cy="287.51" r="2.49" clip-path="url(#cpMC4wMHw3NjYuMDB8NDY3LjExfDAuMDA=)" style="stroke-width:.71;stroke:#0af;stroke-opacity:.5;fill:#0af;fill-opacity:.5"/><circle cx="593.37" cy="333.36" r="2.49" clip-path="url(#cpMC4wMHw3NjYuMDB8NDY3LjExfDAuMDA=)" style="stroke-width:.71;stroke:#0af;stroke-opacity:.5;fill:#0af;fill-opacity:.5"/><circle cx="272.7" cy="303.2" r="2.49" clip-path="url(#cpMC4wMHw3NjYuMDB8NDY3LjExfDAuMDA=)" style="stroke-width:.71;stroke:#0af;stroke-opacity:.5;fill:#0af;fill-opacity:.5"/><circle cx="379.4" cy="232.74" r="2.49" clip-path="url(#cpMC4wMHw3NjYuMDB8NDY3LjExfDAuMDA=)" style="stroke-width:.71;stroke:#0af;stroke-opacity:.5;fill:#0af;fill-opacity:.5"/><circle cx="179.41" cy="135.53" r="2.49" clip-path="url(#cpMC4wMHw3NjYuMDB8NDY3LjExfDAuMDA=)" style="stroke-width:.71;stroke:#0af;stroke-opacity:.5;fill:#0af;fill-opacity:.5"/><circle cx="358.82" cy="292.05" r="2.49" clip-path="url(#cpMC4wMHw3NjYuMDB8NDY3LjExfDAuMDA=)" style="stroke-width:.71;stroke:#0af;stroke-opacity:.5;fill:#0af;fill-opacity:.5"/><circle cx="475.56" cy="123.63" r="2.49" clip-path="url(#cpMC4wMHw3NjYuMDB8NDY3LjExfDAuMDA=)" style="stroke-width:.71;stroke:#0af;stroke-opacity:.5;fill:#0af;fill-opacity:.5"/><circle cx="72.86" cy="273.91" r="2.49" clip-path="url(#cpMC4wMHw3NjYuMDB8NDY3LjExfDAuMDA=)" style="stroke-width:.71;stroke:#0af;stroke-opacity:.5;fill:#0af;fill-opacity:.5"/><circle cx="361.75" cy="295.91" r="2.49" clip-path="url(#cpMC4wMHw3NjYuMDB8NDY3LjExfDAuMDA=)" style="stroke-width:.71;stroke:#0af;stroke-opacity:.5;fill:#0af;fill-opacity:.5"/><circle cx="557.61" cy="295.93" r="2.49" clip-path="url(#cpMC4wMHw3NjYuMDB8NDY3LjExfDAuMDA=)" style="stroke-width:.71;stroke:#0af;stroke-opacity:.5;fill:#0af;fill-opacity:.5"/><defs><clipPath id="cpMC4wMHw3NjYuMDB8NDc2LjAwfDAuMDA="><rect width="766" height="476" x="0" y="0"/></clipPath></defs></svg>