<svg xmlns="http://www.w3.org/2000/svg" xmlns:xlink="http://www.w3.org/1999/xlink" viewBox="0 0 504 378"><defs><style type="text/css">polyline,rect{fill:none;stroke:#000;stroke-linecap:round;stroke-linejoin:round;stroke-miterlimit:10}</style></defs><rect width="100%" height="100%" style="stroke:none;fill:none"/><rect width="504" height="378" x="0" y="0" style="stroke-width:1.07;stroke:none"/><defs><clipPath id="cpNjUuMzd8NDk4LjUyfDM0OS40NXw1LjQ4"><rect width="433.15" height="343.97" x="65.37" y="5.48"/></clipPath></defs><polyline points="85.06 120.58 86.57 102.47 88.1 88.89 89.64 95.87 91.19 100.17 92.71 96.31 94.24 81.31 95.78 75.8 97.33 80.67 98.84 81.32 100.36 92.33 101.91 99.07 103.45 108.92 104.96 100.74 106.49 87.17 108.03 70.2 109.58 105.43 111.09 122.55 112.61 143.1 114.16 154 115.7 160.39 117.23 163.68 118.76 151.06 120.3 142.9 121.84 154.29 123.35 159.17 124.88 153.02 126.42 145.27 127.97 133.52 129.48 124.68 131.01 123.68 132.55 133.55 134.09 141.62 135.6 158.59 137.13 176.16 138.67 192.93 140.22 233.03 141.75 266.75 143.27 287.86 144.82 296.36 146.36 294.92 147.87 281.53 149.4 254.57 150.94 238.69 152.48 217.15 153.99 186.25 155.52 175.58 157.07 175.36 158.61 180.6 160.12 190.77 161.65 189.93 163.19 179.8 164.73 180.85 166.26 175.48 167.79 176.47 169.33 168.91 170.88 163.4 172.39 171.91 173.91 171.05 175.46 178.42 177 179.91 178.51 177.82 180.04 178.88 181.58 179.17 183.13 182.01 184.64 189.87 186.16 186.91 187.71 185.39 189.25 183.79 190.78 189.75 192.3 200.67 193.85 209.28 195.39 222.29 196.9 228.16 198.43 254.97 199.97 283.84 201.52 296.77 203.03 293.76 204.55 281.51 206.1 257.23 207.64 271.31 209.15 287.02 210.68 292.19 212.22 292.68 213.77 281.89 215.29 257.72 216.82 246.02 218.36 233.44 219.91 216 221.42 214.85 222.95 210.39 224.49 211.39 226.03 227.26 227.54 245.43 229.07 253.83 230.61 286.48 232.16 304.71 233.67 305.9 235.2 299.29 236.74 290.98 238.28 270.28 239.81 254.01 241.34 222.13 242.88 180.78 244.42 140.3 245.94 116.04 247.46 89.21 249.01 71.34 250.55 67.24 252.06 68.46 253.59 72.61 255.13 95.52 256.67 119.33 258.19 131.64 259.71 149.28 261.26 167.44 262.8 175.92 264.33 171.78 265.85 166.26 267.4 153.53 268.94 152.49 270.45 151.9 271.98 142.15 273.52 124.78 275.07 102.32 276.58 84.87 278.1 71.46 279.65 56.47 281.19 39.88 282.7 32.31 284.23 25.84 285.77 21.11 287.32 33.96 288.84 51.21 290.37 56.75 291.91 65.55 293.46 81.66 294.97 94.95 296.49 127.4 298.04 155.47 299.58 166.72 301.09 171.21 302.62 183.33 304.16 196.85 305.71 231.62 307.22 260.89 308.74 274.91 310.29 276.71 311.83 306.72 313.36 325.28 314.89 333.81 316.43 329.06 317.97 315.37 319.48 287.67 321.01 266.04 322.56 228.94 324.1 192.19 325.61 225.59 327.14 251.09 328.68 268.72 330.22 285.58 331.73 301.37 333.26 310.17 334.8 305.19 336.35 293.44 337.88 282.9 339.4 274.21 340.95 258.68 342.49 233.36 344 238.09 345.53 229.35 347.07 210.16 348.62 214.75 350.13 203.59 351.65 212.22 353.2 245.61 354.74 267.49 356.25 291.06 357.78 307.08 359.32 312.3 360.86 321 362.39 325.12 363.92 324.63 365.46 312.24 367.01 295.67 368.52 277.11 370.04 281.33 371.59 272.24 373.13 275.63 374.64 285.65 376.17 283.4 377.71 289.91 379.26 288.14 380.77 275.93 382.29 278.42 383.84 292.28 385.38 290.42 386.91 276.02 388.44 268.44 389.98 250.83 391.52 225.15 393.03 223.59 394.56 219.39 396.1 209.07 397.65 214.67 399.16 225.19 400.69 237.14 402.23 249.38 403.77 277.67 405.28 296.5 406.81 310.15 408.35 323.83 409.9 325.92 411.42 321.41 412.95 305.9 414.5 287.47 416.04 258.13 417.55 220.47 419.08 199.51 420.62 206.91 422.16 222.82 423.67 224.46 425.2 223.08 426.75 218.29 428.29 200.76 429.8 223.86 431.33 234.69 432.87 256.94 434.41 267.44 435.94 267 437.47 263.24 439.01 251.74 440.56 249.04 442.07 237.64 443.59 246.83 445.14 239.65 446.68 236.12 448.19 217.77 449.72 186.44 451.26 207.77 452.81 216.42 454.32 215.93 455.84 207.75 457.39 191.6 458.93 163.72 460.46 124.74 461.98 81.37 463.53 105.61 465.07 143.31 466.58 167.91 468.11 176.89 469.65 174.71 471.2 175.58 472.71 196.66 474.23 220.1 475.78 237.02 477.32 252.79 478.83 257.75" clip-path="url(#cpNjUuMzd8NDk4LjUyfDM0OS40NXw1LjQ4)" style="stroke-width:1.07;stroke:#7f7f7f;stroke-linecap:butt"/><defs><clipPath id="cpMC4wMHw1MDQuMDB8Mzc4LjAwfDAuMDA="><rect width="504" height="378" x="0" y="0"/></clipPath></defs><g clip-path="url(#cpMC4wMHw1MDQuMDB8Mzc4LjAwfDAuMDA=)"><text x="55.1" y="313.4" lengthAdjust="spacingAndGlyphs" textLength="5.34" style="font-size:9.6px;fill:#4d4d4d;font-family:Arial">0</text></g><g clip-path="url(#cpMC4wMHw1MDQuMDB8Mzc4LjAwfDAuMDA=)"><text x="55.1" y="247.41" lengthAdjust="spacingAndGlyphs" textLength="5.34" style="font-size:9.6px;fill:#4d4d4d;font-family:Arial">1</text></g><g clip-path="url(#cpMC4wMHw1MDQuMDB8Mzc4LjAwfDAuMDA=)"><text x="55.1" y="181.42" lengthAdjust="spacingAndGlyphs" textLength="5.34" style="font-size:9.6px;fill:#4d4d4d;font-family:Arial">2</text></g><g clip-path="url(#cpMC4wMHw1MDQuMDB8Mzc4LjAwfDAuMDA=)"><text x="55.1" y="115.44" lengthAdjust="spacingAndGlyphs" textLength="5.34" style="font-size:9.6px;fill:#4d4d4d;font-family:Arial">3</text></g><g clip-path="url(#cpMC4wMHw1MDQuMDB8Mzc4LjAwfDAuMDA=)"><text x="55.1" y="49.45" lengthAdjust="spacingAndGlyphs" textLength="5.34" style="font-size:9.6px;fill:#4d4d4d;font-family:Arial">4</text></g><polyline points="62.63 309.96 65.37 309.96" clip-path="url(#cpMC4wMHw1MDQuMDB8Mzc4LjAwfDAuMDA=)" style="stroke-width:1.07;stroke:#333;stroke-linecap:butt"/><polyline points="62.63 243.97 65.37 243.97" clip-path="url(#cpMC4wMHw1MDQuMDB8Mzc4LjAwfDAuMDA=)" style="stroke-width:1.07;stroke:#333;stroke-linecap:butt"/><polyline points="62.63 177.99 65.37 177.99" clip-path="url(#cpMC4wMHw1MDQuMDB8Mzc4LjAwfDAuMDA=)" style="stroke-width:1.07;stroke:#333;stroke-linecap:butt"/><polyline points="62.63 112 65.37 112" clip-path="url(#cpMC4wMHw1MDQuMDB8Mzc4LjAwfDAuMDA=)" style="stroke-width:1.07;stroke:#333;stroke-linecap:butt"/><polyline points="62.63 46.01 65.37 46.01" clip-path="url(#cpMC4wMHw1MDQuMDB8Mzc4LjAwfDAuMDA=)" style="stroke-width:1.07;stroke:#333;stroke-linecap:butt"/><polyline points="164.73 352.19 164.73 349.45" clip-path="url(#cpMC4wMHw1MDQuMDB8Mzc4LjAwfDAuMDA=)" style="stroke-width:1.07;stroke:#333;stroke-linecap:butt"/><polyline points="287.32 352.19 287.32 349.45" clip-path="url(#cpMC4wMHw1MDQuMDB8Mzc4LjAwfDAuMDA=)" style="stroke-width:1.07;stroke:#333;stroke-linecap:butt"/><polyline points="409.9 352.19 409.9 349.45" clip-path="url(#cpMC4wMHw1MDQuMDB8Mzc4LjAwfDAuMDA=)" style="stroke-width:1.07;stroke:#333;stroke-linecap:butt"/><g clip-path="url(#cpMC4wMHw1MDQuMDB8Mzc4LjAwfDAuMDA=)"><text x="154.06" y="361.25" lengthAdjust="spacingAndGlyphs" textLength="21.36" style="font-size:9.6px;fill:#4d4d4d;font-family:Arial">1960</text></g><g clip-path="url(#cpMC4wMHw1MDQuMDB8Mzc4LjAwfDAuMDA=)"><text x="276.64" y="361.25" lengthAdjust="spacingAndGlyphs" textLength="21.36" style="font-size:9.6px;fill:#4d4d4d;font-family:Arial">1980</text></g><g clip-path="url(#cpMC4wMHw1MDQuMDB8Mzc4LjAwfDAuMDA=)"><text x="399.22" y="361.25" lengthAdjust="spacingAndGlyphs" textLength="21.36" style="font-size:9.6px;fill:#4d4d4d;font-family:Arial">2000</text></g><g clip-path="url(#cpMC4wMHw1MDQuMDB8Mzc4LjAwfDAuMDA=)"><text x="457.44" y="371.42" lengthAdjust="spacingAndGlyphs" textLength="41.08" style="font-size:9.6px;fill:#4d4d4d;font-family:Arial">seriestext</text></g><g clip-path="url(#cpMC4wMHw1MDQuMDB8Mzc4LjAwfDAuMDA=)"><text x="5.48" y="12.35" lengthAdjust="spacingAndGlyphs" textLength="49.62" style="font-size:9.6px;fill:#4d4d4d;font-family:Arial">log volatility</text></g></svg>