<svg xmlns="http://www.w3.org/2000/svg" xmlns:xlink="http://www.w3.org/1999/xlink" viewBox="0 0 504 378"><defs><style type="text/css">polyline,rect{fill:none;stroke:#000;stroke-linecap:round;stroke-linejoin:round;stroke-miterlimit:10}</style></defs><rect width="100%" height="100%" style="stroke:none;fill:none"/><rect width="504" height="378" x="0" y="0" style="stroke-width:1.07;stroke:none"/><defs><clipPath id="cpMjEuMDl8NDk4LjUyfDM0OS40NXw1LjQ4"><rect width="477.43" height="343.97" x="21.09" y="5.48"/></clipPath></defs><polyline points="42.79 120.37 44.46 99.89 46.14 85.89 47.84 92.1 49.54 98.06 51.22 89.83 52.91 74.22 54.61 71.14 56.31 78.44 57.98 78.63 59.66 87.39 61.36 92.79 63.06 101.96 64.73 96.28 66.41 85.42 68.11 69.3 69.81 104.1 71.48 122.68 73.16 141.74 74.86 154.01 76.56 158.96 78.25 161.26 79.93 152.05 81.63 144.56 83.33 153.11 85 156.89 86.68 150.81 88.38 141.84 90.08 130.35 91.75 123.18 93.43 124.81 95.13 136.36 96.84 142.55 98.5 156.13 100.18 176.11 101.89 192.01 103.59 230.64 105.27 263.01 106.95 284.33 108.65 293.57 110.36 293.35 112.02 278.55 113.7 253.12 115.41 236.02 117.11 214.52 118.77 180.47 120.46 170.06 122.16 168.8 123.86 172.8 125.52 182.42 127.21 183.95 128.91 177.02 130.61 175.67 132.29 170.48 133.98 174.98 135.68 167.21 137.38 160.9 139.04 167.49 140.73 169.75 142.43 174.61 144.13 176.89 145.8 176.59 147.48 177.15 149.18 178.27 150.88 178.83 152.55 185.39 154.23 182.66 155.93 182.71 157.63 179.06 159.32 184.83 161 195.26 162.7 202.85 164.4 217.44 166.07 224.56 167.75 248.02 169.45 277.76 171.15 290.9 172.82 291.54 174.5 279.97 176.2 255.04 177.9 269.45 179.57 286.1 181.25 295.34 182.95 294.78 184.66 280.98 186.34 259.73 188.02 248.25 189.72 230.72 191.42 215.08 193.09 212.88 194.77 205.63 196.47 207.87 198.18 226.48 199.84 247.39 201.52 255.26 203.23 284.12 204.93 303.88 206.59 306.05 208.27 300.57 209.98 292.18 211.68 271.44 213.36 251.58 215.04 222.71 216.75 180.36 218.45 139.82 220.11 113.8 221.8 87.09 223.5 67.77 225.2 62.54 226.86 63.15 228.55 68.89 230.25 92.79 231.95 119.22 233.61 128.17 235.3 144.11 237 165.12 238.7 173.95 240.38 168.37 242.07 164.81 243.77 152.78 245.47 149.88 247.14 148.21 248.82 138.58 250.52 122.97 252.22 100.26 253.89 84.84 255.57 71.41 257.27 55.75 258.97 38.89 260.64 28.61 262.32 25.73 264.02 21.11 265.72 32.28 267.41 49.36 269.09 53.22 270.79 64.22 272.49 80.69 274.16 92.51 275.84 125.04 277.54 153.55 279.24 164.27 280.91 169.7 282.59 182.92 284.29 196.89 286 230.66 287.66 256.81 289.34 270.63 291.04 271.95 292.75 305.79 294.43 327.31 296.11 333.81 297.81 330.13 299.52 315.67 301.18 286.71 302.86 261.08 304.57 226.75 306.27 189.21 307.93 220.56 309.61 247.35 311.32 265.53 313.02 282.14 314.68 296.9 316.37 303.83 318.07 301.5 319.77 289.37 321.45 278.2 323.14 272.1 324.84 256.74 326.54 232.67 328.2 238.42 329.89 229.02 331.59 208.88 333.29 212.36 334.95 202.61 336.64 210.09 338.34 240.11 340.04 263.8 341.71 286.24 343.39 302.63 345.09 308.03 346.79 318.51 348.47 322.43 350.16 323.75 351.86 311.67 353.56 297.76 355.23 277.24 356.91 281.32 358.61 271.8 360.31 273.65 361.98 283.54 363.66 281.05 365.36 284.82 367.06 286.18 368.73 272.9 370.41 273.32 372.11 284.37 373.81 283.72 375.5 271.61 377.18 265 378.88 245.61 380.58 222.47 382.25 219.69 383.93 214.93 385.63 205.55 387.34 209.07 389 219.7 390.68 229.69 392.38 241.53 394.09 272.13 395.75 293.38 397.43 309.25 399.14 321.96 400.84 322.56 402.52 317.74 404.2 299.31 405.91 282.3 407.61 255.24 409.27 218.48 410.95 195.53 412.66 205.41 414.36 222.8 416.02 224.84 417.71 224.99 419.41 217.52 421.11 197.01 422.77 219.75 424.46 234.25 426.16 255.6 427.86 266.4 429.54 264.78 431.23 260.95 432.93 249.32 434.63 247.67 436.29 234.45 437.98 242.08 439.68 236.95 441.38 230.09 443.05 215.19 444.73 182.56 446.43 205.72 448.13 213.1 449.8 211.52 451.48 203.46 453.18 189.98 454.88 162.06 456.57 122.65 458.25 77.6 459.95 103.81 461.65 141.3 463.32 167 465 178.58 466.7 177.73 468.4 176.75 470.07 198.44 471.75 221.41 473.45 237.8 475.15 252.14 476.82 254.77" clip-path="url(#cpMjEuMDl8NDk4LjUyfDM0OS40NXw1LjQ4)" style="stroke-width:1.07;stroke:#7f7f7f;stroke-linecap:butt"/><defs><clipPath id="cpMC4wMHw1MDQuMDB8Mzc4LjAwfDAuMDA="><rect width="504" height="378" x="0" y="0"/></clipPath></defs><g clip-path="url(#cpMC4wMHw1MDQuMDB8Mzc4LjAwfDAuMDA=)"><text x="10.82" y="310.96" lengthAdjust="spacingAndGlyphs" textLength="5.34" style="font-size:9.6px;fill:#4d4d4d;font-family:Arial">0</text></g><g clip-path="url(#cpMC4wMHw1MDQuMDB8Mzc4LjAwfDAuMDA=)"><text x="10.82" y="244.88" lengthAdjust="spacingAndGlyphs" textLength="5.34" style="font-size:9.6px;fill:#4d4d4d;font-family:Arial">1</text></g><g clip-path="url(#cpMC4wMHw1MDQuMDB8Mzc4LjAwfDAuMDA=)"><text x="10.82" y="178.81" lengthAdjust="spacingAndGlyphs" textLength="5.34" style="font-size:9.6px;fill:#4d4d4d;font-family:Arial">2</text></g><g clip-path="url(#cpMC4wMHw1MDQuMDB8Mzc4LjAwfDAuMDA=)"><text x="10.82" y="112.74" lengthAdjust="spacingAndGlyphs" textLength="5.34" style="font-size:9.6px;fill:#4d4d4d;font-family:Arial">3</text></g><g clip-path="url(#cpMC4wMHw1MDQuMDB8Mzc4LjAwfDAuMDA=)"><text x="10.82" y="46.66" lengthAdjust="spacingAndGlyphs" textLength="5.34" style="font-size:9.6px;fill:#4d4d4d;font-family:Arial">4</text></g><polyline points="18.35 307.52 21.09 307.52" clip-path="url(#cpMC4wMHw1MDQuMDB8Mzc4LjAwfDAuMDA=)" style="stroke-width:1.07;stroke:#333;stroke-linecap:butt"/><polyline points="18.35 241.45 21.09 241.45" clip-path="url(#cpMC4wMHw1MDQuMDB8Mzc4LjAwfDAuMDA=)" style="stroke-width:1.07;stroke:#333;stroke-linecap:butt"/><polyline points="18.35 175.38 21.09 175.38" clip-path="url(#cpMC4wMHw1MDQuMDB8Mzc4LjAwfDAuMDA=)" style="stroke-width:1.07;stroke:#333;stroke-linecap:butt"/><polyline points="18.35 109.3 21.09 109.3" clip-path="url(#cpMC4wMHw1MDQuMDB8Mzc4LjAwfDAuMDA=)" style="stroke-width:1.07;stroke:#333;stroke-linecap:butt"/><polyline points="18.35 43.23 21.09 43.23" clip-path="url(#cpMC4wMHw1MDQuMDB8Mzc4LjAwfDAuMDA=)" style="stroke-width:1.07;stroke:#333;stroke-linecap:butt"/><polyline points="130.61 352.19 130.61 349.45" clip-path="url(#cpMC4wMHw1MDQuMDB8Mzc4LjAwfDAuMDA=)" style="stroke-width:1.07;stroke:#333;stroke-linecap:butt"/><polyline points="265.72 352.19 265.72 349.45" clip-path="url(#cpMC4wMHw1MDQuMDB8Mzc4LjAwfDAuMDA=)" style="stroke-width:1.07;stroke:#333;stroke-linecap:butt"/><polyline points="400.84 352.19 400.84 349.45" clip-path="url(#cpMC4wMHw1MDQuMDB8Mzc4LjAwfDAuMDA=)" style="stroke-width:1.07;stroke:#333;stroke-linecap:butt"/><g clip-path="url(#cpMC4wMHw1MDQuMDB8Mzc4LjAwfDAuMDA=)"><text x="119.93" y="361.25" lengthAdjust="spacingAndGlyphs" textLength="21.36" style="font-size:9.6px;fill:#4d4d4d;font-family:Arial">1960</text></g><g clip-path="url(#cpMC4wMHw1MDQuMDB8Mzc4LjAwfDAuMDA=)"><text x="255.05" y="361.25" lengthAdjust="spacingAndGlyphs" textLength="21.36" style="font-size:9.6px;fill:#4d4d4d;font-family:Arial">1980</text></g><g clip-path="url(#cpMC4wMHw1MDQuMDB8Mzc4LjAwfDAuMDA=)"><text x="390.16" y="361.25" lengthAdjust="spacingAndGlyphs" textLength="21.36" style="font-size:9.6px;fill:#4d4d4d;font-family:Arial">2000</text></g><g clip-path="url(#cpMC4wMHw1MDQuMDB8Mzc4LjAwfDAuMDA=)"><text x="457.44" y="371.42" lengthAdjust="spacingAndGlyphs" textLength="41.08" style="font-size:9.6px;fill:#4d4d4d;font-family:Arial">seriestext</text></g><g clip-path="url(#cpMC4wMHw1MDQuMDB8Mzc4LjAwfDAuMDA=)"><text x="5.48" y="12.35" lengthAdjust="spacingAndGlyphs" textLength="5.34" style="font-size:9.6px;fill:#4d4d4d;font-family:Arial">h</text></g></svg>