<svg xmlns="http://www.w3.org/2000/svg" xmlns:xlink="http://www.w3.org/1999/xlink" viewBox="0 0 504 378"><defs><style type="text/css">polyline,rect{fill:none;stroke:#000;stroke-linecap:round;stroke-linejoin:round;stroke-miterlimit:10}</style></defs><rect width="100%" height="100%" style="stroke:none;fill:none"/><rect width="504" height="378" x="0" y="0" style="stroke-width:1.07;stroke:none"/><defs><clipPath id="cpMTUuNzV8NDk4LjUyfDM0OS40NXw1LjQ4"><rect width="482.77" height="343.97" x="15.75" y="5.48"/></clipPath></defs><polyline points="37.69 288.46 38.55 286.34 39.41 284.17 40.27 281.95 41.13 279.67 41.99 277.34 42.85 274.96 43.71 272.54 44.57 270.06 45.42 267.53 46.28 264.98 47.14 262.37 48 259.72 48.86 257.04 49.72 254.33 50.58 251.58 51.44 248.81 52.29 246.02 53.15 243.2 54.01 240.36 54.87 237.51 55.73 234.65 56.59 231.78 57.45 228.9 58.31 226.02 59.17 223.14 60.02 220.27 60.88 217.4 61.74 214.54 62.6 211.7 63.46 208.87 64.32 206.05 65.18 203.26 66.04 200.49 66.9 197.74 67.75 195.02 68.61 192.33 69.47 189.67 70.33 187.04 71.19 184.45 72.05 181.88 72.91 179.35 73.77 176.86 74.63 174.41 75.48 171.98 76.34 169.59 77.2 167.25 78.06 164.94 78.92 162.66 79.78 160.42 80.64 158.22 81.5 156.05 82.36 153.91 83.21 151.82 84.07 149.75 84.93 147.7 85.79 145.7 86.65 143.73 87.51 141.77 88.37 139.85 89.23 137.96 90.09 136.09 90.94 134.24 91.8 132.43 92.66 130.63 93.52 128.86 94.38 127.11 95.24 125.38 96.1 123.67 96.96 121.97 97.81 120.31 98.67 118.65 99.53 117.02 100.39 115.41 101.25 113.81 102.11 112.23 102.97 110.67 103.83 109.13 104.69 107.61 105.54 106.1 106.4 104.62 107.26 103.15 108.12 101.7 108.98 100.26 109.84 98.85 110.7 97.45 111.56 96.07 112.42 94.71 113.27 93.36 114.13 92.03 114.99 90.71 115.85 89.42 116.71 88.14 117.57 86.87 118.43 85.62 119.29 84.38 120.15 83.15 121 81.94 121.86 80.74 122.72 79.54 123.58 78.36 124.44 77.19 125.3 76.02 126.16 74.86 127.02 73.71 127.88 72.56 128.73 71.42 129.59 70.28 130.45 69.14 131.31 68 132.17 66.86 133.03 65.73 133.89 64.59 134.75 63.45 135.61 62.31 136.46 61.17 137.32 60.02 138.18 58.87 139.04 57.73 139.9 56.57 140.76 55.42 141.62 54.27 142.48 53.11 143.34 51.95 144.19 50.8 145.05 49.64 145.91 48.49 146.77 47.34 147.63 46.2 148.49 45.06 149.35 43.93 150.21 42.8 151.06 41.69 151.92 40.59 152.78 39.5 153.64 38.43 154.5 37.37 155.36 36.34 156.22 35.31 157.08 34.32 157.94 33.35 158.79 32.41 159.65 31.49 160.51 30.6 161.37 29.75 162.23 28.91 163.09 28.13 163.95 27.38 164.81 26.66 165.67 25.98 166.52 25.35 167.38 24.75 168.24 24.19 169.1 23.69 169.96 23.22 170.82 22.79 171.68 22.42 172.54 22.1 173.4 21.81 174.25 21.57 175.11 21.39 175.97 21.25 176.83 21.15 177.69 21.11 178.55 21.12 179.41 21.16 180.27 21.25 181.13 21.4 181.98 21.58 182.84 21.8 183.7 22.07 184.56 22.38 185.42 22.72 186.28 23.1 187.14 23.53 188 23.98 188.86 24.45 189.71 24.97 190.57 25.52 191.43 26.08 192.29 26.68 193.15 27.29 194.01 27.92 194.87 28.57 195.73 29.24 196.58 29.91 197.44 30.6 198.3 31.29 199.16 31.99 200.02 32.69 200.88 33.4 201.74 34.1 202.6 34.8 203.46 35.5 204.31 36.19 205.17 36.87 206.03 37.55 206.89 38.21 207.75 38.86 208.61 39.51 209.47 40.14 210.33 40.75 211.19 41.36 212.04 41.95 212.9 42.53 213.76 43.1 214.62 43.66 215.48 44.21 216.34 44.75 217.2 45.28 218.06 45.81 218.92 46.33 219.77 46.85 220.63 47.37 221.49 47.89 222.35 48.42 223.21 48.95 224.07 49.49 224.93 50.05 225.79 50.62 226.65 51.21 227.5 51.82 228.36 52.45 229.22 53.11 230.08 53.8 230.94 54.52 231.8 55.27 232.66 56.06 233.52 56.88 234.38 57.75 235.23 58.67 236.09 59.61 236.95 60.62 237.81 61.67 238.67 62.77 239.53 63.91 240.39 65.11 241.25 66.36 242.11 67.66 242.96 69.02 243.82 70.43 244.68 71.88 245.54 73.38 246.4 74.95 247.26 76.56 248.12 78.21 248.98 79.93 249.83 81.68 250.69 83.48 251.55 85.32 252.41 87.21 253.27 89.13 254.13 91.09 254.99 93.09 255.85 95.12 256.71 97.18 257.56 99.28 258.42 101.4 259.28 103.54 260.14 105.71 261 107.9 261.86 110.1 262.72 112.32 263.58 114.55 264.44 116.79 265.29 119.04 266.15 121.3 267.01 123.56 267.87 125.82 268.73 128.08 269.59 130.34 270.45 132.59 271.31 134.83 272.17 137.07 273.02 139.29 273.88 141.5 274.74 143.7 275.6 145.88 276.46 148.04 277.32 150.19 278.18 152.31 279.04 154.41 279.9 156.48 280.75 158.54 281.61 160.56 282.47 162.56 283.33 164.54 284.19 166.48 285.05 168.39 285.91 170.27 286.77 172.13 287.63 173.94 288.48 175.73 289.34 177.48 290.2 179.2 291.06 180.88 291.92 182.54 292.78 184.16 293.64 185.74 294.5 187.28 295.35 188.8 296.21 190.28 297.07 191.72 297.93 193.13 298.79 194.52 299.65 195.85 300.51 197.16 301.37 198.45 302.23 199.69 303.08 200.9 303.94 202.09 304.8 203.24 305.66 204.36 306.52 205.46 307.38 206.53 308.24 207.57 309.1 208.58 309.96 209.57 310.81 210.54 311.67 211.48 312.53 212.39 313.39 213.3 314.25 214.17 315.11 215.03 315.97 215.87 316.83 216.69 317.69 217.5 318.54 218.29 319.4 219.07 320.26 219.83 321.12 220.58 321.98 221.32 322.84 222.05 323.7 222.76 324.56 223.47 325.42 224.18 326.27 224.87 327.13 225.56 327.99 226.24 328.85 226.91 329.71 227.58 330.57 228.25 331.43 228.91 332.29 229.57 333.15 230.23 334 230.88 334.86 231.53 335.72 232.18 336.58 232.83 337.44 233.48 338.3 234.12 339.16 234.77 340.02 235.41 340.88 236.06 341.73 236.7 342.59 237.35 343.45 238 344.31 238.64 345.17 239.29 346.03 239.94 346.89 240.59 347.75 241.25 348.6 241.9 349.46 242.56 350.32 243.22 351.18 243.88 352.04 244.55 352.9 245.22 353.76 245.89 354.62 246.57 355.48 247.25 356.33 247.93 357.19 248.62 358.05 249.32 358.91 250.02 359.77 250.73 360.63 251.44 361.49 252.16 362.35 252.89 363.21 253.62 364.06 254.36 364.92 255.11 365.78 255.87 366.64 256.63 367.5 257.41 368.36 258.19 369.22 258.98 370.08 259.77 370.94 260.58 371.79 261.39 372.65 262.22 373.51 263.05 374.37 263.89 375.23 264.73 376.09 265.58 376.95 266.44 377.81 267.31 378.67 268.18 379.52 269.06 380.38 269.95 381.24 270.84 382.1 271.73 382.96 272.63 383.82 273.53 384.68 274.43 385.54 275.34 386.4 276.25 387.25 277.16 388.11 278.07 388.97 278.98 389.83 279.89 390.69 280.79 391.55 281.7 392.41 282.6 393.27 283.5 394.12 284.4 394.98 285.29 395.84 286.17 396.7 287.06 397.56 287.93 398.42 288.8 399.28 289.66 400.14 290.52 401 291.37 401.85 292.21 402.71 293.04 403.57 293.87 404.43 294.69 405.29 295.5 406.15 296.3 407.01 297.09 407.87 297.87 408.73 298.65 409.58 299.41 410.44 300.17 411.3 300.92 412.16 301.66 413.02 302.39 413.88 303.11 414.74 303.83 415.6 304.53 416.46 305.23 417.31 305.92 418.17 306.6 419.03 307.27 419.89 307.93 420.75 308.58 421.61 309.23 422.47 309.87 423.33 310.5 424.19 311.12 425.04 311.73 425.9 312.33 426.76 312.93 427.62 313.52 428.48 314.09 429.34 314.67 430.2 315.22 431.06 315.78 431.92 316.32 432.77 316.85 433.63 317.38 434.49 317.89 435.35 318.4 436.21 318.89 437.07 319.37 437.93 319.85 438.79 320.31 439.65 320.76 440.5 321.21 441.36 321.64 442.22 322.06 443.08 322.46 443.94 322.86 444.8 323.24 445.66 323.62 446.52 323.98 447.37 324.33 448.23 324.66 449.09 324.99 449.95 325.3 450.81 325.6 451.67 325.89 452.53 326.17 453.39 326.44 454.25 326.69 455.1 326.93 455.96 327.17 456.82 327.39 457.68 327.6 458.54 327.8 459.4 327.99 460.26 328.18 461.12 328.35 461.98 328.52 462.83 328.67 463.69 328.82 464.55 328.96 465.41 329.09 466.27 329.22 467.13 329.34 467.99 329.46 468.85 329.56 469.71 329.67 470.56 329.77 471.42 329.86 472.28 329.96 473.14 330.04 474 330.13 474.86 330.21 475.72 330.29 476.58 330.37 476.58 333.81 475.72 333.81 474.86 333.81 474 333.81 473.14 333.81 472.28 333.81 471.42 333.81 470.56 333.81 469.71 333.81 468.85 333.81 467.99 333.81 467.13 333.81 466.27 333.81 465.41 333.81 464.55 333.81 463.69 333.81 462.83 333.81 461.98 333.81 461.12 333.81 460.26 333.81 459.4 333.81 458.54 333.81 457.68 333.81 456.82 333.81 455.96 333.81 455.1 333.81 454.25 333.81 453.39 333.81 452.53 333.81 451.67 333.81 450.81 333.81 449.95 333.81 449.09 333.81 448.23 333.81 447.37 333.81 446.52 333.81 445.66 333.81 444.8 333.81 443.94 333.81 443.08 333.81 442.22 333.81 441.36 333.81 440.5 333.81 439.65 333.81 438.79 333.81 437.93 333.81 437.07 333.81 436.21 333.81 435.35 333.81 434.49 333.81 433.63 333.81 432.77 333.81 431.92 333.81 431.06 333.81 430.2 333.81 429.34 333.81 428.48 333.81 427.62 333.81 426.76 333.81 425.9 333.81 425.04 333.81 424.19 333.81 423.33 333.81 422.47 333.81 421.61 333.81 420.75 333.81 419.89 333.81 419.03 333.81 418.17 333.81 417.31 333.81 416.46 333.81 415.6 333.81 414.74 333.81 413.88 333.81 413.02 333.81 412.16 333.81 411.3 333.81 410.44 333.81 409.58 333.81 408.73 333.81 407.87 333.81 407.01 333.81 406.15 333.81 405.29 333.81 404.43 333.81 403.57 333.81 402.71 333.81 401.85 333.81 401 333.81 400.14 333.81 399.28 333.81 398.42 333.81 397.56 333.81 396.7 333.81 395.84 333.81 394.98 333.81 394.12 333.81 393.27 333.81 392.41 333.81 391.55 333.81 390.69 333.81 389.83 333.81 388.97 333.81 388.11 333.81 387.25 333.81 386.4 333.81 385.54 333.81 384.68 333.81 383.82 333.81 382.96 333.81 382.1 333.81 381.24 333.81 380.38 333.81 379.52 333.81 378.67 333.81 377.81 333.81 376.95 333.81 376.09 333.81 375.23 333.81 374.37 333.81 373.51 333.81 372.65 333.81 371.79 333.81 370.94 333.81 370.08 333.81 369.22 333.81 368.36 333.81 367.5 333.81 366.64 333.81 365.78 333.81 364.92 333.81 364.06 333.81 363.21 333.81 362.35 333.81 361.49 333.81 360.63 333.81 359.77 333.81 358.91 333.81 358.05 333.81 357.19 333.81 356.33 333.81 355.48 333.81 354.62 333.81 353.76 333.81 352.9 333.81 352.04 333.81 351.18 333.81 350.32 333.81 349.46 333.81 348.6 333.81 347.75 333.81 346.89 333.81 346.03 333.81 345.17 333.81 344.31 333.81 343.45 333.81 342.59 333.81 341.73 333.81 340.88 333.81 340.02 333.81 339.16 333.81 338.3 333.81 337.44 333.81 336.58 333.81 335.72 333.81 334.86 333.81 334 333.81 333.15 333.81 332.29 333.81 331.43 333.81 330.57 333.81 329.71 333.81 328.85 333.81 327.99 333.81 327.13 333.81 326.27 333.81 325.42 333.81 324.56 333.81 323.7 333.81 322.84 333.81 321.98 333.81 321.12 333.81 320.26 333.81 319.4 333.81 318.54 333.81 317.69 333.81 316.83 333.81 315.97 333.81 315.11 333.81 314.25 333.81 313.39 333.81 312.53 333.81 311.67 333.81 310.81 333.81 309.96 333.81 309.1 333.81 308.24 333.81 307.38 333.81 306.52 333.81 305.66 333.81 304.8 333.81 303.94 333.81 303.08 333.81 302.23 333.81 301.37 333.81 300.51 333.81 299.65 333.81 298.79 333.81 297.93 333.81 297.07 333.81 296.21 333.81 295.35 333.81 294.5 333.81 293.64 333.81 292.78 333.81 291.92 333.81 291.06 333.81 290.2 333.81 289.34 333.81 288.48 333.81 287.63 333.81 286.77 333.81 285.91 333.81 285.05 333.81 284.19 333.81 283.33 333.81 282.47 333.81 281.61 333.81 280.75 333.81 279.9 333.81 279.04 333.81 278.18 333.81 277.32 333.81 276.46 333.81 275.6 333.81 274.74 333.81 273.88 333.81 273.02 333.81 272.17 333.81 271.31 333.81 270.45 333.81 269.59 333.81 268.73 333.81 267.87 333.81 267.01 333.81 266.15 333.81 265.29 333.81 264.44 333.81 263.58 333.81 262.72 333.81 261.86 333.81 261 333.81 260.14 333.81 259.28 333.81 258.42 333.81 257.56 333.81 256.71 333.81 255.85 333.81 254.99 333.81 254.13 333.81 253.27 333.81 252.41 333.81 251.55 333.81 250.69 333.81 249.83 333.81 248.98 333.81 248.12 333.81 247.26 333.81 246.4 333.81 245.54 333.81 244.68 333.81 243.82 333.81 242.96 333.81 242.11 333.81 241.25 333.81 240.39 333.81 239.53 333.81 238.67 333.81 237.81 333.81 236.95 333.81 236.09 333.81 235.23 333.81 234.38 333.81 233.52 333.81 232.66 333.81 231.8 333.81 230.94 333.81 230.08 333.81 229.22 333.81 228.36 333.81 227.5 333.81 226.65 333.81 225.79 333.81 224.93 333.81 224.07 333.81 223.21 333.81 222.35 333.81 221.49 333.81 220.63 333.81 219.77 333.81 218.92 333.81 218.06 333.81 217.2 333.81 216.34 333.81 215.48 333.81 214.62 333.81 213.76 333.81 212.9 333.81 212.04 333.81 211.19 333.81 210.33 333.81 209.47 333.81 208.61 333.81 207.75 333.81 206.89 333.81 206.03 333.81 205.17 333.81 204.31 333.81 203.46 333.81 202.6 333.81 201.74 333.81 200.88 333.81 200.02 333.81 199.16 333.81 198.3 333.81 197.44 333.81 196.58 333.81 195.73 333.81 194.87 333.81 194.01 333.81 193.15 333.81 192.29 333.81 191.43 333.81 190.57 333.81 189.71 333.81 188.86 333.81 188 333.81 187.14 333.81 186.28 333.81 185.42 333.81 184.56 333.81 183.7 333.81 182.84 333.81 181.98 333.81 181.13 333.81 180.27 333.81 179.41 333.81 178.55 333.81 177.69 333.81 176.83 333.81 175.97 333.81 175.11 333.81 174.25 333.81 173.4 333.81 172.54 333.81 171.68 333.81 170.82 333.81 169.96 333.81 169.1 333.81 168.24 333.81 167.38 333.81 166.52 333.81 165.67 333.81 164.81 333.81 163.95 333.81 163.09 333.81 162.23 333.81 161.37 333.81 160.51 333.81 159.65 333.81 158.79 333.81 157.94 333.81 157.08 333.81 156.22 333.81 155.36 333.81 154.5 333.81 153.64 333.81 152.78 333.81 151.92 333.81 151.06 333.81 150.21 333.81 149.35 333.81 148.49 333.81 147.63 333.81 146.77 333.81 145.91 333.81 145.05 333.81 144.19 333.81 143.34 333.81 142.48 333.81 141.62 333.81 140.76 333.81 139.9 333.81 139.04 333.81 138.18 333.81 137.32 333.81 136.46 333.81 135.61 333.81 134.75 333.81 133.89 333.81 133.03 333.81 132.17 333.81 131.31 333.81 130.45 333.81 129.59 333.81 128.73 333.81 127.88 333.81 127.02 333.81 126.16 333.81 125.3 333.81 124.44 333.81 123.58 333.81 122.72 333.81 121.86 333.81 121 333.81 120.15 333.81 119.29 333.81 118.43 333.81 117.57 333.81 116.71 333.81 115.85 333.81 114.99 333.81 114.13 333.81 113.27 333.81 112.42 333.81 111.56 333.81 110.7 333.81 109.84 333.81 108.98 333.81 108.12 333.81 107.26 333.81 106.4 333.81 105.54 333.81 104.69 333.81 103.83 333.81 102.97 333.81 102.11 333.81 101.25 333.81 100.39 333.81 99.53 333.81 98.67 333.81 97.81 333.81 96.96 333.81 96.1 333.81 95.24 333.81 94.38 333.81 93.52 333.81 92.66 333.81 91.8 333.81 90.94 333.81 90.09 333.81 89.23 333.81 88.37 333.81 87.51 333.81 86.65 333.81 85.79 333.81 84.93 333.81 84.07 333.81 83.21 333.81 82.36 333.81 81.5 333.81 80.64 333.81 79.78 333.81 78.92 333.81 78.06 333.81 77.2 333.81 76.34 333.81 75.48 333.81 74.63 333.81 73.77 333.81 72.91 333.81 72.05 333.81 71.19 333.81 70.33 333.81 69.47 333.81 68.61 333.81 67.75 333.81 66.9 333.81 66.04 333.81 65.18 333.81 64.32 333.81 63.46 333.81 62.6 333.81 61.74 333.81 60.88 333.81 60.02 333.81 59.17 333.81 58.31 333.81 57.45 333.81 56.59 333.81 55.73 333.81 54.87 333.81 54.01 333.81 53.15 333.81 52.29 333.81 51.44 333.81 50.58 333.81 49.72 333.81 48.86 333.81 48 333.81 47.14 333.81 46.28 333.81 45.42 333.81 44.57 333.81 43.71 333.81 42.85 333.81 41.99 333.81 41.13 333.81 40.27 333.81 39.41 333.81 38.55 333.81 37.69 333.81 37.69 288.46" clip-path="url(#cpMTUuNzV8NDk4LjUyfDM0OS40NXw1LjQ4)" style="stroke-width:0;stroke:none"/><polyline points="37.69 288.46 38.55 286.34 39.41 284.17 40.27 281.95 41.13 279.67 41.99 277.34 42.85 274.96 43.71 272.54 44.57 270.06 45.42 267.53 46.28 264.98 47.14 262.37 48 259.72 48.86 257.04 49.72 254.33 50.58 251.58 51.44 248.81 52.29 246.02 53.15 243.2 54.01 240.36 54.87 237.51 55.73 234.65 56.59 231.78 57.45 228.9 58.31 226.02 59.17 223.14 60.02 220.27 60.88 217.4 61.74 214.54 62.6 211.7 63.46 208.87 64.32 206.05 65.18 203.26 66.04 200.49 66.9 197.74 67.75 195.02 68.61 192.33 69.47 189.67 70.33 187.04 71.19 184.45 72.05 181.88 72.91 179.35 73.77 176.86 74.63 174.41 75.48 171.98 76.34 169.59 77.2 167.25 78.06 164.94 78.92 162.66 79.78 160.42 80.64 158.22 81.5 156.05 82.36 153.91 83.21 151.82 84.07 149.75 84.93 147.7 85.79 145.7 86.65 143.73 87.51 141.77 88.37 139.85 89.23 137.96 90.09 136.09 90.94 134.24 91.8 132.43 92.66 130.63 93.52 128.86 94.38 127.11 95.24 125.38 96.1 123.67 96.96 121.97 97.81 120.31 98.67 118.65 99.53 117.02 100.39 115.41 101.25 113.81 102.11 112.23 102.97 110.67 103.83 109.13 104.69 107.61 105.54 106.1 106.4 104.62 107.26 103.15 108.12 101.7 108.98 100.26 109.84 98.85 110.7 97.45 111.56 96.07 112.42 94.71 113.27 93.36 114.13 92.03 114.99 90.71 115.85 89.42 116.71 88.14 117.57 86.87 118.43 85.62 119.29 84.38 120.15 83.15 121 81.94 121.86 80.74 122.72 79.54 123.58 78.36 124.44 77.19 125.3 76.02 126.16 74.86 127.02 73.71 127.88 72.56 128.73 71.42 129.59 70.28 130.45 69.14 131.31 68 132.17 66.86 133.03 65.73 133.89 64.59 134.75 63.45 135.61 62.31 136.46 61.17 137.32 60.02 138.18 58.87 139.04 57.73 139.9 56.57 140.76 55.42 141.62 54.27 142.48 53.11 143.34 51.95 144.19 50.8 145.05 49.64 145.91 48.49 146.77 47.34 147.63 46.2 148.49 45.06 149.35 43.93 150.21 42.8 151.06 41.69 151.92 40.59 152.78 39.5 153.64 38.43 154.5 37.37 155.36 36.34 156.22 35.31 157.08 34.32 157.94 33.35 158.79 32.41 159.65 31.49 160.51 30.6 161.37 29.75 162.23 28.91 163.09 28.13 163.95 27.38 164.81 26.66 165.67 25.98 166.52 25.35 167.38 24.75 168.24 24.19 169.1 23.69 169.96 23.22 170.82 22.79 171.68 22.42 172.54 22.1 173.4 21.81 174.25 21.57 175.11 21.39 175.97 21.25 176.83 21.15 177.69 21.11 178.55 21.12 179.41 21.16 180.27 21.25 181.13 21.4 181.98 21.58 182.84 21.8 183.7 22.07 184.56 22.38 185.42 22.72 186.28 23.1 187.14 23.53 188 23.98 188.86 24.45 189.71 24.97 190.57 25.52 191.43 26.08 192.29 26.68 193.15 27.29 194.01 27.92 194.87 28.57 195.73 29.24 196.58 29.91 197.44 30.6 198.3 31.29 199.16 31.99 200.02 32.69 200.88 33.4 201.74 34.1 202.6 34.8 203.46 35.5 204.31 36.19 205.17 36.87 206.03 37.55 206.89 38.21 207.75 38.86 208.61 39.51 209.47 40.14 210.33 40.75 211.19 41.36 212.04 41.95 212.9 42.53 213.76 43.1 214.62 43.66 215.48 44.21 216.34 44.75 217.2 45.28 218.06 45.81 218.92 46.33 219.77 46.85 220.63 47.37 221.49 47.89 222.35 48.42 223.21 48.95 224.07 49.49 224.93 50.05 225.79 50.62 226.65 51.21 227.5 51.82 228.36 52.45 229.22 53.11 230.08 53.8 230.94 54.52 231.8 55.27 232.66 56.06 233.52 56.88 234.38 57.75 235.23 58.67 236.09 59.61 236.95 60.62 237.81 61.67 238.67 62.77 239.53 63.91 240.39 65.11 241.25 66.36 242.11 67.66 242.96 69.02 243.82 70.43 244.68 71.88 245.54 73.38 246.4 74.95 247.26 76.56 248.12 78.21 248.98 79.93 249.83 81.68 250.69 83.48 251.55 85.32 252.41 87.21 253.27 89.13 254.13 91.09 254.99 93.09 255.85 95.12 256.71 97.18 257.56 99.28 258.42 101.4 259.28 103.54 260.14 105.71 261 107.9 261.86 110.1 262.72 112.32 263.58 114.55 264.44 116.79 265.29 119.04 266.15 121.3 267.01 123.56 267.87 125.82 268.73 128.08 269.59 130.34 270.45 132.59 271.31 134.83 272.17 137.07 273.02 139.29 273.88 141.5 274.74 143.7 275.6 145.88 276.46 148.04 277.32 150.19 278.18 152.31 279.04 154.41 279.9 156.48 280.75 158.54 281.61 160.56 282.47 162.56 283.33 164.54 284.19 166.48 285.05 168.39 285.91 170.27 286.77 172.13 287.63 173.94 288.48 175.73 289.34 177.48 290.2 179.2 291.06 180.88 291.92 182.54 292.78 184.16 293.64 185.74 294.5 187.28 295.35 188.8 296.21 190.28 297.07 191.72 297.93 193.13 298.79 194.52 299.65 195.85 300.51 197.16 301.37 198.45 302.23 199.69 303.08 200.9 303.94 202.09 304.8 203.24 305.66 204.36 306.52 205.46 307.38 206.53 308.24 207.57 309.1 208.58 309.96 209.57 310.81 210.54 311.67 211.48 312.53 212.39 313.39 213.3 314.25 214.17 315.11 215.03 315.97 215.87 316.83 216.69 317.69 217.5 318.54 218.29 319.4 219.07 320.26 219.83 321.12 220.58 321.98 221.32 322.84 222.05 323.7 222.76 324.56 223.47 325.42 224.18 326.27 224.87 327.13 225.56 327.99 226.24 328.85 226.91 329.71 227.58 330.57 228.25 331.43 228.91 332.29 229.57 333.15 230.23 334 230.88 334.86 231.53 335.72 232.18 336.58 232.83 337.44 233.48 338.3 234.12 339.16 234.77 340.02 235.41 340.88 236.06 341.73 236.7 342.59 237.35 343.45 238 344.31 238.64 345.17 239.29 346.03 239.94 346.89 240.59 347.75 241.25 348.6 241.9 349.46 242.56 350.32 243.22 351.18 243.88 352.04 244.55 352.9 245.22 353.76 245.89 354.62 246.57 355.48 247.25 356.33 247.93 357.19 248.62 358.05 249.32 358.91 250.02 359.77 250.73 360.63 251.44 361.49 252.16 362.35 252.89 363.21 253.62 364.06 254.36 364.92 255.11 365.78 255.87 366.64 256.63 367.5 257.41 368.36 258.19 369.22 258.98 370.08 259.77 370.94 260.58 371.79 261.39 372.65 262.22 373.51 263.05 374.37 263.89 375.23 264.73 376.09 265.58 376.95 266.44 377.81 267.31 378.67 268.18 379.52 269.06 380.38 269.95 381.24 270.84 382.1 271.73 382.96 272.63 383.82 273.53 384.68 274.43 385.54 275.34 386.4 276.25 387.25 277.16 388.11 278.07 388.97 278.98 389.83 279.89 390.69 280.79 391.55 281.7 392.41 282.6 393.27 283.5 394.12 284.4 394.98 285.29 395.84 286.17 396.7 287.06 397.56 287.93 398.42 288.8 399.28 289.66 400.14 290.52 401 291.37 401.85 292.21 402.71 293.04 403.57 293.87 404.43 294.69 405.29 295.5 406.15 296.3 407.01 297.09 407.87 297.87 408.73 298.65 409.58 299.41 410.44 300.17 411.3 300.92 412.16 301.66 413.02 302.39 413.88 303.11 414.74 303.83 415.6 304.53 416.46 305.23 417.31 305.92 418.17 306.6 419.03 307.27 419.89 307.93 420.75 308.58 421.61 309.23 422.47 309.87 423.33 310.5 424.19 311.12 425.04 311.73 425.9 312.33 426.76 312.93 427.62 313.52 428.48 314.09 429.34 314.67 430.2 315.22 431.06 315.78 431.92 316.32 432.77 316.85 433.63 317.38 434.49 317.89 435.35 318.4 436.21 318.89 437.07 319.37 437.93 319.85 438.79 320.31 439.65 320.76 440.5 321.21 441.36 321.64 442.22 322.06 443.08 322.46 443.94 322.86 444.8 323.24 445.66 323.62 446.52 323.98 447.37 324.33 448.23 324.66 449.09 324.99 449.95 325.3 450.81 325.6 451.67 325.89 452.53 326.17 453.39 326.44 454.25 326.69 455.1 326.93 455.96 327.17 456.82 327.39 457.68 327.6 458.54 327.8 459.4 327.99 460.26 328.18 461.12 328.35 461.98 328.52 462.83 328.67 463.69 328.82 464.55 328.96 465.41 329.09 466.27 329.22 467.13 329.34 467.99 329.46 468.85 329.56 469.71 329.67 470.56 329.77 471.42 329.86 472.28 329.96 473.14 330.04 474 330.13 474.86 330.21 475.72 330.29 476.58 330.37" clip-path="url(#cpMTUuNzV8NDk4LjUyfDM0OS40NXw1LjQ4)" style="stroke-width:1.07"/><defs><clipPath id="cpMC4wMHw1MDQuMDB8Mzc4LjAwfDAuMDA="><rect width="504" height="378" x="0" y="0"/></clipPath></defs><g clip-path="url(#cpMC4wMHw1MDQuMDB8Mzc4LjAwfDAuMDA=)"><text x="5.48" y="337.25" lengthAdjust="spacingAndGlyphs" textLength="5.34" style="font-size:9.6px;fill:#4d4d4d;font-family:Arial">0</text></g><g clip-path="url(#cpMC4wMHw1MDQuMDB8Mzc4LjAwfDAuMDA=)"><text x="5.48" y="217.83" lengthAdjust="spacingAndGlyphs" textLength="5.34" style="font-size:9.6px;fill:#4d4d4d;font-family:Arial">1</text></g><g clip-path="url(#cpMC4wMHw1MDQuMDB8Mzc4LjAwfDAuMDA=)"><text x="5.48" y="98.41" lengthAdjust="spacingAndGlyphs" textLength="5.34" style="font-size:9.6px;fill:#4d4d4d;font-family:Arial">2</text></g><polyline points="13.01 333.81 15.75 333.81" clip-path="url(#cpMC4wMHw1MDQuMDB8Mzc4LjAwfDAuMDA=)" style="stroke-width:1.07;stroke:#333;stroke-linecap:butt"/><polyline points="13.01 214.39 15.75 214.39" clip-path="url(#cpMC4wMHw1MDQuMDB8Mzc4LjAwfDAuMDA=)" style="stroke-width:1.07;stroke:#333;stroke-linecap:butt"/><polyline points="13.01 94.97 15.75 94.97" clip-path="url(#cpMC4wMHw1MDQuMDB8Mzc4LjAwfDAuMDA=)" style="stroke-width:1.07;stroke:#333;stroke-linecap:butt"/><polyline points="34.37 352.19 34.37 349.45" clip-path="url(#cpMC4wMHw1MDQuMDB8Mzc4LjAwfDAuMDA=)" style="stroke-width:1.07;stroke:#333;stroke-linecap:butt"/><polyline points="153.82 352.19 153.82 349.45" clip-path="url(#cpMC4wMHw1MDQuMDB8Mzc4LjAwfDAuMDA=)" style="stroke-width:1.07;stroke:#333;stroke-linecap:butt"/><polyline points="273.27 352.19 273.27 349.45" clip-path="url(#cpMC4wMHw1MDQuMDB8Mzc4LjAwfDAuMDA=)" style="stroke-width:1.07;stroke:#333;stroke-linecap:butt"/><polyline points="392.72 352.19 392.72 349.45" clip-path="url(#cpMC4wMHw1MDQuMDB8Mzc4LjAwfDAuMDA=)" style="stroke-width:1.07;stroke:#333;stroke-linecap:butt"/><g clip-path="url(#cpMC4wMHw1MDQuMDB8Mzc4LjAwfDAuMDA=)"><text x="27.69" y="361.25" lengthAdjust="spacingAndGlyphs" textLength="13.35" style="font-size:9.6px;fill:#4d4d4d;font-family:Arial">0.0</text></g><g clip-path="url(#cpMC4wMHw1MDQuMDB8Mzc4LjAwfDAuMDA=)"><text x="147.15" y="361.25" lengthAdjust="spacingAndGlyphs" textLength="13.35" style="font-size:9.6px;fill:#4d4d4d;font-family:Arial">0.2</text></g><g clip-path="url(#cpMC4wMHw1MDQuMDB8Mzc4LjAwfDAuMDA=)"><text x="266.6" y="361.25" lengthAdjust="spacingAndGlyphs" textLength="13.35" style="font-size:9.6px;fill:#4d4d4d;font-family:Arial">0.4</text></g><g clip-path="url(#cpMC4wMHw1MDQuMDB8Mzc4LjAwfDAuMDA=)"><text x="386.05" y="361.25" lengthAdjust="spacingAndGlyphs" textLength="13.35" style="font-size:9.6px;fill:#4d4d4d;font-family:Arial">0.6</text></g><g clip-path="url(#cpMC4wMHw1MDQuMDB8Mzc4LjAwfDAuMDA=)"><text x="493.72" y="371.42" lengthAdjust="spacingAndGlyphs" textLength="4.8" style="font-size:9.6px;fill:#4d4d4d;font-family:Arial">y</text></g></svg>