<svg xmlns="http://www.w3.org/2000/svg" xmlns:xlink="http://www.w3.org/1999/xlink" viewBox="0 0 504 378"><defs><style type="text/css">circle,polyline,rect{fill:none;stroke:#000;stroke-linecap:round;stroke-linejoin:round;stroke-miterlimit:10}</style></defs><rect width="100%" height="100%" style="stroke:none;fill:none"/><defs><clipPath id="cpMjguNDV8MTgxLjQ5fDE3My4wNnwyMi42OQ=="><rect width="153.04" height="150.37" x="28.45" y="22.69"/></clipPath></defs><polyline points="28.45 130.94 181.49 130.94" clip-path="url(#cpMjguNDV8MTgxLjQ5fDE3My4wNnwyMi42OQ==)" style="stroke-width:.53;stroke:#ebebeb;stroke-linecap:butt"/><polyline points="28.45 86.85 181.49 86.85" clip-path="url(#cpMjguNDV8MTgxLjQ5fDE3My4wNnwyMi42OQ==)" style="stroke-width:.53;stroke:#ebebeb;stroke-linecap:butt"/><polyline points="28.45 42.75 181.49 42.75" clip-path="url(#cpMjguNDV8MTgxLjQ5fDE3My4wNnwyMi42OQ==)" style="stroke-width:.53;stroke:#ebebeb;stroke-linecap:butt"/><polyline points="52.8 173.06 52.8 22.69" clip-path="url(#cpMjguNDV8MTgxLjQ5fDE3My4wNnwyMi42OQ==)" style="stroke-width:.53;stroke:#ebebeb;stroke-linecap:butt"/><polyline points="87.58 173.06 87.58 22.69" clip-path="url(#cpMjguNDV8MTgxLjQ5fDE3My4wNnwyMi42OQ==)" style="stroke-width:.53;stroke:#ebebeb;stroke-linecap:butt"/><polyline points="122.36 173.06 122.36 22.69" clip-path="url(#cpMjguNDV8MTgxLjQ5fDE3My4wNnwyMi42OQ==)" style="stroke-width:.53;stroke:#ebebeb;stroke-linecap:butt"/><polyline points="157.14 173.06 157.14 22.69" clip-path="url(#cpMjguNDV8MTgxLjQ5fDE3My4wNnwyMi42OQ==)" style="stroke-width:.53;stroke:#ebebeb;stroke-linecap:butt"/><polyline points="28.45 152.99 181.49 152.99" clip-path="url(#cpMjguNDV8MTgxLjQ5fDE3My4wNnwyMi42OQ==)" style="stroke-width:1.07;stroke:#ebebeb;stroke-linecap:butt"/><polyline points="28.45 108.9 181.49 108.9" clip-path="url(#cpMjguNDV8MTgxLjQ5fDE3My4wNnwyMi42OQ==)" style="stroke-width:1.07;stroke:#ebebeb;stroke-linecap:butt"/><polyline points="28.45 64.8 181.49 64.8" clip-path="url(#cpMjguNDV8MTgxLjQ5fDE3My4wNnwyMi42OQ==)" style="stroke-width:1.07;stroke:#ebebeb;stroke-linecap:butt"/><polyline points="35.4 173.06 35.4 22.69" clip-path="url(#cpMjguNDV8MTgxLjQ5fDE3My4wNnwyMi42OQ==)" style="stroke-width:1.07;stroke:#ebebeb;stroke-linecap:butt"/><polyline points="70.19 173.06 70.19 22.69" clip-path="url(#cpMjguNDV8MTgxLjQ5fDE3My4wNnwyMi42OQ==)" style="stroke-width:1.07;stroke:#ebebeb;stroke-linecap:butt"/><polyline points="104.97 173.06 104.97 22.69" clip-path="url(#cpMjguNDV8MTgxLjQ5fDE3My4wNnwyMi42OQ==)" style="stroke-width:1.07;stroke:#ebebeb;stroke-linecap:butt"/><polyline points="139.75 173.06 139.75 22.69" clip-path="url(#cpMjguNDV8MTgxLjQ5fDE3My4wNnwyMi42OQ==)" style="stroke-width:1.07;stroke:#ebebeb;stroke-linecap:butt"/><polyline points="174.53 173.06 174.53 22.69" clip-path="url(#cpMjguNDV8MTgxLjQ5fDE3My4wNnwyMi42OQ==)" style="stroke-width:1.07;stroke:#ebebeb;stroke-linecap:butt"/><circle cx="35.4" cy="64.8" r="1.95" clip-path="url(#cpMjguNDV8MTgxLjQ5fDE3My4wNnwyMi42OQ==)" style="stroke-width:.71;stroke:#f50;fill:#f50"/><circle cx="49.67" cy="55.98" r="1.95" clip-path="url(#cpMjguNDV8MTgxLjQ5fDE3My4wNnwyMi42OQ==)" style="stroke-width:.71;stroke:#f50;fill:#f50"/><circle cx="67.51" cy="130.94" r="1.95" clip-path="url(#cpMjguNDV8MTgxLjQ5fDE3My4wNnwyMi42OQ==)" style="stroke-width:.71;stroke:#f50;fill:#f50"/><circle cx="86.24" cy="126.54" r="1.95" clip-path="url(#cpMjguNDV8MTgxLjQ5fDE3My4wNnwyMi42OQ==)" style="stroke-width:.71;stroke:#f50;fill:#f50"/><circle cx="86.24" cy="117.72" r="1.95" clip-path="url(#cpMjguNDV8MTgxLjQ5fDE3My4wNnwyMi42OQ==)" style="stroke-width:.71;stroke:#f50;fill:#f50"/><circle cx="86.24" cy="135.35" r="1.95" clip-path="url(#cpMjguNDV8MTgxLjQ5fDE3My4wNnwyMi42OQ==)" style="stroke-width:.71;stroke:#f50;fill:#f50"/><circle cx="98.72" cy="100.08" r="1.95" clip-path="url(#cpMjguNDV8MTgxLjQ5fDE3My4wNnwyMi42OQ==)" style="stroke-width:.71;stroke:#f50;fill:#f50"/><circle cx="98.72" cy="135.35" r="1.95" clip-path="url(#cpMjguNDV8MTgxLjQ5fDE3My4wNnwyMi42OQ==)" style="stroke-width:.71;stroke:#f50;fill:#f50"/><circle cx="98.72" cy="126.54" r="1.95" clip-path="url(#cpMjguNDV8MTgxLjQ5fDE3My4wNnwyMi42OQ==)" style="stroke-width:.71;stroke:#f50;fill:#f50"/><circle cx="115.67" cy="29.52" r="1.95" clip-path="url(#cpMjguNDV8MTgxLjQ5fDE3My4wNnwyMi42OQ==)" style="stroke-width:.71;stroke:#f50;fill:#f50"/><circle cx="115.67" cy="113.31" r="1.95" clip-path="url(#cpMjguNDV8MTgxLjQ5fDE3My4wNnwyMi42OQ==)" style="stroke-width:.71;stroke:#f50;fill:#f50"/><circle cx="115.67" cy="73.62" r="1.95" clip-path="url(#cpMjguNDV8MTgxLjQ5fDE3My4wNnwyMi42OQ==)" style="stroke-width:.71;stroke:#f50;fill:#f50"/><circle cx="115.67" cy="108.9" r="1.95" clip-path="url(#cpMjguNDV8MTgxLjQ5fDE3My4wNnwyMi42OQ==)" style="stroke-width:.71;stroke:#f50;fill:#f50"/><circle cx="115.67" cy="122.13" r="1.95" clip-path="url(#cpMjguNDV8MTgxLjQ5fDE3My4wNnwyMi42OQ==)" style="stroke-width:.71;stroke:#f50;fill:#f50"/><circle cx="125.48" cy="104.49" r="1.95" clip-path="url(#cpMjguNDV8MTgxLjQ5fDE3My4wNnwyMi42OQ==)" style="stroke-width:.71;stroke:#f50;fill:#f50"/><circle cx="125.48" cy="95.67" r="1.95" clip-path="url(#cpMjguNDV8MTgxLjQ5fDE3My4wNnwyMi42OQ==)" style="stroke-width:.71;stroke:#f50;fill:#f50"/><circle cx="156.69" cy="108.9" r="1.95" clip-path="url(#cpMjguNDV8MTgxLjQ5fDE3My4wNnwyMi42OQ==)" style="stroke-width:.71;stroke:#f50;fill:#f50"/><circle cx="174.53" cy="117.72" r="1.95" clip-path="url(#cpMjguNDV8MTgxLjQ5fDE3My4wNnwyMi42OQ==)" style="stroke-width:.71;stroke:#f50;fill:#f50"/><circle cx="174.53" cy="166.22" r="1.95" clip-path="url(#cpMjguNDV8MTgxLjQ5fDE3My4wNnwyMi42OQ==)" style="stroke-width:.71;stroke:#f50;fill:#f50"/><polyline points="35.4 83.05 36.8 83.64 38.19 84.23 39.58 84.82 40.97 85.4 42.36 85.99 43.75 86.58 45.14 87.16 46.53 87.74 47.93 88.32 49.32 88.9 50.71 89.47 52.1 90.05 53.49 90.62 54.88 91.18 56.27 91.75 57.66 92.31 59.06 92.86 60.45 93.41 61.84 93.96 63.23 94.49 64.62 95.03 66.01 95.55 67.4 96.07 68.79 96.58 70.19 97.08 71.58 97.57 72.97 98.05 74.36 98.52 75.75 98.98 77.14 99.44 78.53 99.88 79.93 100.32 81.32 100.74 82.71 101.15 84.1 101.56 85.49 101.95 86.88 102.33 88.27 102.7 89.66 103.06 91.06 103.41 92.45 103.75 93.84 104.09 95.23 104.42 96.62 104.74 98.01 105.05 99.4 105.36 100.79 105.67 102.19 105.97 103.58 106.27 104.97 106.57 106.36 106.87 107.75 107.17 109.14 107.47 110.53 107.77 111.92 108.07 113.32 108.38 114.71 108.69 116.1 109 117.49 109.32 118.88 109.65 120.27 109.98 121.66 110.32 123.05 110.67 124.45 111.03 125.84 111.39 127.23 111.76 128.62 112.14 130.01 112.53 131.4 112.93 132.79 113.33 134.18 113.74 135.58 114.15 136.97 114.58 138.36 115 139.75 115.44 141.14 115.88 142.53 116.32 143.92 116.77 145.31 117.22 146.71 117.68 148.1 118.15 149.49 118.62 150.88 119.09 152.27 119.57 153.66 120.05 155.05 120.53 156.44 121.02 157.84 121.52 159.23 122.01 160.62 122.51 162.01 123.01 163.4 123.52 164.79 124.03 166.18 124.54 167.57 125.05 168.97 125.56 170.36 126.07 171.75 126.59 173.14 127.1 174.53 127.62" clip-path="url(#cpMjguNDV8MTgxLjQ5fDE3My4wNnwyMi42OQ==)" style="stroke-width:1.07;stroke:#0af;stroke-linecap:butt"/><defs><clipPath id="cpMC4wMHw1MDQuMDB8Mzc4LjAwfDAuMDA="><rect width="504" height="378" x="0" y="0"/></clipPath></defs><defs><clipPath id="cpMjguNDV8MTgxLjQ5fDM0Ni4xMXwxOTUuNzU="><rect width="153.04" height="150.37" x="28.45" y="195.75"/></clipPath></defs><polyline points="28.45 304 181.49 304" clip-path="url(#cpMjguNDV8MTgxLjQ5fDM0Ni4xMXwxOTUuNzU=)" style="stroke-width:.53;stroke:#ebebeb;stroke-linecap:butt"/><polyline points="28.45 259.91 181.49 259.91" clip-path="url(#cpMjguNDV8MTgxLjQ5fDM0Ni4xMXwxOTUuNzU=)" style="stroke-width:.53;stroke:#ebebeb;stroke-linecap:butt"/><polyline points="28.45 215.81 181.49 215.81" clip-path="url(#cpMjguNDV8MTgxLjQ5fDM0Ni4xMXwxOTUuNzU=)" style="stroke-width:.53;stroke:#ebebeb;stroke-linecap:butt"/><polyline points="52.8 346.11 52.8 195.75" clip-path="url(#cpMjguNDV8MTgxLjQ5fDM0Ni4xMXwxOTUuNzU=)" style="stroke-width:.53;stroke:#ebebeb;stroke-linecap:butt"/><polyline points="87.58 346.11 87.58 195.75" clip-path="url(#cpMjguNDV8MTgxLjQ5fDM0Ni4xMXwxOTUuNzU=)" style="stroke-width:.53;stroke:#ebebeb;stroke-linecap:butt"/><polyline points="122.36 346.11 122.36 195.75" clip-path="url(#cpMjguNDV8MTgxLjQ5fDM0Ni4xMXwxOTUuNzU=)" style="stroke-width:.53;stroke:#ebebeb;stroke-linecap:butt"/><polyline points="157.14 346.11 157.14 195.75" clip-path="url(#cpMjguNDV8MTgxLjQ5fDM0Ni4xMXwxOTUuNzU=)" style="stroke-width:.53;stroke:#ebebeb;stroke-linecap:butt"/><polyline points="28.45 326.05 181.49 326.05" clip-path="url(#cpMjguNDV8MTgxLjQ5fDM0Ni4xMXwxOTUuNzU=)" style="stroke-width:1.07;stroke:#ebebeb;stroke-linecap:butt"/><polyline points="28.45 281.95 181.49 281.95" clip-path="url(#cpMjguNDV8MTgxLjQ5fDM0Ni4xMXwxOTUuNzU=)" style="stroke-width:1.07;stroke:#ebebeb;stroke-linecap:butt"/><polyline points="28.45 237.86 181.49 237.86" clip-path="url(#cpMjguNDV8MTgxLjQ5fDM0Ni4xMXwxOTUuNzU=)" style="stroke-width:1.07;stroke:#ebebeb;stroke-linecap:butt"/><polyline points="35.4 346.11 35.4 195.75" clip-path="url(#cpMjguNDV8MTgxLjQ5fDM0Ni4xMXwxOTUuNzU=)" style="stroke-width:1.07;stroke:#ebebeb;stroke-linecap:butt"/><polyline points="70.19 346.11 70.19 195.75" clip-path="url(#cpMjguNDV8MTgxLjQ5fDM0Ni4xMXwxOTUuNzU=)" style="stroke-width:1.07;stroke:#ebebeb;stroke-linecap:butt"/><polyline points="104.97 346.11 104.97 195.75" clip-path="url(#cpMjguNDV8MTgxLjQ5fDM0Ni4xMXwxOTUuNzU=)" style="stroke-width:1.07;stroke:#ebebeb;stroke-linecap:butt"/><polyline points="139.75 346.11 139.75 195.75" clip-path="url(#cpMjguNDV8MTgxLjQ5fDM0Ni4xMXwxOTUuNzU=)" style="stroke-width:1.07;stroke:#ebebeb;stroke-linecap:butt"/><polyline points="174.53 346.11 174.53 195.75" clip-path="url(#cpMjguNDV8MTgxLjQ5fDM0Ni4xMXwxOTUuNzU=)" style="stroke-width:1.07;stroke:#ebebeb;stroke-linecap:butt"/><circle cx="35.4" cy="237.86" r="1.95" clip-path="url(#cpMjguNDV8MTgxLjQ5fDM0Ni4xMXwxOTUuNzU=)" style="stroke-width:.71;stroke:#f50;fill:#f50"/><circle cx="49.67" cy="229.04" r="1.95" clip-path="url(#cpMjguNDV8MTgxLjQ5fDM0Ni4xMXwxOTUuNzU=)" style="stroke-width:.71;stroke:#f50;fill:#f50"/><circle cx="67.51" cy="304" r="1.95" clip-path="url(#cpMjguNDV8MTgxLjQ5fDM0Ni4xMXwxOTUuNzU=)" style="stroke-width:.71;stroke:#f50;fill:#f50"/><circle cx="86.24" cy="299.59" r="1.95" clip-path="url(#cpMjguNDV8MTgxLjQ5fDM0Ni4xMXwxOTUuNzU=)" style="stroke-width:.71;stroke:#f50;fill:#f50"/><circle cx="86.24" cy="290.77" r="1.95" clip-path="url(#cpMjguNDV8MTgxLjQ5fDM0Ni4xMXwxOTUuNzU=)" style="stroke-width:.71;stroke:#f50;fill:#f50"/><circle cx="86.24" cy="308.41" r="1.95" clip-path="url(#cpMjguNDV8MTgxLjQ5fDM0Ni4xMXwxOTUuNzU=)" style="stroke-width:.71;stroke:#f50;fill:#f50"/><circle cx="98.72" cy="273.13" r="1.95" clip-path="url(#cpMjguNDV8MTgxLjQ5fDM0Ni4xMXwxOTUuNzU=)" style="stroke-width:.71;stroke:#f50;fill:#f50"/><circle cx="98.72" cy="308.41" r="1.95" clip-path="url(#cpMjguNDV8MTgxLjQ5fDM0Ni4xMXwxOTUuNzU=)" style="stroke-width:.71;stroke:#f50;fill:#f50"/><circle cx="98.72" cy="299.59" r="1.95" clip-path="url(#cpMjguNDV8MTgxLjQ5fDM0Ni4xMXwxOTUuNzU=)" style="stroke-width:.71;stroke:#f50;fill:#f50"/><circle cx="115.67" cy="202.58" r="1.95" clip-path="url(#cpMjguNDV8MTgxLjQ5fDM0Ni4xMXwxOTUuNzU=)" style="stroke-width:.71;stroke:#f50;fill:#f50"/><circle cx="115.67" cy="286.36" r="1.95" clip-path="url(#cpMjguNDV8MTgxLjQ5fDM0Ni4xMXwxOTUuNzU=)" style="stroke-width:.71;stroke:#f50;fill:#f50"/><circle cx="115.67" cy="246.68" r="1.95" clip-path="url(#cpMjguNDV8MTgxLjQ5fDM0Ni4xMXwxOTUuNzU=)" style="stroke-width:.71;stroke:#f50;fill:#f50"/><circle cx="115.67" cy="281.95" r="1.95" clip-path="url(#cpMjguNDV8MTgxLjQ5fDM0Ni4xMXwxOTUuNzU=)" style="stroke-width:.71;stroke:#f50;fill:#f50"/><circle cx="115.67" cy="295.18" r="1.95" clip-path="url(#cpMjguNDV8MTgxLjQ5fDM0Ni4xMXwxOTUuNzU=)" style="stroke-width:.71;stroke:#f50;fill:#f50"/><circle cx="125.48" cy="277.54" r="1.95" clip-path="url(#cpMjguNDV8MTgxLjQ5fDM0Ni4xMXwxOTUuNzU=)" style="stroke-width:.71;stroke:#f50;fill:#f50"/><circle cx="125.48" cy="268.72" r="1.95" clip-path="url(#cpMjguNDV8MTgxLjQ5fDM0Ni4xMXwxOTUuNzU=)" style="stroke-width:.71;stroke:#f50;fill:#f50"/><circle cx="156.69" cy="281.95" r="1.95" clip-path="url(#cpMjguNDV8MTgxLjQ5fDM0Ni4xMXwxOTUuNzU=)" style="stroke-width:.71;stroke:#f50;fill:#f50"/><circle cx="174.53" cy="290.77" r="1.95" clip-path="url(#cpMjguNDV8MTgxLjQ5fDM0Ni4xMXwxOTUuNzU=)" style="stroke-width:.71;stroke:#f50;fill:#f50"/><circle cx="174.53" cy="339.28" r="1.95" clip-path="url(#cpMjguNDV8MTgxLjQ5fDM0Ni4xMXwxOTUuNzU=)" style="stroke-width:.71;stroke:#f50;fill:#f50"/><polyline points="35.4 232.22 36.8 232.91 38.19 233.61 39.58 234.34 40.97 235.12 42.36 235.98 43.75 236.95 45.14 238.06 46.53 239.36 47.93 240.9 49.32 242.72 50.71 244.9 52.1 247.48 53.49 250.53 54.88 254.05 56.27 257.92 57.66 262.05 59.06 266.35 60.45 270.73 61.84 275.1 63.23 279.4 64.62 283.54 66.01 287.47 67.4 291.12 68.79 294.43 70.19 297.35 71.58 299.85 72.97 301.91 74.36 303.54 75.75 304.75 77.14 305.56 78.53 305.98 79.93 306.05 81.32 305.78 82.71 305.23 84.1 304.42 85.49 303.4 86.88 302.23 88.27 300.96 89.66 299.61 91.06 298.17 92.45 296.63 93.84 294.98 95.23 293.24 96.62 291.4 98.01 289.48 99.4 287.49 100.79 285.46 102.19 283.42 103.58 281.39 104.97 279.43 106.36 277.55 107.75 275.76 109.14 274.05 110.53 272.43 111.92 270.91 113.32 269.49 114.71 268.18 116.1 267.02 117.49 266.03 118.88 265.24 120.27 264.69 121.66 264.41 123.05 264.46 124.45 264.83 125.84 265.46 127.23 266.29 128.62 267.27 130.01 268.36 131.4 269.5 132.79 270.68 134.18 271.85 135.58 273 136.97 274.09 138.36 275.12 139.75 276.08 141.14 276.95 142.53 277.75 143.92 278.48 145.31 279.14 146.71 279.76 148.1 280.36 149.49 280.95 150.88 281.58 152.27 282.27 153.66 283.08 155.05 284.05 156.44 285.22 157.84 286.67 159.23 288.38 160.62 290.31 162.01 292.42 163.4 294.66 164.79 296.99 166.18 299.4 167.57 301.85 168.97 304.31 170.36 306.79 171.75 309.27 173.14 311.74 174.53 314.2" clip-path="url(#cpMjguNDV8MTgxLjQ5fDM0Ni4xMXwxOTUuNzU=)" style="stroke-width:1.07;stroke:#0af;stroke-linecap:butt"/><defs><clipPath id="cpMC4wMHw1MDQuMDB8Mzc4LjAwfDAuMDA="><rect width="504" height="378" x="0" y="0"/></clipPath></defs><defs><clipPath id="cpMTg2Ljk3fDM0MC4wMHwxNzMuMDZ8MjIuNjk="><rect width="153.04" height="150.37" x="186.97" y="22.69"/></clipPath></defs><polyline points="186.97 130.94 340 130.94" clip-path="url(#cpMTg2Ljk3fDM0MC4wMHwxNzMuMDZ8MjIuNjk=)" style="stroke-width:.53;stroke:#ebebeb;stroke-linecap:butt"/><polyline points="186.97 86.85 340 86.85" clip-path="url(#cpMTg2Ljk3fDM0MC4wMHwxNzMuMDZ8MjIuNjk=)" style="stroke-width:.53;stroke:#ebebeb;stroke-linecap:butt"/><polyline points="186.97 42.75 340 42.75" clip-path="url(#cpMTg2Ljk3fDM0MC4wMHwxNzMuMDZ8MjIuNjk=)" style="stroke-width:.53;stroke:#ebebeb;stroke-linecap:butt"/><polyline points="211.31 173.06 211.31 22.69" clip-path="url(#cpMTg2Ljk3fDM0MC4wMHwxNzMuMDZ8MjIuNjk=)" style="stroke-width:.53;stroke:#ebebeb;stroke-linecap:butt"/><polyline points="246.09 173.06 246.09 22.69" clip-path="url(#cpMTg2Ljk3fDM0MC4wMHwxNzMuMDZ8MjIuNjk=)" style="stroke-width:.53;stroke:#ebebeb;stroke-linecap:butt"/><polyline points="280.88 173.06 280.88 22.69" clip-path="url(#cpMTg2Ljk3fDM0MC4wMHwxNzMuMDZ8MjIuNjk=)" style="stroke-width:.53;stroke:#ebebeb;stroke-linecap:butt"/><polyline points="315.66 173.06 315.66 22.69" clip-path="url(#cpMTg2Ljk3fDM0MC4wMHwxNzMuMDZ8MjIuNjk=)" style="stroke-width:.53;stroke:#ebebeb;stroke-linecap:butt"/><polyline points="186.97 152.99 340 152.99" clip-path="url(#cpMTg2Ljk3fDM0MC4wMHwxNzMuMDZ8MjIuNjk=)" style="stroke-width:1.07;stroke:#ebebeb;stroke-linecap:butt"/><polyline points="186.97 108.9 340 108.9" clip-path="url(#cpMTg2Ljk3fDM0MC4wMHwxNzMuMDZ8MjIuNjk=)" style="stroke-width:1.07;stroke:#ebebeb;stroke-linecap:butt"/><polyline points="186.97 64.8 340 64.8" clip-path="url(#cpMTg2Ljk3fDM0MC4wMHwxNzMuMDZ8MjIuNjk=)" style="stroke-width:1.07;stroke:#ebebeb;stroke-linecap:butt"/><polyline points="193.92 173.06 193.92 22.69" clip-path="url(#cpMTg2Ljk3fDM0MC4wMHwxNzMuMDZ8MjIuNjk=)" style="stroke-width:1.07;stroke:#ebebeb;stroke-linecap:butt"/><polyline points="228.7 173.06 228.7 22.69" clip-path="url(#cpMTg2Ljk3fDM0MC4wMHwxNzMuMDZ8MjIuNjk=)" style="stroke-width:1.07;stroke:#ebebeb;stroke-linecap:butt"/><polyline points="263.48 173.06 263.48 22.69" clip-path="url(#cpMTg2Ljk3fDM0MC4wMHwxNzMuMDZ8MjIuNjk=)" style="stroke-width:1.07;stroke:#ebebeb;stroke-linecap:butt"/><polyline points="298.27 173.06 298.27 22.69" clip-path="url(#cpMTg2Ljk3fDM0MC4wMHwxNzMuMDZ8MjIuNjk=)" style="stroke-width:1.07;stroke:#ebebeb;stroke-linecap:butt"/><polyline points="333.05 173.06 333.05 22.69" clip-path="url(#cpMTg2Ljk3fDM0MC4wMHwxNzMuMDZ8MjIuNjk=)" style="stroke-width:1.07;stroke:#ebebeb;stroke-linecap:butt"/><circle cx="193.92" cy="64.8" r="1.95" clip-path="url(#cpMTg2Ljk3fDM0MC4wMHwxNzMuMDZ8MjIuNjk=)" style="stroke-width:.71;stroke:#f50;fill:#f50"/><circle cx="208.19" cy="55.98" r="1.95" clip-path="url(#cpMTg2Ljk3fDM0MC4wMHwxNzMuMDZ8MjIuNjk=)" style="stroke-width:.71;stroke:#f50;fill:#f50"/><circle cx="226.03" cy="130.94" r="1.95" clip-path="url(#cpMTg2Ljk3fDM0MC4wMHwxNzMuMDZ8MjIuNjk=)" style="stroke-width:.71;stroke:#f50;fill:#f50"/><circle cx="244.76" cy="126.54" r="1.95" clip-path="url(#cpMTg2Ljk3fDM0MC4wMHwxNzMuMDZ8MjIuNjk=)" style="stroke-width:.71;stroke:#f50;fill:#f50"/><circle cx="244.76" cy="117.72" r="1.95" clip-path="url(#cpMTg2Ljk3fDM0MC4wMHwxNzMuMDZ8MjIuNjk=)" style="stroke-width:.71;stroke:#f50;fill:#f50"/><circle cx="244.76" cy="135.35" r="1.95" clip-path="url(#cpMTg2Ljk3fDM0MC4wMHwxNzMuMDZ8MjIuNjk=)" style="stroke-width:.71;stroke:#f50;fill:#f50"/><circle cx="257.24" cy="100.08" r="1.95" clip-path="url(#cpMTg2Ljk3fDM0MC4wMHwxNzMuMDZ8MjIuNjk=)" style="stroke-width:.71;stroke:#f50;fill:#f50"/><circle cx="257.24" cy="135.35" r="1.95" clip-path="url(#cpMTg2Ljk3fDM0MC4wMHwxNzMuMDZ8MjIuNjk=)" style="stroke-width:.71;stroke:#f50;fill:#f50"/><circle cx="257.24" cy="126.54" r="1.95" clip-path="url(#cpMTg2Ljk3fDM0MC4wMHwxNzMuMDZ8MjIuNjk=)" style="stroke-width:.71;stroke:#f50;fill:#f50"/><circle cx="274.19" cy="29.52" r="1.95" clip-path="url(#cpMTg2Ljk3fDM0MC4wMHwxNzMuMDZ8MjIuNjk=)" style="stroke-width:.71;stroke:#f50;fill:#f50"/><circle cx="274.19" cy="113.31" r="1.95" clip-path="url(#cpMTg2Ljk3fDM0MC4wMHwxNzMuMDZ8MjIuNjk=)" style="stroke-width:.71;stroke:#f50;fill:#f50"/><circle cx="274.19" cy="73.62" r="1.95" clip-path="url(#cpMTg2Ljk3fDM0MC4wMHwxNzMuMDZ8MjIuNjk=)" style="stroke-width:.71;stroke:#f50;fill:#f50"/><circle cx="274.19" cy="108.9" r="1.95" clip-path="url(#cpMTg2Ljk3fDM0MC4wMHwxNzMuMDZ8MjIuNjk=)" style="stroke-width:.71;stroke:#f50;fill:#f50"/><circle cx="274.19" cy="122.13" r="1.95" clip-path="url(#cpMTg2Ljk3fDM0MC4wMHwxNzMuMDZ8MjIuNjk=)" style="stroke-width:.71;stroke:#f50;fill:#f50"/><circle cx="284" cy="104.49" r="1.95" clip-path="url(#cpMTg2Ljk3fDM0MC4wMHwxNzMuMDZ8MjIuNjk=)" style="stroke-width:.71;stroke:#f50;fill:#f50"/><circle cx="284" cy="95.67" r="1.95" clip-path="url(#cpMTg2Ljk3fDM0MC4wMHwxNzMuMDZ8MjIuNjk=)" style="stroke-width:.71;stroke:#f50;fill:#f50"/><circle cx="315.21" cy="108.9" r="1.95" clip-path="url(#cpMTg2Ljk3fDM0MC4wMHwxNzMuMDZ8MjIuNjk=)" style="stroke-width:.71;stroke:#f50;fill:#f50"/><circle cx="333.05" cy="117.72" r="1.95" clip-path="url(#cpMTg2Ljk3fDM0MC4wMHwxNzMuMDZ8MjIuNjk=)" style="stroke-width:.71;stroke:#f50;fill:#f50"/><circle cx="333.05" cy="166.22" r="1.95" clip-path="url(#cpMTg2Ljk3fDM0MC4wMHwxNzMuMDZ8MjIuNjk=)" style="stroke-width:.71;stroke:#f50;fill:#f50"/><polyline points="193.92 72.19 195.31 73.64 196.7 75.09 198.1 76.54 199.49 77.99 200.88 79.42 202.27 80.86 203.66 82.28 205.05 83.69 206.44 85.1 207.83 86.49 209.23 87.87 210.62 89.24 212.01 90.6 213.4 91.94 214.79 93.25 216.18 94.55 217.57 95.82 218.96 97.05 220.36 98.25 221.75 99.41 223.14 100.53 224.53 101.6 225.92 102.62 227.31 103.59 228.7 104.5 230.09 105.36 231.49 106.15 232.88 106.88 234.27 107.54 235.66 108.14 237.05 108.68 238.44 109.15 239.83 109.55 241.22 109.88 242.62 110.14 244.01 110.34 245.4 110.46 246.79 110.51 248.18 110.5 249.57 110.42 250.96 110.29 252.35 110.1 253.75 109.86 255.14 109.59 256.53 109.28 257.92 108.94 259.31 108.58 260.7 108.2 262.09 107.8 263.48 107.41 264.88 107.01 266.27 106.62 267.66 106.24 269.05 105.87 270.44 105.52 271.83 105.2 273.22 104.9 274.61 104.64 276.01 104.42 277.4 104.24 278.79 104.11 280.18 104.03 281.57 104.02 282.96 104.06 284.35 104.17 285.74 104.33 287.14 104.54 288.53 104.81 289.92 105.13 291.31 105.5 292.7 105.91 294.09 106.37 295.48 106.87 296.87 107.41 298.27 107.99 299.66 108.62 301.05 109.27 302.44 109.97 303.83 110.7 305.22 111.46 306.61 112.26 308 113.08 309.4 113.94 310.79 114.82 312.18 115.74 313.57 116.68 314.96 117.65 316.35 118.65 317.74 119.67 319.13 120.71 320.53 121.77 321.92 122.86 323.31 123.95 324.7 125.06 326.09 126.18 327.48 127.31 328.87 128.45 330.26 129.59 331.66 130.74 333.05 131.89" clip-path="url(#cpMTg2Ljk3fDM0MC4wMHwxNzMuMDZ8MjIuNjk=)" style="stroke-width:1.07;stroke:#0af;stroke-linecap:butt"/><defs><clipPath id="cpMC4wMHw1MDQuMDB8Mzc4LjAwfDAuMDA="><rect width="504" height="378" x="0" y="0"/></clipPath></defs><defs><clipPath id="cpMTg2Ljk3fDM0MC4wMHwzNDYuMTF8MTk1Ljc1"><rect width="153.04" height="150.37" x="186.97" y="195.75"/></clipPath></defs><polyline points="186.97 304 340 304" clip-path="url(#cpMTg2Ljk3fDM0MC4wMHwzNDYuMTF8MTk1Ljc1)" style="stroke-width:.53;stroke:#ebebeb;stroke-linecap:butt"/><polyline points="186.97 259.91 340 259.91" clip-path="url(#cpMTg2Ljk3fDM0MC4wMHwzNDYuMTF8MTk1Ljc1)" style="stroke-width:.53;stroke:#ebebeb;stroke-linecap:butt"/><polyline points="186.97 215.81 340 215.81" clip-path="url(#cpMTg2Ljk3fDM0MC4wMHwzNDYuMTF8MTk1Ljc1)" style="stroke-width:.53;stroke:#ebebeb;stroke-linecap:butt"/><polyline points="211.31 346.11 211.31 195.75" clip-path="url(#cpMTg2Ljk3fDM0MC4wMHwzNDYuMTF8MTk1Ljc1)" style="stroke-width:.53;stroke:#ebebeb;stroke-linecap:butt"/><polyline points="246.09 346.11 246.09 195.75" clip-path="url(#cpMTg2Ljk3fDM0MC4wMHwzNDYuMTF8MTk1Ljc1)" style="stroke-width:.53;stroke:#ebebeb;stroke-linecap:butt"/><polyline points="280.88 346.11 280.88 195.75" clip-path="url(#cpMTg2Ljk3fDM0MC4wMHwzNDYuMTF8MTk1Ljc1)" style="stroke-width:.53;stroke:#ebebeb;stroke-linecap:butt"/><polyline points="315.66 346.11 315.66 195.75" clip-path="url(#cpMTg2Ljk3fDM0MC4wMHwzNDYuMTF8MTk1Ljc1)" style="stroke-width:.53;stroke:#ebebeb;stroke-linecap:butt"/><polyline points="186.97 326.05 340 326.05" clip-path="url(#cpMTg2Ljk3fDM0MC4wMHwzNDYuMTF8MTk1Ljc1)" style="stroke-width:1.07;stroke:#ebebeb;stroke-linecap:butt"/><polyline points="186.97 281.95 340 281.95" clip-path="url(#cpMTg2Ljk3fDM0MC4wMHwzNDYuMTF8MTk1Ljc1)" style="stroke-width:1.07;stroke:#ebebeb;stroke-linecap:butt"/><polyline points="186.97 237.86 340 237.86" clip-path="url(#cpMTg2Ljk3fDM0MC4wMHwzNDYuMTF8MTk1Ljc1)" style="stroke-width:1.07;stroke:#ebebeb;stroke-linecap:butt"/><polyline points="193.92 346.11 193.92 195.75" clip-path="url(#cpMTg2Ljk3fDM0MC4wMHwzNDYuMTF8MTk1Ljc1)" style="stroke-width:1.07;stroke:#ebebeb;stroke-linecap:butt"/><polyline points="228.7 346.11 228.7 195.75" clip-path="url(#cpMTg2Ljk3fDM0MC4wMHwzNDYuMTF8MTk1Ljc1)" style="stroke-width:1.07;stroke:#ebebeb;stroke-linecap:butt"/><polyline points="263.48 346.11 263.48 195.75" clip-path="url(#cpMTg2Ljk3fDM0MC4wMHwzNDYuMTF8MTk1Ljc1)" style="stroke-width:1.07;stroke:#ebebeb;stroke-linecap:butt"/><polyline points="298.27 346.11 298.27 195.75" clip-path="url(#cpMTg2Ljk3fDM0MC4wMHwzNDYuMTF8MTk1Ljc1)" style="stroke-width:1.07;stroke:#ebebeb;stroke-linecap:butt"/><polyline points="333.05 346.11 333.05 195.75" clip-path="url(#cpMTg2Ljk3fDM0MC4wMHwzNDYuMTF8MTk1Ljc1)" style="stroke-width:1.07;stroke:#ebebeb;stroke-linecap:butt"/><circle cx="193.92" cy="237.86" r="1.95" clip-path="url(#cpMTg2Ljk3fDM0MC4wMHwzNDYuMTF8MTk1Ljc1)" style="stroke-width:.71;stroke:#f50;fill:#f50"/><circle cx="208.19" cy="229.04" r="1.95" clip-path="url(#cpMTg2Ljk3fDM0MC4wMHwzNDYuMTF8MTk1Ljc1)" style="stroke-width:.71;stroke:#f50;fill:#f50"/><circle cx="226.03" cy="304" r="1.95" clip-path="url(#cpMTg2Ljk3fDM0MC4wMHwzNDYuMTF8MTk1Ljc1)" style="stroke-width:.71;stroke:#f50;fill:#f50"/><circle cx="244.76" cy="299.59" r="1.95" clip-path="url(#cpMTg2Ljk3fDM0MC4wMHwzNDYuMTF8MTk1Ljc1)" style="stroke-width:.71;stroke:#f50;fill:#f50"/><circle cx="244.76" cy="290.77" r="1.95" clip-path="url(#cpMTg2Ljk3fDM0MC4wMHwzNDYuMTF8MTk1Ljc1)" style="stroke-width:.71;stroke:#f50;fill:#f50"/><circle cx="244.76" cy="308.41" r="1.95" clip-path="url(#cpMTg2Ljk3fDM0MC4wMHwzNDYuMTF8MTk1Ljc1)" style="stroke-width:.71;stroke:#f50;fill:#f50"/><circle cx="257.24" cy="273.13" r="1.95" clip-path="url(#cpMTg2Ljk3fDM0MC4wMHwzNDYuMTF8MTk1Ljc1)" style="stroke-width:.71;stroke:#f50;fill:#f50"/><circle cx="257.24" cy="308.41" r="1.95" clip-path="url(#cpMTg2Ljk3fDM0MC4wMHwzNDYuMTF8MTk1Ljc1)" style="stroke-width:.71;stroke:#f50;fill:#f50"/><circle cx="257.24" cy="299.59" r="1.95" clip-path="url(#cpMTg2Ljk3fDM0MC4wMHwzNDYuMTF8MTk1Ljc1)" style="stroke-width:.71;stroke:#f50;fill:#f50"/><circle cx="274.19" cy="202.58" r="1.95" clip-path="url(#cpMTg2Ljk3fDM0MC4wMHwzNDYuMTF8MTk1Ljc1)" style="stroke-width:.71;stroke:#f50;fill:#f50"/><circle cx="274.19" cy="286.36" r="1.95" clip-path="url(#cpMTg2Ljk3fDM0MC4wMHwzNDYuMTF8MTk1Ljc1)" style="stroke-width:.71;stroke:#f50;fill:#f50"/><circle cx="274.19" cy="246.68" r="1.95" clip-path="url(#cpMTg2Ljk3fDM0MC4wMHwzNDYuMTF8MTk1Ljc1)" style="stroke-width:.71;stroke:#f50;fill:#f50"/><circle cx="274.19" cy="281.95" r="1.95" clip-path="url(#cpMTg2Ljk3fDM0MC4wMHwzNDYuMTF8MTk1Ljc1)" style="stroke-width:.71;stroke:#f50;fill:#f50"/><circle cx="274.19" cy="295.18" r="1.95" clip-path="url(#cpMTg2Ljk3fDM0MC4wMHwzNDYuMTF8MTk1Ljc1)" style="stroke-width:.71;stroke:#f50;fill:#f50"/><circle cx="284" cy="277.54" r="1.95" clip-path="url(#cpMTg2Ljk3fDM0MC4wMHwzNDYuMTF8MTk1Ljc1)" style="stroke-width:.71;stroke:#f50;fill:#f50"/><circle cx="284" cy="268.72" r="1.95" clip-path="url(#cpMTg2Ljk3fDM0MC4wMHwzNDYuMTF8MTk1Ljc1)" style="stroke-width:.71;stroke:#f50;fill:#f50"/><circle cx="315.21" cy="281.95" r="1.95" clip-path="url(#cpMTg2Ljk3fDM0MC4wMHwzNDYuMTF8MTk1Ljc1)" style="stroke-width:.71;stroke:#f50;fill:#f50"/><circle cx="333.05" cy="290.77" r="1.95" clip-path="url(#cpMTg2Ljk3fDM0MC4wMHwzNDYuMTF8MTk1Ljc1)" style="stroke-width:.71;stroke:#f50;fill:#f50"/><circle cx="333.05" cy="339.28" r="1.95" clip-path="url(#cpMTg2Ljk3fDM0MC4wMHwzNDYuMTF8MTk1Ljc1)" style="stroke-width:.71;stroke:#f50;fill:#f50"/><polyline points="193.92 236.53 195.31 235.44 196.7 234.37 198.1 233.33 199.49 232.37 200.88 231.54 202.27 230.9 203.66 230.54 205.05 230.55 206.44 231.03 207.83 232.11 209.23 233.93 210.62 236.63 212.01 240.36 213.4 245.1 214.79 250.61 216.18 256.69 217.57 263.12 218.96 269.72 220.36 276.31 221.75 282.73 223.14 288.83 224.53 294.47 225.92 299.53 227.31 303.91 228.7 307.52 230.09 310.28 231.49 312.2 232.88 313.33 234.27 313.71 235.66 313.41 237.05 312.52 238.44 311.12 239.83 309.31 241.22 307.23 242.62 305 244.01 302.77 245.4 300.71 246.79 298.98 248.18 297.61 249.57 296.48 250.96 295.51 252.35 294.58 253.75 293.64 255.14 292.6 256.53 291.44 257.92 290.09 259.31 288.56 260.7 286.82 262.09 284.88 263.48 282.77 264.88 280.51 266.27 278.12 267.66 275.65 269.05 273.14 270.44 270.67 271.83 268.3 273.22 266.13 274.61 264.26 276.01 262.82 277.4 261.94 278.79 261.76 280.18 262.44 281.57 264.15 282.96 266.87 284.35 270.35 285.74 274.39 287.14 278.78 288.53 283.32 289.92 287.84 291.31 292.16 292.7 296.14 294.09 299.63 295.48 302.52 296.87 304.69 298.27 306.05 299.66 306.53 301.05 306.19 302.44 305.11 303.83 303.4 305.22 301.17 306.61 298.55 308 295.68 309.4 292.73 310.79 289.85 312.18 287.24 313.57 285.08 314.96 283.61 316.35 283.02 317.74 283.36 319.13 284.48 320.53 286.24 321.92 288.52 323.31 291.2 324.7 294.19 326.09 297.4 327.48 300.76 328.87 304.21 330.26 307.71 331.66 311.23 333.05 314.75" clip-path="url(#cpMTg2Ljk3fDM0MC4wMHwzNDYuMTF8MTk1Ljc1)" style="stroke-width:1.07;stroke:#0af;stroke-linecap:butt"/><defs><clipPath id="cpMC4wMHw1MDQuMDB8Mzc4LjAwfDAuMDA="><rect width="504" height="378" x="0" y="0"/></clipPath></defs><defs><clipPath id="cpMzQ1LjQ4fDQ5OC41MnwxNzMuMDZ8MjIuNjk="><rect width="153.04" height="150.37" x="345.48" y="22.69"/></clipPath></defs><polyline points="345.48 130.94 498.52 130.94" clip-path="url(#cpMzQ1LjQ4fDQ5OC41MnwxNzMuMDZ8MjIuNjk=)" style="stroke-width:.53;stroke:#ebebeb;stroke-linecap:butt"/><polyline points="345.48 86.85 498.52 86.85" clip-path="url(#cpMzQ1LjQ4fDQ5OC41MnwxNzMuMDZ8MjIuNjk=)" style="stroke-width:.53;stroke:#ebebeb;stroke-linecap:butt"/><polyline points="345.48 42.75 498.52 42.75" clip-path="url(#cpMzQ1LjQ4fDQ5OC41MnwxNzMuMDZ8MjIuNjk=)" style="stroke-width:.53;stroke:#ebebeb;stroke-linecap:butt"/><polyline points="369.83 173.06 369.83 22.69" clip-path="url(#cpMzQ1LjQ4fDQ5OC41MnwxNzMuMDZ8MjIuNjk=)" style="stroke-width:.53;stroke:#ebebeb;stroke-linecap:butt"/><polyline points="404.61 173.06 404.61 22.69" clip-path="url(#cpMzQ1LjQ4fDQ5OC41MnwxNzMuMDZ8MjIuNjk=)" style="stroke-width:.53;stroke:#ebebeb;stroke-linecap:butt"/><polyline points="439.39 173.06 439.39 22.69" clip-path="url(#cpMzQ1LjQ4fDQ5OC41MnwxNzMuMDZ8MjIuNjk=)" style="stroke-width:.53;stroke:#ebebeb;stroke-linecap:butt"/><polyline points="474.17 173.06 474.17 22.69" clip-path="url(#cpMzQ1LjQ4fDQ5OC41MnwxNzMuMDZ8MjIuNjk=)" style="stroke-width:.53;stroke:#ebebeb;stroke-linecap:butt"/><polyline points="345.48 152.99 498.52 152.99" clip-path="url(#cpMzQ1LjQ4fDQ5OC41MnwxNzMuMDZ8MjIuNjk=)" style="stroke-width:1.07;stroke:#ebebeb;stroke-linecap:butt"/><polyline points="345.48 108.9 498.52 108.9" clip-path="url(#cpMzQ1LjQ4fDQ5OC41MnwxNzMuMDZ8MjIuNjk=)" style="stroke-width:1.07;stroke:#ebebeb;stroke-linecap:butt"/><polyline points="345.48 64.8 498.52 64.8" clip-path="url(#cpMzQ1LjQ4fDQ5OC41MnwxNzMuMDZ8MjIuNjk=)" style="stroke-width:1.07;stroke:#ebebeb;stroke-linecap:butt"/><polyline points="352.44 173.06 352.44 22.69" clip-path="url(#cpMzQ1LjQ4fDQ5OC41MnwxNzMuMDZ8MjIuNjk=)" style="stroke-width:1.07;stroke:#ebebeb;stroke-linecap:butt"/><polyline points="387.22 173.06 387.22 22.69" clip-path="url(#cpMzQ1LjQ4fDQ5OC41MnwxNzMuMDZ8MjIuNjk=)" style="stroke-width:1.07;stroke:#ebebeb;stroke-linecap:butt"/><polyline points="422 173.06 422 22.69" clip-path="url(#cpMzQ1LjQ4fDQ5OC41MnwxNzMuMDZ8MjIuNjk=)" style="stroke-width:1.07;stroke:#ebebeb;stroke-linecap:butt"/><polyline points="456.78 173.06 456.78 22.69" clip-path="url(#cpMzQ1LjQ4fDQ5OC41MnwxNzMuMDZ8MjIuNjk=)" style="stroke-width:1.07;stroke:#ebebeb;stroke-linecap:butt"/><polyline points="491.56 173.06 491.56 22.69" clip-path="url(#cpMzQ1LjQ4fDQ5OC41MnwxNzMuMDZ8MjIuNjk=)" style="stroke-width:1.07;stroke:#ebebeb;stroke-linecap:butt"/><circle cx="352.44" cy="64.8" r="1.95" clip-path="url(#cpMzQ1LjQ4fDQ5OC41MnwxNzMuMDZ8MjIuNjk=)" style="stroke-width:.71;stroke:#f50;fill:#f50"/><circle cx="366.71" cy="55.98" r="1.95" clip-path="url(#cpMzQ1LjQ4fDQ5OC41MnwxNzMuMDZ8MjIuNjk=)" style="stroke-width:.71;stroke:#f50;fill:#f50"/><circle cx="384.54" cy="130.94" r="1.95" clip-path="url(#cpMzQ1LjQ4fDQ5OC41MnwxNzMuMDZ8MjIuNjk=)" style="stroke-width:.71;stroke:#f50;fill:#f50"/><circle cx="403.27" cy="126.54" r="1.95" clip-path="url(#cpMzQ1LjQ4fDQ5OC41MnwxNzMuMDZ8MjIuNjk=)" style="stroke-width:.71;stroke:#f50;fill:#f50"/><circle cx="403.27" cy="117.72" r="1.95" clip-path="url(#cpMzQ1LjQ4fDQ5OC41MnwxNzMuMDZ8MjIuNjk=)" style="stroke-width:.71;stroke:#f50;fill:#f50"/><circle cx="403.27" cy="135.35" r="1.95" clip-path="url(#cpMzQ1LjQ4fDQ5OC41MnwxNzMuMDZ8MjIuNjk=)" style="stroke-width:.71;stroke:#f50;fill:#f50"/><circle cx="415.76" cy="100.08" r="1.95" clip-path="url(#cpMzQ1LjQ4fDQ5OC41MnwxNzMuMDZ8MjIuNjk=)" style="stroke-width:.71;stroke:#f50;fill:#f50"/><circle cx="415.76" cy="135.35" r="1.95" clip-path="url(#cpMzQ1LjQ4fDQ5OC41MnwxNzMuMDZ8MjIuNjk=)" style="stroke-width:.71;stroke:#f50;fill:#f50"/><circle cx="415.76" cy="126.54" r="1.95" clip-path="url(#cpMzQ1LjQ4fDQ5OC41MnwxNzMuMDZ8MjIuNjk=)" style="stroke-width:.71;stroke:#f50;fill:#f50"/><circle cx="432.7" cy="29.52" r="1.95" clip-path="url(#cpMzQ1LjQ4fDQ5OC41MnwxNzMuMDZ8MjIuNjk=)" style="stroke-width:.71;stroke:#f50;fill:#f50"/><circle cx="432.7" cy="113.31" r="1.95" clip-path="url(#cpMzQ1LjQ4fDQ5OC41MnwxNzMuMDZ8MjIuNjk=)" style="stroke-width:.71;stroke:#f50;fill:#f50"/><circle cx="432.7" cy="73.62" r="1.95" clip-path="url(#cpMzQ1LjQ4fDQ5OC41MnwxNzMuMDZ8MjIuNjk=)" style="stroke-width:.71;stroke:#f50;fill:#f50"/><circle cx="432.7" cy="108.9" r="1.95" clip-path="url(#cpMzQ1LjQ4fDQ5OC41MnwxNzMuMDZ8MjIuNjk=)" style="stroke-width:.71;stroke:#f50;fill:#f50"/><circle cx="432.7" cy="122.13" r="1.95" clip-path="url(#cpMzQ1LjQ4fDQ5OC41MnwxNzMuMDZ8MjIuNjk=)" style="stroke-width:.71;stroke:#f50;fill:#f50"/><circle cx="442.51" cy="104.49" r="1.95" clip-path="url(#cpMzQ1LjQ4fDQ5OC41MnwxNzMuMDZ8MjIuNjk=)" style="stroke-width:.71;stroke:#f50;fill:#f50"/><circle cx="442.51" cy="95.67" r="1.95" clip-path="url(#cpMzQ1LjQ4fDQ5OC41MnwxNzMuMDZ8MjIuNjk=)" style="stroke-width:.71;stroke:#f50;fill:#f50"/><circle cx="473.73" cy="108.9" r="1.95" clip-path="url(#cpMzQ1LjQ4fDQ5OC41MnwxNzMuMDZ8MjIuNjk=)" style="stroke-width:.71;stroke:#f50;fill:#f50"/><circle cx="491.56" cy="117.72" r="1.95" clip-path="url(#cpMzQ1LjQ4fDQ5OC41MnwxNzMuMDZ8MjIuNjk=)" style="stroke-width:.71;stroke:#f50;fill:#f50"/><circle cx="491.56" cy="166.22" r="1.95" clip-path="url(#cpMzQ1LjQ4fDQ5OC41MnwxNzMuMDZ8MjIuNjk=)" style="stroke-width:.71;stroke:#f50;fill:#f50"/><polyline points="352.44 57.64 353.83 59.96 355.22 62.27 356.61 64.58 358 66.89 359.4 69.21 360.79 71.53 362.18 73.86 363.57 76.21 364.96 78.58 366.35 80.97 367.74 83.4 369.13 85.87 370.53 88.39 371.92 90.96 373.31 93.55 374.7 96.14 376.09 98.71 377.48 101.24 378.87 103.72 380.26 106.12 381.66 108.42 383.05 110.62 384.44 112.69 385.83 114.62 387.22 116.39 388.61 118.01 390 119.45 391.39 120.72 392.79 121.8 394.18 122.71 395.57 123.43 396.96 123.96 398.35 124.32 399.74 124.48 401.13 124.46 402.52 124.27 403.92 123.89 405.31 123.34 406.7 122.63 408.09 121.76 409.48 120.76 410.87 119.62 412.26 118.38 413.65 117.03 415.05 115.6 416.44 114.11 417.83 112.57 419.22 111 420.61 109.42 422 107.86 423.39 106.32 424.78 104.82 426.18 103.36 427.57 101.96 428.96 100.62 430.35 99.35 431.74 98.16 433.13 97.05 434.52 96.06 435.91 95.17 437.31 94.42 438.7 93.81 440.09 93.36 441.48 93.07 442.87 92.93 444.26 92.92 445.65 93.05 447.04 93.29 448.44 93.64 449.83 94.09 451.22 94.64 452.61 95.27 454 95.99 455.39 96.79 456.78 97.67 458.17 98.62 459.57 99.63 460.96 100.72 462.35 101.87 463.74 103.08 465.13 104.35 466.52 105.68 467.91 107.07 469.3 108.52 470.7 110.04 472.09 111.63 473.48 113.29 474.87 115.03 476.26 116.85 477.65 118.73 479.04 120.66 480.43 122.64 481.83 124.65 483.22 126.7 484.61 128.76 486 130.84 487.39 132.93 488.78 135.03 490.17 137.14 491.56 139.24" clip-path="url(#cpMzQ1LjQ4fDQ5OC41MnwxNzMuMDZ8MjIuNjk=)" style="stroke-width:1.07;stroke:#0af;stroke-linecap:butt"/><defs><clipPath id="cpMC4wMHw1MDQuMDB8Mzc4LjAwfDAuMDA="><rect width="504" height="378" x="0" y="0"/></clipPath></defs><defs><clipPath id="cpMzQ1LjQ4fDQ5OC41MnwzNDYuMTF8MTk1Ljc1"><rect width="153.04" height="150.37" x="345.48" y="195.75"/></clipPath></defs><polyline points="345.48 304 498.52 304" clip-path="url(#cpMzQ1LjQ4fDQ5OC41MnwzNDYuMTF8MTk1Ljc1)" style="stroke-width:.53;stroke:#ebebeb;stroke-linecap:butt"/><polyline points="345.48 259.91 498.52 259.91" clip-path="url(#cpMzQ1LjQ4fDQ5OC41MnwzNDYuMTF8MTk1Ljc1)" style="stroke-width:.53;stroke:#ebebeb;stroke-linecap:butt"/><polyline points="345.48 215.81 498.52 215.81" clip-path="url(#cpMzQ1LjQ4fDQ5OC41MnwzNDYuMTF8MTk1Ljc1)" style="stroke-width:.53;stroke:#ebebeb;stroke-linecap:butt"/><polyline points="369.83 346.11 369.83 195.75" clip-path="url(#cpMzQ1LjQ4fDQ5OC41MnwzNDYuMTF8MTk1Ljc1)" style="stroke-width:.53;stroke:#ebebeb;stroke-linecap:butt"/><polyline points="404.61 346.11 404.61 195.75" clip-path="url(#cpMzQ1LjQ4fDQ5OC41MnwzNDYuMTF8MTk1Ljc1)" style="stroke-width:.53;stroke:#ebebeb;stroke-linecap:butt"/><polyline points="439.39 346.11 439.39 195.75" clip-path="url(#cpMzQ1LjQ4fDQ5OC41MnwzNDYuMTF8MTk1Ljc1)" style="stroke-width:.53;stroke:#ebebeb;stroke-linecap:butt"/><polyline points="474.17 346.11 474.17 195.75" clip-path="url(#cpMzQ1LjQ4fDQ5OC41MnwzNDYuMTF8MTk1Ljc1)" style="stroke-width:.53;stroke:#ebebeb;stroke-linecap:butt"/><polyline points="345.48 326.05 498.52 326.05" clip-path="url(#cpMzQ1LjQ4fDQ5OC41MnwzNDYuMTF8MTk1Ljc1)" style="stroke-width:1.07;stroke:#ebebeb;stroke-linecap:butt"/><polyline points="345.48 281.95 498.52 281.95" clip-path="url(#cpMzQ1LjQ4fDQ5OC41MnwzNDYuMTF8MTk1Ljc1)" style="stroke-width:1.07;stroke:#ebebeb;stroke-linecap:butt"/><polyline points="345.48 237.86 498.52 237.86" clip-path="url(#cpMzQ1LjQ4fDQ5OC41MnwzNDYuMTF8MTk1Ljc1)" style="stroke-width:1.07;stroke:#ebebeb;stroke-linecap:butt"/><polyline points="352.44 346.11 352.44 195.75" clip-path="url(#cpMzQ1LjQ4fDQ5OC41MnwzNDYuMTF8MTk1Ljc1)" style="stroke-width:1.07;stroke:#ebebeb;stroke-linecap:butt"/><polyline points="387.22 346.11 387.22 195.75" clip-path="url(#cpMzQ1LjQ4fDQ5OC41MnwzNDYuMTF8MTk1Ljc1)" style="stroke-width:1.07;stroke:#ebebeb;stroke-linecap:butt"/><polyline points="422 346.11 422 195.75" clip-path="url(#cpMzQ1LjQ4fDQ5OC41MnwzNDYuMTF8MTk1Ljc1)" style="stroke-width:1.07;stroke:#ebebeb;stroke-linecap:butt"/><polyline points="456.78 346.11 456.78 195.75" clip-path="url(#cpMzQ1LjQ4fDQ5OC41MnwzNDYuMTF8MTk1Ljc1)" style="stroke-width:1.07;stroke:#ebebeb;stroke-linecap:butt"/><polyline points="491.56 346.11 491.56 195.75" clip-path="url(#cpMzQ1LjQ4fDQ5OC41MnwzNDYuMTF8MTk1Ljc1)" style="stroke-width:1.07;stroke:#ebebeb;stroke-linecap:butt"/><circle cx="352.44" cy="237.86" r="1.95" clip-path="url(#cpMzQ1LjQ4fDQ5OC41MnwzNDYuMTF8MTk1Ljc1)" style="stroke-width:.71;stroke:#f50;fill:#f50"/><circle cx="366.71" cy="229.04" r="1.95" clip-path="url(#cpMzQ1LjQ4fDQ5OC41MnwzNDYuMTF8MTk1Ljc1)" style="stroke-width:.71;stroke:#f50;fill:#f50"/><circle cx="384.54" cy="304" r="1.95" clip-path="url(#cpMzQ1LjQ4fDQ5OC41MnwzNDYuMTF8MTk1Ljc1)" style="stroke-width:.71;stroke:#f50;fill:#f50"/><circle cx="403.27" cy="299.59" r="1.95" clip-path="url(#cpMzQ1LjQ4fDQ5OC41MnwzNDYuMTF8MTk1Ljc1)" style="stroke-width:.71;stroke:#f50;fill:#f50"/><circle cx="403.27" cy="290.77" r="1.95" clip-path="url(#cpMzQ1LjQ4fDQ5OC41MnwzNDYuMTF8MTk1Ljc1)" style="stroke-width:.71;stroke:#f50;fill:#f50"/><circle cx="403.27" cy="308.41" r="1.95" clip-path="url(#cpMzQ1LjQ4fDQ5OC41MnwzNDYuMTF8MTk1Ljc1)" style="stroke-width:.71;stroke:#f50;fill:#f50"/><circle cx="415.76" cy="273.13" r="1.95" clip-path="url(#cpMzQ1LjQ4fDQ5OC41MnwzNDYuMTF8MTk1Ljc1)" style="stroke-width:.71;stroke:#f50;fill:#f50"/><circle cx="415.76" cy="308.41" r="1.95" clip-path="url(#cpMzQ1LjQ4fDQ5OC41MnwzNDYuMTF8MTk1Ljc1)" style="stroke-width:.71;stroke:#f50;fill:#f50"/><circle cx="415.76" cy="299.59" r="1.95" clip-path="url(#cpMzQ1LjQ4fDQ5OC41MnwzNDYuMTF8MTk1Ljc1)" style="stroke-width:.71;stroke:#f50;fill:#f50"/><circle cx="432.7" cy="202.58" r="1.95" clip-path="url(#cpMzQ1LjQ4fDQ5OC41MnwzNDYuMTF8MTk1Ljc1)" style="stroke-width:.71;stroke:#f50;fill:#f50"/><circle cx="432.7" cy="286.36" r="1.95" clip-path="url(#cpMzQ1LjQ4fDQ5OC41MnwzNDYuMTF8MTk1Ljc1)" style="stroke-width:.71;stroke:#f50;fill:#f50"/><circle cx="432.7" cy="246.68" r="1.95" clip-path="url(#cpMzQ1LjQ4fDQ5OC41MnwzNDYuMTF8MTk1Ljc1)" style="stroke-width:.71;stroke:#f50;fill:#f50"/><circle cx="432.7" cy="281.95" r="1.95" clip-path="url(#cpMzQ1LjQ4fDQ5OC41MnwzNDYuMTF8MTk1Ljc1)" style="stroke-width:.71;stroke:#f50;fill:#f50"/><circle cx="432.7" cy="295.18" r="1.95" clip-path="url(#cpMzQ1LjQ4fDQ5OC41MnwzNDYuMTF8MTk1Ljc1)" style="stroke-width:.71;stroke:#f50;fill:#f50"/><circle cx="442.51" cy="277.54" r="1.95" clip-path="url(#cpMzQ1LjQ4fDQ5OC41MnwzNDYuMTF8MTk1Ljc1)" style="stroke-width:.71;stroke:#f50;fill:#f50"/><circle cx="442.51" cy="268.72" r="1.95" clip-path="url(#cpMzQ1LjQ4fDQ5OC41MnwzNDYuMTF8MTk1Ljc1)" style="stroke-width:.71;stroke:#f50;fill:#f50"/><circle cx="473.73" cy="281.95" r="1.95" clip-path="url(#cpMzQ1LjQ4fDQ5OC41MnwzNDYuMTF8MTk1Ljc1)" style="stroke-width:.71;stroke:#f50;fill:#f50"/><circle cx="491.56" cy="290.77" r="1.95" clip-path="url(#cpMzQ1LjQ4fDQ5OC41MnwzNDYuMTF8MTk1Ljc1)" style="stroke-width:.71;stroke:#f50;fill:#f50"/><circle cx="491.56" cy="339.28" r="1.95" clip-path="url(#cpMzQ1LjQ4fDQ5OC41MnwzNDYuMTF8MTk1Ljc1)" style="stroke-width:.71;stroke:#f50;fill:#f50"/><polyline points="352.44 237.69 353.83 236.17 355.22 234.66 356.61 233.17 358 231.74 359.4 230.44 360.79 229.34 362.18 228.54 363.57 228.15 364.96 228.29 366.35 229.13 367.74 230.84 369.13 233.59 370.53 237.59 371.92 242.8 373.31 248.94 374.7 255.73 376.09 262.93 377.48 270.32 378.87 277.66 380.26 284.77 381.66 291.47 383.05 297.61 384.44 303.04 385.83 307.64 387.22 311.32 388.61 313.99 390 315.69 391.39 316.45 392.79 316.35 394.18 315.48 395.57 313.94 396.96 311.85 398.35 309.36 399.74 306.64 401.13 303.85 402.52 301.21 403.92 298.92 405.31 297.22 406.7 296.13 408.09 295.47 409.48 295.09 410.87 294.83 412.26 294.57 413.65 294.2 415.05 293.63 416.44 292.79 417.83 291.62 419.22 290.09 420.61 288.19 422 285.91 423.39 283.28 424.78 280.36 426.18 277.21 427.57 273.95 428.96 270.67 430.35 267.53 431.74 264.65 433.13 262.22 434.52 260.42 435.91 259.46 437.31 259.57 438.7 260.98 440.09 263.95 441.48 268.43 442.87 274.08 444.26 280.55 445.65 287.52 447.04 294.7 448.44 301.8 449.83 308.55 451.22 314.71 452.61 320.05 454 324.36 455.39 327.45 456.78 329.15 458.17 329.35 459.57 328.14 460.96 325.69 462.35 322.16 463.74 317.76 465.13 312.69 466.52 307.2 467.91 301.52 469.3 295.93 470.7 290.72 472.09 286.2 473.48 282.68 474.87 280.51 476.26 279.73 477.65 280.15 479.04 281.57 480.43 283.79 481.83 286.66 483.22 290.03 484.61 293.78 486 297.79 487.39 301.98 488.78 306.28 490.17 310.62 491.56 314.98" clip-path="url(#cpMzQ1LjQ4fDQ5OC41MnwzNDYuMTF8MTk1Ljc1)" style="stroke-width:1.07;stroke:#0af;stroke-linecap:butt"/><defs><clipPath id="cpMC4wMHw1MDQuMDB8Mzc4LjAwfDAuMDA="><rect width="504" height="378" x="0" y="0"/></clipPath></defs><defs><clipPath id="cpMjguNDV8MTgxLjQ5fDE5NS43NXwxNzguNTQ="><rect width="153.04" height="17.21" x="28.45" y="178.54"/></clipPath></defs><g clip-path="url(#cpMjguNDV8MTgxLjQ5fDE5NS43NXwxNzguNTQ=)"><text x="74.27" y="190.29" lengthAdjust="spacingAndGlyphs" textLength="61.4" style="font-size:8.8px;fill:#1a1a1a;font-family:Arial">lambda = 1e-04</text></g><defs><clipPath id="cpMC4wMHw1MDQuMDB8Mzc4LjAwfDAuMDA="><rect width="504" height="378" x="0" y="0"/></clipPath></defs><defs><clipPath id="cpMTg2Ljk3fDM0MC4wMHwxOTUuNzV8MTc4LjU0"><rect width="153.04" height="17.21" x="186.97" y="178.54"/></clipPath></defs><g clip-path="url(#cpMTg2Ljk3fDM0MC4wMHwxOTUuNzV8MTc4LjU0)"><text x="232.79" y="190.29" lengthAdjust="spacingAndGlyphs" textLength="61.4" style="font-size:8.8px;fill:#1a1a1a;font-family:Arial">lambda = 1e-05</text></g><defs><clipPath id="cpMC4wMHw1MDQuMDB8Mzc4LjAwfDAuMDA="><rect width="504" height="378" x="0" y="0"/></clipPath></defs><defs><clipPath id="cpMzQ1LjQ4fDQ5OC41MnwxOTUuNzV8MTc4LjU0"><rect width="153.04" height="17.21" x="345.48" y="178.54"/></clipPath></defs><g clip-path="url(#cpMzQ1LjQ4fDQ5OC41MnwxOTUuNzV8MTc4LjU0)"><text x="391.3" y="190.29" lengthAdjust="spacingAndGlyphs" textLength="61.4" style="font-size:8.8px;fill:#1a1a1a;font-family:Arial">lambda = 1e-06</text></g><defs><clipPath id="cpMC4wMHw1MDQuMDB8Mzc4LjAwfDAuMDA="><rect width="504" height="378" x="0" y="0"/></clipPath></defs><defs><clipPath id="cpMjguNDV8MTgxLjQ5fDIyLjY5fDUuNDg="><rect width="153.04" height="17.21" x="28.45" y="5.48"/></clipPath></defs><g clip-path="url(#cpMjguNDV8MTgxLjQ5fDIyLjY5fDUuNDg=)"><text x="79.41" y="17.23" lengthAdjust="spacingAndGlyphs" textLength="51.12" style="font-size:8.8px;fill:#1a1a1a;font-family:Arial">lambda = 0.1</text></g><defs><clipPath id="cpMC4wMHw1MDQuMDB8Mzc4LjAwfDAuMDA="><rect width="504" height="378" x="0" y="0"/></clipPath></defs><defs><clipPath id="cpMTg2Ljk3fDM0MC4wMHwyMi42OXw1LjQ4"><rect width="153.04" height="17.21" x="186.97" y="5.48"/></clipPath></defs><g clip-path="url(#cpMTg2Ljk3fDM0MC4wMHwyMi42OXw1LjQ4)"><text x="235.48" y="17.23" lengthAdjust="spacingAndGlyphs" textLength="56.02" style="font-size:8.8px;fill:#1a1a1a;font-family:Arial">lambda = 0.01</text></g><defs><clipPath id="cpMC4wMHw1MDQuMDB8Mzc4LjAwfDAuMDA="><rect width="504" height="378" x="0" y="0"/></clipPath></defs><defs><clipPath id="cpMzQ1LjQ4fDQ5OC41MnwyMi42OXw1LjQ4"><rect width="153.04" height="17.21" x="345.48" y="5.48"/></clipPath></defs><g clip-path="url(#cpMzQ1LjQ4fDQ5OC41MnwyMi42OXw1LjQ4)"><text x="391.55" y="17.23" lengthAdjust="spacingAndGlyphs" textLength="60.91" style="font-size:8.8px;fill:#1a1a1a;font-family:Arial">lambda = 0.001</text></g><defs><clipPath id="cpMC4wMHw1MDQuMDB8Mzc4LjAwfDAuMDA="><rect width="504" height="378" x="0" y="0"/></clipPath></defs><g clip-path="url(#cpMC4wMHw1MDQuMDB8Mzc4LjAwfDAuMDA=)"><text x="26.84" y="357.34" lengthAdjust="spacingAndGlyphs" textLength="17.13" style="font-size:8.8px;fill:#4d4d4d;font-family:Arial">0.00</text></g><g clip-path="url(#cpMC4wMHw1MDQuMDB8Mzc4LjAwfDAuMDA=)"><text x="61.62" y="357.34" lengthAdjust="spacingAndGlyphs" textLength="17.13" style="font-size:8.8px;fill:#4d4d4d;font-family:Arial">0.25</text></g><g clip-path="url(#cpMC4wMHw1MDQuMDB8Mzc4LjAwfDAuMDA=)"><text x="96.4" y="357.34" lengthAdjust="spacingAndGlyphs" textLength="17.13" style="font-size:8.8px;fill:#4d4d4d;font-family:Arial">0.50</text></g><g clip-path="url(#cpMC4wMHw1MDQuMDB8Mzc4LjAwfDAuMDA=)"><text x="131.19" y="357.34" lengthAdjust="spacingAndGlyphs" textLength="17.13" style="font-size:8.8px;fill:#4d4d4d;font-family:Arial">0.75</text></g><g clip-path="url(#cpMC4wMHw1MDQuMDB8Mzc4LjAwfDAuMDA=)"><text x="165.97" y="357.34" lengthAdjust="spacingAndGlyphs" textLength="17.13" style="font-size:8.8px;fill:#4d4d4d;font-family:Arial">1.00</text></g><g clip-path="url(#cpMC4wMHw1MDQuMDB8Mzc4LjAwfDAuMDA=)"><text x="185.36" y="357.34" lengthAdjust="spacingAndGlyphs" textLength="17.13" style="font-size:8.8px;fill:#4d4d4d;font-family:Arial">0.00</text></g><g clip-path="url(#cpMC4wMHw1MDQuMDB8Mzc4LjAwfDAuMDA=)"><text x="220.14" y="357.34" lengthAdjust="spacingAndGlyphs" textLength="17.13" style="font-size:8.8px;fill:#4d4d4d;font-family:Arial">0.25</text></g><g clip-path="url(#cpMC4wMHw1MDQuMDB8Mzc4LjAwfDAuMDA=)"><text x="254.92" y="357.34" lengthAdjust="spacingAndGlyphs" textLength="17.13" style="font-size:8.8px;fill:#4d4d4d;font-family:Arial">0.50</text></g><g clip-path="url(#cpMC4wMHw1MDQuMDB8Mzc4LjAwfDAuMDA=)"><text x="289.7" y="357.34" lengthAdjust="spacingAndGlyphs" textLength="17.13" style="font-size:8.8px;fill:#4d4d4d;font-family:Arial">0.75</text></g><g clip-path="url(#cpMC4wMHw1MDQuMDB8Mzc4LjAwfDAuMDA=)"><text x="324.48" y="357.34" lengthAdjust="spacingAndGlyphs" textLength="17.13" style="font-size:8.8px;fill:#4d4d4d;font-family:Arial">1.00</text></g><g clip-path="url(#cpMC4wMHw1MDQuMDB8Mzc4LjAwfDAuMDA=)"><text x="343.88" y="357.34" lengthAdjust="spacingAndGlyphs" textLength="17.13" style="font-size:8.8px;fill:#4d4d4d;font-family:Arial">0.00</text></g><g clip-path="url(#cpMC4wMHw1MDQuMDB8Mzc4LjAwfDAuMDA=)"><text x="378.66" y="357.34" lengthAdjust="spacingAndGlyphs" textLength="17.13" style="font-size:8.8px;fill:#4d4d4d;font-family:Arial">0.25</text></g><g clip-path="url(#cpMC4wMHw1MDQuMDB8Mzc4LjAwfDAuMDA=)"><text x="413.44" y="357.34" lengthAdjust="spacingAndGlyphs" textLength="17.13" style="font-size:8.8px;fill:#4d4d4d;font-family:Arial">0.50</text></g><g clip-path="url(#cpMC4wMHw1MDQuMDB8Mzc4LjAwfDAuMDA=)"><text x="448.22" y="357.34" lengthAdjust="spacingAndGlyphs" textLength="17.13" style="font-size:8.8px;fill:#4d4d4d;font-family:Arial">0.75</text></g><g clip-path="url(#cpMC4wMHw1MDQuMDB8Mzc4LjAwfDAuMDA=)"><text x="483" y="357.34" lengthAdjust="spacingAndGlyphs" textLength="17.13" style="font-size:8.8px;fill:#4d4d4d;font-family:Arial">1.00</text></g><g clip-path="url(#cpMC4wMHw1MDQuMDB8Mzc4LjAwfDAuMDA=)"><text x="18.62" y="156.14" lengthAdjust="spacingAndGlyphs" textLength="4.89" style="font-size:8.8px;fill:#4d4d4d;font-family:Arial">2</text></g><g clip-path="url(#cpMC4wMHw1MDQuMDB8Mzc4LjAwfDAuMDA=)"><text x="18.62" y="112.05" lengthAdjust="spacingAndGlyphs" textLength="4.89" style="font-size:8.8px;fill:#4d4d4d;font-family:Arial">3</text></g><g clip-path="url(#cpMC4wMHw1MDQuMDB8Mzc4LjAwfDAuMDA=)"><text x="18.62" y="67.95" lengthAdjust="spacingAndGlyphs" textLength="4.89" style="font-size:8.8px;fill:#4d4d4d;font-family:Arial">4</text></g><g clip-path="url(#cpMC4wMHw1MDQuMDB8Mzc4LjAwfDAuMDA=)"><text x="18.62" y="329.2" lengthAdjust="spacingAndGlyphs" textLength="4.89" style="font-size:8.8px;fill:#4d4d4d;font-family:Arial">2</text></g><g clip-path="url(#cpMC4wMHw1MDQuMDB8Mzc4LjAwfDAuMDA=)"><text x="18.62" y="285.1" lengthAdjust="spacingAndGlyphs" textLength="4.89" style="font-size:8.8px;fill:#4d4d4d;font-family:Arial">3</text></g><g clip-path="url(#cpMC4wMHw1MDQuMDB8Mzc4LjAwfDAuMDA=)"><text x="18.62" y="241.01" lengthAdjust="spacingAndGlyphs" textLength="4.89" style="font-size:8.8px;fill:#4d4d4d;font-family:Arial">4</text></g><g clip-path="url(#cpMC4wMHw1MDQuMDB8Mzc4LjAwfDAuMDA=)"><text x="260.73" y="370.1" lengthAdjust="spacingAndGlyphs" textLength="5.5" style="font-size:11px;font-family:Arial">x</text></g><g clip-path="url(#cpMC4wMHw1MDQuMDB8Mzc4LjAwfDAuMDA=)"><text style="font-size:11px;font-family:Arial" lengthAdjust="spacingAndGlyphs" textLength="23.84" transform="translate(13.35,196.32) rotate(-90)">wear</text></g></svg>