<svg xmlns="http://www.w3.org/2000/svg" xmlns:xlink="http://www.w3.org/1999/xlink" viewBox="0 0 504 378"><defs><style type="text/css">circle,polyline,rect{fill:none;stroke:#000;stroke-linecap:round;stroke-linejoin:round;stroke-miterlimit:10}</style></defs><rect width="100%" height="100%" style="stroke:none;fill:none"/><rect width="504" height="378" x="0" y="0" style="stroke-width:1.07;stroke:none"/><defs><clipPath id="cpNjQuODR8NDk4LjUyfDM0OS40NXw1LjQ4"><rect width="433.68" height="343.97" x="64.84" y="5.48"/></clipPath></defs><circle cx="428.26" cy="202.68" r="1.95" clip-path="url(#cpNjQuODR8NDk4LjUyfDM0OS40NXw1LjQ4)" style="stroke-width:.71;stroke:#f50;fill:#f50"/><circle cx="339.81" cy="192.59" r="1.95" clip-path="url(#cpNjQuODR8NDk4LjUyfDM0OS40NXw1LjQ4)" style="stroke-width:.71;stroke:#f50;fill:#f50"/><circle cx="312.01" cy="21.11" r="1.95" clip-path="url(#cpNjQuODR8NDk4LjUyfDM0OS40NXw1LjQ4)" style="stroke-width:.71;stroke:#f50;fill:#f50"/><circle cx="339.81" cy="172.42" r="1.95" clip-path="url(#cpNjQuODR8NDk4LjUyfDM0OS40NXw1LjQ4)" style="stroke-width:.71;stroke:#f50;fill:#f50"/><circle cx="478.81" cy="222.85" r="1.95" clip-path="url(#cpNjQuODR8NDk4LjUyfDM0OS40NXw1LjQ4)" style="stroke-width:.71;stroke:#f50;fill:#f50"/><circle cx="312.01" cy="212.77" r="1.95" clip-path="url(#cpNjQuODR8NDk4LjUyfDM0OS40NXw1LjQ4)" style="stroke-width:.71;stroke:#f50;fill:#f50"/><circle cx="312.01" cy="121.98" r="1.95" clip-path="url(#cpNjQuODR8NDk4LjUyfDM0OS40NXw1LjQ4)" style="stroke-width:.71;stroke:#f50;fill:#f50"/><circle cx="312.01" cy="202.68" r="1.95" clip-path="url(#cpNjQuODR8NDk4LjUyfDM0OS40NXw1LjQ4)" style="stroke-width:.71;stroke:#f50;fill:#f50"/><circle cx="312.01" cy="232.94" r="1.95" clip-path="url(#cpNjQuODR8NDk4LjUyfDM0OS40NXw1LjQ4)" style="stroke-width:.71;stroke:#f50;fill:#f50"/><circle cx="263.99" cy="182.51" r="1.95" clip-path="url(#cpNjQuODR8NDk4LjUyfDM0OS40NXw1LjQ4)" style="stroke-width:.71;stroke:#f50;fill:#f50"/><circle cx="263.99" cy="263.2" r="1.95" clip-path="url(#cpNjQuODR8NDk4LjUyfDM0OS40NXw1LjQ4)" style="stroke-width:.71;stroke:#f50;fill:#f50"/><circle cx="263.99" cy="243.03" r="1.95" clip-path="url(#cpNjQuODR8NDk4LjUyfDM0OS40NXw1LjQ4)" style="stroke-width:.71;stroke:#f50;fill:#f50"/><circle cx="478.81" cy="333.81" r="1.95" clip-path="url(#cpNjQuODR8NDk4LjUyfDM0OS40NXw1LjQ4)" style="stroke-width:.71;stroke:#f50;fill:#f50"/><circle cx="228.61" cy="243.03" r="1.95" clip-path="url(#cpNjQuODR8NDk4LjUyfDM0OS40NXw1LjQ4)" style="stroke-width:.71;stroke:#f50;fill:#f50"/><circle cx="228.61" cy="222.85" r="1.95" clip-path="url(#cpNjQuODR8NDk4LjUyfDM0OS40NXw1LjQ4)" style="stroke-width:.71;stroke:#f50;fill:#f50"/><circle cx="228.61" cy="263.2" r="1.95" clip-path="url(#cpNjQuODR8NDk4LjUyfDM0OS40NXw1LjQ4)" style="stroke-width:.71;stroke:#f50;fill:#f50"/><circle cx="175.53" cy="253.11" r="1.95" clip-path="url(#cpNjQuODR8NDk4LjUyfDM0OS40NXw1LjQ4)" style="stroke-width:.71;stroke:#f50;fill:#f50"/><circle cx="124.99" cy="81.64" r="1.95" clip-path="url(#cpNjQuODR8NDk4LjUyfDM0OS40NXw1LjQ4)" style="stroke-width:.71;stroke:#f50;fill:#f50"/><circle cx="84.55" cy="101.81" r="1.95" clip-path="url(#cpNjQuODR8NDk4LjUyfDM0OS40NXw1LjQ4)" style="stroke-width:.71;stroke:#f50;fill:#f50"/><polyline points="84.55 76.58 88.49 82.7 92.44 88.82 96.38 94.93 100.32 101.02 104.26 107.11 108.21 113.18 112.15 119.22 116.09 125.25 120.03 131.24 123.98 137.19 127.92 143.11 131.86 148.98 135.8 154.8 139.75 160.56 143.69 166.26 147.63 171.9 151.57 177.45 155.52 182.93 159.46 188.32 163.4 193.61 167.34 198.8 171.29 203.86 175.23 208.77 179.17 213.51 183.11 218.04 187.06 222.35 191 226.4 194.94 230.18 198.89 233.66 202.83 236.8 206.77 239.6 210.71 242.01 214.66 244.01 218.6 245.57 222.54 246.68 226.48 247.29 230.43 247.39 234.37 246.93 238.31 245.91 242.25 244.29 246.2 242.04 250.14 239.24 254.08 235.92 258.02 232.16 261.97 228.02 265.91 223.57 269.85 218.85 273.79 213.94 277.74 208.89 281.68 203.76 285.62 198.62 289.56 193.53 293.51 188.55 297.45 183.73 301.39 179.13 305.33 174.82 309.28 170.86 313.22 167.3 317.16 164.2 321.1 161.63 325.05 159.61 328.99 158.16 332.93 157.23 336.88 156.8 340.82 156.84 344.76 157.33 348.7 158.24 352.65 159.53 356.59 161.2 360.53 163.2 364.47 165.5 368.42 168.09 372.36 170.92 376.3 173.98 380.24 177.23 384.19 180.64 388.13 184.18 392.07 187.83 396.01 191.55 399.96 195.32 403.9 199.1 407.84 202.9 411.78 206.71 415.73 210.54 419.67 214.39 423.61 218.25 427.55 222.13 431.5 226.04 435.44 229.96 439.38 233.89 443.32 237.85 447.27 241.82 451.21 245.81 455.15 249.82 459.09 253.83 463.04 257.86 466.98 261.9 470.92 265.94 474.87 269.99 478.81 274.05" clip-path="url(#cpNjQuODR8NDk4LjUyfDM0OS40NXw1LjQ4)" style="stroke-width:1.07;stroke:#0af;stroke-linecap:butt"/><defs><clipPath id="cpMC4wMHw1MDQuMDB8Mzc4LjAwfDAuMDA="><rect width="504" height="378" x="0" y="0"/></clipPath></defs><g clip-path="url(#cpMC4wMHw1MDQuMDB8Mzc4LjAwfDAuMDA=)"><text x="54.57" y="306.99" lengthAdjust="spacingAndGlyphs" textLength="5.34" style="font-size:9.6px;fill:#4d4d4d;font-family:Arial">2</text></g><g clip-path="url(#cpMC4wMHw1MDQuMDB8Mzc4LjAwfDAuMDA=)"><text x="54.57" y="206.12" lengthAdjust="spacingAndGlyphs" textLength="5.34" style="font-size:9.6px;fill:#4d4d4d;font-family:Arial">3</text></g><g clip-path="url(#cpMC4wMHw1MDQuMDB8Mzc4LjAwfDAuMDA=)"><text x="54.57" y="105.25" lengthAdjust="spacingAndGlyphs" textLength="5.34" style="font-size:9.6px;fill:#4d4d4d;font-family:Arial">4</text></g><polyline points="62.1 303.55 64.84 303.55" clip-path="url(#cpMC4wMHw1MDQuMDB8Mzc4LjAwfDAuMDA=)" style="stroke-width:1.07;stroke:#333;stroke-linecap:butt"/><polyline points="62.1 202.68 64.84 202.68" clip-path="url(#cpMC4wMHw1MDQuMDB8Mzc4LjAwfDAuMDA=)" style="stroke-width:1.07;stroke:#333;stroke-linecap:butt"/><polyline points="62.1 101.81 64.84 101.81" clip-path="url(#cpMC4wMHw1MDQuMDB8Mzc4LjAwfDAuMDA=)" style="stroke-width:1.07;stroke:#333;stroke-linecap:butt"/><polyline points="84.55 352.19 84.55 349.45" clip-path="url(#cpMC4wMHw1MDQuMDB8Mzc4LjAwfDAuMDA=)" style="stroke-width:1.07;stroke:#333;stroke-linecap:butt"/><polyline points="183.11 352.19 183.11 349.45" clip-path="url(#cpMC4wMHw1MDQuMDB8Mzc4LjAwfDAuMDA=)" style="stroke-width:1.07;stroke:#333;stroke-linecap:butt"/><polyline points="281.68 352.19 281.68 349.45" clip-path="url(#cpMC4wMHw1MDQuMDB8Mzc4LjAwfDAuMDA=)" style="stroke-width:1.07;stroke:#333;stroke-linecap:butt"/><polyline points="380.24 352.19 380.24 349.45" clip-path="url(#cpMC4wMHw1MDQuMDB8Mzc4LjAwfDAuMDA=)" style="stroke-width:1.07;stroke:#333;stroke-linecap:butt"/><polyline points="478.81 352.19 478.81 349.45" clip-path="url(#cpMC4wMHw1MDQuMDB8Mzc4LjAwfDAuMDA=)" style="stroke-width:1.07;stroke:#333;stroke-linecap:butt"/><g clip-path="url(#cpMC4wMHw1MDQuMDB8Mzc4LjAwfDAuMDA=)"><text x="75.21" y="361.25" lengthAdjust="spacingAndGlyphs" textLength="18.68" style="font-size:9.6px;fill:#4d4d4d;font-family:Arial">0.00</text></g><g clip-path="url(#cpMC4wMHw1MDQuMDB8Mzc4LjAwfDAuMDA=)"><text x="173.77" y="361.25" lengthAdjust="spacingAndGlyphs" textLength="18.68" style="font-size:9.6px;fill:#4d4d4d;font-family:Arial">0.25</text></g><g clip-path="url(#cpMC4wMHw1MDQuMDB8Mzc4LjAwfDAuMDA=)"><text x="272.34" y="361.25" lengthAdjust="spacingAndGlyphs" textLength="18.68" style="font-size:9.6px;fill:#4d4d4d;font-family:Arial">0.50</text></g><g clip-path="url(#cpMC4wMHw1MDQuMDB8Mzc4LjAwfDAuMDA=)"><text x="370.9" y="361.25" lengthAdjust="spacingAndGlyphs" textLength="18.68" style="font-size:9.6px;fill:#4d4d4d;font-family:Arial">0.75</text></g><g clip-path="url(#cpMC4wMHw1MDQuMDB8Mzc4LjAwfDAuMDA=)"><text x="469.47" y="361.25" lengthAdjust="spacingAndGlyphs" textLength="18.68" style="font-size:9.6px;fill:#4d4d4d;font-family:Arial">1.00</text></g><g clip-path="url(#cpMC4wMHw1MDQuMDB8Mzc4LjAwfDAuMDA=)"><text x="416.87" y="371.42" lengthAdjust="spacingAndGlyphs" textLength="81.65" style="font-size:9.6px;fill:#4d4d4d;font-family:Arial">Scaled Engine size</text></g><g clip-path="url(#cpMC4wMHw1MDQuMDB8Mzc4LjAwfDAuMDA=)"><text x="5.48" y="12.35" lengthAdjust="spacingAndGlyphs" textLength="49.09" style="font-size:9.6px;fill:#4d4d4d;font-family:Arial">Wear Index</text></g></svg>