<svg xmlns="http://www.w3.org/2000/svg" xmlns:xlink="http://www.w3.org/1999/xlink" viewBox="0 0 504 378"><defs><style type="text/css">circle,polyline,rect{fill:none;stroke:#000;stroke-linecap:round;stroke-linejoin:round;stroke-miterlimit:10}</style></defs><rect width="100%" height="100%" style="stroke:none;fill:none"/><defs><clipPath id="cpMjguMzR8NDk4LjUyfDM0Ni4yOHw1LjQ4"><rect width="470.18" height="340.8" x="28.34" y="5.48"/></clipPath></defs><polyline points="28.34 250.83 498.52 250.83" clip-path="url(#cpMjguMzR8NDk4LjUyfDM0Ni4yOHw1LjQ4)" style="stroke-width:.53;stroke:#ebebeb;stroke-linecap:butt"/><polyline points="28.34 150.89 498.52 150.89" clip-path="url(#cpMjguMzR8NDk4LjUyfDM0Ni4yOHw1LjQ4)" style="stroke-width:.53;stroke:#ebebeb;stroke-linecap:butt"/><polyline points="28.34 50.95 498.52 50.95" clip-path="url(#cpMjguMzR8NDk4LjUyfDM0Ni4yOHw1LjQ4)" style="stroke-width:.53;stroke:#ebebeb;stroke-linecap:butt"/><polyline points="103.14 346.28 103.14 5.48" clip-path="url(#cpMjguMzR8NDk4LjUyfDM0Ni4yOHw1LjQ4)" style="stroke-width:.53;stroke:#ebebeb;stroke-linecap:butt"/><polyline points="210 346.28 210 5.48" clip-path="url(#cpMjguMzR8NDk4LjUyfDM0Ni4yOHw1LjQ4)" style="stroke-width:.53;stroke:#ebebeb;stroke-linecap:butt"/><polyline points="316.86 346.28 316.86 5.48" clip-path="url(#cpMjguMzR8NDk4LjUyfDM0Ni4yOHw1LjQ4)" style="stroke-width:.53;stroke:#ebebeb;stroke-linecap:butt"/><polyline points="423.72 346.28 423.72 5.48" clip-path="url(#cpMjguMzR8NDk4LjUyfDM0Ni4yOHw1LjQ4)" style="stroke-width:.53;stroke:#ebebeb;stroke-linecap:butt"/><polyline points="28.34 300.8 498.52 300.8" clip-path="url(#cpMjguMzR8NDk4LjUyfDM0Ni4yOHw1LjQ4)" style="stroke-width:1.07;stroke:#ebebeb;stroke-linecap:butt"/><polyline points="28.34 200.86 498.52 200.86" clip-path="url(#cpMjguMzR8NDk4LjUyfDM0Ni4yOHw1LjQ4)" style="stroke-width:1.07;stroke:#ebebeb;stroke-linecap:butt"/><polyline points="28.34 100.92 498.52 100.92" clip-path="url(#cpMjguMzR8NDk4LjUyfDM0Ni4yOHw1LjQ4)" style="stroke-width:1.07;stroke:#ebebeb;stroke-linecap:butt"/><polyline points="49.71 346.28 49.71 5.48" clip-path="url(#cpMjguMzR8NDk4LjUyfDM0Ni4yOHw1LjQ4)" style="stroke-width:1.07;stroke:#ebebeb;stroke-linecap:butt"/><polyline points="156.57 346.28 156.57 5.48" clip-path="url(#cpMjguMzR8NDk4LjUyfDM0Ni4yOHw1LjQ4)" style="stroke-width:1.07;stroke:#ebebeb;stroke-linecap:butt"/><polyline points="263.43 346.28 263.43 5.48" clip-path="url(#cpMjguMzR8NDk4LjUyfDM0Ni4yOHw1LjQ4)" style="stroke-width:1.07;stroke:#ebebeb;stroke-linecap:butt"/><polyline points="370.29 346.28 370.29 5.48" clip-path="url(#cpMjguMzR8NDk4LjUyfDM0Ni4yOHw1LjQ4)" style="stroke-width:1.07;stroke:#ebebeb;stroke-linecap:butt"/><polyline points="477.15 346.28 477.15 5.48" clip-path="url(#cpMjguMzR8NDk4LjUyfDM0Ni4yOHw1LjQ4)" style="stroke-width:1.07;stroke:#ebebeb;stroke-linecap:butt"/><circle cx="49.71" cy="100.92" r="1.95" clip-path="url(#cpMjguMzR8NDk4LjUyfDM0Ni4yOHw1LjQ4)" style="stroke-width:.71;stroke:#f50;fill:#f50"/><circle cx="93.55" cy="80.93" r="1.95" clip-path="url(#cpMjguMzR8NDk4LjUyfDM0Ni4yOHw1LjQ4)" style="stroke-width:.71;stroke:#f50;fill:#f50"/><circle cx="148.35" cy="250.83" r="1.95" clip-path="url(#cpMjguMzR8NDk4LjUyfDM0Ni4yOHw1LjQ4)" style="stroke-width:.71;stroke:#f50;fill:#f50"/><circle cx="205.89" cy="240.84" r="1.95" clip-path="url(#cpMjguMzR8NDk4LjUyfDM0Ni4yOHw1LjQ4)" style="stroke-width:.71;stroke:#f50;fill:#f50"/><circle cx="205.89" cy="220.85" r="1.95" clip-path="url(#cpMjguMzR8NDk4LjUyfDM0Ni4yOHw1LjQ4)" style="stroke-width:.71;stroke:#f50;fill:#f50"/><circle cx="205.89" cy="260.83" r="1.95" clip-path="url(#cpMjguMzR8NDk4LjUyfDM0Ni4yOHw1LjQ4)" style="stroke-width:.71;stroke:#f50;fill:#f50"/><circle cx="244.25" cy="180.87" r="1.95" clip-path="url(#cpMjguMzR8NDk4LjUyfDM0Ni4yOHw1LjQ4)" style="stroke-width:.71;stroke:#f50;fill:#f50"/><circle cx="244.25" cy="260.83" r="1.95" clip-path="url(#cpMjguMzR8NDk4LjUyfDM0Ni4yOHw1LjQ4)" style="stroke-width:.71;stroke:#f50;fill:#f50"/><circle cx="244.25" cy="240.84" r="1.95" clip-path="url(#cpMjguMzR8NDk4LjUyfDM0Ni4yOHw1LjQ4)" style="stroke-width:.71;stroke:#f50;fill:#f50"/><circle cx="296.31" cy="20.97" r="1.95" clip-path="url(#cpMjguMzR8NDk4LjUyfDM0Ni4yOHw1LjQ4)" style="stroke-width:.71;stroke:#f50;fill:#f50"/><circle cx="296.31" cy="210.86" r="1.95" clip-path="url(#cpMjguMzR8NDk4LjUyfDM0Ni4yOHw1LjQ4)" style="stroke-width:.71;stroke:#f50;fill:#f50"/><circle cx="296.31" cy="120.91" r="1.95" clip-path="url(#cpMjguMzR8NDk4LjUyfDM0Ni4yOHw1LjQ4)" style="stroke-width:.71;stroke:#f50;fill:#f50"/><circle cx="296.31" cy="200.86" r="1.95" clip-path="url(#cpMjguMzR8NDk4LjUyfDM0Ni4yOHw1LjQ4)" style="stroke-width:.71;stroke:#f50;fill:#f50"/><circle cx="296.31" cy="230.84" r="1.95" clip-path="url(#cpMjguMzR8NDk4LjUyfDM0Ni4yOHw1LjQ4)" style="stroke-width:.71;stroke:#f50;fill:#f50"/><circle cx="326.45" cy="190.87" r="1.95" clip-path="url(#cpMjguMzR8NDk4LjUyfDM0Ni4yOHw1LjQ4)" style="stroke-width:.71;stroke:#f50;fill:#f50"/><circle cx="326.45" cy="170.88" r="1.95" clip-path="url(#cpMjguMzR8NDk4LjUyfDM0Ni4yOHw1LjQ4)" style="stroke-width:.71;stroke:#f50;fill:#f50"/><circle cx="422.35" cy="200.86" r="1.95" clip-path="url(#cpMjguMzR8NDk4LjUyfDM0Ni4yOHw1LjQ4)" style="stroke-width:.71;stroke:#f50;fill:#f50"/><circle cx="477.15" cy="220.85" r="1.95" clip-path="url(#cpMjguMzR8NDk4LjUyfDM0Ni4yOHw1LjQ4)" style="stroke-width:.71;stroke:#f50;fill:#f50"/><circle cx="477.15" cy="330.79" r="1.95" clip-path="url(#cpMjguMzR8NDk4LjUyfDM0Ni4yOHw1LjQ4)" style="stroke-width:.71;stroke:#f50;fill:#f50"/><polyline points="49.71 75.93 53.99 81.99 58.26 88.05 62.53 94.1 66.81 100.14 71.08 106.17 75.36 112.18 79.63 118.18 83.91 124.14 88.18 130.08 92.45 135.98 96.73 141.84 101 147.66 105.28 153.42 109.55 159.13 113.83 164.78 118.1 170.36 122.38 175.87 126.65 181.3 130.92 186.63 135.2 191.88 139.47 197.02 143.75 202.03 148.02 206.9 152.3 211.59 156.57 216.08 160.84 220.35 165.12 224.37 169.39 228.11 173.67 231.55 177.94 234.67 182.22 237.44 186.49 239.83 190.77 241.81 195.04 243.36 199.31 244.45 203.59 245.06 207.86 245.16 212.14 244.71 216.41 243.7 220.69 242.09 224.96 239.86 229.23 237.08 233.51 233.8 237.78 230.07 242.06 225.97 246.33 221.56 250.61 216.88 254.88 212.02 259.16 207.01 263.43 201.94 267.7 196.84 271.98 191.8 276.25 186.86 280.53 182.08 284.8 177.53 289.08 173.26 293.35 169.34 297.62 165.81 301.9 162.74 306.17 160.19 310.45 158.19 314.72 156.75 319 155.83 323.27 155.4 327.55 155.44 331.82 155.93 336.09 156.83 340.37 158.11 344.64 159.76 348.92 161.74 353.19 164.03 357.47 166.59 361.74 169.4 366.01 172.42 370.29 175.64 374.56 179.02 378.84 182.54 383.11 186.15 387.39 189.84 391.66 193.57 395.94 197.32 400.21 201.08 404.48 204.86 408.76 208.65 413.03 212.46 417.31 216.29 421.58 220.14 425.86 224 430.13 227.89 434.4 231.79 438.68 235.71 442.95 239.65 447.23 243.6 451.5 247.56 455.78 251.54 460.05 255.53 464.33 259.54 468.6 263.54 472.87 267.56 477.15 271.57" clip-path="url(#cpMjguMzR8NDk4LjUyfDM0Ni4yOHw1LjQ4)" style="stroke-width:1.07;stroke:#0af;stroke-linecap:butt"/><defs><clipPath id="cpMC4wMHw1MDQuMDB8Mzc4LjAwfDAuMDA="><rect width="504" height="378" x="0" y="0"/></clipPath></defs><g clip-path="url(#cpMC4wMHw1MDQuMDB8Mzc4LjAwfDAuMDA=)"><text x="18.51" y="303.95" lengthAdjust="spacingAndGlyphs" textLength="4.89" style="font-size:8.8px;fill:#4d4d4d;font-family:Arial">2</text></g><g clip-path="url(#cpMC4wMHw1MDQuMDB8Mzc4LjAwfDAuMDA=)"><text x="18.51" y="204.01" lengthAdjust="spacingAndGlyphs" textLength="4.89" style="font-size:8.8px;fill:#4d4d4d;font-family:Arial">3</text></g><g clip-path="url(#cpMC4wMHw1MDQuMDB8Mzc4LjAwfDAuMDA=)"><text x="18.51" y="104.07" lengthAdjust="spacingAndGlyphs" textLength="4.89" style="font-size:8.8px;fill:#4d4d4d;font-family:Arial">4</text></g><g clip-path="url(#cpMC4wMHw1MDQuMDB8Mzc4LjAwfDAuMDA=)"><text x="41.15" y="357.51" lengthAdjust="spacingAndGlyphs" textLength="17.13" style="font-size:8.8px;fill:#4d4d4d;font-family:Arial">0.00</text></g><g clip-path="url(#cpMC4wMHw1MDQuMDB8Mzc4LjAwfDAuMDA=)"><text x="148.01" y="357.51" lengthAdjust="spacingAndGlyphs" textLength="17.13" style="font-size:8.8px;fill:#4d4d4d;font-family:Arial">0.25</text></g><g clip-path="url(#cpMC4wMHw1MDQuMDB8Mzc4LjAwfDAuMDA=)"><text x="254.87" y="357.51" lengthAdjust="spacingAndGlyphs" textLength="17.13" style="font-size:8.8px;fill:#4d4d4d;font-family:Arial">0.50</text></g><g clip-path="url(#cpMC4wMHw1MDQuMDB8Mzc4LjAwfDAuMDA=)"><text x="361.73" y="357.51" lengthAdjust="spacingAndGlyphs" textLength="17.13" style="font-size:8.8px;fill:#4d4d4d;font-family:Arial">0.75</text></g><g clip-path="url(#cpMC4wMHw1MDQuMDB8Mzc4LjAwfDAuMDA=)"><text x="468.58" y="357.51" lengthAdjust="spacingAndGlyphs" textLength="17.13" style="font-size:8.8px;fill:#4d4d4d;font-family:Arial">1.00</text></g><g clip-path="url(#cpMC4wMHw1MDQuMDB8Mzc4LjAwfDAuMDA=)"><text x="216.65" y="370.1" lengthAdjust="spacingAndGlyphs" textLength="93.56" style="font-size:11px;font-family:Arial">Scaled Engine size</text></g><g clip-path="url(#cpMC4wMHw1MDQuMDB8Mzc4LjAwfDAuMDA=)"><text style="font-size:11px;font-family:Arial" lengthAdjust="spacingAndGlyphs" textLength="56.25" transform="translate(13.35,204.00) rotate(-90)">Wear Index</text></g></svg>