<svg xmlns="http://www.w3.org/2000/svg" xmlns:xlink="http://www.w3.org/1999/xlink" viewBox="0 0 504 378"><defs><style type="text/css">circle,polyline,rect{fill:none;stroke:#000;stroke-linecap:round;stroke-linejoin:round;stroke-miterlimit:10}</style></defs><rect width="100%" height="100%" style="stroke:none;fill:none"/><rect width="504" height="378" x="0" y="0" style="stroke-width:1.07;stroke:none"/><defs><clipPath id="cpNTIuMDR8NDk4LjUyfDM0OS40NXw1LjQ4"><rect width="446.48" height="343.97" x="52.04" y="5.48"/></clipPath></defs><circle cx="72.33" cy="133.33" r="1.95" clip-path="url(#cpNTIuMDR8NDk4LjUyfDM0OS40NXw1LjQ4)" style="stroke-width:.71;stroke:#f50;stroke-opacity:.1;fill:#f50;fill-opacity:.1"/><circle cx="73.8" cy="135.27" r="1.95" clip-path="url(#cpNTIuMDR8NDk4LjUyfDM0OS40NXw1LjQ4)" style="stroke-width:.71;stroke:#f50;stroke-opacity:.1;fill:#f50;fill-opacity:.1"/><circle cx="78.21" cy="137.37" r="1.95" clip-path="url(#cpNTIuMDR8NDk4LjUyfDM0OS40NXw1LjQ4)" style="stroke-width:.71;stroke:#f50;stroke-opacity:.1;fill:#f50;fill-opacity:.1"/><circle cx="81.15" cy="133.33" r="1.95" clip-path="url(#cpNTIuMDR8NDk4LjUyfDM0OS40NXw1LjQ4)" style="stroke-width:.71;stroke:#f50;stroke-opacity:.1;fill:#f50;fill-opacity:.1"/><circle cx="84.1" cy="137.37" r="1.95" clip-path="url(#cpNTIuMDR8NDk4LjUyfDM0OS40NXw1LjQ4)" style="stroke-width:.71;stroke:#f50;stroke-opacity:.1;fill:#f50;fill-opacity:.1"/><circle cx="100.27" cy="137.37" r="1.95" clip-path="url(#cpNTIuMDR8NDk4LjUyfDM0OS40NXw1LjQ4)" style="stroke-width:.71;stroke:#f50;stroke-opacity:.1;fill:#f50;fill-opacity:.1"/><circle cx="103.21" cy="137.37" r="1.95" clip-path="url(#cpNTIuMDR8NDk4LjUyfDM0OS40NXw1LjQ4)" style="stroke-width:.71;stroke:#f50;stroke-opacity:.1;fill:#f50;fill-opacity:.1"/><circle cx="104.68" cy="135.27" r="1.95" clip-path="url(#cpNTIuMDR8NDk4LjUyfDM0OS40NXw1LjQ4)" style="stroke-width:.71;stroke:#f50;stroke-opacity:.1;fill:#f50;fill-opacity:.1"/><circle cx="112.04" cy="137.37" r="1.95" clip-path="url(#cpNTIuMDR8NDk4LjUyfDM0OS40NXw1LjQ4)" style="stroke-width:.71;stroke:#f50;stroke-opacity:.1;fill:#f50;fill-opacity:.1"/><circle cx="114.98" cy="137.37" r="1.95" clip-path="url(#cpNTIuMDR8NDk4LjUyfDM0OS40NXw1LjQ4)" style="stroke-width:.71;stroke:#f50;stroke-opacity:.1;fill:#f50;fill-opacity:.1"/><circle cx="119.39" cy="135.27" r="1.95" clip-path="url(#cpNTIuMDR8NDk4LjUyfDM0OS40NXw1LjQ4)" style="stroke-width:.71;stroke:#f50;stroke-opacity:.1;fill:#f50;fill-opacity:.1"/><circle cx="119.39" cy="137.37" r="1.95" clip-path="url(#cpNTIuMDR8NDk4LjUyfDM0OS40NXw1LjQ4)" style="stroke-width:.71;stroke:#f50;stroke-opacity:.1;fill:#f50;fill-opacity:.1"/><circle cx="125.27" cy="137.37" r="1.95" clip-path="url(#cpNTIuMDR8NDk4LjUyfDM0OS40NXw1LjQ4)" style="stroke-width:.71;stroke:#f50;stroke-opacity:.1;fill:#f50;fill-opacity:.1"/><circle cx="128.21" cy="137.37" r="1.95" clip-path="url(#cpNTIuMDR8NDk4LjUyfDM0OS40NXw1LjQ4)" style="stroke-width:.71;stroke:#f50;stroke-opacity:.1;fill:#f50;fill-opacity:.1"/><circle cx="129.69" cy="141.41" r="1.95" clip-path="url(#cpNTIuMDR8NDk4LjUyfDM0OS40NXw1LjQ4)" style="stroke-width:.71;stroke:#f50;stroke-opacity:.1;fill:#f50;fill-opacity:.1"/><circle cx="132.63" cy="137.37" r="1.95" clip-path="url(#cpNTIuMDR8NDk4LjUyfDM0OS40NXw1LjQ4)" style="stroke-width:.71;stroke:#f50;stroke-opacity:.1;fill:#f50;fill-opacity:.1"/><circle cx="135.57" cy="141.41" r="1.95" clip-path="url(#cpNTIuMDR8NDk4LjUyfDM0OS40NXw1LjQ4)" style="stroke-width:.71;stroke:#f50;stroke-opacity:.1;fill:#f50;fill-opacity:.1"/><circle cx="138.51" cy="133.33" r="1.95" clip-path="url(#cpNTIuMDR8NDk4LjUyfDM0OS40NXw1LjQ4)" style="stroke-width:.71;stroke:#f50;stroke-opacity:.1;fill:#f50;fill-opacity:.1"/><circle cx="151.74" cy="137.37" r="1.95" clip-path="url(#cpNTIuMDR8NDk4LjUyfDM0OS40NXw1LjQ4)" style="stroke-width:.71;stroke:#f50;stroke-opacity:.1;fill:#f50;fill-opacity:.1"/><circle cx="154.69" cy="137.37" r="1.95" clip-path="url(#cpNTIuMDR8NDk4LjUyfDM0OS40NXw1LjQ4)" style="stroke-width:.71;stroke:#f50;stroke-opacity:.1;fill:#f50;fill-opacity:.1"/><circle cx="156.16" cy="133.33" r="1.95" clip-path="url(#cpNTIuMDR8NDk4LjUyfDM0OS40NXw1LjQ4)" style="stroke-width:.71;stroke:#f50;stroke-opacity:.1;fill:#f50;fill-opacity:.1"/><circle cx="162.04" cy="153.22" r="1.95" clip-path="url(#cpNTIuMDR8NDk4LjUyfDM0OS40NXw1LjQ4)" style="stroke-width:.71;stroke:#f50;stroke-opacity:.1;fill:#f50;fill-opacity:.1"/><circle cx="162.04" cy="141.41" r="1.95" clip-path="url(#cpNTIuMDR8NDk4LjUyfDM0OS40NXw1LjQ4)" style="stroke-width:.71;stroke:#f50;stroke-opacity:.1;fill:#f50;fill-opacity:.1"/><circle cx="162.04" cy="141.41" r="1.95" clip-path="url(#cpNTIuMDR8NDk4LjUyfDM0OS40NXw1LjQ4)" style="stroke-width:.71;stroke:#f50;stroke-opacity:.1;fill:#f50;fill-opacity:.1"/><circle cx="162.04" cy="147.24" r="1.95" clip-path="url(#cpNTIuMDR8NDk4LjUyfDM0OS40NXw1LjQ4)" style="stroke-width:.71;stroke:#f50;stroke-opacity:.1;fill:#f50;fill-opacity:.1"/><circle cx="162.04" cy="157.26" r="1.95" clip-path="url(#cpNTIuMDR8NDk4LjUyfDM0OS40NXw1LjQ4)" style="stroke-width:.71;stroke:#f50;stroke-opacity:.1;fill:#f50;fill-opacity:.1"/><circle cx="162.04" cy="167.44" r="1.95" clip-path="url(#cpNTIuMDR8NDk4LjUyfDM0OS40NXw1LjQ4)" style="stroke-width:.71;stroke:#f50;stroke-opacity:.1;fill:#f50;fill-opacity:.1"/><circle cx="163.51" cy="137.37" r="1.95" clip-path="url(#cpNTIuMDR8NDk4LjUyfDM0OS40NXw1LjQ4)" style="stroke-width:.71;stroke:#f50;stroke-opacity:.1;fill:#f50;fill-opacity:.1"/><circle cx="167.92" cy="167.44" r="1.95" clip-path="url(#cpNTIuMDR8NDk4LjUyfDM0OS40NXw1LjQ4)" style="stroke-width:.71;stroke:#f50;stroke-opacity:.1;fill:#f50;fill-opacity:.1"/><circle cx="167.92" cy="181.35" r="1.95" clip-path="url(#cpNTIuMDR8NDk4LjUyfDM0OS40NXw1LjQ4)" style="stroke-width:.71;stroke:#f50;stroke-opacity:.1;fill:#f50;fill-opacity:.1"/><circle cx="167.92" cy="213.37" r="1.95" clip-path="url(#cpNTIuMDR8NDk4LjUyfDM0OS40NXw1LjQ4)" style="stroke-width:.71;stroke:#f50;stroke-opacity:.1;fill:#f50;fill-opacity:.1"/><circle cx="167.92" cy="215.46" r="1.95" clip-path="url(#cpNTIuMDR8NDk4LjUyfDM0OS40NXw1LjQ4)" style="stroke-width:.71;stroke:#f50;stroke-opacity:.1;fill:#f50;fill-opacity:.1"/><circle cx="169.39" cy="193.47" r="1.95" clip-path="url(#cpNTIuMDR8NDk4LjUyfDM0OS40NXw1LjQ4)" style="stroke-width:.71;stroke:#f50;stroke-opacity:.1;fill:#f50;fill-opacity:.1"/><circle cx="169.39" cy="165.49" r="1.95" clip-path="url(#cpNTIuMDR8NDk4LjUyfDM0OS40NXw1LjQ4)" style="stroke-width:.71;stroke:#f50;stroke-opacity:.1;fill:#f50;fill-opacity:.1"/><circle cx="170.86" cy="165.49" r="1.95" clip-path="url(#cpNTIuMDR8NDk4LjUyfDM0OS40NXw1LjQ4)" style="stroke-width:.71;stroke:#f50;stroke-opacity:.1;fill:#f50;fill-opacity:.1"/><circle cx="170.86" cy="209.33" r="1.95" clip-path="url(#cpNTIuMDR8NDk4LjUyfDM0OS40NXw1LjQ4)" style="stroke-width:.71;stroke:#f50;stroke-opacity:.1;fill:#f50;fill-opacity:.1"/><circle cx="172.33" cy="197.51" r="1.95" clip-path="url(#cpNTIuMDR8NDk4LjUyfDM0OS40NXw1LjQ4)" style="stroke-width:.71;stroke:#f50;stroke-opacity:.1;fill:#f50;fill-opacity:.1"/><circle cx="172.33" cy="173.42" r="1.95" clip-path="url(#cpNTIuMDR8NDk4LjUyfDM0OS40NXw1LjQ4)" style="stroke-width:.71;stroke:#f50;stroke-opacity:.1;fill:#f50;fill-opacity:.1"/><circle cx="173.8" cy="165.49" r="1.95" clip-path="url(#cpNTIuMDR8NDk4LjUyfDM0OS40NXw1LjQ4)" style="stroke-width:.71;stroke:#f50;stroke-opacity:.1;fill:#f50;fill-opacity:.1"/><circle cx="173.8" cy="209.33" r="1.95" clip-path="url(#cpNTIuMDR8NDk4LjUyfDM0OS40NXw1LjQ4)" style="stroke-width:.71;stroke:#f50;stroke-opacity:.1;fill:#f50;fill-opacity:.1"/><circle cx="173.8" cy="225.64" r="1.95" clip-path="url(#cpNTIuMDR8NDk4LjUyfDM0OS40NXw1LjQ4)" style="stroke-width:.71;stroke:#f50;stroke-opacity:.1;fill:#f50;fill-opacity:.1"/><circle cx="175.28" cy="141.41" r="1.95" clip-path="url(#cpNTIuMDR8NDk4LjUyfDM0OS40NXw1LjQ4)" style="stroke-width:.71;stroke:#f50;stroke-opacity:.1;fill:#f50;fill-opacity:.1"/><circle cx="175.28" cy="253.62" r="1.95" clip-path="url(#cpNTIuMDR8NDk4LjUyfDM0OS40NXw1LjQ4)" style="stroke-width:.71;stroke:#f50;stroke-opacity:.1;fill:#f50;fill-opacity:.1"/><circle cx="176.75" cy="221.6" r="1.95" clip-path="url(#cpNTIuMDR8NDk4LjUyfDM0OS40NXw1LjQ4)" style="stroke-width:.71;stroke:#f50;stroke-opacity:.1;fill:#f50;fill-opacity:.1"/><circle cx="178.22" cy="239.55" r="1.95" clip-path="url(#cpNTIuMDR8NDk4LjUyfDM0OS40NXw1LjQ4)" style="stroke-width:.71;stroke:#f50;stroke-opacity:.1;fill:#f50;fill-opacity:.1"/><circle cx="178.22" cy="269.63" r="1.95" clip-path="url(#cpNTIuMDR8NDk4LjUyfDM0OS40NXw1LjQ4)" style="stroke-width:.71;stroke:#f50;stroke-opacity:.1;fill:#f50;fill-opacity:.1"/><circle cx="178.22" cy="249.58" r="1.95" clip-path="url(#cpNTIuMDR8NDk4LjUyfDM0OS40NXw1LjQ4)" style="stroke-width:.71;stroke:#f50;stroke-opacity:.1;fill:#f50;fill-opacity:.1"/><circle cx="184.1" cy="189.43" r="1.95" clip-path="url(#cpNTIuMDR8NDk4LjUyfDM0OS40NXw1LjQ4)" style="stroke-width:.71;stroke:#f50;stroke-opacity:.1;fill:#f50;fill-opacity:.1"/><circle cx="184.1" cy="261.4" r="1.95" clip-path="url(#cpNTIuMDR8NDk4LjUyfDM0OS40NXw1LjQ4)" style="stroke-width:.71;stroke:#f50;stroke-opacity:.1;fill:#f50;fill-opacity:.1"/><circle cx="184.1" cy="317.5" r="1.95" clip-path="url(#cpNTIuMDR8NDk4LjUyfDM0OS40NXw1LjQ4)" style="stroke-width:.71;stroke:#f50;stroke-opacity:.1;fill:#f50;fill-opacity:.1"/><circle cx="184.1" cy="285.78" r="1.95" clip-path="url(#cpNTIuMDR8NDk4LjUyfDM0OS40NXw1LjQ4)" style="stroke-width:.71;stroke:#f50;stroke-opacity:.1;fill:#f50;fill-opacity:.1"/><circle cx="185.57" cy="281.59" r="1.95" clip-path="url(#cpNTIuMDR8NDk4LjUyfDM0OS40NXw1LjQ4)" style="stroke-width:.71;stroke:#f50;stroke-opacity:.1;fill:#f50;fill-opacity:.1"/><circle cx="185.57" cy="289.52" r="1.95" clip-path="url(#cpNTIuMDR8NDk4LjUyfDM0OS40NXw1LjQ4)" style="stroke-width:.71;stroke:#f50;stroke-opacity:.1;fill:#f50;fill-opacity:.1"/><circle cx="191.45" cy="301.64" r="1.95" clip-path="url(#cpNTIuMDR8NDk4LjUyfDM0OS40NXw1LjQ4)" style="stroke-width:.71;stroke:#f50;stroke-opacity:.1;fill:#f50;fill-opacity:.1"/><circle cx="191.45" cy="209.33" r="1.95" clip-path="url(#cpNTIuMDR8NDk4LjUyfDM0OS40NXw1LjQ4)" style="stroke-width:.71;stroke:#f50;stroke-opacity:.1;fill:#f50;fill-opacity:.1"/><circle cx="195.86" cy="317.5" r="1.95" clip-path="url(#cpNTIuMDR8NDk4LjUyfDM0OS40NXw1LjQ4)" style="stroke-width:.71;stroke:#f50;stroke-opacity:.1;fill:#f50;fill-opacity:.1"/><circle cx="197.33" cy="261.4" r="1.95" clip-path="url(#cpNTIuMDR8NDk4LjUyfDM0OS40NXw1LjQ4)" style="stroke-width:.71;stroke:#f50;stroke-opacity:.1;fill:#f50;fill-opacity:.1"/><circle cx="197.33" cy="241.5" r="1.95" clip-path="url(#cpNTIuMDR8NDk4LjUyfDM0OS40NXw1LjQ4)" style="stroke-width:.71;stroke:#f50;stroke-opacity:.1;fill:#f50;fill-opacity:.1"/><circle cx="198.81" cy="323.64" r="1.95" clip-path="url(#cpNTIuMDR8NDk4LjUyfDM0OS40NXw1LjQ4)" style="stroke-width:.71;stroke:#f50;stroke-opacity:.1;fill:#f50;fill-opacity:.1"/><circle cx="203.22" cy="317.5" r="1.95" clip-path="url(#cpNTIuMDR8NDk4LjUyfDM0OS40NXw1LjQ4)" style="stroke-width:.71;stroke:#f50;stroke-opacity:.1;fill:#f50;fill-opacity:.1"/><circle cx="204.69" cy="309.72" r="1.95" clip-path="url(#cpNTIuMDR8NDk4LjUyfDM0OS40NXw1LjQ4)" style="stroke-width:.71;stroke:#f50;stroke-opacity:.1;fill:#f50;fill-opacity:.1"/><circle cx="210.57" cy="333.81" r="1.95" clip-path="url(#cpNTIuMDR8NDk4LjUyfDM0OS40NXw1LjQ4)" style="stroke-width:.71;stroke:#f50;stroke-opacity:.1;fill:#f50;fill-opacity:.1"/><circle cx="212.04" cy="285.78" r="1.95" clip-path="url(#cpNTIuMDR8NDk4LjUyfDM0OS40NXw1LjQ4)" style="stroke-width:.71;stroke:#f50;stroke-opacity:.1;fill:#f50;fill-opacity:.1"/><circle cx="214.98" cy="295.51" r="1.95" clip-path="url(#cpNTIuMDR8NDk4LjUyfDM0OS40NXw1LjQ4)" style="stroke-width:.71;stroke:#f50;stroke-opacity:.1;fill:#f50;fill-opacity:.1"/><circle cx="216.45" cy="317.5" r="1.95" clip-path="url(#cpNTIuMDR8NDk4LjUyfDM0OS40NXw1LjQ4)" style="stroke-width:.71;stroke:#f50;stroke-opacity:.1;fill:#f50;fill-opacity:.1"/><circle cx="225.28" cy="317.5" r="1.95" clip-path="url(#cpNTIuMDR8NDk4LjUyfDM0OS40NXw1LjQ4)" style="stroke-width:.71;stroke:#f50;stroke-opacity:.1;fill:#f50;fill-opacity:.1"/><circle cx="226.75" cy="325.58" r="1.95" clip-path="url(#cpNTIuMDR8NDk4LjUyfDM0OS40NXw1LjQ4)" style="stroke-width:.71;stroke:#f50;stroke-opacity:.1;fill:#f50;fill-opacity:.1"/><circle cx="231.16" cy="301.64" r="1.95" clip-path="url(#cpNTIuMDR8NDk4LjUyfDM0OS40NXw1LjQ4)" style="stroke-width:.71;stroke:#f50;stroke-opacity:.1;fill:#f50;fill-opacity:.1"/><circle cx="232.63" cy="275.61" r="1.95" clip-path="url(#cpNTIuMDR8NDk4LjUyfDM0OS40NXw1LjQ4)" style="stroke-width:.71;stroke:#f50;stroke-opacity:.1;fill:#f50;fill-opacity:.1"/><circle cx="232.63" cy="255.71" r="1.95" clip-path="url(#cpNTIuMDR8NDk4LjUyfDM0OS40NXw1LjQ4)" style="stroke-width:.71;stroke:#f50;stroke-opacity:.1;fill:#f50;fill-opacity:.1"/><circle cx="235.57" cy="213.37" r="1.95" clip-path="url(#cpNTIuMDR8NDk4LjUyfDM0OS40NXw1LjQ4)" style="stroke-width:.71;stroke:#f50;stroke-opacity:.1;fill:#f50;fill-opacity:.1"/><circle cx="238.51" cy="229.68" r="1.95" clip-path="url(#cpNTIuMDR8NDk4LjUyfDM0OS40NXw1LjQ4)" style="stroke-width:.71;stroke:#f50;stroke-opacity:.1;fill:#f50;fill-opacity:.1"/><circle cx="238.51" cy="219.5" r="1.95" clip-path="url(#cpNTIuMDR8NDk4LjUyfDM0OS40NXw1LjQ4)" style="stroke-width:.71;stroke:#f50;stroke-opacity:.1;fill:#f50;fill-opacity:.1"/><circle cx="241.45" cy="241.5" r="1.95" clip-path="url(#cpNTIuMDR8NDk4LjUyfDM0OS40NXw1LjQ4)" style="stroke-width:.71;stroke:#f50;stroke-opacity:.1;fill:#f50;fill-opacity:.1"/><circle cx="241.45" cy="199.61" r="1.95" clip-path="url(#cpNTIuMDR8NDk4LjUyfDM0OS40NXw1LjQ4)" style="stroke-width:.71;stroke:#f50;stroke-opacity:.1;fill:#f50;fill-opacity:.1"/><circle cx="242.92" cy="173.42" r="1.95" clip-path="url(#cpNTIuMDR8NDk4LjUyfDM0OS40NXw1LjQ4)" style="stroke-width:.71;stroke:#f50;stroke-opacity:.1;fill:#f50;fill-opacity:.1"/><circle cx="245.87" cy="141.41" r="1.95" clip-path="url(#cpNTIuMDR8NDk4LjUyfDM0OS40NXw1LjQ4)" style="stroke-width:.71;stroke:#f50;stroke-opacity:.1;fill:#f50;fill-opacity:.1"/><circle cx="247.34" cy="293.56" r="1.95" clip-path="url(#cpNTIuMDR8NDk4LjUyfDM0OS40NXw1LjQ4)" style="stroke-width:.71;stroke:#f50;stroke-opacity:.1;fill:#f50;fill-opacity:.1"/><circle cx="247.34" cy="165.49" r="1.95" clip-path="url(#cpNTIuMDR8NDk4LjUyfDM0OS40NXw1LjQ4)" style="stroke-width:.71;stroke:#f50;stroke-opacity:.1;fill:#f50;fill-opacity:.1"/><circle cx="248.81" cy="231.47" r="1.95" clip-path="url(#cpNTIuMDR8NDk4LjUyfDM0OS40NXw1LjQ4)" style="stroke-width:.71;stroke:#f50;stroke-opacity:.1;fill:#f50;fill-opacity:.1"/><circle cx="253.22" cy="157.26" r="1.95" clip-path="url(#cpNTIuMDR8NDk4LjUyfDM0OS40NXw1LjQ4)" style="stroke-width:.71;stroke:#f50;stroke-opacity:.1;fill:#f50;fill-opacity:.1"/><circle cx="254.69" cy="201.55" r="1.95" clip-path="url(#cpNTIuMDR8NDk4LjUyfDM0OS40NXw1LjQ4)" style="stroke-width:.71;stroke:#f50;stroke-opacity:.1;fill:#f50;fill-opacity:.1"/><circle cx="254.69" cy="169.53" r="1.95" clip-path="url(#cpNTIuMDR8NDk4LjUyfDM0OS40NXw1LjQ4)" style="stroke-width:.71;stroke:#f50;stroke-opacity:.1;fill:#f50;fill-opacity:.1"/><circle cx="254.69" cy="119.11" r="1.95" clip-path="url(#cpNTIuMDR8NDk4LjUyfDM0OS40NXw1LjQ4)" style="stroke-width:.71;stroke:#f50;stroke-opacity:.1;fill:#f50;fill-opacity:.1"/><circle cx="257.63" cy="127.34" r="1.95" clip-path="url(#cpNTIuMDR8NDk4LjUyfDM0OS40NXw1LjQ4)" style="stroke-width:.71;stroke:#f50;stroke-opacity:.1;fill:#f50;fill-opacity:.1"/><circle cx="262.04" cy="115.37" r="1.95" clip-path="url(#cpNTIuMDR8NDk4LjUyfDM0OS40NXw1LjQ4)" style="stroke-width:.71;stroke:#f50;stroke-opacity:.1;fill:#f50;fill-opacity:.1"/><circle cx="263.51" cy="165.49" r="1.95" clip-path="url(#cpNTIuMDR8NDk4LjUyfDM0OS40NXw1LjQ4)" style="stroke-width:.71;stroke:#f50;stroke-opacity:.1;fill:#f50;fill-opacity:.1"/><circle cx="263.51" cy="77.22" r="1.95" clip-path="url(#cpNTIuMDR8NDk4LjUyfDM0OS40NXw1LjQ4)" style="stroke-width:.71;stroke:#f50;stroke-opacity:.1;fill:#f50;fill-opacity:.1"/><circle cx="264.98" cy="63.16" r="1.95" clip-path="url(#cpNTIuMDR8NDk4LjUyfDM0OS40NXw1LjQ4)" style="stroke-width:.71;stroke:#f50;stroke-opacity:.1;fill:#f50;fill-opacity:.1"/><circle cx="270.87" cy="159.36" r="1.95" clip-path="url(#cpNTIuMDR8NDk4LjUyfDM0OS40NXw1LjQ4)" style="stroke-width:.71;stroke:#f50;stroke-opacity:.1;fill:#f50;fill-opacity:.1"/><circle cx="276.75" cy="79.17" r="1.95" clip-path="url(#cpNTIuMDR8NDk4LjUyfDM0OS40NXw1LjQ4)" style="stroke-width:.71;stroke:#f50;stroke-opacity:.1;fill:#f50;fill-opacity:.1"/><circle cx="282.63" cy="21.11" r="1.95" clip-path="url(#cpNTIuMDR8NDk4LjUyfDM0OS40NXw1LjQ4)" style="stroke-width:.71;stroke:#f50;stroke-opacity:.1;fill:#f50;fill-opacity:.1"/><circle cx="284.1" cy="121.21" r="1.95" clip-path="url(#cpNTIuMDR8NDk4LjUyfDM0OS40NXw1LjQ4)" style="stroke-width:.71;stroke:#f50;stroke-opacity:.1;fill:#f50;fill-opacity:.1"/><circle cx="289.98" cy="51.19" r="1.95" clip-path="url(#cpNTIuMDR8NDk4LjUyfDM0OS40NXw1LjQ4)" style="stroke-width:.71;stroke:#f50;stroke-opacity:.1;fill:#f50;fill-opacity:.1"/><circle cx="289.98" cy="61.21" r="1.95" clip-path="url(#cpNTIuMDR8NDk4LjUyfDM0OS40NXw1LjQ4)" style="stroke-width:.71;stroke:#f50;stroke-opacity:.1;fill:#f50;fill-opacity:.1"/><circle cx="295.87" cy="63.16" r="1.95" clip-path="url(#cpNTIuMDR8NDk4LjUyfDM0OS40NXw1LjQ4)" style="stroke-width:.71;stroke:#f50;stroke-opacity:.1;fill:#f50;fill-opacity:.1"/><circle cx="300.28" cy="109.39" r="1.95" clip-path="url(#cpNTIuMDR8NDk4LjUyfDM0OS40NXw1LjQ4)" style="stroke-width:.71;stroke:#f50;stroke-opacity:.1;fill:#f50;fill-opacity:.1"/><circle cx="303.22" cy="65.1" r="1.95" clip-path="url(#cpNTIuMDR8NDk4LjUyfDM0OS40NXw1LjQ4)" style="stroke-width:.71;stroke:#f50;stroke-opacity:.1;fill:#f50;fill-opacity:.1"/><circle cx="307.63" cy="131.38" r="1.95" clip-path="url(#cpNTIuMDR8NDk4LjUyfDM0OS40NXw1LjQ4)" style="stroke-width:.71;stroke:#f50;stroke-opacity:.1;fill:#f50;fill-opacity:.1"/><circle cx="310.57" cy="21.11" r="1.95" clip-path="url(#cpNTIuMDR8NDk4LjUyfDM0OS40NXw1LjQ4)" style="stroke-width:.71;stroke:#f50;stroke-opacity:.1;fill:#f50;fill-opacity:.1"/><circle cx="313.51" cy="157.26" r="1.95" clip-path="url(#cpNTIuMDR8NDk4LjUyfDM0OS40NXw1LjQ4)" style="stroke-width:.71;stroke:#f50;stroke-opacity:.1;fill:#f50;fill-opacity:.1"/><circle cx="313.51" cy="215.46" r="1.95" clip-path="url(#cpNTIuMDR8NDk4LjUyfDM0OS40NXw1LjQ4)" style="stroke-width:.71;stroke:#f50;stroke-opacity:.1;fill:#f50;fill-opacity:.1"/><circle cx="314.99" cy="29.19" r="1.95" clip-path="url(#cpNTIuMDR8NDk4LjUyfDM0OS40NXw1LjQ4)" style="stroke-width:.71;stroke:#f50;stroke-opacity:.1;fill:#f50;fill-opacity:.1"/><circle cx="316.46" cy="81.26" r="1.95" clip-path="url(#cpNTIuMDR8NDk4LjUyfDM0OS40NXw1LjQ4)" style="stroke-width:.71;stroke:#f50;stroke-opacity:.1;fill:#f50;fill-opacity:.1"/><circle cx="316.46" cy="85.3" r="1.95" clip-path="url(#cpNTIuMDR8NDk4LjUyfDM0OS40NXw1LjQ4)" style="stroke-width:.71;stroke:#f50;stroke-opacity:.1;fill:#f50;fill-opacity:.1"/><circle cx="320.87" cy="189.43" r="1.95" clip-path="url(#cpNTIuMDR8NDk4LjUyfDM0OS40NXw1LjQ4)" style="stroke-width:.71;stroke:#f50;stroke-opacity:.1;fill:#f50;fill-opacity:.1"/><circle cx="320.87" cy="99.21" r="1.95" clip-path="url(#cpNTIuMDR8NDk4LjUyfDM0OS40NXw1LjQ4)" style="stroke-width:.71;stroke:#f50;stroke-opacity:.1;fill:#f50;fill-opacity:.1"/><circle cx="334.1" cy="63.16" r="1.95" clip-path="url(#cpNTIuMDR8NDk4LjUyfDM0OS40NXw1LjQ4)" style="stroke-width:.71;stroke:#f50;stroke-opacity:.1;fill:#f50;fill-opacity:.1"/><circle cx="334.1" cy="117.32" r="1.95" clip-path="url(#cpNTIuMDR8NDk4LjUyfDM0OS40NXw1LjQ4)" style="stroke-width:.71;stroke:#f50;stroke-opacity:.1;fill:#f50;fill-opacity:.1"/><circle cx="342.93" cy="125.25" r="1.95" clip-path="url(#cpNTIuMDR8NDk4LjUyfDM0OS40NXw1LjQ4)" style="stroke-width:.71;stroke:#f50;stroke-opacity:.1;fill:#f50;fill-opacity:.1"/><circle cx="344.4" cy="135.27" r="1.95" clip-path="url(#cpNTIuMDR8NDk4LjUyfDM0OS40NXw1LjQ4)" style="stroke-width:.71;stroke:#f50;stroke-opacity:.1;fill:#f50;fill-opacity:.1"/><circle cx="348.81" cy="165.49" r="1.95" clip-path="url(#cpNTIuMDR8NDk4LjUyfDM0OS40NXw1LjQ4)" style="stroke-width:.71;stroke:#f50;stroke-opacity:.1;fill:#f50;fill-opacity:.1"/><circle cx="351.75" cy="153.22" r="1.95" clip-path="url(#cpNTIuMDR8NDk4LjUyfDM0OS40NXw1LjQ4)" style="stroke-width:.71;stroke:#f50;stroke-opacity:.1;fill:#f50;fill-opacity:.1"/><circle cx="360.58" cy="87.24" r="1.95" clip-path="url(#cpNTIuMDR8NDk4LjUyfDM0OS40NXw1LjQ4)" style="stroke-width:.71;stroke:#f50;stroke-opacity:.1;fill:#f50;fill-opacity:.1"/><circle cx="360.58" cy="149.33" r="1.95" clip-path="url(#cpNTIuMDR8NDk4LjUyfDM0OS40NXw1LjQ4)" style="stroke-width:.71;stroke:#f50;stroke-opacity:.1;fill:#f50;fill-opacity:.1"/><circle cx="366.46" cy="89.34" r="1.95" clip-path="url(#cpNTIuMDR8NDk4LjUyfDM0OS40NXw1LjQ4)" style="stroke-width:.71;stroke:#f50;stroke-opacity:.1;fill:#f50;fill-opacity:.1"/><circle cx="369.4" cy="133.33" r="1.95" clip-path="url(#cpNTIuMDR8NDk4LjUyfDM0OS40NXw1LjQ4)" style="stroke-width:.71;stroke:#f50;stroke-opacity:.1;fill:#f50;fill-opacity:.1"/><circle cx="369.4" cy="149.33" r="1.95" clip-path="url(#cpNTIuMDR8NDk4LjUyfDM0OS40NXw1LjQ4)" style="stroke-width:.71;stroke:#f50;stroke-opacity:.1;fill:#f50;fill-opacity:.1"/><circle cx="370.87" cy="111.33" r="1.95" clip-path="url(#cpNTIuMDR8NDk4LjUyfDM0OS40NXw1LjQ4)" style="stroke-width:.71;stroke:#f50;stroke-opacity:.1;fill:#f50;fill-opacity:.1"/><circle cx="378.22" cy="135.27" r="1.95" clip-path="url(#cpNTIuMDR8NDk4LjUyfDM0OS40NXw1LjQ4)" style="stroke-width:.71;stroke:#f50;stroke-opacity:.1;fill:#f50;fill-opacity:.1"/><circle cx="381.16" cy="133.33" r="1.95" clip-path="url(#cpNTIuMDR8NDk4LjUyfDM0OS40NXw1LjQ4)" style="stroke-width:.71;stroke:#f50;stroke-opacity:.1;fill:#f50;fill-opacity:.1"/><circle cx="385.58" cy="117.32" r="1.95" clip-path="url(#cpNTIuMDR8NDk4LjUyfDM0OS40NXw1LjQ4)" style="stroke-width:.71;stroke:#f50;stroke-opacity:.1;fill:#f50;fill-opacity:.1"/><circle cx="397.34" cy="117.32" r="1.95" clip-path="url(#cpNTIuMDR8NDk4LjUyfDM0OS40NXw1LjQ4)" style="stroke-width:.71;stroke:#f50;stroke-opacity:.1;fill:#f50;fill-opacity:.1"/><circle cx="406.16" cy="173.42" r="1.95" clip-path="url(#cpNTIuMDR8NDk4LjUyfDM0OS40NXw1LjQ4)" style="stroke-width:.71;stroke:#f50;stroke-opacity:.1;fill:#f50;fill-opacity:.1"/><circle cx="406.16" cy="155.32" r="1.95" clip-path="url(#cpNTIuMDR8NDk4LjUyfDM0OS40NXw1LjQ4)" style="stroke-width:.71;stroke:#f50;stroke-opacity:.1;fill:#f50;fill-opacity:.1"/><circle cx="413.52" cy="153.22" r="1.95" clip-path="url(#cpNTIuMDR8NDk4LjUyfDM0OS40NXw1LjQ4)" style="stroke-width:.71;stroke:#f50;stroke-opacity:.1;fill:#f50;fill-opacity:.1"/><circle cx="426.75" cy="133.33" r="1.95" clip-path="url(#cpNTIuMDR8NDk4LjUyfDM0OS40NXw1LjQ4)" style="stroke-width:.71;stroke:#f50;stroke-opacity:.1;fill:#f50;fill-opacity:.1"/><circle cx="437.05" cy="117.32" r="1.95" clip-path="url(#cpNTIuMDR8NDk4LjUyfDM0OS40NXw1LjQ4)" style="stroke-width:.71;stroke:#f50;stroke-opacity:.1;fill:#f50;fill-opacity:.1"/><circle cx="445.87" cy="155.32" r="1.95" clip-path="url(#cpNTIuMDR8NDk4LjUyfDM0OS40NXw1LjQ4)" style="stroke-width:.71;stroke:#f50;stroke-opacity:.1;fill:#f50;fill-opacity:.1"/><circle cx="459.11" cy="137.37" r="1.95" clip-path="url(#cpNTIuMDR8NDk4LjUyfDM0OS40NXw1LjQ4)" style="stroke-width:.71;stroke:#f50;stroke-opacity:.1;fill:#f50;fill-opacity:.1"/><circle cx="459.11" cy="117.32" r="1.95" clip-path="url(#cpNTIuMDR8NDk4LjUyfDM0OS40NXw1LjQ4)" style="stroke-width:.71;stroke:#f50;stroke-opacity:.1;fill:#f50;fill-opacity:.1"/><circle cx="462.05" cy="137.37" r="1.95" clip-path="url(#cpNTIuMDR8NDk4LjUyfDM0OS40NXw1LjQ4)" style="stroke-width:.71;stroke:#f50;stroke-opacity:.1;fill:#f50;fill-opacity:.1"/><circle cx="478.23" cy="117.32" r="1.95" clip-path="url(#cpNTIuMDR8NDk4LjUyfDM0OS40NXw1LjQ4)" style="stroke-width:.71;stroke:#f50;stroke-opacity:.1;fill:#f50;fill-opacity:.1"/><polyline points="72.33 133.45 73.8 134.91 78.21 136.5 81.15 136.26 84.1 135.67 100.27 136.02 103.21 136.6 104.68 136.86 112.04 137.55 114.98 137.55 119.39 137.42 119.39 137.42 125.27 137.39 128.21 137.5 129.69 137.58 132.63 137.72 135.57 137.77 138.51 137.63 151.74 136.3 154.69 137.8 156.16 139.22 162.04 151.14 162.04 151.14 162.04 151.14 162.04 151.14 162.04 151.14 162.04 151.14 163.51 155.96 167.92 174.96 167.92 174.96 167.92 174.96 167.92 174.96 169.39 182.66 169.39 182.66 170.86 190.9 170.86 190.9 172.33 199.54 172.33 199.54 173.8 208.44 173.8 208.44 173.8 208.44 175.28 217.42 175.28 217.42 176.75 226.33 178.22 234.97 178.22 234.97 178.22 234.97 184.1 263.77 184.1 263.77 184.1 263.77 184.1 263.77 185.57 268.97 185.57 268.97 191.45 281.21 191.45 281.21 195.86 284.4 197.33 285.25 197.33 285.25 198.81 286.29 203.22 292.12 204.69 295.21 210.57 311.91 212.04 316.26 214.98 323.4 216.45 325.64 225.28 309.67 226.75 302.07 231.16 274.53 232.63 264.76 232.63 264.76 235.57 246.02 238.51 229.57 238.51 229.57 241.45 215.89 241.45 215.89 242.92 209.91 245.87 198.85 247.34 193.37 247.34 193.37 248.81 187.67 253.22 168.04 254.69 160.59 254.69 160.59 254.69 160.59 257.63 144.95 262.04 122.67 263.51 116.4 263.51 116.4 264.98 110.96 270.87 97.52 276.75 90.18 282.63 78.11 284.1 74.29 289.98 61.62 289.98 61.62 295.87 63.25 300.28 75.69 303.22 86.79 307.63 102.36 310.57 109.45 313.51 112.88 313.51 112.88 314.99 113.26 316.46 112.86 316.46 112.86 320.87 108.64 320.87 108.64 334.1 107.6 334.1 107.6 342.93 127.95 344.4 131.3 348.81 138.81 351.75 141 360.58 134.33 360.58 134.33 366.46 124.67 369.4 120.63 369.4 120.63 370.87 119.1 378.22 118.11 381.16 120.9 385.58 127.64 397.34 148.2 406.16 153.23 406.16 153.23 413.52 148.71 426.75 135.48 437.05 133.62 445.87 136.96 459.11 133.74 459.11 133.74 462.05 130.37 478.23 117.23" clip-path="url(#cpNTIuMDR8NDk4LjUyfDM0OS40NXw1LjQ4)" style="stroke-width:1.07;stroke:#1e90ff;stroke-linecap:butt"/><polyline points="72.33 132.62 73.8 133.31 78.21 135.32 81.15 136.6 84.1 137.78 100.27 140.99 103.21 140.72 104.68 140.46 112.04 138.11 114.98 136.77 119.39 134.53 119.39 134.53 125.27 131.59 128.21 130.37 129.69 129.86 132.63 129.15 135.57 128.91 138.51 129.26 151.74 140.55 154.69 145.71 156.16 148.7 162.04 163.44 162.04 163.44 162.04 163.44 162.04 163.44 162.04 163.44 162.04 163.44 163.51 167.8 167.92 182.41 167.92 182.41 167.92 182.41 167.92 182.41 169.39 187.74 169.39 187.74 170.86 193.29 170.86 193.29 172.33 199.02 172.33 199.02 173.8 204.93 173.8 204.93 173.8 204.93 175.28 210.98 175.28 210.98 176.75 217.14 178.22 223.39 178.22 223.39 178.22 223.39 184.1 248.54 184.1 248.54 184.1 248.54 184.1 248.54 185.57 254.7 185.57 254.7 191.45 277.78 191.45 277.78 195.86 292.53 197.33 296.78 197.33 296.78 198.81 300.66 203.22 309.83 204.69 311.99 210.57 315.85 212.04 315.58 214.98 313.52 216.45 311.74 225.28 291.35 226.75 286.49 231.16 269.76 232.63 263.55 232.63 263.55 235.57 250.36 238.51 236.35 238.51 236.35 241.45 221.76 241.45 221.76 242.92 214.34 245.87 199.41 247.34 191.97 247.34 191.97 248.81 184.58 253.22 163.08 254.69 156.23 254.69 156.23 254.69 156.23 257.63 143.14 262.04 125.37 263.51 120.02 263.51 120.02 264.98 114.98 270.87 98.02 276.75 86.3 282.63 79.71 284.1 78.82 289.98 77.99 289.98 77.99 295.87 80.84 300.28 84.77 303.22 88 307.63 93.41 310.57 97.2 313.51 100.99 313.51 100.99 314.99 102.86 316.46 104.69 316.46 104.69 320.87 109.9 320.87 109.9 334.1 122.06 334.1 122.06 342.93 126.75 344.4 127.26 348.81 128.36 351.75 128.78 360.58 129.05 360.58 129.05 366.46 128.93 369.4 128.93 369.4 128.93 370.87 128.96 378.22 129.59 381.16 130.1 385.58 131.17 397.34 135.42 406.16 139.23 406.16 139.23 413.52 142.18 426.75 145.34 437.05 144.7 445.87 141.52 459.11 132.6 459.11 132.6 462.05 130.09 478.23 114.44" clip-path="url(#cpNTIuMDR8NDk4LjUyfDM0OS40NXw1LjQ4)" style="stroke-width:1.07;stroke:#990024;stroke-linecap:butt"/><defs><clipPath id="cpMC4wMHw1MDQuMDB8Mzc4LjAwfDAuMDA="><rect width="504" height="378" x="0" y="0"/></clipPath></defs><g clip-path="url(#cpMC4wMHw1MDQuMDB8Mzc4LjAwfDAuMDA=)"><text x="27.89" y="286.38" lengthAdjust="spacingAndGlyphs" textLength="19.21" style="font-size:9.6px;fill:#4d4d4d;font-family:Arial">-100</text></g><g clip-path="url(#cpMC4wMHw1MDQuMDB8Mzc4LjAwfDAuMDA=)"><text x="33.23" y="211.57" lengthAdjust="spacingAndGlyphs" textLength="13.88" style="font-size:9.6px;fill:#4d4d4d;font-family:Arial">-50</text></g><g clip-path="url(#cpMC4wMHw1MDQuMDB8Mzc4LjAwfDAuMDA=)"><text x="41.77" y="136.76" lengthAdjust="spacingAndGlyphs" textLength="5.34" style="font-size:9.6px;fill:#4d4d4d;font-family:Arial">0</text></g><g clip-path="url(#cpMC4wMHw1MDQuMDB8Mzc4LjAwfDAuMDA=)"><text x="36.43" y="61.95" lengthAdjust="spacingAndGlyphs" textLength="10.68" style="font-size:9.6px;fill:#4d4d4d;font-family:Arial">50</text></g><polyline points="49.3 282.94 52.04 282.94" clip-path="url(#cpMC4wMHw1MDQuMDB8Mzc4LjAwfDAuMDA=)" style="stroke-width:1.07;stroke:#333;stroke-linecap:butt"/><polyline points="49.3 208.13 52.04 208.13" clip-path="url(#cpMC4wMHw1MDQuMDB8Mzc4LjAwfDAuMDA=)" style="stroke-width:1.07;stroke:#333;stroke-linecap:butt"/><polyline points="49.3 133.33 52.04 133.33" clip-path="url(#cpMC4wMHw1MDQuMDB8Mzc4LjAwfDAuMDA=)" style="stroke-width:1.07;stroke:#333;stroke-linecap:butt"/><polyline points="49.3 58.52 52.04 58.52" clip-path="url(#cpMC4wMHw1MDQuMDB8Mzc4LjAwfDAuMDA=)" style="stroke-width:1.07;stroke:#333;stroke-linecap:butt"/><polyline points="54.68 352.19 54.68 349.45" clip-path="url(#cpMC4wMHw1MDQuMDB8Mzc4LjAwfDAuMDA=)" style="stroke-width:1.07;stroke:#333;stroke-linecap:butt"/><polyline points="201.75 352.19 201.75 349.45" clip-path="url(#cpMC4wMHw1MDQuMDB8Mzc4LjAwfDAuMDA=)" style="stroke-width:1.07;stroke:#333;stroke-linecap:butt"/><polyline points="348.81 352.19 348.81 349.45" clip-path="url(#cpMC4wMHw1MDQuMDB8Mzc4LjAwfDAuMDA=)" style="stroke-width:1.07;stroke:#333;stroke-linecap:butt"/><polyline points="495.87 352.19 495.87 349.45" clip-path="url(#cpMC4wMHw1MDQuMDB8Mzc4LjAwfDAuMDA=)" style="stroke-width:1.07;stroke:#333;stroke-linecap:butt"/><g clip-path="url(#cpMC4wMHw1MDQuMDB8Mzc4LjAwfDAuMDA=)"><text x="52.01" y="361.25" lengthAdjust="spacingAndGlyphs" textLength="5.34" style="font-size:9.6px;fill:#4d4d4d;font-family:Arial">0</text></g><g clip-path="url(#cpMC4wMHw1MDQuMDB8Mzc4LjAwfDAuMDA=)"><text x="196.41" y="361.25" lengthAdjust="spacingAndGlyphs" textLength="10.68" style="font-size:9.6px;fill:#4d4d4d;font-family:Arial">20</text></g><g clip-path="url(#cpMC4wMHw1MDQuMDB8Mzc4LjAwfDAuMDA=)"><text x="343.47" y="361.25" lengthAdjust="spacingAndGlyphs" textLength="10.68" style="font-size:9.6px;fill:#4d4d4d;font-family:Arial">40</text></g><g clip-path="url(#cpMC4wMHw1MDQuMDB8Mzc4LjAwfDAuMDA=)"><text x="490.53" y="361.25" lengthAdjust="spacingAndGlyphs" textLength="10.68" style="font-size:9.6px;fill:#4d4d4d;font-family:Arial">60</text></g><g clip-path="url(#cpMC4wMHw1MDQuMDB8Mzc4LjAwfDAuMDA=)"><text x="475.58" y="371.42" lengthAdjust="spacingAndGlyphs" textLength="22.94" style="font-size:9.6px;fill:#4d4d4d;font-family:Arial">times</text></g><g clip-path="url(#cpMC4wMHw1MDQuMDB8Mzc4LjAwfDAuMDA=)"><text x="5.48" y="12.35" lengthAdjust="spacingAndGlyphs" textLength="22.41" style="font-size:9.6px;fill:#4d4d4d;font-family:Arial">accel</text></g></svg>