<svg xmlns="http://www.w3.org/2000/svg" xmlns:xlink="http://www.w3.org/1999/xlink" viewBox="0 0 504 378"><defs><style type="text/css">circle,polyline,rect{fill:none;stroke:#000;stroke-linecap:round;stroke-linejoin:round;stroke-miterlimit:10}</style></defs><rect width="100%" height="100%" style="stroke:none;fill:none"/><rect width="504" height="378" x="0" y="0" style="stroke-width:1.07;stroke:#fff;fill:#fff"/><defs><clipPath id="cpNDEuMDZ8NDk4LjUyfDM0Ni4yOHw1LjQ4"><rect width="457.46" height="340.8" x="41.06" y="5.48"/></clipPath></defs><rect width="457.46" height="340.8" x="41.06" y="5.48" clip-path="url(#cpNDEuMDZ8NDk4LjUyfDM0Ni4yOHw1LjQ4)" style="stroke-width:1.07;stroke:none;fill:#ebebeb"/><polyline points="41.06 317.44 498.52 317.44" clip-path="url(#cpNDEuMDZ8NDk4LjUyfDM0Ni4yOHw1LjQ4)" style="stroke-width:.53;stroke:#fff;stroke-linecap:butt"/><polyline points="41.06 243.33 498.52 243.33" clip-path="url(#cpNDEuMDZ8NDk4LjUyfDM0Ni4yOHw1LjQ4)" style="stroke-width:.53;stroke:#fff;stroke-linecap:butt"/><polyline points="41.06 169.21 498.52 169.21" clip-path="url(#cpNDEuMDZ8NDk4LjUyfDM0Ni4yOHw1LjQ4)" style="stroke-width:.53;stroke:#fff;stroke-linecap:butt"/><polyline points="41.06 95.09 498.52 95.09" clip-path="url(#cpNDEuMDZ8NDk4LjUyfDM0Ni4yOHw1LjQ4)" style="stroke-width:.53;stroke:#fff;stroke-linecap:butt"/><polyline points="41.06 20.97 498.52 20.97" clip-path="url(#cpNDEuMDZ8NDk4LjUyfDM0Ni4yOHw1LjQ4)" style="stroke-width:.53;stroke:#fff;stroke-linecap:butt"/><polyline points="119.11 346.28 119.11 5.48" clip-path="url(#cpNDEuMDZ8NDk4LjUyfDM0Ni4yOHw1LjQ4)" style="stroke-width:.53;stroke:#fff;stroke-linecap:butt"/><polyline points="269.79 346.28 269.79 5.48" clip-path="url(#cpNDEuMDZ8NDk4LjUyfDM0Ni4yOHw1LjQ4)" style="stroke-width:.53;stroke:#fff;stroke-linecap:butt"/><polyline points="420.47 346.28 420.47 5.48" clip-path="url(#cpNDEuMDZ8NDk4LjUyfDM0Ni4yOHw1LjQ4)" style="stroke-width:.53;stroke:#fff;stroke-linecap:butt"/><polyline points="41.06 280.38 498.52 280.38" clip-path="url(#cpNDEuMDZ8NDk4LjUyfDM0Ni4yOHw1LjQ4)" style="stroke-width:1.07;stroke:#fff;stroke-linecap:butt"/><polyline points="41.06 206.27 498.52 206.27" clip-path="url(#cpNDEuMDZ8NDk4LjUyfDM0Ni4yOHw1LjQ4)" style="stroke-width:1.07;stroke:#fff;stroke-linecap:butt"/><polyline points="41.06 132.15 498.52 132.15" clip-path="url(#cpNDEuMDZ8NDk4LjUyfDM0Ni4yOHw1LjQ4)" style="stroke-width:1.07;stroke:#fff;stroke-linecap:butt"/><polyline points="41.06 58.03 498.52 58.03" clip-path="url(#cpNDEuMDZ8NDk4LjUyfDM0Ni4yOHw1LjQ4)" style="stroke-width:1.07;stroke:#fff;stroke-linecap:butt"/><polyline points="43.77 346.28 43.77 5.48" clip-path="url(#cpNDEuMDZ8NDk4LjUyfDM0Ni4yOHw1LjQ4)" style="stroke-width:1.07;stroke:#fff;stroke-linecap:butt"/><polyline points="194.45 346.28 194.45 5.48" clip-path="url(#cpNDEuMDZ8NDk4LjUyfDM0Ni4yOHw1LjQ4)" style="stroke-width:1.07;stroke:#fff;stroke-linecap:butt"/><polyline points="345.13 346.28 345.13 5.48" clip-path="url(#cpNDEuMDZ8NDk4LjUyfDM0Ni4yOHw1LjQ4)" style="stroke-width:1.07;stroke:#fff;stroke-linecap:butt"/><polyline points="495.81 346.28 495.81 5.48" clip-path="url(#cpNDEuMDZ8NDk4LjUyfDM0Ni4yOHw1LjQ4)" style="stroke-width:1.07;stroke:#fff;stroke-linecap:butt"/><circle cx="61.85" cy="132.15" r="1.95" clip-path="url(#cpNDEuMDZ8NDk4LjUyfDM0Ni4yOHw1LjQ4)" style="stroke-width:.71;stroke:#000;stroke-opacity:.5;fill:#000;fill-opacity:.5"/><circle cx="63.36" cy="134.07" r="1.95" clip-path="url(#cpNDEuMDZ8NDk4LjUyfDM0Ni4yOHw1LjQ4)" style="stroke-width:.71;stroke:#000;stroke-opacity:.5;fill:#000;fill-opacity:.5"/><circle cx="67.88" cy="136.15" r="1.95" clip-path="url(#cpNDEuMDZ8NDk4LjUyfDM0Ni4yOHw1LjQ4)" style="stroke-width:.71;stroke:#000;stroke-opacity:.5;fill:#000;fill-opacity:.5"/><circle cx="70.89" cy="132.15" r="1.95" clip-path="url(#cpNDEuMDZ8NDk4LjUyfDM0Ni4yOHw1LjQ4)" style="stroke-width:.71;stroke:#000;stroke-opacity:.5;fill:#000;fill-opacity:.5"/><circle cx="73.91" cy="136.15" r="1.95" clip-path="url(#cpNDEuMDZ8NDk4LjUyfDM0Ni4yOHw1LjQ4)" style="stroke-width:.71;stroke:#000;stroke-opacity:.5;fill:#000;fill-opacity:.5"/><circle cx="90.48" cy="136.15" r="1.95" clip-path="url(#cpNDEuMDZ8NDk4LjUyfDM0Ni4yOHw1LjQ4)" style="stroke-width:.71;stroke:#000;stroke-opacity:.5;fill:#000;fill-opacity:.5"/><circle cx="93.49" cy="136.15" r="1.95" clip-path="url(#cpNDEuMDZ8NDk4LjUyfDM0Ni4yOHw1LjQ4)" style="stroke-width:.71;stroke:#000;stroke-opacity:.5;fill:#000;fill-opacity:.5"/><circle cx="95" cy="134.07" r="1.95" clip-path="url(#cpNDEuMDZ8NDk4LjUyfDM0Ni4yOHw1LjQ4)" style="stroke-width:.71;stroke:#000;stroke-opacity:.5;fill:#000;fill-opacity:.5"/><circle cx="102.53" cy="136.15" r="1.95" clip-path="url(#cpNDEuMDZ8NDk4LjUyfDM0Ni4yOHw1LjQ4)" style="stroke-width:.71;stroke:#000;stroke-opacity:.5;fill:#000;fill-opacity:.5"/><circle cx="105.55" cy="136.15" r="1.95" clip-path="url(#cpNDEuMDZ8NDk4LjUyfDM0Ni4yOHw1LjQ4)" style="stroke-width:.71;stroke:#000;stroke-opacity:.5;fill:#000;fill-opacity:.5"/><circle cx="110.07" cy="134.07" r="1.95" clip-path="url(#cpNDEuMDZ8NDk4LjUyfDM0Ni4yOHw1LjQ4)" style="stroke-width:.71;stroke:#000;stroke-opacity:.5;fill:#000;fill-opacity:.5"/><circle cx="110.07" cy="136.15" r="1.95" clip-path="url(#cpNDEuMDZ8NDk4LjUyfDM0Ni4yOHw1LjQ4)" style="stroke-width:.71;stroke:#000;stroke-opacity:.5;fill:#000;fill-opacity:.5"/><circle cx="116.1" cy="136.15" r="1.95" clip-path="url(#cpNDEuMDZ8NDk4LjUyfDM0Ni4yOHw1LjQ4)" style="stroke-width:.71;stroke:#000;stroke-opacity:.5;fill:#000;fill-opacity:.5"/><circle cx="119.11" cy="136.15" r="1.95" clip-path="url(#cpNDEuMDZ8NDk4LjUyfDM0Ni4yOHw1LjQ4)" style="stroke-width:.71;stroke:#000;stroke-opacity:.5;fill:#000;fill-opacity:.5"/><circle cx="120.62" cy="140.15" r="1.95" clip-path="url(#cpNDEuMDZ8NDk4LjUyfDM0Ni4yOHw1LjQ4)" style="stroke-width:.71;stroke:#000;stroke-opacity:.5;fill:#000;fill-opacity:.5"/><circle cx="123.63" cy="136.15" r="1.95" clip-path="url(#cpNDEuMDZ8NDk4LjUyfDM0Ni4yOHw1LjQ4)" style="stroke-width:.71;stroke:#000;stroke-opacity:.5;fill:#000;fill-opacity:.5"/><circle cx="126.64" cy="140.15" r="1.95" clip-path="url(#cpNDEuMDZ8NDk4LjUyfDM0Ni4yOHw1LjQ4)" style="stroke-width:.71;stroke:#000;stroke-opacity:.5;fill:#000;fill-opacity:.5"/><circle cx="129.66" cy="132.15" r="1.95" clip-path="url(#cpNDEuMDZ8NDk4LjUyfDM0Ni4yOHw1LjQ4)" style="stroke-width:.71;stroke:#000;stroke-opacity:.5;fill:#000;fill-opacity:.5"/><circle cx="143.22" cy="136.15" r="1.95" clip-path="url(#cpNDEuMDZ8NDk4LjUyfDM0Ni4yOHw1LjQ4)" style="stroke-width:.71;stroke:#000;stroke-opacity:.5;fill:#000;fill-opacity:.5"/><circle cx="146.23" cy="136.15" r="1.95" clip-path="url(#cpNDEuMDZ8NDk4LjUyfDM0Ni4yOHw1LjQ4)" style="stroke-width:.71;stroke:#000;stroke-opacity:.5;fill:#000;fill-opacity:.5"/><circle cx="147.74" cy="132.15" r="1.95" clip-path="url(#cpNDEuMDZ8NDk4LjUyfDM0Ni4yOHw1LjQ4)" style="stroke-width:.71;stroke:#000;stroke-opacity:.5;fill:#000;fill-opacity:.5"/><circle cx="153.77" cy="151.86" r="1.95" clip-path="url(#cpNDEuMDZ8NDk4LjUyfDM0Ni4yOHw1LjQ4)" style="stroke-width:.71;stroke:#000;stroke-opacity:.5;fill:#000;fill-opacity:.5"/><circle cx="153.77" cy="140.15" r="1.95" clip-path="url(#cpNDEuMDZ8NDk4LjUyfDM0Ni4yOHw1LjQ4)" style="stroke-width:.71;stroke:#000;stroke-opacity:.5;fill:#000;fill-opacity:.5"/><circle cx="153.77" cy="140.15" r="1.95" clip-path="url(#cpNDEuMDZ8NDk4LjUyfDM0Ni4yOHw1LjQ4)" style="stroke-width:.71;stroke:#000;stroke-opacity:.5;fill:#000;fill-opacity:.5"/><circle cx="153.77" cy="145.93" r="1.95" clip-path="url(#cpNDEuMDZ8NDk4LjUyfDM0Ni4yOHw1LjQ4)" style="stroke-width:.71;stroke:#000;stroke-opacity:.5;fill:#000;fill-opacity:.5"/><circle cx="153.77" cy="155.87" r="1.95" clip-path="url(#cpNDEuMDZ8NDk4LjUyfDM0Ni4yOHw1LjQ4)" style="stroke-width:.71;stroke:#000;stroke-opacity:.5;fill:#000;fill-opacity:.5"/><circle cx="153.77" cy="165.95" r="1.95" clip-path="url(#cpNDEuMDZ8NDk4LjUyfDM0Ni4yOHw1LjQ4)" style="stroke-width:.71;stroke:#000;stroke-opacity:.5;fill:#000;fill-opacity:.5"/><circle cx="155.27" cy="136.15" r="1.95" clip-path="url(#cpNDEuMDZ8NDk4LjUyfDM0Ni4yOHw1LjQ4)" style="stroke-width:.71;stroke:#000;stroke-opacity:.5;fill:#000;fill-opacity:.5"/><circle cx="159.79" cy="165.95" r="1.95" clip-path="url(#cpNDEuMDZ8NDk4LjUyfDM0Ni4yOHw1LjQ4)" style="stroke-width:.71;stroke:#000;stroke-opacity:.5;fill:#000;fill-opacity:.5"/><circle cx="159.79" cy="179.73" r="1.95" clip-path="url(#cpNDEuMDZ8NDk4LjUyfDM0Ni4yOHw1LjQ4)" style="stroke-width:.71;stroke:#000;stroke-opacity:.5;fill:#000;fill-opacity:.5"/><circle cx="159.79" cy="211.45" r="1.95" clip-path="url(#cpNDEuMDZ8NDk4LjUyfDM0Ni4yOHw1LjQ4)" style="stroke-width:.71;stroke:#000;stroke-opacity:.5;fill:#000;fill-opacity:.5"/><circle cx="159.79" cy="213.53" r="1.95" clip-path="url(#cpNDEuMDZ8NDk4LjUyfDM0Ni4yOHw1LjQ4)" style="stroke-width:.71;stroke:#000;stroke-opacity:.5;fill:#000;fill-opacity:.5"/><circle cx="161.3" cy="191.74" r="1.95" clip-path="url(#cpNDEuMDZ8NDk4LjUyfDM0Ni4yOHw1LjQ4)" style="stroke-width:.71;stroke:#000;stroke-opacity:.5;fill:#000;fill-opacity:.5"/><circle cx="161.3" cy="164.02" r="1.95" clip-path="url(#cpNDEuMDZ8NDk4LjUyfDM0Ni4yOHw1LjQ4)" style="stroke-width:.71;stroke:#000;stroke-opacity:.5;fill:#000;fill-opacity:.5"/><circle cx="162.81" cy="164.02" r="1.95" clip-path="url(#cpNDEuMDZ8NDk4LjUyfDM0Ni4yOHw1LjQ4)" style="stroke-width:.71;stroke:#000;stroke-opacity:.5;fill:#000;fill-opacity:.5"/><circle cx="162.81" cy="207.45" r="1.95" clip-path="url(#cpNDEuMDZ8NDk4LjUyfDM0Ni4yOHw1LjQ4)" style="stroke-width:.71;stroke:#000;stroke-opacity:.5;fill:#000;fill-opacity:.5"/><circle cx="164.31" cy="195.74" r="1.95" clip-path="url(#cpNDEuMDZ8NDk4LjUyfDM0Ni4yOHw1LjQ4)" style="stroke-width:.71;stroke:#000;stroke-opacity:.5;fill:#000;fill-opacity:.5"/><circle cx="164.31" cy="171.88" r="1.95" clip-path="url(#cpNDEuMDZ8NDk4LjUyfDM0Ni4yOHw1LjQ4)" style="stroke-width:.71;stroke:#000;stroke-opacity:.5;fill:#000;fill-opacity:.5"/><circle cx="165.82" cy="164.02" r="1.95" clip-path="url(#cpNDEuMDZ8NDk4LjUyfDM0Ni4yOHw1LjQ4)" style="stroke-width:.71;stroke:#000;stroke-opacity:.5;fill:#000;fill-opacity:.5"/><circle cx="165.82" cy="207.45" r="1.95" clip-path="url(#cpNDEuMDZ8NDk4LjUyfDM0Ni4yOHw1LjQ4)" style="stroke-width:.71;stroke:#000;stroke-opacity:.5;fill:#000;fill-opacity:.5"/><circle cx="165.82" cy="223.61" r="1.95" clip-path="url(#cpNDEuMDZ8NDk4LjUyfDM0Ni4yOHw1LjQ4)" style="stroke-width:.71;stroke:#000;stroke-opacity:.5;fill:#000;fill-opacity:.5"/><circle cx="167.33" cy="140.15" r="1.95" clip-path="url(#cpNDEuMDZ8NDk4LjUyfDM0Ni4yOHw1LjQ4)" style="stroke-width:.71;stroke:#000;stroke-opacity:.5;fill:#000;fill-opacity:.5"/><circle cx="167.33" cy="251.33" r="1.95" clip-path="url(#cpNDEuMDZ8NDk4LjUyfDM0Ni4yOHw1LjQ4)" style="stroke-width:.71;stroke:#000;stroke-opacity:.5;fill:#000;fill-opacity:.5"/><circle cx="168.83" cy="219.61" r="1.95" clip-path="url(#cpNDEuMDZ8NDk4LjUyfDM0Ni4yOHw1LjQ4)" style="stroke-width:.71;stroke:#000;stroke-opacity:.5;fill:#000;fill-opacity:.5"/><circle cx="170.34" cy="237.4" r="1.95" clip-path="url(#cpNDEuMDZ8NDk4LjUyfDM0Ni4yOHw1LjQ4)" style="stroke-width:.71;stroke:#000;stroke-opacity:.5;fill:#000;fill-opacity:.5"/><circle cx="170.34" cy="267.19" r="1.95" clip-path="url(#cpNDEuMDZ8NDk4LjUyfDM0Ni4yOHw1LjQ4)" style="stroke-width:.71;stroke:#000;stroke-opacity:.5;fill:#000;fill-opacity:.5"/><circle cx="170.34" cy="247.33" r="1.95" clip-path="url(#cpNDEuMDZ8NDk4LjUyfDM0Ni4yOHw1LjQ4)" style="stroke-width:.71;stroke:#000;stroke-opacity:.5;fill:#000;fill-opacity:.5"/><circle cx="176.37" cy="187.74" r="1.95" clip-path="url(#cpNDEuMDZ8NDk4LjUyfDM0Ni4yOHw1LjQ4)" style="stroke-width:.71;stroke:#000;stroke-opacity:.5;fill:#000;fill-opacity:.5"/><circle cx="176.37" cy="259.04" r="1.95" clip-path="url(#cpNDEuMDZ8NDk4LjUyfDM0Ni4yOHw1LjQ4)" style="stroke-width:.71;stroke:#000;stroke-opacity:.5;fill:#000;fill-opacity:.5"/><circle cx="176.37" cy="314.63" r="1.95" clip-path="url(#cpNDEuMDZ8NDk4LjUyfDM0Ni4yOHw1LjQ4)" style="stroke-width:.71;stroke:#000;stroke-opacity:.5;fill:#000;fill-opacity:.5"/><circle cx="176.37" cy="283.2" r="1.95" clip-path="url(#cpNDEuMDZ8NDk4LjUyfDM0Ni4yOHw1LjQ4)" style="stroke-width:.71;stroke:#000;stroke-opacity:.5;fill:#000;fill-opacity:.5"/><circle cx="177.87" cy="279.05" r="1.95" clip-path="url(#cpNDEuMDZ8NDk4LjUyfDM0Ni4yOHw1LjQ4)" style="stroke-width:.71;stroke:#000;stroke-opacity:.5;fill:#000;fill-opacity:.5"/><circle cx="177.87" cy="286.91" r="1.95" clip-path="url(#cpNDEuMDZ8NDk4LjUyfDM0Ni4yOHw1LjQ4)" style="stroke-width:.71;stroke:#000;stroke-opacity:.5;fill:#000;fill-opacity:.5"/><circle cx="183.9" cy="298.91" r="1.95" clip-path="url(#cpNDEuMDZ8NDk4LjUyfDM0Ni4yOHw1LjQ4)" style="stroke-width:.71;stroke:#000;stroke-opacity:.5;fill:#000;fill-opacity:.5"/><circle cx="183.9" cy="207.45" r="1.95" clip-path="url(#cpNDEuMDZ8NDk4LjUyfDM0Ni4yOHw1LjQ4)" style="stroke-width:.71;stroke:#000;stroke-opacity:.5;fill:#000;fill-opacity:.5"/><circle cx="188.42" cy="314.63" r="1.95" clip-path="url(#cpNDEuMDZ8NDk4LjUyfDM0Ni4yOHw1LjQ4)" style="stroke-width:.71;stroke:#000;stroke-opacity:.5;fill:#000;fill-opacity:.5"/><circle cx="189.93" cy="259.04" r="1.95" clip-path="url(#cpNDEuMDZ8NDk4LjUyfDM0Ni4yOHw1LjQ4)" style="stroke-width:.71;stroke:#000;stroke-opacity:.5;fill:#000;fill-opacity:.5"/><circle cx="189.93" cy="239.32" r="1.95" clip-path="url(#cpNDEuMDZ8NDk4LjUyfDM0Ni4yOHw1LjQ4)" style="stroke-width:.71;stroke:#000;stroke-opacity:.5;fill:#000;fill-opacity:.5"/><circle cx="191.44" cy="320.71" r="1.95" clip-path="url(#cpNDEuMDZ8NDk4LjUyfDM0Ni4yOHw1LjQ4)" style="stroke-width:.71;stroke:#000;stroke-opacity:.5;fill:#000;fill-opacity:.5"/><circle cx="195.96" cy="314.63" r="1.95" clip-path="url(#cpNDEuMDZ8NDk4LjUyfDM0Ni4yOHw1LjQ4)" style="stroke-width:.71;stroke:#000;stroke-opacity:.5;fill:#000;fill-opacity:.5"/><circle cx="197.46" cy="306.92" r="1.95" clip-path="url(#cpNDEuMDZ8NDk4LjUyfDM0Ni4yOHw1LjQ4)" style="stroke-width:.71;stroke:#000;stroke-opacity:.5;fill:#000;fill-opacity:.5"/><circle cx="203.49" cy="330.79" r="1.95" clip-path="url(#cpNDEuMDZ8NDk4LjUyfDM0Ni4yOHw1LjQ4)" style="stroke-width:.71;stroke:#000;stroke-opacity:.5;fill:#000;fill-opacity:.5"/><circle cx="205" cy="283.2" r="1.95" clip-path="url(#cpNDEuMDZ8NDk4LjUyfDM0Ni4yOHw1LjQ4)" style="stroke-width:.71;stroke:#000;stroke-opacity:.5;fill:#000;fill-opacity:.5"/><circle cx="208.01" cy="292.84" r="1.95" clip-path="url(#cpNDEuMDZ8NDk4LjUyfDM0Ni4yOHw1LjQ4)" style="stroke-width:.71;stroke:#000;stroke-opacity:.5;fill:#000;fill-opacity:.5"/><circle cx="209.52" cy="314.63" r="1.95" clip-path="url(#cpNDEuMDZ8NDk4LjUyfDM0Ni4yOHw1LjQ4)" style="stroke-width:.71;stroke:#000;stroke-opacity:.5;fill:#000;fill-opacity:.5"/><circle cx="218.56" cy="314.63" r="1.95" clip-path="url(#cpNDEuMDZ8NDk4LjUyfDM0Ni4yOHw1LjQ4)" style="stroke-width:.71;stroke:#000;stroke-opacity:.5;fill:#000;fill-opacity:.5"/><circle cx="220.06" cy="322.63" r="1.95" clip-path="url(#cpNDEuMDZ8NDk4LjUyfDM0Ni4yOHw1LjQ4)" style="stroke-width:.71;stroke:#000;stroke-opacity:.5;fill:#000;fill-opacity:.5"/><circle cx="224.59" cy="298.91" r="1.95" clip-path="url(#cpNDEuMDZ8NDk4LjUyfDM0Ni4yOHw1LjQ4)" style="stroke-width:.71;stroke:#000;stroke-opacity:.5;fill:#000;fill-opacity:.5"/><circle cx="226.09" cy="273.12" r="1.95" clip-path="url(#cpNDEuMDZ8NDk4LjUyfDM0Ni4yOHw1LjQ4)" style="stroke-width:.71;stroke:#000;stroke-opacity:.5;fill:#000;fill-opacity:.5"/><circle cx="226.09" cy="253.41" r="1.95" clip-path="url(#cpNDEuMDZ8NDk4LjUyfDM0Ni4yOHw1LjQ4)" style="stroke-width:.71;stroke:#000;stroke-opacity:.5;fill:#000;fill-opacity:.5"/><circle cx="229.11" cy="211.45" r="1.95" clip-path="url(#cpNDEuMDZ8NDk4LjUyfDM0Ni4yOHw1LjQ4)" style="stroke-width:.71;stroke:#000;stroke-opacity:.5;fill:#000;fill-opacity:.5"/><circle cx="232.12" cy="227.61" r="1.95" clip-path="url(#cpNDEuMDZ8NDk4LjUyfDM0Ni4yOHw1LjQ4)" style="stroke-width:.71;stroke:#000;stroke-opacity:.5;fill:#000;fill-opacity:.5"/><circle cx="232.12" cy="217.53" r="1.95" clip-path="url(#cpNDEuMDZ8NDk4LjUyfDM0Ni4yOHw1LjQ4)" style="stroke-width:.71;stroke:#000;stroke-opacity:.5;fill:#000;fill-opacity:.5"/><circle cx="235.13" cy="239.32" r="1.95" clip-path="url(#cpNDEuMDZ8NDk4LjUyfDM0Ni4yOHw1LjQ4)" style="stroke-width:.71;stroke:#000;stroke-opacity:.5;fill:#000;fill-opacity:.5"/><circle cx="235.13" cy="197.82" r="1.95" clip-path="url(#cpNDEuMDZ8NDk4LjUyfDM0Ni4yOHw1LjQ4)" style="stroke-width:.71;stroke:#000;stroke-opacity:.5;fill:#000;fill-opacity:.5"/><circle cx="236.64" cy="171.88" r="1.95" clip-path="url(#cpNDEuMDZ8NDk4LjUyfDM0Ni4yOHw1LjQ4)" style="stroke-width:.71;stroke:#000;stroke-opacity:.5;fill:#000;fill-opacity:.5"/><circle cx="239.65" cy="140.15" r="1.95" clip-path="url(#cpNDEuMDZ8NDk4LjUyfDM0Ni4yOHw1LjQ4)" style="stroke-width:.71;stroke:#000;stroke-opacity:.5;fill:#000;fill-opacity:.5"/><circle cx="241.16" cy="290.91" r="1.95" clip-path="url(#cpNDEuMDZ8NDk4LjUyfDM0Ni4yOHw1LjQ4)" style="stroke-width:.71;stroke:#000;stroke-opacity:.5;fill:#000;fill-opacity:.5"/><circle cx="241.16" cy="164.02" r="1.95" clip-path="url(#cpNDEuMDZ8NDk4LjUyfDM0Ni4yOHw1LjQ4)" style="stroke-width:.71;stroke:#000;stroke-opacity:.5;fill:#000;fill-opacity:.5"/><circle cx="242.67" cy="229.39" r="1.95" clip-path="url(#cpNDEuMDZ8NDk4LjUyfDM0Ni4yOHw1LjQ4)" style="stroke-width:.71;stroke:#000;stroke-opacity:.5;fill:#000;fill-opacity:.5"/><circle cx="247.19" cy="155.87" r="1.95" clip-path="url(#cpNDEuMDZ8NDk4LjUyfDM0Ni4yOHw1LjQ4)" style="stroke-width:.71;stroke:#000;stroke-opacity:.5;fill:#000;fill-opacity:.5"/><circle cx="248.69" cy="199.74" r="1.95" clip-path="url(#cpNDEuMDZ8NDk4LjUyfDM0Ni4yOHw1LjQ4)" style="stroke-width:.71;stroke:#000;stroke-opacity:.5;fill:#000;fill-opacity:.5"/><circle cx="248.69" cy="168.02" r="1.95" clip-path="url(#cpNDEuMDZ8NDk4LjUyfDM0Ni4yOHw1LjQ4)" style="stroke-width:.71;stroke:#000;stroke-opacity:.5;fill:#000;fill-opacity:.5"/><circle cx="248.69" cy="118.07" r="1.95" clip-path="url(#cpNDEuMDZ8NDk4LjUyfDM0Ni4yOHw1LjQ4)" style="stroke-width:.71;stroke:#000;stroke-opacity:.5;fill:#000;fill-opacity:.5"/><circle cx="251.71" cy="126.22" r="1.95" clip-path="url(#cpNDEuMDZ8NDk4LjUyfDM0Ni4yOHw1LjQ4)" style="stroke-width:.71;stroke:#000;stroke-opacity:.5;fill:#000;fill-opacity:.5"/><circle cx="256.23" cy="114.36" r="1.95" clip-path="url(#cpNDEuMDZ8NDk4LjUyfDM0Ni4yOHw1LjQ4)" style="stroke-width:.71;stroke:#000;stroke-opacity:.5;fill:#000;fill-opacity:.5"/><circle cx="257.73" cy="164.02" r="1.95" clip-path="url(#cpNDEuMDZ8NDk4LjUyfDM0Ni4yOHw1LjQ4)" style="stroke-width:.71;stroke:#000;stroke-opacity:.5;fill:#000;fill-opacity:.5"/><circle cx="257.73" cy="76.56" r="1.95" clip-path="url(#cpNDEuMDZ8NDk4LjUyfDM0Ni4yOHw1LjQ4)" style="stroke-width:.71;stroke:#000;stroke-opacity:.5;fill:#000;fill-opacity:.5"/><circle cx="259.24" cy="62.62" r="1.95" clip-path="url(#cpNDEuMDZ8NDk4LjUyfDM0Ni4yOHw1LjQ4)" style="stroke-width:.71;stroke:#000;stroke-opacity:.5;fill:#000;fill-opacity:.5"/><circle cx="265.27" cy="157.94" r="1.95" clip-path="url(#cpNDEuMDZ8NDk4LjUyfDM0Ni4yOHw1LjQ4)" style="stroke-width:.71;stroke:#000;stroke-opacity:.5;fill:#000;fill-opacity:.5"/><circle cx="271.3" cy="78.49" r="1.95" clip-path="url(#cpNDEuMDZ8NDk4LjUyfDM0Ni4yOHw1LjQ4)" style="stroke-width:.71;stroke:#000;stroke-opacity:.5;fill:#000;fill-opacity:.5"/><circle cx="277.32" cy="20.97" r="1.95" clip-path="url(#cpNDEuMDZ8NDk4LjUyfDM0Ni4yOHw1LjQ4)" style="stroke-width:.71;stroke:#000;stroke-opacity:.5;fill:#000;fill-opacity:.5"/><circle cx="278.83" cy="120.14" r="1.95" clip-path="url(#cpNDEuMDZ8NDk4LjUyfDM0Ni4yOHw1LjQ4)" style="stroke-width:.71;stroke:#000;stroke-opacity:.5;fill:#000;fill-opacity:.5"/><circle cx="284.86" cy="50.77" r="1.95" clip-path="url(#cpNDEuMDZ8NDk4LjUyfDM0Ni4yOHw1LjQ4)" style="stroke-width:.71;stroke:#000;stroke-opacity:.5;fill:#000;fill-opacity:.5"/><circle cx="284.86" cy="60.7" r="1.95" clip-path="url(#cpNDEuMDZ8NDk4LjUyfDM0Ni4yOHw1LjQ4)" style="stroke-width:.71;stroke:#000;stroke-opacity:.5;fill:#000;fill-opacity:.5"/><circle cx="290.88" cy="62.62" r="1.95" clip-path="url(#cpNDEuMDZ8NDk4LjUyfDM0Ni4yOHw1LjQ4)" style="stroke-width:.71;stroke:#000;stroke-opacity:.5;fill:#000;fill-opacity:.5"/><circle cx="295.4" cy="108.43" r="1.95" clip-path="url(#cpNDEuMDZ8NDk4LjUyfDM0Ni4yOHw1LjQ4)" style="stroke-width:.71;stroke:#000;stroke-opacity:.5;fill:#000;fill-opacity:.5"/><circle cx="298.42" cy="64.55" r="1.95" clip-path="url(#cpNDEuMDZ8NDk4LjUyfDM0Ni4yOHw1LjQ4)" style="stroke-width:.71;stroke:#000;stroke-opacity:.5;fill:#000;fill-opacity:.5"/><circle cx="302.94" cy="130.22" r="1.95" clip-path="url(#cpNDEuMDZ8NDk4LjUyfDM0Ni4yOHw1LjQ4)" style="stroke-width:.71;stroke:#000;stroke-opacity:.5;fill:#000;fill-opacity:.5"/><circle cx="305.95" cy="20.97" r="1.95" clip-path="url(#cpNDEuMDZ8NDk4LjUyfDM0Ni4yOHw1LjQ4)" style="stroke-width:.71;stroke:#000;stroke-opacity:.5;fill:#000;fill-opacity:.5"/><circle cx="308.97" cy="155.87" r="1.95" clip-path="url(#cpNDEuMDZ8NDk4LjUyfDM0Ni4yOHw1LjQ4)" style="stroke-width:.71;stroke:#000;stroke-opacity:.5;fill:#000;fill-opacity:.5"/><circle cx="308.97" cy="213.53" r="1.95" clip-path="url(#cpNDEuMDZ8NDk4LjUyfDM0Ni4yOHw1LjQ4)" style="stroke-width:.71;stroke:#000;stroke-opacity:.5;fill:#000;fill-opacity:.5"/><circle cx="310.47" cy="28.97" r="1.95" clip-path="url(#cpNDEuMDZ8NDk4LjUyfDM0Ni4yOHw1LjQ4)" style="stroke-width:.71;stroke:#000;stroke-opacity:.5;fill:#000;fill-opacity:.5"/><circle cx="311.98" cy="80.56" r="1.95" clip-path="url(#cpNDEuMDZ8NDk4LjUyfDM0Ni4yOHw1LjQ4)" style="stroke-width:.71;stroke:#000;stroke-opacity:.5;fill:#000;fill-opacity:.5"/><circle cx="311.98" cy="84.56" r="1.95" clip-path="url(#cpNDEuMDZ8NDk4LjUyfDM0Ni4yOHw1LjQ4)" style="stroke-width:.71;stroke:#000;stroke-opacity:.5;fill:#000;fill-opacity:.5"/><circle cx="316.5" cy="187.74" r="1.95" clip-path="url(#cpNDEuMDZ8NDk4LjUyfDM0Ni4yOHw1LjQ4)" style="stroke-width:.71;stroke:#000;stroke-opacity:.5;fill:#000;fill-opacity:.5"/><circle cx="316.5" cy="98.35" r="1.95" clip-path="url(#cpNDEuMDZ8NDk4LjUyfDM0Ni4yOHw1LjQ4)" style="stroke-width:.71;stroke:#000;stroke-opacity:.5;fill:#000;fill-opacity:.5"/><circle cx="330.06" cy="62.62" r="1.95" clip-path="url(#cpNDEuMDZ8NDk4LjUyfDM0Ni4yOHw1LjQ4)" style="stroke-width:.71;stroke:#000;stroke-opacity:.5;fill:#000;fill-opacity:.5"/><circle cx="330.06" cy="116.29" r="1.95" clip-path="url(#cpNDEuMDZ8NDk4LjUyfDM0Ni4yOHw1LjQ4)" style="stroke-width:.71;stroke:#000;stroke-opacity:.5;fill:#000;fill-opacity:.5"/><circle cx="339.1" cy="124.14" r="1.95" clip-path="url(#cpNDEuMDZ8NDk4LjUyfDM0Ni4yOHw1LjQ4)" style="stroke-width:.71;stroke:#000;stroke-opacity:.5;fill:#000;fill-opacity:.5"/><circle cx="340.61" cy="134.07" r="1.95" clip-path="url(#cpNDEuMDZ8NDk4LjUyfDM0Ni4yOHw1LjQ4)" style="stroke-width:.71;stroke:#000;stroke-opacity:.5;fill:#000;fill-opacity:.5"/><circle cx="345.13" cy="164.02" r="1.95" clip-path="url(#cpNDEuMDZ8NDk4LjUyfDM0Ni4yOHw1LjQ4)" style="stroke-width:.71;stroke:#000;stroke-opacity:.5;fill:#000;fill-opacity:.5"/><circle cx="348.14" cy="151.86" r="1.95" clip-path="url(#cpNDEuMDZ8NDk4LjUyfDM0Ni4yOHw1LjQ4)" style="stroke-width:.71;stroke:#000;stroke-opacity:.5;fill:#000;fill-opacity:.5"/><circle cx="357.18" cy="86.49" r="1.95" clip-path="url(#cpNDEuMDZ8NDk4LjUyfDM0Ni4yOHw1LjQ4)" style="stroke-width:.71;stroke:#000;stroke-opacity:.5;fill:#000;fill-opacity:.5"/><circle cx="357.18" cy="148.01" r="1.95" clip-path="url(#cpNDEuMDZ8NDk4LjUyfDM0Ni4yOHw1LjQ4)" style="stroke-width:.71;stroke:#000;stroke-opacity:.5;fill:#000;fill-opacity:.5"/><circle cx="363.21" cy="88.57" r="1.95" clip-path="url(#cpNDEuMDZ8NDk4LjUyfDM0Ni4yOHw1LjQ4)" style="stroke-width:.71;stroke:#000;stroke-opacity:.5;fill:#000;fill-opacity:.5"/><circle cx="366.22" cy="132.15" r="1.95" clip-path="url(#cpNDEuMDZ8NDk4LjUyfDM0Ni4yOHw1LjQ4)" style="stroke-width:.71;stroke:#000;stroke-opacity:.5;fill:#000;fill-opacity:.5"/><circle cx="366.22" cy="148.01" r="1.95" clip-path="url(#cpNDEuMDZ8NDk4LjUyfDM0Ni4yOHw1LjQ4)" style="stroke-width:.71;stroke:#000;stroke-opacity:.5;fill:#000;fill-opacity:.5"/><circle cx="367.73" cy="110.36" r="1.95" clip-path="url(#cpNDEuMDZ8NDk4LjUyfDM0Ni4yOHw1LjQ4)" style="stroke-width:.71;stroke:#000;stroke-opacity:.5;fill:#000;fill-opacity:.5"/><circle cx="375.26" cy="134.07" r="1.95" clip-path="url(#cpNDEuMDZ8NDk4LjUyfDM0Ni4yOHw1LjQ4)" style="stroke-width:.71;stroke:#000;stroke-opacity:.5;fill:#000;fill-opacity:.5"/><circle cx="378.28" cy="132.15" r="1.95" clip-path="url(#cpNDEuMDZ8NDk4LjUyfDM0Ni4yOHw1LjQ4)" style="stroke-width:.71;stroke:#000;stroke-opacity:.5;fill:#000;fill-opacity:.5"/><circle cx="382.8" cy="116.29" r="1.95" clip-path="url(#cpNDEuMDZ8NDk4LjUyfDM0Ni4yOHw1LjQ4)" style="stroke-width:.71;stroke:#000;stroke-opacity:.5;fill:#000;fill-opacity:.5"/><circle cx="394.85" cy="116.29" r="1.95" clip-path="url(#cpNDEuMDZ8NDk4LjUyfDM0Ni4yOHw1LjQ4)" style="stroke-width:.71;stroke:#000;stroke-opacity:.5;fill:#000;fill-opacity:.5"/><circle cx="403.89" cy="171.88" r="1.95" clip-path="url(#cpNDEuMDZ8NDk4LjUyfDM0Ni4yOHw1LjQ4)" style="stroke-width:.71;stroke:#000;stroke-opacity:.5;fill:#000;fill-opacity:.5"/><circle cx="403.89" cy="153.94" r="1.95" clip-path="url(#cpNDEuMDZ8NDk4LjUyfDM0Ni4yOHw1LjQ4)" style="stroke-width:.71;stroke:#000;stroke-opacity:.5;fill:#000;fill-opacity:.5"/><circle cx="411.43" cy="151.86" r="1.95" clip-path="url(#cpNDEuMDZ8NDk4LjUyfDM0Ni4yOHw1LjQ4)" style="stroke-width:.71;stroke:#000;stroke-opacity:.5;fill:#000;fill-opacity:.5"/><circle cx="424.99" cy="132.15" r="1.95" clip-path="url(#cpNDEuMDZ8NDk4LjUyfDM0Ni4yOHw1LjQ4)" style="stroke-width:.71;stroke:#000;stroke-opacity:.5;fill:#000;fill-opacity:.5"/><circle cx="435.54" cy="116.29" r="1.95" clip-path="url(#cpNDEuMDZ8NDk4LjUyfDM0Ni4yOHw1LjQ4)" style="stroke-width:.71;stroke:#000;stroke-opacity:.5;fill:#000;fill-opacity:.5"/><circle cx="444.58" cy="153.94" r="1.95" clip-path="url(#cpNDEuMDZ8NDk4LjUyfDM0Ni4yOHw1LjQ4)" style="stroke-width:.71;stroke:#000;stroke-opacity:.5;fill:#000;fill-opacity:.5"/><circle cx="458.14" cy="136.15" r="1.95" clip-path="url(#cpNDEuMDZ8NDk4LjUyfDM0Ni4yOHw1LjQ4)" style="stroke-width:.71;stroke:#000;stroke-opacity:.5;fill:#000;fill-opacity:.5"/><circle cx="458.14" cy="116.29" r="1.95" clip-path="url(#cpNDEuMDZ8NDk4LjUyfDM0Ni4yOHw1LjQ4)" style="stroke-width:.71;stroke:#000;stroke-opacity:.5;fill:#000;fill-opacity:.5"/><circle cx="461.15" cy="136.15" r="1.95" clip-path="url(#cpNDEuMDZ8NDk4LjUyfDM0Ni4yOHw1LjQ4)" style="stroke-width:.71;stroke:#000;stroke-opacity:.5;fill:#000;fill-opacity:.5"/><circle cx="477.73" cy="116.29" r="1.95" clip-path="url(#cpNDEuMDZ8NDk4LjUyfDM0Ni4yOHw1LjQ4)" style="stroke-width:.71;stroke:#000;stroke-opacity:.5;fill:#000;fill-opacity:.5"/><polyline points="61.85 132.27 63.36 133.72 67.88 135.3 70.89 135.05 73.91 134.47 90.48 134.82 93.49 135.39 95 135.65 102.53 136.33 105.55 136.33 110.07 136.21 110.07 136.21 116.1 136.17 119.11 136.28 120.62 136.36 123.63 136.5 126.64 136.55 129.66 136.41 143.22 135.1 146.23 136.58 147.74 137.99 153.77 149.8 153.77 149.8 153.77 149.8 153.77 149.8 153.77 149.8 153.77 149.8 155.27 154.57 159.79 173.4 159.79 173.4 159.79 173.4 159.79 173.4 161.3 181.03 161.3 181.03 162.81 189.19 162.81 189.19 164.31 197.75 164.31 197.75 165.82 206.57 165.82 206.57 165.82 206.57 167.33 215.47 167.33 215.47 168.83 224.29 170.34 232.85 170.34 232.85 170.34 232.85 176.37 261.39 176.37 261.39 176.37 261.39 176.37 261.39 177.87 266.54 177.87 266.54 183.9 278.67 183.9 278.67 188.42 281.83 189.93 282.67 189.93 282.67 191.44 283.71 195.96 289.48 197.46 292.54 203.49 309.08 205 313.4 208.01 320.47 209.52 322.69 218.56 306.87 220.06 299.34 224.59 272.05 226.09 262.37 226.09 262.37 229.11 243.8 232.12 227.5 232.12 227.5 235.13 213.95 235.13 213.95 236.64 208.03 239.65 197.07 241.16 191.64 241.16 191.64 242.67 185.99 247.19 166.54 248.69 159.16 248.69 159.16 248.69 159.16 251.71 143.67 256.23 121.59 257.73 115.38 257.73 115.38 259.24 109.99 265.27 96.68 271.3 89.4 277.32 77.44 278.83 73.66 284.86 61.1 284.86 61.1 290.88 62.72 295.4 75.04 298.42 86.04 302.94 101.47 305.95 108.49 308.97 111.9 308.97 111.9 310.47 112.27 311.98 111.87 311.98 111.87 316.5 107.69 316.5 107.69 330.06 106.66 330.06 106.66 339.1 126.82 340.61 130.14 345.13 137.58 348.14 139.76 357.18 133.14 357.18 133.14 363.21 123.57 366.22 119.57 366.22 119.57 367.73 118.05 375.26 117.07 378.28 119.84 382.8 126.52 394.85 146.88 403.89 151.87 403.89 151.87 411.43 147.39 424.99 134.28 435.54 132.44 444.58 135.75 458.14 132.56 458.14 132.56 461.15 129.22 477.73 116.2" clip-path="url(#cpNDEuMDZ8NDk4LjUyfDM0Ni4yOHw1LjQ4)" style="stroke-width:1.07;stroke:#1e90ff;stroke-linecap:butt"/><polyline points="61.85 131.45 63.36 132.13 67.88 134.13 70.89 135.39 73.91 136.56 90.48 139.74 93.49 139.47 95 139.22 102.53 136.88 105.55 135.56 110.07 133.34 110.07 133.34 116.1 130.43 119.11 129.22 120.62 128.72 123.63 128.01 126.64 127.77 129.66 128.12 143.22 139.31 146.23 144.42 147.74 147.38 153.77 161.98 153.77 161.98 153.77 161.98 153.77 161.98 153.77 161.98 153.77 161.98 155.27 166.3 159.79 180.77 159.79 180.77 159.79 180.77 159.79 180.77 161.3 186.06 161.3 186.06 162.81 191.56 162.81 191.56 164.31 197.24 164.31 197.24 165.82 203.09 165.82 203.09 165.82 203.09 167.33 209.09 167.33 209.09 168.83 215.19 170.34 221.38 170.34 221.38 170.34 221.38 176.37 246.3 176.37 246.3 176.37 246.3 176.37 246.3 177.87 252.4 177.87 252.4 183.9 275.27 183.9 275.27 188.42 289.88 189.93 294.1 189.93 294.1 191.44 297.94 195.96 307.02 197.46 309.17 203.49 312.99 205 312.72 208.01 310.68 209.52 308.91 218.56 288.72 220.06 283.9 224.59 267.32 226.09 261.17 226.09 261.17 229.11 248.11 232.12 234.22 232.12 234.22 235.13 219.77 235.13 219.77 236.64 212.41 239.65 197.62 241.16 190.25 241.16 190.25 242.67 182.93 247.19 161.63 248.69 154.84 248.69 154.84 248.69 154.84 251.71 141.87 256.23 124.27 257.73 118.97 257.73 118.97 259.24 113.97 265.27 97.17 271.3 85.56 277.32 79.02 278.83 78.14 284.86 77.32 284.86 77.32 290.88 80.14 295.4 84.04 298.42 87.24 302.94 92.6 305.95 96.35 308.97 100.11 308.97 100.11 310.47 101.96 311.98 103.78 311.98 103.78 316.5 108.93 316.5 108.93 330.06 120.99 330.06 120.99 339.1 125.64 340.61 126.14 345.13 127.23 348.14 127.64 357.18 127.91 357.18 127.91 363.21 127.8 366.22 127.79 366.22 127.79 367.73 127.82 375.26 128.45 378.28 128.95 382.8 130.01 394.85 134.22 403.89 138 403.89 138 411.43 140.92 424.99 144.06 435.54 143.42 444.58 140.26 458.14 131.43 458.14 131.43 461.15 128.94 477.73 113.44" clip-path="url(#cpNDEuMDZ8NDk4LjUyfDM0Ni4yOHw1LjQ4)" style="stroke-width:1.07;stroke:#8b0000;stroke-linecap:butt"/><defs><clipPath id="cpMC4wMHw1MDQuMDB8Mzc4LjAwfDAuMDA="><rect width="504" height="378" x="0" y="0"/></clipPath></defs><g clip-path="url(#cpMC4wMHw1MDQuMDB8Mzc4LjAwfDAuMDA=)"><text x="18.51" y="283.53" lengthAdjust="spacingAndGlyphs" textLength="17.61" style="font-size:8.8px;fill:#4d4d4d;font-family:Arial">-100</text></g><g clip-path="url(#cpMC4wMHw1MDQuMDB8Mzc4LjAwfDAuMDA=)"><text x="23.41" y="209.42" lengthAdjust="spacingAndGlyphs" textLength="12.72" style="font-size:8.8px;fill:#4d4d4d;font-family:Arial">-50</text></g><g clip-path="url(#cpMC4wMHw1MDQuMDB8Mzc4LjAwfDAuMDA=)"><text x="31.23" y="135.3" lengthAdjust="spacingAndGlyphs" textLength="4.89" style="font-size:8.8px;fill:#4d4d4d;font-family:Arial">0</text></g><g clip-path="url(#cpMC4wMHw1MDQuMDB8Mzc4LjAwfDAuMDA=)"><text x="26.34" y="61.18" lengthAdjust="spacingAndGlyphs" textLength="9.79" style="font-size:8.8px;fill:#4d4d4d;font-family:Arial">50</text></g><polyline points="38.32 280.38 41.06 280.38" clip-path="url(#cpMC4wMHw1MDQuMDB8Mzc4LjAwfDAuMDA=)" style="stroke-width:1.07;stroke:#333;stroke-linecap:butt"/><polyline points="38.32 206.27 41.06 206.27" clip-path="url(#cpMC4wMHw1MDQuMDB8Mzc4LjAwfDAuMDA=)" style="stroke-width:1.07;stroke:#333;stroke-linecap:butt"/><polyline points="38.32 132.15 41.06 132.15" clip-path="url(#cpMC4wMHw1MDQuMDB8Mzc4LjAwfDAuMDA=)" style="stroke-width:1.07;stroke:#333;stroke-linecap:butt"/><polyline points="38.32 58.03 41.06 58.03" clip-path="url(#cpMC4wMHw1MDQuMDB8Mzc4LjAwfDAuMDA=)" style="stroke-width:1.07;stroke:#333;stroke-linecap:butt"/><polyline points="43.77 349.02 43.77 346.28" clip-path="url(#cpMC4wMHw1MDQuMDB8Mzc4LjAwfDAuMDA=)" style="stroke-width:1.07;stroke:#333;stroke-linecap:butt"/><polyline points="194.45 349.02 194.45 346.28" clip-path="url(#cpMC4wMHw1MDQuMDB8Mzc4LjAwfDAuMDA=)" style="stroke-width:1.07;stroke:#333;stroke-linecap:butt"/><polyline points="345.13 349.02 345.13 346.28" clip-path="url(#cpMC4wMHw1MDQuMDB8Mzc4LjAwfDAuMDA=)" style="stroke-width:1.07;stroke:#333;stroke-linecap:butt"/><polyline points="495.81 349.02 495.81 346.28" clip-path="url(#cpMC4wMHw1MDQuMDB8Mzc4LjAwfDAuMDA=)" style="stroke-width:1.07;stroke:#333;stroke-linecap:butt"/><g clip-path="url(#cpMC4wMHw1MDQuMDB8Mzc4LjAwfDAuMDA=)"><text x="41.32" y="357.51" lengthAdjust="spacingAndGlyphs" textLength="4.89" style="font-size:8.8px;fill:#4d4d4d;font-family:Arial">0</text></g><g clip-path="url(#cpMC4wMHw1MDQuMDB8Mzc4LjAwfDAuMDA=)"><text x="189.56" y="357.51" lengthAdjust="spacingAndGlyphs" textLength="9.79" style="font-size:8.8px;fill:#4d4d4d;font-family:Arial">20</text></g><g clip-path="url(#cpMC4wMHw1MDQuMDB8Mzc4LjAwfDAuMDA=)"><text x="340.23" y="357.51" lengthAdjust="spacingAndGlyphs" textLength="9.79" style="font-size:8.8px;fill:#4d4d4d;font-family:Arial">40</text></g><g clip-path="url(#cpMC4wMHw1MDQuMDB8Mzc4LjAwfDAuMDA=)"><text x="490.91" y="357.51" lengthAdjust="spacingAndGlyphs" textLength="9.79" style="font-size:8.8px;fill:#4d4d4d;font-family:Arial">60</text></g><g clip-path="url(#cpMC4wMHw1MDQuMDB8Mzc4LjAwfDAuMDA=)"><text x="256.65" y="370.1" lengthAdjust="spacingAndGlyphs" textLength="26.28" style="font-size:11px;font-family:Arial">times</text></g><g clip-path="url(#cpMC4wMHw1MDQuMDB8Mzc4LjAwfDAuMDA=)"><text style="font-size:11px;font-family:Arial" lengthAdjust="spacingAndGlyphs" textLength="25.68" transform="translate(13.35,188.72) rotate(-90)">accel</text></g></svg>