<svg xmlns="http://www.w3.org/2000/svg" xmlns:xlink="http://www.w3.org/1999/xlink" viewBox="0 0 504 378"><defs><style type="text/css">circle,polyline,rect{fill:none;stroke:#000;stroke-linecap:round;stroke-linejoin:round;stroke-miterlimit:10}</style></defs><rect width="100%" height="100%" style="stroke:none;fill:none"/><rect width="504" height="378" x="0" y="0" style="stroke-width:1.07;stroke:none"/><defs><clipPath id="cpMjQuMzF8MTcyLjY4fDEzMS41MHwyMy42Mw=="><rect width="148.37" height="107.87" x="24.31" y="23.63"/></clipPath></defs><polyline points="31.05 50.63 31.32 49.23 31.58 47.88 31.85 46.56 32.11 45.27 32.37 44.03 32.64 42.84 32.9 41.69 33.17 40.59 33.43 39.54 33.69 38.52 33.96 37.56 34.22 36.66 34.49 35.8 34.75 34.98 35.01 34.23 35.28 33.53 35.54 32.86 35.81 32.26 36.07 31.7 36.33 31.18 36.6 30.73 36.86 30.32 37.13 29.94 37.39 29.62 37.65 29.35 37.92 29.11 38.18 28.91 38.45 28.77 38.71 28.65 38.97 28.57 39.24 28.54 39.5 28.53 39.77 28.55 40.03 28.62 40.29 28.71 40.56 28.82 40.82 28.97 41.09 29.15 41.35 29.34 41.61 29.56 41.88 29.8 42.14 30.06 42.4 30.34 42.67 30.64 42.93 30.96 43.2 31.28 43.46 31.63 43.72 31.99 43.99 32.36 44.25 32.74 44.52 33.13 44.78 33.53 45.04 33.95 45.31 34.37 45.57 34.8 45.84 35.24 46.1 35.68 46.36 36.13 46.63 36.59 46.89 37.05 47.16 37.52 47.42 37.99 47.68 38.48 47.95 38.96 48.21 39.45 48.48 39.95 48.74 40.45 49 40.95 49.27 41.47 49.53 41.98 49.8 42.51 50.06 43.04 50.32 43.57 50.59 44.11 50.85 44.66 51.12 45.21 51.38 45.77 51.64 46.33 51.91 46.9 52.17 47.48 52.44 48.07 52.7 48.66 52.96 49.26 53.23 49.87 53.49 50.49 53.75 51.12 54.02 51.75 54.28 52.39 54.55 53.04 54.81 53.7 55.07 54.38 55.34 55.06 55.6 55.74 55.87 56.44 56.13 57.15 56.39 57.87 56.66 58.6 56.92 59.34 57.19 60.09 57.45 60.85 57.71 61.62 57.98 62.39 58.24 63.18 58.51 63.98 58.77 64.79 59.03 65.6 59.3 66.43 59.56 67.27 59.83 68.11 60.09 68.96 60.35 69.82 60.62 70.68 60.88 71.56 61.15 72.44 61.41 73.32 61.67 74.21 61.94 75.1 62.2 76 62.47 76.9 62.73 77.81 62.99 78.71 63.26 79.62 63.52 80.53 63.79 81.44 64.05 82.34 64.31 83.25 64.58 84.15 64.84 85.04 65.1 85.93 65.37 86.82 65.63 87.7 65.9 88.57 66.16 89.44 66.42 90.29 66.69 91.14 66.95 91.97 67.22 92.8 67.48 93.61 67.74 94.41 68.01 95.19 68.27 95.96 68.54 96.72 68.8 97.45 69.06 98.18 69.33 98.88 69.59 99.57 69.86 100.25 70.12 100.9 70.38 101.53 70.65 102.15 70.91 102.75 71.18 103.32 71.44 103.88 71.7 104.42 71.97 104.94 72.23 105.44 72.5 105.92 72.76 106.38 73.02 106.82 73.29 107.24 73.55 107.64 73.82 108.03 74.08 108.4 74.34 108.74 74.61 109.07 74.87 109.39 75.14 109.69 75.4 109.97 75.66 110.23 75.93 110.49 76.19 110.72 76.45 110.94 76.72 111.15 76.98 111.34 77.25 111.53 77.51 111.7 77.77 111.86 78.04 112.01 78.3 112.15 78.57 112.28 78.83 112.4 79.09 112.52 79.36 112.62 79.62 112.72 79.89 112.81 80.15 112.9 80.41 112.98 80.68 113.05 80.94 113.12 81.21 113.19 81.47 113.25 81.73 113.31 82 113.36 82.26 113.41 82.53 113.46 82.79 113.51 83.05 113.55 83.32 113.59 83.58 113.63 83.85 113.67 84.11 113.7 84.37 113.73 84.64 113.76 84.9 113.79 85.17 113.82 85.43 113.84 85.69 113.87 85.96 113.89 86.22 113.9 86.49 113.92 86.75 113.93 87.01 113.94 87.28 113.95 87.54 113.95 87.8 113.95 88.07 113.95 88.33 113.94 88.6 113.93 88.86 113.92 89.12 113.9 89.39 113.88 89.65 113.85 89.92 113.82 90.18 113.79 90.44 113.75 90.71 113.7 90.97 113.66 91.24 113.6 91.5 113.54 91.76 113.48 92.03 113.41 92.29 113.33 92.56 113.26 92.82 113.17 93.08 113.09 93.35 113 93.61 112.9 93.88 112.8 94.14 112.7 94.4 112.6 94.67 112.49 94.93 112.38 95.2 112.26 95.46 112.15 95.72 112.03 95.99 111.92 96.25 111.8 96.52 111.68 96.78 111.56 97.04 111.45 97.31 111.33 97.57 111.22 97.84 111.11 98.1 111 98.36 110.9 98.63 110.8 98.89 110.71 99.15 110.62 99.42 110.53 99.68 110.46 99.95 110.39 100.21 110.32 100.47 110.27 100.74 110.22 101 110.18 101.27 110.15 101.53 110.13 101.79 110.12 102.06 110.12 102.32 110.13 102.59 110.15 102.85 110.18 103.11 110.22 103.38 110.27 103.64 110.33 103.91 110.41 104.17 110.49 104.43 110.59 104.7 110.7 104.96 110.82 105.23 110.95 105.49 111.09 105.75 111.24 106.02 111.41 106.28 111.58 106.55 111.76 106.81 111.96 107.07 112.16 107.34 112.37 107.6 112.59 107.87 112.82 108.13 113.06 108.39 113.3 108.66 113.55 108.92 113.81 109.18 114.07 109.45 114.34 109.71 114.62 109.98 114.89 110.24 115.18 110.5 115.46 110.77 115.75 111.03 116.04 111.3 116.33 111.56 116.63 111.82 116.92 112.09 117.21 112.35 117.51 112.62 117.8 112.88 118.09 113.14 118.38 113.41 118.67 113.67 118.95 113.94 119.23 114.2 119.51 114.46 119.78 114.73 120.05 114.99 120.32 115.26 120.58 115.52 120.83 115.78 121.08 116.05 121.33 116.31 121.57 116.58 121.8 116.84 122.02 117.1 122.24 117.37 122.45 117.63 122.66 117.9 122.86 118.16 123.05 118.42 123.24 118.69 123.42 118.95 123.59 119.22 123.76 119.48 123.92 119.74 124.07 120.01 124.21 120.27 124.35 120.53 124.49 120.8 124.61 121.06 124.73 121.33 124.85 121.59 124.95 121.85 125.06 122.12 125.15 122.38 125.24 122.65 125.33 122.91 125.41 123.17 125.48 123.44 125.55 123.7 125.61 123.97 125.67 124.23 125.73 124.49 125.78 124.76 125.82 125.02 125.86 125.29 125.9 125.55 125.93 125.81 125.96 126.08 125.98 126.34 126 126.61 126.02 126.87 126.03 127.13 126.04 127.4 126.05 127.66 126.05 127.93 126.05 128.19 126.04 128.45 126.04 128.72 126.03 128.98 126.01 129.25 126 129.51 125.98 129.77 125.95 130.04 125.92 130.3 125.9 130.57 125.86 130.83 125.83 131.09 125.79 131.36 125.75 131.62 125.7 131.88 125.66 132.15 125.61 132.41 125.55 132.68 125.5 132.94 125.44 133.2 125.38 133.47 125.32 133.73 125.25 134 125.18 134.26 125.11 134.52 125.04 134.79 124.96 135.05 124.88 135.32 124.81 135.58 124.72 135.84 124.64 136.11 124.56 136.37 124.47 136.64 124.38 136.9 124.3 137.16 124.21 137.43 124.12 137.69 124.03 137.96 123.93 138.22 123.84 138.48 123.75 138.75 123.66 139.01 123.57 139.28 123.48 139.54 123.39 139.8 123.3 140.07 123.22 140.33 123.13 140.6 123.05 140.86 122.97 141.12 122.89 141.39 122.82 141.65 122.74 141.92 122.67 142.18 122.6 142.44 122.54 142.71 122.48 142.97 122.42 143.23 122.37 143.5 122.32 143.76 122.27 144.03 122.23 144.29 122.2 144.55 122.16 144.82 122.13 145.08 122.11 145.35 122.09 145.61 122.07 145.87 122.06 146.14 122.05 146.4 122.04 146.67 122.04 146.93 122.05 147.19 122.05 147.46 122.06 147.72 122.08 147.99 122.09 148.25 122.11 148.51 122.14 148.78 122.16 149.04 122.19 149.31 122.22 149.57 122.25 149.83 122.28 150.1 122.31 150.36 122.35 150.63 122.38 150.89 122.42 151.15 122.46 151.42 122.49 151.68 122.53 151.95 122.56 152.21 122.6 152.47 122.63 152.74 122.66 153 122.69 153.27 122.72 153.53 122.74 153.79 122.76 154.06 122.79 154.32 122.8 154.58 122.82 154.85 122.83 155.11 122.84 155.38 122.85 155.64 122.85 155.9 122.85 156.17 122.85 156.43 122.84 156.7 122.84 156.96 122.82 157.22 122.81 157.49 122.79 157.75 122.77 158.02 122.75 158.28 122.73 158.54 122.7 158.81 122.67 159.07 122.64 159.34 122.61 159.6 122.58 159.86 122.54 160.13 122.51 160.39 122.47 160.66 122.44 160.92 122.4 161.18 122.36 161.45 122.33 161.71 122.3 161.98 122.26 162.24 122.23 162.5 122.2 162.77 122.17 163.03 122.15 163.3 122.12 163.56 122.1 163.82 122.08 164.09 122.07 164.35 122.06 164.62 122.05 164.88 122.04 165.14 122.04 165.41 122.05 165.67 122.05 165.93 122.06 165.93 126.6 165.67 126.6 165.41 126.6 165.14 126.6 164.88 126.6 164.62 126.6 164.35 126.6 164.09 126.6 163.82 126.6 163.56 126.6 163.3 126.6 163.03 126.6 162.77 126.6 162.5 126.6 162.24 126.6 161.98 126.6 161.71 126.6 161.45 126.6 161.18 126.6 160.92 126.6 160.66 126.6 160.39 126.6 160.13 126.6 159.86 126.6 159.6 126.6 159.34 126.6 159.07 126.6 158.81 126.6 158.54 126.6 158.28 126.6 158.02 126.6 157.75 126.6 157.49 126.6 157.22 126.6 156.96 126.6 156.7 126.6 156.43 126.6 156.17 126.6 155.9 126.6 155.64 126.6 155.38 126.6 155.11 126.6 154.85 126.6 154.58 126.6 154.32 126.6 154.06 126.6 153.79 126.6 153.53 126.6 153.27 126.6 153 126.6 152.74 126.6 152.47 126.6 152.21 126.6 151.95 126.6 151.68 126.6 151.42 126.6 151.15 126.6 150.89 126.6 150.63 126.6 150.36 126.6 150.1 126.6 149.83 126.6 149.57 126.6 149.31 126.6 149.04 126.6 148.78 126.6 148.51 126.6 148.25 126.6 147.99 126.6 147.72 126.6 147.46 126.6 147.19 126.6 146.93 126.6 146.67 126.6 146.4 126.6 146.14 126.6 145.87 126.6 145.61 126.6 145.35 126.6 145.08 126.6 144.82 126.6 144.55 126.6 144.29 126.6 144.03 126.6 143.76 126.6 143.5 126.6 143.23 126.6 142.97 126.6 142.71 126.6 142.44 126.6 142.18 126.6 141.92 126.6 141.65 126.6 141.39 126.6 141.12 126.6 140.86 126.6 140.6 126.6 140.33 126.6 140.07 126.6 139.8 126.6 139.54 126.6 139.28 126.6 139.01 126.6 138.75 126.6 138.48 126.6 138.22 126.6 137.96 126.6 137.69 126.6 137.43 126.6 137.16 126.6 136.9 126.6 136.64 126.6 136.37 126.6 136.11 126.6 135.84 126.6 135.58 126.6 135.32 126.6 135.05 126.6 134.79 126.6 134.52 126.6 134.26 126.6 134 126.6 133.73 126.6 133.47 126.6 133.2 126.6 132.94 126.6 132.68 126.6 132.41 126.6 132.15 126.6 131.88 126.6 131.62 126.6 131.36 126.6 131.09 126.6 130.83 126.6 130.57 126.6 130.3 126.6 130.04 126.6 129.77 126.6 129.51 126.6 129.25 126.6 128.98 126.6 128.72 126.6 128.45 126.6 128.19 126.6 127.93 126.6 127.66 126.6 127.4 126.6 127.13 126.6 126.87 126.6 126.61 126.6 126.34 126.6 126.08 126.6 125.81 126.6 125.55 126.6 125.29 126.6 125.02 126.6 124.76 126.6 124.49 126.6 124.23 126.6 123.97 126.6 123.7 126.6 123.44 126.6 123.17 126.6 122.91 126.6 122.65 126.6 122.38 126.6 122.12 126.6 121.85 126.6 121.59 126.6 121.33 126.6 121.06 126.6 120.8 126.6 120.53 126.6 120.27 126.6 120.01 126.6 119.74 126.6 119.48 126.6 119.22 126.6 118.95 126.6 118.69 126.6 118.42 126.6 118.16 126.6 117.9 126.6 117.63 126.6 117.37 126.6 117.1 126.6 116.84 126.6 116.58 126.6 116.31 126.6 116.05 126.6 115.78 126.6 115.52 126.6 115.26 126.6 114.99 126.6 114.73 126.6 114.46 126.6 114.2 126.6 113.94 126.6 113.67 126.6 113.41 126.6 113.14 126.6 112.88 126.6 112.62 126.6 112.35 126.6 112.09 126.6 111.82 126.6 111.56 126.6 111.3 126.6 111.03 126.6 110.77 126.6 110.5 126.6 110.24 126.6 109.98 126.6 109.71 126.6 109.45 126.6 109.18 126.6 108.92 126.6 108.66 126.6 108.39 126.6 108.13 126.6 107.87 126.6 107.6 126.6 107.34 126.6 107.07 126.6 106.81 126.6 106.55 126.6 106.28 126.6 106.02 126.6 105.75 126.6 105.49 126.6 105.23 126.6 104.96 126.6 104.7 126.6 104.43 126.6 104.17 126.6 103.91 126.6 103.64 126.6 103.38 126.6 103.11 126.6 102.85 126.6 102.59 126.6 102.32 126.6 102.06 126.6 101.79 126.6 101.53 126.6 101.27 126.6 101 126.6 100.74 126.6 100.47 126.6 100.21 126.6 99.95 126.6 99.68 126.6 99.42 126.6 99.15 126.6 98.89 126.6 98.63 126.6 98.36 126.6 98.1 126.6 97.84 126.6 97.57 126.6 97.31 126.6 97.04 126.6 96.78 126.6 96.52 126.6 96.25 126.6 95.99 126.6 95.72 126.6 95.46 126.6 95.2 126.6 94.93 126.6 94.67 126.6 94.4 126.6 94.14 126.6 93.88 126.6 93.61 126.6 93.35 126.6 93.08 126.6 92.82 126.6 92.56 126.6 92.29 126.6 92.03 126.6 91.76 126.6 91.5 126.6 91.24 126.6 90.97 126.6 90.71 126.6 90.44 126.6 90.18 126.6 89.92 126.6 89.65 126.6 89.39 126.6 89.12 126.6 88.86 126.6 88.6 126.6 88.33 126.6 88.07 126.6 87.8 126.6 87.54 126.6 87.28 126.6 87.01 126.6 86.75 126.6 86.49 126.6 86.22 126.6 85.96 126.6 85.69 126.6 85.43 126.6 85.17 126.6 84.9 126.6 84.64 126.6 84.37 126.6 84.11 126.6 83.85 126.6 83.58 126.6 83.32 126.6 83.05 126.6 82.79 126.6 82.53 126.6 82.26 126.6 82 126.6 81.73 126.6 81.47 126.6 81.21 126.6 80.94 126.6 80.68 126.6 80.41 126.6 80.15 126.6 79.89 126.6 79.62 126.6 79.36 126.6 79.09 126.6 78.83 126.6 78.57 126.6 78.3 126.6 78.04 126.6 77.77 126.6 77.51 126.6 77.25 126.6 76.98 126.6 76.72 126.6 76.45 126.6 76.19 126.6 75.93 126.6 75.66 126.6 75.4 126.6 75.14 126.6 74.87 126.6 74.61 126.6 74.34 126.6 74.08 126.6 73.82 126.6 73.55 126.6 73.29 126.6 73.02 126.6 72.76 126.6 72.5 126.6 72.23 126.6 71.97 126.6 71.7 126.6 71.44 126.6 71.18 126.6 70.91 126.6 70.65 126.6 70.38 126.6 70.12 126.6 69.86 126.6 69.59 126.6 69.33 126.6 69.06 126.6 68.8 126.6 68.54 126.6 68.27 126.6 68.01 126.6 67.74 126.6 67.48 126.6 67.22 126.6 66.95 126.6 66.69 126.6 66.42 126.6 66.16 126.6 65.9 126.6 65.63 126.6 65.37 126.6 65.1 126.6 64.84 126.6 64.58 126.6 64.31 126.6 64.05 126.6 63.79 126.6 63.52 126.6 63.26 126.6 62.99 126.6 62.73 126.6 62.47 126.6 62.2 126.6 61.94 126.6 61.67 126.6 61.41 126.6 61.15 126.6 60.88 126.6 60.62 126.6 60.35 126.6 60.09 126.6 59.83 126.6 59.56 126.6 59.3 126.6 59.03 126.6 58.77 126.6 58.51 126.6 58.24 126.6 57.98 126.6 57.71 126.6 57.45 126.6 57.19 126.6 56.92 126.6 56.66 126.6 56.39 126.6 56.13 126.6 55.87 126.6 55.6 126.6 55.34 126.6 55.07 126.6 54.81 126.6 54.55 126.6 54.28 126.6 54.02 126.6 53.75 126.6 53.49 126.6 53.23 126.6 52.96 126.6 52.7 126.6 52.44 126.6 52.17 126.6 51.91 126.6 51.64 126.6 51.38 126.6 51.12 126.6 50.85 126.6 50.59 126.6 50.32 126.6 50.06 126.6 49.8 126.6 49.53 126.6 49.27 126.6 49 126.6 48.74 126.6 48.48 126.6 48.21 126.6 47.95 126.6 47.68 126.6 47.42 126.6 47.16 126.6 46.89 126.6 46.63 126.6 46.36 126.6 46.1 126.6 45.84 126.6 45.57 126.6 45.31 126.6 45.04 126.6 44.78 126.6 44.52 126.6 44.25 126.6 43.99 126.6 43.72 126.6 43.46 126.6 43.2 126.6 42.93 126.6 42.67 126.6 42.4 126.6 42.14 126.6 41.88 126.6 41.61 126.6 41.35 126.6 41.09 126.6 40.82 126.6 40.56 126.6 40.29 126.6 40.03 126.6 39.77 126.6 39.5 126.6 39.24 126.6 38.97 126.6 38.71 126.6 38.45 126.6 38.18 126.6 37.92 126.6 37.65 126.6 37.39 126.6 37.13 126.6 36.86 126.6 36.6 126.6 36.33 126.6 36.07 126.6 35.81 126.6 35.54 126.6 35.28 126.6 35.01 126.6 34.75 126.6 34.49 126.6 34.22 126.6 33.96 126.6 33.69 126.6 33.43 126.6 33.17 126.6 32.9 126.6 32.64 126.6 32.37 126.6 32.11 126.6 31.85 126.6 31.58 126.6 31.32 126.6 31.05 126.6 31.05 50.63" clip-path="url(#cpMjQuMzF8MTcyLjY4fDEzMS41MHwyMy42Mw==)" style="stroke-width:0;stroke:none"/><polyline points="31.05 50.63 31.32 49.23 31.58 47.88 31.85 46.56 32.11 45.27 32.37 44.03 32.64 42.84 32.9 41.69 33.17 40.59 33.43 39.54 33.69 38.52 33.96 37.56 34.22 36.66 34.49 35.8 34.75 34.98 35.01 34.23 35.28 33.53 35.54 32.86 35.81 32.26 36.07 31.7 36.33 31.18 36.6 30.73 36.86 30.32 37.13 29.94 37.39 29.62 37.65 29.35 37.92 29.11 38.18 28.91 38.45 28.77 38.71 28.65 38.97 28.57 39.24 28.54 39.5 28.53 39.77 28.55 40.03 28.62 40.29 28.71 40.56 28.82 40.82 28.97 41.09 29.15 41.35 29.34 41.61 29.56 41.88 29.8 42.14 30.06 42.4 30.34 42.67 30.64 42.93 30.96 43.2 31.28 43.46 31.63 43.72 31.99 43.99 32.36 44.25 32.74 44.52 33.13 44.78 33.53 45.04 33.95 45.31 34.37 45.57 34.8 45.84 35.24 46.1 35.68 46.36 36.13 46.63 36.59 46.89 37.05 47.16 37.52 47.42 37.99 47.68 38.48 47.95 38.96 48.21 39.45 48.48 39.95 48.74 40.45 49 40.95 49.27 41.47 49.53 41.98 49.8 42.51 50.06 43.04 50.32 43.57 50.59 44.11 50.85 44.66 51.12 45.21 51.38 45.77 51.64 46.33 51.91 46.9 52.17 47.48 52.44 48.07 52.7 48.66 52.96 49.26 53.23 49.87 53.49 50.49 53.75 51.12 54.02 51.75 54.28 52.39 54.55 53.04 54.81 53.7 55.07 54.38 55.34 55.06 55.6 55.74 55.87 56.44 56.13 57.15 56.39 57.87 56.66 58.6 56.92 59.34 57.19 60.09 57.45 60.85 57.71 61.62 57.98 62.39 58.24 63.18 58.51 63.98 58.77 64.79 59.03 65.6 59.3 66.43 59.56 67.27 59.83 68.11 60.09 68.96 60.35 69.82 60.62 70.68 60.88 71.56 61.15 72.44 61.41 73.32 61.67 74.21 61.94 75.1 62.2 76 62.47 76.9 62.73 77.81 62.99 78.71 63.26 79.62 63.52 80.53 63.79 81.44 64.05 82.34 64.31 83.25 64.58 84.15 64.84 85.04 65.1 85.93 65.37 86.82 65.63 87.7 65.9 88.57 66.16 89.44 66.42 90.29 66.69 91.14 66.95 91.97 67.22 92.8 67.48 93.61 67.74 94.41 68.01 95.19 68.27 95.96 68.54 96.72 68.8 97.45 69.06 98.18 69.33 98.88 69.59 99.57 69.86 100.25 70.12 100.9 70.38 101.53 70.65 102.15 70.91 102.75 71.18 103.32 71.44 103.88 71.7 104.42 71.97 104.94 72.23 105.44 72.5 105.92 72.76 106.38 73.02 106.82 73.29 107.24 73.55 107.64 73.82 108.03 74.08 108.4 74.34 108.74 74.61 109.07 74.87 109.39 75.14 109.69 75.4 109.97 75.66 110.23 75.93 110.49 76.19 110.72 76.45 110.94 76.72 111.15 76.98 111.34 77.25 111.53 77.51 111.7 77.77 111.86 78.04 112.01 78.3 112.15 78.57 112.28 78.83 112.4 79.09 112.52 79.36 112.62 79.62 112.72 79.89 112.81 80.15 112.9 80.41 112.98 80.68 113.05 80.94 113.12 81.21 113.19 81.47 113.25 81.73 113.31 82 113.36 82.26 113.41 82.53 113.46 82.79 113.51 83.05 113.55 83.32 113.59 83.58 113.63 83.85 113.67 84.11 113.7 84.37 113.73 84.64 113.76 84.9 113.79 85.17 113.82 85.43 113.84 85.69 113.87 85.96 113.89 86.22 113.9 86.49 113.92 86.75 113.93 87.01 113.94 87.28 113.95 87.54 113.95 87.8 113.95 88.07 113.95 88.33 113.94 88.6 113.93 88.86 113.92 89.12 113.9 89.39 113.88 89.65 113.85 89.92 113.82 90.18 113.79 90.44 113.75 90.71 113.7 90.97 113.66 91.24 113.6 91.5 113.54 91.76 113.48 92.03 113.41 92.29 113.33 92.56 113.26 92.82 113.17 93.08 113.09 93.35 113 93.61 112.9 93.88 112.8 94.14 112.7 94.4 112.6 94.67 112.49 94.93 112.38 95.2 112.26 95.46 112.15 95.72 112.03 95.99 111.92 96.25 111.8 96.52 111.68 96.78 111.56 97.04 111.45 97.31 111.33 97.57 111.22 97.84 111.11 98.1 111 98.36 110.9 98.63 110.8 98.89 110.71 99.15 110.62 99.42 110.53 99.68 110.46 99.95 110.39 100.21 110.32 100.47 110.27 100.74 110.22 101 110.18 101.27 110.15 101.53 110.13 101.79 110.12 102.06 110.12 102.32 110.13 102.59 110.15 102.85 110.18 103.11 110.22 103.38 110.27 103.64 110.33 103.91 110.41 104.17 110.49 104.43 110.59 104.7 110.7 104.96 110.82 105.23 110.95 105.49 111.09 105.75 111.24 106.02 111.41 106.28 111.58 106.55 111.76 106.81 111.96 107.07 112.16 107.34 112.37 107.6 112.59 107.87 112.82 108.13 113.06 108.39 113.3 108.66 113.55 108.92 113.81 109.18 114.07 109.45 114.34 109.71 114.62 109.98 114.89 110.24 115.18 110.5 115.46 110.77 115.75 111.03 116.04 111.3 116.33 111.56 116.63 111.82 116.92 112.09 117.21 112.35 117.51 112.62 117.8 112.88 118.09 113.14 118.38 113.41 118.67 113.67 118.95 113.94 119.23 114.2 119.51 114.46 119.78 114.73 120.05 114.99 120.32 115.26 120.58 115.52 120.83 115.78 121.08 116.05 121.33 116.31 121.57 116.58 121.8 116.84 122.02 117.1 122.24 117.37 122.45 117.63 122.66 117.9 122.86 118.16 123.05 118.42 123.24 118.69 123.42 118.95 123.59 119.22 123.76 119.48 123.92 119.74 124.07 120.01 124.21 120.27 124.35 120.53 124.49 120.8 124.61 121.06 124.73 121.33 124.85 121.59 124.95 121.85 125.06 122.12 125.15 122.38 125.24 122.65 125.33 122.91 125.41 123.17 125.48 123.44 125.55 123.7 125.61 123.97 125.67 124.23 125.73 124.49 125.78 124.76 125.82 125.02 125.86 125.29 125.9 125.55 125.93 125.81 125.96 126.08 125.98 126.34 126 126.61 126.02 126.87 126.03 127.13 126.04 127.4 126.05 127.66 126.05 127.93 126.05 128.19 126.04 128.45 126.04 128.72 126.03 128.98 126.01 129.25 126 129.51 125.98 129.77 125.95 130.04 125.92 130.3 125.9 130.57 125.86 130.83 125.83 131.09 125.79 131.36 125.75 131.62 125.7 131.88 125.66 132.15 125.61 132.41 125.55 132.68 125.5 132.94 125.44 133.2 125.38 133.47 125.32 133.73 125.25 134 125.18 134.26 125.11 134.52 125.04 134.79 124.96 135.05 124.88 135.32 124.81 135.58 124.72 135.84 124.64 136.11 124.56 136.37 124.47 136.64 124.38 136.9 124.3 137.16 124.21 137.43 124.12 137.69 124.03 137.96 123.93 138.22 123.84 138.48 123.75 138.75 123.66 139.01 123.57 139.28 123.48 139.54 123.39 139.8 123.3 140.07 123.22 140.33 123.13 140.6 123.05 140.86 122.97 141.12 122.89 141.39 122.82 141.65 122.74 141.92 122.67 142.18 122.6 142.44 122.54 142.71 122.48 142.97 122.42 143.23 122.37 143.5 122.32 143.76 122.27 144.03 122.23 144.29 122.2 144.55 122.16 144.82 122.13 145.08 122.11 145.35 122.09 145.61 122.07 145.87 122.06 146.14 122.05 146.4 122.04 146.67 122.04 146.93 122.05 147.19 122.05 147.46 122.06 147.72 122.08 147.99 122.09 148.25 122.11 148.51 122.14 148.78 122.16 149.04 122.19 149.31 122.22 149.57 122.25 149.83 122.28 150.1 122.31 150.36 122.35 150.63 122.38 150.89 122.42 151.15 122.46 151.42 122.49 151.68 122.53 151.95 122.56 152.21 122.6 152.47 122.63 152.74 122.66 153 122.69 153.27 122.72 153.53 122.74 153.79 122.76 154.06 122.79 154.32 122.8 154.58 122.82 154.85 122.83 155.11 122.84 155.38 122.85 155.64 122.85 155.9 122.85 156.17 122.85 156.43 122.84 156.7 122.84 156.96 122.82 157.22 122.81 157.49 122.79 157.75 122.77 158.02 122.75 158.28 122.73 158.54 122.7 158.81 122.67 159.07 122.64 159.34 122.61 159.6 122.58 159.86 122.54 160.13 122.51 160.39 122.47 160.66 122.44 160.92 122.4 161.18 122.36 161.45 122.33 161.71 122.3 161.98 122.26 162.24 122.23 162.5 122.2 162.77 122.17 163.03 122.15 163.3 122.12 163.56 122.1 163.82 122.08 164.09 122.07 164.35 122.06 164.62 122.05 164.88 122.04 165.14 122.04 165.41 122.05 165.67 122.05 165.93 122.06" clip-path="url(#cpMjQuMzF8MTcyLjY4fDEzMS41MHwyMy42Mw==)" style="stroke-width:1.07"/><defs><clipPath id="cpMC4wMHw1MDQuMDB8Mzc4LjAwfDAuMDA="><rect width="504" height="378" x="0" y="0"/></clipPath></defs><defs><clipPath id="cpMjQuMzF8MTcyLjY4fDI0NC44NnwxMzYuOTg="><rect width="148.37" height="107.87" x="24.31" y="136.98"/></clipPath></defs><circle cx="52.1" cy="199.66" r="1.95" clip-path="url(#cpMjQuMzF8MTcyLjY4fDI0NC44NnwxMzYuOTg=)" style="stroke-width:.71;fill:#000"/><circle cx="31.05" cy="141.88" r="1.95" clip-path="url(#cpMjQuMzF8MTcyLjY4fDI0NC44NnwxMzYuOTg=)" style="stroke-width:.71;fill:#000"/><circle cx="43.01" cy="198.55" r="1.95" clip-path="url(#cpMjQuMzF8MTcyLjY4fDI0NC44NnwxMzYuOTg=)" style="stroke-width:.71;fill:#000"/><circle cx="42.35" cy="220.11" r="1.95" clip-path="url(#cpMjQuMzF8MTcyLjY4fDI0NC44NnwxMzYuOTg=)" style="stroke-width:.71;fill:#000"/><circle cx="165.93" cy="163.18" r="1.95" clip-path="url(#cpMjQuMzF8MTcyLjY4fDI0NC44NnwxMzYuOTg=)" style="stroke-width:.71;fill:#000"/><circle cx="45.14" cy="214.25" r="1.95" clip-path="url(#cpMjQuMzF8MTcyLjY4fDI0NC44NnwxMzYuOTg=)" style="stroke-width:.71;fill:#000"/><circle cx="48.76" cy="223.85" r="1.95" clip-path="url(#cpMjQuMzF8MTcyLjY4fDI0NC44NnwxMzYuOTg=)" style="stroke-width:.71;fill:#000"/><circle cx="32.44" cy="221.26" r="1.95" clip-path="url(#cpMjQuMzF8MTcyLjY4fDI0NC44NnwxMzYuOTg=)" style="stroke-width:.71;fill:#000"/><circle cx="82.28" cy="191.9" r="1.95" clip-path="url(#cpMjQuMzF8MTcyLjY4fDI0NC44NnwxMzYuOTg=)" style="stroke-width:.71;fill:#000"/><circle cx="60.62" cy="197.02" r="1.95" clip-path="url(#cpMjQuMzF8MTcyLjY4fDI0NC44NnwxMzYuOTg=)" style="stroke-width:.71;fill:#000"/><circle cx="34.31" cy="212.81" r="1.95" clip-path="url(#cpMjQuMzF8MTcyLjY4fDI0NC44NnwxMzYuOTg=)" style="stroke-width:.71;fill:#000"/><circle cx="33.96" cy="226.9" r="1.95" clip-path="url(#cpMjQuMzF8MTcyLjY4fDI0NC44NnwxMzYuOTg=)" style="stroke-width:.71;fill:#000"/><circle cx="101.18" cy="194.33" r="1.95" clip-path="url(#cpMjQuMzF8MTcyLjY4fDI0NC44NnwxMzYuOTg=)" style="stroke-width:.71;fill:#000"/><circle cx="63.09" cy="217.84" r="1.95" clip-path="url(#cpMjQuMzF8MTcyLjY4fDI0NC44NnwxMzYuOTg=)" style="stroke-width:.71;fill:#000"/><circle cx="47.21" cy="229.68" r="1.95" clip-path="url(#cpMjQuMzF8MTcyLjY4fDI0NC44NnwxMzYuOTg=)" style="stroke-width:.71;fill:#000"/><circle cx="43.45" cy="221.58" r="1.95" clip-path="url(#cpMjQuMzF8MTcyLjY4fDI0NC44NnwxMzYuOTg=)" style="stroke-width:.71;fill:#000"/><circle cx="50.62" cy="218.1" r="1.95" clip-path="url(#cpMjQuMzF8MTcyLjY4fDI0NC44NnwxMzYuOTg=)" style="stroke-width:.71;fill:#000"/><circle cx="53.33" cy="199.29" r="1.95" clip-path="url(#cpMjQuMzF8MTcyLjY4fDI0NC44NnwxMzYuOTg=)" style="stroke-width:.71;fill:#000"/><circle cx="35.54" cy="239.95" r="1.95" clip-path="url(#cpMjQuMzF8MTcyLjY4fDI0NC44NnwxMzYuOTg=)" style="stroke-width:.71;fill:#000"/><circle cx="55.38" cy="207.99" r="1.95" clip-path="url(#cpMjQuMzF8MTcyLjY4fDI0NC44NnwxMzYuOTg=)" style="stroke-width:.71;fill:#000"/><circle cx="66.33" cy="220.54" r="1.95" clip-path="url(#cpMjQuMzF8MTcyLjY4fDI0NC44NnwxMzYuOTg=)" style="stroke-width:.71;fill:#000"/><circle cx="87.68" cy="200.05" r="1.95" clip-path="url(#cpMjQuMzF8MTcyLjY4fDI0NC44NnwxMzYuOTg=)" style="stroke-width:.71;fill:#000"/><circle cx="54.08" cy="227.8" r="1.95" clip-path="url(#cpMjQuMzF8MTcyLjY4fDI0NC44NnwxMzYuOTg=)" style="stroke-width:.71;fill:#000"/><circle cx="43.85" cy="209.87" r="1.95" clip-path="url(#cpMjQuMzF8MTcyLjY4fDI0NC44NnwxMzYuOTg=)" style="stroke-width:.71;fill:#000"/><circle cx="59.55" cy="213.19" r="1.95" clip-path="url(#cpMjQuMzF8MTcyLjY4fDI0NC44NnwxMzYuOTg=)" style="stroke-width:.71;fill:#000"/><circle cx="33.52" cy="218.77" r="1.95" clip-path="url(#cpMjQuMzF8MTcyLjY4fDI0NC44NnwxMzYuOTg=)" style="stroke-width:.71;fill:#000"/><circle cx="38.69" cy="229.24" r="1.95" clip-path="url(#cpMjQuMzF8MTcyLjY4fDI0NC44NnwxMzYuOTg=)" style="stroke-width:.71;fill:#000"/><circle cx="32.51" cy="201.66" r="1.95" clip-path="url(#cpMjQuMzF8MTcyLjY4fDI0NC44NnwxMzYuOTg=)" style="stroke-width:.71;fill:#000"/><circle cx="33.95" cy="237.6" r="1.95" clip-path="url(#cpMjQuMzF8MTcyLjY4fDI0NC44NnwxMzYuOTg=)" style="stroke-width:.71;fill:#000"/><circle cx="76.17" cy="211.35" r="1.95" clip-path="url(#cpMjQuMzF8MTcyLjY4fDI0NC44NnwxMzYuOTg=)" style="stroke-width:.71;fill:#000"/><circle cx="36.1" cy="210.91" r="1.95" clip-path="url(#cpMjQuMzF8MTcyLjY4fDI0NC44NnwxMzYuOTg=)" style="stroke-width:.71;fill:#000"/><circle cx="145.72" cy="181.98" r="1.95" clip-path="url(#cpMjQuMzF8MTcyLjY4fDI0NC44NnwxMzYuOTg=)" style="stroke-width:.71;fill:#000"/><circle cx="63.92" cy="208.18" r="1.95" clip-path="url(#cpMjQuMzF8MTcyLjY4fDI0NC44NnwxMzYuOTg=)" style="stroke-width:.71;fill:#000"/><circle cx="32.82" cy="233.46" r="1.95" clip-path="url(#cpMjQuMzF8MTcyLjY4fDI0NC44NnwxMzYuOTg=)" style="stroke-width:.71;fill:#000"/><circle cx="98.19" cy="207.87" r="1.95" clip-path="url(#cpMjQuMzF8MTcyLjY4fDI0NC44NnwxMzYuOTg=)" style="stroke-width:.71;fill:#000"/><circle cx="46.27" cy="221.05" r="1.95" clip-path="url(#cpMjQuMzF8MTcyLjY4fDI0NC44NnwxMzYuOTg=)" style="stroke-width:.71;fill:#000"/><circle cx="43.48" cy="214.95" r="1.95" clip-path="url(#cpMjQuMzF8MTcyLjY4fDI0NC44NnwxMzYuOTg=)" style="stroke-width:.71;fill:#000"/><circle cx="105.48" cy="208.44" r="1.95" clip-path="url(#cpMjQuMzF8MTcyLjY4fDI0NC44NnwxMzYuOTg=)" style="stroke-width:.71;fill:#000"/><circle cx="34.72" cy="235.71" r="1.95" clip-path="url(#cpMjQuMzF8MTcyLjY4fDI0NC44NnwxMzYuOTg=)" style="stroke-width:.71;fill:#000"/><circle cx="46.92" cy="209.28" r="1.95" clip-path="url(#cpMjQuMzF8MTcyLjY4fDI0NC44NnwxMzYuOTg=)" style="stroke-width:.71;fill:#000"/><circle cx="33.1" cy="239.08" r="1.95" clip-path="url(#cpMjQuMzF8MTcyLjY4fDI0NC44NnwxMzYuOTg=)" style="stroke-width:.71;fill:#000"/><circle cx="55.71" cy="212.04" r="1.95" clip-path="url(#cpMjQuMzF8MTcyLjY4fDI0NC44NnwxMzYuOTg=)" style="stroke-width:.71;fill:#000"/><circle cx="107.92" cy="170.25" r="1.95" clip-path="url(#cpMjQuMzF8MTcyLjY4fDI0NC44NnwxMzYuOTg=)" style="stroke-width:.71;fill:#000"/><circle cx="36.48" cy="229.4" r="1.95" clip-path="url(#cpMjQuMzF8MTcyLjY4fDI0NC44NnwxMzYuOTg=)" style="stroke-width:.71;fill:#000"/><circle cx="31.75" cy="239.03" r="1.95" clip-path="url(#cpMjQuMzF8MTcyLjY4fDI0NC44NnwxMzYuOTg=)" style="stroke-width:.71;fill:#000"/><circle cx="60.94" cy="205.73" r="1.95" clip-path="url(#cpMjQuMzF8MTcyLjY4fDI0NC44NnwxMzYuOTg=)" style="stroke-width:.71;fill:#000"/><circle cx="51.73" cy="211.11" r="1.95" clip-path="url(#cpMjQuMzF8MTcyLjY4fDI0NC44NnwxMzYuOTg=)" style="stroke-width:.71;fill:#000"/><circle cx="40.34" cy="228.13" r="1.95" clip-path="url(#cpMjQuMzF8MTcyLjY4fDI0NC44NnwxMzYuOTg=)" style="stroke-width:.71;fill:#000"/><circle cx="58.4" cy="228.65" r="1.95" clip-path="url(#cpMjQuMzF8MTcyLjY4fDI0NC44NnwxMzYuOTg=)" style="stroke-width:.71;fill:#000"/><circle cx="31.13" cy="218.17" r="1.95" clip-path="url(#cpMjQuMzF8MTcyLjY4fDI0NC44NnwxMzYuOTg=)" style="stroke-width:.71;fill:#000"/><defs><clipPath id="cpMC4wMHw1MDQuMDB8Mzc4LjAwfDAuMDA="><rect width="504" height="378" x="0" y="0"/></clipPath></defs><defs><clipPath id="cpMjQuMzF8MTcyLjY4fDM1OC4yMXwyNTAuMzM="><rect width="148.37" height="107.87" x="24.31" y="250.33"/></clipPath></defs><circle cx="52.1" cy="313.02" r="1.95" clip-path="url(#cpMjQuMzF8MTcyLjY4fDM1OC4yMXwyNTAuMzM=)" style="stroke-width:.71;fill:#000"/><circle cx="31.05" cy="255.24" r="1.95" clip-path="url(#cpMjQuMzF8MTcyLjY4fDM1OC4yMXwyNTAuMzM=)" style="stroke-width:.71;fill:#000"/><circle cx="43.01" cy="311.91" r="1.95" clip-path="url(#cpMjQuMzF8MTcyLjY4fDM1OC4yMXwyNTAuMzM=)" style="stroke-width:.71;fill:#000"/><circle cx="42.35" cy="333.47" r="1.95" clip-path="url(#cpMjQuMzF8MTcyLjY4fDM1OC4yMXwyNTAuMzM=)" style="stroke-width:.71;fill:#000"/><circle cx="165.93" cy="276.53" r="1.95" clip-path="url(#cpMjQuMzF8MTcyLjY4fDM1OC4yMXwyNTAuMzM=)" style="stroke-width:.71;fill:#000"/><circle cx="45.14" cy="327.6" r="1.95" clip-path="url(#cpMjQuMzF8MTcyLjY4fDM1OC4yMXwyNTAuMzM=)" style="stroke-width:.71;fill:#000"/><circle cx="48.76" cy="337.21" r="1.95" clip-path="url(#cpMjQuMzF8MTcyLjY4fDM1OC4yMXwyNTAuMzM=)" style="stroke-width:.71;fill:#000"/><circle cx="32.44" cy="334.61" r="1.95" clip-path="url(#cpMjQuMzF8MTcyLjY4fDM1OC4yMXwyNTAuMzM=)" style="stroke-width:.71;fill:#000"/><circle cx="82.28" cy="305.26" r="1.95" clip-path="url(#cpMjQuMzF8MTcyLjY4fDM1OC4yMXwyNTAuMzM=)" style="stroke-width:.71;fill:#000"/><circle cx="60.62" cy="310.37" r="1.95" clip-path="url(#cpMjQuMzF8MTcyLjY4fDM1OC4yMXwyNTAuMzM=)" style="stroke-width:.71;fill:#000"/><circle cx="34.31" cy="326.16" r="1.95" clip-path="url(#cpMjQuMzF8MTcyLjY4fDM1OC4yMXwyNTAuMzM=)" style="stroke-width:.71;fill:#000"/><circle cx="33.96" cy="340.26" r="1.95" clip-path="url(#cpMjQuMzF8MTcyLjY4fDM1OC4yMXwyNTAuMzM=)" style="stroke-width:.71;fill:#000"/><circle cx="101.18" cy="307.68" r="1.95" clip-path="url(#cpMjQuMzF8MTcyLjY4fDM1OC4yMXwyNTAuMzM=)" style="stroke-width:.71;fill:#000"/><circle cx="63.09" cy="331.19" r="1.95" clip-path="url(#cpMjQuMzF8MTcyLjY4fDM1OC4yMXwyNTAuMzM=)" style="stroke-width:.71;fill:#000"/><circle cx="47.21" cy="343.04" r="1.95" clip-path="url(#cpMjQuMzF8MTcyLjY4fDM1OC4yMXwyNTAuMzM=)" style="stroke-width:.71;fill:#000"/><circle cx="43.45" cy="334.94" r="1.95" clip-path="url(#cpMjQuMzF8MTcyLjY4fDM1OC4yMXwyNTAuMzM=)" style="stroke-width:.71;fill:#000"/><circle cx="50.62" cy="331.45" r="1.95" clip-path="url(#cpMjQuMzF8MTcyLjY4fDM1OC4yMXwyNTAuMzM=)" style="stroke-width:.71;fill:#000"/><circle cx="53.33" cy="312.64" r="1.95" clip-path="url(#cpMjQuMzF8MTcyLjY4fDM1OC4yMXwyNTAuMzM=)" style="stroke-width:.71;fill:#000"/><circle cx="35.54" cy="353.31" r="1.95" clip-path="url(#cpMjQuMzF8MTcyLjY4fDM1OC4yMXwyNTAuMzM=)" style="stroke-width:.71;fill:#000"/><circle cx="55.38" cy="321.34" r="1.95" clip-path="url(#cpMjQuMzF8MTcyLjY4fDM1OC4yMXwyNTAuMzM=)" style="stroke-width:.71;fill:#000"/><circle cx="66.33" cy="333.9" r="1.95" clip-path="url(#cpMjQuMzF8MTcyLjY4fDM1OC4yMXwyNTAuMzM=)" style="stroke-width:.71;fill:#000"/><circle cx="87.68" cy="313.41" r="1.95" clip-path="url(#cpMjQuMzF8MTcyLjY4fDM1OC4yMXwyNTAuMzM=)" style="stroke-width:.71;fill:#000"/><circle cx="54.08" cy="341.15" r="1.95" clip-path="url(#cpMjQuMzF8MTcyLjY4fDM1OC4yMXwyNTAuMzM=)" style="stroke-width:.71;fill:#000"/><circle cx="43.85" cy="323.22" r="1.95" clip-path="url(#cpMjQuMzF8MTcyLjY4fDM1OC4yMXwyNTAuMzM=)" style="stroke-width:.71;fill:#000"/><circle cx="59.55" cy="326.55" r="1.95" clip-path="url(#cpMjQuMzF8MTcyLjY4fDM1OC4yMXwyNTAuMzM=)" style="stroke-width:.71;fill:#000"/><circle cx="33.52" cy="332.12" r="1.95" clip-path="url(#cpMjQuMzF8MTcyLjY4fDM1OC4yMXwyNTAuMzM=)" style="stroke-width:.71;fill:#000"/><circle cx="38.69" cy="342.59" r="1.95" clip-path="url(#cpMjQuMzF8MTcyLjY4fDM1OC4yMXwyNTAuMzM=)" style="stroke-width:.71;fill:#000"/><circle cx="32.51" cy="315.01" r="1.95" clip-path="url(#cpMjQuMzF8MTcyLjY4fDM1OC4yMXwyNTAuMzM=)" style="stroke-width:.71;fill:#000"/><circle cx="33.95" cy="350.95" r="1.95" clip-path="url(#cpMjQuMzF8MTcyLjY4fDM1OC4yMXwyNTAuMzM=)" style="stroke-width:.71;fill:#000"/><circle cx="76.17" cy="324.7" r="1.95" clip-path="url(#cpMjQuMzF8MTcyLjY4fDM1OC4yMXwyNTAuMzM=)" style="stroke-width:.71;fill:#000"/><circle cx="36.1" cy="324.27" r="1.95" clip-path="url(#cpMjQuMzF8MTcyLjY4fDM1OC4yMXwyNTAuMzM=)" style="stroke-width:.71;fill:#000"/><circle cx="145.72" cy="295.33" r="1.95" clip-path="url(#cpMjQuMzF8MTcyLjY4fDM1OC4yMXwyNTAuMzM=)" style="stroke-width:.71;fill:#000"/><circle cx="63.92" cy="321.54" r="1.95" clip-path="url(#cpMjQuMzF8MTcyLjY4fDM1OC4yMXwyNTAuMzM=)" style="stroke-width:.71;fill:#000"/><circle cx="32.82" cy="346.81" r="1.95" clip-path="url(#cpMjQuMzF8MTcyLjY4fDM1OC4yMXwyNTAuMzM=)" style="stroke-width:.71;fill:#000"/><circle cx="98.19" cy="321.23" r="1.95" clip-path="url(#cpMjQuMzF8MTcyLjY4fDM1OC4yMXwyNTAuMzM=)" style="stroke-width:.71;fill:#000"/><circle cx="46.27" cy="334.41" r="1.95" clip-path="url(#cpMjQuMzF8MTcyLjY4fDM1OC4yMXwyNTAuMzM=)" style="stroke-width:.71;fill:#000"/><circle cx="43.48" cy="328.3" r="1.95" clip-path="url(#cpMjQuMzF8MTcyLjY4fDM1OC4yMXwyNTAuMzM=)" style="stroke-width:.71;fill:#000"/><circle cx="105.48" cy="321.79" r="1.95" clip-path="url(#cpMjQuMzF8MTcyLjY4fDM1OC4yMXwyNTAuMzM=)" style="stroke-width:.71;fill:#000"/><circle cx="34.72" cy="349.06" r="1.95" clip-path="url(#cpMjQuMzF8MTcyLjY4fDM1OC4yMXwyNTAuMzM=)" style="stroke-width:.71;fill:#000"/><circle cx="46.92" cy="322.63" r="1.95" clip-path="url(#cpMjQuMzF8MTcyLjY4fDM1OC4yMXwyNTAuMzM=)" style="stroke-width:.71;fill:#000"/><circle cx="33.1" cy="352.43" r="1.95" clip-path="url(#cpMjQuMzF8MTcyLjY4fDM1OC4yMXwyNTAuMzM=)" style="stroke-width:.71;fill:#000"/><circle cx="55.71" cy="325.39" r="1.95" clip-path="url(#cpMjQuMzF8MTcyLjY4fDM1OC4yMXwyNTAuMzM=)" style="stroke-width:.71;fill:#000"/><circle cx="107.92" cy="283.6" r="1.95" clip-path="url(#cpMjQuMzF8MTcyLjY4fDM1OC4yMXwyNTAuMzM=)" style="stroke-width:.71;fill:#000"/><circle cx="36.48" cy="342.75" r="1.95" clip-path="url(#cpMjQuMzF8MTcyLjY4fDM1OC4yMXwyNTAuMzM=)" style="stroke-width:.71;fill:#000"/><circle cx="31.75" cy="352.38" r="1.95" clip-path="url(#cpMjQuMzF8MTcyLjY4fDM1OC4yMXwyNTAuMzM=)" style="stroke-width:.71;fill:#000"/><circle cx="60.94" cy="319.08" r="1.95" clip-path="url(#cpMjQuMzF8MTcyLjY4fDM1OC4yMXwyNTAuMzM=)" style="stroke-width:.71;fill:#000"/><circle cx="51.73" cy="324.46" r="1.95" clip-path="url(#cpMjQuMzF8MTcyLjY4fDM1OC4yMXwyNTAuMzM=)" style="stroke-width:.71;fill:#000"/><circle cx="40.34" cy="341.48" r="1.95" clip-path="url(#cpMjQuMzF8MTcyLjY4fDM1OC4yMXwyNTAuMzM=)" style="stroke-width:.71;fill:#000"/><circle cx="58.4" cy="342.01" r="1.95" clip-path="url(#cpMjQuMzF8MTcyLjY4fDM1OC4yMXwyNTAuMzM=)" style="stroke-width:.71;fill:#000"/><circle cx="31.13" cy="331.52" r="1.95" clip-path="url(#cpMjQuMzF8MTcyLjY4fDM1OC4yMXwyNTAuMzM=)" style="stroke-width:.71;fill:#000"/><defs><clipPath id="cpMC4wMHw1MDQuMDB8Mzc4LjAwfDAuMDA="><rect width="504" height="378" x="0" y="0"/></clipPath></defs><defs><clipPath id="cpMTc4LjE2fDMyNi41M3wxMzEuNTB8MjMuNjM="><rect width="148.37" height="107.87" x="178.16" y="23.63"/></clipPath></defs><rect width="148.37" height="107.87" x="178.16" y="23.63" clip-path="url(#cpMTc4LjE2fDMyNi41M3wxMzEuNTB8MjMuNjM=)" style="stroke-width:1.07"/><g clip-path="url(#cpMTc4LjE2fDMyNi41M3wxMzEuNTB8MjMuNjM=)"><text x="235.78" y="72.81" lengthAdjust="spacingAndGlyphs" textLength="33.12" style="font-size:11.04px;fill:#717171;font-family:Courier">Corr:</text></g><g clip-path="url(#cpMTc4LjE2fDMyNi41M3wxMzEuNTB8MjMuNjM=)"><text x="225.84" y="88.71" lengthAdjust="spacingAndGlyphs" textLength="53" style="font-size:11.04px;fill:#717171;font-family:Courier">0.577***</text></g><rect width="148.37" height="107.87" x="178.16" y="23.63" clip-path="url(#cpMTc4LjE2fDMyNi41M3wxMzEuNTB8MjMuNjM=)" style="stroke-width:1.07"/><defs><clipPath id="cpMC4wMHw1MDQuMDB8Mzc4LjAwfDAuMDA="><rect width="504" height="378" x="0" y="0"/></clipPath></defs><defs><clipPath id="cpMTc4LjE2fDMyNi41M3wyNDQuODZ8MTM2Ljk4"><rect width="148.37" height="107.87" x="178.16" y="136.98"/></clipPath></defs><polyline points="184.9 205.79 185.17 205.09 185.43 204.39 185.69 203.69 185.96 203 186.22 202.3 186.49 201.62 186.75 200.93 187.01 200.26 187.28 199.58 187.54 198.91 187.81 198.24 188.07 197.58 188.33 196.92 188.6 196.27 188.86 195.62 189.13 194.98 189.39 194.34 189.65 193.7 189.92 193.07 190.18 192.45 190.45 191.82 190.71 191.21 190.97 190.59 191.24 189.98 191.5 189.37 191.77 188.77 192.03 188.17 192.29 187.58 192.56 186.99 192.82 186.4 193.08 185.81 193.35 185.23 193.61 184.65 193.88 184.07 194.14 183.5 194.4 182.93 194.67 182.36 194.93 181.8 195.2 181.23 195.46 180.68 195.72 180.12 195.99 179.56 196.25 179.01 196.52 178.46 196.78 177.92 197.04 177.37 197.31 176.83 197.57 176.29 197.84 175.76 198.1 175.23 198.36 174.69 198.63 174.17 198.89 173.64 199.16 173.12 199.42 172.6 199.68 172.08 199.95 171.57 200.21 171.05 200.48 170.54 200.74 170.04 201 169.53 201.27 169.03 201.53 168.53 201.8 168.03 202.06 167.54 202.32 167.04 202.59 166.55 202.85 166.07 203.11 165.58 203.38 165.1 203.64 164.61 203.91 164.13 204.17 163.65 204.43 163.18 204.7 162.7 204.96 162.23 205.23 161.76 205.49 161.29 205.75 160.82 206.02 160.35 206.28 159.89 206.55 159.43 206.81 158.96 207.07 158.5 207.34 158.04 207.6 157.59 207.87 157.13 208.13 156.68 208.39 156.23 208.66 155.77 208.92 155.33 209.19 154.88 209.45 154.43 209.71 153.99 209.98 153.55 210.24 153.11 210.51 152.68 210.77 152.25 211.03 151.82 211.3 151.4 211.56 150.98 211.83 150.56 212.09 150.15 212.35 149.74 212.62 149.34 212.88 148.94 213.15 148.55 213.41 148.16 213.67 147.78 213.94 147.41 214.2 147.04 214.46 146.69 214.73 146.34 214.99 146 215.26 145.67 215.52 145.35 215.78 145.04 216.05 144.74 216.31 144.45 216.58 144.17 216.84 143.91 217.1 143.66 217.37 143.42 217.63 143.2 217.9 143 218.16 142.8 218.42 142.63 218.69 142.47 218.95 142.33 219.22 142.21 219.48 142.11 219.74 142.02 220.01 141.96 220.27 141.91 220.54 141.88 220.8 141.88 221.06 141.9 221.33 141.94 221.59 142.01 221.86 142.1 222.12 142.2 222.38 142.34 222.65 142.5 222.91 142.68 223.18 142.89 223.44 143.12 223.7 143.37 223.97 143.65 224.23 143.96 224.5 144.28 224.76 144.64 225.02 145.01 225.29 145.41 225.55 145.84 225.81 146.28 226.08 146.75 226.34 147.24 226.61 147.75 226.87 148.28 227.13 148.84 227.4 149.41 227.66 150 227.93 150.61 228.19 151.24 228.45 151.88 228.72 152.54 228.98 153.21 229.25 153.9 229.51 154.6 229.77 155.31 230.04 156.03 230.3 156.76 230.57 157.5 230.83 158.25 231.09 159 231.36 159.76 231.62 160.53 231.89 161.3 232.15 162.07 232.41 162.84 232.68 163.62 232.94 164.4 233.21 165.17 233.47 165.95 233.73 166.73 234 167.5 234.26 168.27 234.53 169.04 234.79 169.8 235.05 170.56 235.32 171.32 235.58 172.07 235.85 172.82 236.11 173.56 236.37 174.3 236.64 175.04 236.9 175.76 237.16 176.49 237.43 177.21 237.69 177.92 237.96 178.63 238.22 179.34 238.48 180.04 238.75 180.73 239.01 181.43 239.28 182.12 239.54 182.81 239.8 183.49 240.07 184.17 240.33 184.85 240.6 185.53 240.86 186.21 241.12 186.88 241.39 187.56 241.65 188.24 241.92 188.91 242.18 189.59 242.44 190.26 242.71 190.94 242.97 191.62 243.24 192.3 243.5 192.98 243.76 193.66 244.03 194.34 244.29 195.03 244.56 195.71 244.82 196.4 245.08 197.09 245.35 197.78 245.61 198.47 245.88 199.17 246.14 199.86 246.4 200.55 246.67 201.25 246.93 201.94 247.2 202.64 247.46 203.33 247.72 204.03 247.99 204.72 248.25 205.41 248.51 206.1 248.78 206.79 249.04 207.47 249.31 208.15 249.57 208.82 249.83 209.49 250.1 210.16 250.36 210.82 250.63 211.48 250.89 212.12 251.15 212.76 251.42 213.4 251.68 214.02 251.95 214.64 252.21 215.25 252.47 215.85 252.74 216.44 253 217.02 253.27 217.58 253.53 218.14 253.79 218.69 254.06 219.23 254.32 219.75 254.59 220.26 254.85 220.76 255.11 221.25 255.38 221.73 255.64 222.19 255.91 222.64 256.17 223.08 256.43 223.5 256.7 223.91 256.96 224.32 257.23 224.7 257.49 225.08 257.75 225.44 258.02 225.79 258.28 226.13 258.55 226.46 258.81 226.77 259.07 227.07 259.34 227.36 259.6 227.64 259.86 227.91 260.13 228.17 260.39 228.42 260.66 228.66 260.92 228.88 261.18 229.1 261.45 229.31 261.71 229.51 261.98 229.7 262.24 229.88 262.5 230.06 262.77 230.23 263.03 230.38 263.3 230.54 263.56 230.68 263.82 230.82 264.09 230.95 264.35 231.07 264.62 231.19 264.88 231.3 265.14 231.41 265.41 231.51 265.67 231.61 265.94 231.7 266.2 231.79 266.46 231.87 266.73 231.95 266.99 232.02 267.26 232.08 267.52 232.15 267.78 232.21 268.05 232.26 268.31 232.31 268.58 232.36 268.84 232.4 269.1 232.44 269.37 232.47 269.63 232.51 269.9 232.53 270.16 232.56 270.42 232.58 270.69 232.59 270.95 232.6 271.21 232.61 271.48 232.62 271.74 232.62 272.01 232.62 272.27 232.61 272.53 232.6 272.8 232.59 273.06 232.58 273.33 232.56 273.59 232.54 273.85 232.51 274.12 232.48 274.38 232.45 274.65 232.42 274.91 232.39 275.17 232.35 275.44 232.31 275.7 232.27 275.97 232.22 276.23 232.18 276.49 232.13 276.76 232.08 277.02 232.03 277.29 231.98 277.55 231.93 277.81 231.87 278.08 231.82 278.34 231.76 278.61 231.71 278.87 231.66 279.13 231.6 279.4 231.55 279.66 231.5 279.93 231.45 280.19 231.4 280.45 231.35 280.72 231.3 280.98 231.26 281.25 231.22 281.51 231.17 281.77 231.14 282.04 231.1 282.3 231.07 282.56 231.04 282.83 231.01 283.09 230.99 283.36 230.97 283.62 230.95 283.88 230.94 284.15 230.93 284.41 230.93 284.68 230.93 284.94 230.93 285.2 230.94 285.47 230.95 285.73 230.97 286 230.99 286.26 231.02 286.52 231.05 286.79 231.09 287.05 231.13 287.32 231.17 287.58 231.22 287.84 231.28 288.11 231.33 288.37 231.4 288.64 231.47 288.9 231.54 289.16 231.62 289.43 231.7 289.69 231.78 289.96 231.87 290.22 231.97 290.48 232.06 290.75 232.16 291.01 232.27 291.28 232.38 291.54 232.49 291.8 232.6 292.07 232.72 292.33 232.84 292.59 232.96 292.86 233.09 293.12 233.21 293.39 233.34 293.65 233.47 293.91 233.61 294.18 233.74 294.44 233.87 294.71 234.01 294.97 234.14 295.23 234.28 295.5 234.42 295.76 234.55 296.03 234.69 296.29 234.82 296.55 234.95 296.82 235.09 297.08 235.22 297.35 235.35 297.61 235.48 297.87 235.6 298.14 235.73 298.4 235.85 298.67 235.97 298.93 236.08 299.19 236.2 299.46 236.3 299.72 236.41 299.99 236.51 300.25 236.61 300.51 236.71 300.78 236.8 301.04 236.88 301.31 236.96 301.57 237.04 301.83 237.11 302.1 237.18 302.36 237.25 302.63 237.3 302.89 237.36 303.15 237.41 303.42 237.45 303.68 237.49 303.94 237.52 304.21 237.55 304.47 237.57 304.74 237.59 305 237.6 305.26 237.61 305.53 237.61 305.79 237.61 306.06 237.6 306.32 237.59 306.58 237.57 306.85 237.55 307.11 237.52 307.38 237.49 307.64 237.45 307.9 237.41 308.17 237.37 308.43 237.32 308.7 237.27 308.96 237.21 309.22 237.15 309.49 237.09 309.75 237.02 310.02 236.96 310.28 236.89 310.54 236.81 310.81 236.74 311.07 236.66 311.34 236.58 311.6 236.5 311.86 236.42 312.13 236.34 312.39 236.26 312.66 236.18 312.92 236.09 313.18 236.01 313.45 235.93 313.71 235.85 313.98 235.77 314.24 235.69 314.5 235.61 314.77 235.54 315.03 235.47 315.29 235.4 315.56 235.33 315.82 235.26 316.09 235.2 316.35 235.14 316.61 235.09 316.88 235.04 317.14 234.99 317.41 234.95 317.67 234.91 317.93 234.88 318.2 234.84 318.46 234.82 318.73 234.8 318.99 234.78 319.25 234.77 319.52 234.77 319.78 234.76 319.78 239.95 319.52 239.95 319.25 239.95 318.99 239.95 318.73 239.95 318.46 239.95 318.2 239.95 317.93 239.95 317.67 239.95 317.41 239.95 317.14 239.95 316.88 239.95 316.61 239.95 316.35 239.95 316.09 239.95 315.82 239.95 315.56 239.95 315.29 239.95 315.03 239.95 314.77 239.95 314.5 239.95 314.24 239.95 313.98 239.95 313.71 239.95 313.45 239.95 313.18 239.95 312.92 239.95 312.66 239.95 312.39 239.95 312.13 239.95 311.86 239.95 311.6 239.95 311.34 239.95 311.07 239.95 310.81 239.95 310.54 239.95 310.28 239.95 310.02 239.95 309.75 239.95 309.49 239.95 309.22 239.95 308.96 239.95 308.7 239.95 308.43 239.95 308.17 239.95 307.9 239.95 307.64 239.95 307.38 239.95 307.11 239.95 306.85 239.95 306.58 239.95 306.32 239.95 306.06 239.95 305.79 239.95 305.53 239.95 305.26 239.95 305 239.95 304.74 239.95 304.47 239.95 304.21 239.95 303.94 239.95 303.68 239.95 303.42 239.95 303.15 239.95 302.89 239.95 302.63 239.95 302.36 239.95 302.1 239.95 301.83 239.95 301.57 239.95 301.31 239.95 301.04 239.95 300.78 239.95 300.51 239.95 300.25 239.95 299.99 239.95 299.72 239.95 299.46 239.95 299.19 239.95 298.93 239.95 298.67 239.95 298.4 239.95 298.14 239.95 297.87 239.95 297.61 239.95 297.35 239.95 297.08 239.95 296.82 239.95 296.55 239.95 296.29 239.95 296.03 239.95 295.76 239.95 295.5 239.95 295.23 239.95 294.97 239.95 294.71 239.95 294.44 239.95 294.18 239.95 293.91 239.95 293.65 239.95 293.39 239.95 293.12 239.95 292.86 239.95 292.59 239.95 292.33 239.95 292.07 239.95 291.8 239.95 291.54 239.95 291.28 239.95 291.01 239.95 290.75 239.95 290.48 239.95 290.22 239.95 289.96 239.95 289.69 239.95 289.43 239.95 289.16 239.95 288.9 239.95 288.64 239.95 288.37 239.95 288.11 239.95 287.84 239.95 287.58 239.95 287.32 239.95 287.05 239.95 286.79 239.95 286.52 239.95 286.26 239.95 286 239.95 285.73 239.95 285.47 239.95 285.2 239.95 284.94 239.95 284.68 239.95 284.41 239.95 284.15 239.95 283.88 239.95 283.62 239.95 283.36 239.95 283.09 239.95 282.83 239.95 282.56 239.95 282.3 239.95 282.04 239.95 281.77 239.95 281.51 239.95 281.25 239.95 280.98 239.95 280.72 239.95 280.45 239.95 280.19 239.95 279.93 239.95 279.66 239.95 279.4 239.95 279.13 239.95 278.87 239.95 278.61 239.95 278.34 239.95 278.08 239.95 277.81 239.95 277.55 239.95 277.29 239.95 277.02 239.95 276.76 239.95 276.49 239.95 276.23 239.95 275.97 239.95 275.7 239.95 275.44 239.95 275.17 239.95 274.91 239.95 274.65 239.95 274.38 239.95 274.12 239.95 273.85 239.95 273.59 239.95 273.33 239.95 273.06 239.95 272.8 239.95 272.53 239.95 272.27 239.95 272.01 239.95 271.74 239.95 271.48 239.95 271.21 239.95 270.95 239.95 270.69 239.95 270.42 239.95 270.16 239.95 269.9 239.95 269.63 239.95 269.37 239.95 269.1 239.95 268.84 239.95 268.58 239.95 268.31 239.95 268.05 239.95 267.78 239.95 267.52 239.95 267.26 239.95 266.99 239.95 266.73 239.95 266.46 239.95 266.2 239.95 265.94 239.95 265.67 239.95 265.41 239.95 265.14 239.95 264.88 239.95 264.62 239.95 264.35 239.95 264.09 239.95 263.82 239.95 263.56 239.95 263.3 239.95 263.03 239.95 262.77 239.95 262.5 239.95 262.24 239.95 261.98 239.95 261.71 239.95 261.45 239.95 261.18 239.95 260.92 239.95 260.66 239.95 260.39 239.95 260.13 239.95 259.86 239.95 259.6 239.95 259.34 239.95 259.07 239.95 258.81 239.95 258.55 239.95 258.28 239.95 258.02 239.95 257.75 239.95 257.49 239.95 257.23 239.95 256.96 239.95 256.7 239.95 256.43 239.95 256.17 239.95 255.91 239.95 255.64 239.95 255.38 239.95 255.11 239.95 254.85 239.95 254.59 239.95 254.32 239.95 254.06 239.95 253.79 239.95 253.53 239.95 253.27 239.95 253 239.95 252.74 239.95 252.47 239.95 252.21 239.95 251.95 239.95 251.68 239.95 251.42 239.95 251.15 239.95 250.89 239.95 250.63 239.95 250.36 239.95 250.1 239.95 249.83 239.95 249.57 239.95 249.31 239.95 249.04 239.95 248.78 239.95 248.51 239.95 248.25 239.95 247.99 239.95 247.72 239.95 247.46 239.95 247.2 239.95 246.93 239.95 246.67 239.95 246.4 239.95 246.14 239.95 245.88 239.95 245.61 239.95 245.35 239.95 245.08 239.95 244.82 239.95 244.56 239.95 244.29 239.95 244.03 239.95 243.76 239.95 243.5 239.95 243.24 239.95 242.97 239.95 242.71 239.95 242.44 239.95 242.18 239.95 241.92 239.95 241.65 239.95 241.39 239.95 241.12 239.95 240.86 239.95 240.6 239.95 240.33 239.95 240.07 239.95 239.8 239.95 239.54 239.95 239.28 239.95 239.01 239.95 238.75 239.95 238.48 239.95 238.22 239.95 237.96 239.95 237.69 239.95 237.43 239.95 237.16 239.95 236.9 239.95 236.64 239.95 236.37 239.95 236.11 239.95 235.85 239.95 235.58 239.95 235.32 239.95 235.05 239.95 234.79 239.95 234.53 239.95 234.26 239.95 234 239.95 233.73 239.95 233.47 239.95 233.21 239.95 232.94 239.95 232.68 239.95 232.41 239.95 232.15 239.95 231.89 239.95 231.62 239.95 231.36 239.95 231.09 239.95 230.83 239.95 230.57 239.95 230.3 239.95 230.04 239.95 229.77 239.95 229.51 239.95 229.25 239.95 228.98 239.95 228.72 239.95 228.45 239.95 228.19 239.95 227.93 239.95 227.66 239.95 227.4 239.95 227.13 239.95 226.87 239.95 226.61 239.95 226.34 239.95 226.08 239.95 225.81 239.95 225.55 239.95 225.29 239.95 225.02 239.95 224.76 239.95 224.5 239.95 224.23 239.95 223.97 239.95 223.7 239.95 223.44 239.95 223.18 239.95 222.91 239.95 222.65 239.95 222.38 239.95 222.12 239.95 221.86 239.95 221.59 239.95 221.33 239.95 221.06 239.95 220.8 239.95 220.54 239.95 220.27 239.95 220.01 239.95 219.74 239.95 219.48 239.95 219.22 239.95 218.95 239.95 218.69 239.95 218.42 239.95 218.16 239.95 217.9 239.95 217.63 239.95 217.37 239.95 217.1 239.95 216.84 239.95 216.58 239.95 216.31 239.95 216.05 239.95 215.78 239.95 215.52 239.95 215.26 239.95 214.99 239.95 214.73 239.95 214.46 239.95 214.2 239.95 213.94 239.95 213.67 239.95 213.41 239.95 213.15 239.95 212.88 239.95 212.62 239.95 212.35 239.95 212.09 239.95 211.83 239.95 211.56 239.95 211.3 239.95 211.03 239.95 210.77 239.95 210.51 239.95 210.24 239.95 209.98 239.95 209.71 239.95 209.45 239.95 209.19 239.95 208.92 239.95 208.66 239.95 208.39 239.95 208.13 239.95 207.87 239.95 207.6 239.95 207.34 239.95 207.07 239.95 206.81 239.95 206.55 239.95 206.28 239.95 206.02 239.95 205.75 239.95 205.49 239.95 205.23 239.95 204.96 239.95 204.7 239.95 204.43 239.95 204.17 239.95 203.91 239.95 203.64 239.95 203.38 239.95 203.11 239.95 202.85 239.95 202.59 239.95 202.32 239.95 202.06 239.95 201.8 239.95 201.53 239.95 201.27 239.95 201 239.95 200.74 239.95 200.48 239.95 200.21 239.95 199.95 239.95 199.68 239.95 199.42 239.95 199.16 239.95 198.89 239.95 198.63 239.95 198.36 239.95 198.1 239.95 197.84 239.95 197.57 239.95 197.31 239.95 197.04 239.95 196.78 239.95 196.52 239.95 196.25 239.95 195.99 239.95 195.72 239.95 195.46 239.95 195.2 239.95 194.93 239.95 194.67 239.95 194.4 239.95 194.14 239.95 193.88 239.95 193.61 239.95 193.35 239.95 193.08 239.95 192.82 239.95 192.56 239.95 192.29 239.95 192.03 239.95 191.77 239.95 191.5 239.95 191.24 239.95 190.97 239.95 190.71 239.95 190.45 239.95 190.18 239.95 189.92 239.95 189.65 239.95 189.39 239.95 189.13 239.95 188.86 239.95 188.6 239.95 188.33 239.95 188.07 239.95 187.81 239.95 187.54 239.95 187.28 239.95 187.01 239.95 186.75 239.95 186.49 239.95 186.22 239.95 185.96 239.95 185.69 239.95 185.43 239.95 185.17 239.95 184.9 239.95 184.9 205.79" clip-path="url(#cpMTc4LjE2fDMyNi41M3wyNDQuODZ8MTM2Ljk4)" style="stroke-width:0;stroke:none"/><polyline points="184.9 205.79 185.17 205.09 185.43 204.39 185.69 203.69 185.96 203 186.22 202.3 186.49 201.62 186.75 200.93 187.01 200.26 187.28 199.58 187.54 198.91 187.81 198.24 188.07 197.58 188.33 196.92 188.6 196.27 188.86 195.62 189.13 194.98 189.39 194.34 189.65 193.7 189.92 193.07 190.18 192.45 190.45 191.82 190.71 191.21 190.97 190.59 191.24 189.98 191.5 189.37 191.77 188.77 192.03 188.17 192.29 187.58 192.56 186.99 192.82 186.4 193.08 185.81 193.35 185.23 193.61 184.65 193.88 184.07 194.14 183.5 194.4 182.93 194.67 182.36 194.93 181.8 195.2 181.23 195.46 180.68 195.72 180.12 195.99 179.56 196.25 179.01 196.52 178.46 196.78 177.92 197.04 177.37 197.31 176.83 197.57 176.29 197.84 175.76 198.1 175.23 198.36 174.69 198.63 174.17 198.89 173.64 199.16 173.12 199.42 172.6 199.68 172.08 199.95 171.57 200.21 171.05 200.48 170.54 200.74 170.04 201 169.53 201.27 169.03 201.53 168.53 201.8 168.03 202.06 167.54 202.32 167.04 202.59 166.55 202.85 166.07 203.11 165.58 203.38 165.1 203.64 164.61 203.91 164.13 204.17 163.65 204.43 163.18 204.7 162.7 204.96 162.23 205.23 161.76 205.49 161.29 205.75 160.82 206.02 160.35 206.28 159.89 206.55 159.43 206.81 158.96 207.07 158.5 207.34 158.04 207.6 157.59 207.87 157.13 208.13 156.68 208.39 156.23 208.66 155.77 208.92 155.33 209.19 154.88 209.45 154.43 209.71 153.99 209.98 153.55 210.24 153.11 210.51 152.68 210.77 152.25 211.03 151.82 211.3 151.4 211.56 150.98 211.83 150.56 212.09 150.15 212.35 149.74 212.62 149.34 212.88 148.94 213.15 148.55 213.41 148.16 213.67 147.78 213.94 147.41 214.2 147.04 214.46 146.69 214.73 146.34 214.99 146 215.26 145.67 215.52 145.35 215.78 145.04 216.05 144.74 216.31 144.45 216.58 144.17 216.84 143.91 217.1 143.66 217.37 143.42 217.63 143.2 217.9 143 218.16 142.8 218.42 142.63 218.69 142.47 218.95 142.33 219.22 142.21 219.48 142.11 219.74 142.02 220.01 141.96 220.27 141.91 220.54 141.88 220.8 141.88 221.06 141.9 221.33 141.94 221.59 142.01 221.86 142.1 222.12 142.2 222.38 142.34 222.65 142.5 222.91 142.68 223.18 142.89 223.44 143.12 223.7 143.37 223.97 143.65 224.23 143.96 224.5 144.28 224.76 144.64 225.02 145.01 225.29 145.41 225.55 145.84 225.81 146.28 226.08 146.75 226.34 147.24 226.61 147.75 226.87 148.28 227.13 148.84 227.4 149.41 227.66 150 227.93 150.61 228.19 151.24 228.45 151.88 228.72 152.54 228.98 153.21 229.25 153.9 229.51 154.6 229.77 155.31 230.04 156.03 230.3 156.76 230.57 157.5 230.83 158.25 231.09 159 231.36 159.76 231.62 160.53 231.89 161.3 232.15 162.07 232.41 162.84 232.68 163.62 232.94 164.4 233.21 165.17 233.47 165.95 233.73 166.73 234 167.5 234.26 168.27 234.53 169.04 234.79 169.8 235.05 170.56 235.32 171.32 235.58 172.07 235.85 172.82 236.11 173.56 236.37 174.3 236.64 175.04 236.9 175.76 237.16 176.49 237.43 177.21 237.69 177.92 237.96 178.63 238.22 179.34 238.48 180.04 238.75 180.73 239.01 181.43 239.28 182.12 239.54 182.81 239.8 183.49 240.07 184.17 240.33 184.85 240.6 185.53 240.86 186.21 241.12 186.88 241.39 187.56 241.65 188.24 241.92 188.91 242.18 189.59 242.44 190.26 242.71 190.94 242.97 191.62 243.24 192.3 243.5 192.98 243.76 193.66 244.03 194.34 244.29 195.03 244.56 195.71 244.82 196.4 245.08 197.09 245.35 197.78 245.61 198.47 245.88 199.17 246.14 199.86 246.4 200.55 246.67 201.25 246.93 201.94 247.2 202.64 247.46 203.33 247.72 204.03 247.99 204.72 248.25 205.41 248.51 206.1 248.78 206.79 249.04 207.47 249.31 208.15 249.57 208.82 249.83 209.49 250.1 210.16 250.36 210.82 250.63 211.48 250.89 212.12 251.15 212.76 251.42 213.4 251.68 214.02 251.95 214.64 252.21 215.25 252.47 215.85 252.74 216.44 253 217.02 253.27 217.58 253.53 218.14 253.79 218.69 254.06 219.23 254.32 219.75 254.59 220.26 254.85 220.76 255.11 221.25 255.38 221.73 255.64 222.19 255.91 222.64 256.17 223.08 256.43 223.5 256.7 223.91 256.96 224.32 257.23 224.7 257.49 225.08 257.75 225.44 258.02 225.79 258.28 226.13 258.55 226.46 258.81 226.77 259.07 227.07 259.34 227.36 259.6 227.64 259.86 227.91 260.13 228.17 260.39 228.42 260.66 228.66 260.92 228.88 261.18 229.1 261.45 229.31 261.71 229.51 261.98 229.7 262.24 229.88 262.5 230.06 262.77 230.23 263.03 230.38 263.3 230.54 263.56 230.68 263.82 230.82 264.09 230.95 264.35 231.07 264.62 231.19 264.88 231.3 265.14 231.41 265.41 231.51 265.67 231.61 265.94 231.7 266.2 231.79 266.46 231.87 266.73 231.95 266.99 232.02 267.26 232.08 267.52 232.15 267.78 232.21 268.05 232.26 268.31 232.31 268.58 232.36 268.84 232.4 269.1 232.44 269.37 232.47 269.63 232.51 269.9 232.53 270.16 232.56 270.42 232.58 270.69 232.59 270.95 232.6 271.21 232.61 271.48 232.62 271.74 232.62 272.01 232.62 272.27 232.61 272.53 232.6 272.8 232.59 273.06 232.58 273.33 232.56 273.59 232.54 273.85 232.51 274.12 232.48 274.38 232.45 274.65 232.42 274.91 232.39 275.17 232.35 275.44 232.31 275.7 232.27 275.97 232.22 276.23 232.18 276.49 232.13 276.76 232.08 277.02 232.03 277.29 231.98 277.55 231.93 277.81 231.87 278.08 231.82 278.34 231.76 278.61 231.71 278.87 231.66 279.13 231.6 279.4 231.55 279.66 231.5 279.93 231.45 280.19 231.4 280.45 231.35 280.72 231.3 280.98 231.26 281.25 231.22 281.51 231.17 281.77 231.14 282.04 231.1 282.3 231.07 282.56 231.04 282.83 231.01 283.09 230.99 283.36 230.97 283.62 230.95 283.88 230.94 284.15 230.93 284.41 230.93 284.68 230.93 284.94 230.93 285.2 230.94 285.47 230.95 285.73 230.97 286 230.99 286.26 231.02 286.52 231.05 286.79 231.09 287.05 231.13 287.32 231.17 287.58 231.22 287.84 231.28 288.11 231.33 288.37 231.4 288.64 231.47 288.9 231.54 289.16 231.62 289.43 231.7 289.69 231.78 289.96 231.87 290.22 231.97 290.48 232.06 290.75 232.16 291.01 232.27 291.28 232.38 291.54 232.49 291.8 232.6 292.07 232.72 292.33 232.84 292.59 232.96 292.86 233.09 293.12 233.21 293.39 233.34 293.65 233.47 293.91 233.61 294.18 233.74 294.44 233.87 294.71 234.01 294.97 234.14 295.23 234.28 295.5 234.42 295.76 234.55 296.03 234.69 296.29 234.82 296.55 234.95 296.82 235.09 297.08 235.22 297.35 235.35 297.61 235.48 297.87 235.6 298.14 235.73 298.4 235.85 298.67 235.97 298.93 236.08 299.19 236.2 299.46 236.3 299.72 236.41 299.99 236.51 300.25 236.61 300.51 236.71 300.78 236.8 301.04 236.88 301.31 236.96 301.57 237.04 301.83 237.11 302.1 237.18 302.36 237.25 302.63 237.3 302.89 237.36 303.15 237.41 303.42 237.45 303.68 237.49 303.94 237.52 304.21 237.55 304.47 237.57 304.74 237.59 305 237.6 305.26 237.61 305.53 237.61 305.79 237.61 306.06 237.6 306.32 237.59 306.58 237.57 306.85 237.55 307.11 237.52 307.38 237.49 307.64 237.45 307.9 237.41 308.17 237.37 308.43 237.32 308.7 237.27 308.96 237.21 309.22 237.15 309.49 237.09 309.75 237.02 310.02 236.96 310.28 236.89 310.54 236.81 310.81 236.74 311.07 236.66 311.34 236.58 311.6 236.5 311.86 236.42 312.13 236.34 312.39 236.26 312.66 236.18 312.92 236.09 313.18 236.01 313.45 235.93 313.71 235.85 313.98 235.77 314.24 235.69 314.5 235.61 314.77 235.54 315.03 235.47 315.29 235.4 315.56 235.33 315.82 235.26 316.09 235.2 316.35 235.14 316.61 235.09 316.88 235.04 317.14 234.99 317.41 234.95 317.67 234.91 317.93 234.88 318.2 234.84 318.46 234.82 318.73 234.8 318.99 234.78 319.25 234.77 319.52 234.77 319.78 234.76" clip-path="url(#cpMTc4LjE2fDMyNi41M3wyNDQuODZ8MTM2Ljk4)" style="stroke-width:1.07"/><defs><clipPath id="cpMC4wMHw1MDQuMDB8Mzc4LjAwfDAuMDA="><rect width="504" height="378" x="0" y="0"/></clipPath></defs><defs><clipPath id="cpMTc4LjE2fDMyNi41M3wzNTguMjF8MjUwLjMz"><rect width="148.37" height="107.87" x="178.16" y="250.33"/></clipPath></defs><circle cx="240.32" cy="313.02" r="1.95" clip-path="url(#cpMTc4LjE2fDMyNi41M3wzNTguMjF8MjUwLjMz)" style="stroke-width:.71;fill:#000"/><circle cx="319.78" cy="255.24" r="1.95" clip-path="url(#cpMTc4LjE2fDMyNi41M3wzNTguMjF8MjUwLjMz)" style="stroke-width:.71;fill:#000"/><circle cx="241.84" cy="311.91" r="1.95" clip-path="url(#cpMTc4LjE2fDMyNi41M3wzNTguMjF8MjUwLjMz)" style="stroke-width:.71;fill:#000"/><circle cx="212.19" cy="333.47" r="1.95" clip-path="url(#cpMTc4LjE2fDMyNi41M3wzNTguMjF8MjUwLjMz)" style="stroke-width:.71;fill:#000"/><circle cx="290.49" cy="276.53" r="1.95" clip-path="url(#cpMTc4LjE2fDMyNi41M3wzNTguMjF8MjUwLjMz)" style="stroke-width:.71;fill:#000"/><circle cx="220.26" cy="327.6" r="1.95" clip-path="url(#cpMTc4LjE2fDMyNi41M3wzNTguMjF8MjUwLjMz)" style="stroke-width:.71;fill:#000"/><circle cx="207.04" cy="337.21" r="1.95" clip-path="url(#cpMTc4LjE2fDMyNi41M3wzNTguMjF8MjUwLjMz)" style="stroke-width:.71;fill:#000"/><circle cx="210.62" cy="334.61" r="1.95" clip-path="url(#cpMTc4LjE2fDMyNi41M3wzNTguMjF8MjUwLjMz)" style="stroke-width:.71;fill:#000"/><circle cx="250.99" cy="305.26" r="1.95" clip-path="url(#cpMTc4LjE2fDMyNi41M3wzNTguMjF8MjUwLjMz)" style="stroke-width:.71;fill:#000"/><circle cx="243.95" cy="310.37" r="1.95" clip-path="url(#cpMTc4LjE2fDMyNi41M3wzNTguMjF8MjUwLjMz)" style="stroke-width:.71;fill:#000"/><circle cx="222.23" cy="326.16" r="1.95" clip-path="url(#cpMTc4LjE2fDMyNi41M3wzNTguMjF8MjUwLjMz)" style="stroke-width:.71;fill:#000"/><circle cx="202.85" cy="340.26" r="1.95" clip-path="url(#cpMTc4LjE2fDMyNi41M3wzNTguMjF8MjUwLjMz)" style="stroke-width:.71;fill:#000"/><circle cx="247.65" cy="307.68" r="1.95" clip-path="url(#cpMTc4LjE2fDMyNi41M3wzNTguMjF8MjUwLjMz)" style="stroke-width:.71;fill:#000"/><circle cx="215.32" cy="331.19" r="1.95" clip-path="url(#cpMTc4LjE2fDMyNi41M3wzNTguMjF8MjUwLjMz)" style="stroke-width:.71;fill:#000"/><circle cx="199.03" cy="343.04" r="1.95" clip-path="url(#cpMTc4LjE2fDMyNi41M3wzNTguMjF8MjUwLjMz)" style="stroke-width:.71;fill:#000"/><circle cx="210.17" cy="334.94" r="1.95" clip-path="url(#cpMTc4LjE2fDMyNi41M3wzNTguMjF8MjUwLjMz)" style="stroke-width:.71;fill:#000"/><circle cx="214.96" cy="331.45" r="1.95" clip-path="url(#cpMTc4LjE2fDMyNi41M3wzNTguMjF8MjUwLjMz)" style="stroke-width:.71;fill:#000"/><circle cx="240.83" cy="312.64" r="1.95" clip-path="url(#cpMTc4LjE2fDMyNi41M3wzNTguMjF8MjUwLjMz)" style="stroke-width:.71;fill:#000"/><circle cx="184.9" cy="353.31" r="1.95" clip-path="url(#cpMTc4LjE2fDMyNi41M3wzNTguMjF8MjUwLjMz)" style="stroke-width:.71;fill:#000"/><circle cx="228.87" cy="321.34" r="1.95" clip-path="url(#cpMTc4LjE2fDMyNi41M3wzNTguMjF8MjUwLjMz)" style="stroke-width:.71;fill:#000"/><circle cx="211.6" cy="333.9" r="1.95" clip-path="url(#cpMTc4LjE2fDMyNi41M3wzNTguMjF8MjUwLjMz)" style="stroke-width:.71;fill:#000"/><circle cx="239.78" cy="313.41" r="1.95" clip-path="url(#cpMTc4LjE2fDMyNi41M3wzNTguMjF8MjUwLjMz)" style="stroke-width:.71;fill:#000"/><circle cx="201.62" cy="341.15" r="1.95" clip-path="url(#cpMTc4LjE2fDMyNi41M3wzNTguMjF8MjUwLjMz)" style="stroke-width:.71;fill:#000"/><circle cx="226.28" cy="323.22" r="1.95" clip-path="url(#cpMTc4LjE2fDMyNi41M3wzNTguMjF8MjUwLjMz)" style="stroke-width:.71;fill:#000"/><circle cx="221.7" cy="326.55" r="1.95" clip-path="url(#cpMTc4LjE2fDMyNi41M3wzNTguMjF8MjUwLjMz)" style="stroke-width:.71;fill:#000"/><circle cx="214.04" cy="332.12" r="1.95" clip-path="url(#cpMTc4LjE2fDMyNi41M3wzNTguMjF8MjUwLjMz)" style="stroke-width:.71;fill:#000"/><circle cx="199.64" cy="342.59" r="1.95" clip-path="url(#cpMTc4LjE2fDMyNi41M3wzNTguMjF8MjUwLjMz)" style="stroke-width:.71;fill:#000"/><circle cx="237.57" cy="315.01" r="1.95" clip-path="url(#cpMTc4LjE2fDMyNi41M3wzNTguMjF8MjUwLjMz)" style="stroke-width:.71;fill:#000"/><circle cx="188.14" cy="350.95" r="1.95" clip-path="url(#cpMTc4LjE2fDMyNi41M3wzNTguMjF8MjUwLjMz)" style="stroke-width:.71;fill:#000"/><circle cx="224.24" cy="324.7" r="1.95" clip-path="url(#cpMTc4LjE2fDMyNi41M3wzNTguMjF8MjUwLjMz)" style="stroke-width:.71;fill:#000"/><circle cx="224.84" cy="324.27" r="1.95" clip-path="url(#cpMTc4LjE2fDMyNi41M3wzNTguMjF8MjUwLjMz)" style="stroke-width:.71;fill:#000"/><circle cx="264.63" cy="295.33" r="1.95" clip-path="url(#cpMTc4LjE2fDMyNi41M3wzNTguMjF8MjUwLjMz)" style="stroke-width:.71;fill:#000"/><circle cx="228.6" cy="321.54" r="1.95" clip-path="url(#cpMTc4LjE2fDMyNi41M3wzNTguMjF8MjUwLjMz)" style="stroke-width:.71;fill:#000"/><circle cx="193.83" cy="346.81" r="1.95" clip-path="url(#cpMTc4LjE2fDMyNi41M3wzNTguMjF8MjUwLjMz)" style="stroke-width:.71;fill:#000"/><circle cx="229.02" cy="321.23" r="1.95" clip-path="url(#cpMTc4LjE2fDMyNi41M3wzNTguMjF8MjUwLjMz)" style="stroke-width:.71;fill:#000"/><circle cx="210.9" cy="334.41" r="1.95" clip-path="url(#cpMTc4LjE2fDMyNi41M3wzNTguMjF8MjUwLjMz)" style="stroke-width:.71;fill:#000"/><circle cx="219.29" cy="328.3" r="1.95" clip-path="url(#cpMTc4LjE2fDMyNi41M3wzNTguMjF8MjUwLjMz)" style="stroke-width:.71;fill:#000"/><circle cx="228.24" cy="321.79" r="1.95" clip-path="url(#cpMTc4LjE2fDMyNi41M3wzNTguMjF8MjUwLjMz)" style="stroke-width:.71;fill:#000"/><circle cx="190.74" cy="349.06" r="1.95" clip-path="url(#cpMTc4LjE2fDMyNi41M3wzNTguMjF8MjUwLjMz)" style="stroke-width:.71;fill:#000"/><circle cx="227.09" cy="322.63" r="1.95" clip-path="url(#cpMTc4LjE2fDMyNi41M3wzNTguMjF8MjUwLjMz)" style="stroke-width:.71;fill:#000"/><circle cx="186.1" cy="352.43" r="1.95" clip-path="url(#cpMTc4LjE2fDMyNi41M3wzNTguMjF8MjUwLjMz)" style="stroke-width:.71;fill:#000"/><circle cx="223.29" cy="325.39" r="1.95" clip-path="url(#cpMTc4LjE2fDMyNi41M3wzNTguMjF8MjUwLjMz)" style="stroke-width:.71;fill:#000"/><circle cx="280.77" cy="283.6" r="1.95" clip-path="url(#cpMTc4LjE2fDMyNi41M3wzNTguMjF8MjUwLjMz)" style="stroke-width:.71;fill:#000"/><circle cx="199.42" cy="342.75" r="1.95" clip-path="url(#cpMTc4LjE2fDMyNi41M3wzNTguMjF8MjUwLjMz)" style="stroke-width:.71;fill:#000"/><circle cx="186.17" cy="352.38" r="1.95" clip-path="url(#cpMTc4LjE2fDMyNi41M3wzNTguMjF8MjUwLjMz)" style="stroke-width:.71;fill:#000"/><circle cx="231.97" cy="319.08" r="1.95" clip-path="url(#cpMTc4LjE2fDMyNi41M3wzNTguMjF8MjUwLjMz)" style="stroke-width:.71;fill:#000"/><circle cx="224.57" cy="324.46" r="1.95" clip-path="url(#cpMTc4LjE2fDMyNi41M3wzNTguMjF8MjUwLjMz)" style="stroke-width:.71;fill:#000"/><circle cx="201.16" cy="341.48" r="1.95" clip-path="url(#cpMTc4LjE2fDMyNi41M3wzNTguMjF8MjUwLjMz)" style="stroke-width:.71;fill:#000"/><circle cx="200.44" cy="342.01" r="1.95" clip-path="url(#cpMTc4LjE2fDMyNi41M3wzNTguMjF8MjUwLjMz)" style="stroke-width:.71;fill:#000"/><circle cx="214.86" cy="331.52" r="1.95" clip-path="url(#cpMTc4LjE2fDMyNi41M3wzNTguMjF8MjUwLjMz)" style="stroke-width:.71;fill:#000"/><defs><clipPath id="cpMC4wMHw1MDQuMDB8Mzc4LjAwfDAuMDA="><rect width="504" height="378" x="0" y="0"/></clipPath></defs><defs><clipPath id="cpMzMyLjAxfDQ4MC4zN3wxMzEuNTB8MjMuNjM="><rect width="148.37" height="107.87" x="332.01" y="23.63"/></clipPath></defs><rect width="148.37" height="107.87" x="332.01" y="23.63" clip-path="url(#cpMzMyLjAxfDQ4MC4zN3wxMzEuNTB8MjMuNjM=)" style="stroke-width:1.07"/><g clip-path="url(#cpMzMyLjAxfDQ4MC4zN3wxMzEuNTB8MjMuNjM=)"><text x="389.63" y="72.81" lengthAdjust="spacingAndGlyphs" textLength="33.12" style="font-size:11.04px;fill:#717171;font-family:Courier">Corr:</text></g><g clip-path="url(#cpMzMyLjAxfDQ4MC4zN3wxMzEuNTB8MjMuNjM=)"><text x="379.69" y="88.71" lengthAdjust="spacingAndGlyphs" textLength="53" style="font-size:11.04px;fill:#717171;font-family:Courier">0.577***</text></g><rect width="148.37" height="107.87" x="332.01" y="23.63" clip-path="url(#cpMzMyLjAxfDQ4MC4zN3wxMzEuNTB8MjMuNjM=)" style="stroke-width:1.07"/><defs><clipPath id="cpMC4wMHw1MDQuMDB8Mzc4LjAwfDAuMDA="><rect width="504" height="378" x="0" y="0"/></clipPath></defs><defs><clipPath id="cpMzMyLjAxfDQ4MC4zN3wyNDQuODZ8MTM2Ljk4"><rect width="148.37" height="107.87" x="332.01" y="136.98"/></clipPath></defs><rect width="148.37" height="107.87" x="332.01" y="136.98" clip-path="url(#cpMzMyLjAxfDQ4MC4zN3wyNDQuODZ8MTM2Ljk4)" style="stroke-width:1.07"/><g clip-path="url(#cpMzMyLjAxfDQ4MC4zN3wyNDQuODZ8MTM2Ljk4)"><text x="389.63" y="186.17" lengthAdjust="spacingAndGlyphs" textLength="33.12" style="font-size:11.04px;fill:#717171;font-family:Courier">Corr:</text></g><g clip-path="url(#cpMzMyLjAxfDQ4MC4zN3wyNDQuODZ8MTM2Ljk4)"><text x="379.69" y="202.06" lengthAdjust="spacingAndGlyphs" textLength="53" style="font-size:11.04px;fill:#717171;font-family:Courier">1.000***</text></g><rect width="148.37" height="107.87" x="332.01" y="136.98" clip-path="url(#cpMzMyLjAxfDQ4MC4zN3wyNDQuODZ8MTM2Ljk4)" style="stroke-width:1.07"/><defs><clipPath id="cpMC4wMHw1MDQuMDB8Mzc4LjAwfDAuMDA="><rect width="504" height="378" x="0" y="0"/></clipPath></defs><defs><clipPath id="cpMzMyLjAxfDQ4MC4zN3wzNTguMjF8MjUwLjMz"><rect width="148.37" height="107.87" x="332.01" y="250.33"/></clipPath></defs><polyline points="338.75 319.14 339.01 318.44 339.28 317.74 339.54 317.04 339.81 316.35 340.07 315.66 340.33 314.97 340.6 314.29 340.86 313.61 341.13 312.93 341.39 312.26 341.65 311.6 341.92 310.93 342.18 310.28 342.44 309.62 342.71 308.98 342.97 308.33 343.24 307.69 343.5 307.06 343.76 306.43 344.03 305.8 344.29 305.18 344.56 304.56 344.82 303.95 345.08 303.33 345.35 302.73 345.61 302.13 345.88 301.53 346.14 300.93 346.4 300.34 346.67 299.75 346.93 299.17 347.2 298.58 347.46 298 347.72 297.43 347.99 296.85 348.25 296.28 348.52 295.72 348.78 295.15 349.04 294.59 349.31 294.03 349.57 293.47 349.84 292.92 350.1 292.37 350.36 291.82 350.63 291.27 350.89 290.73 351.16 290.19 351.42 289.65 351.68 289.11 351.95 288.58 352.21 288.05 352.48 287.52 352.74 287 353 286.47 353.27 285.95 353.53 285.44 353.79 284.92 354.06 284.41 354.32 283.9 354.59 283.39 354.85 282.89 355.11 282.38 355.38 281.88 355.64 281.39 355.91 280.89 356.17 280.4 356.43 279.91 356.7 279.42 356.96 278.93 357.23 278.45 357.49 277.97 357.75 277.49 358.02 277.01 358.28 276.53 358.55 276.06 358.81 275.58 359.07 275.11 359.34 274.64 359.6 274.18 359.87 273.71 360.13 273.24 360.39 272.78 360.66 272.32 360.92 271.86 361.19 271.4 361.45 270.94 361.71 270.49 361.98 270.03 362.24 269.58 362.51 269.13 362.77 268.68 363.03 268.23 363.3 267.79 363.56 267.35 363.83 266.91 364.09 266.47 364.35 266.04 364.62 265.6 364.88 265.18 365.14 264.75 365.41 264.33 365.67 263.91 365.94 263.5 366.2 263.09 366.46 262.69 366.73 262.29 366.99 261.9 367.26 261.51 367.52 261.14 367.78 260.76 368.05 260.4 368.31 260.04 368.58 259.69 368.84 259.35 369.1 259.02 369.37 258.7 369.63 258.39 369.9 258.09 370.16 257.81 370.42 257.53 370.69 257.27 370.95 257.02 371.22 256.78 371.48 256.56 371.74 256.35 372.01 256.16 372.27 255.99 372.54 255.83 372.8 255.68 373.06 255.56 373.33 255.46 373.59 255.37 373.86 255.31 374.12 255.27 374.38 255.24 374.65 255.24 374.91 255.26 375.18 255.3 375.44 255.36 375.7 255.45 375.97 255.56 376.23 255.69 376.49 255.85 376.76 256.03 377.02 256.24 377.29 256.47 377.55 256.72 377.81 257.01 378.08 257.31 378.34 257.63 378.61 257.99 378.87 258.37 379.13 258.76 379.4 259.19 379.66 259.64 379.93 260.1 380.19 260.59 380.45 261.11 380.72 261.64 380.98 262.19 381.25 262.77 381.51 263.35 381.77 263.97 382.04 264.59 382.3 265.23 382.57 265.89 382.83 266.57 383.09 267.25 383.36 267.95 383.62 268.66 383.89 269.38 384.15 270.11 384.41 270.85 384.68 271.6 384.94 272.36 385.21 273.12 385.47 273.88 385.73 274.65 386 275.42 386.26 276.2 386.53 276.97 386.79 277.75 387.05 278.53 387.32 279.31 387.58 280.08 387.84 280.85 388.11 281.62 388.37 282.39 388.64 283.16 388.9 283.92 389.16 284.67 389.43 285.43 389.69 286.17 389.96 286.92 390.22 287.66 390.48 288.39 390.75 289.12 391.01 289.84 391.28 290.56 391.54 291.27 391.8 291.98 392.07 292.69 392.33 293.39 392.6 294.09 392.86 294.78 393.12 295.47 393.39 296.16 393.65 296.84 393.92 297.53 394.18 298.21 394.44 298.88 394.71 299.56 394.97 300.24 395.24 300.91 395.5 301.59 395.76 302.26 396.03 302.94 396.29 303.62 396.56 304.29 396.82 304.97 397.08 305.65 397.35 306.33 397.61 307.01 397.87 307.7 398.14 308.38 398.4 309.07 398.67 309.75 398.93 310.44 399.19 311.13 399.46 311.83 399.72 312.52 399.99 313.21 400.25 313.91 400.51 314.6 400.78 315.3 401.04 315.99 401.31 316.69 401.57 317.38 401.83 318.07 402.1 318.77 402.36 319.45 402.63 320.14 402.89 320.82 403.15 321.5 403.42 322.18 403.68 322.85 403.95 323.51 404.21 324.17 404.47 324.83 404.74 325.48 405 326.12 405.27 326.75 405.53 327.38 405.79 327.99 406.06 328.6 406.32 329.2 406.59 329.79 406.85 330.37 407.11 330.94 407.38 331.5 407.64 332.04 407.91 332.58 408.17 333.1 408.43 333.62 408.7 334.12 408.96 334.6 409.22 335.08 409.49 335.54 409.75 335.99 410.02 336.43 410.28 336.86 410.54 337.27 410.81 337.67 411.07 338.06 411.34 338.43 411.6 338.8 411.86 339.15 412.13 339.48 412.39 339.81 412.66 340.12 412.92 340.43 413.18 340.72 413.45 341 413.71 341.27 413.98 341.52 414.24 341.77 414.5 342.01 414.77 342.24 415.03 342.46 415.3 342.66 415.56 342.86 415.82 343.06 416.09 343.24 416.35 343.41 416.62 343.58 416.88 343.74 417.14 343.89 417.41 344.03 417.67 344.17 417.94 344.3 418.2 344.43 418.46 344.55 418.73 344.66 418.99 344.77 419.26 344.87 419.52 344.96 419.78 345.06 420.05 345.14 420.31 345.22 420.57 345.3 420.84 345.37 421.1 345.44 421.37 345.5 421.63 345.56 421.89 345.62 422.16 345.67 422.42 345.71 422.69 345.75 422.95 345.79 423.21 345.83 423.48 345.86 423.74 345.89 424.01 345.91 424.27 345.93 424.53 345.95 424.8 345.96 425.06 345.97 425.33 345.97 425.59 345.97 425.85 345.97 426.12 345.97 426.38 345.96 426.65 345.95 426.91 345.93 427.17 345.91 427.44 345.89 427.7 345.87 427.97 345.84 428.23 345.81 428.49 345.78 428.76 345.74 429.02 345.7 429.29 345.66 429.55 345.62 429.81 345.58 430.08 345.53 430.34 345.48 430.61 345.43 430.87 345.38 431.13 345.33 431.4 345.28 431.66 345.23 431.92 345.17 432.19 345.12 432.45 345.06 432.72 345.01 432.98 344.96 433.24 344.9 433.51 344.85 433.77 344.8 434.04 344.75 434.3 344.7 434.56 344.66 434.83 344.61 435.09 344.57 435.36 344.53 435.62 344.49 435.88 344.45 436.15 344.42 436.41 344.39 436.68 344.37 436.94 344.34 437.2 344.32 437.47 344.31 437.73 344.29 438 344.29 438.26 344.28 438.52 344.28 438.79 344.29 439.05 344.29 439.32 344.31 439.58 344.32 439.84 344.35 440.11 344.37 440.37 344.4 440.64 344.44 440.9 344.48 441.16 344.52 441.43 344.57 441.69 344.63 441.96 344.69 442.22 344.75 442.48 344.82 442.75 344.89 443.01 344.97 443.27 345.05 443.54 345.14 443.8 345.23 444.07 345.32 444.33 345.42 444.59 345.52 444.86 345.62 445.12 345.73 445.39 345.84 445.65 345.96 445.91 346.07 446.18 346.19 446.44 346.32 446.71 346.44 446.97 346.57 447.23 346.7 447.5 346.83 447.76 346.96 448.03 347.09 448.29 347.23 448.55 347.36 448.82 347.5 449.08 347.63 449.35 347.77 449.61 347.9 449.87 348.04 450.14 348.17 450.4 348.31 450.67 348.44 450.93 348.57 451.19 348.7 451.46 348.83 451.72 348.96 451.99 349.08 452.25 349.2 452.51 349.32 452.78 349.44 453.04 349.55 453.31 349.66 453.57 349.76 453.83 349.87 454.1 349.96 454.36 350.06 454.62 350.15 454.89 350.24 455.15 350.32 455.42 350.4 455.68 350.47 455.94 350.54 456.21 350.6 456.47 350.66 456.74 350.71 457 350.76 457.26 350.8 457.53 350.84 457.79 350.87 458.06 350.9 458.32 350.92 458.58 350.94 458.85 350.95 459.11 350.96 459.38 350.96 459.64 350.96 459.9 350.95 460.17 350.94 460.43 350.92 460.7 350.9 460.96 350.87 461.22 350.84 461.49 350.8 461.75 350.77 462.02 350.72 462.28 350.67 462.54 350.62 462.81 350.56 463.07 350.5 463.34 350.44 463.6 350.38 463.86 350.31 464.13 350.24 464.39 350.17 464.66 350.09 464.92 350.01 465.18 349.94 465.45 349.86 465.71 349.78 465.97 349.69 466.24 349.61 466.5 349.53 466.77 349.45 467.03 349.36 467.29 349.28 467.56 349.2 467.82 349.12 468.09 349.04 468.35 348.97 468.61 348.89 468.88 348.82 469.14 348.75 469.41 348.68 469.67 348.62 469.93 348.56 470.2 348.5 470.46 348.44 470.73 348.39 470.99 348.35 471.25 348.3 471.52 348.26 471.78 348.23 472.05 348.2 472.31 348.17 472.57 348.15 472.84 348.14 473.1 348.13 473.37 348.12 473.63 348.12 473.63 353.31 473.37 353.31 473.1 353.31 472.84 353.31 472.57 353.31 472.31 353.31 472.05 353.31 471.78 353.31 471.52 353.31 471.25 353.31 470.99 353.31 470.73 353.31 470.46 353.31 470.2 353.31 469.93 353.31 469.67 353.31 469.41 353.31 469.14 353.31 468.88 353.31 468.61 353.31 468.35 353.31 468.09 353.31 467.82 353.31 467.56 353.31 467.29 353.31 467.03 353.31 466.77 353.31 466.5 353.31 466.24 353.31 465.97 353.31 465.71 353.31 465.45 353.31 465.18 353.31 464.92 353.31 464.66 353.31 464.39 353.31 464.13 353.31 463.86 353.31 463.6 353.31 463.34 353.31 463.07 353.31 462.81 353.31 462.54 353.31 462.28 353.31 462.02 353.31 461.75 353.31 461.49 353.31 461.22 353.31 460.96 353.31 460.7 353.31 460.43 353.31 460.17 353.31 459.9 353.31 459.64 353.31 459.38 353.31 459.11 353.31 458.85 353.31 458.58 353.31 458.32 353.31 458.06 353.31 457.79 353.31 457.53 353.31 457.26 353.31 457 353.31 456.74 353.31 456.47 353.31 456.21 353.31 455.94 353.31 455.68 353.31 455.42 353.31 455.15 353.31 454.89 353.31 454.62 353.31 454.36 353.31 454.1 353.31 453.83 353.31 453.57 353.31 453.31 353.31 453.04 353.31 452.78 353.31 452.51 353.31 452.25 353.31 451.99 353.31 451.72 353.31 451.46 353.31 451.19 353.31 450.93 353.31 450.67 353.31 450.4 353.31 450.14 353.31 449.87 353.31 449.61 353.31 449.35 353.31 449.08 353.31 448.82 353.31 448.55 353.31 448.29 353.31 448.03 353.31 447.76 353.31 447.5 353.31 447.23 353.31 446.97 353.31 446.71 353.31 446.44 353.31 446.18 353.31 445.91 353.31 445.65 353.31 445.39 353.31 445.12 353.31 444.86 353.31 444.59 353.31 444.33 353.31 444.07 353.31 443.8 353.31 443.54 353.31 443.27 353.31 443.01 353.31 442.75 353.31 442.48 353.31 442.22 353.31 441.96 353.31 441.69 353.31 441.43 353.31 441.16 353.31 440.9 353.31 440.64 353.31 440.37 353.31 440.11 353.31 439.84 353.31 439.58 353.31 439.32 353.31 439.05 353.31 438.79 353.31 438.52 353.31 438.26 353.31 438 353.31 437.73 353.31 437.47 353.31 437.2 353.31 436.94 353.31 436.68 353.31 436.41 353.31 436.15 353.31 435.88 353.31 435.62 353.31 435.36 353.31 435.09 353.31 434.83 353.31 434.56 353.31 434.3 353.31 434.04 353.31 433.77 353.31 433.51 353.31 433.24 353.31 432.98 353.31 432.72 353.31 432.45 353.31 432.19 353.31 431.92 353.31 431.66 353.31 431.4 353.31 431.13 353.31 430.87 353.31 430.61 353.31 430.34 353.31 430.08 353.31 429.81 353.31 429.55 353.31 429.29 353.31 429.02 353.31 428.76 353.31 428.49 353.31 428.23 353.31 427.97 353.31 427.7 353.31 427.44 353.31 427.17 353.31 426.91 353.31 426.65 353.31 426.38 353.31 426.12 353.31 425.85 353.31 425.59 353.31 425.33 353.31 425.06 353.31 424.8 353.31 424.53 353.31 424.27 353.31 424.01 353.31 423.74 353.31 423.48 353.31 423.21 353.31 422.95 353.31 422.69 353.31 422.42 353.31 422.16 353.31 421.89 353.31 421.63 353.31 421.37 353.31 421.1 353.31 420.84 353.31 420.57 353.31 420.31 353.31 420.05 353.31 419.78 353.31 419.52 353.31 419.26 353.31 418.99 353.31 418.73 353.31 418.46 353.31 418.2 353.31 417.94 353.31 417.67 353.31 417.41 353.31 417.14 353.31 416.88 353.31 416.62 353.31 416.35 353.31 416.09 353.31 415.82 353.31 415.56 353.31 415.3 353.31 415.03 353.31 414.77 353.31 414.5 353.31 414.24 353.31 413.98 353.31 413.71 353.31 413.45 353.31 413.18 353.31 412.92 353.31 412.66 353.31 412.39 353.31 412.13 353.31 411.86 353.31 411.6 353.31 411.34 353.31 411.07 353.31 410.81 353.31 410.54 353.31 410.28 353.31 410.02 353.31 409.75 353.31 409.49 353.31 409.22 353.31 408.96 353.31 408.7 353.31 408.43 353.31 408.17 353.31 407.91 353.31 407.64 353.31 407.38 353.31 407.11 353.31 406.85 353.31 406.59 353.31 406.32 353.31 406.06 353.31 405.79 353.31 405.53 353.31 405.27 353.31 405 353.31 404.74 353.31 404.47 353.31 404.21 353.31 403.95 353.31 403.68 353.31 403.42 353.31 403.15 353.31 402.89 353.31 402.63 353.31 402.36 353.31 402.1 353.31 401.83 353.31 401.57 353.31 401.31 353.31 401.04 353.31 400.78 353.31 400.51 353.31 400.25 353.31 399.99 353.31 399.72 353.31 399.46 353.31 399.19 353.31 398.93 353.31 398.67 353.31 398.4 353.31 398.14 353.31 397.87 353.31 397.61 353.31 397.35 353.31 397.08 353.31 396.82 353.31 396.56 353.31 396.29 353.31 396.03 353.31 395.76 353.31 395.5 353.31 395.24 353.31 394.97 353.31 394.71 353.31 394.44 353.31 394.18 353.31 393.92 353.31 393.65 353.31 393.39 353.31 393.12 353.31 392.86 353.31 392.6 353.31 392.33 353.31 392.07 353.31 391.8 353.31 391.54 353.31 391.28 353.31 391.01 353.31 390.75 353.31 390.48 353.31 390.22 353.31 389.96 353.31 389.69 353.31 389.43 353.31 389.16 353.31 388.9 353.31 388.64 353.31 388.37 353.31 388.11 353.31 387.84 353.31 387.58 353.31 387.32 353.31 387.05 353.31 386.79 353.31 386.53 353.31 386.26 353.31 386 353.31 385.73 353.31 385.47 353.31 385.21 353.31 384.94 353.31 384.68 353.31 384.41 353.31 384.15 353.31 383.89 353.31 383.62 353.31 383.36 353.31 383.09 353.31 382.83 353.31 382.57 353.31 382.3 353.31 382.04 353.31 381.77 353.31 381.51 353.31 381.25 353.31 380.98 353.31 380.72 353.31 380.45 353.31 380.19 353.31 379.93 353.31 379.66 353.31 379.4 353.31 379.13 353.31 378.87 353.31 378.61 353.31 378.34 353.31 378.08 353.31 377.81 353.31 377.55 353.31 377.29 353.31 377.02 353.31 376.76 353.31 376.49 353.31 376.23 353.31 375.97 353.31 375.7 353.31 375.44 353.31 375.18 353.31 374.91 353.31 374.65 353.31 374.38 353.31 374.12 353.31 373.86 353.31 373.59 353.31 373.33 353.31 373.06 353.31 372.8 353.31 372.54 353.31 372.27 353.31 372.01 353.31 371.74 353.31 371.48 353.31 371.22 353.31 370.95 353.31 370.69 353.31 370.42 353.31 370.16 353.31 369.9 353.31 369.63 353.31 369.37 353.31 369.1 353.31 368.84 353.31 368.58 353.31 368.31 353.31 368.05 353.31 367.78 353.31 367.52 353.31 367.26 353.31 366.99 353.31 366.73 353.31 366.46 353.31 366.2 353.31 365.94 353.31 365.67 353.31 365.41 353.31 365.14 353.31 364.88 353.31 364.62 353.31 364.35 353.31 364.09 353.31 363.83 353.31 363.56 353.31 363.3 353.31 363.03 353.31 362.77 353.31 362.51 353.31 362.24 353.31 361.98 353.31 361.71 353.31 361.45 353.31 361.19 353.31 360.92 353.31 360.66 353.31 360.39 353.31 360.13 353.31 359.87 353.31 359.6 353.31 359.34 353.31 359.07 353.31 358.81 353.31 358.55 353.31 358.28 353.31 358.02 353.31 357.75 353.31 357.49 353.31 357.23 353.31 356.96 353.31 356.7 353.31 356.43 353.31 356.17 353.31 355.91 353.31 355.64 353.31 355.38 353.31 355.11 353.31 354.85 353.31 354.59 353.31 354.32 353.31 354.06 353.31 353.79 353.31 353.53 353.31 353.27 353.31 353 353.31 352.74 353.31 352.48 353.31 352.21 353.31 351.95 353.31 351.68 353.31 351.42 353.31 351.16 353.31 350.89 353.31 350.63 353.31 350.36 353.31 350.1 353.31 349.84 353.31 349.57 353.31 349.31 353.31 349.04 353.31 348.78 353.31 348.52 353.31 348.25 353.31 347.99 353.31 347.72 353.31 347.46 353.31 347.2 353.31 346.93 353.31 346.67 353.31 346.4 353.31 346.14 353.31 345.88 353.31 345.61 353.31 345.35 353.31 345.08 353.31 344.82 353.31 344.56 353.31 344.29 353.31 344.03 353.31 343.76 353.31 343.5 353.31 343.24 353.31 342.97 353.31 342.71 353.31 342.44 353.31 342.18 353.31 341.92 353.31 341.65 353.31 341.39 353.31 341.13 353.31 340.86 353.31 340.6 353.31 340.33 353.31 340.07 353.31 339.81 353.31 339.54 353.31 339.28 353.31 339.01 353.31 338.75 353.31 338.75 319.14" clip-path="url(#cpMzMyLjAxfDQ4MC4zN3wzNTguMjF8MjUwLjMz)" style="stroke-width:0;stroke:none"/><polyline points="338.75 319.14 339.01 318.44 339.28 317.74 339.54 317.04 339.81 316.35 340.07 315.66 340.33 314.97 340.6 314.29 340.86 313.61 341.13 312.93 341.39 312.26 341.65 311.6 341.92 310.93 342.18 310.28 342.44 309.62 342.71 308.98 342.97 308.33 343.24 307.69 343.5 307.06 343.76 306.43 344.03 305.8 344.29 305.18 344.56 304.56 344.82 303.95 345.08 303.33 345.35 302.73 345.61 302.13 345.88 301.53 346.14 300.93 346.4 300.34 346.67 299.75 346.93 299.17 347.2 298.58 347.46 298 347.72 297.43 347.99 296.85 348.25 296.28 348.52 295.72 348.78 295.15 349.04 294.59 349.31 294.03 349.57 293.47 349.84 292.92 350.1 292.37 350.36 291.82 350.63 291.27 350.89 290.73 351.16 290.19 351.42 289.65 351.68 289.11 351.95 288.58 352.21 288.05 352.48 287.52 352.74 287 353 286.47 353.27 285.95 353.53 285.44 353.79 284.92 354.06 284.41 354.32 283.9 354.59 283.39 354.85 282.89 355.11 282.38 355.38 281.88 355.64 281.39 355.91 280.89 356.17 280.4 356.43 279.91 356.7 279.42 356.96 278.93 357.23 278.45 357.49 277.97 357.75 277.49 358.02 277.01 358.28 276.53 358.55 276.06 358.81 275.58 359.07 275.11 359.34 274.64 359.6 274.18 359.87 273.71 360.13 273.24 360.39 272.78 360.66 272.32 360.92 271.86 361.19 271.4 361.45 270.94 361.71 270.49 361.98 270.03 362.24 269.58 362.51 269.13 362.77 268.68 363.03 268.23 363.3 267.79 363.56 267.35 363.83 266.91 364.09 266.47 364.35 266.04 364.62 265.6 364.88 265.18 365.14 264.75 365.41 264.33 365.67 263.91 365.94 263.5 366.2 263.09 366.46 262.69 366.73 262.29 366.99 261.9 367.26 261.51 367.52 261.14 367.78 260.76 368.05 260.4 368.31 260.04 368.58 259.69 368.84 259.35 369.1 259.02 369.37 258.7 369.63 258.39 369.9 258.09 370.16 257.81 370.42 257.53 370.69 257.27 370.95 257.02 371.22 256.78 371.48 256.56 371.74 256.35 372.01 256.16 372.27 255.99 372.54 255.83 372.8 255.68 373.06 255.56 373.33 255.46 373.59 255.37 373.86 255.31 374.12 255.27 374.38 255.24 374.65 255.24 374.91 255.26 375.18 255.3 375.44 255.36 375.7 255.45 375.97 255.56 376.23 255.69 376.49 255.85 376.76 256.03 377.02 256.24 377.29 256.47 377.55 256.72 377.81 257.01 378.08 257.31 378.34 257.63 378.61 257.99 378.87 258.37 379.13 258.76 379.4 259.19 379.66 259.64 379.93 260.1 380.19 260.59 380.45 261.11 380.72 261.64 380.98 262.19 381.25 262.77 381.51 263.35 381.77 263.97 382.04 264.59 382.3 265.23 382.57 265.89 382.83 266.57 383.09 267.25 383.36 267.95 383.62 268.66 383.89 269.38 384.15 270.11 384.41 270.85 384.68 271.6 384.94 272.36 385.21 273.12 385.47 273.88 385.73 274.65 386 275.42 386.26 276.2 386.53 276.97 386.79 277.75 387.05 278.53 387.32 279.31 387.58 280.08 387.84 280.85 388.11 281.62 388.37 282.39 388.64 283.16 388.9 283.92 389.16 284.67 389.43 285.43 389.69 286.17 389.96 286.92 390.22 287.66 390.48 288.39 390.75 289.12 391.01 289.84 391.28 290.56 391.54 291.27 391.8 291.98 392.07 292.69 392.33 293.39 392.6 294.09 392.86 294.78 393.12 295.47 393.39 296.16 393.65 296.84 393.92 297.53 394.18 298.21 394.44 298.88 394.71 299.56 394.97 300.24 395.24 300.91 395.5 301.59 395.76 302.26 396.03 302.94 396.29 303.62 396.56 304.29 396.82 304.97 397.08 305.65 397.35 306.33 397.61 307.01 397.87 307.7 398.14 308.38 398.4 309.07 398.67 309.75 398.93 310.44 399.19 311.13 399.46 311.83 399.72 312.52 399.99 313.21 400.25 313.91 400.51 314.6 400.78 315.3 401.04 315.99 401.31 316.69 401.57 317.38 401.83 318.07 402.1 318.77 402.36 319.45 402.63 320.14 402.89 320.82 403.15 321.5 403.42 322.18 403.68 322.85 403.95 323.51 404.21 324.17 404.47 324.83 404.74 325.48 405 326.12 405.27 326.75 405.53 327.38 405.79 327.99 406.06 328.6 406.32 329.2 406.59 329.79 406.85 330.37 407.11 330.94 407.38 331.5 407.64 332.04 407.91 332.58 408.17 333.1 408.43 333.62 408.7 334.12 408.96 334.6 409.22 335.08 409.49 335.54 409.75 335.99 410.02 336.43 410.28 336.86 410.54 337.27 410.81 337.67 411.07 338.06 411.34 338.43 411.6 338.8 411.86 339.15 412.13 339.48 412.39 339.81 412.66 340.12 412.92 340.43 413.18 340.72 413.45 341 413.71 341.27 413.98 341.52 414.24 341.77 414.5 342.01 414.77 342.24 415.03 342.46 415.3 342.66 415.56 342.86 415.82 343.06 416.09 343.24 416.35 343.41 416.62 343.58 416.88 343.74 417.14 343.89 417.41 344.03 417.67 344.17 417.94 344.3 418.2 344.43 418.46 344.55 418.73 344.66 418.99 344.77 419.26 344.87 419.52 344.96 419.78 345.06 420.05 345.14 420.31 345.22 420.57 345.3 420.84 345.37 421.1 345.44 421.37 345.5 421.63 345.56 421.89 345.62 422.16 345.67 422.42 345.71 422.69 345.75 422.95 345.79 423.21 345.83 423.48 345.86 423.74 345.89 424.01 345.91 424.27 345.93 424.53 345.95 424.8 345.96 425.06 345.97 425.33 345.97 425.59 345.97 425.85 345.97 426.12 345.97 426.38 345.96 426.65 345.95 426.91 345.93 427.17 345.91 427.44 345.89 427.7 345.87 427.97 345.84 428.23 345.81 428.49 345.78 428.76 345.74 429.02 345.7 429.29 345.66 429.55 345.62 429.81 345.58 430.08 345.53 430.34 345.48 430.61 345.43 430.87 345.38 431.13 345.33 431.4 345.28 431.66 345.23 431.92 345.17 432.19 345.12 432.45 345.06 432.72 345.01 432.98 344.96 433.24 344.9 433.51 344.85 433.77 344.8 434.04 344.75 434.3 344.7 434.56 344.66 434.83 344.61 435.09 344.57 435.36 344.53 435.62 344.49 435.88 344.45 436.15 344.42 436.41 344.39 436.68 344.37 436.94 344.34 437.2 344.32 437.47 344.31 437.73 344.29 438 344.29 438.26 344.28 438.52 344.28 438.79 344.29 439.05 344.29 439.32 344.31 439.58 344.32 439.84 344.35 440.11 344.37 440.37 344.4 440.64 344.44 440.9 344.48 441.16 344.52 441.43 344.57 441.69 344.63 441.96 344.69 442.22 344.75 442.48 344.82 442.75 344.89 443.01 344.97 443.27 345.05 443.54 345.14 443.8 345.23 444.07 345.32 444.33 345.42 444.59 345.52 444.86 345.62 445.12 345.73 445.39 345.84 445.65 345.96 445.91 346.07 446.18 346.19 446.44 346.32 446.71 346.44 446.97 346.57 447.23 346.7 447.5 346.83 447.76 346.96 448.03 347.09 448.29 347.23 448.55 347.36 448.82 347.5 449.08 347.63 449.35 347.77 449.61 347.9 449.87 348.04 450.14 348.17 450.4 348.31 450.67 348.44 450.93 348.57 451.19 348.7 451.46 348.83 451.72 348.96 451.99 349.08 452.25 349.2 452.51 349.32 452.78 349.44 453.04 349.55 453.31 349.66 453.57 349.76 453.83 349.87 454.1 349.96 454.36 350.06 454.62 350.15 454.89 350.24 455.15 350.32 455.42 350.4 455.68 350.47 455.94 350.54 456.21 350.6 456.47 350.66 456.74 350.71 457 350.76 457.26 350.8 457.53 350.84 457.79 350.87 458.06 350.9 458.32 350.92 458.58 350.94 458.85 350.95 459.11 350.96 459.38 350.96 459.64 350.96 459.9 350.95 460.17 350.94 460.43 350.92 460.7 350.9 460.96 350.87 461.22 350.84 461.49 350.8 461.75 350.77 462.02 350.72 462.28 350.67 462.54 350.62 462.81 350.56 463.07 350.5 463.34 350.44 463.6 350.38 463.86 350.31 464.13 350.24 464.39 350.17 464.66 350.09 464.92 350.01 465.18 349.94 465.45 349.86 465.71 349.78 465.97 349.69 466.24 349.61 466.5 349.53 466.77 349.45 467.03 349.36 467.29 349.28 467.56 349.2 467.82 349.12 468.09 349.04 468.35 348.97 468.61 348.89 468.88 348.82 469.14 348.75 469.41 348.68 469.67 348.62 469.93 348.56 470.2 348.5 470.46 348.44 470.73 348.39 470.99 348.35 471.25 348.3 471.52 348.26 471.78 348.23 472.05 348.2 472.31 348.17 472.57 348.15 472.84 348.14 473.1 348.13 473.37 348.12 473.63 348.12" clip-path="url(#cpMzMyLjAxfDQ4MC4zN3wzNTguMjF8MjUwLjMz)" style="stroke-width:1.07"/><defs><clipPath id="cpMC4wMHw1MDQuMDB8Mzc4LjAwfDAuMDA="><rect width="504" height="378" x="0" y="0"/></clipPath></defs><defs><clipPath id="cpMjQuMzF8MTcyLjY4fDIzLjYzfDUuNDg="><rect width="148.37" height="18.15" x="24.31" y="5.48"/></clipPath></defs><g clip-path="url(#cpMjQuMzF8MTcyLjY4fDIzLjYzfDUuNDg=)"><text x="89.15" y="17.99" lengthAdjust="spacingAndGlyphs" textLength="18.68" style="font-size:9.6px;fill:#1a1a1a;font-family:Arial">data</text></g><defs><clipPath id="cpMC4wMHw1MDQuMDB8Mzc4LjAwfDAuMDA="><rect width="504" height="378" x="0" y="0"/></clipPath></defs><defs><clipPath id="cpMTc4LjE2fDMyNi41M3wyMy42M3w1LjQ4"><rect width="148.37" height="18.15" x="178.16" y="5.48"/></clipPath></defs><g clip-path="url(#cpMTc4LjE2fDMyNi41M3wyMy42M3w1LjQ4)"><text x="245.67" y="17.99" lengthAdjust="spacingAndGlyphs" textLength="13.34" style="font-size:9.6px;fill:#1a1a1a;font-family:Arial">em</text></g><defs><clipPath id="cpMC4wMHw1MDQuMDB8Mzc4LjAwfDAuMDA="><rect width="504" height="378" x="0" y="0"/></clipPath></defs><defs><clipPath id="cpMzMyLjAxfDQ4MC4zN3wyMy42M3w1LjQ4"><rect width="148.37" height="18.15" x="332.01" y="5.48"/></clipPath></defs><g clip-path="url(#cpMzMyLjAxfDQ4MC4zN3wyMy42M3w1LjQ4)"><text x="387.78" y="17.99" lengthAdjust="spacingAndGlyphs" textLength="36.82" style="font-size:9.6px;fill:#1a1a1a;font-family:Arial">pcaMeth</text></g><defs><clipPath id="cpMC4wMHw1MDQuMDB8Mzc4LjAwfDAuMDA="><rect width="504" height="378" x="0" y="0"/></clipPath></defs><defs><clipPath id="cpNDgwLjM3fDQ5OC41MnwxMzEuNTB8MjMuNjM="><rect width="18.15" height="107.87" x="480.37" y="23.63"/></clipPath></defs><g clip-path="url(#cpNDgwLjM3fDQ5OC41MnwxMzEuNTB8MjMuNjM=)"><text style="font-size:9.6px;fill:#1a1a1a;font-family:Arial" lengthAdjust="spacingAndGlyphs" textLength="18.68" transform="translate(486.01,68.22) rotate(90)">data</text></g><defs><clipPath id="cpMC4wMHw1MDQuMDB8Mzc4LjAwfDAuMDA="><rect width="504" height="378" x="0" y="0"/></clipPath></defs><defs><clipPath id="cpNDgwLjM3fDQ5OC41MnwyNDQuODZ8MTM2Ljk4"><rect width="18.15" height="107.87" x="480.37" y="136.98"/></clipPath></defs><g clip-path="url(#cpNDgwLjM3fDQ5OC41MnwyNDQuODZ8MTM2Ljk4)"><text style="font-size:9.6px;fill:#1a1a1a;font-family:Arial" lengthAdjust="spacingAndGlyphs" textLength="13.34" transform="translate(486.01,184.25) rotate(90)">em</text></g><defs><clipPath id="cpMC4wMHw1MDQuMDB8Mzc4LjAwfDAuMDA="><rect width="504" height="378" x="0" y="0"/></clipPath></defs><defs><clipPath id="cpNDgwLjM3fDQ5OC41MnwzNTguMjF8MjUwLjMz"><rect width="18.15" height="107.87" x="480.37" y="250.33"/></clipPath></defs><g clip-path="url(#cpNDgwLjM3fDQ5OC41MnwzNTguMjF8MjUwLjMz)"><text style="font-size:9.6px;fill:#1a1a1a;font-family:Arial" lengthAdjust="spacingAndGlyphs" textLength="36.82" transform="translate(486.01,285.86) rotate(90)">pcaMeth</text></g><defs><clipPath id="cpMC4wMHw1MDQuMDB8Mzc4LjAwfDAuMDA="><rect width="504" height="378" x="0" y="0"/></clipPath></defs><polyline points="27.28 360.95 27.28 358.21" clip-path="url(#cpMC4wMHw1MDQuMDB8Mzc4LjAwfDAuMDA=)" style="stroke-width:1.07;stroke:#333;stroke-linecap:butt"/><polyline points="56.18 360.95 56.18 358.21" clip-path="url(#cpMC4wMHw1MDQuMDB8Mzc4LjAwfDAuMDA=)" style="stroke-width:1.07;stroke:#333;stroke-linecap:butt"/><polyline points="85.09 360.95 85.09 358.21" clip-path="url(#cpMC4wMHw1MDQuMDB8Mzc4LjAwfDAuMDA=)" style="stroke-width:1.07;stroke:#333;stroke-linecap:butt"/><polyline points="113.99 360.95 113.99 358.21" clip-path="url(#cpMC4wMHw1MDQuMDB8Mzc4LjAwfDAuMDA=)" style="stroke-width:1.07;stroke:#333;stroke-linecap:butt"/><polyline points="142.9 360.95 142.9 358.21" clip-path="url(#cpMC4wMHw1MDQuMDB8Mzc4LjAwfDAuMDA=)" style="stroke-width:1.07;stroke:#333;stroke-linecap:butt"/><polyline points="171.8 360.95 171.8 358.21" clip-path="url(#cpMC4wMHw1MDQuMDB8Mzc4LjAwfDAuMDA=)" style="stroke-width:1.07;stroke:#333;stroke-linecap:butt"/><g clip-path="url(#cpMC4wMHw1MDQuMDB8Mzc4LjAwfDAuMDA=)"><text x="23.01" y="370.01" lengthAdjust="spacingAndGlyphs" textLength="8.54" style="font-size:9.6px;fill:#4d4d4d;font-family:Arial">-1</text></g><g clip-path="url(#cpMC4wMHw1MDQuMDB8Mzc4LjAwfDAuMDA=)"><text x="53.52" y="370.01" lengthAdjust="spacingAndGlyphs" textLength="5.34" style="font-size:9.6px;fill:#4d4d4d;font-family:Arial">0</text></g><g clip-path="url(#cpMC4wMHw1MDQuMDB8Mzc4LjAwfDAuMDA=)"><text x="82.42" y="370.01" lengthAdjust="spacingAndGlyphs" textLength="5.34" style="font-size:9.6px;fill:#4d4d4d;font-family:Arial">1</text></g><g clip-path="url(#cpMC4wMHw1MDQuMDB8Mzc4LjAwfDAuMDA=)"><text x="111.32" y="370.01" lengthAdjust="spacingAndGlyphs" textLength="5.34" style="font-size:9.6px;fill:#4d4d4d;font-family:Arial">2</text></g><g clip-path="url(#cpMC4wMHw1MDQuMDB8Mzc4LjAwfDAuMDA=)"><text x="140.23" y="370.01" lengthAdjust="spacingAndGlyphs" textLength="5.34" style="font-size:9.6px;fill:#4d4d4d;font-family:Arial">3</text></g><g clip-path="url(#cpMC4wMHw1MDQuMDB8Mzc4LjAwfDAuMDA=)"><text x="169.13" y="370.01" lengthAdjust="spacingAndGlyphs" textLength="5.34" style="font-size:9.6px;fill:#4d4d4d;font-family:Arial">4</text></g><polyline points="222.7 360.95 222.7 358.21" clip-path="url(#cpMC4wMHw1MDQuMDB8Mzc4LjAwfDAuMDA=)" style="stroke-width:1.07;stroke:#333;stroke-linecap:butt"/><polyline points="268.74 360.95 268.74 358.21" clip-path="url(#cpMC4wMHw1MDQuMDB8Mzc4LjAwfDAuMDA=)" style="stroke-width:1.07;stroke:#333;stroke-linecap:butt"/><polyline points="314.78 360.95 314.78 358.21" clip-path="url(#cpMC4wMHw1MDQuMDB8Mzc4LjAwfDAuMDA=)" style="stroke-width:1.07;stroke:#333;stroke-linecap:butt"/><g clip-path="url(#cpMC4wMHw1MDQuMDB8Mzc4LjAwfDAuMDA=)"><text x="220.03" y="370.01" lengthAdjust="spacingAndGlyphs" textLength="5.34" style="font-size:9.6px;fill:#4d4d4d;font-family:Arial">0</text></g><g clip-path="url(#cpMC4wMHw1MDQuMDB8Mzc4LjAwfDAuMDA=)"><text x="266.07" y="370.01" lengthAdjust="spacingAndGlyphs" textLength="5.34" style="font-size:9.6px;fill:#4d4d4d;font-family:Arial">1</text></g><g clip-path="url(#cpMC4wMHw1MDQuMDB8Mzc4LjAwfDAuMDA=)"><text x="312.11" y="370.01" lengthAdjust="spacingAndGlyphs" textLength="5.34" style="font-size:9.6px;fill:#4d4d4d;font-family:Arial">2</text></g><polyline points="376.54 360.95 376.54 358.21" clip-path="url(#cpMC4wMHw1MDQuMDB8Mzc4LjAwfDAuMDA=)" style="stroke-width:1.07;stroke:#333;stroke-linecap:butt"/><polyline points="422.59 360.95 422.59 358.21" clip-path="url(#cpMC4wMHw1MDQuMDB8Mzc4LjAwfDAuMDA=)" style="stroke-width:1.07;stroke:#333;stroke-linecap:butt"/><polyline points="468.63 360.95 468.63 358.21" clip-path="url(#cpMC4wMHw1MDQuMDB8Mzc4LjAwfDAuMDA=)" style="stroke-width:1.07;stroke:#333;stroke-linecap:butt"/><g clip-path="url(#cpMC4wMHw1MDQuMDB8Mzc4LjAwfDAuMDA=)"><text x="373.87" y="370.01" lengthAdjust="spacingAndGlyphs" textLength="5.34" style="font-size:9.6px;fill:#4d4d4d;font-family:Arial">0</text></g><g clip-path="url(#cpMC4wMHw1MDQuMDB8Mzc4LjAwfDAuMDA=)"><text x="419.92" y="370.01" lengthAdjust="spacingAndGlyphs" textLength="5.34" style="font-size:9.6px;fill:#4d4d4d;font-family:Arial">1</text></g><g clip-path="url(#cpMC4wMHw1MDQuMDB8Mzc4LjAwfDAuMDA=)"><text x="465.96" y="370.01" lengthAdjust="spacingAndGlyphs" textLength="5.34" style="font-size:9.6px;fill:#4d4d4d;font-family:Arial">2</text></g><g clip-path="url(#cpMC4wMHw1MDQuMDB8Mzc4LjAwfDAuMDA=)"><text x="6.03" y="130.03" lengthAdjust="spacingAndGlyphs" textLength="13.35" style="font-size:9.6px;fill:#4d4d4d;font-family:Arial">0.0</text></g><g clip-path="url(#cpMC4wMHw1MDQuMDB8Mzc4LjAwfDAuMDA=)"><text x="6.03" y="100.59" lengthAdjust="spacingAndGlyphs" textLength="13.35" style="font-size:9.6px;fill:#4d4d4d;font-family:Arial">0.2</text></g><g clip-path="url(#cpMC4wMHw1MDQuMDB8Mzc4LjAwfDAuMDA=)"><text x="6.03" y="71.15" lengthAdjust="spacingAndGlyphs" textLength="13.35" style="font-size:9.6px;fill:#4d4d4d;font-family:Arial">0.4</text></g><g clip-path="url(#cpMC4wMHw1MDQuMDB8Mzc4LjAwfDAuMDA=)"><text x="6.03" y="41.71" lengthAdjust="spacingAndGlyphs" textLength="13.35" style="font-size:9.6px;fill:#4d4d4d;font-family:Arial">0.6</text></g><polyline points="21.57 126.6 24.31 126.6" clip-path="url(#cpMC4wMHw1MDQuMDB8Mzc4LjAwfDAuMDA=)" style="stroke-width:1.07;stroke:#333;stroke-linecap:butt"/><polyline points="21.57 97.16 24.31 97.16" clip-path="url(#cpMC4wMHw1MDQuMDB8Mzc4LjAwfDAuMDA=)" style="stroke-width:1.07;stroke:#333;stroke-linecap:butt"/><polyline points="21.57 67.71 24.31 67.71" clip-path="url(#cpMC4wMHw1MDQuMDB8Mzc4LjAwfDAuMDA=)" style="stroke-width:1.07;stroke:#333;stroke-linecap:butt"/><polyline points="21.57 38.27 24.31 38.27" clip-path="url(#cpMC4wMHw1MDQuMDB8Mzc4LjAwfDAuMDA=)" style="stroke-width:1.07;stroke:#333;stroke-linecap:butt"/><g clip-path="url(#cpMC4wMHw1MDQuMDB8Mzc4LjAwfDAuMDA=)"><text x="14.04" y="215.91" lengthAdjust="spacingAndGlyphs" textLength="5.34" style="font-size:9.6px;fill:#4d4d4d;font-family:Arial">0</text></g><g clip-path="url(#cpMC4wMHw1MDQuMDB8Mzc4LjAwfDAuMDA=)"><text x="14.04" y="182.43" lengthAdjust="spacingAndGlyphs" textLength="5.34" style="font-size:9.6px;fill:#4d4d4d;font-family:Arial">1</text></g><g clip-path="url(#cpMC4wMHw1MDQuMDB8Mzc4LjAwfDAuMDA=)"><text x="14.04" y="148.96" lengthAdjust="spacingAndGlyphs" textLength="5.34" style="font-size:9.6px;fill:#4d4d4d;font-family:Arial">2</text></g><polyline points="21.57 212.47 24.31 212.47" clip-path="url(#cpMC4wMHw1MDQuMDB8Mzc4LjAwfDAuMDA=)" style="stroke-width:1.07;stroke:#333;stroke-linecap:butt"/><polyline points="21.57 179 24.31 179" clip-path="url(#cpMC4wMHw1MDQuMDB8Mzc4LjAwfDAuMDA=)" style="stroke-width:1.07;stroke:#333;stroke-linecap:butt"/><polyline points="21.57 145.52 24.31 145.52" clip-path="url(#cpMC4wMHw1MDQuMDB8Mzc4LjAwfDAuMDA=)" style="stroke-width:1.07;stroke:#333;stroke-linecap:butt"/><g clip-path="url(#cpMC4wMHw1MDQuMDB8Mzc4LjAwfDAuMDA=)"><text x="14.04" y="329.26" lengthAdjust="spacingAndGlyphs" textLength="5.34" style="font-size:9.6px;fill:#4d4d4d;font-family:Arial">0</text></g><g clip-path="url(#cpMC4wMHw1MDQuMDB8Mzc4LjAwfDAuMDA=)"><text x="14.04" y="295.79" lengthAdjust="spacingAndGlyphs" textLength="5.34" style="font-size:9.6px;fill:#4d4d4d;font-family:Arial">1</text></g><g clip-path="url(#cpMC4wMHw1MDQuMDB8Mzc4LjAwfDAuMDA=)"><text x="14.04" y="262.31" lengthAdjust="spacingAndGlyphs" textLength="5.34" style="font-size:9.6px;fill:#4d4d4d;font-family:Arial">2</text></g><polyline points="21.57 325.83 24.31 325.83" clip-path="url(#cpMC4wMHw1MDQuMDB8Mzc4LjAwfDAuMDA=)" style="stroke-width:1.07;stroke:#333;stroke-linecap:butt"/><polyline points="21.57 292.35 24.31 292.35" clip-path="url(#cpMC4wMHw1MDQuMDB8Mzc4LjAwfDAuMDA=)" style="stroke-width:1.07;stroke:#333;stroke-linecap:butt"/><polyline points="21.57 258.88 24.31 258.88" clip-path="url(#cpMC4wMHw1MDQuMDB8Mzc4LjAwfDAuMDA=)" style="stroke-width:1.07;stroke:#333;stroke-linecap:butt"/></svg>