<svg xmlns="http://www.w3.org/2000/svg" xmlns:xlink="http://www.w3.org/1999/xlink" viewBox="0 0 504 378"><defs><style type="text/css">circle,line,polyline,rect{fill:none;stroke:#000;stroke-linecap:round;stroke-linejoin:round;stroke-miterlimit:10}</style></defs><rect width="100%" height="100%" style="stroke:none;fill:none"/><rect width="504" height="378" x="0" y="0" style="stroke-width:1.07;stroke:none"/><defs><clipPath id="cpNTAuOTd8Mjk4LjkxfDM0OS40NXw1LjQ4"><rect width="247.94" height="343.97" x="50.97" y="5.48"/></clipPath></defs><circle cx="191.04" cy="121.41" r="1.95" clip-path="url(#cpNTAuOTd8Mjk4LjkxfDM0OS40NXw1LjQ4)" style="stroke-width:.71;stroke:#00bfc4;fill:#00bfc4"/><circle cx="75.12" cy="268.91" r="1.95" clip-path="url(#cpNTAuOTd8Mjk4LjkxfDM0OS40NXw1LjQ4)" style="stroke-width:.71;stroke:#f8766d;fill:#f8766d"/><circle cx="173.85" cy="150.91" r="1.95" clip-path="url(#cpNTAuOTd8Mjk4LjkxfDM0OS40NXw1LjQ4)" style="stroke-width:.71;stroke:#00bfc4;fill:#00bfc4"/><circle cx="106.23" cy="221.71" r="1.95" clip-path="url(#cpNTAuOTd8Mjk4LjkxfDM0OS40NXw1LjQ4)" style="stroke-width:.71;stroke:#f8766d;fill:#f8766d"/><circle cx="251.13" cy="86.01" r="1.95" clip-path="url(#cpNTAuOTd8Mjk4LjkxfDM0OS40NXw1LjQ4)" style="stroke-width:.71;stroke:#00bfc4;fill:#00bfc4"/><circle cx="144.87" cy="263.01" r="1.95" clip-path="url(#cpNTAuOTd8Mjk4LjkxfDM0OS40NXw1LjQ4)" style="stroke-width:.71;stroke:#f8766d;fill:#f8766d"/><circle cx="261.88" cy="68.31" r="1.95" clip-path="url(#cpNTAuOTd8Mjk4LjkxfDM0OS40NXw1LjQ4)" style="stroke-width:.71;stroke:#00bfc4;fill:#00bfc4"/><circle cx="191.04" cy="86.01" r="1.95" clip-path="url(#cpNTAuOTd8Mjk4LjkxfDM0OS40NXw1LjQ4)" style="stroke-width:.71;stroke:#00bfc4;fill:#00bfc4"/><circle cx="84.78" cy="286.61" r="1.95" clip-path="url(#cpNTAuOTd8Mjk4LjkxfDM0OS40NXw1LjQ4)" style="stroke-width:.71;stroke:#f8766d;fill:#f8766d"/><circle cx="239.34" cy="86.01" r="1.95" clip-path="url(#cpNTAuOTd8Mjk4LjkxfDM0OS40NXw1LjQ4)" style="stroke-width:.71;stroke:#00bfc4;fill:#00bfc4"/><circle cx="77.25" cy="268.91" r="1.95" clip-path="url(#cpNTAuOTd8Mjk4LjkxfDM0OS40NXw1LjQ4)" style="stroke-width:.71;stroke:#f8766d;fill:#f8766d"/><circle cx="211.46" cy="91.91" r="1.95" clip-path="url(#cpNTAuOTd8Mjk4LjkxfDM0OS40NXw1LjQ4)" style="stroke-width:.71;stroke:#00bfc4;fill:#00bfc4"/><circle cx="229.68" cy="127.31" r="1.95" clip-path="url(#cpNTAuOTd8Mjk4LjkxfDM0OS40NXw1LjQ4)" style="stroke-width:.71;stroke:#00bfc4;fill:#00bfc4"/><circle cx="71.9" cy="310.21" r="1.95" clip-path="url(#cpNTAuOTd8Mjk4LjkxfDM0OS40NXw1LjQ4)" style="stroke-width:.71;stroke:#f8766d;fill:#f8766d"/><circle cx="261.88" cy="97.81" r="1.95" clip-path="url(#cpNTAuOTd8Mjk4LjkxfDM0OS40NXw1LjQ4)" style="stroke-width:.71;stroke:#00bfc4;fill:#00bfc4"/><circle cx="98.76" cy="280.71" r="1.95" clip-path="url(#cpNTAuOTd8Mjk4LjkxfDM0OS40NXw1LjQ4)" style="stroke-width:.71;stroke:#f8766d;fill:#f8766d"/><circle cx="71.9" cy="221.71" r="1.95" clip-path="url(#cpNTAuOTd8Mjk4LjkxfDM0OS40NXw1LjQ4)" style="stroke-width:.71;stroke:#f8766d;fill:#f8766d"/><circle cx="268.32" cy="91.91" r="1.95" clip-path="url(#cpNTAuOTd8Mjk4LjkxfDM0OS40NXw1LjQ4)" style="stroke-width:.71;stroke:#00bfc4;fill:#00bfc4"/><circle cx="62.24" cy="280.71" r="1.95" clip-path="url(#cpNTAuOTd8Mjk4LjkxfDM0OS40NXw1LjQ4)" style="stroke-width:.71;stroke:#f8766d;fill:#f8766d"/><circle cx="232.9" cy="121.41" r="1.95" clip-path="url(#cpNTAuOTd8Mjk4LjkxfDM0OS40NXw1LjQ4)" style="stroke-width:.71;stroke:#00bfc4;fill:#00bfc4"/><circle cx="75.12" cy="286.61" r="1.95" clip-path="url(#cpNTAuOTd8Mjk4LjkxfDM0OS40NXw1LjQ4)" style="stroke-width:.71;stroke:#f8766d;fill:#f8766d"/><circle cx="71.9" cy="310.21" r="1.95" clip-path="url(#cpNTAuOTd8Mjk4LjkxfDM0OS40NXw1LjQ4)" style="stroke-width:.71;stroke:#f8766d;fill:#f8766d"/><circle cx="181.38" cy="127.31" r="1.95" clip-path="url(#cpNTAuOTd8Mjk4LjkxfDM0OS40NXw1LjQ4)" style="stroke-width:.71;stroke:#00bfc4;fill:#00bfc4"/><circle cx="156.72" cy="180.41" r="1.95" clip-path="url(#cpNTAuOTd8Mjk4LjkxfDM0OS40NXw1LjQ4)" style="stroke-width:.71;stroke:#00bfc4;fill:#00bfc4"/><circle cx="251.13" cy="150.91" r="1.95" clip-path="url(#cpNTAuOTd8Mjk4LjkxfDM0OS40NXw1LjQ4)" style="stroke-width:.71;stroke:#00bfc4;fill:#00bfc4"/><circle cx="191.04" cy="97.81" r="1.95" clip-path="url(#cpNTAuOTd8Mjk4LjkxfDM0OS40NXw1LjQ4)" style="stroke-width:.71;stroke:#00bfc4;fill:#00bfc4"/><circle cx="85.88" cy="263.01" r="1.95" clip-path="url(#cpNTAuOTd8Mjk4LjkxfDM0OS40NXw1LjQ4)" style="stroke-width:.71;stroke:#f8766d;fill:#f8766d"/><circle cx="222.15" cy="139.11" r="1.95" clip-path="url(#cpNTAuOTd8Mjk4LjkxfDM0OS40NXw1LjQ4)" style="stroke-width:.71;stroke:#00bfc4;fill:#00bfc4"/><circle cx="207.14" cy="127.31" r="1.95" clip-path="url(#cpNTAuOTd8Mjk4LjkxfDM0OS40NXw1LjQ4)" style="stroke-width:.71;stroke:#00bfc4;fill:#00bfc4"/><circle cx="244.69" cy="121.41" r="1.95" clip-path="url(#cpNTAuOTd8Mjk4LjkxfDM0OS40NXw1LjQ4)" style="stroke-width:.71;stroke:#00bfc4;fill:#00bfc4"/><circle cx="236.12" cy="156.81" r="1.95" clip-path="url(#cpNTAuOTd8Mjk4LjkxfDM0OS40NXw1LjQ4)" style="stroke-width:.71;stroke:#00bfc4;fill:#00bfc4"/><circle cx="246.88" cy="133.21" r="1.95" clip-path="url(#cpNTAuOTd8Mjk4LjkxfDM0OS40NXw1LjQ4)" style="stroke-width:.71;stroke:#00bfc4;fill:#00bfc4"/><circle cx="176.04" cy="198.11" r="1.95" clip-path="url(#cpNTAuOTd8Mjk4LjkxfDM0OS40NXw1LjQ4)" style="stroke-width:.71;stroke:#f8766d;fill:#f8766d"/><circle cx="218.93" cy="115.51" r="1.95" clip-path="url(#cpNTAuOTd8Mjk4LjkxfDM0OS40NXw1LjQ4)" style="stroke-width:.71;stroke:#00bfc4;fill:#00bfc4"/><circle cx="206.05" cy="150.91" r="1.95" clip-path="url(#cpNTAuOTd8Mjk4LjkxfDM0OS40NXw1LjQ4)" style="stroke-width:.71;stroke:#00bfc4;fill:#00bfc4"/><circle cx="89.1" cy="280.71" r="1.95" clip-path="url(#cpNTAuOTd8Mjk4LjkxfDM0OS40NXw1LjQ4)" style="stroke-width:.71;stroke:#f8766d;fill:#f8766d"/><circle cx="79.44" cy="304.31" r="1.95" clip-path="url(#cpNTAuOTd8Mjk4LjkxfDM0OS40NXw1LjQ4)" style="stroke-width:.71;stroke:#f8766d;fill:#f8766d"/><circle cx="270.45" cy="115.51" r="1.95" clip-path="url(#cpNTAuOTd8Mjk4LjkxfDM0OS40NXw1LjQ4)" style="stroke-width:.71;stroke:#00bfc4;fill:#00bfc4"/><circle cx="77.25" cy="239.41" r="1.95" clip-path="url(#cpNTAuOTd8Mjk4LjkxfDM0OS40NXw1LjQ4)" style="stroke-width:.71;stroke:#f8766d;fill:#f8766d"/><circle cx="267.23" cy="56.51" r="1.95" clip-path="url(#cpNTAuOTd8Mjk4LjkxfDM0OS40NXw1LjQ4)" style="stroke-width:.71;stroke:#00bfc4;fill:#00bfc4"/><circle cx="239.34" cy="115.51" r="1.95" clip-path="url(#cpNTAuOTd8Mjk4LjkxfDM0OS40NXw1LjQ4)" style="stroke-width:.71;stroke:#00bfc4;fill:#00bfc4"/><circle cx="80.47" cy="245.31" r="1.95" clip-path="url(#cpNTAuOTd8Mjk4LjkxfDM0OS40NXw1LjQ4)" style="stroke-width:.71;stroke:#f8766d;fill:#f8766d"/><circle cx="253.32" cy="91.91" r="1.95" clip-path="url(#cpNTAuOTd8Mjk4LjkxfDM0OS40NXw1LjQ4)" style="stroke-width:.71;stroke:#00bfc4;fill:#00bfc4"/><circle cx="71.9" cy="245.31" r="1.95" clip-path="url(#cpNTAuOTd8Mjk4LjkxfDM0OS40NXw1LjQ4)" style="stroke-width:.71;stroke:#f8766d;fill:#f8766d"/><circle cx="251.13" cy="156.81" r="1.95" clip-path="url(#cpNTAuOTd8Mjk4LjkxfDM0OS40NXw1LjQ4)" style="stroke-width:.71;stroke:#00bfc4;fill:#00bfc4"/><circle cx="172.82" cy="97.81" r="1.95" clip-path="url(#cpNTAuOTd8Mjk4LjkxfDM0OS40NXw1LjQ4)" style="stroke-width:.71;stroke:#00bfc4;fill:#00bfc4"/><circle cx="206.05" cy="209.91" r="1.95" clip-path="url(#cpNTAuOTd8Mjk4LjkxfDM0OS40NXw1LjQ4)" style="stroke-width:.71;stroke:#f8766d;fill:#f8766d"/><circle cx="94.44" cy="274.81" r="1.95" clip-path="url(#cpNTAuOTd8Mjk4LjkxfDM0OS40NXw1LjQ4)" style="stroke-width:.71;stroke:#f8766d;fill:#f8766d"/><circle cx="257.57" cy="103.71" r="1.95" clip-path="url(#cpNTAuOTd8Mjk4LjkxfDM0OS40NXw1LjQ4)" style="stroke-width:.71;stroke:#00bfc4;fill:#00bfc4"/><circle cx="88" cy="239.41" r="1.95" clip-path="url(#cpNTAuOTd8Mjk4LjkxfDM0OS40NXw1LjQ4)" style="stroke-width:.71;stroke:#f8766d;fill:#f8766d"/><circle cx="268.32" cy="145.01" r="1.95" clip-path="url(#cpNTAuOTd8Mjk4LjkxfDM0OS40NXw1LjQ4)" style="stroke-width:.71;stroke:#00bfc4;fill:#00bfc4"/><circle cx="262.91" cy="56.51" r="1.95" clip-path="url(#cpNTAuOTd8Mjk4LjkxfDM0OS40NXw1LjQ4)" style="stroke-width:.71;stroke:#00bfc4;fill:#00bfc4"/><circle cx="77.25" cy="268.91" r="1.95" clip-path="url(#cpNTAuOTd8Mjk4LjkxfDM0OS40NXw1LjQ4)" style="stroke-width:.71;stroke:#f8766d;fill:#f8766d"/><circle cx="270.45" cy="115.51" r="1.95" clip-path="url(#cpNTAuOTd8Mjk4LjkxfDM0OS40NXw1LjQ4)" style="stroke-width:.71;stroke:#00bfc4;fill:#00bfc4"/><circle cx="70.81" cy="268.91" r="1.95" clip-path="url(#cpNTAuOTd8Mjk4LjkxfDM0OS40NXw1LjQ4)" style="stroke-width:.71;stroke:#f8766d;fill:#f8766d"/><circle cx="273.67" cy="97.81" r="1.95" clip-path="url(#cpNTAuOTd8Mjk4LjkxfDM0OS40NXw1LjQ4)" style="stroke-width:.71;stroke:#00bfc4;fill:#00bfc4"/><circle cx="198.58" cy="168.61" r="1.95" clip-path="url(#cpNTAuOTd8Mjk4LjkxfDM0OS40NXw1LjQ4)" style="stroke-width:.71;stroke:#00bfc4;fill:#00bfc4"/><circle cx="66.56" cy="209.91" r="1.95" clip-path="url(#cpNTAuOTd8Mjk4LjkxfDM0OS40NXw1LjQ4)" style="stroke-width:.71;stroke:#f8766d;fill:#f8766d"/><circle cx="253.32" cy="133.21" r="1.95" clip-path="url(#cpNTAuOTd8Mjk4LjkxfDM0OS40NXw1LjQ4)" style="stroke-width:.71;stroke:#00bfc4;fill:#00bfc4"/><circle cx="237.22" cy="109.61" r="1.95" clip-path="url(#cpNTAuOTd8Mjk4LjkxfDM0OS40NXw1LjQ4)" style="stroke-width:.71;stroke:#00bfc4;fill:#00bfc4"/><circle cx="103.01" cy="239.41" r="1.95" clip-path="url(#cpNTAuOTd8Mjk4LjkxfDM0OS40NXw1LjQ4)" style="stroke-width:.71;stroke:#f8766d;fill:#f8766d"/><circle cx="249" cy="91.91" r="1.95" clip-path="url(#cpNTAuOTd8Mjk4LjkxfDM0OS40NXw1LjQ4)" style="stroke-width:.71;stroke:#00bfc4;fill:#00bfc4"/><circle cx="71.9" cy="304.31" r="1.95" clip-path="url(#cpNTAuOTd8Mjk4LjkxfDM0OS40NXw1LjQ4)" style="stroke-width:.71;stroke:#f8766d;fill:#f8766d"/><circle cx="268.32" cy="103.71" r="1.95" clip-path="url(#cpNTAuOTd8Mjk4LjkxfDM0OS40NXw1LjQ4)" style="stroke-width:.71;stroke:#00bfc4;fill:#00bfc4"/><circle cx="76.22" cy="233.51" r="1.95" clip-path="url(#cpNTAuOTd8Mjk4LjkxfDM0OS40NXw1LjQ4)" style="stroke-width:.71;stroke:#f8766d;fill:#f8766d"/><circle cx="242.56" cy="44.71" r="1.95" clip-path="url(#cpNTAuOTd8Mjk4LjkxfDM0OS40NXw1LjQ4)" style="stroke-width:.71;stroke:#00bfc4;fill:#00bfc4"/><circle cx="227.56" cy="127.31" r="1.95" clip-path="url(#cpNTAuOTd8Mjk4LjkxfDM0OS40NXw1LjQ4)" style="stroke-width:.71;stroke:#00bfc4;fill:#00bfc4"/><circle cx="261.88" cy="127.31" r="1.95" clip-path="url(#cpNTAuOTd8Mjk4LjkxfDM0OS40NXw1LjQ4)" style="stroke-width:.71;stroke:#00bfc4;fill:#00bfc4"/><circle cx="92.32" cy="204.01" r="1.95" clip-path="url(#cpNTAuOTd8Mjk4LjkxfDM0OS40NXw1LjQ4)" style="stroke-width:.71;stroke:#f8766d;fill:#f8766d"/><circle cx="261.88" cy="156.81" r="1.95" clip-path="url(#cpNTAuOTd8Mjk4LjkxfDM0OS40NXw1LjQ4)" style="stroke-width:.71;stroke:#00bfc4;fill:#00bfc4"/><circle cx="218.93" cy="103.71" r="1.95" clip-path="url(#cpNTAuOTd8Mjk4LjkxfDM0OS40NXw1LjQ4)" style="stroke-width:.71;stroke:#00bfc4;fill:#00bfc4"/><circle cx="85.88" cy="257.11" r="1.95" clip-path="url(#cpNTAuOTd8Mjk4LjkxfDM0OS40NXw1LjQ4)" style="stroke-width:.71;stroke:#f8766d;fill:#f8766d"/><circle cx="249" cy="121.41" r="1.95" clip-path="url(#cpNTAuOTd8Mjk4LjkxfDM0OS40NXw1LjQ4)" style="stroke-width:.71;stroke:#00bfc4;fill:#00bfc4"/><circle cx="216.8" cy="168.61" r="1.95" clip-path="url(#cpNTAuOTd8Mjk4LjkxfDM0OS40NXw1LjQ4)" style="stroke-width:.71;stroke:#00bfc4;fill:#00bfc4"/><circle cx="86.91" cy="221.71" r="1.95" clip-path="url(#cpNTAuOTd8Mjk4LjkxfDM0OS40NXw1LjQ4)" style="stroke-width:.71;stroke:#f8766d;fill:#f8766d"/><circle cx="285.52" cy="139.11" r="1.95" clip-path="url(#cpNTAuOTd8Mjk4LjkxfDM0OS40NXw1LjQ4)" style="stroke-width:.71;stroke:#00bfc4;fill:#00bfc4"/><circle cx="89.1" cy="233.51" r="1.95" clip-path="url(#cpNTAuOTd8Mjk4LjkxfDM0OS40NXw1LjQ4)" style="stroke-width:.71;stroke:#f8766d;fill:#f8766d"/><circle cx="253.32" cy="127.31" r="1.95" clip-path="url(#cpNTAuOTd8Mjk4LjkxfDM0OS40NXw1LjQ4)" style="stroke-width:.71;stroke:#00bfc4;fill:#00bfc4"/><circle cx="209.27" cy="139.11" r="1.95" clip-path="url(#cpNTAuOTd8Mjk4LjkxfDM0OS40NXw1LjQ4)" style="stroke-width:.71;stroke:#00bfc4;fill:#00bfc4"/><circle cx="191.04" cy="97.81" r="1.95" clip-path="url(#cpNTAuOTd8Mjk4LjkxfDM0OS40NXw1LjQ4)" style="stroke-width:.71;stroke:#00bfc4;fill:#00bfc4"/><circle cx="225.37" cy="145.01" r="1.95" clip-path="url(#cpNTAuOTd8Mjk4LjkxfDM0OS40NXw1LjQ4)" style="stroke-width:.71;stroke:#00bfc4;fill:#00bfc4"/><circle cx="238.25" cy="103.71" r="1.95" clip-path="url(#cpNTAuOTd8Mjk4LjkxfDM0OS40NXw1LjQ4)" style="stroke-width:.71;stroke:#00bfc4;fill:#00bfc4"/><circle cx="223.24" cy="174.51" r="1.95" clip-path="url(#cpNTAuOTd8Mjk4LjkxfDM0OS40NXw1LjQ4)" style="stroke-width:.71;stroke:#00bfc4;fill:#00bfc4"/><circle cx="128.77" cy="204.01" r="1.95" clip-path="url(#cpNTAuOTd8Mjk4LjkxfDM0OS40NXw1LjQ4)" style="stroke-width:.71;stroke:#f8766d;fill:#f8766d"/><circle cx="221.12" cy="156.81" r="1.95" clip-path="url(#cpNTAuOTd8Mjk4LjkxfDM0OS40NXw1LjQ4)" style="stroke-width:.71;stroke:#00bfc4;fill:#00bfc4"/><circle cx="276.89" cy="68.31" r="1.95" clip-path="url(#cpNTAuOTd8Mjk4LjkxfDM0OS40NXw1LjQ4)" style="stroke-width:.71;stroke:#00bfc4;fill:#00bfc4"/><circle cx="213.58" cy="139.11" r="1.95" clip-path="url(#cpNTAuOTd8Mjk4LjkxfDM0OS40NXw1LjQ4)" style="stroke-width:.71;stroke:#00bfc4;fill:#00bfc4"/><circle cx="250.1" cy="115.51" r="1.95" clip-path="url(#cpNTAuOTd8Mjk4LjkxfDM0OS40NXw1LjQ4)" style="stroke-width:.71;stroke:#00bfc4;fill:#00bfc4"/><circle cx="98.76" cy="304.31" r="1.95" clip-path="url(#cpNTAuOTd8Mjk4LjkxfDM0OS40NXw1LjQ4)" style="stroke-width:.71;stroke:#f8766d;fill:#f8766d"/><circle cx="216.8" cy="80.11" r="1.95" clip-path="url(#cpNTAuOTd8Mjk4LjkxfDM0OS40NXw1LjQ4)" style="stroke-width:.71;stroke:#00bfc4;fill:#00bfc4"/><circle cx="100.88" cy="233.51" r="1.95" clip-path="url(#cpNTAuOTd8Mjk4LjkxfDM0OS40NXw1LjQ4)" style="stroke-width:.71;stroke:#f8766d;fill:#f8766d"/><circle cx="238.25" cy="56.51" r="1.95" clip-path="url(#cpNTAuOTd8Mjk4LjkxfDM0OS40NXw1LjQ4)" style="stroke-width:.71;stroke:#00bfc4;fill:#00bfc4"/><circle cx="79.44" cy="292.51" r="1.95" clip-path="url(#cpNTAuOTd8Mjk4LjkxfDM0OS40NXw1LjQ4)" style="stroke-width:.71;stroke:#f8766d;fill:#f8766d"/><circle cx="269.42" cy="127.31" r="1.95" clip-path="url(#cpNTAuOTd8Mjk4LjkxfDM0OS40NXw1LjQ4)" style="stroke-width:.71;stroke:#00bfc4;fill:#00bfc4"/><circle cx="77.25" cy="215.81" r="1.95" clip-path="url(#cpNTAuOTd8Mjk4LjkxfDM0OS40NXw1LjQ4)" style="stroke-width:.71;stroke:#f8766d;fill:#f8766d"/><circle cx="236.12" cy="162.71" r="1.95" clip-path="url(#cpNTAuOTd8Mjk4LjkxfDM0OS40NXw1LjQ4)" style="stroke-width:.71;stroke:#00bfc4;fill:#00bfc4"/><circle cx="259.76" cy="91.91" r="1.95" clip-path="url(#cpNTAuOTd8Mjk4LjkxfDM0OS40NXw1LjQ4)" style="stroke-width:.71;stroke:#00bfc4;fill:#00bfc4"/><circle cx="200.7" cy="145.01" r="1.95" clip-path="url(#cpNTAuOTd8Mjk4LjkxfDM0OS40NXw1LjQ4)" style="stroke-width:.71;stroke:#00bfc4;fill:#00bfc4"/><circle cx="79.44" cy="286.61" r="1.95" clip-path="url(#cpNTAuOTd8Mjk4LjkxfDM0OS40NXw1LjQ4)" style="stroke-width:.71;stroke:#f8766d;fill:#f8766d"/><circle cx="274.76" cy="103.71" r="1.95" clip-path="url(#cpNTAuOTd8Mjk4LjkxfDM0OS40NXw1LjQ4)" style="stroke-width:.71;stroke:#00bfc4;fill:#00bfc4"/><circle cx="119.11" cy="221.71" r="1.95" clip-path="url(#cpNTAuOTd8Mjk4LjkxfDM0OS40NXw1LjQ4)" style="stroke-width:.71;stroke:#f8766d;fill:#f8766d"/><circle cx="240.44" cy="68.31" r="1.95" clip-path="url(#cpNTAuOTd8Mjk4LjkxfDM0OS40NXw1LjQ4)" style="stroke-width:.71;stroke:#00bfc4;fill:#00bfc4"/><circle cx="94.44" cy="298.41" r="1.95" clip-path="url(#cpNTAuOTd8Mjk4LjkxfDM0OS40NXw1LjQ4)" style="stroke-width:.71;stroke:#f8766d;fill:#f8766d"/><circle cx="249" cy="97.81" r="1.95" clip-path="url(#cpNTAuOTd8Mjk4LjkxfDM0OS40NXw1LjQ4)" style="stroke-width:.71;stroke:#00bfc4;fill:#00bfc4"/><circle cx="220.02" cy="109.61" r="1.95" clip-path="url(#cpNTAuOTd8Mjk4LjkxfDM0OS40NXw1LjQ4)" style="stroke-width:.71;stroke:#00bfc4;fill:#00bfc4"/><circle cx="79.44" cy="310.21" r="1.95" clip-path="url(#cpNTAuOTd8Mjk4LjkxfDM0OS40NXw1LjQ4)" style="stroke-width:.71;stroke:#f8766d;fill:#f8766d"/><circle cx="261.88" cy="91.91" r="1.95" clip-path="url(#cpNTAuOTd8Mjk4LjkxfDM0OS40NXw1LjQ4)" style="stroke-width:.71;stroke:#00bfc4;fill:#00bfc4"/><circle cx="74.03" cy="280.71" r="1.95" clip-path="url(#cpNTAuOTd8Mjk4LjkxfDM0OS40NXw1LjQ4)" style="stroke-width:.71;stroke:#f8766d;fill:#f8766d"/><circle cx="271.54" cy="80.11" r="1.95" clip-path="url(#cpNTAuOTd8Mjk4LjkxfDM0OS40NXw1LjQ4)" style="stroke-width:.71;stroke:#00bfc4;fill:#00bfc4"/><circle cx="196.39" cy="109.61" r="1.95" clip-path="url(#cpNTAuOTd8Mjk4LjkxfDM0OS40NXw1LjQ4)" style="stroke-width:.71;stroke:#00bfc4;fill:#00bfc4"/><circle cx="264.01" cy="145.01" r="1.95" clip-path="url(#cpNTAuOTd8Mjk4LjkxfDM0OS40NXw1LjQ4)" style="stroke-width:.71;stroke:#00bfc4;fill:#00bfc4"/><circle cx="107.32" cy="239.41" r="1.95" clip-path="url(#cpNTAuOTd8Mjk4LjkxfDM0OS40NXw1LjQ4)" style="stroke-width:.71;stroke:#f8766d;fill:#f8766d"/><circle cx="274.76" cy="62.41" r="1.95" clip-path="url(#cpNTAuOTd8Mjk4LjkxfDM0OS40NXw1LjQ4)" style="stroke-width:.71;stroke:#00bfc4;fill:#00bfc4"/><circle cx="243.66" cy="121.41" r="1.95" clip-path="url(#cpNTAuOTd8Mjk4LjkxfDM0OS40NXw1LjQ4)" style="stroke-width:.71;stroke:#00bfc4;fill:#00bfc4"/><circle cx="68.68" cy="239.41" r="1.95" clip-path="url(#cpNTAuOTd8Mjk4LjkxfDM0OS40NXw1LjQ4)" style="stroke-width:.71;stroke:#f8766d;fill:#f8766d"/><circle cx="257.57" cy="109.61" r="1.95" clip-path="url(#cpNTAuOTd8Mjk4LjkxfDM0OS40NXw1LjQ4)" style="stroke-width:.71;stroke:#00bfc4;fill:#00bfc4"/><circle cx="108.42" cy="292.51" r="1.95" clip-path="url(#cpNTAuOTd8Mjk4LjkxfDM0OS40NXw1LjQ4)" style="stroke-width:.71;stroke:#f8766d;fill:#f8766d"/><circle cx="255.44" cy="86.01" r="1.95" clip-path="url(#cpNTAuOTd8Mjk4LjkxfDM0OS40NXw1LjQ4)" style="stroke-width:.71;stroke:#00bfc4;fill:#00bfc4"/><circle cx="76.22" cy="239.41" r="1.95" clip-path="url(#cpNTAuOTd8Mjk4LjkxfDM0OS40NXw1LjQ4)" style="stroke-width:.71;stroke:#f8766d;fill:#f8766d"/><circle cx="243.66" cy="74.21" r="1.95" clip-path="url(#cpNTAuOTd8Mjk4LjkxfDM0OS40NXw1LjQ4)" style="stroke-width:.71;stroke:#00bfc4;fill:#00bfc4"/><circle cx="127.74" cy="274.81" r="1.95" clip-path="url(#cpNTAuOTd8Mjk4LjkxfDM0OS40NXw1LjQ4)" style="stroke-width:.71;stroke:#f8766d;fill:#f8766d"/><circle cx="221.12" cy="180.41" r="1.95" clip-path="url(#cpNTAuOTd8Mjk4LjkxfDM0OS40NXw1LjQ4)" style="stroke-width:.71;stroke:#00bfc4;fill:#00bfc4"/><circle cx="232.9" cy="133.21" r="1.95" clip-path="url(#cpNTAuOTd8Mjk4LjkxfDM0OS40NXw1LjQ4)" style="stroke-width:.71;stroke:#00bfc4;fill:#00bfc4"/><circle cx="85.88" cy="257.11" r="1.95" clip-path="url(#cpNTAuOTd8Mjk4LjkxfDM0OS40NXw1LjQ4)" style="stroke-width:.71;stroke:#f8766d;fill:#f8766d"/><circle cx="255.44" cy="68.31" r="1.95" clip-path="url(#cpNTAuOTd8Mjk4LjkxfDM0OS40NXw1LjQ4)" style="stroke-width:.71;stroke:#00bfc4;fill:#00bfc4"/><circle cx="201.8" cy="109.61" r="1.95" clip-path="url(#cpNTAuOTd8Mjk4LjkxfDM0OS40NXw1LjQ4)" style="stroke-width:.71;stroke:#00bfc4;fill:#00bfc4"/><circle cx="82.66" cy="322.01" r="1.95" clip-path="url(#cpNTAuOTd8Mjk4LjkxfDM0OS40NXw1LjQ4)" style="stroke-width:.71;stroke:#f8766d;fill:#f8766d"/><circle cx="249" cy="103.71" r="1.95" clip-path="url(#cpNTAuOTd8Mjk4LjkxfDM0OS40NXw1LjQ4)" style="stroke-width:.71;stroke:#00bfc4;fill:#00bfc4"/><circle cx="105.2" cy="263.01" r="1.95" clip-path="url(#cpNTAuOTd8Mjk4LjkxfDM0OS40NXw1LjQ4)" style="stroke-width:.71;stroke:#f8766d;fill:#f8766d"/><circle cx="258.66" cy="56.51" r="1.95" clip-path="url(#cpNTAuOTd8Mjk4LjkxfDM0OS40NXw1LjQ4)" style="stroke-width:.71;stroke:#00bfc4;fill:#00bfc4"/><circle cx="79.44" cy="322.01" r="1.95" clip-path="url(#cpNTAuOTd8Mjk4LjkxfDM0OS40NXw1LjQ4)" style="stroke-width:.71;stroke:#f8766d;fill:#f8766d"/><circle cx="227.56" cy="97.81" r="1.95" clip-path="url(#cpNTAuOTd8Mjk4LjkxfDM0OS40NXw1LjQ4)" style="stroke-width:.71;stroke:#00bfc4;fill:#00bfc4"/><circle cx="139.52" cy="257.11" r="1.95" clip-path="url(#cpNTAuOTd8Mjk4LjkxfDM0OS40NXw1LjQ4)" style="stroke-width:.71;stroke:#f8766d;fill:#f8766d"/><circle cx="238.25" cy="62.41" r="1.95" clip-path="url(#cpNTAuOTd8Mjk4LjkxfDM0OS40NXw1LjQ4)" style="stroke-width:.71;stroke:#00bfc4;fill:#00bfc4"/><circle cx="77.25" cy="316.11" r="1.95" clip-path="url(#cpNTAuOTd8Mjk4LjkxfDM0OS40NXw1LjQ4)" style="stroke-width:.71;stroke:#f8766d;fill:#f8766d"/><circle cx="241.47" cy="103.71" r="1.95" clip-path="url(#cpNTAuOTd8Mjk4LjkxfDM0OS40NXw1LjQ4)" style="stroke-width:.71;stroke:#00bfc4;fill:#00bfc4"/><circle cx="80.47" cy="286.61" r="1.95" clip-path="url(#cpNTAuOTd8Mjk4LjkxfDM0OS40NXw1LjQ4)" style="stroke-width:.71;stroke:#f8766d;fill:#f8766d"/><circle cx="276.89" cy="80.11" r="1.95" clip-path="url(#cpNTAuOTd8Mjk4LjkxfDM0OS40NXw1LjQ4)" style="stroke-width:.71;stroke:#00bfc4;fill:#00bfc4"/><circle cx="90.13" cy="274.81" r="1.95" clip-path="url(#cpNTAuOTd8Mjk4LjkxfDM0OS40NXw1LjQ4)" style="stroke-width:.71;stroke:#f8766d;fill:#f8766d"/><circle cx="199.61" cy="121.41" r="1.95" clip-path="url(#cpNTAuOTd8Mjk4LjkxfDM0OS40NXw1LjQ4)" style="stroke-width:.71;stroke:#00bfc4;fill:#00bfc4"/><circle cx="231.81" cy="109.61" r="1.95" clip-path="url(#cpNTAuOTd8Mjk4LjkxfDM0OS40NXw1LjQ4)" style="stroke-width:.71;stroke:#00bfc4;fill:#00bfc4"/><circle cx="103.01" cy="233.51" r="1.95" clip-path="url(#cpNTAuOTd8Mjk4LjkxfDM0OS40NXw1LjQ4)" style="stroke-width:.71;stroke:#f8766d;fill:#f8766d"/><circle cx="251.13" cy="103.71" r="1.95" clip-path="url(#cpNTAuOTd8Mjk4LjkxfDM0OS40NXw1LjQ4)" style="stroke-width:.71;stroke:#00bfc4;fill:#00bfc4"/><circle cx="269.42" cy="133.21" r="1.95" clip-path="url(#cpNTAuOTd8Mjk4LjkxfDM0OS40NXw1LjQ4)" style="stroke-width:.71;stroke:#00bfc4;fill:#00bfc4"/><circle cx="238.25" cy="139.11" r="1.95" clip-path="url(#cpNTAuOTd8Mjk4LjkxfDM0OS40NXw1LjQ4)" style="stroke-width:.71;stroke:#00bfc4;fill:#00bfc4"/><circle cx="86.91" cy="239.41" r="1.95" clip-path="url(#cpNTAuOTd8Mjk4LjkxfDM0OS40NXw1LjQ4)" style="stroke-width:.71;stroke:#f8766d;fill:#f8766d"/><circle cx="257.57" cy="115.51" r="1.95" clip-path="url(#cpNTAuOTd8Mjk4LjkxfDM0OS40NXw1LjQ4)" style="stroke-width:.71;stroke:#00bfc4;fill:#00bfc4"/><circle cx="89.1" cy="298.41" r="1.95" clip-path="url(#cpNTAuOTd8Mjk4LjkxfDM0OS40NXw1LjQ4)" style="stroke-width:.71;stroke:#f8766d;fill:#f8766d"/><circle cx="287.64" cy="21.11" r="1.95" clip-path="url(#cpNTAuOTd8Mjk4LjkxfDM0OS40NXw1LjQ4)" style="stroke-width:.71;stroke:#00bfc4;fill:#00bfc4"/><circle cx="75.12" cy="274.81" r="1.95" clip-path="url(#cpNTAuOTd8Mjk4LjkxfDM0OS40NXw1LjQ4)" style="stroke-width:.71;stroke:#f8766d;fill:#f8766d"/><circle cx="283.33" cy="133.21" r="1.95" clip-path="url(#cpNTAuOTd8Mjk4LjkxfDM0OS40NXw1LjQ4)" style="stroke-width:.71;stroke:#00bfc4;fill:#00bfc4"/><circle cx="216.8" cy="133.21" r="1.95" clip-path="url(#cpNTAuOTd8Mjk4LjkxfDM0OS40NXw1LjQ4)" style="stroke-width:.71;stroke:#00bfc4;fill:#00bfc4"/><circle cx="113.76" cy="204.01" r="1.95" clip-path="url(#cpNTAuOTd8Mjk4LjkxfDM0OS40NXw1LjQ4)" style="stroke-width:.71;stroke:#f8766d;fill:#f8766d"/><circle cx="255.44" cy="109.61" r="1.95" clip-path="url(#cpNTAuOTd8Mjk4LjkxfDM0OS40NXw1LjQ4)" style="stroke-width:.71;stroke:#00bfc4;fill:#00bfc4"/><circle cx="188.92" cy="168.61" r="1.95" clip-path="url(#cpNTAuOTd8Mjk4LjkxfDM0OS40NXw1LjQ4)" style="stroke-width:.71;stroke:#00bfc4;fill:#00bfc4"/><circle cx="216.8" cy="174.51" r="1.95" clip-path="url(#cpNTAuOTd8Mjk4LjkxfDM0OS40NXw1LjQ4)" style="stroke-width:.71;stroke:#00bfc4;fill:#00bfc4"/><circle cx="249" cy="109.61" r="1.95" clip-path="url(#cpNTAuOTd8Mjk4LjkxfDM0OS40NXw1LjQ4)" style="stroke-width:.71;stroke:#00bfc4;fill:#00bfc4"/><circle cx="222.15" cy="38.81" r="1.95" clip-path="url(#cpNTAuOTd8Mjk4LjkxfDM0OS40NXw1LjQ4)" style="stroke-width:.71;stroke:#00bfc4;fill:#00bfc4"/><circle cx="75.12" cy="274.81" r="1.95" clip-path="url(#cpNTAuOTd8Mjk4LjkxfDM0OS40NXw1LjQ4)" style="stroke-width:.71;stroke:#f8766d;fill:#f8766d"/><circle cx="214.68" cy="62.41" r="1.95" clip-path="url(#cpNTAuOTd8Mjk4LjkxfDM0OS40NXw1LjQ4)" style="stroke-width:.71;stroke:#00bfc4;fill:#00bfc4"/><circle cx="100.88" cy="322.01" r="1.95" clip-path="url(#cpNTAuOTd8Mjk4LjkxfDM0OS40NXw1LjQ4)" style="stroke-width:.71;stroke:#f8766d;fill:#f8766d"/><circle cx="226.46" cy="80.11" r="1.95" clip-path="url(#cpNTAuOTd8Mjk4LjkxfDM0OS40NXw1LjQ4)" style="stroke-width:.71;stroke:#00bfc4;fill:#00bfc4"/><circle cx="88" cy="245.31" r="1.95" clip-path="url(#cpNTAuOTd8Mjk4LjkxfDM0OS40NXw1LjQ4)" style="stroke-width:.71;stroke:#f8766d;fill:#f8766d"/><circle cx="206.05" cy="127.31" r="1.95" clip-path="url(#cpNTAuOTd8Mjk4LjkxfDM0OS40NXw1LjQ4)" style="stroke-width:.71;stroke:#00bfc4;fill:#00bfc4"/><circle cx="184.6" cy="198.11" r="1.95" clip-path="url(#cpNTAuOTd8Mjk4LjkxfDM0OS40NXw1LjQ4)" style="stroke-width:.71;stroke:#f8766d;fill:#f8766d"/><circle cx="254.35" cy="139.11" r="1.95" clip-path="url(#cpNTAuOTd8Mjk4LjkxfDM0OS40NXw1LjQ4)" style="stroke-width:.71;stroke:#00bfc4;fill:#00bfc4"/><circle cx="111.64" cy="215.81" r="1.95" clip-path="url(#cpNTAuOTd8Mjk4LjkxfDM0OS40NXw1LjQ4)" style="stroke-width:.71;stroke:#f8766d;fill:#f8766d"/><circle cx="281.2" cy="68.31" r="1.95" clip-path="url(#cpNTAuOTd8Mjk4LjkxfDM0OS40NXw1LjQ4)" style="stroke-width:.71;stroke:#00bfc4;fill:#00bfc4"/><circle cx="83.69" cy="280.71" r="1.95" clip-path="url(#cpNTAuOTd8Mjk4LjkxfDM0OS40NXw1LjQ4)" style="stroke-width:.71;stroke:#f8766d;fill:#f8766d"/><circle cx="256.54" cy="38.81" r="1.95" clip-path="url(#cpNTAuOTd8Mjk4LjkxfDM0OS40NXw1LjQ4)" style="stroke-width:.71;stroke:#00bfc4;fill:#00bfc4"/><circle cx="82.66" cy="298.41" r="1.95" clip-path="url(#cpNTAuOTd8Mjk4LjkxfDM0OS40NXw1LjQ4)" style="stroke-width:.71;stroke:#f8766d;fill:#f8766d"/><circle cx="93.35" cy="251.21" r="1.95" clip-path="url(#cpNTAuOTd8Mjk4LjkxfDM0OS40NXw1LjQ4)" style="stroke-width:.71;stroke:#f8766d;fill:#f8766d"/><circle cx="254.35" cy="133.21" r="1.95" clip-path="url(#cpNTAuOTd8Mjk4LjkxfDM0OS40NXw1LjQ4)" style="stroke-width:.71;stroke:#00bfc4;fill:#00bfc4"/><circle cx="173.85" cy="186.31" r="1.95" clip-path="url(#cpNTAuOTd8Mjk4LjkxfDM0OS40NXw1LjQ4)" style="stroke-width:.71;stroke:#00bfc4;fill:#00bfc4"/><circle cx="227.56" cy="109.61" r="1.95" clip-path="url(#cpNTAuOTd8Mjk4LjkxfDM0OS40NXw1LjQ4)" style="stroke-width:.71;stroke:#00bfc4;fill:#00bfc4"/><circle cx="238.25" cy="109.61" r="1.95" clip-path="url(#cpNTAuOTd8Mjk4LjkxfDM0OS40NXw1LjQ4)" style="stroke-width:.71;stroke:#00bfc4;fill:#00bfc4"/><circle cx="249" cy="156.81" r="1.95" clip-path="url(#cpNTAuOTd8Mjk4LjkxfDM0OS40NXw1LjQ4)" style="stroke-width:.71;stroke:#00bfc4;fill:#00bfc4"/><circle cx="114.86" cy="292.51" r="1.95" clip-path="url(#cpNTAuOTd8Mjk4LjkxfDM0OS40NXw1LjQ4)" style="stroke-width:.71;stroke:#f8766d;fill:#f8766d"/><circle cx="216.8" cy="86.01" r="1.95" clip-path="url(#cpNTAuOTd8Mjk4LjkxfDM0OS40NXw1LjQ4)" style="stroke-width:.71;stroke:#00bfc4;fill:#00bfc4"/><circle cx="227.56" cy="150.91" r="1.95" clip-path="url(#cpNTAuOTd8Mjk4LjkxfDM0OS40NXw1LjQ4)" style="stroke-width:.71;stroke:#00bfc4;fill:#00bfc4"/><circle cx="80.47" cy="263.01" r="1.95" clip-path="url(#cpNTAuOTd8Mjk4LjkxfDM0OS40NXw1LjQ4)" style="stroke-width:.71;stroke:#f8766d;fill:#f8766d"/><circle cx="254.35" cy="133.21" r="1.95" clip-path="url(#cpNTAuOTd8Mjk4LjkxfDM0OS40NXw1LjQ4)" style="stroke-width:.71;stroke:#00bfc4;fill:#00bfc4"/><circle cx="232.9" cy="97.81" r="1.95" clip-path="url(#cpNTAuOTd8Mjk4LjkxfDM0OS40NXw1LjQ4)" style="stroke-width:.71;stroke:#00bfc4;fill:#00bfc4"/><circle cx="201.8" cy="97.81" r="1.95" clip-path="url(#cpNTAuOTd8Mjk4LjkxfDM0OS40NXw1LjQ4)" style="stroke-width:.71;stroke:#00bfc4;fill:#00bfc4"/><circle cx="90.13" cy="286.61" r="1.95" clip-path="url(#cpNTAuOTd8Mjk4LjkxfDM0OS40NXw1LjQ4)" style="stroke-width:.71;stroke:#f8766d;fill:#f8766d"/><circle cx="244.69" cy="127.31" r="1.95" clip-path="url(#cpNTAuOTd8Mjk4LjkxfDM0OS40NXw1LjQ4)" style="stroke-width:.71;stroke:#00bfc4;fill:#00bfc4"/><circle cx="222.15" cy="91.91" r="1.95" clip-path="url(#cpNTAuOTd8Mjk4LjkxfDM0OS40NXw1LjQ4)" style="stroke-width:.71;stroke:#00bfc4;fill:#00bfc4"/><circle cx="77.25" cy="316.11" r="1.95" clip-path="url(#cpNTAuOTd8Mjk4LjkxfDM0OS40NXw1LjQ4)" style="stroke-width:.71;stroke:#f8766d;fill:#f8766d"/><circle cx="243.66" cy="97.81" r="1.95" clip-path="url(#cpNTAuOTd8Mjk4LjkxfDM0OS40NXw1LjQ4)" style="stroke-width:.71;stroke:#00bfc4;fill:#00bfc4"/><circle cx="99.79" cy="263.01" r="1.95" clip-path="url(#cpNTAuOTd8Mjk4LjkxfDM0OS40NXw1LjQ4)" style="stroke-width:.71;stroke:#f8766d;fill:#f8766d"/><circle cx="268.32" cy="109.61" r="1.95" clip-path="url(#cpNTAuOTd8Mjk4LjkxfDM0OS40NXw1LjQ4)" style="stroke-width:.71;stroke:#00bfc4;fill:#00bfc4"/><circle cx="77.25" cy="251.21" r="1.95" clip-path="url(#cpNTAuOTd8Mjk4LjkxfDM0OS40NXw1LjQ4)" style="stroke-width:.71;stroke:#f8766d;fill:#f8766d"/><circle cx="268.32" cy="139.11" r="1.95" clip-path="url(#cpNTAuOTd8Mjk4LjkxfDM0OS40NXw1LjQ4)" style="stroke-width:.71;stroke:#00bfc4;fill:#00bfc4"/><circle cx="223.24" cy="91.91" r="1.95" clip-path="url(#cpNTAuOTd8Mjk4LjkxfDM0OS40NXw1LjQ4)" style="stroke-width:.71;stroke:#00bfc4;fill:#00bfc4"/><circle cx="214.61" cy="133.21" r="1.95" clip-path="url(#cpNTAuOTd8Mjk4LjkxfDM0OS40NXw1LjQ4)" style="stroke-width:.71;stroke:#00bfc4;fill:#00bfc4"/><circle cx="231.81" cy="109.61" r="1.95" clip-path="url(#cpNTAuOTd8Mjk4LjkxfDM0OS40NXw1LjQ4)" style="stroke-width:.71;stroke:#00bfc4;fill:#00bfc4"/><circle cx="184.6" cy="74.21" r="1.95" clip-path="url(#cpNTAuOTd8Mjk4LjkxfDM0OS40NXw1LjQ4)" style="stroke-width:.71;stroke:#00bfc4;fill:#00bfc4"/><circle cx="240.37" cy="133.21" r="1.95" clip-path="url(#cpNTAuOTd8Mjk4LjkxfDM0OS40NXw1LjQ4)" style="stroke-width:.71;stroke:#00bfc4;fill:#00bfc4"/><circle cx="104.1" cy="286.61" r="1.95" clip-path="url(#cpNTAuOTd8Mjk4LjkxfDM0OS40NXw1LjQ4)" style="stroke-width:.71;stroke:#f8766d;fill:#f8766d"/><circle cx="259.76" cy="127.31" r="1.95" clip-path="url(#cpNTAuOTd8Mjk4LjkxfDM0OS40NXw1LjQ4)" style="stroke-width:.71;stroke:#00bfc4;fill:#00bfc4"/><circle cx="94.44" cy="233.51" r="1.95" clip-path="url(#cpNTAuOTd8Mjk4LjkxfDM0OS40NXw1LjQ4)" style="stroke-width:.71;stroke:#f8766d;fill:#f8766d"/><circle cx="239.34" cy="103.71" r="1.95" clip-path="url(#cpNTAuOTd8Mjk4LjkxfDM0OS40NXw1LjQ4)" style="stroke-width:.71;stroke:#00bfc4;fill:#00bfc4"/><circle cx="225.37" cy="50.61" r="1.95" clip-path="url(#cpNTAuOTd8Mjk4LjkxfDM0OS40NXw1LjQ4)" style="stroke-width:.71;stroke:#00bfc4;fill:#00bfc4"/><circle cx="79.44" cy="274.81" r="1.95" clip-path="url(#cpNTAuOTd8Mjk4LjkxfDM0OS40NXw1LjQ4)" style="stroke-width:.71;stroke:#f8766d;fill:#f8766d"/><circle cx="255.44" cy="127.31" r="1.95" clip-path="url(#cpNTAuOTd8Mjk4LjkxfDM0OS40NXw1LjQ4)" style="stroke-width:.71;stroke:#00bfc4;fill:#00bfc4"/><circle cx="74.03" cy="316.11" r="1.95" clip-path="url(#cpNTAuOTd8Mjk4LjkxfDM0OS40NXw1LjQ4)" style="stroke-width:.71;stroke:#f8766d;fill:#f8766d"/><circle cx="240.44" cy="133.21" r="1.95" clip-path="url(#cpNTAuOTd8Mjk4LjkxfDM0OS40NXw1LjQ4)" style="stroke-width:.71;stroke:#00bfc4;fill:#00bfc4"/><circle cx="207.14" cy="91.91" r="1.95" clip-path="url(#cpNTAuOTd8Mjk4LjkxfDM0OS40NXw1LjQ4)" style="stroke-width:.71;stroke:#00bfc4;fill:#00bfc4"/><circle cx="83.69" cy="298.41" r="1.95" clip-path="url(#cpNTAuOTd8Mjk4LjkxfDM0OS40NXw1LjQ4)" style="stroke-width:.71;stroke:#f8766d;fill:#f8766d"/><circle cx="249" cy="97.81" r="1.95" clip-path="url(#cpNTAuOTd8Mjk4LjkxfDM0OS40NXw1LjQ4)" style="stroke-width:.71;stroke:#00bfc4;fill:#00bfc4"/><circle cx="112.67" cy="168.61" r="1.95" clip-path="url(#cpNTAuOTd8Mjk4LjkxfDM0OS40NXw1LjQ4)" style="stroke-width:.71;stroke:#00bfc4;fill:#00bfc4"/><circle cx="261.88" cy="115.51" r="1.95" clip-path="url(#cpNTAuOTd8Mjk4LjkxfDM0OS40NXw1LjQ4)" style="stroke-width:.71;stroke:#00bfc4;fill:#00bfc4"/><circle cx="79.44" cy="298.41" r="1.95" clip-path="url(#cpNTAuOTd8Mjk4LjkxfDM0OS40NXw1LjQ4)" style="stroke-width:.71;stroke:#f8766d;fill:#f8766d"/><circle cx="206.05" cy="145.01" r="1.95" clip-path="url(#cpNTAuOTd8Mjk4LjkxfDM0OS40NXw1LjQ4)" style="stroke-width:.71;stroke:#00bfc4;fill:#00bfc4"/><circle cx="179.26" cy="209.91" r="1.95" clip-path="url(#cpNTAuOTd8Mjk4LjkxfDM0OS40NXw1LjQ4)" style="stroke-width:.71;stroke:#f8766d;fill:#f8766d"/><circle cx="231.81" cy="139.11" r="1.95" clip-path="url(#cpNTAuOTd8Mjk4LjkxfDM0OS40NXw1LjQ4)" style="stroke-width:.71;stroke:#00bfc4;fill:#00bfc4"/><circle cx="113.76" cy="274.81" r="1.95" clip-path="url(#cpNTAuOTd8Mjk4LjkxfDM0OS40NXw1LjQ4)" style="stroke-width:.71;stroke:#f8766d;fill:#f8766d"/><circle cx="268.32" cy="32.91" r="1.95" clip-path="url(#cpNTAuOTd8Mjk4LjkxfDM0OS40NXw1LjQ4)" style="stroke-width:.71;stroke:#00bfc4;fill:#00bfc4"/><circle cx="88" cy="263.01" r="1.95" clip-path="url(#cpNTAuOTd8Mjk4LjkxfDM0OS40NXw1LjQ4)" style="stroke-width:.71;stroke:#f8766d;fill:#f8766d"/><circle cx="226.46" cy="139.11" r="1.95" clip-path="url(#cpNTAuOTd8Mjk4LjkxfDM0OS40NXw1LjQ4)" style="stroke-width:.71;stroke:#00bfc4;fill:#00bfc4"/><circle cx="79.44" cy="292.51" r="1.95" clip-path="url(#cpNTAuOTd8Mjk4LjkxfDM0OS40NXw1LjQ4)" style="stroke-width:.71;stroke:#f8766d;fill:#f8766d"/><circle cx="234" cy="103.71" r="1.95" clip-path="url(#cpNTAuOTd8Mjk4LjkxfDM0OS40NXw1LjQ4)" style="stroke-width:.71;stroke:#00bfc4;fill:#00bfc4"/><circle cx="71.9" cy="268.91" r="1.95" clip-path="url(#cpNTAuOTd8Mjk4LjkxfDM0OS40NXw1LjQ4)" style="stroke-width:.71;stroke:#f8766d;fill:#f8766d"/><circle cx="247.91" cy="145.01" r="1.95" clip-path="url(#cpNTAuOTd8Mjk4LjkxfDM0OS40NXw1LjQ4)" style="stroke-width:.71;stroke:#00bfc4;fill:#00bfc4"/><circle cx="216.8" cy="127.31" r="1.95" clip-path="url(#cpNTAuOTd8Mjk4LjkxfDM0OS40NXw1LjQ4)" style="stroke-width:.71;stroke:#00bfc4;fill:#00bfc4"/><circle cx="224.34" cy="121.41" r="1.95" clip-path="url(#cpNTAuOTd8Mjk4LjkxfDM0OS40NXw1LjQ4)" style="stroke-width:.71;stroke:#00bfc4;fill:#00bfc4"/><circle cx="222.15" cy="127.31" r="1.95" clip-path="url(#cpNTAuOTd8Mjk4LjkxfDM0OS40NXw1LjQ4)" style="stroke-width:.71;stroke:#00bfc4;fill:#00bfc4"/><circle cx="234" cy="127.31" r="1.95" clip-path="url(#cpNTAuOTd8Mjk4LjkxfDM0OS40NXw1LjQ4)" style="stroke-width:.71;stroke:#00bfc4;fill:#00bfc4"/><circle cx="211.46" cy="174.51" r="1.95" clip-path="url(#cpNTAuOTd8Mjk4LjkxfDM0OS40NXw1LjQ4)" style="stroke-width:.71;stroke:#00bfc4;fill:#00bfc4"/><circle cx="252.22" cy="121.41" r="1.95" clip-path="url(#cpNTAuOTd8Mjk4LjkxfDM0OS40NXw1LjQ4)" style="stroke-width:.71;stroke:#00bfc4;fill:#00bfc4"/><circle cx="222.15" cy="174.51" r="1.95" clip-path="url(#cpNTAuOTd8Mjk4LjkxfDM0OS40NXw1LjQ4)" style="stroke-width:.71;stroke:#00bfc4;fill:#00bfc4"/><circle cx="114.86" cy="268.91" r="1.95" clip-path="url(#cpNTAuOTd8Mjk4LjkxfDM0OS40NXw1LjQ4)" style="stroke-width:.71;stroke:#f8766d;fill:#f8766d"/><circle cx="228.59" cy="80.11" r="1.95" clip-path="url(#cpNTAuOTd8Mjk4LjkxfDM0OS40NXw1LjQ4)" style="stroke-width:.71;stroke:#00bfc4;fill:#00bfc4"/><circle cx="101.98" cy="292.51" r="1.95" clip-path="url(#cpNTAuOTd8Mjk4LjkxfDM0OS40NXw1LjQ4)" style="stroke-width:.71;stroke:#f8766d;fill:#f8766d"/><circle cx="245.78" cy="56.51" r="1.95" clip-path="url(#cpNTAuOTd8Mjk4LjkxfDM0OS40NXw1LjQ4)" style="stroke-width:.71;stroke:#00bfc4;fill:#00bfc4"/><circle cx="80.47" cy="268.91" r="1.95" clip-path="url(#cpNTAuOTd8Mjk4LjkxfDM0OS40NXw1LjQ4)" style="stroke-width:.71;stroke:#f8766d;fill:#f8766d"/><circle cx="78.34" cy="268.91" r="1.95" clip-path="url(#cpNTAuOTd8Mjk4LjkxfDM0OS40NXw1LjQ4)" style="stroke-width:.71;stroke:#f8766d;fill:#f8766d"/><circle cx="235.03" cy="133.21" r="1.95" clip-path="url(#cpNTAuOTd8Mjk4LjkxfDM0OS40NXw1LjQ4)" style="stroke-width:.71;stroke:#00bfc4;fill:#00bfc4"/><circle cx="213.58" cy="121.41" r="1.95" clip-path="url(#cpNTAuOTd8Mjk4LjkxfDM0OS40NXw1LjQ4)" style="stroke-width:.71;stroke:#00bfc4;fill:#00bfc4"/><circle cx="109.45" cy="209.91" r="1.95" clip-path="url(#cpNTAuOTd8Mjk4LjkxfDM0OS40NXw1LjQ4)" style="stroke-width:.71;stroke:#f8766d;fill:#f8766d"/><circle cx="226.46" cy="145.01" r="1.95" clip-path="url(#cpNTAuOTd8Mjk4LjkxfDM0OS40NXw1LjQ4)" style="stroke-width:.71;stroke:#00bfc4;fill:#00bfc4"/><circle cx="110.54" cy="310.21" r="1.95" clip-path="url(#cpNTAuOTd8Mjk4LjkxfDM0OS40NXw1LjQ4)" style="stroke-width:.71;stroke:#f8766d;fill:#f8766d"/><circle cx="276.89" cy="80.11" r="1.95" clip-path="url(#cpNTAuOTd8Mjk4LjkxfDM0OS40NXw1LjQ4)" style="stroke-width:.71;stroke:#00bfc4;fill:#00bfc4"/><circle cx="145.96" cy="215.81" r="1.95" clip-path="url(#cpNTAuOTd8Mjk4LjkxfDM0OS40NXw1LjQ4)" style="stroke-width:.71;stroke:#f8766d;fill:#f8766d"/><circle cx="254.35" cy="86.01" r="1.95" clip-path="url(#cpNTAuOTd8Mjk4LjkxfDM0OS40NXw1LjQ4)" style="stroke-width:.71;stroke:#00bfc4;fill:#00bfc4"/><circle cx="206.05" cy="103.71" r="1.95" clip-path="url(#cpNTAuOTd8Mjk4LjkxfDM0OS40NXw1LjQ4)" style="stroke-width:.71;stroke:#00bfc4;fill:#00bfc4"/><circle cx="93.35" cy="251.21" r="1.95" clip-path="url(#cpNTAuOTd8Mjk4LjkxfDM0OS40NXw1LjQ4)" style="stroke-width:.71;stroke:#f8766d;fill:#f8766d"/><circle cx="240.44" cy="103.71" r="1.95" clip-path="url(#cpNTAuOTd8Mjk4LjkxfDM0OS40NXw1LjQ4)" style="stroke-width:.71;stroke:#00bfc4;fill:#00bfc4"/><circle cx="96.57" cy="192.21" r="1.95" clip-path="url(#cpNTAuOTd8Mjk4LjkxfDM0OS40NXw1LjQ4)" style="stroke-width:.71;stroke:#00bfc4;fill:#00bfc4"/><circle cx="239.34" cy="150.91" r="1.95" clip-path="url(#cpNTAuOTd8Mjk4LjkxfDM0OS40NXw1LjQ4)" style="stroke-width:.71;stroke:#00bfc4;fill:#00bfc4"/><circle cx="100.88" cy="268.91" r="1.95" clip-path="url(#cpNTAuOTd8Mjk4LjkxfDM0OS40NXw1LjQ4)" style="stroke-width:.71;stroke:#f8766d;fill:#f8766d"/><circle cx="245.78" cy="97.81" r="1.95" clip-path="url(#cpNTAuOTd8Mjk4LjkxfDM0OS40NXw1LjQ4)" style="stroke-width:.71;stroke:#00bfc4;fill:#00bfc4"/><circle cx="188.92" cy="156.81" r="1.95" clip-path="url(#cpNTAuOTd8Mjk4LjkxfDM0OS40NXw1LjQ4)" style="stroke-width:.71;stroke:#00bfc4;fill:#00bfc4"/><circle cx="249" cy="156.81" r="1.95" clip-path="url(#cpNTAuOTd8Mjk4LjkxfDM0OS40NXw1LjQ4)" style="stroke-width:.71;stroke:#00bfc4;fill:#00bfc4"/><circle cx="226.46" cy="68.31" r="1.95" clip-path="url(#cpNTAuOTd8Mjk4LjkxfDM0OS40NXw1LjQ4)" style="stroke-width:.71;stroke:#00bfc4;fill:#00bfc4"/><circle cx="205.02" cy="115.51" r="1.95" clip-path="url(#cpNTAuOTd8Mjk4LjkxfDM0OS40NXw1LjQ4)" style="stroke-width:.71;stroke:#00bfc4;fill:#00bfc4"/><circle cx="211.46" cy="168.61" r="1.95" clip-path="url(#cpNTAuOTd8Mjk4LjkxfDM0OS40NXw1LjQ4)" style="stroke-width:.71;stroke:#00bfc4;fill:#00bfc4"/><circle cx="245.78" cy="97.81" r="1.95" clip-path="url(#cpNTAuOTd8Mjk4LjkxfDM0OS40NXw1LjQ4)" style="stroke-width:.71;stroke:#00bfc4;fill:#00bfc4"/><circle cx="88" cy="257.11" r="1.95" clip-path="url(#cpNTAuOTd8Mjk4LjkxfDM0OS40NXw1LjQ4)" style="stroke-width:.71;stroke:#f8766d;fill:#f8766d"/><circle cx="235.03" cy="121.41" r="1.95" clip-path="url(#cpNTAuOTd8Mjk4LjkxfDM0OS40NXw1LjQ4)" style="stroke-width:.71;stroke:#00bfc4;fill:#00bfc4"/><circle cx="266.2" cy="127.31" r="1.95" clip-path="url(#cpNTAuOTd8Mjk4LjkxfDM0OS40NXw1LjQ4)" style="stroke-width:.71;stroke:#00bfc4;fill:#00bfc4"/><circle cx="251.13" cy="91.91" r="1.95" clip-path="url(#cpNTAuOTd8Mjk4LjkxfDM0OS40NXw1LjQ4)" style="stroke-width:.71;stroke:#00bfc4;fill:#00bfc4"/><circle cx="78.34" cy="245.31" r="1.95" clip-path="url(#cpNTAuOTd8Mjk4LjkxfDM0OS40NXw1LjQ4)" style="stroke-width:.71;stroke:#f8766d;fill:#f8766d"/><circle cx="232.9" cy="97.81" r="1.95" clip-path="url(#cpNTAuOTd8Mjk4LjkxfDM0OS40NXw1LjQ4)" style="stroke-width:.71;stroke:#00bfc4;fill:#00bfc4"/><circle cx="86.91" cy="333.81" r="1.95" clip-path="url(#cpNTAuOTd8Mjk4LjkxfDM0OS40NXw1LjQ4)" style="stroke-width:.71;stroke:#f8766d;fill:#f8766d"/><circle cx="104.1" cy="233.51" r="1.95" clip-path="url(#cpNTAuOTd8Mjk4LjkxfDM0OS40NXw1LjQ4)" style="stroke-width:.71;stroke:#f8766d;fill:#f8766d"/><circle cx="265.1" cy="145.01" r="1.95" clip-path="url(#cpNTAuOTd8Mjk4LjkxfDM0OS40NXw1LjQ4)" style="stroke-width:.71;stroke:#00bfc4;fill:#00bfc4"/><circle cx="224.34" cy="109.61" r="1.95" clip-path="url(#cpNTAuOTd8Mjk4LjkxfDM0OS40NXw1LjQ4)" style="stroke-width:.71;stroke:#00bfc4;fill:#00bfc4"/><circle cx="97.66" cy="316.11" r="1.95" clip-path="url(#cpNTAuOTd8Mjk4LjkxfDM0OS40NXw1LjQ4)" style="stroke-width:.71;stroke:#f8766d;fill:#f8766d"/><circle cx="243.66" cy="56.51" r="1.95" clip-path="url(#cpNTAuOTd8Mjk4LjkxfDM0OS40NXw1LjQ4)" style="stroke-width:.71;stroke:#00bfc4;fill:#00bfc4"/><circle cx="76.22" cy="316.11" r="1.95" clip-path="url(#cpNTAuOTd8Mjk4LjkxfDM0OS40NXw1LjQ4)" style="stroke-width:.71;stroke:#f8766d;fill:#f8766d"/><circle cx="246.88" cy="150.91" r="1.95" clip-path="url(#cpNTAuOTd8Mjk4LjkxfDM0OS40NXw1LjQ4)" style="stroke-width:.71;stroke:#00bfc4;fill:#00bfc4"/><polyline points="287.64 26.7 285.37 24.74 284.76 24.27 283.09 22.99 280.81 21.49 280.17 21.11" clip-path="url(#cpNTAuOTd8Mjk4LjkxfDM0OS40NXw1LjQ4)" style="stroke-width:1.07;stroke:#36f;stroke-linecap:butt"/><polyline points="222.23 21.11 221.62 21.39 219.34 22.49 217.06 23.73 216.15 24.27 214.79 25.04 212.51 26.44 211.05 27.43 210.23 27.96 207.96 29.54 206.57 30.59 205.68 31.23 203.4 33 202.49 33.75 201.13 34.84 198.85 36.79 198.72 36.91 196.57 38.75 195.14 40.07 194.29 40.82 192.02 42.95 191.74 43.22 189.74 45.11 188.45 46.38 187.46 47.35 185.32 49.54 185.19 49.68 182.91 52.05 182.31 52.7 180.63 54.51 179.44 55.86 178.36 57.1 176.75 59.02 176.08 59.84 174.24 62.18 173.8 62.75 171.91 65.33 171.53 65.88 169.76 68.49 169.25 69.31 167.81 71.65 166.97 73.15 166.05 74.81 164.7 77.55 164.49 77.97 163.07 81.13 162.42 82.8 161.83 84.29 160.74 87.44 160.14 89.5 159.81 90.6 158.98 93.76 158.31 96.92 157.87 99.4 157.74 100.08 157.25 103.24 156.85 106.4 156.55 109.55 156.31 112.71 156.14 115.87 156.01 119.03 155.91 122.19 155.85 125.35 155.8 128.5 155.75 131.66 155.7 134.82 155.64 137.98 155.59 139.74 155.55 141.14 155.41 144.3 155.23 147.46 154.99 150.61 154.68 153.77 154.29 156.93 153.8 160.09 153.31 162.68 153.19 163.25 152.36 166.41 151.34 169.57 151.04 170.39 149.92 172.72 148.76 174.74 147.85 175.88 146.48 177.34 144.21 178.84 143.69 179.04 141.93 179.63 139.65 179.93 137.38 179.91 135.1 179.67 132.82 179.29 131.68 179.04 130.55 178.81 128.27 178.27 125.99 177.71 123.71 177.16 121.44 176.64 119.16 176.17 117.6 175.88 116.88 175.75 114.61 175.37 112.33 175.06 110.05 174.83 107.78 174.69 105.5 174.63 103.22 174.66 100.95 174.77 98.67 174.98 96.39 175.28 94.12 175.68 93.16 175.88 91.84 176.14 89.56 176.67 87.29 177.3 85.01 178.02 82.73 178.86 82.28 179.04 80.46 179.73 78.18 180.69 75.9 181.79 75.12 182.2 73.63 182.94 71.35 184.19 69.46 185.36 69.07 185.58 66.8 187.03 64.74 188.52 64.52 188.67 62.24 190.38" clip-path="url(#cpNTAuOTd8Mjk4LjkxfDM0OS40NXw1LjQ4)" style="stroke-width:1.07;stroke:#36f;stroke-linecap:butt"/><polyline points="126.1 333.81 128.27 331.07 128.59 330.65 130.55 327.94 130.85 327.49 132.82 324.5 132.93 324.33 134.86 321.18 135.1 320.75 136.65 318.02 137.38 316.63 138.31 314.86 139.65 312.07 139.84 311.7 141.29 308.54 141.93 307.03 142.65 305.38 143.9 302.23 144.21 301.37 145.09 299.07 146.17 295.91 146.48 294.91 147.2 292.75 148.14 289.59 148.76 287.24 148.99 286.43 149.79 283.27 150.49 280.12 151.04 277.25 151.1 276.96 151.68 273.8 152.17 270.64 152.59 267.48 152.95 264.32 153.26 261.16 153.31 260.5 153.55 258.01 153.83 254.85 154.11 251.69 154.39 248.53 154.7 245.37 155.06 242.21 155.48 239.05 155.59 238.38 156.05 235.9 156.77 232.74 157.66 229.58 157.87 228.95 158.92 226.42 160.14 224.05 160.69 223.26 162.42 221.16 163.71 220.1 164.7 219.39 166.97 218.31 169.25 217.65 171.53 217.27 173.8 217.06 176.08 216.96 176.82 216.94 178.36 216.92 180.63 216.92 182.91 216.93 185.19 216.93 187.46 216.92 189.74 216.88 192.02 216.82 194.29 216.72 196.57 216.59 198.85 216.42 201.13 216.21 203.4 215.97 205.68 215.68 207.96 215.35 210.23 214.98 212.51 214.56 214.79 214.1 216.18 213.79 217.06 213.61 219.34 213.11 221.62 212.57 223.89 211.98 226.17 211.34 228.45 210.64 228.48 210.63 230.72 209.98 233 209.27 235.28 208.51 237.55 207.69 238.12 207.47 239.83 206.89 242.11 206.06 244.38 205.17 246.44 204.31 246.66 204.23 248.94 203.33 251.21 202.37 253.49 201.33 253.86 201.15 255.77 200.32 258.04 199.26 260.32 198.1 260.52 197.99 262.6 196.98 264.87 195.77 266.5 194.83 267.15 194.49 269.43 193.2 271.71 191.77 271.84 191.68 273.98 190.35 276.26 188.78 276.62 188.52 278.54 187.19 280.81 185.42 280.89 185.36 283.09 183.63 284.73 182.2 285.37 181.65 287.64 179.55" clip-path="url(#cpNTAuOTd8Mjk4LjkxfDM0OS40NXw1LjQ4)" style="stroke-width:1.07;stroke:#36f;stroke-linecap:butt"/><polyline points="287.64 48.93 285.72 46.38 285.37 45.93 283.09 43.32 282.99 43.22 280.81 41.02 279.74 40.07 278.54 39.01 276.26 37.26 275.74 36.91 273.98 35.71 271.71 34.39 270.43 33.75 269.43 33.24 267.15 32.24 264.87 31.42 262.6 30.75 261.95 30.59 260.32 30.18 258.04 29.74 255.77 29.42 253.49 29.21 251.21 29.11 248.94 29.11 246.66 29.22 244.38 29.43 242.11 29.73 239.83 30.14 237.85 30.59 237.55 30.65 235.28 31.22 233 31.9 230.72 32.69 228.45 33.6 228.12 33.75 226.17 34.57 223.89 35.65 221.62 36.87 221.56 36.91 219.34 38.14 217.06 39.54 216.27 40.07 214.79 41.02 212.51 42.62 211.7 43.22 210.23 44.29 207.96 46.08 207.59 46.38 205.68 47.92 203.81 49.54 203.4 49.88 201.13 51.9 200.27 52.7 198.85 54.01 196.95 55.86 196.57 56.23 194.29 58.52 193.82 59.02 192.02 60.92 190.87 62.18 189.74 63.45 188.12 65.33 187.46 66.13 185.57 68.49 185.19 68.99 183.21 71.65 182.91 72.08 181.06 74.81 180.63 75.49 179.11 77.97 178.36 79.31 177.36 81.13 176.08 83.74 175.81 84.29 174.44 87.44 173.8 89.13 173.24 90.6 172.21 93.76 171.53 96.27 171.35 96.92 170.6 100.08 169.99 103.24 169.52 106.4 169.25 108.75 169.15 109.55 168.87 112.71 168.68 115.87 168.58 119.03 168.55 122.19 168.59 125.35 168.69 128.5 168.84 131.66 169.04 134.82 169.25 137.48 169.29 137.98 169.56 141.14 169.87 144.3 170.22 147.46 170.62 150.61 171.07 153.77 171.53 156.63 171.57 156.93 172.11 160.09 172.74 163.25 173.47 166.41 173.8 167.7 174.31 169.57 175.3 172.72 176.08 174.82 176.5 175.88 177.97 179.04 178.36 179.76 179.8 182.2 180.63 183.4 182.15 185.36 182.91 186.22 185.19 188.46 185.25 188.52 187.46 190.29 189.55 191.68 189.74 191.79 192.02 193.05 194.29 194.09 196.26 194.83 196.57 194.95 198.85 195.67 201.13 196.26 203.4 196.72 205.68 197.07 207.96 197.33 210.23 197.49 212.51 197.58 214.79 197.58 217.06 197.52 219.34 197.39 221.62 197.19 223.89 196.93 226.17 196.61 228.45 196.23 230.72 195.78 233 195.28 234.77 194.83 235.28 194.72 237.55 194.15 239.83 193.52 242.11 192.82 244.38 192.05 245.42 191.68 246.66 191.26 248.94 190.44 251.21 189.54 253.49 188.56 253.57 188.52 255.77 187.58 258.04 186.52 260.29 185.36 260.32 185.34 262.6 184.18 264.87 182.88 265.99 182.2 267.15 181.52 269.43 180.07 270.9 179.04 271.71 178.49 273.98 176.83 275.17 175.88 276.26 175.02 278.54 173.06 278.91 172.72 280.81 170.97 282.21 169.57 283.09 168.66 285.13 166.41 285.37 166.13 287.64 163.34" clip-path="url(#cpNTAuOTd8Mjk4LjkxfDM0OS40NXw1LjQ4)" style="stroke-width:1.07;stroke:#36f;stroke-linecap:butt"/><polyline points="108.34 333.81 110.05 332.48 112.14 330.65 112.33 330.48 114.61 328.27 115.34 327.49 116.88 325.8 118.13 324.33 119.16 323.05 120.58 321.18 121.44 319.98 122.77 318.02 123.71 316.54 124.75 314.86 125.99 312.66 126.53 311.7 128.14 308.54 128.27 308.27 129.63 305.38 130.55 303.2 130.96 302.23 132.18 299.07 132.82 297.2 133.28 295.91 134.28 292.75 135.1 289.76 135.15 289.59 135.95 286.43 136.64 283.27 137.22 280.12 137.38 279.07 137.72 276.96 138.13 273.8 138.45 270.64 138.69 267.48 138.84 264.32 138.92 261.16 138.93 258.01 138.88 254.85 138.77 251.69 138.6 248.53 138.39 245.37 138.12 242.21 137.79 239.05 137.4 235.9 137.38 235.72 136.97 232.74 136.45 229.58 135.82 226.42 135.1 223.49 135.04 223.26 134.15 220.1 133.02 216.94 132.82 216.48 131.66 213.79 130.55 211.67 129.96 210.63 128.27 208.04 127.86 207.47 125.99 205.15 125.24 204.31 123.71 202.77 121.89 201.15 121.44 200.78 119.16 199.09 117.42 197.99 116.88 197.67 114.61 196.45 112.33 195.44 110.67 194.83 110.05 194.61 107.78 193.93 105.5 193.4 103.22 193.03 100.95 192.79 98.67 192.68 96.39 192.7 94.12 192.85 91.84 193.11 89.56 193.49 87.29 194 85.01 194.64 84.42 194.83 82.73 195.37 80.46 196.22 78.18 197.22 76.64 197.99 75.9 198.35 73.63 199.6 71.35 201.04 71.19 201.15 69.07 202.6 66.88 204.31 66.8 204.38 64.52 206.32 63.32 207.47 62.24 208.51" clip-path="url(#cpNTAuOTd8Mjk4LjkxfDM0OS40NXw1LjQ4)" style="stroke-width:1.07;stroke:#36f;stroke-linecap:butt"/><polyline points="287.64 66.7 286.97 65.33 285.37 62.39 285.24 62.18 283.26 59.02 283.09 58.76 280.97 55.86 280.81 55.65 278.54 52.97 278.28 52.7 276.26 50.64 275.03 49.54 273.98 48.63 271.71 46.89 270.95 46.38 269.43 45.37 267.15 44.08 265.36 43.22 264.87 42.99 262.6 42.05 260.32 41.29 258.04 40.69 255.77 40.24 254.49 40.07 253.49 39.92 251.21 39.72 248.94 39.65 246.66 39.7 244.38 39.87 242.85 40.07 242.11 40.15 239.83 40.54 237.55 41.04 235.28 41.65 233 42.39 230.8 43.22 230.72 43.25 228.45 44.18 226.17 45.24 224 46.38 223.89 46.44 221.62 47.69 219.34 49.09 218.67 49.54 217.06 50.58 214.79 52.19 214.11 52.7 212.51 53.88 210.23 55.71 210.05 55.86 207.96 57.59 206.36 59.02 205.68 59.62 203.4 61.74 202.95 62.18 201.13 63.97 199.8 65.33 198.85 66.34 196.89 68.49 196.57 68.86 194.29 71.55 194.21 71.65 192.02 74.45 191.75 74.81 189.74 77.63 189.51 77.97 187.49 81.13 187.46 81.17 185.68 84.29 185.19 85.24 184.07 87.44 182.91 90.07 182.68 90.6 181.45 93.76 180.63 96.28 180.42 96.92 179.54 100.08 178.82 103.24 178.36 105.84 178.26 106.4 177.8 109.55 177.47 112.71 177.26 115.87 177.16 119.03 177.15 122.19 177.24 125.35 177.41 128.5 177.67 131.66 178 134.82 178.36 137.49 178.42 137.98 178.9 141.14 179.46 144.3 180.13 147.46 180.63 149.58 180.88 150.61 181.73 153.77 182.72 156.93 182.91 157.48 183.84 160.09 185.16 163.25 185.19 163.32 186.68 166.41 187.46 167.83 188.5 169.57 189.74 171.42 190.7 172.72 192.02 174.34 193.44 175.88 194.29 176.74 196.57 178.73 196.98 179.04 198.85 180.4 201.13 181.79 201.91 182.2 203.4 182.96 205.68 183.93 207.96 184.72 210.23 185.35 210.26 185.36 212.51 185.87 214.79 186.27 217.06 186.54 219.34 186.71 221.62 186.79 223.89 186.77 226.17 186.67 228.45 186.49 230.72 186.22 233 185.88 235.28 185.47 235.79 185.36 237.55 185.01 239.83 184.49 242.11 183.89 244.38 183.22 246.66 182.47 247.39 182.2 248.94 181.67 251.21 180.82 253.49 179.87 255.28 179.04 255.77 178.83 258.04 177.75 260.32 176.55 261.48 175.88 262.6 175.26 264.87 173.88 266.6 172.72 267.15 172.36 269.43 170.74 270.93 169.57 271.71 168.96 273.98 167.02 274.65 166.41 276.26 164.9 277.88 163.25 278.54 162.55 280.69 160.09 280.81 159.95 283.09 157.03 283.16 156.93 285.33 153.77 285.37 153.71 287.24 150.61 287.64 149.86" clip-path="url(#cpNTAuOTd8Mjk4LjkxfDM0OS40NXw1LjQ4)" style="stroke-width:1.07;stroke:#36f;stroke-linecap:butt"/><polyline points="62.24 322.59 64.06 324.33 64.52 324.76 66.8 326.58 68.14 327.49 69.07 328.11 71.35 329.38 73.63 330.4 74.32 330.65 75.9 331.22 78.18 331.82 80.46 332.23 82.73 332.45 85.01 332.48 87.29 332.33 89.56 332.01 91.84 331.5 94.12 330.79 94.49 330.65 96.39 329.92 98.67 328.86 100.95 327.57 101.06 327.49 103.22 326.09 105.5 324.35 105.52 324.33 107.78 322.39 109.03 321.18 110.05 320.14 111.96 318.02 112.33 317.57 114.46 314.86 114.61 314.66 116.65 311.7 116.88 311.32 118.57 308.54 119.16 307.47 120.28 305.38 121.44 302.96 121.79 302.23 123.13 299.07 123.71 297.53 124.33 295.91 125.38 292.75 125.99 290.62 126.29 289.59 127.1 286.43 127.77 283.27 128.27 280.43 128.33 280.12 128.79 276.96 129.14 273.8 129.39 270.64 129.55 267.48 129.6 264.32 129.57 261.16 129.46 258.01 129.26 254.85 128.98 251.69 128.62 248.53 128.27 246.07 128.17 245.37 127.65 242.21 127.03 239.05 126.28 235.9 125.99 234.82 125.42 232.74 124.4 229.58 123.71 227.76 123.19 226.42 121.74 223.26 121.44 222.69 119.98 220.1 119.16 218.84 117.8 216.94 116.88 215.8 115.04 213.79 114.61 213.35 112.33 211.36 111.34 210.63 110.05 209.73 107.78 208.41 105.75 207.47 105.5 207.36 103.22 206.52 100.95 205.91 98.67 205.49 96.39 205.25 94.12 205.17 91.84 205.27 89.56 205.51 87.29 205.92 85.01 206.48 82.73 207.22 82.09 207.47 80.46 208.09 78.18 209.14 75.9 210.39 75.51 210.63 73.63 211.8 71.35 213.44 70.93 213.79 69.07 215.3 67.31 216.94 66.8 217.44 64.52 219.87 64.32 220.1 62.24 222.65" clip-path="url(#cpNTAuOTd8Mjk4LjkxfDM0OS40NXw1LjQ4)" style="stroke-width:1.07;stroke:#36f;stroke-linecap:butt"/><polyline points="287.64 85.4 287.34 84.29 286.36 81.13 285.37 78.38 285.21 77.97 283.9 74.81 283.09 73.07 282.39 71.65 280.81 68.78 280.65 68.49 278.62 65.33 278.54 65.22 276.26 62.21 276.23 62.18 273.98 59.64 273.36 59.02 271.71 57.44 269.8 55.86 269.43 55.56 267.15 53.94 265.08 52.7 264.87 52.58 262.6 51.41 260.32 50.46 258.04 49.71 257.42 49.54 255.77 49.1 253.49 48.65 251.21 48.36 248.94 48.22 246.66 48.21 244.38 48.34 242.11 48.59 239.83 48.99 237.55 49.51 237.43 49.54 235.28 50.13 233 50.88 230.72 51.76 228.61 52.7 228.45 52.77 226.17 53.87 223.89 55.11 222.65 55.86 221.62 56.46 219.34 57.93 217.79 59.02 217.06 59.52 214.79 61.22 213.6 62.18 212.51 63.05 210.23 65.01 209.87 65.33 207.96 67.08 206.5 68.49 205.68 69.3 203.43 71.65 203.4 71.69 201.13 74.24 200.64 74.81 198.85 77.02 198.11 77.97 196.57 80.07 195.83 81.13 194.29 83.48 193.78 84.29 192.02 87.37 191.98 87.44 190.37 90.6 189.74 92.04 188.99 93.76 187.8 96.92 187.46 97.99 186.8 100.08 185.97 103.24 185.31 106.4 185.19 107.15 184.79 109.55 184.42 112.71 184.18 115.87 184.06 119.03 184.07 122.19 184.19 125.35 184.43 128.5 184.77 131.66 185.19 134.59 185.22 134.82 185.77 137.98 186.43 141.14 187.23 144.3 187.46 145.13 188.14 147.46 189.22 150.61 189.74 151.98 190.46 153.77 191.92 156.93 192.02 157.13 193.62 160.09 194.29 161.2 195.65 163.25 196.57 164.5 198.13 166.41 198.85 167.22 201.13 169.48 201.22 169.57 203.4 171.38 205.32 172.72 205.68 172.96 207.96 174.3 210.23 175.4 211.43 175.88 212.51 176.31 214.79 177.06 217.06 177.64 219.34 178.09 221.62 178.4 223.89 178.6 226.17 178.69 228.45 178.67 230.72 178.57 233 178.38 235.28 178.09 237.55 177.73 239.83 177.28 242.11 176.74 244.38 176.11 245.09 175.88 246.66 175.41 248.94 174.64 251.21 173.77 253.49 172.79 253.63 172.72 255.77 171.75 258.04 170.59 259.85 169.57 260.32 169.3 262.6 167.92 264.83 166.41 264.87 166.38 267.15 164.71 268.95 163.25 269.43 162.85 271.71 160.81 272.45 160.09 273.98 158.53 275.44 156.93 276.26 155.98 278.02 153.77 278.54 153.08 280.26 150.61 280.81 149.75 282.21 147.46 283.09 145.83 283.89 144.3 285.33 141.14 285.37 141.06 286.59 137.98 287.64 134.82 287.64 134.8" clip-path="url(#cpNTAuOTd8Mjk4LjkxfDM0OS40NXw1LjQ4)" style="stroke-width:1.07;stroke:#36f;stroke-linecap:butt"/><polyline points="62.24 310.51 63.08 311.7 64.52 313.56 65.67 314.86 66.8 316.04 69.01 318.02 69.07 318.07 71.35 319.71 73.63 321.04 73.93 321.18 75.9 322.07 78.18 322.84 80.46 323.36 82.73 323.64 85.01 323.71 87.29 323.55 89.56 323.17 91.84 322.58 94.12 321.76 95.38 321.18 96.39 320.7 98.67 319.4 100.7 318.02 100.95 317.84 103.22 315.99 104.45 314.86 105.5 313.83 107.44 311.7 107.78 311.3 109.91 308.54 110.05 308.35 112.02 305.38 112.33 304.86 113.83 302.23 114.61 300.69 115.4 299.07 116.75 295.91 116.88 295.57 117.93 292.75 118.94 289.59 119.16 288.76 119.79 286.43 120.51 283.27 121.08 280.12 121.44 277.57 121.53 276.96 121.86 273.8 122.07 270.64 122.17 267.48 122.16 264.32 122.04 261.16 121.82 258.01 121.49 254.85 121.44 254.48 121.06 251.69 120.52 248.53 119.85 245.37 119.16 242.62 119.05 242.21 118.1 239.05 116.97 235.9 116.88 235.69 115.6 232.74 114.61 230.78 113.94 229.58 112.33 227.05 111.88 226.42 110.05 224.15 109.22 223.26 107.78 221.86 105.59 220.1 105.5 220.04 103.22 218.61 100.95 217.51 99.38 216.94 98.67 216.7 96.39 216.14 94.12 215.82 91.84 215.72 89.56 215.83 87.29 216.14 85.01 216.66 84.13 216.94 82.73 217.38 80.46 218.31 78.18 219.47 77.13 220.1 75.9 220.86 73.63 222.51 72.72 223.26 71.35 224.45 69.36 226.42 69.07 226.71 66.8 229.37 66.63 229.58 64.52 232.48 64.35 232.74 62.41 235.9 62.24 236.19" clip-path="url(#cpNTAuOTd8Mjk4LjkxfDM0OS40NXw1LjQ4)" style="stroke-width:1.07;stroke:#36f;stroke-linecap:butt"/><polyline points="246.66 55.64 244.38 55.72 243.04 55.86 242.11 55.95 239.83 56.31 237.55 56.81 235.28 57.45 233 58.23 231.05 59.02 230.72 59.14 228.45 60.17 226.17 61.34 224.72 62.18 223.89 62.64 221.62 64.07 219.78 65.33 219.34 65.64 217.06 67.33 215.62 68.49 214.79 69.17 212.51 71.16 211.98 71.65 210.23 73.31 208.76 74.81 207.96 75.65 205.87 77.97 205.68 78.19 203.4 80.98 203.29 81.13 201.13 84.09 200.99 84.29 198.95 87.44 198.85 87.62 197.16 90.6 196.57 91.78 195.6 93.76 194.29 96.86 194.27 96.92 193.13 100.08 192.2 103.24 192.02 104.02 191.45 106.4 190.86 109.55 190.45 112.71 190.19 115.87 190.07 119.03 190.09 122.19 190.24 125.35 190.53 128.5 190.95 131.66 191.52 134.82 192.02 137.07 192.22 137.98 193.07 141.14 194.09 144.3 194.29 144.85 195.3 147.46 196.57 150.29 196.72 150.61 198.42 153.77 198.85 154.49 200.44 156.93 201.13 157.87 202.92 160.09 203.4 160.64 205.68 162.93 206.03 163.25 207.96 164.85 210.17 166.41 210.23 166.45 212.51 167.79 214.79 168.89 216.5 169.57 217.06 169.79 219.34 170.51 221.62 171.07 223.89 171.48 226.17 171.75 228.45 171.9 230.72 171.93 233 171.86 235.28 171.68 237.55 171.39 239.83 171.01 242.11 170.53 244.38 169.94 245.61 169.57 246.66 169.26 248.94 168.49 251.21 167.6 253.49 166.59 253.87 166.41 255.77 165.49 258.04 164.25 259.68 163.25 260.32 162.86 262.6 161.33 264.25 160.09 264.87 159.62 267.15 157.71 268 156.93 269.43 155.57 271.14 153.77 271.71 153.15 273.81 150.61 273.98 150.39 276.09 147.46 276.26 147.19 278.04 144.3 278.54 143.39 279.71 141.14 280.81 138.71 281.13 137.98 282.34 134.82 283.09 132.46 283.34 131.66 284.17 128.5 284.83 125.35 285.34 122.19 285.37 121.97 285.72 119.03 285.96 115.87 286.08 112.71 286.07 109.55 285.94 106.4 285.7 103.24 285.37 100.4 285.33 100.08 284.85 96.92 284.25 93.76 283.5 90.6 283.09 89.12 282.61 87.44 281.56 84.29 280.81 82.32 280.33 81.13 278.9 77.97 278.54 77.26 277.21 74.81 276.26 73.22 275.23 71.65 273.98 69.91 272.86 68.49 271.71 67.13 269.98 65.33 269.43 64.79 267.15 62.8 266.31 62.18 264.87 61.13 262.6 59.73 261.21 59.02 260.32 58.57 258.04 57.61 255.77 56.87 253.49 56.31 251.21 55.93 250.45 55.86 248.94 55.71 246.66 55.64" clip-path="url(#cpNTAuOTd8Mjk4LjkxfDM0OS40NXw1LjQ4)" style="stroke-width:1.07;stroke:#36f;stroke-linecap:butt"/><polyline points="62.24 295.93 63.56 299.07 64.52 301 65.19 302.23 66.8 304.77 67.23 305.38 69.07 307.66 69.9 308.54 71.35 309.93 73.6 311.7 73.63 311.72 75.9 313.08 78.18 314.09 80.46 314.78 80.91 314.86 82.73 315.17 85.01 315.27 87.29 315.11 88.61 314.86 89.56 314.67 91.84 313.96 94.12 312.96 96.36 311.7 96.39 311.68 98.67 310.05 100.43 308.54 100.95 308.07 103.22 305.68 103.47 305.38 105.5 302.77 105.88 302.23 107.78 299.23 107.88 299.07 109.53 295.91 110.05 294.77 110.93 292.75 112.1 289.59 112.33 288.85 113.07 286.43 113.86 283.27 114.48 280.12 114.61 279.28 114.95 276.96 115.28 273.8 115.46 270.64 115.51 267.48 115.43 264.32 115.22 261.16 114.88 258.01 114.61 256.21 114.4 254.85 113.77 251.69 112.98 248.53 112.33 246.39 112 245.37 110.8 242.21 110.05 240.54 109.32 239.05 107.78 236.36 107.47 235.9 105.5 233.24 105.06 232.74 103.22 230.86 101.68 229.58 100.95 229.03 98.67 227.66 96.39 226.67 95.53 226.42 94.12 226.02 91.84 225.68 89.56 225.62 87.29 225.82 85.01 226.3 84.63 226.42 82.73 227.04 80.46 228.05 78.18 229.36 77.86 229.58 75.9 230.99 73.88 232.74 73.63 232.97 71.35 235.37 70.92 235.9 69.07 238.28 68.54 239.05 66.8 241.82 66.57 242.21 64.93 245.37 64.52 246.26 63.54 248.53 62.37 251.69 62.24 252.07" clip-path="url(#cpNTAuOTd8Mjk4LjkxfDM0OS40NXw1LjQ4)" style="stroke-width:1.07;stroke:#36f;stroke-linecap:butt"/><polyline points="253.49 63.3 251.21 62.8 248.94 62.49 246.66 62.36 244.38 62.39 242.11 62.58 239.83 62.92 237.55 63.42 235.28 64.06 233 64.87 231.87 65.33 230.72 65.81 228.45 66.88 226.17 68.12 225.56 68.49 223.89 69.5 221.62 71.03 220.77 71.65 219.34 72.71 217.06 74.57 216.79 74.81 214.79 76.6 213.37 77.97 212.51 78.84 210.38 81.13 210.23 81.3 207.96 84.04 207.76 84.29 205.68 87.13 205.46 87.44 203.45 90.6 203.4 90.68 201.7 93.76 201.13 94.96 200.2 96.92 198.94 100.08 198.85 100.37 197.9 103.24 197.06 106.4 196.57 108.78 196.41 109.55 195.95 112.71 195.65 115.87 195.53 119.03 195.57 122.19 195.77 125.35 196.13 128.5 196.57 131.2 196.65 131.66 197.33 134.82 198.2 137.98 198.85 139.93 199.27 141.14 200.56 144.3 201.13 145.49 202.12 147.46 203.4 149.66 204.01 150.61 205.68 152.96 206.32 153.77 207.96 155.64 209.23 156.93 210.23 157.86 212.51 159.69 213.09 160.09 214.79 161.21 217.06 162.45 218.84 163.25 219.34 163.47 221.62 164.28 223.89 164.91 226.17 165.37 228.45 165.68 230.72 165.85 233 165.89 235.28 165.81 237.55 165.6 239.83 165.28 242.11 164.85 244.38 164.29 246.66 163.61 247.7 163.25 248.94 162.82 251.21 161.91 253.49 160.85 254.95 160.09 255.77 159.66 258.04 158.31 260.1 156.93 260.32 156.78 262.6 155.05 264.11 153.77 264.87 153.1 267.15 150.88 267.4 150.61 269.43 148.32 270.13 147.46 271.71 145.34 272.43 144.3 273.98 141.79 274.37 141.14 276 137.98 276.26 137.41 277.38 134.82 278.51 131.66 278.54 131.58 279.45 128.5 280.19 125.35 280.76 122.19 280.81 121.76 281.17 119.03 281.43 115.87 281.54 112.71 281.52 109.55 281.35 106.4 281.05 103.24 280.81 101.51 280.61 100.08 280.03 96.92 279.29 93.76 278.54 91.12 278.38 90.6 277.29 87.44 276.26 84.92 275.98 84.29 274.43 81.13 273.98 80.32 272.57 77.97 271.71 76.67 270.33 74.81 269.43 73.69 267.57 71.65 267.15 71.22 264.87 69.17 263.99 68.49 262.6 67.46 260.32 66.06 258.9 65.33 258.04 64.91 255.77 63.99 253.49 63.3" clip-path="url(#cpNTAuOTd8Mjk4LjkxfDM0OS40NXw1LjQ4)" style="stroke-width:1.07;stroke:#36f;stroke-linecap:butt"/><polyline points="89.56 235.73 87.29 235.8 86.75 235.9 85.01 236.23 82.73 237.02 80.46 238.19 79.17 239.05 78.18 239.76 75.9 241.8 75.51 242.21 73.63 244.41 72.92 245.37 71.35 247.73 70.88 248.53 69.25 251.69 69.07 252.09 67.95 254.85 66.88 258.01 66.8 258.29 66.05 261.16 65.41 264.32 64.94 267.48 64.66 270.64 64.55 273.8 64.62 276.96 64.87 280.12 65.32 283.27 65.97 286.43 66.8 289.39 66.86 289.59 68.07 292.75 69.07 294.89 69.62 295.91 71.35 298.63 71.68 299.07 73.63 301.31 74.62 302.23 75.9 303.29 78.18 304.73 79.67 305.38 80.46 305.7 82.73 306.25 85.01 306.44 87.29 306.27 89.56 305.75 90.54 305.38 91.84 304.86 94.12 303.58 95.98 302.23 96.39 301.9 98.67 299.7 99.23 299.07 100.95 296.89 101.63 295.91 103.22 293.29 103.52 292.75 105.02 289.59 105.5 288.37 106.22 286.43 107.16 283.27 107.78 280.66 107.9 280.12 108.42 276.96 108.76 273.8 108.93 270.64 108.92 267.48 108.75 264.32 108.4 261.16 107.88 258.01 107.78 257.54 107.14 254.85 106.17 251.69 105.5 249.9 104.92 248.53 103.32 245.37 103.22 245.21 101.15 242.21 100.95 241.95 98.67 239.61 97.98 239.05 96.39 237.92 94.12 236.76 91.84 236.04 90.81 235.9 89.56 235.73" clip-path="url(#cpNTAuOTd8Mjk4LjkxfDM0OS40NXw1LjQ4)" style="stroke-width:1.07;stroke:#36f;stroke-linecap:butt"/><polyline points="255.77 70.76 253.49 69.91 251.21 69.28 248.94 68.87 246.66 68.65 244.38 68.63 242.11 68.78 239.83 69.1 237.55 69.59 235.28 70.25 233 71.07 231.67 71.65 230.72 72.06 228.45 73.21 226.17 74.52 225.73 74.81 223.89 76.01 221.62 77.68 221.26 77.97 219.34 79.55 217.6 81.13 217.06 81.64 214.79 83.97 214.49 84.29 212.51 86.6 211.83 87.44 210.23 89.6 209.53 90.6 207.96 93.1 207.56 93.76 205.88 96.92 205.68 97.35 204.46 100.08 203.4 102.95 203.3 103.24 202.36 106.4 201.65 109.55 201.14 112.71 201.13 112.84 200.82 115.87 200.7 119.03 200.76 122.19 201.01 125.35 201.13 126.16 201.45 128.5 202.09 131.66 202.93 134.82 203.4 136.24 204.01 137.98 205.35 141.14 205.68 141.81 207.01 144.3 207.96 145.83 209.06 147.46 210.23 148.97 211.66 150.61 212.51 151.5 214.79 153.56 215.06 153.77 217.06 155.23 219.34 156.61 219.98 156.93 221.62 157.71 223.89 158.59 226.17 159.26 228.45 159.75 230.72 160.07 231.07 160.09 233 160.23 235.28 160.24 237.55 160.11 237.71 160.09 239.83 159.84 242.11 159.44 244.38 158.91 246.66 158.23 248.94 157.41 250.06 156.93 251.21 156.44 253.49 155.31 255.77 154 256.12 153.77 258.04 152.49 260.32 150.77 260.5 150.61 262.6 148.77 263.93 147.46 264.87 146.46 266.73 144.3 267.15 143.76 269.04 141.14 269.43 140.52 270.95 137.98 271.71 136.51 272.53 134.82 273.84 131.66 273.98 131.24 274.89 128.5 275.73 125.35 276.26 122.74 276.37 122.19 276.82 119.03 277.1 115.87 277.21 112.71 277.17 109.55 276.96 106.4 276.59 103.24 276.26 101.29 276.05 100.08 275.33 96.92 274.43 93.76 273.98 92.46 273.3 90.6 271.94 87.44 271.71 86.97 270.26 84.29 269.43 82.91 268.22 81.13 267.15 79.71 265.67 77.97 264.87 77.12 262.6 75 262.36 74.81 260.32 73.28 258.04 71.88 257.59 71.65 255.77 70.76" clip-path="url(#cpNTAuOTd8Mjk4LjkxfDM0OS40NXw1LjQ4)" style="stroke-width:1.07;stroke:#36f;stroke-linecap:butt"/><polyline points="91.84 248.29 89.56 247.54 87.29 247.36 85.01 247.73 82.97 248.53 82.73 248.63 80.46 250.2 78.88 251.69 78.18 252.44 76.41 254.85 75.9 255.65 74.68 258.01 73.63 260.47 73.37 261.16 72.46 264.32 71.81 267.48 71.42 270.64 71.35 272.54 71.31 273.8 71.35 274.84 71.45 276.96 71.88 280.12 72.62 283.27 73.63 286.26 73.7 286.43 75.36 289.59 75.9 290.41 77.88 292.75 78.18 293.04 80.46 294.67 82.73 295.66 84.18 295.91 85.01 296.03 86.72 295.91 87.29 295.86 89.56 295.12 91.84 293.84 93.2 292.75 94.12 291.91 96.07 289.59 96.39 289.14 97.99 286.43 98.67 284.99 99.38 283.27 100.38 280.12 100.95 277.64 101.09 276.96 101.48 273.8 101.62 270.64 101.53 267.48 101.18 264.32 100.95 263.11 100.52 261.16 99.53 258.01 98.67 255.93 98.12 254.85 96.39 252.14 96.02 251.69 94.12 249.79 92.25 248.53 91.84 248.29" clip-path="url(#cpNTAuOTd8Mjk4LjkxfDM0OS40NXw1LjQ4)" style="stroke-width:1.07;stroke:#36f;stroke-linecap:butt"/><polyline points="246.66 74.74 244.38 74.65 242.11 74.75 241.69 74.81 239.83 75.06 237.55 75.55 235.28 76.23 233 77.09 231.09 77.97 230.72 78.14 228.45 79.38 226.17 80.82 225.73 81.13 223.89 82.48 221.7 84.29 221.62 84.36 219.34 86.52 218.45 87.44 217.06 88.99 215.72 90.6 214.79 91.85 213.43 93.76 212.51 95.24 211.51 96.92 210.23 99.41 209.91 100.08 208.6 103.24 207.96 105.15 207.55 106.4 206.75 109.55 206.19 112.71 205.86 115.87 205.74 119.03 205.84 122.19 206.16 125.35 206.7 128.5 207.49 131.66 207.96 133.09 208.55 134.82 209.91 137.98 210.23 138.61 211.65 141.14 212.51 142.44 213.88 144.3 214.79 145.38 216.79 147.46 217.06 147.71 219.34 149.56 220.9 150.61 221.62 151.06 223.89 152.24 226.17 153.17 228.13 153.77 228.45 153.87 230.72 154.35 233 154.65 235.28 154.77 237.55 154.72 239.83 154.51 242.11 154.14 243.67 153.77 244.38 153.6 246.66 152.91 248.94 152.04 251.21 150.99 251.91 150.61 253.49 149.73 255.77 148.26 256.86 147.46 258.04 146.53 260.32 144.51 260.54 144.3 262.6 142.09 263.4 141.14 264.87 139.19 265.72 137.98 267.15 135.61 267.6 134.82 269.12 131.66 269.43 130.89 270.34 128.5 271.29 125.35 271.71 123.57 272.02 122.19 272.52 119.03 272.82 115.87 272.93 112.71 272.85 109.55 272.58 106.4 272.13 103.24 271.71 101.2 271.46 100.08 270.57 96.92 269.44 93.76 269.43 93.73 268 90.6 267.15 89.03 266.2 87.44 264.87 85.5 263.93 84.29 262.6 82.75 260.95 81.13 260.32 80.56 258.04 78.82 256.67 77.97 255.77 77.44 253.49 76.38 251.21 75.59 248.94 75.05 247.17 74.81 246.66 74.74" clip-path="url(#cpNTAuOTd8Mjk4LjkxfDM0OS40NXw1LjQ4)" style="stroke-width:1.07;stroke:#36f;stroke-linecap:butt"/><polyline points="87.29 269.51 87.91 270.64 87.84 273.8 87.29 274.79 85.01 274.8 84.51 273.8 84.62 270.64 85.01 269.9 87.29 269.51" clip-path="url(#cpNTAuOTd8Mjk4LjkxfDM0OS40NXw1LjQ4)" style="stroke-width:1.07;stroke:#36f;stroke-linecap:butt"/><polyline points="246.66 80.84 244.38 80.66 242.11 80.72 239.83 80.99 239.21 81.13 237.55 81.49 235.28 82.21 233 83.14 230.72 84.28 230.72 84.29 228.45 85.69 226.17 87.31 226.01 87.44 223.89 89.25 222.49 90.6 221.62 91.51 219.66 93.76 219.34 94.17 217.37 96.92 217.06 97.41 215.5 100.08 214.79 101.53 213.99 103.24 212.8 106.4 212.51 107.4 211.91 109.55 211.29 112.71 210.93 115.87 210.83 119.03 210.98 122.19 211.4 125.35 212.09 128.5 212.51 129.85 213.11 131.66 214.47 134.82 214.79 135.41 216.3 137.98 217.06 139.06 218.73 141.14 219.34 141.79 221.62 143.9 222.13 144.3 223.89 145.53 226.17 146.8 227.65 147.46 228.45 147.78 230.72 148.47 233 148.93 235.28 149.18 237.55 149.22 239.83 149.07 242.11 148.73 244.38 148.19 246.66 147.46 246.68 147.46 248.94 146.5 251.21 145.32 252.88 144.3 253.49 143.9 255.77 142.16 256.93 141.14 258.04 140.07 259.95 137.98 260.32 137.53 262.3 134.82 262.6 134.34 264.13 131.66 264.87 130.11 265.58 128.5 266.71 125.35 267.15 123.7 267.54 122.19 268.11 119.03 268.44 115.87 268.54 112.71 268.42 109.55 268.07 106.4 267.49 103.24 267.15 101.94 266.63 100.08 265.49 96.92 264.87 95.55 263.98 93.76 262.6 91.44 262.03 90.6 260.32 88.43 259.4 87.44 258.04 86.13 255.77 84.34 255.68 84.29 253.49 82.99 251.21 81.98 248.94 81.27 248.21 81.13 246.66 80.84" clip-path="url(#cpNTAuOTd8Mjk4LjkxfDM0OS40NXw1LjQ4)" style="stroke-width:1.07;stroke:#36f;stroke-linecap:butt"/><polyline points="246.66 87.24 244.38 86.94 242.11 86.93 239.83 87.18 238.66 87.44 237.55 87.7 235.28 88.5 233 89.54 231.15 90.6 230.72 90.86 228.45 92.53 227 93.76 226.17 94.54 223.94 96.92 223.89 96.97 221.62 100.05 221.59 100.08 219.78 103.24 219.34 104.18 218.38 106.4 217.33 109.55 217.06 110.74 216.64 112.71 216.25 115.87 216.18 119.03 216.42 122.19 216.98 125.35 217.06 125.62 217.94 128.5 219.31 131.66 219.34 131.72 221.27 134.82 221.62 135.27 223.89 137.82 224.07 137.98 226.17 139.67 228.45 141.1 228.52 141.14 230.72 142.1 233 142.79 235.28 143.22 237.55 143.38 239.83 143.29 242.11 142.97 244.38 142.4 246.66 141.6 247.66 141.14 248.94 140.51 251.21 139.1 252.73 137.98 253.49 137.36 255.77 135.16 256.08 134.82 258.04 132.32 258.5 131.66 260.32 128.56 260.35 128.5 261.71 125.35 262.6 122.59 262.72 122.19 263.38 119.03 263.75 115.87 263.84 112.71 263.65 109.55 263.18 106.4 262.6 104.01 262.39 103.24 261.22 100.08 260.32 98.22 259.6 96.92 258.04 94.61 257.36 93.76 255.77 92.07 254.06 90.6 253.49 90.17 251.21 88.82 248.94 87.85 247.47 87.44 246.66 87.24" clip-path="url(#cpNTAuOTd8Mjk4LjkxfDM0OS40NXw1LjQ4)" style="stroke-width:1.07;stroke:#36f;stroke-linecap:butt"/><polyline points="251.21 96.88 248.94 95.46 246.66 94.51 244.38 93.99 242.11 93.86 239.83 94.1 237.55 94.7 235.28 95.62 233 96.88 232.95 96.92 230.72 98.66 229.21 100.08 228.45 100.92 226.63 103.24 226.17 103.96 224.79 106.4 223.89 108.5 223.48 109.55 222.65 112.71 222.23 115.87 222.21 119.03 222.62 122.19 223.5 125.35 223.89 126.28 224.98 128.5 226.17 130.27 227.3 131.66 228.45 132.78 230.72 134.51 231.28 134.82 233 135.64 235.28 136.34 237.55 136.69 239.83 136.71 242.11 136.4 244.38 135.77 246.66 134.83 246.67 134.82 248.94 133.39 251.11 131.66 251.21 131.57 253.49 129 253.86 128.5 255.77 125.38 255.79 125.35 257.07 122.19 257.95 119.03 258.04 118.37 258.38 115.87 258.44 112.71 258.14 109.55 258.04 109.12 257.38 106.4 256.17 103.24 255.77 102.48 254.26 100.08 253.49 99.12 251.26 96.92 251.21 96.88" clip-path="url(#cpNTAuOTd8Mjk4LjkxfDM0OS40NXw1LjQ4)" style="stroke-width:1.07;stroke:#36f;stroke-linecap:butt"/><polyline points="242.11 103 239.83 103.17 239.62 103.24 237.55 104.02 235.28 105.48 234.26 106.4 233 107.9 231.9 109.55 230.72 112.29 230.57 112.71 230.07 115.87 230.24 119.03 230.72 120.8 231.22 122.19 233 124.88 233.44 125.35 235.28 126.67 237.55 127.61 239.83 127.89 242.11 127.56 244.38 126.64 246.37 125.35 246.66 125.09 248.94 122.36 249.05 122.19 250.43 119.03 251.11 115.87 251.07 112.71 250.27 109.55 248.94 106.97 248.52 106.4 246.66 104.67 244.38 103.42 243.54 103.24 242.11 103" clip-path="url(#cpNTAuOTd8Mjk4LjkxfDM0OS40NXw1LjQ4)" style="stroke-width:1.07;stroke:#36f;stroke-linecap:butt"/><defs><clipPath id="cpMC4wMHw1MDQuMDB8Mzc4LjAwfDAuMDA="><rect width="504" height="378" x="0" y="0"/></clipPath></defs><g clip-path="url(#cpMC4wMHw1MDQuMDB8Mzc4LjAwfDAuMDA=)"><text x="35.36" y="295.95" lengthAdjust="spacingAndGlyphs" textLength="10.68" style="font-size:9.6px;fill:#4d4d4d;font-family:Arial">50</text></g><g clip-path="url(#cpMC4wMHw1MDQuMDB8Mzc4LjAwfDAuMDA=)"><text x="35.36" y="236.95" lengthAdjust="spacingAndGlyphs" textLength="10.68" style="font-size:9.6px;fill:#4d4d4d;font-family:Arial">60</text></g><g clip-path="url(#cpMC4wMHw1MDQuMDB8Mzc4LjAwfDAuMDA=)"><text x="35.36" y="177.95" lengthAdjust="spacingAndGlyphs" textLength="10.68" style="font-size:9.6px;fill:#4d4d4d;font-family:Arial">70</text></g><g clip-path="url(#cpMC4wMHw1MDQuMDB8Mzc4LjAwfDAuMDA=)"><text x="35.36" y="118.95" lengthAdjust="spacingAndGlyphs" textLength="10.68" style="font-size:9.6px;fill:#4d4d4d;font-family:Arial">80</text></g><g clip-path="url(#cpMC4wMHw1MDQuMDB8Mzc4LjAwfDAuMDA=)"><text x="35.36" y="59.95" lengthAdjust="spacingAndGlyphs" textLength="10.68" style="font-size:9.6px;fill:#4d4d4d;font-family:Arial">90</text></g><polyline points="48.23 292.51 50.97 292.51" clip-path="url(#cpMC4wMHw1MDQuMDB8Mzc4LjAwfDAuMDA=)" style="stroke-width:1.07;stroke:#333;stroke-linecap:butt"/><polyline points="48.23 233.51 50.97 233.51" clip-path="url(#cpMC4wMHw1MDQuMDB8Mzc4LjAwfDAuMDA=)" style="stroke-width:1.07;stroke:#333;stroke-linecap:butt"/><polyline points="48.23 174.51 50.97 174.51" clip-path="url(#cpMC4wMHw1MDQuMDB8Mzc4LjAwfDAuMDA=)" style="stroke-width:1.07;stroke:#333;stroke-linecap:butt"/><polyline points="48.23 115.51 50.97 115.51" clip-path="url(#cpMC4wMHw1MDQuMDB8Mzc4LjAwfDAuMDA=)" style="stroke-width:1.07;stroke:#333;stroke-linecap:butt"/><polyline points="48.23 56.51 50.97 56.51" clip-path="url(#cpMC4wMHw1MDQuMDB8Mzc4LjAwfDAuMDA=)" style="stroke-width:1.07;stroke:#333;stroke-linecap:butt"/><polyline points="88 352.19 88 349.45" clip-path="url(#cpMC4wMHw1MDQuMDB8Mzc4LjAwfDAuMDA=)" style="stroke-width:1.07;stroke:#333;stroke-linecap:butt"/><polyline points="152.4 352.19 152.4 349.45" clip-path="url(#cpMC4wMHw1MDQuMDB8Mzc4LjAwfDAuMDA=)" style="stroke-width:1.07;stroke:#333;stroke-linecap:butt"/><polyline points="216.8 352.19 216.8 349.45" clip-path="url(#cpMC4wMHw1MDQuMDB8Mzc4LjAwfDAuMDA=)" style="stroke-width:1.07;stroke:#333;stroke-linecap:butt"/><polyline points="281.2 352.19 281.2 349.45" clip-path="url(#cpMC4wMHw1MDQuMDB8Mzc4LjAwfDAuMDA=)" style="stroke-width:1.07;stroke:#333;stroke-linecap:butt"/><g clip-path="url(#cpMC4wMHw1MDQuMDB8Mzc4LjAwfDAuMDA=)"><text x="85.33" y="361.25" lengthAdjust="spacingAndGlyphs" textLength="5.34" style="font-size:9.6px;fill:#4d4d4d;font-family:Arial">2</text></g><g clip-path="url(#cpMC4wMHw1MDQuMDB8Mzc4LjAwfDAuMDA=)"><text x="149.73" y="361.25" lengthAdjust="spacingAndGlyphs" textLength="5.34" style="font-size:9.6px;fill:#4d4d4d;font-family:Arial">3</text></g><g clip-path="url(#cpMC4wMHw1MDQuMDB8Mzc4LjAwfDAuMDA=)"><text x="214.13" y="361.25" lengthAdjust="spacingAndGlyphs" textLength="5.34" style="font-size:9.6px;fill:#4d4d4d;font-family:Arial">4</text></g><g clip-path="url(#cpMC4wMHw1MDQuMDB8Mzc4LjAwfDAuMDA=)"><text x="278.53" y="361.25" lengthAdjust="spacingAndGlyphs" textLength="5.34" style="font-size:9.6px;fill:#4d4d4d;font-family:Arial">5</text></g><g clip-path="url(#cpMC4wMHw1MDQuMDB8Mzc4LjAwfDAuMDA=)"><text x="259.42" y="371.42" lengthAdjust="spacingAndGlyphs" textLength="39.49" style="font-size:9.6px;fill:#4d4d4d;font-family:Arial">eruptions</text></g><g clip-path="url(#cpMC4wMHw1MDQuMDB8Mzc4LjAwfDAuMDA=)"><text x="5.48" y="12.35" lengthAdjust="spacingAndGlyphs" textLength="29.88" style="font-size:9.6px;fill:#4d4d4d;font-family:Arial">waiting</text></g><rect width="188.65" height="67.06" x="309.87" y="143.93" clip-path="url(#cpMC4wMHw1MDQuMDB8Mzc4LjAwfDAuMDA=)" style="stroke-width:1.07;stroke:none"/><g clip-path="url(#cpMC4wMHw1MDQuMDB8Mzc4LjAwfDAuMDA=)"><text x="315.35" y="161.82" lengthAdjust="spacingAndGlyphs" textLength="178.39" style="font-size:15px;fill:#4d4d4d;font-family:Arial">factor(mix_waiting$cluster)</text></g><rect width="17.28" height="17.28" x="315.35" y="170.95" clip-path="url(#cpMC4wMHw1MDQuMDB8Mzc4LjAwfDAuMDA=)" style="stroke-width:1.07;stroke:none"/><circle cx="323.99" cy="179.59" r="1.95" clip-path="url(#cpMC4wMHw1MDQuMDB8Mzc4LjAwfDAuMDA=)" style="stroke-width:.71;stroke:#f8766d;fill:#f8766d"/><line x1="317.08" x2="330.9" y1="179.59" y2="179.59" clip-path="url(#cpMC4wMHw1MDQuMDB8Mzc4LjAwfDAuMDA=)" style="stroke-width:1.07;stroke:#f8766d;stroke-linecap:butt"/><rect width="17.28" height="17.28" x="315.35" y="188.23" clip-path="url(#cpMC4wMHw1MDQuMDB8Mzc4LjAwfDAuMDA=)" style="stroke-width:1.07;stroke:none"/><circle cx="323.99" cy="196.87" r="1.95" clip-path="url(#cpMC4wMHw1MDQuMDB8Mzc4LjAwfDAuMDA=)" style="stroke-width:.71;stroke:#00bfc4;fill:#00bfc4"/><line x1="317.08" x2="330.9" y1="196.87" y2="196.87" clip-path="url(#cpMC4wMHw1MDQuMDB8Mzc4LjAwfDAuMDA=)" style="stroke-width:1.07;stroke:#00bfc4;stroke-linecap:butt"/><g clip-path="url(#cpMC4wMHw1MDQuMDB8Mzc4LjAwfDAuMDA=)"><text x="340.1" y="183.03" lengthAdjust="spacingAndGlyphs" textLength="5.34" style="font-size:9.6px;fill:#4d4d4d;font-family:Arial">1</text></g><g clip-path="url(#cpMC4wMHw1MDQuMDB8Mzc4LjAwfDAuMDA=)"><text x="340.1" y="200.31" lengthAdjust="spacingAndGlyphs" textLength="5.34" style="font-size:9.6px;fill:#4d4d4d;font-family:Arial">2</text></g></svg>