<svg xmlns="http://www.w3.org/2000/svg" xmlns:xlink="http://www.w3.org/1999/xlink" viewBox="0 0 504 378"><defs><style type="text/css">circle,line,polyline,rect{fill:none;stroke:#000;stroke-linecap:round;stroke-linejoin:round;stroke-miterlimit:10}</style></defs><rect width="100%" height="100%" style="stroke:none;fill:none"/><defs><clipPath id="cpMzMuMjN8MzQ2LjMwfDM0Ni4yOHw1LjQ4"><rect width="313.06" height="340.8" x="33.23" y="5.48"/></clipPath></defs><polyline points="33.23 319.09 346.3 319.09" clip-path="url(#cpMzMuMjN8MzQ2LjMwfDM0Ni4yOHw1LjQ4)" style="stroke-width:.53;stroke:#ebebeb;stroke-linecap:butt"/><polyline points="33.23 260.64 346.3 260.64" clip-path="url(#cpMzMuMjN8MzQ2LjMwfDM0Ni4yOHw1LjQ4)" style="stroke-width:.53;stroke:#ebebeb;stroke-linecap:butt"/><polyline points="33.23 202.18 346.3 202.18" clip-path="url(#cpMzMuMjN8MzQ2LjMwfDM0Ni4yOHw1LjQ4)" style="stroke-width:.53;stroke:#ebebeb;stroke-linecap:butt"/><polyline points="33.23 143.73 346.3 143.73" clip-path="url(#cpMzMuMjN8MzQ2LjMwfDM0Ni4yOHw1LjQ4)" style="stroke-width:.53;stroke:#ebebeb;stroke-linecap:butt"/><polyline points="33.23 85.27 346.3 85.27" clip-path="url(#cpMzMuMjN8MzQ2LjMwfDM0Ni4yOHw1LjQ4)" style="stroke-width:.53;stroke:#ebebeb;stroke-linecap:butt"/><polyline points="33.23 26.82 346.3 26.82" clip-path="url(#cpMzMuMjN8MzQ2LjMwfDM0Ni4yOHw1LjQ4)" style="stroke-width:.53;stroke:#ebebeb;stroke-linecap:butt"/><polyline points="39.33 346.28 39.33 5.48" clip-path="url(#cpMzMuMjN8MzQ2LjMwfDM0Ni4yOHw1LjQ4)" style="stroke-width:.53;stroke:#ebebeb;stroke-linecap:butt"/><polyline points="120.65 346.28 120.65 5.48" clip-path="url(#cpMzMuMjN8MzQ2LjMwfDM0Ni4yOHw1LjQ4)" style="stroke-width:.53;stroke:#ebebeb;stroke-linecap:butt"/><polyline points="201.96 346.28 201.96 5.48" clip-path="url(#cpMzMuMjN8MzQ2LjMwfDM0Ni4yOHw1LjQ4)" style="stroke-width:.53;stroke:#ebebeb;stroke-linecap:butt"/><polyline points="283.28 346.28 283.28 5.48" clip-path="url(#cpMzMuMjN8MzQ2LjMwfDM0Ni4yOHw1LjQ4)" style="stroke-width:.53;stroke:#ebebeb;stroke-linecap:butt"/><polyline points="33.23 289.87 346.3 289.87" clip-path="url(#cpMzMuMjN8MzQ2LjMwfDM0Ni4yOHw1LjQ4)" style="stroke-width:1.07;stroke:#ebebeb;stroke-linecap:butt"/><polyline points="33.23 231.41 346.3 231.41" clip-path="url(#cpMzMuMjN8MzQ2LjMwfDM0Ni4yOHw1LjQ4)" style="stroke-width:1.07;stroke:#ebebeb;stroke-linecap:butt"/><polyline points="33.23 172.95 346.3 172.95" clip-path="url(#cpMzMuMjN8MzQ2LjMwfDM0Ni4yOHw1LjQ4)" style="stroke-width:1.07;stroke:#ebebeb;stroke-linecap:butt"/><polyline points="33.23 114.5 346.3 114.5" clip-path="url(#cpMzMuMjN8MzQ2LjMwfDM0Ni4yOHw1LjQ4)" style="stroke-width:1.07;stroke:#ebebeb;stroke-linecap:butt"/><polyline points="33.23 56.04 346.3 56.04" clip-path="url(#cpMzMuMjN8MzQ2LjMwfDM0Ni4yOHw1LjQ4)" style="stroke-width:1.07;stroke:#ebebeb;stroke-linecap:butt"/><polyline points="79.99 346.28 79.99 5.48" clip-path="url(#cpMzMuMjN8MzQ2LjMwfDM0Ni4yOHw1LjQ4)" style="stroke-width:1.07;stroke:#ebebeb;stroke-linecap:butt"/><polyline points="161.3 346.28 161.3 5.48" clip-path="url(#cpMzMuMjN8MzQ2LjMwfDM0Ni4yOHw1LjQ4)" style="stroke-width:1.07;stroke:#ebebeb;stroke-linecap:butt"/><polyline points="242.62 346.28 242.62 5.48" clip-path="url(#cpMzMuMjN8MzQ2LjMwfDM0Ni4yOHw1LjQ4)" style="stroke-width:1.07;stroke:#ebebeb;stroke-linecap:butt"/><polyline points="323.94 346.28 323.94 5.48" clip-path="url(#cpMzMuMjN8MzQ2LjMwfDM0Ni4yOHw1LjQ4)" style="stroke-width:1.07;stroke:#ebebeb;stroke-linecap:butt"/><circle cx="210.09" cy="120.34" r="1.95" clip-path="url(#cpMzMuMjN8MzQ2LjMwfDM0Ni4yOHw1LjQ4)" style="stroke-width:.71;stroke:#00bfc4;fill:#00bfc4"/><circle cx="63.73" cy="266.48" r="1.95" clip-path="url(#cpMzMuMjN8MzQ2LjMwfDM0Ni4yOHw1LjQ4)" style="stroke-width:.71;stroke:#f8766d;fill:#f8766d"/><circle cx="188.38" cy="149.57" r="1.95" clip-path="url(#cpMzMuMjN8MzQ2LjMwfDM0Ni4yOHw1LjQ4)" style="stroke-width:.71;stroke:#00bfc4;fill:#00bfc4"/><circle cx="103" cy="219.72" r="1.95" clip-path="url(#cpMzMuMjN8MzQ2LjMwfDM0Ni4yOHw1LjQ4)" style="stroke-width:.71;stroke:#f8766d;fill:#f8766d"/><circle cx="285.96" cy="85.27" r="1.95" clip-path="url(#cpMzMuMjN8MzQ2LjMwfDM0Ni4yOHw1LjQ4)" style="stroke-width:.71;stroke:#00bfc4;fill:#00bfc4"/><circle cx="151.79" cy="260.64" r="1.95" clip-path="url(#cpMzMuMjN8MzQ2LjMwfDM0Ni4yOHw1LjQ4)" style="stroke-width:.71;stroke:#f8766d;fill:#f8766d"/><circle cx="299.54" cy="67.73" r="1.95" clip-path="url(#cpMzMuMjN8MzQ2LjMwfDM0Ni4yOHw1LjQ4)" style="stroke-width:.71;stroke:#00bfc4;fill:#00bfc4"/><circle cx="210.09" cy="85.27" r="1.95" clip-path="url(#cpMzMuMjN8MzQ2LjMwfDM0Ni4yOHw1LjQ4)" style="stroke-width:.71;stroke:#00bfc4;fill:#00bfc4"/><circle cx="75.92" cy="284.02" r="1.95" clip-path="url(#cpMzMuMjN8MzQ2LjMwfDM0Ni4yOHw1LjQ4)" style="stroke-width:.71;stroke:#f8766d;fill:#f8766d"/><circle cx="271.08" cy="85.27" r="1.95" clip-path="url(#cpMzMuMjN8MzQ2LjMwfDM0Ni4yOHw1LjQ4)" style="stroke-width:.71;stroke:#00bfc4;fill:#00bfc4"/><circle cx="66.41" cy="266.48" r="1.95" clip-path="url(#cpMzMuMjN8MzQ2LjMwfDM0Ni4yOHw1LjQ4)" style="stroke-width:.71;stroke:#f8766d;fill:#f8766d"/><circle cx="235.87" cy="91.12" r="1.95" clip-path="url(#cpMzMuMjN8MzQ2LjMwfDM0Ni4yOHw1LjQ4)" style="stroke-width:.71;stroke:#00bfc4;fill:#00bfc4"/><circle cx="258.88" cy="126.19" r="1.95" clip-path="url(#cpMzMuMjN8MzQ2LjMwfDM0Ni4yOHw1LjQ4)" style="stroke-width:.71;stroke:#00bfc4;fill:#00bfc4"/><circle cx="59.66" cy="307.4" r="1.95" clip-path="url(#cpMzMuMjN8MzQ2LjMwfDM0Ni4yOHw1LjQ4)" style="stroke-width:.71;stroke:#f8766d;fill:#f8766d"/><circle cx="299.54" cy="96.96" r="1.95" clip-path="url(#cpMzMuMjN8MzQ2LjMwfDM0Ni4yOHw1LjQ4)" style="stroke-width:.71;stroke:#00bfc4;fill:#00bfc4"/><circle cx="93.57" cy="278.18" r="1.95" clip-path="url(#cpMzMuMjN8MzQ2LjMwfDM0Ni4yOHw1LjQ4)" style="stroke-width:.71;stroke:#f8766d;fill:#f8766d"/><circle cx="59.66" cy="219.72" r="1.95" clip-path="url(#cpMzMuMjN8MzQ2LjMwfDM0Ni4yOHw1LjQ4)" style="stroke-width:.71;stroke:#f8766d;fill:#f8766d"/><circle cx="307.67" cy="91.12" r="1.95" clip-path="url(#cpMzMuMjN8MzQ2LjMwfDM0Ni4yOHw1LjQ4)" style="stroke-width:.71;stroke:#00bfc4;fill:#00bfc4"/><circle cx="47.46" cy="278.18" r="1.95" clip-path="url(#cpMzMuMjN8MzQ2LjMwfDM0Ni4yOHw1LjQ4)" style="stroke-width:.71;stroke:#f8766d;fill:#f8766d"/><circle cx="262.95" cy="120.34" r="1.95" clip-path="url(#cpMzMuMjN8MzQ2LjMwfDM0Ni4yOHw1LjQ4)" style="stroke-width:.71;stroke:#00bfc4;fill:#00bfc4"/><circle cx="63.73" cy="284.02" r="1.95" clip-path="url(#cpMzMuMjN8MzQ2LjMwfDM0Ni4yOHw1LjQ4)" style="stroke-width:.71;stroke:#f8766d;fill:#f8766d"/><circle cx="59.66" cy="307.4" r="1.95" clip-path="url(#cpMzMuMjN8MzQ2LjMwfDM0Ni4yOHw1LjQ4)" style="stroke-width:.71;stroke:#f8766d;fill:#f8766d"/><circle cx="197.9" cy="126.19" r="1.95" clip-path="url(#cpMzMuMjN8MzQ2LjMwfDM0Ni4yOHw1LjQ4)" style="stroke-width:.71;stroke:#00bfc4;fill:#00bfc4"/><circle cx="166.75" cy="178.8" r="1.95" clip-path="url(#cpMzMuMjN8MzQ2LjMwfDM0Ni4yOHw1LjQ4)" style="stroke-width:.71;stroke:#00bfc4;fill:#00bfc4"/><circle cx="285.96" cy="149.57" r="1.95" clip-path="url(#cpMzMuMjN8MzQ2LjMwfDM0Ni4yOHw1LjQ4)" style="stroke-width:.71;stroke:#00bfc4;fill:#00bfc4"/><circle cx="210.09" cy="96.96" r="1.95" clip-path="url(#cpMzMuMjN8MzQ2LjMwfDM0Ni4yOHw1LjQ4)" style="stroke-width:.71;stroke:#00bfc4;fill:#00bfc4"/><circle cx="77.31" cy="260.64" r="1.95" clip-path="url(#cpMzMuMjN8MzQ2LjMwfDM0Ni4yOHw1LjQ4)" style="stroke-width:.71;stroke:#f8766d;fill:#f8766d"/><circle cx="249.37" cy="137.88" r="1.95" clip-path="url(#cpMzMuMjN8MzQ2LjMwfDM0Ni4yOHw1LjQ4)" style="stroke-width:.71;stroke:#00bfc4;fill:#00bfc4"/><circle cx="230.42" cy="126.19" r="1.95" clip-path="url(#cpMzMuMjN8MzQ2LjMwfDM0Ni4yOHw1LjQ4)" style="stroke-width:.71;stroke:#00bfc4;fill:#00bfc4"/><circle cx="277.83" cy="120.34" r="1.95" clip-path="url(#cpMzMuMjN8MzQ2LjMwfDM0Ni4yOHw1LjQ4)" style="stroke-width:.71;stroke:#00bfc4;fill:#00bfc4"/><circle cx="267.01" cy="155.42" r="1.95" clip-path="url(#cpMzMuMjN8MzQ2LjMwfDM0Ni4yOHw1LjQ4)" style="stroke-width:.71;stroke:#00bfc4;fill:#00bfc4"/><circle cx="280.59" cy="132.04" r="1.95" clip-path="url(#cpMzMuMjN8MzQ2LjMwfDM0Ni4yOHw1LjQ4)" style="stroke-width:.71;stroke:#00bfc4;fill:#00bfc4"/><circle cx="191.15" cy="196.34" r="1.95" clip-path="url(#cpMzMuMjN8MzQ2LjMwfDM0Ni4yOHw1LjQ4)" style="stroke-width:.71;stroke:#f8766d;fill:#f8766d"/><circle cx="245.3" cy="114.5" r="1.95" clip-path="url(#cpMzMuMjN8MzQ2LjMwfDM0Ni4yOHw1LjQ4)" style="stroke-width:.71;stroke:#00bfc4;fill:#00bfc4"/><circle cx="229.04" cy="149.57" r="1.95" clip-path="url(#cpMzMuMjN8MzQ2LjMwfDM0Ni4yOHw1LjQ4)" style="stroke-width:.71;stroke:#00bfc4;fill:#00bfc4"/><circle cx="81.37" cy="278.18" r="1.95" clip-path="url(#cpMzMuMjN8MzQ2LjMwfDM0Ni4yOHw1LjQ4)" style="stroke-width:.71;stroke:#f8766d;fill:#f8766d"/><circle cx="69.17" cy="301.56" r="1.95" clip-path="url(#cpMzMuMjN8MzQ2LjMwfDM0Ni4yOHw1LjQ4)" style="stroke-width:.71;stroke:#f8766d;fill:#f8766d"/><circle cx="310.36" cy="114.5" r="1.95" clip-path="url(#cpMzMuMjN8MzQ2LjMwfDM0Ni4yOHw1LjQ4)" style="stroke-width:.71;stroke:#00bfc4;fill:#00bfc4"/><circle cx="66.41" cy="237.26" r="1.95" clip-path="url(#cpMzMuMjN8MzQ2LjMwfDM0Ni4yOHw1LjQ4)" style="stroke-width:.71;stroke:#f8766d;fill:#f8766d"/><circle cx="306.29" cy="56.04" r="1.95" clip-path="url(#cpMzMuMjN8MzQ2LjMwfDM0Ni4yOHw1LjQ4)" style="stroke-width:.71;stroke:#00bfc4;fill:#00bfc4"/><circle cx="271.08" cy="114.5" r="1.95" clip-path="url(#cpMzMuMjN8MzQ2LjMwfDM0Ni4yOHw1LjQ4)" style="stroke-width:.71;stroke:#00bfc4;fill:#00bfc4"/><circle cx="70.48" cy="243.1" r="1.95" clip-path="url(#cpMzMuMjN8MzQ2LjMwfDM0Ni4yOHw1LjQ4)" style="stroke-width:.71;stroke:#f8766d;fill:#f8766d"/><circle cx="288.73" cy="91.12" r="1.95" clip-path="url(#cpMzMuMjN8MzQ2LjMwfDM0Ni4yOHw1LjQ4)" style="stroke-width:.71;stroke:#00bfc4;fill:#00bfc4"/><circle cx="59.66" cy="243.1" r="1.95" clip-path="url(#cpMzMuMjN8MzQ2LjMwfDM0Ni4yOHw1LjQ4)" style="stroke-width:.71;stroke:#f8766d;fill:#f8766d"/><circle cx="285.96" cy="155.42" r="1.95" clip-path="url(#cpMzMuMjN8MzQ2LjMwfDM0Ni4yOHw1LjQ4)" style="stroke-width:.71;stroke:#00bfc4;fill:#00bfc4"/><circle cx="187.08" cy="96.96" r="1.95" clip-path="url(#cpMzMuMjN8MzQ2LjMwfDM0Ni4yOHw1LjQ4)" style="stroke-width:.71;stroke:#00bfc4;fill:#00bfc4"/><circle cx="229.04" cy="208.03" r="1.95" clip-path="url(#cpMzMuMjN8MzQ2LjMwfDM0Ni4yOHw1LjQ4)" style="stroke-width:.71;stroke:#f8766d;fill:#f8766d"/><circle cx="88.12" cy="272.33" r="1.95" clip-path="url(#cpMzMuMjN8MzQ2LjMwfDM0Ni4yOHw1LjQ4)" style="stroke-width:.71;stroke:#f8766d;fill:#f8766d"/><circle cx="294.09" cy="102.81" r="1.95" clip-path="url(#cpMzMuMjN8MzQ2LjMwfDM0Ni4yOHw1LjQ4)" style="stroke-width:.71;stroke:#00bfc4;fill:#00bfc4"/><circle cx="79.99" cy="237.26" r="1.95" clip-path="url(#cpMzMuMjN8MzQ2LjMwfDM0Ni4yOHw1LjQ4)" style="stroke-width:.71;stroke:#f8766d;fill:#f8766d"/><circle cx="307.67" cy="143.73" r="1.95" clip-path="url(#cpMzMuMjN8MzQ2LjMwfDM0Ni4yOHw1LjQ4)" style="stroke-width:.71;stroke:#00bfc4;fill:#00bfc4"/><circle cx="300.84" cy="56.04" r="1.95" clip-path="url(#cpMzMuMjN8MzQ2LjMwfDM0Ni4yOHw1LjQ4)" style="stroke-width:.71;stroke:#00bfc4;fill:#00bfc4"/><circle cx="66.41" cy="266.48" r="1.95" clip-path="url(#cpMzMuMjN8MzQ2LjMwfDM0Ni4yOHw1LjQ4)" style="stroke-width:.71;stroke:#f8766d;fill:#f8766d"/><circle cx="310.36" cy="114.5" r="1.95" clip-path="url(#cpMzMuMjN8MzQ2LjMwfDM0Ni4yOHw1LjQ4)" style="stroke-width:.71;stroke:#00bfc4;fill:#00bfc4"/><circle cx="58.28" cy="266.48" r="1.95" clip-path="url(#cpMzMuMjN8MzQ2LjMwfDM0Ni4yOHw1LjQ4)" style="stroke-width:.71;stroke:#f8766d;fill:#f8766d"/><circle cx="314.42" cy="96.96" r="1.95" clip-path="url(#cpMzMuMjN8MzQ2LjMwfDM0Ni4yOHw1LjQ4)" style="stroke-width:.71;stroke:#00bfc4;fill:#00bfc4"/><circle cx="219.61" cy="167.11" r="1.95" clip-path="url(#cpMzMuMjN8MzQ2LjMwfDM0Ni4yOHw1LjQ4)" style="stroke-width:.71;stroke:#00bfc4;fill:#00bfc4"/><circle cx="52.91" cy="208.03" r="1.95" clip-path="url(#cpMzMuMjN8MzQ2LjMwfDM0Ni4yOHw1LjQ4)" style="stroke-width:.71;stroke:#f8766d;fill:#f8766d"/><circle cx="288.73" cy="132.04" r="1.95" clip-path="url(#cpMzMuMjN8MzQ2LjMwfDM0Ni4yOHw1LjQ4)" style="stroke-width:.71;stroke:#00bfc4;fill:#00bfc4"/><circle cx="268.4" cy="108.65" r="1.95" clip-path="url(#cpMzMuMjN8MzQ2LjMwfDM0Ni4yOHw1LjQ4)" style="stroke-width:.71;stroke:#00bfc4;fill:#00bfc4"/><circle cx="98.94" cy="237.26" r="1.95" clip-path="url(#cpMzMuMjN8MzQ2LjMwfDM0Ni4yOHw1LjQ4)" style="stroke-width:.71;stroke:#f8766d;fill:#f8766d"/><circle cx="283.28" cy="91.12" r="1.95" clip-path="url(#cpMzMuMjN8MzQ2LjMwfDM0Ni4yOHw1LjQ4)" style="stroke-width:.71;stroke:#00bfc4;fill:#00bfc4"/><circle cx="59.66" cy="301.56" r="1.95" clip-path="url(#cpMzMuMjN8MzQ2LjMwfDM0Ni4yOHw1LjQ4)" style="stroke-width:.71;stroke:#f8766d;fill:#f8766d"/><circle cx="307.67" cy="102.81" r="1.95" clip-path="url(#cpMzMuMjN8MzQ2LjMwfDM0Ni4yOHw1LjQ4)" style="stroke-width:.71;stroke:#00bfc4;fill:#00bfc4"/><circle cx="65.11" cy="231.41" r="1.95" clip-path="url(#cpMzMuMjN8MzQ2LjMwfDM0Ni4yOHw1LjQ4)" style="stroke-width:.71;stroke:#f8766d;fill:#f8766d"/><circle cx="275.15" cy="44.35" r="1.95" clip-path="url(#cpMzMuMjN8MzQ2LjMwfDM0Ni4yOHw1LjQ4)" style="stroke-width:.71;stroke:#00bfc4;fill:#00bfc4"/><circle cx="256.2" cy="126.19" r="1.95" clip-path="url(#cpMzMuMjN8MzQ2LjMwfDM0Ni4yOHw1LjQ4)" style="stroke-width:.71;stroke:#00bfc4;fill:#00bfc4"/><circle cx="299.54" cy="126.19" r="1.95" clip-path="url(#cpMzMuMjN8MzQ2LjMwfDM0Ni4yOHw1LjQ4)" style="stroke-width:.71;stroke:#00bfc4;fill:#00bfc4"/><circle cx="85.44" cy="202.18" r="1.95" clip-path="url(#cpMzMuMjN8MzQ2LjMwfDM0Ni4yOHw1LjQ4)" style="stroke-width:.71;stroke:#f8766d;fill:#f8766d"/><circle cx="299.54" cy="155.42" r="1.95" clip-path="url(#cpMzMuMjN8MzQ2LjMwfDM0Ni4yOHw1LjQ4)" style="stroke-width:.71;stroke:#00bfc4;fill:#00bfc4"/><circle cx="245.3" cy="102.81" r="1.95" clip-path="url(#cpMzMuMjN8MzQ2LjMwfDM0Ni4yOHw1LjQ4)" style="stroke-width:.71;stroke:#00bfc4;fill:#00bfc4"/><circle cx="77.31" cy="254.79" r="1.95" clip-path="url(#cpMzMuMjN8MzQ2LjMwfDM0Ni4yOHw1LjQ4)" style="stroke-width:.71;stroke:#f8766d;fill:#f8766d"/><circle cx="283.28" cy="120.34" r="1.95" clip-path="url(#cpMzMuMjN8MzQ2LjMwfDM0Ni4yOHw1LjQ4)" style="stroke-width:.71;stroke:#00bfc4;fill:#00bfc4"/><circle cx="242.62" cy="167.11" r="1.95" clip-path="url(#cpMzMuMjN8MzQ2LjMwfDM0Ni4yOHw1LjQ4)" style="stroke-width:.71;stroke:#00bfc4;fill:#00bfc4"/><circle cx="78.61" cy="219.72" r="1.95" clip-path="url(#cpMzMuMjN8MzQ2LjMwfDM0Ni4yOHw1LjQ4)" style="stroke-width:.71;stroke:#f8766d;fill:#f8766d"/><circle cx="329.38" cy="137.88" r="1.95" clip-path="url(#cpMzMuMjN8MzQ2LjMwfDM0Ni4yOHw1LjQ4)" style="stroke-width:.71;stroke:#00bfc4;fill:#00bfc4"/><circle cx="81.37" cy="231.41" r="1.95" clip-path="url(#cpMzMuMjN8MzQ2LjMwfDM0Ni4yOHw1LjQ4)" style="stroke-width:.71;stroke:#f8766d;fill:#f8766d"/><circle cx="288.73" cy="126.19" r="1.95" clip-path="url(#cpMzMuMjN8MzQ2LjMwfDM0Ni4yOHw1LjQ4)" style="stroke-width:.71;stroke:#00bfc4;fill:#00bfc4"/><circle cx="233.11" cy="137.88" r="1.95" clip-path="url(#cpMzMuMjN8MzQ2LjMwfDM0Ni4yOHw1LjQ4)" style="stroke-width:.71;stroke:#00bfc4;fill:#00bfc4"/><circle cx="210.09" cy="96.96" r="1.95" clip-path="url(#cpMzMuMjN8MzQ2LjMwfDM0Ni4yOHw1LjQ4)" style="stroke-width:.71;stroke:#00bfc4;fill:#00bfc4"/><circle cx="253.43" cy="143.73" r="1.95" clip-path="url(#cpMzMuMjN8MzQ2LjMwfDM0Ni4yOHw1LjQ4)" style="stroke-width:.71;stroke:#00bfc4;fill:#00bfc4"/><circle cx="269.7" cy="102.81" r="1.95" clip-path="url(#cpMzMuMjN8MzQ2LjMwfDM0Ni4yOHw1LjQ4)" style="stroke-width:.71;stroke:#00bfc4;fill:#00bfc4"/><circle cx="250.75" cy="172.95" r="1.95" clip-path="url(#cpMzMuMjN8MzQ2LjMwfDM0Ni4yOHw1LjQ4)" style="stroke-width:.71;stroke:#00bfc4;fill:#00bfc4"/><circle cx="131.46" cy="202.18" r="1.95" clip-path="url(#cpMzMuMjN8MzQ2LjMwfDM0Ni4yOHw1LjQ4)" style="stroke-width:.71;stroke:#f8766d;fill:#f8766d"/><circle cx="248.07" cy="155.42" r="1.95" clip-path="url(#cpMzMuMjN8MzQ2LjMwfDM0Ni4yOHw1LjQ4)" style="stroke-width:.71;stroke:#00bfc4;fill:#00bfc4"/><circle cx="318.49" cy="67.73" r="1.95" clip-path="url(#cpMzMuMjN8MzQ2LjMwfDM0Ni4yOHw1LjQ4)" style="stroke-width:.71;stroke:#00bfc4;fill:#00bfc4"/><circle cx="238.55" cy="137.88" r="1.95" clip-path="url(#cpMzMuMjN8MzQ2LjMwfDM0Ni4yOHw1LjQ4)" style="stroke-width:.71;stroke:#00bfc4;fill:#00bfc4"/><circle cx="284.66" cy="114.5" r="1.95" clip-path="url(#cpMzMuMjN8MzQ2LjMwfDM0Ni4yOHw1LjQ4)" style="stroke-width:.71;stroke:#00bfc4;fill:#00bfc4"/><circle cx="93.57" cy="301.56" r="1.95" clip-path="url(#cpMzMuMjN8MzQ2LjMwfDM0Ni4yOHw1LjQ4)" style="stroke-width:.71;stroke:#f8766d;fill:#f8766d"/><circle cx="242.62" cy="79.43" r="1.95" clip-path="url(#cpMzMuMjN8MzQ2LjMwfDM0Ni4yOHw1LjQ4)" style="stroke-width:.71;stroke:#00bfc4;fill:#00bfc4"/><circle cx="96.25" cy="231.41" r="1.95" clip-path="url(#cpMzMuMjN8MzQ2LjMwfDM0Ni4yOHw1LjQ4)" style="stroke-width:.71;stroke:#f8766d;fill:#f8766d"/><circle cx="269.7" cy="56.04" r="1.95" clip-path="url(#cpMzMuMjN8MzQ2LjMwfDM0Ni4yOHw1LjQ4)" style="stroke-width:.71;stroke:#00bfc4;fill:#00bfc4"/><circle cx="69.17" cy="289.87" r="1.95" clip-path="url(#cpMzMuMjN8MzQ2LjMwfDM0Ni4yOHw1LjQ4)" style="stroke-width:.71;stroke:#f8766d;fill:#f8766d"/><circle cx="309.05" cy="126.19" r="1.95" clip-path="url(#cpMzMuMjN8MzQ2LjMwfDM0Ni4yOHw1LjQ4)" style="stroke-width:.71;stroke:#00bfc4;fill:#00bfc4"/><circle cx="66.41" cy="213.87" r="1.95" clip-path="url(#cpMzMuMjN8MzQ2LjMwfDM0Ni4yOHw1LjQ4)" style="stroke-width:.71;stroke:#f8766d;fill:#f8766d"/><circle cx="267.01" cy="161.26" r="1.95" clip-path="url(#cpMzMuMjN8MzQ2LjMwfDM0Ni4yOHw1LjQ4)" style="stroke-width:.71;stroke:#00bfc4;fill:#00bfc4"/><circle cx="296.86" cy="91.12" r="1.95" clip-path="url(#cpMzMuMjN8MzQ2LjMwfDM0Ni4yOHw1LjQ4)" style="stroke-width:.71;stroke:#00bfc4;fill:#00bfc4"/><circle cx="222.29" cy="143.73" r="1.95" clip-path="url(#cpMzMuMjN8MzQ2LjMwfDM0Ni4yOHw1LjQ4)" style="stroke-width:.71;stroke:#00bfc4;fill:#00bfc4"/><circle cx="69.17" cy="284.02" r="1.95" clip-path="url(#cpMzMuMjN8MzQ2LjMwfDM0Ni4yOHw1LjQ4)" style="stroke-width:.71;stroke:#f8766d;fill:#f8766d"/><circle cx="315.8" cy="102.81" r="1.95" clip-path="url(#cpMzMuMjN8MzQ2LjMwfDM0Ni4yOHw1LjQ4)" style="stroke-width:.71;stroke:#00bfc4;fill:#00bfc4"/><circle cx="119.26" cy="219.72" r="1.95" clip-path="url(#cpMzMuMjN8MzQ2LjMwfDM0Ni4yOHw1LjQ4)" style="stroke-width:.71;stroke:#f8766d;fill:#f8766d"/><circle cx="272.46" cy="67.73" r="1.95" clip-path="url(#cpMzMuMjN8MzQ2LjMwfDM0Ni4yOHw1LjQ4)" style="stroke-width:.71;stroke:#00bfc4;fill:#00bfc4"/><circle cx="88.12" cy="295.71" r="1.95" clip-path="url(#cpMzMuMjN8MzQ2LjMwfDM0Ni4yOHw1LjQ4)" style="stroke-width:.71;stroke:#f8766d;fill:#f8766d"/><circle cx="283.28" cy="96.96" r="1.95" clip-path="url(#cpMzMuMjN8MzQ2LjMwfDM0Ni4yOHw1LjQ4)" style="stroke-width:.71;stroke:#00bfc4;fill:#00bfc4"/><circle cx="246.69" cy="108.65" r="1.95" clip-path="url(#cpMzMuMjN8MzQ2LjMwfDM0Ni4yOHw1LjQ4)" style="stroke-width:.71;stroke:#00bfc4;fill:#00bfc4"/><circle cx="69.17" cy="307.4" r="1.95" clip-path="url(#cpMzMuMjN8MzQ2LjMwfDM0Ni4yOHw1LjQ4)" style="stroke-width:.71;stroke:#f8766d;fill:#f8766d"/><circle cx="299.54" cy="91.12" r="1.95" clip-path="url(#cpMzMuMjN8MzQ2LjMwfDM0Ni4yOHw1LjQ4)" style="stroke-width:.71;stroke:#00bfc4;fill:#00bfc4"/><circle cx="62.34" cy="278.18" r="1.95" clip-path="url(#cpMzMuMjN8MzQ2LjMwfDM0Ni4yOHw1LjQ4)" style="stroke-width:.71;stroke:#f8766d;fill:#f8766d"/><circle cx="311.74" cy="79.43" r="1.95" clip-path="url(#cpMzMuMjN8MzQ2LjMwfDM0Ni4yOHw1LjQ4)" style="stroke-width:.71;stroke:#00bfc4;fill:#00bfc4"/><circle cx="216.84" cy="108.65" r="1.95" clip-path="url(#cpMzMuMjN8MzQ2LjMwfDM0Ni4yOHw1LjQ4)" style="stroke-width:.71;stroke:#00bfc4;fill:#00bfc4"/><circle cx="302.22" cy="143.73" r="1.95" clip-path="url(#cpMzMuMjN8MzQ2LjMwfDM0Ni4yOHw1LjQ4)" style="stroke-width:.71;stroke:#00bfc4;fill:#00bfc4"/><circle cx="104.38" cy="237.26" r="1.95" clip-path="url(#cpMzMuMjN8MzQ2LjMwfDM0Ni4yOHw1LjQ4)" style="stroke-width:.71;stroke:#f8766d;fill:#f8766d"/><circle cx="315.8" cy="61.89" r="1.95" clip-path="url(#cpMzMuMjN8MzQ2LjMwfDM0Ni4yOHw1LjQ4)" style="stroke-width:.71;stroke:#00bfc4;fill:#00bfc4"/><circle cx="276.53" cy="120.34" r="1.95" clip-path="url(#cpMzMuMjN8MzQ2LjMwfDM0Ni4yOHw1LjQ4)" style="stroke-width:.71;stroke:#00bfc4;fill:#00bfc4"/><circle cx="55.59" cy="237.26" r="1.95" clip-path="url(#cpMzMuMjN8MzQ2LjMwfDM0Ni4yOHw1LjQ4)" style="stroke-width:.71;stroke:#f8766d;fill:#f8766d"/><circle cx="294.09" cy="108.65" r="1.95" clip-path="url(#cpMzMuMjN8MzQ2LjMwfDM0Ni4yOHw1LjQ4)" style="stroke-width:.71;stroke:#00bfc4;fill:#00bfc4"/><circle cx="105.77" cy="289.87" r="1.95" clip-path="url(#cpMzMuMjN8MzQ2LjMwfDM0Ni4yOHw1LjQ4)" style="stroke-width:.71;stroke:#f8766d;fill:#f8766d"/><circle cx="291.41" cy="85.27" r="1.95" clip-path="url(#cpMzMuMjN8MzQ2LjMwfDM0Ni4yOHw1LjQ4)" style="stroke-width:.71;stroke:#00bfc4;fill:#00bfc4"/><circle cx="65.11" cy="237.26" r="1.95" clip-path="url(#cpMzMuMjN8MzQ2LjMwfDM0Ni4yOHw1LjQ4)" style="stroke-width:.71;stroke:#f8766d;fill:#f8766d"/><circle cx="276.53" cy="73.58" r="1.95" clip-path="url(#cpMzMuMjN8MzQ2LjMwfDM0Ni4yOHw1LjQ4)" style="stroke-width:.71;stroke:#00bfc4;fill:#00bfc4"/><circle cx="130.16" cy="272.33" r="1.95" clip-path="url(#cpMzMuMjN8MzQ2LjMwfDM0Ni4yOHw1LjQ4)" style="stroke-width:.71;stroke:#f8766d;fill:#f8766d"/><circle cx="248.07" cy="178.8" r="1.95" clip-path="url(#cpMzMuMjN8MzQ2LjMwfDM0Ni4yOHw1LjQ4)" style="stroke-width:.71;stroke:#00bfc4;fill:#00bfc4"/><circle cx="262.95" cy="132.04" r="1.95" clip-path="url(#cpMzMuMjN8MzQ2LjMwfDM0Ni4yOHw1LjQ4)" style="stroke-width:.71;stroke:#00bfc4;fill:#00bfc4"/><circle cx="77.31" cy="254.79" r="1.95" clip-path="url(#cpMzMuMjN8MzQ2LjMwfDM0Ni4yOHw1LjQ4)" style="stroke-width:.71;stroke:#f8766d;fill:#f8766d"/><circle cx="291.41" cy="67.73" r="1.95" clip-path="url(#cpMzMuMjN8MzQ2LjMwfDM0Ni4yOHw1LjQ4)" style="stroke-width:.71;stroke:#00bfc4;fill:#00bfc4"/><circle cx="223.67" cy="108.65" r="1.95" clip-path="url(#cpMzMuMjN8MzQ2LjMwfDM0Ni4yOHw1LjQ4)" style="stroke-width:.71;stroke:#00bfc4;fill:#00bfc4"/><circle cx="73.24" cy="319.09" r="1.95" clip-path="url(#cpMzMuMjN8MzQ2LjMwfDM0Ni4yOHw1LjQ4)" style="stroke-width:.71;stroke:#f8766d;fill:#f8766d"/><circle cx="283.28" cy="102.81" r="1.95" clip-path="url(#cpMzMuMjN8MzQ2LjMwfDM0Ni4yOHw1LjQ4)" style="stroke-width:.71;stroke:#00bfc4;fill:#00bfc4"/><circle cx="101.7" cy="260.64" r="1.95" clip-path="url(#cpMzMuMjN8MzQ2LjMwfDM0Ni4yOHw1LjQ4)" style="stroke-width:.71;stroke:#f8766d;fill:#f8766d"/><circle cx="295.47" cy="56.04" r="1.95" clip-path="url(#cpMzMuMjN8MzQ2LjMwfDM0Ni4yOHw1LjQ4)" style="stroke-width:.71;stroke:#00bfc4;fill:#00bfc4"/><circle cx="69.17" cy="319.09" r="1.95" clip-path="url(#cpMzMuMjN8MzQ2LjMwfDM0Ni4yOHw1LjQ4)" style="stroke-width:.71;stroke:#f8766d;fill:#f8766d"/><circle cx="256.2" cy="96.96" r="1.95" clip-path="url(#cpMzMuMjN8MzQ2LjMwfDM0Ni4yOHw1LjQ4)" style="stroke-width:.71;stroke:#00bfc4;fill:#00bfc4"/><circle cx="145.04" cy="254.79" r="1.95" clip-path="url(#cpMzMuMjN8MzQ2LjMwfDM0Ni4yOHw1LjQ4)" style="stroke-width:.71;stroke:#f8766d;fill:#f8766d"/><circle cx="269.7" cy="61.89" r="1.95" clip-path="url(#cpMzMuMjN8MzQ2LjMwfDM0Ni4yOHw1LjQ4)" style="stroke-width:.71;stroke:#00bfc4;fill:#00bfc4"/><circle cx="66.41" cy="313.25" r="1.95" clip-path="url(#cpMzMuMjN8MzQ2LjMwfDM0Ni4yOHw1LjQ4)" style="stroke-width:.71;stroke:#f8766d;fill:#f8766d"/><circle cx="273.76" cy="102.81" r="1.95" clip-path="url(#cpMzMuMjN8MzQ2LjMwfDM0Ni4yOHw1LjQ4)" style="stroke-width:.71;stroke:#00bfc4;fill:#00bfc4"/><circle cx="70.48" cy="284.02" r="1.95" clip-path="url(#cpMzMuMjN8MzQ2LjMwfDM0Ni4yOHw1LjQ4)" style="stroke-width:.71;stroke:#f8766d;fill:#f8766d"/><circle cx="318.49" cy="79.43" r="1.95" clip-path="url(#cpMzMuMjN8MzQ2LjMwfDM0Ni4yOHw1LjQ4)" style="stroke-width:.71;stroke:#00bfc4;fill:#00bfc4"/><circle cx="82.67" cy="272.33" r="1.95" clip-path="url(#cpMzMuMjN8MzQ2LjMwfDM0Ni4yOHw1LjQ4)" style="stroke-width:.71;stroke:#f8766d;fill:#f8766d"/><circle cx="220.91" cy="120.34" r="1.95" clip-path="url(#cpMzMuMjN8MzQ2LjMwfDM0Ni4yOHw1LjQ4)" style="stroke-width:.71;stroke:#00bfc4;fill:#00bfc4"/><circle cx="261.57" cy="108.65" r="1.95" clip-path="url(#cpMzMuMjN8MzQ2LjMwfDM0Ni4yOHw1LjQ4)" style="stroke-width:.71;stroke:#00bfc4;fill:#00bfc4"/><circle cx="98.94" cy="231.41" r="1.95" clip-path="url(#cpMzMuMjN8MzQ2LjMwfDM0Ni4yOHw1LjQ4)" style="stroke-width:.71;stroke:#f8766d;fill:#f8766d"/><circle cx="285.96" cy="102.81" r="1.95" clip-path="url(#cpMzMuMjN8MzQ2LjMwfDM0Ni4yOHw1LjQ4)" style="stroke-width:.71;stroke:#00bfc4;fill:#00bfc4"/><circle cx="309.05" cy="132.04" r="1.95" clip-path="url(#cpMzMuMjN8MzQ2LjMwfDM0Ni4yOHw1LjQ4)" style="stroke-width:.71;stroke:#00bfc4;fill:#00bfc4"/><circle cx="269.7" cy="137.88" r="1.95" clip-path="url(#cpMzMuMjN8MzQ2LjMwfDM0Ni4yOHw1LjQ4)" style="stroke-width:.71;stroke:#00bfc4;fill:#00bfc4"/><circle cx="78.61" cy="237.26" r="1.95" clip-path="url(#cpMzMuMjN8MzQ2LjMwfDM0Ni4yOHw1LjQ4)" style="stroke-width:.71;stroke:#f8766d;fill:#f8766d"/><circle cx="294.09" cy="114.5" r="1.95" clip-path="url(#cpMzMuMjN8MzQ2LjMwfDM0Ni4yOHw1LjQ4)" style="stroke-width:.71;stroke:#00bfc4;fill:#00bfc4"/><circle cx="81.37" cy="295.71" r="1.95" clip-path="url(#cpMzMuMjN8MzQ2LjMwfDM0Ni4yOHw1LjQ4)" style="stroke-width:.71;stroke:#f8766d;fill:#f8766d"/><circle cx="332.07" cy="20.97" r="1.95" clip-path="url(#cpMzMuMjN8MzQ2LjMwfDM0Ni4yOHw1LjQ4)" style="stroke-width:.71;stroke:#00bfc4;fill:#00bfc4"/><circle cx="63.73" cy="272.33" r="1.95" clip-path="url(#cpMzMuMjN8MzQ2LjMwfDM0Ni4yOHw1LjQ4)" style="stroke-width:.71;stroke:#f8766d;fill:#f8766d"/><circle cx="326.62" cy="132.04" r="1.95" clip-path="url(#cpMzMuMjN8MzQ2LjMwfDM0Ni4yOHw1LjQ4)" style="stroke-width:.71;stroke:#00bfc4;fill:#00bfc4"/><circle cx="242.62" cy="132.04" r="1.95" clip-path="url(#cpMzMuMjN8MzQ2LjMwfDM0Ni4yOHw1LjQ4)" style="stroke-width:.71;stroke:#00bfc4;fill:#00bfc4"/><circle cx="112.52" cy="202.18" r="1.95" clip-path="url(#cpMzMuMjN8MzQ2LjMwfDM0Ni4yOHw1LjQ4)" style="stroke-width:.71;stroke:#f8766d;fill:#f8766d"/><circle cx="291.41" cy="108.65" r="1.95" clip-path="url(#cpMzMuMjN8MzQ2LjMwfDM0Ni4yOHw1LjQ4)" style="stroke-width:.71;stroke:#00bfc4;fill:#00bfc4"/><circle cx="207.41" cy="167.11" r="1.95" clip-path="url(#cpMzMuMjN8MzQ2LjMwfDM0Ni4yOHw1LjQ4)" style="stroke-width:.71;stroke:#00bfc4;fill:#00bfc4"/><circle cx="242.62" cy="172.95" r="1.95" clip-path="url(#cpMzMuMjN8MzQ2LjMwfDM0Ni4yOHw1LjQ4)" style="stroke-width:.71;stroke:#00bfc4;fill:#00bfc4"/><circle cx="283.28" cy="108.65" r="1.95" clip-path="url(#cpMzMuMjN8MzQ2LjMwfDM0Ni4yOHw1LjQ4)" style="stroke-width:.71;stroke:#00bfc4;fill:#00bfc4"/><circle cx="249.37" cy="38.51" r="1.95" clip-path="url(#cpMzMuMjN8MzQ2LjMwfDM0Ni4yOHw1LjQ4)" style="stroke-width:.71;stroke:#00bfc4;fill:#00bfc4"/><circle cx="63.73" cy="272.33" r="1.95" clip-path="url(#cpMzMuMjN8MzQ2LjMwfDM0Ni4yOHw1LjQ4)" style="stroke-width:.71;stroke:#f8766d;fill:#f8766d"/><circle cx="239.94" cy="61.89" r="1.95" clip-path="url(#cpMzMuMjN8MzQ2LjMwfDM0Ni4yOHw1LjQ4)" style="stroke-width:.71;stroke:#00bfc4;fill:#00bfc4"/><circle cx="96.25" cy="319.09" r="1.95" clip-path="url(#cpMzMuMjN8MzQ2LjMwfDM0Ni4yOHw1LjQ4)" style="stroke-width:.71;stroke:#f8766d;fill:#f8766d"/><circle cx="254.82" cy="79.43" r="1.95" clip-path="url(#cpMzMuMjN8MzQ2LjMwfDM0Ni4yOHw1LjQ4)" style="stroke-width:.71;stroke:#00bfc4;fill:#00bfc4"/><circle cx="79.99" cy="243.1" r="1.95" clip-path="url(#cpMzMuMjN8MzQ2LjMwfDM0Ni4yOHw1LjQ4)" style="stroke-width:.71;stroke:#f8766d;fill:#f8766d"/><circle cx="229.04" cy="126.19" r="1.95" clip-path="url(#cpMzMuMjN8MzQ2LjMwfDM0Ni4yOHw1LjQ4)" style="stroke-width:.71;stroke:#00bfc4;fill:#00bfc4"/><circle cx="201.96" cy="196.34" r="1.95" clip-path="url(#cpMzMuMjN8MzQ2LjMwfDM0Ni4yOHw1LjQ4)" style="stroke-width:.71;stroke:#f8766d;fill:#f8766d"/><circle cx="290.03" cy="137.88" r="1.95" clip-path="url(#cpMzMuMjN8MzQ2LjMwfDM0Ni4yOHw1LjQ4)" style="stroke-width:.71;stroke:#00bfc4;fill:#00bfc4"/><circle cx="109.83" cy="213.87" r="1.95" clip-path="url(#cpMzMuMjN8MzQ2LjMwfDM0Ni4yOHw1LjQ4)" style="stroke-width:.71;stroke:#f8766d;fill:#f8766d"/><circle cx="323.94" cy="67.73" r="1.95" clip-path="url(#cpMzMuMjN8MzQ2LjMwfDM0Ni4yOHw1LjQ4)" style="stroke-width:.71;stroke:#00bfc4;fill:#00bfc4"/><circle cx="74.54" cy="278.18" r="1.95" clip-path="url(#cpMzMuMjN8MzQ2LjMwfDM0Ni4yOHw1LjQ4)" style="stroke-width:.71;stroke:#f8766d;fill:#f8766d"/><circle cx="292.79" cy="38.51" r="1.95" clip-path="url(#cpMzMuMjN8MzQ2LjMwfDM0Ni4yOHw1LjQ4)" style="stroke-width:.71;stroke:#00bfc4;fill:#00bfc4"/><circle cx="73.24" cy="295.71" r="1.95" clip-path="url(#cpMzMuMjN8MzQ2LjMwfDM0Ni4yOHw1LjQ4)" style="stroke-width:.71;stroke:#f8766d;fill:#f8766d"/><circle cx="86.74" cy="248.95" r="1.95" clip-path="url(#cpMzMuMjN8MzQ2LjMwfDM0Ni4yOHw1LjQ4)" style="stroke-width:.71;stroke:#f8766d;fill:#f8766d"/><circle cx="290.03" cy="132.04" r="1.95" clip-path="url(#cpMzMuMjN8MzQ2LjMwfDM0Ni4yOHw1LjQ4)" style="stroke-width:.71;stroke:#00bfc4;fill:#00bfc4"/><circle cx="188.38" cy="184.65" r="1.95" clip-path="url(#cpMzMuMjN8MzQ2LjMwfDM0Ni4yOHw1LjQ4)" style="stroke-width:.71;stroke:#00bfc4;fill:#00bfc4"/><circle cx="256.2" cy="108.65" r="1.95" clip-path="url(#cpMzMuMjN8MzQ2LjMwfDM0Ni4yOHw1LjQ4)" style="stroke-width:.71;stroke:#00bfc4;fill:#00bfc4"/><circle cx="269.7" cy="108.65" r="1.95" clip-path="url(#cpMzMuMjN8MzQ2LjMwfDM0Ni4yOHw1LjQ4)" style="stroke-width:.71;stroke:#00bfc4;fill:#00bfc4"/><circle cx="283.28" cy="155.42" r="1.95" clip-path="url(#cpMzMuMjN8MzQ2LjMwfDM0Ni4yOHw1LjQ4)" style="stroke-width:.71;stroke:#00bfc4;fill:#00bfc4"/><circle cx="113.9" cy="289.87" r="1.95" clip-path="url(#cpMzMuMjN8MzQ2LjMwfDM0Ni4yOHw1LjQ4)" style="stroke-width:.71;stroke:#f8766d;fill:#f8766d"/><circle cx="242.62" cy="85.27" r="1.95" clip-path="url(#cpMzMuMjN8MzQ2LjMwfDM0Ni4yOHw1LjQ4)" style="stroke-width:.71;stroke:#00bfc4;fill:#00bfc4"/><circle cx="256.2" cy="149.57" r="1.95" clip-path="url(#cpMzMuMjN8MzQ2LjMwfDM0Ni4yOHw1LjQ4)" style="stroke-width:.71;stroke:#00bfc4;fill:#00bfc4"/><circle cx="70.48" cy="260.64" r="1.95" clip-path="url(#cpMzMuMjN8MzQ2LjMwfDM0Ni4yOHw1LjQ4)" style="stroke-width:.71;stroke:#f8766d;fill:#f8766d"/><circle cx="290.03" cy="132.04" r="1.95" clip-path="url(#cpMzMuMjN8MzQ2LjMwfDM0Ni4yOHw1LjQ4)" style="stroke-width:.71;stroke:#00bfc4;fill:#00bfc4"/><circle cx="262.95" cy="96.96" r="1.95" clip-path="url(#cpMzMuMjN8MzQ2LjMwfDM0Ni4yOHw1LjQ4)" style="stroke-width:.71;stroke:#00bfc4;fill:#00bfc4"/><circle cx="223.67" cy="96.96" r="1.95" clip-path="url(#cpMzMuMjN8MzQ2LjMwfDM0Ni4yOHw1LjQ4)" style="stroke-width:.71;stroke:#00bfc4;fill:#00bfc4"/><circle cx="82.67" cy="284.02" r="1.95" clip-path="url(#cpMzMuMjN8MzQ2LjMwfDM0Ni4yOHw1LjQ4)" style="stroke-width:.71;stroke:#f8766d;fill:#f8766d"/><circle cx="277.83" cy="126.19" r="1.95" clip-path="url(#cpMzMuMjN8MzQ2LjMwfDM0Ni4yOHw1LjQ4)" style="stroke-width:.71;stroke:#00bfc4;fill:#00bfc4"/><circle cx="249.37" cy="91.12" r="1.95" clip-path="url(#cpMzMuMjN8MzQ2LjMwfDM0Ni4yOHw1LjQ4)" style="stroke-width:.71;stroke:#00bfc4;fill:#00bfc4"/><circle cx="66.41" cy="313.25" r="1.95" clip-path="url(#cpMzMuMjN8MzQ2LjMwfDM0Ni4yOHw1LjQ4)" style="stroke-width:.71;stroke:#f8766d;fill:#f8766d"/><circle cx="276.53" cy="96.96" r="1.95" clip-path="url(#cpMzMuMjN8MzQ2LjMwfDM0Ni4yOHw1LjQ4)" style="stroke-width:.71;stroke:#00bfc4;fill:#00bfc4"/><circle cx="94.87" cy="260.64" r="1.95" clip-path="url(#cpMzMuMjN8MzQ2LjMwfDM0Ni4yOHw1LjQ4)" style="stroke-width:.71;stroke:#f8766d;fill:#f8766d"/><circle cx="307.67" cy="108.65" r="1.95" clip-path="url(#cpMzMuMjN8MzQ2LjMwfDM0Ni4yOHw1LjQ4)" style="stroke-width:.71;stroke:#00bfc4;fill:#00bfc4"/><circle cx="66.41" cy="248.95" r="1.95" clip-path="url(#cpMzMuMjN8MzQ2LjMwfDM0Ni4yOHw1LjQ4)" style="stroke-width:.71;stroke:#f8766d;fill:#f8766d"/><circle cx="307.67" cy="137.88" r="1.95" clip-path="url(#cpMzMuMjN8MzQ2LjMwfDM0Ni4yOHw1LjQ4)" style="stroke-width:.71;stroke:#00bfc4;fill:#00bfc4"/><circle cx="250.75" cy="91.12" r="1.95" clip-path="url(#cpMzMuMjN8MzQ2LjMwfDM0Ni4yOHw1LjQ4)" style="stroke-width:.71;stroke:#00bfc4;fill:#00bfc4"/><circle cx="239.86" cy="132.04" r="1.95" clip-path="url(#cpMzMuMjN8MzQ2LjMwfDM0Ni4yOHw1LjQ4)" style="stroke-width:.71;stroke:#00bfc4;fill:#00bfc4"/><circle cx="261.57" cy="108.65" r="1.95" clip-path="url(#cpMzMuMjN8MzQ2LjMwfDM0Ni4yOHw1LjQ4)" style="stroke-width:.71;stroke:#00bfc4;fill:#00bfc4"/><circle cx="201.96" cy="73.58" r="1.95" clip-path="url(#cpMzMuMjN8MzQ2LjMwfDM0Ni4yOHw1LjQ4)" style="stroke-width:.71;stroke:#00bfc4;fill:#00bfc4"/><circle cx="272.38" cy="132.04" r="1.95" clip-path="url(#cpMzMuMjN8MzQ2LjMwfDM0Ni4yOHw1LjQ4)" style="stroke-width:.71;stroke:#00bfc4;fill:#00bfc4"/><circle cx="100.32" cy="284.02" r="1.95" clip-path="url(#cpMzMuMjN8MzQ2LjMwfDM0Ni4yOHw1LjQ4)" style="stroke-width:.71;stroke:#f8766d;fill:#f8766d"/><circle cx="296.86" cy="126.19" r="1.95" clip-path="url(#cpMzMuMjN8MzQ2LjMwfDM0Ni4yOHw1LjQ4)" style="stroke-width:.71;stroke:#00bfc4;fill:#00bfc4"/><circle cx="88.12" cy="231.41" r="1.95" clip-path="url(#cpMzMuMjN8MzQ2LjMwfDM0Ni4yOHw1LjQ4)" style="stroke-width:.71;stroke:#f8766d;fill:#f8766d"/><circle cx="271.08" cy="102.81" r="1.95" clip-path="url(#cpMzMuMjN8MzQ2LjMwfDM0Ni4yOHw1LjQ4)" style="stroke-width:.71;stroke:#00bfc4;fill:#00bfc4"/><circle cx="253.43" cy="50.2" r="1.95" clip-path="url(#cpMzMuMjN8MzQ2LjMwfDM0Ni4yOHw1LjQ4)" style="stroke-width:.71;stroke:#00bfc4;fill:#00bfc4"/><circle cx="69.17" cy="272.33" r="1.95" clip-path="url(#cpMzMuMjN8MzQ2LjMwfDM0Ni4yOHw1LjQ4)" style="stroke-width:.71;stroke:#f8766d;fill:#f8766d"/><circle cx="291.41" cy="126.19" r="1.95" clip-path="url(#cpMzMuMjN8MzQ2LjMwfDM0Ni4yOHw1LjQ4)" style="stroke-width:.71;stroke:#00bfc4;fill:#00bfc4"/><circle cx="62.34" cy="313.25" r="1.95" clip-path="url(#cpMzMuMjN8MzQ2LjMwfDM0Ni4yOHw1LjQ4)" style="stroke-width:.71;stroke:#f8766d;fill:#f8766d"/><circle cx="272.46" cy="132.04" r="1.95" clip-path="url(#cpMzMuMjN8MzQ2LjMwfDM0Ni4yOHw1LjQ4)" style="stroke-width:.71;stroke:#00bfc4;fill:#00bfc4"/><circle cx="230.42" cy="91.12" r="1.95" clip-path="url(#cpMzMuMjN8MzQ2LjMwfDM0Ni4yOHw1LjQ4)" style="stroke-width:.71;stroke:#00bfc4;fill:#00bfc4"/><circle cx="74.54" cy="295.71" r="1.95" clip-path="url(#cpMzMuMjN8MzQ2LjMwfDM0Ni4yOHw1LjQ4)" style="stroke-width:.71;stroke:#f8766d;fill:#f8766d"/><circle cx="283.28" cy="96.96" r="1.95" clip-path="url(#cpMzMuMjN8MzQ2LjMwfDM0Ni4yOHw1LjQ4)" style="stroke-width:.71;stroke:#00bfc4;fill:#00bfc4"/><circle cx="111.13" cy="167.11" r="1.95" clip-path="url(#cpMzMuMjN8MzQ2LjMwfDM0Ni4yOHw1LjQ4)" style="stroke-width:.71;stroke:#00bfc4;fill:#00bfc4"/><circle cx="299.54" cy="114.5" r="1.95" clip-path="url(#cpMzMuMjN8MzQ2LjMwfDM0Ni4yOHw1LjQ4)" style="stroke-width:.71;stroke:#00bfc4;fill:#00bfc4"/><circle cx="69.17" cy="295.71" r="1.95" clip-path="url(#cpMzMuMjN8MzQ2LjMwfDM0Ni4yOHw1LjQ4)" style="stroke-width:.71;stroke:#f8766d;fill:#f8766d"/><circle cx="229.04" cy="143.73" r="1.95" clip-path="url(#cpMzMuMjN8MzQ2LjMwfDM0Ni4yOHw1LjQ4)" style="stroke-width:.71;stroke:#00bfc4;fill:#00bfc4"/><circle cx="195.21" cy="208.03" r="1.95" clip-path="url(#cpMzMuMjN8MzQ2LjMwfDM0Ni4yOHw1LjQ4)" style="stroke-width:.71;stroke:#f8766d;fill:#f8766d"/><circle cx="261.57" cy="137.88" r="1.95" clip-path="url(#cpMzMuMjN8MzQ2LjMwfDM0Ni4yOHw1LjQ4)" style="stroke-width:.71;stroke:#00bfc4;fill:#00bfc4"/><circle cx="112.52" cy="272.33" r="1.95" clip-path="url(#cpMzMuMjN8MzQ2LjMwfDM0Ni4yOHw1LjQ4)" style="stroke-width:.71;stroke:#f8766d;fill:#f8766d"/><circle cx="307.67" cy="32.66" r="1.95" clip-path="url(#cpMzMuMjN8MzQ2LjMwfDM0Ni4yOHw1LjQ4)" style="stroke-width:.71;stroke:#00bfc4;fill:#00bfc4"/><circle cx="79.99" cy="260.64" r="1.95" clip-path="url(#cpMzMuMjN8MzQ2LjMwfDM0Ni4yOHw1LjQ4)" style="stroke-width:.71;stroke:#f8766d;fill:#f8766d"/><circle cx="254.82" cy="137.88" r="1.95" clip-path="url(#cpMzMuMjN8MzQ2LjMwfDM0Ni4yOHw1LjQ4)" style="stroke-width:.71;stroke:#00bfc4;fill:#00bfc4"/><circle cx="69.17" cy="289.87" r="1.95" clip-path="url(#cpMzMuMjN8MzQ2LjMwfDM0Ni4yOHw1LjQ4)" style="stroke-width:.71;stroke:#f8766d;fill:#f8766d"/><circle cx="264.33" cy="102.81" r="1.95" clip-path="url(#cpMzMuMjN8MzQ2LjMwfDM0Ni4yOHw1LjQ4)" style="stroke-width:.71;stroke:#00bfc4;fill:#00bfc4"/><circle cx="59.66" cy="266.48" r="1.95" clip-path="url(#cpMzMuMjN8MzQ2LjMwfDM0Ni4yOHw1LjQ4)" style="stroke-width:.71;stroke:#f8766d;fill:#f8766d"/><circle cx="281.9" cy="143.73" r="1.95" clip-path="url(#cpMzMuMjN8MzQ2LjMwfDM0Ni4yOHw1LjQ4)" style="stroke-width:.71;stroke:#00bfc4;fill:#00bfc4"/><circle cx="242.62" cy="126.19" r="1.95" clip-path="url(#cpMzMuMjN8MzQ2LjMwfDM0Ni4yOHw1LjQ4)" style="stroke-width:.71;stroke:#00bfc4;fill:#00bfc4"/><circle cx="252.13" cy="120.34" r="1.95" clip-path="url(#cpMzMuMjN8MzQ2LjMwfDM0Ni4yOHw1LjQ4)" style="stroke-width:.71;stroke:#00bfc4;fill:#00bfc4"/><circle cx="249.37" cy="126.19" r="1.95" clip-path="url(#cpMzMuMjN8MzQ2LjMwfDM0Ni4yOHw1LjQ4)" style="stroke-width:.71;stroke:#00bfc4;fill:#00bfc4"/><circle cx="264.33" cy="126.19" r="1.95" clip-path="url(#cpMzMuMjN8MzQ2LjMwfDM0Ni4yOHw1LjQ4)" style="stroke-width:.71;stroke:#00bfc4;fill:#00bfc4"/><circle cx="235.87" cy="172.95" r="1.95" clip-path="url(#cpMzMuMjN8MzQ2LjMwfDM0Ni4yOHw1LjQ4)" style="stroke-width:.71;stroke:#00bfc4;fill:#00bfc4"/><circle cx="287.34" cy="120.34" r="1.95" clip-path="url(#cpMzMuMjN8MzQ2LjMwfDM0Ni4yOHw1LjQ4)" style="stroke-width:.71;stroke:#00bfc4;fill:#00bfc4"/><circle cx="249.37" cy="172.95" r="1.95" clip-path="url(#cpMzMuMjN8MzQ2LjMwfDM0Ni4yOHw1LjQ4)" style="stroke-width:.71;stroke:#00bfc4;fill:#00bfc4"/><circle cx="113.9" cy="266.48" r="1.95" clip-path="url(#cpMzMuMjN8MzQ2LjMwfDM0Ni4yOHw1LjQ4)" style="stroke-width:.71;stroke:#f8766d;fill:#f8766d"/><circle cx="257.5" cy="79.43" r="1.95" clip-path="url(#cpMzMuMjN8MzQ2LjMwfDM0Ni4yOHw1LjQ4)" style="stroke-width:.71;stroke:#00bfc4;fill:#00bfc4"/><circle cx="97.63" cy="289.87" r="1.95" clip-path="url(#cpMzMuMjN8MzQ2LjMwfDM0Ni4yOHw1LjQ4)" style="stroke-width:.71;stroke:#f8766d;fill:#f8766d"/><circle cx="279.21" cy="56.04" r="1.95" clip-path="url(#cpMzMuMjN8MzQ2LjMwfDM0Ni4yOHw1LjQ4)" style="stroke-width:.71;stroke:#00bfc4;fill:#00bfc4"/><circle cx="70.48" cy="266.48" r="1.95" clip-path="url(#cpMzMuMjN8MzQ2LjMwfDM0Ni4yOHw1LjQ4)" style="stroke-width:.71;stroke:#f8766d;fill:#f8766d"/><circle cx="67.79" cy="266.48" r="1.95" clip-path="url(#cpMzMuMjN8MzQ2LjMwfDM0Ni4yOHw1LjQ4)" style="stroke-width:.71;stroke:#f8766d;fill:#f8766d"/><circle cx="265.63" cy="132.04" r="1.95" clip-path="url(#cpMzMuMjN8MzQ2LjMwfDM0Ni4yOHw1LjQ4)" style="stroke-width:.71;stroke:#00bfc4;fill:#00bfc4"/><circle cx="238.55" cy="120.34" r="1.95" clip-path="url(#cpMzMuMjN8MzQ2LjMwfDM0Ni4yOHw1LjQ4)" style="stroke-width:.71;stroke:#00bfc4;fill:#00bfc4"/><circle cx="107.07" cy="208.03" r="1.95" clip-path="url(#cpMzMuMjN8MzQ2LjMwfDM0Ni4yOHw1LjQ4)" style="stroke-width:.71;stroke:#f8766d;fill:#f8766d"/><circle cx="254.82" cy="143.73" r="1.95" clip-path="url(#cpMzMuMjN8MzQ2LjMwfDM0Ni4yOHw1LjQ4)" style="stroke-width:.71;stroke:#00bfc4;fill:#00bfc4"/><circle cx="108.45" cy="307.4" r="1.95" clip-path="url(#cpMzMuMjN8MzQ2LjMwfDM0Ni4yOHw1LjQ4)" style="stroke-width:.71;stroke:#f8766d;fill:#f8766d"/><circle cx="318.49" cy="79.43" r="1.95" clip-path="url(#cpMzMuMjN8MzQ2LjMwfDM0Ni4yOHw1LjQ4)" style="stroke-width:.71;stroke:#00bfc4;fill:#00bfc4"/><circle cx="153.17" cy="213.87" r="1.95" clip-path="url(#cpMzMuMjN8MzQ2LjMwfDM0Ni4yOHw1LjQ4)" style="stroke-width:.71;stroke:#f8766d;fill:#f8766d"/><circle cx="290.03" cy="85.27" r="1.95" clip-path="url(#cpMzMuMjN8MzQ2LjMwfDM0Ni4yOHw1LjQ4)" style="stroke-width:.71;stroke:#00bfc4;fill:#00bfc4"/><circle cx="229.04" cy="102.81" r="1.95" clip-path="url(#cpMzMuMjN8MzQ2LjMwfDM0Ni4yOHw1LjQ4)" style="stroke-width:.71;stroke:#00bfc4;fill:#00bfc4"/><circle cx="86.74" cy="248.95" r="1.95" clip-path="url(#cpMzMuMjN8MzQ2LjMwfDM0Ni4yOHw1LjQ4)" style="stroke-width:.71;stroke:#f8766d;fill:#f8766d"/><circle cx="272.46" cy="102.81" r="1.95" clip-path="url(#cpMzMuMjN8MzQ2LjMwfDM0Ni4yOHw1LjQ4)" style="stroke-width:.71;stroke:#00bfc4;fill:#00bfc4"/><circle cx="90.8" cy="190.49" r="1.95" clip-path="url(#cpMzMuMjN8MzQ2LjMwfDM0Ni4yOHw1LjQ4)" style="stroke-width:.71;stroke:#00bfc4;fill:#00bfc4"/><circle cx="271.08" cy="149.57" r="1.95" clip-path="url(#cpMzMuMjN8MzQ2LjMwfDM0Ni4yOHw1LjQ4)" style="stroke-width:.71;stroke:#00bfc4;fill:#00bfc4"/><circle cx="96.25" cy="266.48" r="1.95" clip-path="url(#cpMzMuMjN8MzQ2LjMwfDM0Ni4yOHw1LjQ4)" style="stroke-width:.71;stroke:#f8766d;fill:#f8766d"/><circle cx="279.21" cy="96.96" r="1.95" clip-path="url(#cpMzMuMjN8MzQ2LjMwfDM0Ni4yOHw1LjQ4)" style="stroke-width:.71;stroke:#00bfc4;fill:#00bfc4"/><circle cx="207.41" cy="155.42" r="1.95" clip-path="url(#cpMzMuMjN8MzQ2LjMwfDM0Ni4yOHw1LjQ4)" style="stroke-width:.71;stroke:#00bfc4;fill:#00bfc4"/><circle cx="283.28" cy="155.42" r="1.95" clip-path="url(#cpMzMuMjN8MzQ2LjMwfDM0Ni4yOHw1LjQ4)" style="stroke-width:.71;stroke:#00bfc4;fill:#00bfc4"/><circle cx="254.82" cy="67.73" r="1.95" clip-path="url(#cpMzMuMjN8MzQ2LjMwfDM0Ni4yOHw1LjQ4)" style="stroke-width:.71;stroke:#00bfc4;fill:#00bfc4"/><circle cx="227.74" cy="114.5" r="1.95" clip-path="url(#cpMzMuMjN8MzQ2LjMwfDM0Ni4yOHw1LjQ4)" style="stroke-width:.71;stroke:#00bfc4;fill:#00bfc4"/><circle cx="235.87" cy="167.11" r="1.95" clip-path="url(#cpMzMuMjN8MzQ2LjMwfDM0Ni4yOHw1LjQ4)" style="stroke-width:.71;stroke:#00bfc4;fill:#00bfc4"/><circle cx="279.21" cy="96.96" r="1.95" clip-path="url(#cpMzMuMjN8MzQ2LjMwfDM0Ni4yOHw1LjQ4)" style="stroke-width:.71;stroke:#00bfc4;fill:#00bfc4"/><circle cx="79.99" cy="254.79" r="1.95" clip-path="url(#cpMzMuMjN8MzQ2LjMwfDM0Ni4yOHw1LjQ4)" style="stroke-width:.71;stroke:#f8766d;fill:#f8766d"/><circle cx="265.63" cy="120.34" r="1.95" clip-path="url(#cpMzMuMjN8MzQ2LjMwfDM0Ni4yOHw1LjQ4)" style="stroke-width:.71;stroke:#00bfc4;fill:#00bfc4"/><circle cx="304.99" cy="126.19" r="1.95" clip-path="url(#cpMzMuMjN8MzQ2LjMwfDM0Ni4yOHw1LjQ4)" style="stroke-width:.71;stroke:#00bfc4;fill:#00bfc4"/><circle cx="285.96" cy="91.12" r="1.95" clip-path="url(#cpMzMuMjN8MzQ2LjMwfDM0Ni4yOHw1LjQ4)" style="stroke-width:.71;stroke:#00bfc4;fill:#00bfc4"/><circle cx="67.79" cy="243.1" r="1.95" clip-path="url(#cpMzMuMjN8MzQ2LjMwfDM0Ni4yOHw1LjQ4)" style="stroke-width:.71;stroke:#f8766d;fill:#f8766d"/><circle cx="262.95" cy="96.96" r="1.95" clip-path="url(#cpMzMuMjN8MzQ2LjMwfDM0Ni4yOHw1LjQ4)" style="stroke-width:.71;stroke:#00bfc4;fill:#00bfc4"/><circle cx="78.61" cy="330.79" r="1.95" clip-path="url(#cpMzMuMjN8MzQ2LjMwfDM0Ni4yOHw1LjQ4)" style="stroke-width:.71;stroke:#f8766d;fill:#f8766d"/><circle cx="100.32" cy="231.41" r="1.95" clip-path="url(#cpMzMuMjN8MzQ2LjMwfDM0Ni4yOHw1LjQ4)" style="stroke-width:.71;stroke:#f8766d;fill:#f8766d"/><circle cx="303.61" cy="143.73" r="1.95" clip-path="url(#cpMzMuMjN8MzQ2LjMwfDM0Ni4yOHw1LjQ4)" style="stroke-width:.71;stroke:#00bfc4;fill:#00bfc4"/><circle cx="252.13" cy="108.65" r="1.95" clip-path="url(#cpMzMuMjN8MzQ2LjMwfDM0Ni4yOHw1LjQ4)" style="stroke-width:.71;stroke:#00bfc4;fill:#00bfc4"/><circle cx="92.19" cy="313.25" r="1.95" clip-path="url(#cpMzMuMjN8MzQ2LjMwfDM0Ni4yOHw1LjQ4)" style="stroke-width:.71;stroke:#f8766d;fill:#f8766d"/><circle cx="276.53" cy="56.04" r="1.95" clip-path="url(#cpMzMuMjN8MzQ2LjMwfDM0Ni4yOHw1LjQ4)" style="stroke-width:.71;stroke:#00bfc4;fill:#00bfc4"/><circle cx="65.11" cy="313.25" r="1.95" clip-path="url(#cpMzMuMjN8MzQ2LjMwfDM0Ni4yOHw1LjQ4)" style="stroke-width:.71;stroke:#f8766d;fill:#f8766d"/><circle cx="280.59" cy="149.57" r="1.95" clip-path="url(#cpMzMuMjN8MzQ2LjMwfDM0Ni4yOHw1LjQ4)" style="stroke-width:.71;stroke:#00bfc4;fill:#00bfc4"/><polyline points="332.07 26.5 329.19 24.56 328.43 24.1 326.32 22.83 323.44 21.34 322.63 20.97" clip-path="url(#cpMzMuMjN8MzQ2LjMwfDM0Ni4yOHw1LjQ4)" style="stroke-width:1.07;stroke:#36f;stroke-linecap:butt"/><polyline points="249.48 20.97 248.7 21.24 245.82 22.33 242.95 23.56 241.79 24.1 240.07 24.86 237.2 26.25 235.36 27.23 234.32 27.75 231.45 29.32 229.69 30.36 228.57 31 225.7 32.75 224.55 33.49 222.82 34.57 219.95 36.51 219.79 36.62 217.08 38.45 215.27 39.75 214.2 40.49 211.33 42.61 210.97 42.88 208.45 44.74 206.82 46.01 205.58 46.96 202.87 49.14 202.7 49.27 199.83 51.62 199.06 52.26 196.95 54.06 195.45 55.39 194.08 56.63 192.05 58.52 191.2 59.34 188.87 61.65 188.33 62.22 185.93 64.78 185.45 65.32 183.22 67.91 182.58 68.72 180.76 71.04 179.7 72.52 178.54 74.17 176.83 76.88 176.56 77.3 174.78 80.43 173.95 82.09 173.21 83.56 171.84 86.69 171.08 88.73 170.66 89.82 169.61 92.95 168.76 96.08 168.2 98.54 168.04 99.21 167.42 102.34 166.92 105.47 166.54 108.59 166.24 111.72 166.02 114.85 165.86 117.98 165.74 121.11 165.65 124.24 165.59 127.37 165.53 130.5 165.47 133.63 165.39 136.76 165.33 138.51 165.27 139.89 165.1 143.02 164.87 146.15 164.57 149.28 164.18 152.41 163.68 155.54 163.07 158.67 162.45 161.23 162.29 161.8 161.25 164.92 159.96 168.05 159.58 168.87 158.17 171.18 156.7 173.18 155.55 174.31 153.83 175.76 150.96 177.25 150.3 177.44 148.08 178.02 145.21 178.32 142.33 178.3 139.46 178.06 136.58 177.68 135.14 177.44 133.71 177.21 130.83 176.67 127.96 176.12 125.08 175.58 122.21 175.07 119.33 174.6 117.36 174.31 116.46 174.18 113.58 173.8 110.71 173.5 107.83 173.27 104.96 173.13 102.08 173.07 99.21 173.1 96.33 173.21 93.46 173.42 90.58 173.72 87.71 174.11 86.5 174.31 84.84 174.57 81.96 175.09 79.09 175.71 76.21 176.43 73.34 177.26 72.77 177.44 70.46 178.12 67.59 179.08 64.71 180.16 63.72 180.57 61.84 181.3 58.96 182.54 56.57 183.7 56.09 183.92 53.21 185.36 50.61 186.83 50.34 186.98 47.46 188.67" clip-path="url(#cpMzMuMjN8MzQ2LjMwfDM0Ni4yOHw1LjQ4)" style="stroke-width:1.07;stroke:#36f;stroke-linecap:butt"/><polyline points="128.09 330.79 130.83 328.07 131.23 327.66 133.71 324.97 134.1 324.53 136.58 321.56 136.72 321.4 139.15 318.27 139.46 317.84 141.41 315.14 142.33 313.76 143.51 312.01 145.21 309.25 145.44 308.88 147.28 305.75 148.08 304.25 148.99 302.62 150.57 299.49 150.96 298.65 152.07 296.36 153.44 293.23 153.83 292.25 154.74 290.1 155.92 286.97 156.7 284.64 156.99 283.84 158.01 280.71 158.89 277.58 159.58 274.75 159.66 274.46 160.39 271.33 161.01 268.2 161.54 265.07 161.99 261.94 162.38 258.81 162.45 258.16 162.76 255.68 163.11 252.55 163.46 249.42 163.81 246.29 164.21 243.16 164.66 240.03 165.2 236.9 165.33 236.23 165.91 233.77 166.82 230.64 167.94 227.51 168.2 226.89 169.54 224.38 171.08 222.04 171.77 221.25 173.95 219.18 175.58 218.13 176.83 217.42 179.7 216.35 182.58 215.7 185.45 215.31 188.33 215.11 191.2 215.01 192.13 215 194.08 214.97 196.95 214.97 199.83 214.98 202.7 214.98 205.58 214.97 208.45 214.94 211.33 214.87 214.2 214.77 217.08 214.64 219.95 214.48 222.82 214.27 225.7 214.03 228.57 213.74 231.45 213.42 234.32 213.05 237.2 212.64 240.07 212.18 241.84 211.87 242.95 211.69 245.82 211.2 248.7 210.66 251.57 210.07 254.45 209.44 257.32 208.75 257.37 208.74 260.2 208.1 263.07 207.39 265.95 206.64 268.82 205.82 269.54 205.61 271.7 205.03 274.57 204.21 277.45 203.33 280.04 202.48 280.32 202.4 283.2 201.51 286.07 200.56 288.94 199.52 289.41 199.35 291.82 198.53 294.69 197.48 297.57 196.32 297.82 196.22 300.44 195.22 303.32 194.02 305.37 193.09 306.19 192.75 309.07 191.47 311.94 190.05 312.12 189.96 314.82 188.65 317.69 187.09 318.15 186.83 320.57 185.52 323.44 183.76 323.54 183.7 326.32 181.99 328.38 180.57 329.19 180.03 332.07 177.95" clip-path="url(#cpMzMuMjN8MzQ2LjMwfDM0Ni4yOHw1LjQ4)" style="stroke-width:1.07;stroke:#36f;stroke-linecap:butt"/><polyline points="332.07 48.53 329.64 46.01 329.19 45.56 326.32 42.97 326.2 42.88 323.44 40.69 322.09 39.75 320.57 38.7 317.69 36.97 317.03 36.62 314.82 35.44 311.94 34.12 310.33 33.49 309.07 32.98 306.19 32 303.32 31.18 300.44 30.51 299.62 30.36 297.57 29.95 294.69 29.51 291.82 29.19 288.94 28.99 286.07 28.89 283.2 28.9 280.32 29 277.45 29.21 274.57 29.51 271.7 29.92 269.19 30.36 268.82 30.42 265.95 30.99 263.07 31.66 260.2 32.44 257.32 33.35 256.91 33.49 254.45 34.3 251.57 35.38 248.7 36.58 248.63 36.62 245.82 37.83 242.95 39.23 241.95 39.75 240.07 40.69 237.2 42.27 236.17 42.88 234.32 43.93 231.45 45.71 230.98 46.01 228.57 47.53 226.21 49.14 225.7 49.48 222.82 51.48 221.75 52.26 219.95 53.57 217.56 55.39 217.08 55.76 214.2 58.04 213.6 58.52 211.33 60.41 209.88 61.65 208.45 62.91 206.41 64.78 205.58 65.57 203.18 67.91 202.7 68.4 200.21 71.04 199.83 71.47 197.49 74.17 196.95 74.84 195.02 77.3 194.08 78.63 192.81 80.43 191.2 83.02 190.86 83.56 189.13 86.69 188.33 88.36 187.62 89.82 186.32 92.95 185.45 95.44 185.22 96.08 184.28 99.21 183.52 102.34 182.92 105.47 182.58 107.8 182.45 108.59 182.1 111.72 181.86 114.85 181.73 117.98 181.69 121.11 181.74 124.24 181.87 127.37 182.06 130.5 182.32 133.63 182.58 136.26 182.63 136.76 182.97 139.89 183.36 143.02 183.81 146.15 184.31 149.28 184.88 152.41 185.45 155.24 185.51 155.54 186.19 158.67 186.98 161.8 187.9 164.92 188.33 166.2 188.96 168.05 190.21 171.18 191.2 173.26 191.73 174.31 193.59 177.44 194.08 178.15 195.9 180.57 196.95 181.76 198.87 183.7 199.83 184.55 202.7 186.78 202.78 186.83 205.58 188.59 208.21 189.96 208.45 190.08 211.33 191.33 214.2 192.35 216.69 193.09 217.08 193.2 219.95 193.92 222.82 194.5 225.7 194.96 228.57 195.31 231.45 195.56 234.32 195.72 237.2 195.81 240.07 195.81 242.95 195.75 245.82 195.62 248.7 195.42 251.57 195.17 254.45 194.85 257.32 194.47 260.2 194.03 263.07 193.53 265.3 193.09 265.95 192.98 268.82 192.41 271.7 191.78 274.57 191.09 277.45 190.34 278.76 189.96 280.32 189.55 283.2 188.74 286.07 187.85 288.94 186.87 289.05 186.83 291.82 185.9 294.69 184.85 297.53 183.7 297.57 183.69 300.44 182.53 303.32 181.25 304.73 180.57 306.19 179.9 309.07 178.46 310.92 177.44 311.94 176.9 314.82 175.25 316.31 174.31 317.69 173.46 320.57 171.52 321.04 171.18 323.44 169.44 325.21 168.05 326.32 167.16 328.89 164.92 329.19 164.65 332.07 161.89" clip-path="url(#cpMzMuMjN8MzQ2LjMwfDM0Ni4yOHw1LjQ4)" style="stroke-width:1.07;stroke:#36f;stroke-linecap:butt"/><polyline points="105.67 330.79 107.83 329.47 110.46 327.66 110.71 327.48 113.58 325.3 114.51 324.53 116.46 322.85 118.03 321.4 119.33 320.12 121.13 318.27 122.21 317.08 123.9 315.14 125.08 313.67 126.39 312.01 127.96 309.83 128.64 308.88 130.67 305.75 130.83 305.48 132.55 302.62 133.71 300.46 134.23 299.49 135.77 296.36 136.58 294.51 137.16 293.23 138.42 290.1 139.46 287.14 139.52 286.97 140.54 283.84 141.4 280.71 142.13 277.58 142.33 276.55 142.76 274.46 143.29 271.33 143.69 268.2 143.99 265.07 144.18 261.94 144.28 258.81 144.29 255.68 144.23 252.55 144.09 249.42 143.88 246.29 143.61 243.16 143.27 240.03 142.85 236.9 142.36 233.77 142.33 233.6 141.81 230.64 141.16 227.51 140.36 224.38 139.46 221.48 139.39 221.25 138.25 218.13 136.83 215 136.58 214.53 135.11 211.87 133.71 209.77 132.97 208.74 130.83 206.17 130.32 205.61 127.96 203.31 127.01 202.48 125.08 200.96 122.78 199.35 122.21 198.98 119.33 197.31 117.13 196.22 116.46 195.9 113.58 194.69 110.71 193.69 108.61 193.09 107.83 192.87 104.96 192.19 102.08 191.67 99.21 191.3 96.33 191.06 93.46 190.96 90.58 190.98 87.71 191.12 84.84 191.38 81.96 191.76 79.09 192.26 76.21 192.9 75.47 193.09 73.34 193.62 70.46 194.46 67.59 195.45 65.65 196.22 64.71 196.58 61.84 197.81 58.96 199.24 58.76 199.35 56.09 200.78 53.32 202.48 53.21 202.55 50.34 204.47 48.82 205.61 47.46 206.64" clip-path="url(#cpMzMuMjN8MzQ2LjMwfDM0Ni4yOHw1LjQ4)" style="stroke-width:1.07;stroke:#36f;stroke-linecap:butt"/><polyline points="332.07 66.14 331.22 64.78 329.19 61.87 329.03 61.65 326.54 58.52 326.32 58.27 323.64 55.39 323.44 55.19 320.57 52.54 320.24 52.26 317.69 50.23 316.14 49.14 314.82 48.23 311.94 46.5 310.99 46.01 309.07 45 306.19 43.72 303.94 42.88 303.32 42.64 300.44 41.71 297.57 40.96 294.69 40.37 291.82 39.92 290.2 39.75 288.94 39.6 286.07 39.4 283.2 39.33 280.32 39.38 277.45 39.55 275.51 39.75 274.57 39.84 271.7 40.22 268.82 40.71 265.95 41.32 263.07 42.05 260.29 42.88 260.2 42.9 257.32 43.82 254.45 44.87 251.7 46.01 251.57 46.06 248.7 47.3 245.82 48.69 244.97 49.14 242.95 50.16 240.07 51.76 239.22 52.26 237.2 53.43 234.32 55.24 234.09 55.39 231.45 57.11 229.43 58.52 228.57 59.12 225.7 61.22 225.13 61.65 222.82 63.43 221.15 64.78 219.95 65.78 217.48 67.91 217.08 68.27 214.2 70.94 214.09 71.04 211.33 73.81 210.98 74.17 208.45 76.96 208.15 77.3 205.61 80.43 205.58 80.47 203.32 83.56 202.7 84.5 201.29 86.69 199.83 89.29 199.53 89.82 197.99 92.95 196.95 95.44 196.69 96.08 195.57 99.21 194.67 102.34 194.08 104.92 193.95 105.47 193.37 108.59 192.96 111.72 192.7 114.85 192.57 117.98 192.56 121.11 192.66 124.24 192.88 127.37 193.2 130.5 193.63 133.63 194.08 136.27 194.16 136.76 194.76 139.89 195.48 143.02 196.31 146.15 196.95 148.26 197.26 149.28 198.34 152.41 199.59 155.54 199.83 156.08 201 158.67 202.66 161.8 202.7 161.86 204.59 164.92 205.58 166.33 206.88 168.05 208.45 169.89 209.66 171.18 211.33 172.78 213.12 174.31 214.2 175.16 217.08 177.13 217.59 177.44 219.95 178.79 222.82 180.16 223.82 180.57 225.7 181.32 228.57 182.29 231.45 183.07 234.32 183.7 234.36 183.7 237.2 184.21 240.07 184.6 242.95 184.87 245.82 185.04 248.7 185.12 251.57 185.1 254.45 185 257.32 184.82 260.2 184.56 263.07 184.22 265.95 183.81 266.59 183.7 268.82 183.35 271.7 182.84 274.57 182.25 277.45 181.58 280.32 180.84 281.25 180.57 283.2 180.05 286.07 179.2 288.94 178.26 291.2 177.44 291.82 177.23 294.69 176.16 297.57 174.97 299.03 174.31 300.44 173.7 303.32 172.33 305.49 171.18 306.19 170.82 309.07 169.22 310.96 168.05 311.94 167.45 314.82 165.53 315.66 164.92 317.69 163.43 319.74 161.8 320.57 161.1 323.29 158.67 323.44 158.52 326.32 155.63 326.41 155.54 329.14 152.41 329.19 152.35 331.55 149.28 332.07 148.53" clip-path="url(#cpMzMuMjN8MzQ2LjMwfDM0Ni4yOHw1LjQ4)" style="stroke-width:1.07;stroke:#36f;stroke-linecap:butt"/><polyline points="47.46 319.67 49.76 321.4 50.34 321.81 53.21 323.62 54.9 324.53 56.09 325.14 58.96 326.4 61.84 327.41 62.72 327.66 64.71 328.22 67.59 328.82 70.46 329.22 73.34 329.44 76.21 329.47 79.09 329.32 81.96 329 84.84 328.49 87.71 327.8 88.18 327.66 90.58 326.93 93.46 325.88 96.33 324.6 96.48 324.53 99.21 323.13 102.08 321.42 102.11 321.4 104.96 319.47 106.54 318.27 107.83 317.24 110.23 315.14 110.71 314.7 113.4 312.01 113.58 311.81 116.16 308.88 116.46 308.51 118.59 305.75 119.33 304.69 120.74 302.62 122.21 300.22 122.65 299.49 124.35 296.36 125.08 294.84 125.86 293.23 127.18 290.1 127.96 287.99 128.34 286.97 129.35 283.84 130.2 280.71 130.83 277.89 130.9 277.58 131.49 274.46 131.94 271.33 132.25 268.2 132.44 265.07 132.52 261.94 132.48 258.81 132.34 255.68 132.09 252.55 131.73 249.42 131.27 246.29 130.83 243.86 130.71 243.16 130.05 240.03 129.26 236.9 128.32 233.77 127.96 232.7 127.23 230.64 125.95 227.51 125.08 225.71 124.42 224.38 122.58 221.25 122.21 220.69 120.36 218.13 119.33 216.88 117.61 215 116.46 213.87 114.13 211.87 113.58 211.44 110.71 209.46 109.46 208.74 107.83 207.85 104.96 206.54 102.4 205.61 102.08 205.5 99.21 204.67 96.33 204.06 93.46 203.64 90.58 203.41 87.71 203.33 84.84 203.42 81.96 203.67 79.09 204.07 76.21 204.63 73.34 205.36 72.52 205.61 70.46 206.23 67.59 207.26 64.71 208.5 64.22 208.74 61.84 209.9 58.96 211.53 58.43 211.87 56.09 213.37 53.86 215 53.21 215.49 50.34 217.9 50.09 218.13 47.46 220.65" clip-path="url(#cpMzMuMjN8MzQ2LjMwfDM0Ni4yOHw1LjQ4)" style="stroke-width:1.07;stroke:#36f;stroke-linecap:butt"/><polyline points="332.07 84.66 331.68 83.56 330.45 80.43 329.19 77.71 329 77.3 327.35 74.17 326.32 72.44 325.44 71.04 323.44 68.19 323.23 67.91 320.67 64.78 320.57 64.67 317.69 61.69 317.66 61.65 314.82 59.14 314.03 58.52 311.94 56.96 309.54 55.39 309.07 55.1 306.19 53.49 303.58 52.26 303.32 52.15 300.44 50.99 297.57 50.05 294.69 49.3 293.9 49.14 291.82 48.7 288.94 48.26 286.07 47.97 283.2 47.82 280.32 47.81 277.45 47.94 274.57 48.2 271.7 48.58 268.82 49.1 268.67 49.14 265.95 49.72 263.07 50.46 260.2 51.33 257.53 52.26 257.32 52.33 254.45 53.42 251.57 54.65 250 55.39 248.7 55.99 245.82 57.45 243.87 58.52 242.95 59.03 240.07 60.71 238.58 61.65 237.2 62.52 234.32 64.46 233.86 64.78 231.45 66.51 229.61 67.91 228.57 68.71 225.74 71.04 225.7 71.08 222.82 73.61 222.21 74.17 219.95 76.36 219.02 77.3 217.08 79.38 216.13 80.43 214.2 82.76 213.56 83.56 211.33 86.62 211.27 86.69 209.25 89.82 208.45 91.24 207.5 92.95 206 96.08 205.58 97.13 204.73 99.21 203.68 102.34 202.86 105.47 202.7 106.22 202.2 108.59 201.73 111.72 201.42 114.85 201.28 117.98 201.29 121.11 201.45 124.24 201.74 127.37 202.17 130.5 202.7 133.4 202.74 133.63 203.43 136.76 204.27 139.89 205.28 143.02 205.58 143.84 206.43 146.15 207.79 149.28 208.45 150.63 209.36 152.41 211.2 155.54 211.33 155.74 213.35 158.67 214.2 159.76 215.92 161.8 217.08 163.03 219.04 164.92 219.95 165.73 222.82 167.97 222.95 168.05 225.7 169.85 228.12 171.18 228.57 171.42 231.45 172.75 234.32 173.83 235.84 174.31 237.2 174.74 240.07 175.48 242.95 176.06 245.82 176.5 248.7 176.81 251.57 177 254.45 177.09 257.32 177.08 260.2 176.98 263.07 176.78 265.95 176.5 268.82 176.14 271.7 175.69 274.57 175.16 277.45 174.53 278.34 174.31 280.32 173.85 283.2 173.08 286.07 172.22 288.94 171.25 289.12 171.18 291.82 170.22 294.69 169.07 296.98 168.05 297.57 167.8 300.44 166.43 303.26 164.92 303.32 164.9 306.19 163.25 308.47 161.8 309.07 161.4 311.94 159.38 312.88 158.67 314.82 157.12 316.66 155.54 317.69 154.59 319.92 152.41 320.57 151.72 322.75 149.28 323.44 148.42 325.2 146.15 326.32 144.53 327.33 143.02 329.15 139.89 329.19 139.81 330.74 136.76 332.06 133.63 332.07 133.61" clip-path="url(#cpMzMuMjN8MzQ2LjMwfDM0Ni4yOHw1LjQ4)" style="stroke-width:1.07;stroke:#36f;stroke-linecap:butt"/><polyline points="47.46 307.7 48.52 308.88 50.34 310.72 51.79 312.01 53.21 313.18 56.01 315.14 56.09 315.19 58.96 316.82 61.84 318.13 62.22 318.27 64.71 319.15 67.59 319.91 70.46 320.43 73.34 320.71 76.21 320.77 79.09 320.62 81.96 320.25 84.84 319.66 87.71 318.84 89.3 318.27 90.58 317.8 93.46 316.51 96.02 315.14 96.33 314.96 99.21 313.13 100.75 312.01 102.08 310.98 104.53 308.88 104.96 308.48 107.66 305.75 107.83 305.56 110.31 302.62 110.71 302.1 112.6 299.49 113.58 297.97 114.58 296.36 116.29 293.23 116.46 292.89 117.78 290.1 119.05 286.97 119.33 286.15 120.13 283.84 121.03 280.71 121.76 277.58 122.21 275.06 122.32 274.46 122.74 271.33 123.01 268.2 123.13 265.07 123.12 261.94 122.97 258.81 122.69 255.68 122.27 252.55 122.21 252.19 121.73 249.42 121.05 246.29 120.21 243.16 119.33 240.44 119.2 240.03 118 236.9 116.56 233.77 116.46 233.57 114.83 230.64 113.58 228.71 112.74 227.51 110.71 225.01 110.13 224.38 107.83 222.14 106.78 221.25 104.96 219.87 102.2 218.13 102.08 218.06 99.21 216.65 96.33 215.56 94.35 215 93.46 214.75 90.58 214.2 87.71 213.88 84.84 213.78 81.96 213.89 79.09 214.2 76.21 214.72 75.1 215 73.34 215.43 70.46 216.35 67.59 217.5 66.27 218.13 64.71 218.87 61.84 220.51 60.7 221.25 58.96 222.43 56.45 224.38 56.09 224.68 53.21 227.3 53 227.51 50.34 230.39 50.12 230.64 47.67 233.77 47.46 234.06" clip-path="url(#cpMzMuMjN8MzQ2LjMwfDM0Ni4yOHw1LjQ4)" style="stroke-width:1.07;stroke:#36f;stroke-linecap:butt"/><polyline points="280.32 55.18 277.45 55.26 275.74 55.39 274.57 55.48 271.7 55.84 268.82 56.34 265.95 56.97 263.07 57.74 260.61 58.52 260.2 58.65 257.32 59.66 254.45 60.83 252.62 61.65 251.57 62.12 248.7 63.53 246.38 64.78 245.82 65.09 242.95 66.76 241.13 67.91 240.07 68.59 237.2 70.56 236.54 71.04 234.32 72.69 232.46 74.17 231.45 75 228.82 77.3 228.57 77.52 225.7 80.29 225.56 80.43 222.82 83.37 222.65 83.56 220.08 86.69 219.95 86.87 217.82 89.82 217.08 90.98 215.85 92.95 214.2 96.02 214.17 96.08 212.73 99.21 211.56 102.34 211.33 103.11 210.61 105.47 209.87 108.59 209.34 111.72 209.01 114.85 208.86 117.98 208.89 121.11 209.09 124.24 209.45 127.37 209.98 130.5 210.69 133.63 211.33 135.86 211.58 136.76 212.65 139.89 213.94 143.02 214.2 143.56 215.46 146.15 217.08 148.96 217.27 149.28 219.4 152.41 219.95 153.12 221.97 155.54 222.82 156.46 225.09 158.67 225.7 159.21 228.57 161.48 229.02 161.8 231.45 163.39 234.24 164.92 234.32 164.97 237.2 166.3 240.07 167.38 242.23 168.05 242.95 168.27 245.82 168.99 248.7 169.54 251.57 169.95 254.45 170.22 257.32 170.37 260.2 170.4 263.07 170.33 265.95 170.15 268.82 169.86 271.7 169.48 274.57 169 277.45 168.42 278.99 168.05 280.32 167.75 283.2 166.98 286.07 166.11 288.94 165.11 289.42 164.92 291.82 164.01 294.69 162.78 296.76 161.8 297.57 161.41 300.44 159.89 302.54 158.67 303.32 158.2 306.19 156.31 307.27 155.54 309.07 154.18 311.23 152.41 311.94 151.79 314.6 149.28 314.82 149.06 317.48 146.15 317.69 145.89 319.94 143.02 320.57 142.12 322.05 139.89 323.44 137.48 323.85 136.76 325.37 133.63 326.32 131.29 326.63 130.5 327.69 127.37 328.52 124.24 329.16 121.11 329.19 120.89 329.64 117.98 329.94 114.85 330.09 111.72 330.08 108.59 329.92 105.47 329.61 102.34 329.19 99.52 329.15 99.21 328.54 96.08 327.78 92.95 326.84 89.82 326.32 88.35 325.71 86.69 324.39 83.56 323.44 81.62 322.84 80.43 321.02 77.3 320.57 76.59 318.9 74.17 317.69 72.6 316.39 71.04 314.82 69.31 313.41 67.91 311.94 66.56 309.77 64.78 309.07 64.24 306.19 62.28 305.13 61.65 303.32 60.62 300.44 59.23 298.69 58.52 297.57 58.08 294.69 57.13 291.82 56.4 288.94 55.85 286.07 55.47 285.11 55.39 283.2 55.24 280.32 55.18" clip-path="url(#cpMzMuMjN8MzQ2LjMwfDM0Ni4yOHw1LjQ4)" style="stroke-width:1.07;stroke:#36f;stroke-linecap:butt"/><polyline points="47.46 293.25 49.12 296.36 50.34 298.28 51.18 299.49 53.21 302.01 53.77 302.62 56.09 304.88 57.14 305.75 58.96 307.13 61.8 308.88 61.84 308.9 64.71 310.24 67.59 311.24 70.46 311.93 71.04 312.01 73.34 312.31 76.21 312.42 79.09 312.26 80.76 312.01 81.96 311.83 84.84 311.12 87.71 310.13 90.54 308.88 90.58 308.86 93.46 307.24 95.69 305.75 96.33 305.28 99.21 302.91 99.52 302.62 102.08 300.03 102.57 299.49 104.96 296.53 105.08 296.36 107.18 293.23 107.83 292.1 108.94 290.1 110.42 286.97 110.71 286.24 111.64 283.84 112.64 280.71 113.43 277.58 113.58 276.76 114.02 274.46 114.43 271.33 114.66 268.2 114.73 265.07 114.63 261.94 114.36 258.81 113.92 255.68 113.58 253.9 113.32 252.55 112.52 249.42 111.52 246.29 110.71 244.17 110.29 243.16 108.78 240.03 107.83 238.37 106.91 236.9 104.96 234.23 104.58 233.77 102.08 231.14 101.53 230.64 99.21 228.78 97.25 227.51 96.33 226.97 93.46 225.61 90.58 224.63 89.5 224.38 87.71 223.99 84.84 223.65 81.96 223.59 79.09 223.79 76.21 224.26 75.73 224.38 73.34 225 70.46 226 67.59 227.29 67.19 227.51 64.71 228.91 62.16 230.64 61.84 230.87 58.96 233.26 58.42 233.77 56.09 236.14 55.42 236.9 53.21 239.65 52.93 240.03 50.86 243.16 50.34 244.05 49.11 246.29 47.62 249.42 47.46 249.8" clip-path="url(#cpMzMuMjN8MzQ2LjMwfDM0Ni4yOHw1LjQ4)" style="stroke-width:1.07;stroke:#36f;stroke-linecap:butt"/><polyline points="288.94 62.76 286.07 62.27 283.2 61.97 280.32 61.83 277.45 61.86 274.57 62.05 271.7 62.39 268.82 62.88 265.95 63.53 263.07 64.32 261.65 64.78 260.2 65.25 257.32 66.32 254.45 67.54 253.67 67.91 251.57 68.91 248.7 70.42 247.63 71.04 245.82 72.09 242.95 73.93 242.6 74.17 240.07 75.95 238.29 77.3 237.2 78.16 234.51 80.43 234.32 80.6 231.45 83.31 231.2 83.56 228.57 86.38 228.3 86.69 225.76 89.82 225.7 89.9 223.55 92.95 222.82 94.13 221.66 96.08 220.07 99.21 219.95 99.49 218.75 102.34 217.69 105.47 217.08 107.83 216.88 108.59 216.28 111.72 215.92 114.85 215.76 117.98 215.81 121.11 216.06 124.24 216.51 127.37 217.08 130.05 217.17 130.5 218.03 133.63 219.13 136.76 219.95 138.69 220.48 139.89 222.11 143.02 222.82 144.2 224.08 146.15 225.7 148.33 226.46 149.28 228.57 151.6 229.38 152.41 231.45 154.26 233.06 155.54 234.32 156.45 237.2 158.27 237.93 158.67 240.07 159.77 242.95 161.01 245.19 161.8 245.82 162.01 248.7 162.82 251.57 163.44 254.45 163.9 257.32 164.21 260.2 164.38 263.07 164.42 265.95 164.33 268.82 164.13 271.7 163.81 274.57 163.38 277.45 162.83 280.32 162.16 281.63 161.8 283.2 161.37 286.07 160.47 288.94 159.42 290.78 158.67 291.82 158.24 294.69 156.9 297.29 155.54 297.57 155.38 300.44 153.68 302.36 152.41 303.32 151.74 306.19 149.54 306.51 149.28 309.07 147 309.96 146.15 311.94 144.05 312.86 143.02 314.82 140.54 315.3 139.89 317.37 136.76 317.69 136.19 319.1 133.63 320.54 130.5 320.57 130.42 321.72 127.37 322.66 124.24 323.37 121.11 323.44 120.69 323.89 117.98 324.22 114.85 324.37 111.72 324.33 108.59 324.13 105.47 323.75 102.34 323.44 100.62 323.19 99.21 322.45 96.08 321.52 92.95 320.57 90.33 320.37 89.82 318.99 86.69 317.69 84.19 317.35 83.56 315.38 80.43 314.82 79.63 313.04 77.3 311.94 76.01 310.21 74.17 309.07 73.06 306.72 71.04 306.19 70.62 303.32 68.59 302.2 67.91 300.44 66.89 297.57 65.5 295.77 64.78 294.69 64.36 291.82 63.45 288.94 62.76" clip-path="url(#cpMzMuMjN8MzQ2LjMwfDM0Ni4yOHw1LjQ4)" style="stroke-width:1.07;stroke:#36f;stroke-linecap:butt"/><polyline points="81.96 233.61 79.09 233.67 78.41 233.77 76.21 234.1 73.34 234.89 70.46 236.04 68.83 236.9 67.59 237.6 64.71 239.62 64.22 240.03 61.84 242.21 60.94 243.16 58.96 245.5 58.38 246.29 56.32 249.42 56.09 249.82 54.67 252.55 53.31 255.68 53.21 255.96 52.27 258.81 51.46 261.94 50.88 265.07 50.51 268.2 50.37 271.33 50.46 274.46 50.78 277.58 51.35 280.71 52.18 283.84 53.21 286.77 53.29 286.97 54.82 290.1 56.09 292.22 56.78 293.23 58.96 295.93 59.38 296.36 61.84 298.58 63.09 299.49 64.71 300.55 67.59 301.97 69.47 302.62 70.46 302.94 73.34 303.48 76.21 303.67 79.09 303.5 81.96 302.99 83.2 302.62 84.84 302.1 87.71 300.83 90.06 299.49 90.58 299.16 93.46 296.99 94.16 296.36 96.33 294.21 97.2 293.23 99.21 290.63 99.58 290.1 101.47 286.97 102.08 285.76 102.99 283.84 104.19 280.71 104.96 278.13 105.11 277.58 105.77 274.46 106.2 271.33 106.41 268.2 106.41 265.07 106.19 261.94 105.75 258.81 105.09 255.68 104.96 255.22 104.15 252.55 102.93 249.42 102.08 247.65 101.36 246.29 99.33 243.16 99.21 243 96.6 240.03 96.33 239.77 93.46 237.45 92.59 236.9 90.58 235.78 87.71 234.63 84.84 233.92 83.53 233.77 81.96 233.61" clip-path="url(#cpMzMuMjN8MzQ2LjMwfDM0Ni4yOHw1LjQ4)" style="stroke-width:1.07;stroke:#36f;stroke-linecap:butt"/><polyline points="291.82 70.16 288.94 69.31 286.07 68.69 283.2 68.28 280.32 68.07 277.45 68.05 274.57 68.2 271.7 68.52 268.82 69 265.95 69.65 263.07 70.47 261.39 71.04 260.2 71.45 257.32 72.58 254.45 73.89 253.89 74.17 251.57 75.36 248.7 77.02 248.25 77.3 245.82 78.87 243.63 80.43 242.95 80.93 240.07 83.24 239.7 83.56 237.2 85.85 236.34 86.69 234.32 88.83 233.44 89.82 231.45 92.3 230.95 92.95 228.83 96.08 228.57 96.51 227.04 99.21 225.7 102.06 225.57 102.34 224.39 105.47 223.48 108.59 222.84 111.72 222.82 111.85 222.44 114.85 222.29 117.98 222.37 121.11 222.68 124.24 222.82 125.05 223.24 127.37 224.04 130.5 225.1 133.63 225.7 135.04 226.46 136.76 228.16 139.89 228.57 140.55 230.25 143.02 231.45 144.53 232.85 146.15 234.32 147.65 236.13 149.28 237.2 150.15 240.07 152.19 240.42 152.41 242.95 153.85 245.82 155.21 246.63 155.54 248.7 156.31 251.57 157.18 254.45 157.84 257.32 158.33 260.2 158.64 260.64 158.67 263.07 158.8 265.95 158.81 268.82 158.68 269.03 158.67 271.7 158.42 274.57 158.02 277.45 157.49 280.32 156.82 283.2 156.01 284.61 155.54 286.07 155.05 288.94 153.92 291.82 152.63 292.26 152.41 294.69 151.13 297.57 149.43 297.8 149.28 300.44 147.45 302.13 146.15 303.32 145.16 305.66 143.02 306.19 142.48 308.57 139.89 309.07 139.28 310.98 136.76 311.94 135.3 312.99 133.63 314.63 130.5 314.82 130.08 315.97 127.37 317.03 124.24 317.69 121.66 317.83 121.11 318.4 117.98 318.76 114.85 318.9 111.72 318.84 108.59 318.57 105.47 318.11 102.34 317.69 100.41 317.43 99.21 316.53 96.08 315.38 92.95 314.82 91.66 313.96 89.82 312.24 86.69 311.94 86.22 310.12 83.56 309.07 82.2 307.54 80.43 306.19 79.02 304.32 77.3 303.32 76.46 300.44 74.36 300.14 74.17 297.57 72.65 294.69 71.27 294.12 71.04 291.82 70.16" clip-path="url(#cpMzMuMjN8MzQ2LjMwfDM0Ni4yOHw1LjQ4)" style="stroke-width:1.07;stroke:#36f;stroke-linecap:butt"/><polyline points="84.84 246.05 81.96 245.31 79.09 245.13 76.21 245.49 73.64 246.29 73.34 246.39 70.46 247.94 68.47 249.42 67.59 250.16 65.35 252.55 64.71 253.35 63.17 255.68 61.84 258.12 61.51 258.81 60.37 261.94 59.55 265.07 59.06 268.2 58.96 270.08 58.91 271.33 58.96 272.36 59.09 274.46 59.64 277.58 60.57 280.71 61.84 283.67 61.93 283.84 64.03 286.97 64.71 287.78 67.21 290.1 67.59 290.39 70.46 292.01 73.34 292.99 75.17 293.23 76.21 293.36 78.37 293.23 79.09 293.19 81.96 292.45 84.84 291.18 86.55 290.1 87.71 289.27 90.18 286.97 90.58 286.53 92.59 283.84 93.46 282.42 94.36 280.71 95.62 277.58 96.33 275.13 96.51 274.46 97.01 271.33 97.19 268.2 97.06 265.07 96.62 261.94 96.33 260.73 95.8 258.81 94.55 255.68 93.46 253.63 92.76 252.55 90.58 249.87 90.11 249.42 87.71 247.54 85.35 246.29 84.84 246.05" clip-path="url(#cpMzMuMjN8MzQ2LjMwfDM0Ni4yOHw1LjQ4)" style="stroke-width:1.07;stroke:#36f;stroke-linecap:butt"/><polyline points="280.32 74.1 277.45 74.01 274.57 74.12 274.05 74.17 271.7 74.42 268.82 74.9 265.95 75.57 263.07 76.43 260.66 77.3 260.2 77.47 257.32 78.7 254.45 80.13 253.9 80.43 251.57 81.77 248.8 83.56 248.7 83.63 245.82 85.77 244.69 86.69 242.95 88.22 241.26 89.82 240.07 91.05 238.37 92.95 237.2 94.41 235.94 96.08 234.32 98.55 233.91 99.21 232.26 102.34 231.45 104.23 230.94 105.47 229.93 108.59 229.22 111.72 228.8 114.85 228.65 117.98 228.78 121.11 229.18 124.24 229.87 127.37 230.86 130.5 231.45 131.92 232.2 133.63 233.92 136.76 234.32 137.38 236.12 139.89 237.2 141.18 238.93 143.02 240.07 144.09 242.6 146.15 242.95 146.4 245.82 148.23 247.79 149.28 248.7 149.72 251.57 150.89 254.45 151.81 256.92 152.41 257.32 152.5 260.2 152.98 263.07 153.27 265.95 153.39 268.82 153.34 271.7 153.13 274.57 152.77 276.54 152.41 277.45 152.24 280.32 151.55 283.2 150.69 286.07 149.65 286.95 149.28 288.94 148.41 291.82 146.95 293.2 146.15 294.69 145.23 297.57 143.23 297.85 143.02 300.44 140.83 301.46 139.89 303.32 137.96 304.38 136.76 306.19 134.41 306.76 133.63 308.68 130.5 309.07 129.74 310.22 127.37 311.42 124.24 311.94 122.49 312.34 121.11 312.97 117.98 313.35 114.85 313.49 111.72 313.39 108.59 313.05 105.47 312.47 102.34 311.94 100.32 311.64 99.21 310.51 96.08 309.08 92.95 309.07 92.92 307.26 89.82 306.19 88.26 305 86.69 303.32 84.77 302.12 83.56 300.44 82.04 298.36 80.43 297.57 79.87 294.69 78.15 292.95 77.3 291.82 76.78 288.94 75.73 286.07 74.94 283.2 74.41 280.97 74.17 280.32 74.1" clip-path="url(#cpMzMuMjN8MzQ2LjMwfDM0Ni4yOHw1LjQ4)" style="stroke-width:1.07;stroke:#36f;stroke-linecap:butt"/><polyline points="79.09 267.08 79.88 268.2 79.78 271.33 79.09 272.31 76.21 272.32 75.58 271.33 75.72 268.2 76.21 267.46 79.09 267.08" clip-path="url(#cpMzMuMjN8MzQ2LjMwfDM0Ni4yOHw1LjQ4)" style="stroke-width:1.07;stroke:#36f;stroke-linecap:butt"/><polyline points="280.32 80.14 277.45 79.97 274.57 80.02 271.7 80.3 270.92 80.43 268.82 80.79 265.95 81.5 263.07 82.43 260.2 83.56 260.2 83.56 257.32 84.95 254.45 86.56 254.24 86.69 251.57 88.48 249.8 89.82 248.7 90.72 246.23 92.95 245.82 93.36 243.33 96.08 242.95 96.56 240.98 99.21 240.07 100.65 239.07 102.34 237.57 105.47 237.2 106.46 236.44 108.59 235.66 111.72 235.2 114.85 235.07 117.98 235.27 121.11 235.8 124.24 236.67 127.37 237.2 128.71 237.95 130.5 239.68 133.63 240.07 134.21 241.99 136.76 242.95 137.83 245.06 139.89 245.82 140.54 248.7 142.62 249.35 143.02 251.57 144.24 254.45 145.5 256.32 146.15 257.32 146.47 260.2 147.15 263.07 147.61 265.95 147.85 268.82 147.9 271.7 147.75 274.57 147.41 277.45 146.88 280.32 146.15 280.34 146.15 283.2 145.2 286.07 144.04 288.18 143.02 288.94 142.62 291.82 140.9 293.29 139.89 294.69 138.83 297.11 136.76 297.57 136.31 300.06 133.63 300.44 133.15 302.38 130.5 303.32 128.96 304.22 127.37 305.63 124.24 306.19 122.61 306.68 121.11 307.4 117.98 307.82 114.85 307.95 111.72 307.8 108.59 307.35 105.47 306.62 102.34 306.19 101.05 305.54 99.21 304.09 96.08 303.32 94.72 302.19 92.95 300.44 90.65 299.72 89.82 297.57 87.67 296.41 86.69 294.69 85.39 291.82 83.61 291.71 83.56 288.94 82.28 286.07 81.28 283.2 80.57 282.27 80.43 280.32 80.14" clip-path="url(#cpMzMuMjN8MzQ2LjMwfDM0Ni4yOHw1LjQ4)" style="stroke-width:1.07;stroke:#36f;stroke-linecap:butt"/><polyline points="280.32 86.48 277.45 86.19 274.57 86.18 271.7 86.43 270.22 86.69 268.82 86.95 265.95 87.73 263.07 88.77 260.73 89.82 260.2 90.08 257.32 91.73 255.49 92.95 254.45 93.72 251.63 96.08 251.57 96.13 248.7 99.17 248.67 99.21 246.38 102.34 245.82 103.27 244.61 105.47 243.29 108.59 242.95 109.77 242.41 111.72 241.93 114.85 241.84 117.98 242.14 121.11 242.85 124.24 242.95 124.52 244.06 127.37 245.79 130.5 245.82 130.55 248.26 133.63 248.7 134.07 251.57 136.6 251.79 136.76 254.45 138.43 257.32 139.85 257.42 139.89 260.2 140.84 263.07 141.53 265.95 141.95 268.82 142.11 271.7 142.02 274.57 141.7 277.45 141.14 280.32 140.35 281.59 139.89 283.2 139.26 286.07 137.87 287.99 136.76 288.94 136.14 291.82 133.97 292.21 133.63 294.69 131.15 295.27 130.5 297.57 127.42 297.6 127.37 299.32 124.24 300.44 121.51 300.6 121.11 301.43 117.98 301.9 114.85 302.01 111.72 301.77 108.59 301.17 105.47 300.44 103.1 300.18 102.34 298.7 99.21 297.57 97.36 296.66 96.08 294.69 93.79 293.83 92.95 291.82 91.27 289.66 89.82 288.94 89.39 286.07 88.05 283.2 87.09 281.35 86.69 280.32 86.48" clip-path="url(#cpMzMuMjN8MzQ2LjMwfDM0Ni4yOHw1LjQ4)" style="stroke-width:1.07;stroke:#36f;stroke-linecap:butt"/><polyline points="286.07 96.04 283.2 94.63 280.32 93.69 277.45 93.17 274.57 93.05 271.7 93.29 268.82 93.87 265.95 94.79 263.07 96.04 263 96.08 260.2 97.8 258.28 99.21 257.32 100.04 255.03 102.34 254.45 103.05 252.71 105.47 251.57 107.55 251.06 108.59 250.01 111.72 249.47 114.85 249.45 117.98 249.97 121.11 251.07 124.24 251.57 125.17 252.95 127.37 254.45 129.12 255.88 130.5 257.32 131.61 260.2 133.32 260.9 133.63 263.07 134.44 265.95 135.14 268.82 135.48 271.7 135.5 274.57 135.19 277.45 134.57 280.32 133.63 280.33 133.63 283.2 132.21 285.94 130.5 286.07 130.41 288.94 127.86 289.41 127.37 291.82 124.28 291.85 124.24 293.47 121.11 294.57 117.98 294.69 117.33 295.12 114.85 295.2 111.72 294.81 108.59 294.69 108.17 293.86 105.47 292.32 102.34 291.82 101.58 289.91 99.21 288.94 98.26 286.12 96.08 286.07 96.04" clip-path="url(#cpMzMuMjN8MzQ2LjMwfDM0Ni4yOHw1LjQ4)" style="stroke-width:1.07;stroke:#36f;stroke-linecap:butt"/><polyline points="274.57 102.1 271.7 102.27 271.44 102.34 268.82 103.11 265.95 104.56 264.66 105.47 263.07 106.95 261.69 108.59 260.2 111.31 260.01 111.72 259.37 114.85 259.58 117.98 260.2 119.74 260.82 121.11 263.07 123.78 263.63 124.24 265.95 125.55 268.82 126.48 271.7 126.76 274.57 126.44 277.45 125.53 279.95 124.24 280.32 123.99 283.2 121.29 283.34 121.11 285.08 117.98 285.94 114.85 285.89 111.72 284.87 108.59 283.2 106.04 282.67 105.47 280.32 103.76 277.45 102.51 276.39 102.34 274.57 102.1" clip-path="url(#cpMzMuMjN8MzQ2LjMwfDM0Ni4yOHw1LjQ4)" style="stroke-width:1.07;stroke:#36f;stroke-linecap:butt"/><defs><clipPath id="cpMC4wMHw1MDQuMDB8Mzc4LjAwfDAuMDA="><rect width="504" height="378" x="0" y="0"/></clipPath></defs><g clip-path="url(#cpMC4wMHw1MDQuMDB8Mzc4LjAwfDAuMDA=)"><text x="18.51" y="293.02" lengthAdjust="spacingAndGlyphs" textLength="9.79" style="font-size:8.8px;fill:#4d4d4d;font-family:Arial">50</text></g><g clip-path="url(#cpMC4wMHw1MDQuMDB8Mzc4LjAwfDAuMDA=)"><text x="18.51" y="234.56" lengthAdjust="spacingAndGlyphs" textLength="9.79" style="font-size:8.8px;fill:#4d4d4d;font-family:Arial">60</text></g><g clip-path="url(#cpMC4wMHw1MDQuMDB8Mzc4LjAwfDAuMDA=)"><text x="18.51" y="176.1" lengthAdjust="spacingAndGlyphs" textLength="9.79" style="font-size:8.8px;fill:#4d4d4d;font-family:Arial">70</text></g><g clip-path="url(#cpMC4wMHw1MDQuMDB8Mzc4LjAwfDAuMDA=)"><text x="18.51" y="117.65" lengthAdjust="spacingAndGlyphs" textLength="9.79" style="font-size:8.8px;fill:#4d4d4d;font-family:Arial">80</text></g><g clip-path="url(#cpMC4wMHw1MDQuMDB8Mzc4LjAwfDAuMDA=)"><text x="18.51" y="59.19" lengthAdjust="spacingAndGlyphs" textLength="9.79" style="font-size:8.8px;fill:#4d4d4d;font-family:Arial">90</text></g><g clip-path="url(#cpMC4wMHw1MDQuMDB8Mzc4LjAwfDAuMDA=)"><text x="77.54" y="357.51" lengthAdjust="spacingAndGlyphs" textLength="4.89" style="font-size:8.8px;fill:#4d4d4d;font-family:Arial">2</text></g><g clip-path="url(#cpMC4wMHw1MDQuMDB8Mzc4LjAwfDAuMDA=)"><text x="158.86" y="357.51" lengthAdjust="spacingAndGlyphs" textLength="4.89" style="font-size:8.8px;fill:#4d4d4d;font-family:Arial">3</text></g><g clip-path="url(#cpMC4wMHw1MDQuMDB8Mzc4LjAwfDAuMDA=)"><text x="240.17" y="357.51" lengthAdjust="spacingAndGlyphs" textLength="4.89" style="font-size:8.8px;fill:#4d4d4d;font-family:Arial">4</text></g><g clip-path="url(#cpMC4wMHw1MDQuMDB8Mzc4LjAwfDAuMDA=)"><text x="321.49" y="357.51" lengthAdjust="spacingAndGlyphs" textLength="4.89" style="font-size:8.8px;fill:#4d4d4d;font-family:Arial">5</text></g><g clip-path="url(#cpMC4wMHw1MDQuMDB8Mzc4LjAwfDAuMDA=)"><text x="167.14" y="370.1" lengthAdjust="spacingAndGlyphs" textLength="45.25" style="font-size:11px;font-family:Arial">eruptions</text></g><g clip-path="url(#cpMC4wMHw1MDQuMDB8Mzc4LjAwfDAuMDA=)"><text style="font-size:11px;font-family:Arial" lengthAdjust="spacingAndGlyphs" textLength="34.24" transform="translate(13.35,193.00) rotate(-90)">waiting</text></g><g clip-path="url(#cpMC4wMHw1MDQuMDB8Mzc4LjAwfDAuMDA=)"><text x="362.74" y="159.8" lengthAdjust="spacingAndGlyphs" textLength="130.82" style="font-size:11px;font-family:Arial">factor(mix_waiting$cluster)</text></g><circle cx="371.38" cy="175.14" r="1.95" clip-path="url(#cpMC4wMHw1MDQuMDB8Mzc4LjAwfDAuMDA=)" style="stroke-width:.71;stroke:#f8766d;fill:#f8766d"/><line x1="364.46" x2="378.29" y1="175.14" y2="175.14" clip-path="url(#cpMC4wMHw1MDQuMDB8Mzc4LjAwfDAuMDA=)" style="stroke-width:1.07;stroke:#f8766d;stroke-linecap:butt"/><circle cx="371.38" cy="192.42" r="1.95" clip-path="url(#cpMC4wMHw1MDQuMDB8Mzc4LjAwfDAuMDA=)" style="stroke-width:.71;stroke:#00bfc4;fill:#00bfc4"/><line x1="364.46" x2="378.29" y1="192.42" y2="192.42" clip-path="url(#cpMC4wMHw1MDQuMDB8Mzc4LjAwfDAuMDA=)" style="stroke-width:1.07;stroke:#00bfc4;stroke-linecap:butt"/><g clip-path="url(#cpMC4wMHw1MDQuMDB8Mzc4LjAwfDAuMDA=)"><text x="385.49" y="178.29" lengthAdjust="spacingAndGlyphs" textLength="4.89" style="font-size:8.8px;font-family:Arial">1</text></g><g clip-path="url(#cpMC4wMHw1MDQuMDB8Mzc4LjAwfDAuMDA=)"><text x="385.49" y="195.57" lengthAdjust="spacingAndGlyphs" textLength="4.89" style="font-size:8.8px;font-family:Arial">2</text></g></svg>