<svg xmlns="http://www.w3.org/2000/svg" xmlns:xlink="http://www.w3.org/1999/xlink" viewBox="0 0 504 378"><defs><style type="text/css">line,polyline,rect{fill:none;stroke:#000;stroke-linecap:round;stroke-linejoin:round;stroke-miterlimit:10}</style></defs><rect width="100%" height="100%" style="stroke:none;fill:none"/><defs><clipPath id="cpNTkuMDR8NDczLjc2fDMwNC41Nnw1OS4wNA=="><rect width="414.72" height="245.52" x="59.04" y="59.04"/></clipPath></defs><polyline points="74.4 68.13 79.97 68.13 85.53 111.5 91.1 139.86 96.66 168.4 102.23 196.07 107.79 221.71 113.36 244.19 118.92 262.59 124.49 276.43 130.05 285.77 135.62 291.28 141.18 294.02 146.75 295.09 152.31 295.4 157.88 295.46 163.44 295.47 169.01 295.47 174.57 295.47 180.14 295.47 185.7 295.47 191.27 295.47 196.83 295.47 202.4 295.47 207.97 295.47 213.53 295.47 219.1 295.47 224.66 295.47 230.23 295.47 235.79 295.47 241.36 295.47 246.92 295.47 252.49 295.47 258.05 295.47 263.62 295.47 269.18 295.47 274.75 295.47 280.31 295.47 285.88 295.47 291.44 295.47 297.01 295.47 302.57 295.47 308.14 295.47 313.7 295.47 319.27 295.47 324.83 295.47 330.4 295.47 335.97 295.47 341.53 295.47 347.1 295.47 352.66 295.47 358.23 295.47 363.79 295.47 369.36 295.47 374.92 295.47 380.49 295.47 386.05 295.47 391.62 295.47 397.18 295.47 402.75 295.47 408.31 295.47 413.88 295.47 419.44 295.47 425.01 295.47 430.57 295.47 436.14 295.47 441.7 295.47 447.27 295.47 452.83 295.47 458.4 295.47" clip-path="url(#cpNTkuMDR8NDczLjc2fDMwNC41Nnw1OS4wNA==)" style="stroke-width:.75"/><defs><clipPath id="cpMC4wMHw1MDQuMDB8Mzc4LjAwfDAuMDA="><rect width="504" height="378" x="0" y="0"/></clipPath></defs><line x1="68.83" x2="458.4" y1="304.56" y2="304.56" clip-path="url(#cpMC4wMHw1MDQuMDB8Mzc4LjAwfDAuMDA=)" style="stroke-width:.75"/><line x1="68.83" x2="68.83" y1="304.56" y2="311.76" clip-path="url(#cpMC4wMHw1MDQuMDB8Mzc4LjAwfDAuMDA=)" style="stroke-width:.75"/><line x1="124.49" x2="124.49" y1="304.56" y2="311.76" clip-path="url(#cpMC4wMHw1MDQuMDB8Mzc4LjAwfDAuMDA=)" style="stroke-width:.75"/><line x1="180.14" x2="180.14" y1="304.56" y2="311.76" clip-path="url(#cpMC4wMHw1MDQuMDB8Mzc4LjAwfDAuMDA=)" style="stroke-width:.75"/><line x1="235.79" x2="235.79" y1="304.56" y2="311.76" clip-path="url(#cpMC4wMHw1MDQuMDB8Mzc4LjAwfDAuMDA=)" style="stroke-width:.75"/><line x1="291.44" x2="291.44" y1="304.56" y2="311.76" clip-path="url(#cpMC4wMHw1MDQuMDB8Mzc4LjAwfDAuMDA=)" style="stroke-width:.75"/><line x1="347.1" x2="347.1" y1="304.56" y2="311.76" clip-path="url(#cpMC4wMHw1MDQuMDB8Mzc4LjAwfDAuMDA=)" style="stroke-width:.75"/><line x1="402.75" x2="402.75" y1="304.56" y2="311.76" clip-path="url(#cpMC4wMHw1MDQuMDB8Mzc4LjAwfDAuMDA=)" style="stroke-width:.75"/><line x1="458.4" x2="458.4" y1="304.56" y2="311.76" clip-path="url(#cpMC4wMHw1MDQuMDB8Mzc4LjAwfDAuMDA=)" style="stroke-width:.75"/><g clip-path="url(#cpMC4wMHw1MDQuMDB8Mzc4LjAwfDAuMDA=)"><text x="65.5" y="330.48" lengthAdjust="spacingAndGlyphs" textLength="6.67" style="font-size:12px;font-family:Arial">0</text></g><g clip-path="url(#cpMC4wMHw1MDQuMDB8Mzc4LjAwfDAuMDA=)"><text x="117.81" y="330.48" lengthAdjust="spacingAndGlyphs" textLength="13.35" style="font-size:12px;font-family:Arial">10</text></g><g clip-path="url(#cpMC4wMHw1MDQuMDB8Mzc4LjAwfDAuMDA=)"><text x="173.47" y="330.48" lengthAdjust="spacingAndGlyphs" textLength="13.35" style="font-size:12px;font-family:Arial">20</text></g><g clip-path="url(#cpMC4wMHw1MDQuMDB8Mzc4LjAwfDAuMDA=)"><text x="229.12" y="330.48" lengthAdjust="spacingAndGlyphs" textLength="13.35" style="font-size:12px;font-family:Arial">30</text></g><g clip-path="url(#cpMC4wMHw1MDQuMDB8Mzc4LjAwfDAuMDA=)"><text x="284.77" y="330.48" lengthAdjust="spacingAndGlyphs" textLength="13.35" style="font-size:12px;font-family:Arial">40</text></g><g clip-path="url(#cpMC4wMHw1MDQuMDB8Mzc4LjAwfDAuMDA=)"><text x="340.42" y="330.48" lengthAdjust="spacingAndGlyphs" textLength="13.35" style="font-size:12px;font-family:Arial">50</text></g><g clip-path="url(#cpMC4wMHw1MDQuMDB8Mzc4LjAwfDAuMDA=)"><text x="396.07" y="330.48" lengthAdjust="spacingAndGlyphs" textLength="13.35" style="font-size:12px;font-family:Arial">60</text></g><g clip-path="url(#cpMC4wMHw1MDQuMDB8Mzc4LjAwfDAuMDA=)"><text x="451.73" y="330.48" lengthAdjust="spacingAndGlyphs" textLength="13.35" style="font-size:12px;font-family:Arial">70</text></g><line x1="59.04" x2="59.04" y1="269.67" y2="88.85" clip-path="url(#cpMC4wMHw1MDQuMDB8Mzc4LjAwfDAuMDA=)" style="stroke-width:.75"/><line x1="59.04" x2="51.84" y1="269.67" y2="269.67" clip-path="url(#cpMC4wMHw1MDQuMDB8Mzc4LjAwfDAuMDA=)" style="stroke-width:.75"/><line x1="59.04" x2="51.84" y1="233.51" y2="233.51" clip-path="url(#cpMC4wMHw1MDQuMDB8Mzc4LjAwfDAuMDA=)" style="stroke-width:.75"/><line x1="59.04" x2="51.84" y1="197.34" y2="197.34" clip-path="url(#cpMC4wMHw1MDQuMDB8Mzc4LjAwfDAuMDA=)" style="stroke-width:.75"/><line x1="59.04" x2="51.84" y1="161.18" y2="161.18" clip-path="url(#cpMC4wMHw1MDQuMDB8Mzc4LjAwfDAuMDA=)" style="stroke-width:.75"/><line x1="59.04" x2="51.84" y1="125.02" y2="125.02" clip-path="url(#cpMC4wMHw1MDQuMDB8Mzc4LjAwfDAuMDA=)" style="stroke-width:.75"/><line x1="59.04" x2="51.84" y1="88.85" y2="88.85" clip-path="url(#cpMC4wMHw1MDQuMDB8Mzc4LjAwfDAuMDA=)" style="stroke-width:.75"/><g clip-path="url(#cpMC4wMHw1MDQuMDB8Mzc4LjAwfDAuMDA=)"><text style="font-size:12px;font-family:Arial" lengthAdjust="spacingAndGlyphs" textLength="26.7" transform="translate(41.76,283.02) rotate(-90)">1200</text></g><g clip-path="url(#cpMC4wMHw1MDQuMDB8Mzc4LjAwfDAuMDA=)"><text style="font-size:12px;font-family:Arial" lengthAdjust="spacingAndGlyphs" textLength="26.7" transform="translate(41.76,210.69) rotate(-90)">1600</text></g><g clip-path="url(#cpMC4wMHw1MDQuMDB8Mzc4LjAwfDAuMDA=)"><text style="font-size:12px;font-family:Arial" lengthAdjust="spacingAndGlyphs" textLength="26.7" transform="translate(41.76,138.36) rotate(-90)">2000</text></g><g clip-path="url(#cpMC4wMHw1MDQuMDB8Mzc4LjAwfDAuMDA=)"><text x="251.72" y="359.28" lengthAdjust="spacingAndGlyphs" textLength="29.36" style="font-size:12px;font-family:Arial">Index</text></g><g clip-path="url(#cpMC4wMHw1MDQuMDB8Mzc4LjAwfDAuMDA=)"><text style="font-size:12px;font-family:Arial" lengthAdjust="spacingAndGlyphs" textLength="21.34" transform="translate(12.96,192.47) rotate(-90)">loss</text></g></svg>