<svg xmlns="http://www.w3.org/2000/svg" xmlns:xlink="http://www.w3.org/1999/xlink" viewBox="0 0 504 378"><defs><style type="text/css">circle,polygon,polyline,rect{fill:none;stroke:#000;stroke-linecap:round;stroke-linejoin:round;stroke-miterlimit:10}</style></defs><rect width="100%" height="100%" style="stroke:none;fill:none"/><rect width="504" height="378" x="0" y="0" style="stroke-width:1.07;stroke:none"/><defs><clipPath id="cpNDEuOTB8NDk4LjUyfDM0OS40NXwyNy44MA=="><rect width="456.62" height="321.64" x="41.9" y="27.8"/></clipPath></defs><polygon points="62.65 88.27 64.74 91.72 66.82 95.37 68.91 99.19 71 103.12 73.08 107.11 75.17 111.07 77.25 114.93 79.34 118.59 81.43 121.96 83.51 124.94 85.6 127.44 87.68 129.39 89.77 130.73 91.86 131.43 93.94 131.48 96.03 130.94 98.11 129.87 100.2 128.36 102.29 126.52 104.37 124.43 106.46 122.19 108.54 119.85 110.63 117.42 112.72 114.92 114.8 112.32 116.89 109.58 118.97 106.69 121.06 103.63 123.15 100.44 125.23 97.2 127.32 94 129.4 90.97 131.49 88.24 133.58 85.93 135.66 84.16 137.75 83.02 139.83 82.58 141.92 82.86 144.01 83.9 146.09 85.67 148.18 88.13 150.26 91.2 152.35 94.8 154.44 98.78 156.52 102.99 158.61 107.21 160.69 111.22 162.78 114.77 164.87 117.62 166.95 119.6 169.04 120.64 171.12 120.8 173.21 120.18 175.3 118.96 177.38 117.31 179.47 115.37 181.55 113.28 183.64 111.17 185.73 109.13 187.81 107.25 189.9 105.63 191.98 104.32 194.07 103.41 196.16 102.95 198.24 103 200.33 103.59 202.41 104.76 204.5 106.54 206.59 108.94 208.67 111.96 210.76 115.6 212.84 119.83 214.93 124.63 217.02 129.95 219.1 135.73 221.19 141.92 223.27 148.42 225.36 155.16 227.45 162.03 229.53 168.94 231.62 175.75 233.7 182.34 235.79 188.55 237.88 194.2 239.96 199.08 242.05 202.95 244.13 205.55 246.22 206.61 248.31 205.98 250.39 203.72 252.48 200.06 254.56 195.35 256.65 189.95 258.74 184.16 260.82 178.23 262.91 172.33 264.99 166.59 267.08 161.12 269.17 155.99 271.25 151.23 273.34 146.87 275.42 142.9 277.51 139.3 279.6 136.01 281.68 132.98 283.77 130.1 285.85 127.26 287.94 124.36 290.03 121.31 292.11 118.06 294.2 114.61 296.28 111.06 298.37 107.53 300.46 104.13 302.54 100.99 304.63 98.2 306.71 95.79 308.8 93.8 310.89 92.22 312.97 91.01 315.06 90.14 317.14 89.57 319.23 89.28 321.32 89.24 323.4 89.46 325.49 89.95 327.57 90.74 329.66 91.86 331.75 93.35 333.83 95.25 335.92 97.59 338 100.39 340.09 103.65 342.18 107.36 344.26 111.48 346.35 115.94 348.43 120.64 350.52 125.46 352.61 130.25 354.69 134.85 356.78 139.08 358.86 142.77 360.95 145.81 363.04 148.13 365.12 149.75 367.21 150.73 369.29 151.23 371.38 151.4 373.47 151.42 375.55 151.46 377.64 151.68 379.72 152.2 381.81 153.11 383.9 154.48 385.98 156.33 388.07 158.67 390.15 161.46 392.24 164.63 394.33 168.07 396.41 171.64 398.5 175.16 400.58 178.4 402.67 181.13 404.76 183.08 406.84 184.01 408.93 183.73 411.01 182.15 413.1 179.27 415.19 175.23 417.27 170.2 419.36 164.42 421.44 158.09 423.53 151.41 425.62 144.57 427.7 137.71 429.79 130.96 431.87 124.4 433.96 118.12 436.05 112.18 438.13 106.61 440.22 101.44 442.3 96.68 444.39 92.34 446.48 88.41 448.56 84.87 450.65 81.71 452.73 78.91 454.82 76.43 456.91 74.26 458.99 72.36 461.08 70.71 463.16 69.28 465.25 68.05 467.33 67 469.42 66.09 471.51 65.33 473.59 64.67 475.68 64.12 477.76 63.66 477.76 327.06 475.68 327.42 473.59 327.84 471.51 328.31 469.42 328.83 467.33 329.4 465.25 330.01 463.16 330.65 461.08 331.32 458.99 332 456.91 332.66 454.82 333.28 452.73 333.85 450.65 334.31 448.56 334.65 446.48 334.83 444.39 334.79 442.3 334.52 440.22 333.96 438.13 333.1 436.05 331.89 433.96 330.33 431.87 328.4 429.79 326.12 427.7 323.51 425.62 320.61 423.53 317.5 421.44 314.28 419.36 311.07 417.27 308.04 415.19 305.36 413.1 303.23 411.01 301.81 408.93 301.21 406.84 301.42 404.76 302.36 402.67 303.85 400.58 305.63 398.5 307.48 396.41 309.17 394.33 310.5 392.24 311.33 390.15 311.53 388.07 311.04 385.98 309.81 383.9 307.83 381.81 305.12 379.72 301.74 377.64 297.77 375.55 293.31 373.47 288.5 371.38 283.5 369.29 278.48 367.21 273.61 365.12 269.06 363.04 264.97 360.95 261.4 358.86 258.37 356.78 255.81 354.69 253.6 352.61 251.59 350.52 249.59 348.43 247.48 346.35 245.1 344.26 242.38 342.18 239.24 340.09 235.65 338 231.63 335.92 227.2 333.83 222.43 331.75 217.39 329.66 212.18 327.57 206.9 325.49 201.66 323.4 196.58 321.32 191.73 319.23 187.22 317.14 183.09 315.06 179.39 312.97 176.15 310.89 173.37 308.8 171.07 306.71 169.25 304.63 167.93 302.54 167.13 300.46 166.9 298.37 167.33 296.28 168.51 294.2 170.54 292.11 173.49 290.03 177.4 287.94 182.21 285.85 187.81 283.77 194.02 281.68 200.65 279.6 207.5 277.51 214.37 275.42 221.09 273.34 227.51 271.25 233.5 269.17 238.95 267.08 243.78 264.99 247.93 262.91 251.39 260.82 254.17 258.74 256.33 256.65 257.97 254.56 259.27 252.48 260.5 250.39 261.97 248.31 264 246.22 266.83 244.13 270.5 242.05 274.86 239.96 279.67 237.88 284.7 235.79 289.74 233.7 294.62 231.62 299.21 229.53 303.43 227.45 307.19 225.36 310.42 223.27 313.1 221.19 315.16 219.1 316.6 217.02 317.38 214.93 317.5 212.84 316.93 210.76 315.69 208.67 313.77 206.59 311.18 204.5 307.93 202.41 304.05 200.33 299.57 198.24 294.52 196.16 288.93 194.07 282.86 191.98 276.36 189.9 269.49 187.81 262.3 185.73 254.89 183.64 247.32 181.55 239.7 179.47 232.13 177.38 224.73 175.3 217.65 173.21 211.07 171.12 205.15 169.04 200.09 166.95 196.04 164.87 193.05 162.78 191.08 160.69 190.01 158.61 189.62 156.52 189.7 154.44 190.06 152.35 190.53 150.26 190.97 148.18 191.31 146.09 191.47 144.01 191.41 141.92 191.14 139.83 190.66 137.75 190.01 135.66 189.26 133.58 188.49 131.49 187.79 129.4 187.29 127.32 187.11 125.23 187.34 123.15 188.11 121.06 189.47 118.97 191.46 116.89 194.06 114.8 197.2 112.72 200.8 110.63 204.75 108.54 208.95 106.46 213.32 104.37 217.81 102.29 222.39 100.2 227.08 98.11 231.88 96.03 236.84 93.94 241.99 91.86 247.34 89.77 252.9 87.68 258.62 85.6 264.47 83.51 270.37 81.43 276.24 79.34 281.99 77.25 287.56 75.17 292.86 73.08 297.83 71 302.43 68.91 306.62 66.82 310.37 64.74 313.69 62.65 316.57" clip-path="url(#cpNDEuOTB8NDk4LjUyfDM0OS40NXwyNy44MA==)" style="stroke-width:0;stroke:none;fill:#ebebeb"/><polyline points="62.65 88.27 64.74 91.72 66.82 95.37 68.91 99.19 71 103.12 73.08 107.11 75.17 111.07 77.25 114.93 79.34 118.59 81.43 121.96 83.51 124.94 85.6 127.44 87.68 129.39 89.77 130.73 91.86 131.43 93.94 131.48 96.03 130.94 98.11 129.87 100.2 128.36 102.29 126.52 104.37 124.43 106.46 122.19 108.54 119.85 110.63 117.42 112.72 114.92 114.8 112.32 116.89 109.58 118.97 106.69 121.06 103.63 123.15 100.44 125.23 97.2 127.32 94 129.4 90.97 131.49 88.24 133.58 85.93 135.66 84.16 137.75 83.02 139.83 82.58 141.92 82.86 144.01 83.9 146.09 85.67 148.18 88.13 150.26 91.2 152.35 94.8 154.44 98.78 156.52 102.99 158.61 107.21 160.69 111.22 162.78 114.77 164.87 117.62 166.95 119.6 169.04 120.64 171.12 120.8 173.21 120.18 175.3 118.96 177.38 117.31 179.47 115.37 181.55 113.28 183.64 111.17 185.73 109.13 187.81 107.25 189.9 105.63 191.98 104.32 194.07 103.41 196.16 102.95 198.24 103 200.33 103.59 202.41 104.76 204.5 106.54 206.59 108.94 208.67 111.96 210.76 115.6 212.84 119.83 214.93 124.63 217.02 129.95 219.1 135.73 221.19 141.92 223.27 148.42 225.36 155.16 227.45 162.03 229.53 168.94 231.62 175.75 233.7 182.34 235.79 188.55 237.88 194.2 239.96 199.08 242.05 202.95 244.13 205.55 246.22 206.61 248.31 205.98 250.39 203.72 252.48 200.06 254.56 195.35 256.65 189.95 258.74 184.16 260.82 178.23 262.91 172.33 264.99 166.59 267.08 161.12 269.17 155.99 271.25 151.23 273.34 146.87 275.42 142.9 277.51 139.3 279.6 136.01 281.68 132.98 283.77 130.1 285.85 127.26 287.94 124.36 290.03 121.31 292.11 118.06 294.2 114.61 296.28 111.06 298.37 107.53 300.46 104.13 302.54 100.99 304.63 98.2 306.71 95.79 308.8 93.8 310.89 92.22 312.97 91.01 315.06 90.14 317.14 89.57 319.23 89.28 321.32 89.24 323.4 89.46 325.49 89.95 327.57 90.74 329.66 91.86 331.75 93.35 333.83 95.25 335.92 97.59 338 100.39 340.09 103.65 342.18 107.36 344.26 111.48 346.35 115.94 348.43 120.64 350.52 125.46 352.61 130.25 354.69 134.85 356.78 139.08 358.86 142.77 360.95 145.81 363.04 148.13 365.12 149.75 367.21 150.73 369.29 151.23 371.38 151.4 373.47 151.42 375.55 151.46 377.64 151.68 379.72 152.2 381.81 153.11 383.9 154.48 385.98 156.33 388.07 158.67 390.15 161.46 392.24 164.63 394.33 168.07 396.41 171.64 398.5 175.16 400.58 178.4 402.67 181.13 404.76 183.08 406.84 184.01 408.93 183.73 411.01 182.15 413.1 179.27 415.19 175.23 417.27 170.2 419.36 164.42 421.44 158.09 423.53 151.41 425.62 144.57 427.7 137.71 429.79 130.96 431.87 124.4 433.96 118.12 436.05 112.18 438.13 106.61 440.22 101.44 442.3 96.68 444.39 92.34 446.48 88.41 448.56 84.87 450.65 81.71 452.73 78.91 454.82 76.43 456.91 74.26 458.99 72.36 461.08 70.71 463.16 69.28 465.25 68.05 467.33 67 469.42 66.09 471.51 65.33 473.59 64.67 475.68 64.12 477.76 63.66" clip-path="url(#cpNDEuOTB8NDk4LjUyfDM0OS40NXwyNy44MA==)" style="stroke-width:1.07;stroke:none"/><polyline points="477.76 327.06 475.68 327.42 473.59 327.84 471.51 328.31 469.42 328.83 467.33 329.4 465.25 330.01 463.16 330.65 461.08 331.32 458.99 332 456.91 332.66 454.82 333.28 452.73 333.85 450.65 334.31 448.56 334.65 446.48 334.83 444.39 334.79 442.3 334.52 440.22 333.96 438.13 333.1 436.05 331.89 433.96 330.33 431.87 328.4 429.79 326.12 427.7 323.51 425.62 320.61 423.53 317.5 421.44 314.28 419.36 311.07 417.27 308.04 415.19 305.36 413.1 303.23 411.01 301.81 408.93 301.21 406.84 301.42 404.76 302.36 402.67 303.85 400.58 305.63 398.5 307.48 396.41 309.17 394.33 310.5 392.24 311.33 390.15 311.53 388.07 311.04 385.98 309.81 383.9 307.83 381.81 305.12 379.72 301.74 377.64 297.77 375.55 293.31 373.47 288.5 371.38 283.5 369.29 278.48 367.21 273.61 365.12 269.06 363.04 264.97 360.95 261.4 358.86 258.37 356.78 255.81 354.69 253.6 352.61 251.59 350.52 249.59 348.43 247.48 346.35 245.1 344.26 242.38 342.18 239.24 340.09 235.65 338 231.63 335.92 227.2 333.83 222.43 331.75 217.39 329.66 212.18 327.57 206.9 325.49 201.66 323.4 196.58 321.32 191.73 319.23 187.22 317.14 183.09 315.06 179.39 312.97 176.15 310.89 173.37 308.8 171.07 306.71 169.25 304.63 167.93 302.54 167.13 300.46 166.9 298.37 167.33 296.28 168.51 294.2 170.54 292.11 173.49 290.03 177.4 287.94 182.21 285.85 187.81 283.77 194.02 281.68 200.65 279.6 207.5 277.51 214.37 275.42 221.09 273.34 227.51 271.25 233.5 269.17 238.95 267.08 243.78 264.99 247.93 262.91 251.39 260.82 254.17 258.74 256.33 256.65 257.97 254.56 259.27 252.48 260.5 250.39 261.97 248.31 264 246.22 266.83 244.13 270.5 242.05 274.86 239.96 279.67 237.88 284.7 235.79 289.74 233.7 294.62 231.62 299.21 229.53 303.43 227.45 307.19 225.36 310.42 223.27 313.1 221.19 315.16 219.1 316.6 217.02 317.38 214.93 317.5 212.84 316.93 210.76 315.69 208.67 313.77 206.59 311.18 204.5 307.93 202.41 304.05 200.33 299.57 198.24 294.52 196.16 288.93 194.07 282.86 191.98 276.36 189.9 269.49 187.81 262.3 185.73 254.89 183.64 247.32 181.55 239.7 179.47 232.13 177.38 224.73 175.3 217.65 173.21 211.07 171.12 205.15 169.04 200.09 166.95 196.04 164.87 193.05 162.78 191.08 160.69 190.01 158.61 189.62 156.52 189.7 154.44 190.06 152.35 190.53 150.26 190.97 148.18 191.31 146.09 191.47 144.01 191.41 141.92 191.14 139.83 190.66 137.75 190.01 135.66 189.26 133.58 188.49 131.49 187.79 129.4 187.29 127.32 187.11 125.23 187.34 123.15 188.11 121.06 189.47 118.97 191.46 116.89 194.06 114.8 197.2 112.72 200.8 110.63 204.75 108.54 208.95 106.46 213.32 104.37 217.81 102.29 222.39 100.2 227.08 98.11 231.88 96.03 236.84 93.94 241.99 91.86 247.34 89.77 252.9 87.68 258.62 85.6 264.47 83.51 270.37 81.43 276.24 79.34 281.99 77.25 287.56 75.17 292.86 73.08 297.83 71 302.43 68.91 306.62 66.82 310.37 64.74 313.69 62.65 316.57" clip-path="url(#cpNDEuOTB8NDk4LjUyfDM0OS40NXwyNy44MA==)" style="stroke-width:1.07;stroke:none"/><polygon points="62.65 88.27 64.74 91.72 66.82 95.37 68.91 99.19 71 103.12 73.08 107.11 75.17 111.07 77.25 114.93 79.34 118.59 81.43 121.96 83.51 124.94 85.6 127.44 87.68 129.39 89.77 130.73 91.86 131.43 93.94 131.48 96.03 130.94 98.11 129.87 100.2 128.36 102.29 126.52 104.37 124.43 106.46 122.19 108.54 119.85 110.63 117.42 112.72 114.92 114.8 112.32 116.89 109.58 118.97 106.69 121.06 103.63 123.15 100.44 125.23 97.2 127.32 94 129.4 90.97 131.49 88.24 133.58 85.93 135.66 84.16 137.75 83.02 139.83 82.58 141.92 82.86 144.01 83.9 146.09 85.67 148.18 88.13 150.26 91.2 152.35 94.8 154.44 98.78 156.52 102.99 158.61 107.21 160.69 111.22 162.78 114.77 164.87 117.62 166.95 119.6 169.04 120.64 171.12 120.8 173.21 120.18 175.3 118.96 177.38 117.31 179.47 115.37 181.55 113.28 183.64 111.17 185.73 109.13 187.81 107.25 189.9 105.63 191.98 104.32 194.07 103.41 196.16 102.95 198.24 103 200.33 103.59 202.41 104.76 204.5 106.54 206.59 108.94 208.67 111.96 210.76 115.6 212.84 119.83 214.93 124.63 217.02 129.95 219.1 135.73 221.19 141.92 223.27 148.42 225.36 155.16 227.45 162.03 229.53 168.94 231.62 175.75 233.7 182.34 235.79 188.55 237.88 194.2 239.96 199.08 242.05 202.95 244.13 205.55 246.22 206.61 248.31 205.98 250.39 203.72 252.48 200.06 254.56 195.35 256.65 189.95 258.74 184.16 260.82 178.23 262.91 172.33 264.99 166.59 267.08 161.12 269.17 155.99 271.25 151.23 273.34 146.87 275.42 142.9 277.51 139.3 279.6 136.01 281.68 132.98 283.77 130.1 285.85 127.26 287.94 124.36 290.03 121.31 292.11 118.06 294.2 114.61 296.28 111.06 298.37 107.53 300.46 104.13 302.54 100.99 304.63 98.2 306.71 95.79 308.8 93.8 310.89 92.22 312.97 91.01 315.06 90.14 317.14 89.57 319.23 89.28 321.32 89.24 323.4 89.46 325.49 89.95 327.57 90.74 329.66 91.86 331.75 93.35 333.83 95.25 335.92 97.59 338 100.39 340.09 103.65 342.18 107.36 344.26 111.48 346.35 115.94 348.43 120.64 350.52 125.46 352.61 130.25 354.69 134.85 356.78 139.08 358.86 142.77 360.95 145.81 363.04 148.13 365.12 149.75 367.21 150.73 369.29 151.23 371.38 151.4 373.47 151.42 375.55 151.46 377.64 151.68 379.72 152.2 381.81 153.11 383.9 154.48 385.98 156.33 388.07 158.67 390.15 161.46 392.24 164.63 394.33 168.07 396.41 171.64 398.5 175.16 400.58 178.4 402.67 181.13 404.76 183.08 406.84 184.01 408.93 183.73 411.01 182.15 413.1 179.27 415.19 175.23 417.27 170.2 419.36 164.42 421.44 158.09 423.53 151.41 425.62 144.57 427.7 137.71 429.79 130.96 431.87 124.4 433.96 118.12 436.05 112.18 438.13 106.61 440.22 101.44 442.3 96.68 444.39 92.34 446.48 88.41 448.56 84.87 450.65 81.71 452.73 78.91 454.82 76.43 456.91 74.26 458.99 72.36 461.08 70.71 463.16 69.28 465.25 68.05 467.33 67 469.42 66.09 471.51 65.33 473.59 64.67 475.68 64.12 477.76 63.66 477.76 327.06 475.68 327.42 473.59 327.84 471.51 328.31 469.42 328.83 467.33 329.4 465.25 330.01 463.16 330.65 461.08 331.32 458.99 332 456.91 332.66 454.82 333.28 452.73 333.85 450.65 334.31 448.56 334.65 446.48 334.83 444.39 334.79 442.3 334.52 440.22 333.96 438.13 333.1 436.05 331.89 433.96 330.33 431.87 328.4 429.79 326.12 427.7 323.51 425.62 320.61 423.53 317.5 421.44 314.28 419.36 311.07 417.27 308.04 415.19 305.36 413.1 303.23 411.01 301.81 408.93 301.21 406.84 301.42 404.76 302.36 402.67 303.85 400.58 305.63 398.5 307.48 396.41 309.17 394.33 310.5 392.24 311.33 390.15 311.53 388.07 311.04 385.98 309.81 383.9 307.83 381.81 305.12 379.72 301.74 377.64 297.77 375.55 293.31 373.47 288.5 371.38 283.5 369.29 278.48 367.21 273.61 365.12 269.06 363.04 264.97 360.95 261.4 358.86 258.37 356.78 255.81 354.69 253.6 352.61 251.59 350.52 249.59 348.43 247.48 346.35 245.1 344.26 242.38 342.18 239.24 340.09 235.65 338 231.63 335.92 227.2 333.83 222.43 331.75 217.39 329.66 212.18 327.57 206.9 325.49 201.66 323.4 196.58 321.32 191.73 319.23 187.22 317.14 183.09 315.06 179.39 312.97 176.15 310.89 173.37 308.8 171.07 306.71 169.25 304.63 167.93 302.54 167.13 300.46 166.9 298.37 167.33 296.28 168.51 294.2 170.54 292.11 173.49 290.03 177.4 287.94 182.21 285.85 187.81 283.77 194.02 281.68 200.65 279.6 207.5 277.51 214.37 275.42 221.09 273.34 227.51 271.25 233.5 269.17 238.95 267.08 243.78 264.99 247.93 262.91 251.39 260.82 254.17 258.74 256.33 256.65 257.97 254.56 259.27 252.48 260.5 250.39 261.97 248.31 264 246.22 266.83 244.13 270.5 242.05 274.86 239.96 279.67 237.88 284.7 235.79 289.74 233.7 294.62 231.62 299.21 229.53 303.43 227.45 307.19 225.36 310.42 223.27 313.1 221.19 315.16 219.1 316.6 217.02 317.38 214.93 317.5 212.84 316.93 210.76 315.69 208.67 313.77 206.59 311.18 204.5 307.93 202.41 304.05 200.33 299.57 198.24 294.52 196.16 288.93 194.07 282.86 191.98 276.36 189.9 269.49 187.81 262.3 185.73 254.89 183.64 247.32 181.55 239.7 179.47 232.13 177.38 224.73 175.3 217.65 173.21 211.07 171.12 205.15 169.04 200.09 166.95 196.04 164.87 193.05 162.78 191.08 160.69 190.01 158.61 189.62 156.52 189.7 154.44 190.06 152.35 190.53 150.26 190.97 148.18 191.31 146.09 191.47 144.01 191.41 141.92 191.14 139.83 190.66 137.75 190.01 135.66 189.26 133.58 188.49 131.49 187.79 129.4 187.29 127.32 187.11 125.23 187.34 123.15 188.11 121.06 189.47 118.97 191.46 116.89 194.06 114.8 197.2 112.72 200.8 110.63 204.75 108.54 208.95 106.46 213.32 104.37 217.81 102.29 222.39 100.2 227.08 98.11 231.88 96.03 236.84 93.94 241.99 91.86 247.34 89.77 252.9 87.68 258.62 85.6 264.47 83.51 270.37 81.43 276.24 79.34 281.99 77.25 287.56 75.17 292.86 73.08 297.83 71 302.43 68.91 306.62 66.82 310.37 64.74 313.69 62.65 316.57" clip-path="url(#cpNDEuOTB8NDk4LjUyfDM0OS40NXwyNy44MA==)" style="stroke-width:0;stroke:none;fill:#ebebeb"/><polyline points="62.65 88.27 64.74 91.72 66.82 95.37 68.91 99.19 71 103.12 73.08 107.11 75.17 111.07 77.25 114.93 79.34 118.59 81.43 121.96 83.51 124.94 85.6 127.44 87.68 129.39 89.77 130.73 91.86 131.43 93.94 131.48 96.03 130.94 98.11 129.87 100.2 128.36 102.29 126.52 104.37 124.43 106.46 122.19 108.54 119.85 110.63 117.42 112.72 114.92 114.8 112.32 116.89 109.58 118.97 106.69 121.06 103.63 123.15 100.44 125.23 97.2 127.32 94 129.4 90.97 131.49 88.24 133.58 85.93 135.66 84.16 137.75 83.02 139.83 82.58 141.92 82.86 144.01 83.9 146.09 85.67 148.18 88.13 150.26 91.2 152.35 94.8 154.44 98.78 156.52 102.99 158.61 107.21 160.69 111.22 162.78 114.77 164.87 117.62 166.95 119.6 169.04 120.64 171.12 120.8 173.21 120.18 175.3 118.96 177.38 117.31 179.47 115.37 181.55 113.28 183.64 111.17 185.73 109.13 187.81 107.25 189.9 105.63 191.98 104.32 194.07 103.41 196.16 102.95 198.24 103 200.33 103.59 202.41 104.76 204.5 106.54 206.59 108.94 208.67 111.96 210.76 115.6 212.84 119.83 214.93 124.63 217.02 129.95 219.1 135.73 221.19 141.92 223.27 148.42 225.36 155.16 227.45 162.03 229.53 168.94 231.62 175.75 233.7 182.34 235.79 188.55 237.88 194.2 239.96 199.08 242.05 202.95 244.13 205.55 246.22 206.61 248.31 205.98 250.39 203.72 252.48 200.06 254.56 195.35 256.65 189.95 258.74 184.16 260.82 178.23 262.91 172.33 264.99 166.59 267.08 161.12 269.17 155.99 271.25 151.23 273.34 146.87 275.42 142.9 277.51 139.3 279.6 136.01 281.68 132.98 283.77 130.1 285.85 127.26 287.94 124.36 290.03 121.31 292.11 118.06 294.2 114.61 296.28 111.06 298.37 107.53 300.46 104.13 302.54 100.99 304.63 98.2 306.71 95.79 308.8 93.8 310.89 92.22 312.97 91.01 315.06 90.14 317.14 89.57 319.23 89.28 321.32 89.24 323.4 89.46 325.49 89.95 327.57 90.74 329.66 91.86 331.75 93.35 333.83 95.25 335.92 97.59 338 100.39 340.09 103.65 342.18 107.36 344.26 111.48 346.35 115.94 348.43 120.64 350.52 125.46 352.61 130.25 354.69 134.85 356.78 139.08 358.86 142.77 360.95 145.81 363.04 148.13 365.12 149.75 367.21 150.73 369.29 151.23 371.38 151.4 373.47 151.42 375.55 151.46 377.64 151.68 379.72 152.2 381.81 153.11 383.9 154.48 385.98 156.33 388.07 158.67 390.15 161.46 392.24 164.63 394.33 168.07 396.41 171.64 398.5 175.16 400.58 178.4 402.67 181.13 404.76 183.08 406.84 184.01 408.93 183.73 411.01 182.15 413.1 179.27 415.19 175.23 417.27 170.2 419.36 164.42 421.44 158.09 423.53 151.41 425.62 144.57 427.7 137.71 429.79 130.96 431.87 124.4 433.96 118.12 436.05 112.18 438.13 106.61 440.22 101.44 442.3 96.68 444.39 92.34 446.48 88.41 448.56 84.87 450.65 81.71 452.73 78.91 454.82 76.43 456.91 74.26 458.99 72.36 461.08 70.71 463.16 69.28 465.25 68.05 467.33 67 469.42 66.09 471.51 65.33 473.59 64.67 475.68 64.12 477.76 63.66" clip-path="url(#cpNDEuOTB8NDk4LjUyfDM0OS40NXwyNy44MA==)" style="stroke-width:1.07;stroke:none"/><polyline points="477.76 327.06 475.68 327.42 473.59 327.84 471.51 328.31 469.42 328.83 467.33 329.4 465.25 330.01 463.16 330.65 461.08 331.32 458.99 332 456.91 332.66 454.82 333.28 452.73 333.85 450.65 334.31 448.56 334.65 446.48 334.83 444.39 334.79 442.3 334.52 440.22 333.96 438.13 333.1 436.05 331.89 433.96 330.33 431.87 328.4 429.79 326.12 427.7 323.51 425.62 320.61 423.53 317.5 421.44 314.28 419.36 311.07 417.27 308.04 415.19 305.36 413.1 303.23 411.01 301.81 408.93 301.21 406.84 301.42 404.76 302.36 402.67 303.85 400.58 305.63 398.5 307.48 396.41 309.17 394.33 310.5 392.24 311.33 390.15 311.53 388.07 311.04 385.98 309.81 383.9 307.83 381.81 305.12 379.72 301.74 377.64 297.77 375.55 293.31 373.47 288.5 371.38 283.5 369.29 278.48 367.21 273.61 365.12 269.06 363.04 264.97 360.95 261.4 358.86 258.37 356.78 255.81 354.69 253.6 352.61 251.59 350.52 249.59 348.43 247.48 346.35 245.1 344.26 242.38 342.18 239.24 340.09 235.65 338 231.63 335.92 227.2 333.83 222.43 331.75 217.39 329.66 212.18 327.57 206.9 325.49 201.66 323.4 196.58 321.32 191.73 319.23 187.22 317.14 183.09 315.06 179.39 312.97 176.15 310.89 173.37 308.8 171.07 306.71 169.25 304.63 167.93 302.54 167.13 300.46 166.9 298.37 167.33 296.28 168.51 294.2 170.54 292.11 173.49 290.03 177.4 287.94 182.21 285.85 187.81 283.77 194.02 281.68 200.65 279.6 207.5 277.51 214.37 275.42 221.09 273.34 227.51 271.25 233.5 269.17 238.95 267.08 243.78 264.99 247.93 262.91 251.39 260.82 254.17 258.74 256.33 256.65 257.97 254.56 259.27 252.48 260.5 250.39 261.97 248.31 264 246.22 266.83 244.13 270.5 242.05 274.86 239.96 279.67 237.88 284.7 235.79 289.74 233.7 294.62 231.62 299.21 229.53 303.43 227.45 307.19 225.36 310.42 223.27 313.1 221.19 315.16 219.1 316.6 217.02 317.38 214.93 317.5 212.84 316.93 210.76 315.69 208.67 313.77 206.59 311.18 204.5 307.93 202.41 304.05 200.33 299.57 198.24 294.52 196.16 288.93 194.07 282.86 191.98 276.36 189.9 269.49 187.81 262.3 185.73 254.89 183.64 247.32 181.55 239.7 179.47 232.13 177.38 224.73 175.3 217.65 173.21 211.07 171.12 205.15 169.04 200.09 166.95 196.04 164.87 193.05 162.78 191.08 160.69 190.01 158.61 189.62 156.52 189.7 154.44 190.06 152.35 190.53 150.26 190.97 148.18 191.31 146.09 191.47 144.01 191.41 141.92 191.14 139.83 190.66 137.75 190.01 135.66 189.26 133.58 188.49 131.49 187.79 129.4 187.29 127.32 187.11 125.23 187.34 123.15 188.11 121.06 189.47 118.97 191.46 116.89 194.06 114.8 197.2 112.72 200.8 110.63 204.75 108.54 208.95 106.46 213.32 104.37 217.81 102.29 222.39 100.2 227.08 98.11 231.88 96.03 236.84 93.94 241.99 91.86 247.34 89.77 252.9 87.68 258.62 85.6 264.47 83.51 270.37 81.43 276.24 79.34 281.99 77.25 287.56 75.17 292.86 73.08 297.83 71 302.43 68.91 306.62 66.82 310.37 64.74 313.69 62.65 316.57" clip-path="url(#cpNDEuOTB8NDk4LjUyfDM0OS40NXwyNy44MA==)" style="stroke-width:1.07;stroke:none"/><polygon points="62.65 88.27 64.74 91.72 66.82 95.37 68.91 99.19 71 103.12 73.08 107.11 75.17 111.07 77.25 114.93 79.34 118.59 81.43 121.96 83.51 124.94 85.6 127.44 87.68 129.39 89.77 130.73 91.86 131.43 93.94 131.48 96.03 130.94 98.11 129.87 100.2 128.36 102.29 126.52 104.37 124.43 106.46 122.19 108.54 119.85 110.63 117.42 112.72 114.92 114.8 112.32 116.89 109.58 118.97 106.69 121.06 103.63 123.15 100.44 125.23 97.2 127.32 94 129.4 90.97 131.49 88.24 133.58 85.93 135.66 84.16 137.75 83.02 139.83 82.58 141.92 82.86 144.01 83.9 146.09 85.67 148.18 88.13 150.26 91.2 152.35 94.8 154.44 98.78 156.52 102.99 158.61 107.21 160.69 111.22 162.78 114.77 164.87 117.62 166.95 119.6 169.04 120.64 171.12 120.8 173.21 120.18 175.3 118.96 177.38 117.31 179.47 115.37 181.55 113.28 183.64 111.17 185.73 109.13 187.81 107.25 189.9 105.63 191.98 104.32 194.07 103.41 196.16 102.95 198.24 103 200.33 103.59 202.41 104.76 204.5 106.54 206.59 108.94 208.67 111.96 210.76 115.6 212.84 119.83 214.93 124.63 217.02 129.95 219.1 135.73 221.19 141.92 223.27 148.42 225.36 155.16 227.45 162.03 229.53 168.94 231.62 175.75 233.7 182.34 235.79 188.55 237.88 194.2 239.96 199.08 242.05 202.95 244.13 205.55 246.22 206.61 248.31 205.98 250.39 203.72 252.48 200.06 254.56 195.35 256.65 189.95 258.74 184.16 260.82 178.23 262.91 172.33 264.99 166.59 267.08 161.12 269.17 155.99 271.25 151.23 273.34 146.87 275.42 142.9 277.51 139.3 279.6 136.01 281.68 132.98 283.77 130.1 285.85 127.26 287.94 124.36 290.03 121.31 292.11 118.06 294.2 114.61 296.28 111.06 298.37 107.53 300.46 104.13 302.54 100.99 304.63 98.2 306.71 95.79 308.8 93.8 310.89 92.22 312.97 91.01 315.06 90.14 317.14 89.57 319.23 89.28 321.32 89.24 323.4 89.46 325.49 89.95 327.57 90.74 329.66 91.86 331.75 93.35 333.83 95.25 335.92 97.59 338 100.39 340.09 103.65 342.18 107.36 344.26 111.48 346.35 115.94 348.43 120.64 350.52 125.46 352.61 130.25 354.69 134.85 356.78 139.08 358.86 142.77 360.95 145.81 363.04 148.13 365.12 149.75 367.21 150.73 369.29 151.23 371.38 151.4 373.47 151.42 375.55 151.46 377.64 151.68 379.72 152.2 381.81 153.11 383.9 154.48 385.98 156.33 388.07 158.67 390.15 161.46 392.24 164.63 394.33 168.07 396.41 171.64 398.5 175.16 400.58 178.4 402.67 181.13 404.76 183.08 406.84 184.01 408.93 183.73 411.01 182.15 413.1 179.27 415.19 175.23 417.27 170.2 419.36 164.42 421.44 158.09 423.53 151.41 425.62 144.57 427.7 137.71 429.79 130.96 431.87 124.4 433.96 118.12 436.05 112.18 438.13 106.61 440.22 101.44 442.3 96.68 444.39 92.34 446.48 88.41 448.56 84.87 450.65 81.71 452.73 78.91 454.82 76.43 456.91 74.26 458.99 72.36 461.08 70.71 463.16 69.28 465.25 68.05 467.33 67 469.42 66.09 471.51 65.33 473.59 64.67 475.68 64.12 477.76 63.66 477.76 327.06 475.68 327.42 473.59 327.84 471.51 328.31 469.42 328.83 467.33 329.4 465.25 330.01 463.16 330.65 461.08 331.32 458.99 332 456.91 332.66 454.82 333.28 452.73 333.85 450.65 334.31 448.56 334.65 446.48 334.83 444.39 334.79 442.3 334.52 440.22 333.96 438.13 333.1 436.05 331.89 433.96 330.33 431.87 328.4 429.79 326.12 427.7 323.51 425.62 320.61 423.53 317.5 421.44 314.28 419.36 311.07 417.27 308.04 415.19 305.36 413.1 303.23 411.01 301.81 408.93 301.21 406.84 301.42 404.76 302.36 402.67 303.85 400.58 305.63 398.5 307.48 396.41 309.17 394.33 310.5 392.24 311.33 390.15 311.53 388.07 311.04 385.98 309.81 383.9 307.83 381.81 305.12 379.72 301.74 377.64 297.77 375.55 293.31 373.47 288.5 371.38 283.5 369.29 278.48 367.21 273.61 365.12 269.06 363.04 264.97 360.95 261.4 358.86 258.37 356.78 255.81 354.69 253.6 352.61 251.59 350.52 249.59 348.43 247.48 346.35 245.1 344.26 242.38 342.18 239.24 340.09 235.65 338 231.63 335.92 227.2 333.83 222.43 331.75 217.39 329.66 212.18 327.57 206.9 325.49 201.66 323.4 196.58 321.32 191.73 319.23 187.22 317.14 183.09 315.06 179.39 312.97 176.15 310.89 173.37 308.8 171.07 306.71 169.25 304.63 167.93 302.54 167.13 300.46 166.9 298.37 167.33 296.28 168.51 294.2 170.54 292.11 173.49 290.03 177.4 287.94 182.21 285.85 187.81 283.77 194.02 281.68 200.65 279.6 207.5 277.51 214.37 275.42 221.09 273.34 227.51 271.25 233.5 269.17 238.95 267.08 243.78 264.99 247.93 262.91 251.39 260.82 254.17 258.74 256.33 256.65 257.97 254.56 259.27 252.48 260.5 250.39 261.97 248.31 264 246.22 266.83 244.13 270.5 242.05 274.86 239.96 279.67 237.88 284.7 235.79 289.74 233.7 294.62 231.62 299.21 229.53 303.43 227.45 307.19 225.36 310.42 223.27 313.1 221.19 315.16 219.1 316.6 217.02 317.38 214.93 317.5 212.84 316.93 210.76 315.69 208.67 313.77 206.59 311.18 204.5 307.93 202.41 304.05 200.33 299.57 198.24 294.52 196.16 288.93 194.07 282.86 191.98 276.36 189.9 269.49 187.81 262.3 185.73 254.89 183.64 247.32 181.55 239.7 179.47 232.13 177.38 224.73 175.3 217.65 173.21 211.07 171.12 205.15 169.04 200.09 166.95 196.04 164.87 193.05 162.78 191.08 160.69 190.01 158.61 189.62 156.52 189.7 154.44 190.06 152.35 190.53 150.26 190.97 148.18 191.31 146.09 191.47 144.01 191.41 141.92 191.14 139.83 190.66 137.75 190.01 135.66 189.26 133.58 188.49 131.49 187.79 129.4 187.29 127.32 187.11 125.23 187.34 123.15 188.11 121.06 189.47 118.97 191.46 116.89 194.06 114.8 197.2 112.72 200.8 110.63 204.75 108.54 208.95 106.46 213.32 104.37 217.81 102.29 222.39 100.2 227.08 98.11 231.88 96.03 236.84 93.94 241.99 91.86 247.34 89.77 252.9 87.68 258.62 85.6 264.47 83.51 270.37 81.43 276.24 79.34 281.99 77.25 287.56 75.17 292.86 73.08 297.83 71 302.43 68.91 306.62 66.82 310.37 64.74 313.69 62.65 316.57" clip-path="url(#cpNDEuOTB8NDk4LjUyfDM0OS40NXwyNy44MA==)" style="stroke-width:0;stroke:none;fill:#ebebeb"/><polyline points="62.65 88.27 64.74 91.72 66.82 95.37 68.91 99.19 71 103.12 73.08 107.11 75.17 111.07 77.25 114.93 79.34 118.59 81.43 121.96 83.51 124.94 85.6 127.44 87.68 129.39 89.77 130.73 91.86 131.43 93.94 131.48 96.03 130.94 98.11 129.87 100.2 128.36 102.29 126.52 104.37 124.43 106.46 122.19 108.54 119.85 110.63 117.42 112.72 114.92 114.8 112.32 116.89 109.58 118.97 106.69 121.06 103.63 123.15 100.44 125.23 97.2 127.32 94 129.4 90.97 131.49 88.24 133.58 85.93 135.66 84.16 137.75 83.02 139.83 82.58 141.92 82.86 144.01 83.9 146.09 85.67 148.18 88.13 150.26 91.2 152.35 94.8 154.44 98.78 156.52 102.99 158.61 107.21 160.69 111.22 162.78 114.77 164.87 117.62 166.95 119.6 169.04 120.64 171.12 120.8 173.21 120.18 175.3 118.96 177.38 117.31 179.47 115.37 181.55 113.28 183.64 111.17 185.73 109.13 187.81 107.25 189.9 105.63 191.98 104.32 194.07 103.41 196.16 102.95 198.24 103 200.33 103.59 202.41 104.76 204.5 106.54 206.59 108.94 208.67 111.96 210.76 115.6 212.84 119.83 214.93 124.63 217.02 129.95 219.1 135.73 221.19 141.92 223.27 148.42 225.36 155.16 227.45 162.03 229.53 168.94 231.62 175.75 233.7 182.34 235.79 188.55 237.88 194.2 239.96 199.08 242.05 202.95 244.13 205.55 246.22 206.61 248.31 205.98 250.39 203.72 252.48 200.06 254.56 195.35 256.65 189.95 258.74 184.16 260.82 178.23 262.91 172.33 264.99 166.59 267.08 161.12 269.17 155.99 271.25 151.23 273.34 146.87 275.42 142.9 277.51 139.3 279.6 136.01 281.68 132.98 283.77 130.1 285.85 127.26 287.94 124.36 290.03 121.31 292.11 118.06 294.2 114.61 296.28 111.06 298.37 107.53 300.46 104.13 302.54 100.99 304.63 98.2 306.71 95.79 308.8 93.8 310.89 92.22 312.97 91.01 315.06 90.14 317.14 89.57 319.23 89.28 321.32 89.24 323.4 89.46 325.49 89.95 327.57 90.74 329.66 91.86 331.75 93.35 333.83 95.25 335.92 97.59 338 100.39 340.09 103.65 342.18 107.36 344.26 111.48 346.35 115.94 348.43 120.64 350.52 125.46 352.61 130.25 354.69 134.85 356.78 139.08 358.86 142.77 360.95 145.81 363.04 148.13 365.12 149.75 367.21 150.73 369.29 151.23 371.38 151.4 373.47 151.42 375.55 151.46 377.64 151.68 379.72 152.2 381.81 153.11 383.9 154.48 385.98 156.33 388.07 158.67 390.15 161.46 392.24 164.63 394.33 168.07 396.41 171.64 398.5 175.16 400.58 178.4 402.67 181.13 404.76 183.08 406.84 184.01 408.93 183.73 411.01 182.15 413.1 179.27 415.19 175.23 417.27 170.2 419.36 164.42 421.44 158.09 423.53 151.41 425.62 144.57 427.7 137.71 429.79 130.96 431.87 124.4 433.96 118.12 436.05 112.18 438.13 106.61 440.22 101.44 442.3 96.68 444.39 92.34 446.48 88.41 448.56 84.87 450.65 81.71 452.73 78.91 454.82 76.43 456.91 74.26 458.99 72.36 461.08 70.71 463.16 69.28 465.25 68.05 467.33 67 469.42 66.09 471.51 65.33 473.59 64.67 475.68 64.12 477.76 63.66" clip-path="url(#cpNDEuOTB8NDk4LjUyfDM0OS40NXwyNy44MA==)" style="stroke-width:1.07;stroke:none"/><polyline points="477.76 327.06 475.68 327.42 473.59 327.84 471.51 328.31 469.42 328.83 467.33 329.4 465.25 330.01 463.16 330.65 461.08 331.32 458.99 332 456.91 332.66 454.82 333.28 452.73 333.85 450.65 334.31 448.56 334.65 446.48 334.83 444.39 334.79 442.3 334.52 440.22 333.96 438.13 333.1 436.05 331.89 433.96 330.33 431.87 328.4 429.79 326.12 427.7 323.51 425.62 320.61 423.53 317.5 421.44 314.28 419.36 311.07 417.27 308.04 415.19 305.36 413.1 303.23 411.01 301.81 408.93 301.21 406.84 301.42 404.76 302.36 402.67 303.85 400.58 305.63 398.5 307.48 396.41 309.17 394.33 310.5 392.24 311.33 390.15 311.53 388.07 311.04 385.98 309.81 383.9 307.83 381.81 305.12 379.72 301.74 377.64 297.77 375.55 293.31 373.47 288.5 371.38 283.5 369.29 278.48 367.21 273.61 365.12 269.06 363.04 264.97 360.95 261.4 358.86 258.37 356.78 255.81 354.69 253.6 352.61 251.59 350.52 249.59 348.43 247.48 346.35 245.1 344.26 242.38 342.18 239.24 340.09 235.65 338 231.63 335.92 227.2 333.83 222.43 331.75 217.39 329.66 212.18 327.57 206.9 325.49 201.66 323.4 196.58 321.32 191.73 319.23 187.22 317.14 183.09 315.06 179.39 312.97 176.15 310.89 173.37 308.8 171.07 306.71 169.25 304.63 167.93 302.54 167.13 300.46 166.9 298.37 167.33 296.28 168.51 294.2 170.54 292.11 173.49 290.03 177.4 287.94 182.21 285.85 187.81 283.77 194.02 281.68 200.65 279.6 207.5 277.51 214.37 275.42 221.09 273.34 227.51 271.25 233.5 269.17 238.95 267.08 243.78 264.99 247.93 262.91 251.39 260.82 254.17 258.74 256.33 256.65 257.97 254.56 259.27 252.48 260.5 250.39 261.97 248.31 264 246.22 266.83 244.13 270.5 242.05 274.86 239.96 279.67 237.88 284.7 235.79 289.74 233.7 294.62 231.62 299.21 229.53 303.43 227.45 307.19 225.36 310.42 223.27 313.1 221.19 315.16 219.1 316.6 217.02 317.38 214.93 317.5 212.84 316.93 210.76 315.69 208.67 313.77 206.59 311.18 204.5 307.93 202.41 304.05 200.33 299.57 198.24 294.52 196.16 288.93 194.07 282.86 191.98 276.36 189.9 269.49 187.81 262.3 185.73 254.89 183.64 247.32 181.55 239.7 179.47 232.13 177.38 224.73 175.3 217.65 173.21 211.07 171.12 205.15 169.04 200.09 166.95 196.04 164.87 193.05 162.78 191.08 160.69 190.01 158.61 189.62 156.52 189.7 154.44 190.06 152.35 190.53 150.26 190.97 148.18 191.31 146.09 191.47 144.01 191.41 141.92 191.14 139.83 190.66 137.75 190.01 135.66 189.26 133.58 188.49 131.49 187.79 129.4 187.29 127.32 187.11 125.23 187.34 123.15 188.11 121.06 189.47 118.97 191.46 116.89 194.06 114.8 197.2 112.72 200.8 110.63 204.75 108.54 208.95 106.46 213.32 104.37 217.81 102.29 222.39 100.2 227.08 98.11 231.88 96.03 236.84 93.94 241.99 91.86 247.34 89.77 252.9 87.68 258.62 85.6 264.47 83.51 270.37 81.43 276.24 79.34 281.99 77.25 287.56 75.17 292.86 73.08 297.83 71 302.43 68.91 306.62 66.82 310.37 64.74 313.69 62.65 316.57" clip-path="url(#cpNDEuOTB8NDk4LjUyfDM0OS40NXwyNy44MA==)" style="stroke-width:1.07;stroke:none"/><polygon points="62.65 88.27 64.74 91.72 66.82 95.37 68.91 99.19 71 103.12 73.08 107.11 75.17 111.07 77.25 114.93 79.34 118.59 81.43 121.96 83.51 124.94 85.6 127.44 87.68 129.39 89.77 130.73 91.86 131.43 93.94 131.48 96.03 130.94 98.11 129.87 100.2 128.36 102.29 126.52 104.37 124.43 106.46 122.19 108.54 119.85 110.63 117.42 112.72 114.92 114.8 112.32 116.89 109.58 118.97 106.69 121.06 103.63 123.15 100.44 125.23 97.2 127.32 94 129.4 90.97 131.49 88.24 133.58 85.93 135.66 84.16 137.75 83.02 139.83 82.58 141.92 82.86 144.01 83.9 146.09 85.67 148.18 88.13 150.26 91.2 152.35 94.8 154.44 98.78 156.52 102.99 158.61 107.21 160.69 111.22 162.78 114.77 164.87 117.62 166.95 119.6 169.04 120.64 171.12 120.8 173.21 120.18 175.3 118.96 177.38 117.31 179.47 115.37 181.55 113.28 183.64 111.17 185.73 109.13 187.81 107.25 189.9 105.63 191.98 104.32 194.07 103.41 196.16 102.95 198.24 103 200.33 103.59 202.41 104.76 204.5 106.54 206.59 108.94 208.67 111.96 210.76 115.6 212.84 119.83 214.93 124.63 217.02 129.95 219.1 135.73 221.19 141.92 223.27 148.42 225.36 155.16 227.45 162.03 229.53 168.94 231.62 175.75 233.7 182.34 235.79 188.55 237.88 194.2 239.96 199.08 242.05 202.95 244.13 205.55 246.22 206.61 248.31 205.98 250.39 203.72 252.48 200.06 254.56 195.35 256.65 189.95 258.74 184.16 260.82 178.23 262.91 172.33 264.99 166.59 267.08 161.12 269.17 155.99 271.25 151.23 273.34 146.87 275.42 142.9 277.51 139.3 279.6 136.01 281.68 132.98 283.77 130.1 285.85 127.26 287.94 124.36 290.03 121.31 292.11 118.06 294.2 114.61 296.28 111.06 298.37 107.53 300.46 104.13 302.54 100.99 304.63 98.2 306.71 95.79 308.8 93.8 310.89 92.22 312.97 91.01 315.06 90.14 317.14 89.57 319.23 89.28 321.32 89.24 323.4 89.46 325.49 89.95 327.57 90.74 329.66 91.86 331.75 93.35 333.83 95.25 335.92 97.59 338 100.39 340.09 103.65 342.18 107.36 344.26 111.48 346.35 115.94 348.43 120.64 350.52 125.46 352.61 130.25 354.69 134.85 356.78 139.08 358.86 142.77 360.95 145.81 363.04 148.13 365.12 149.75 367.21 150.73 369.29 151.23 371.38 151.4 373.47 151.42 375.55 151.46 377.64 151.68 379.72 152.2 381.81 153.11 383.9 154.48 385.98 156.33 388.07 158.67 390.15 161.46 392.24 164.63 394.33 168.07 396.41 171.64 398.5 175.16 400.58 178.4 402.67 181.13 404.76 183.08 406.84 184.01 408.93 183.73 411.01 182.15 413.1 179.27 415.19 175.23 417.27 170.2 419.36 164.42 421.44 158.09 423.53 151.41 425.62 144.57 427.7 137.71 429.79 130.96 431.87 124.4 433.96 118.12 436.05 112.18 438.13 106.61 440.22 101.44 442.3 96.68 444.39 92.34 446.48 88.41 448.56 84.87 450.65 81.71 452.73 78.91 454.82 76.43 456.91 74.26 458.99 72.36 461.08 70.71 463.16 69.28 465.25 68.05 467.33 67 469.42 66.09 471.51 65.33 473.59 64.67 475.68 64.12 477.76 63.66 477.76 327.06 475.68 327.42 473.59 327.84 471.51 328.31 469.42 328.83 467.33 329.4 465.25 330.01 463.16 330.65 461.08 331.32 458.99 332 456.91 332.66 454.82 333.28 452.73 333.85 450.65 334.31 448.56 334.65 446.48 334.83 444.39 334.79 442.3 334.52 440.22 333.96 438.13 333.1 436.05 331.89 433.96 330.33 431.87 328.4 429.79 326.12 427.7 323.51 425.62 320.61 423.53 317.5 421.44 314.28 419.36 311.07 417.27 308.04 415.19 305.36 413.1 303.23 411.01 301.81 408.93 301.21 406.84 301.42 404.76 302.36 402.67 303.85 400.58 305.63 398.5 307.48 396.41 309.17 394.33 310.5 392.24 311.33 390.15 311.53 388.07 311.04 385.98 309.81 383.9 307.83 381.81 305.12 379.72 301.74 377.64 297.77 375.55 293.31 373.47 288.5 371.38 283.5 369.29 278.48 367.21 273.61 365.12 269.06 363.04 264.97 360.95 261.4 358.86 258.37 356.78 255.81 354.69 253.6 352.61 251.59 350.52 249.59 348.43 247.48 346.35 245.1 344.26 242.38 342.18 239.24 340.09 235.65 338 231.63 335.92 227.2 333.83 222.43 331.75 217.39 329.66 212.18 327.57 206.9 325.49 201.66 323.4 196.58 321.32 191.73 319.23 187.22 317.14 183.09 315.06 179.39 312.97 176.15 310.89 173.37 308.8 171.07 306.71 169.25 304.63 167.93 302.54 167.13 300.46 166.9 298.37 167.33 296.28 168.51 294.2 170.54 292.11 173.49 290.03 177.4 287.94 182.21 285.85 187.81 283.77 194.02 281.68 200.65 279.6 207.5 277.51 214.37 275.42 221.09 273.34 227.51 271.25 233.5 269.17 238.95 267.08 243.78 264.99 247.93 262.91 251.39 260.82 254.17 258.74 256.33 256.65 257.97 254.56 259.27 252.48 260.5 250.39 261.97 248.31 264 246.22 266.83 244.13 270.5 242.05 274.86 239.96 279.67 237.88 284.7 235.79 289.74 233.7 294.62 231.62 299.21 229.53 303.43 227.45 307.19 225.36 310.42 223.27 313.1 221.19 315.16 219.1 316.6 217.02 317.38 214.93 317.5 212.84 316.93 210.76 315.69 208.67 313.77 206.59 311.18 204.5 307.93 202.41 304.05 200.33 299.57 198.24 294.52 196.16 288.93 194.07 282.86 191.98 276.36 189.9 269.49 187.81 262.3 185.73 254.89 183.64 247.32 181.55 239.7 179.47 232.13 177.38 224.73 175.3 217.65 173.21 211.07 171.12 205.15 169.04 200.09 166.95 196.04 164.87 193.05 162.78 191.08 160.69 190.01 158.61 189.62 156.52 189.7 154.44 190.06 152.35 190.53 150.26 190.97 148.18 191.31 146.09 191.47 144.01 191.41 141.92 191.14 139.83 190.66 137.75 190.01 135.66 189.26 133.58 188.49 131.49 187.79 129.4 187.29 127.32 187.11 125.23 187.34 123.15 188.11 121.06 189.47 118.97 191.46 116.89 194.06 114.8 197.2 112.72 200.8 110.63 204.75 108.54 208.95 106.46 213.32 104.37 217.81 102.29 222.39 100.2 227.08 98.11 231.88 96.03 236.84 93.94 241.99 91.86 247.34 89.77 252.9 87.68 258.62 85.6 264.47 83.51 270.37 81.43 276.24 79.34 281.99 77.25 287.56 75.17 292.86 73.08 297.83 71 302.43 68.91 306.62 66.82 310.37 64.74 313.69 62.65 316.57" clip-path="url(#cpNDEuOTB8NDk4LjUyfDM0OS40NXwyNy44MA==)" style="stroke-width:0;stroke:none;fill:#ebebeb"/><polyline points="62.65 88.27 64.74 91.72 66.82 95.37 68.91 99.19 71 103.12 73.08 107.11 75.17 111.07 77.25 114.93 79.34 118.59 81.43 121.96 83.51 124.94 85.6 127.44 87.68 129.39 89.77 130.73 91.86 131.43 93.94 131.48 96.03 130.94 98.11 129.87 100.2 128.36 102.29 126.52 104.37 124.43 106.46 122.19 108.54 119.85 110.63 117.42 112.72 114.92 114.8 112.32 116.89 109.58 118.97 106.69 121.06 103.63 123.15 100.44 125.23 97.2 127.32 94 129.4 90.97 131.49 88.24 133.58 85.93 135.66 84.16 137.75 83.02 139.83 82.58 141.92 82.86 144.01 83.9 146.09 85.67 148.18 88.13 150.26 91.2 152.35 94.8 154.44 98.78 156.52 102.99 158.61 107.21 160.69 111.22 162.78 114.77 164.87 117.62 166.95 119.6 169.04 120.64 171.12 120.8 173.21 120.18 175.3 118.96 177.38 117.31 179.47 115.37 181.55 113.28 183.64 111.17 185.73 109.13 187.81 107.25 189.9 105.63 191.98 104.32 194.07 103.41 196.16 102.95 198.24 103 200.33 103.59 202.41 104.76 204.5 106.54 206.59 108.94 208.67 111.96 210.76 115.6 212.84 119.83 214.93 124.63 217.02 129.95 219.1 135.73 221.19 141.92 223.27 148.42 225.36 155.16 227.45 162.03 229.53 168.94 231.62 175.75 233.7 182.34 235.79 188.55 237.88 194.2 239.96 199.08 242.05 202.95 244.13 205.55 246.22 206.61 248.31 205.98 250.39 203.72 252.48 200.06 254.56 195.35 256.65 189.95 258.74 184.16 260.82 178.23 262.91 172.33 264.99 166.59 267.08 161.12 269.17 155.99 271.25 151.23 273.34 146.87 275.42 142.9 277.51 139.3 279.6 136.01 281.68 132.98 283.77 130.1 285.85 127.26 287.94 124.36 290.03 121.31 292.11 118.06 294.2 114.61 296.28 111.06 298.37 107.53 300.46 104.13 302.54 100.99 304.63 98.2 306.71 95.79 308.8 93.8 310.89 92.22 312.97 91.01 315.06 90.14 317.14 89.57 319.23 89.28 321.32 89.24 323.4 89.46 325.49 89.95 327.57 90.74 329.66 91.86 331.75 93.35 333.83 95.25 335.92 97.59 338 100.39 340.09 103.65 342.18 107.36 344.26 111.48 346.35 115.94 348.43 120.64 350.52 125.46 352.61 130.25 354.69 134.85 356.78 139.08 358.86 142.77 360.95 145.81 363.04 148.13 365.12 149.75 367.21 150.73 369.29 151.23 371.38 151.4 373.47 151.42 375.55 151.46 377.64 151.68 379.72 152.2 381.81 153.11 383.9 154.48 385.98 156.33 388.07 158.67 390.15 161.46 392.24 164.63 394.33 168.07 396.41 171.64 398.5 175.16 400.58 178.4 402.67 181.13 404.76 183.08 406.84 184.01 408.93 183.73 411.01 182.15 413.1 179.27 415.19 175.23 417.27 170.2 419.36 164.42 421.44 158.09 423.53 151.41 425.62 144.57 427.7 137.71 429.79 130.96 431.87 124.4 433.96 118.12 436.05 112.18 438.13 106.61 440.22 101.44 442.3 96.68 444.39 92.34 446.48 88.41 448.56 84.87 450.65 81.71 452.73 78.91 454.82 76.43 456.91 74.26 458.99 72.36 461.08 70.71 463.16 69.28 465.25 68.05 467.33 67 469.42 66.09 471.51 65.33 473.59 64.67 475.68 64.12 477.76 63.66" clip-path="url(#cpNDEuOTB8NDk4LjUyfDM0OS40NXwyNy44MA==)" style="stroke-width:1.07;stroke:none"/><polyline points="477.76 327.06 475.68 327.42 473.59 327.84 471.51 328.31 469.42 328.83 467.33 329.4 465.25 330.01 463.16 330.65 461.08 331.32 458.99 332 456.91 332.66 454.82 333.28 452.73 333.85 450.65 334.31 448.56 334.65 446.48 334.83 444.39 334.79 442.3 334.52 440.22 333.96 438.13 333.1 436.05 331.89 433.96 330.33 431.87 328.4 429.79 326.12 427.7 323.51 425.62 320.61 423.53 317.5 421.44 314.28 419.36 311.07 417.27 308.04 415.19 305.36 413.1 303.23 411.01 301.81 408.93 301.21 406.84 301.42 404.76 302.36 402.67 303.85 400.58 305.63 398.5 307.48 396.41 309.17 394.33 310.5 392.24 311.33 390.15 311.53 388.07 311.04 385.98 309.81 383.9 307.83 381.81 305.12 379.72 301.74 377.64 297.77 375.55 293.31 373.47 288.5 371.38 283.5 369.29 278.48 367.21 273.61 365.12 269.06 363.04 264.97 360.95 261.4 358.86 258.37 356.78 255.81 354.69 253.6 352.61 251.59 350.52 249.59 348.43 247.48 346.35 245.1 344.26 242.38 342.18 239.24 340.09 235.65 338 231.63 335.92 227.2 333.83 222.43 331.75 217.39 329.66 212.18 327.57 206.9 325.49 201.66 323.4 196.58 321.32 191.73 319.23 187.22 317.14 183.09 315.06 179.39 312.97 176.15 310.89 173.37 308.8 171.07 306.71 169.25 304.63 167.93 302.54 167.13 300.46 166.9 298.37 167.33 296.28 168.51 294.2 170.54 292.11 173.49 290.03 177.4 287.94 182.21 285.85 187.81 283.77 194.02 281.68 200.65 279.6 207.5 277.51 214.37 275.42 221.09 273.34 227.51 271.25 233.5 269.17 238.95 267.08 243.78 264.99 247.93 262.91 251.39 260.82 254.17 258.74 256.33 256.65 257.97 254.56 259.27 252.48 260.5 250.39 261.97 248.31 264 246.22 266.83 244.13 270.5 242.05 274.86 239.96 279.67 237.88 284.7 235.79 289.74 233.7 294.62 231.62 299.21 229.53 303.43 227.45 307.19 225.36 310.42 223.27 313.1 221.19 315.16 219.1 316.6 217.02 317.38 214.93 317.5 212.84 316.93 210.76 315.69 208.67 313.77 206.59 311.18 204.5 307.93 202.41 304.05 200.33 299.57 198.24 294.52 196.16 288.93 194.07 282.86 191.98 276.36 189.9 269.49 187.81 262.3 185.73 254.89 183.64 247.32 181.55 239.7 179.47 232.13 177.38 224.73 175.3 217.65 173.21 211.07 171.12 205.15 169.04 200.09 166.95 196.04 164.87 193.05 162.78 191.08 160.69 190.01 158.61 189.62 156.52 189.7 154.44 190.06 152.35 190.53 150.26 190.97 148.18 191.31 146.09 191.47 144.01 191.41 141.92 191.14 139.83 190.66 137.75 190.01 135.66 189.26 133.58 188.49 131.49 187.79 129.4 187.29 127.32 187.11 125.23 187.34 123.15 188.11 121.06 189.47 118.97 191.46 116.89 194.06 114.8 197.2 112.72 200.8 110.63 204.75 108.54 208.95 106.46 213.32 104.37 217.81 102.29 222.39 100.2 227.08 98.11 231.88 96.03 236.84 93.94 241.99 91.86 247.34 89.77 252.9 87.68 258.62 85.6 264.47 83.51 270.37 81.43 276.24 79.34 281.99 77.25 287.56 75.17 292.86 73.08 297.83 71 302.43 68.91 306.62 66.82 310.37 64.74 313.69 62.65 316.57" clip-path="url(#cpNDEuOTB8NDk4LjUyfDM0OS40NXwyNy44MA==)" style="stroke-width:1.07;stroke:none"/><polygon points="62.65 88.27 64.74 91.72 66.82 95.37 68.91 99.19 71 103.12 73.08 107.11 75.17 111.07 77.25 114.93 79.34 118.59 81.43 121.96 83.51 124.94 85.6 127.44 87.68 129.39 89.77 130.73 91.86 131.43 93.94 131.48 96.03 130.94 98.11 129.87 100.2 128.36 102.29 126.52 104.37 124.43 106.46 122.19 108.54 119.85 110.63 117.42 112.72 114.92 114.8 112.32 116.89 109.58 118.97 106.69 121.06 103.63 123.15 100.44 125.23 97.2 127.32 94 129.4 90.97 131.49 88.24 133.58 85.93 135.66 84.16 137.75 83.02 139.83 82.58 141.92 82.86 144.01 83.9 146.09 85.67 148.18 88.13 150.26 91.2 152.35 94.8 154.44 98.78 156.52 102.99 158.61 107.21 160.69 111.22 162.78 114.77 164.87 117.62 166.95 119.6 169.04 120.64 171.12 120.8 173.21 120.18 175.3 118.96 177.38 117.31 179.47 115.37 181.55 113.28 183.64 111.17 185.73 109.13 187.81 107.25 189.9 105.63 191.98 104.32 194.07 103.41 196.16 102.95 198.24 103 200.33 103.59 202.41 104.76 204.5 106.54 206.59 108.94 208.67 111.96 210.76 115.6 212.84 119.83 214.93 124.63 217.02 129.95 219.1 135.73 221.19 141.92 223.27 148.42 225.36 155.16 227.45 162.03 229.53 168.94 231.62 175.75 233.7 182.34 235.79 188.55 237.88 194.2 239.96 199.08 242.05 202.95 244.13 205.55 246.22 206.61 248.31 205.98 250.39 203.72 252.48 200.06 254.56 195.35 256.65 189.95 258.74 184.16 260.82 178.23 262.91 172.33 264.99 166.59 267.08 161.12 269.17 155.99 271.25 151.23 273.34 146.87 275.42 142.9 277.51 139.3 279.6 136.01 281.68 132.98 283.77 130.1 285.85 127.26 287.94 124.36 290.03 121.31 292.11 118.06 294.2 114.61 296.28 111.06 298.37 107.53 300.46 104.13 302.54 100.99 304.63 98.2 306.71 95.79 308.8 93.8 310.89 92.22 312.97 91.01 315.06 90.14 317.14 89.57 319.23 89.28 321.32 89.24 323.4 89.46 325.49 89.95 327.57 90.74 329.66 91.86 331.75 93.35 333.83 95.25 335.92 97.59 338 100.39 340.09 103.65 342.18 107.36 344.26 111.48 346.35 115.94 348.43 120.64 350.52 125.46 352.61 130.25 354.69 134.85 356.78 139.08 358.86 142.77 360.95 145.81 363.04 148.13 365.12 149.75 367.21 150.73 369.29 151.23 371.38 151.4 373.47 151.42 375.55 151.46 377.64 151.68 379.72 152.2 381.81 153.11 383.9 154.48 385.98 156.33 388.07 158.67 390.15 161.46 392.24 164.63 394.33 168.07 396.41 171.64 398.5 175.16 400.58 178.4 402.67 181.13 404.76 183.08 406.84 184.01 408.93 183.73 411.01 182.15 413.1 179.27 415.19 175.23 417.27 170.2 419.36 164.42 421.44 158.09 423.53 151.41 425.62 144.57 427.7 137.71 429.79 130.96 431.87 124.4 433.96 118.12 436.05 112.18 438.13 106.61 440.22 101.44 442.3 96.68 444.39 92.34 446.48 88.41 448.56 84.87 450.65 81.71 452.73 78.91 454.82 76.43 456.91 74.26 458.99 72.36 461.08 70.71 463.16 69.28 465.25 68.05 467.33 67 469.42 66.09 471.51 65.33 473.59 64.67 475.68 64.12 477.76 63.66 477.76 327.06 475.68 327.42 473.59 327.84 471.51 328.31 469.42 328.83 467.33 329.4 465.25 330.01 463.16 330.65 461.08 331.32 458.99 332 456.91 332.66 454.82 333.28 452.73 333.85 450.65 334.31 448.56 334.65 446.48 334.83 444.39 334.79 442.3 334.52 440.22 333.96 438.13 333.1 436.05 331.89 433.96 330.33 431.87 328.4 429.79 326.12 427.7 323.51 425.62 320.61 423.53 317.5 421.44 314.28 419.36 311.07 417.27 308.04 415.19 305.36 413.1 303.23 411.01 301.81 408.93 301.21 406.84 301.42 404.76 302.36 402.67 303.85 400.58 305.63 398.5 307.48 396.41 309.17 394.33 310.5 392.24 311.33 390.15 311.53 388.07 311.04 385.98 309.81 383.9 307.83 381.81 305.12 379.72 301.74 377.64 297.77 375.55 293.31 373.47 288.5 371.38 283.5 369.29 278.48 367.21 273.61 365.12 269.06 363.04 264.97 360.95 261.4 358.86 258.37 356.78 255.81 354.69 253.6 352.61 251.59 350.52 249.59 348.43 247.48 346.35 245.1 344.26 242.38 342.18 239.24 340.09 235.65 338 231.63 335.92 227.2 333.83 222.43 331.75 217.39 329.66 212.18 327.57 206.9 325.49 201.66 323.4 196.58 321.32 191.73 319.23 187.22 317.14 183.09 315.06 179.39 312.97 176.15 310.89 173.37 308.8 171.07 306.71 169.25 304.63 167.93 302.54 167.13 300.46 166.9 298.37 167.33 296.28 168.51 294.2 170.54 292.11 173.49 290.03 177.4 287.94 182.21 285.85 187.81 283.77 194.02 281.68 200.65 279.6 207.5 277.51 214.37 275.42 221.09 273.34 227.51 271.25 233.5 269.17 238.95 267.08 243.78 264.99 247.93 262.91 251.39 260.82 254.17 258.74 256.33 256.65 257.97 254.56 259.27 252.48 260.5 250.39 261.97 248.31 264 246.22 266.83 244.13 270.5 242.05 274.86 239.96 279.67 237.88 284.7 235.79 289.74 233.7 294.62 231.62 299.21 229.53 303.43 227.45 307.19 225.36 310.42 223.27 313.1 221.19 315.16 219.1 316.6 217.02 317.38 214.93 317.5 212.84 316.93 210.76 315.69 208.67 313.77 206.59 311.18 204.5 307.93 202.41 304.05 200.33 299.57 198.24 294.52 196.16 288.93 194.07 282.86 191.98 276.36 189.9 269.49 187.81 262.3 185.73 254.89 183.64 247.32 181.55 239.7 179.47 232.13 177.38 224.73 175.3 217.65 173.21 211.07 171.12 205.15 169.04 200.09 166.95 196.04 164.87 193.05 162.78 191.08 160.69 190.01 158.61 189.62 156.52 189.7 154.44 190.06 152.35 190.53 150.26 190.97 148.18 191.31 146.09 191.47 144.01 191.41 141.92 191.14 139.83 190.66 137.75 190.01 135.66 189.26 133.58 188.49 131.49 187.79 129.4 187.29 127.32 187.11 125.23 187.34 123.15 188.11 121.06 189.47 118.97 191.46 116.89 194.06 114.8 197.2 112.72 200.8 110.63 204.75 108.54 208.95 106.46 213.32 104.37 217.81 102.29 222.39 100.2 227.08 98.11 231.88 96.03 236.84 93.94 241.99 91.86 247.34 89.77 252.9 87.68 258.62 85.6 264.47 83.51 270.37 81.43 276.24 79.34 281.99 77.25 287.56 75.17 292.86 73.08 297.83 71 302.43 68.91 306.62 66.82 310.37 64.74 313.69 62.65 316.57" clip-path="url(#cpNDEuOTB8NDk4LjUyfDM0OS40NXwyNy44MA==)" style="stroke-width:0;stroke:none;fill:#ebebeb"/><polyline points="62.65 88.27 64.74 91.72 66.82 95.37 68.91 99.19 71 103.12 73.08 107.11 75.17 111.07 77.25 114.93 79.34 118.59 81.43 121.96 83.51 124.94 85.6 127.44 87.68 129.39 89.77 130.73 91.86 131.43 93.94 131.48 96.03 130.94 98.11 129.87 100.2 128.36 102.29 126.52 104.37 124.43 106.46 122.19 108.54 119.85 110.63 117.42 112.72 114.92 114.8 112.32 116.89 109.58 118.97 106.69 121.06 103.63 123.15 100.44 125.23 97.2 127.32 94 129.4 90.97 131.49 88.24 133.58 85.93 135.66 84.16 137.75 83.02 139.83 82.58 141.92 82.86 144.01 83.9 146.09 85.67 148.18 88.13 150.26 91.2 152.35 94.8 154.44 98.78 156.52 102.99 158.61 107.21 160.69 111.22 162.78 114.77 164.87 117.62 166.95 119.6 169.04 120.64 171.12 120.8 173.21 120.18 175.3 118.96 177.38 117.31 179.47 115.37 181.55 113.28 183.64 111.17 185.73 109.13 187.81 107.25 189.9 105.63 191.98 104.32 194.07 103.41 196.16 102.95 198.24 103 200.33 103.59 202.41 104.76 204.5 106.54 206.59 108.94 208.67 111.96 210.76 115.6 212.84 119.83 214.93 124.63 217.02 129.95 219.1 135.73 221.19 141.92 223.27 148.42 225.36 155.16 227.45 162.03 229.53 168.94 231.62 175.75 233.7 182.34 235.79 188.55 237.88 194.2 239.96 199.08 242.05 202.95 244.13 205.55 246.22 206.61 248.31 205.98 250.39 203.72 252.48 200.06 254.56 195.35 256.65 189.95 258.74 184.16 260.82 178.23 262.91 172.33 264.99 166.59 267.08 161.12 269.17 155.99 271.25 151.23 273.34 146.87 275.42 142.9 277.51 139.3 279.6 136.01 281.68 132.98 283.77 130.1 285.85 127.26 287.94 124.36 290.03 121.31 292.11 118.06 294.2 114.61 296.28 111.06 298.37 107.53 300.46 104.13 302.54 100.99 304.63 98.2 306.71 95.79 308.8 93.8 310.89 92.22 312.97 91.01 315.06 90.14 317.14 89.57 319.23 89.28 321.32 89.24 323.4 89.46 325.49 89.95 327.57 90.74 329.66 91.86 331.75 93.35 333.83 95.25 335.92 97.59 338 100.39 340.09 103.65 342.18 107.36 344.26 111.48 346.35 115.94 348.43 120.64 350.52 125.46 352.61 130.25 354.69 134.85 356.78 139.08 358.86 142.77 360.95 145.81 363.04 148.13 365.12 149.75 367.21 150.73 369.29 151.23 371.38 151.4 373.47 151.42 375.55 151.46 377.64 151.68 379.72 152.2 381.81 153.11 383.9 154.48 385.98 156.33 388.07 158.67 390.15 161.46 392.24 164.63 394.33 168.07 396.41 171.64 398.5 175.16 400.58 178.4 402.67 181.13 404.76 183.08 406.84 184.01 408.93 183.73 411.01 182.15 413.1 179.27 415.19 175.23 417.27 170.2 419.36 164.42 421.44 158.09 423.53 151.41 425.62 144.57 427.7 137.71 429.79 130.96 431.87 124.4 433.96 118.12 436.05 112.18 438.13 106.61 440.22 101.44 442.3 96.68 444.39 92.34 446.48 88.41 448.56 84.87 450.65 81.71 452.73 78.91 454.82 76.43 456.91 74.26 458.99 72.36 461.08 70.71 463.16 69.28 465.25 68.05 467.33 67 469.42 66.09 471.51 65.33 473.59 64.67 475.68 64.12 477.76 63.66" clip-path="url(#cpNDEuOTB8NDk4LjUyfDM0OS40NXwyNy44MA==)" style="stroke-width:1.07;stroke:none"/><polyline points="477.76 327.06 475.68 327.42 473.59 327.84 471.51 328.31 469.42 328.83 467.33 329.4 465.25 330.01 463.16 330.65 461.08 331.32 458.99 332 456.91 332.66 454.82 333.28 452.73 333.85 450.65 334.31 448.56 334.65 446.48 334.83 444.39 334.79 442.3 334.52 440.22 333.96 438.13 333.1 436.05 331.89 433.96 330.33 431.87 328.4 429.79 326.12 427.7 323.51 425.62 320.61 423.53 317.5 421.44 314.28 419.36 311.07 417.27 308.04 415.19 305.36 413.1 303.23 411.01 301.81 408.93 301.21 406.84 301.42 404.76 302.36 402.67 303.85 400.58 305.63 398.5 307.48 396.41 309.17 394.33 310.5 392.24 311.33 390.15 311.53 388.07 311.04 385.98 309.81 383.9 307.83 381.81 305.12 379.72 301.74 377.64 297.77 375.55 293.31 373.47 288.5 371.38 283.5 369.29 278.48 367.21 273.61 365.12 269.06 363.04 264.97 360.95 261.4 358.86 258.37 356.78 255.81 354.69 253.6 352.61 251.59 350.52 249.59 348.43 247.48 346.35 245.1 344.26 242.38 342.18 239.24 340.09 235.65 338 231.63 335.92 227.2 333.83 222.43 331.75 217.39 329.66 212.18 327.57 206.9 325.49 201.66 323.4 196.58 321.32 191.73 319.23 187.22 317.14 183.09 315.06 179.39 312.97 176.15 310.89 173.37 308.8 171.07 306.71 169.25 304.63 167.93 302.54 167.13 300.46 166.9 298.37 167.33 296.28 168.51 294.2 170.54 292.11 173.49 290.03 177.4 287.94 182.21 285.85 187.81 283.77 194.02 281.68 200.65 279.6 207.5 277.51 214.37 275.42 221.09 273.34 227.51 271.25 233.5 269.17 238.95 267.08 243.78 264.99 247.93 262.91 251.39 260.82 254.17 258.74 256.33 256.65 257.97 254.56 259.27 252.48 260.5 250.39 261.97 248.31 264 246.22 266.83 244.13 270.5 242.05 274.86 239.96 279.67 237.88 284.7 235.79 289.74 233.7 294.62 231.62 299.21 229.53 303.43 227.45 307.19 225.36 310.42 223.27 313.1 221.19 315.16 219.1 316.6 217.02 317.38 214.93 317.5 212.84 316.93 210.76 315.69 208.67 313.77 206.59 311.18 204.5 307.93 202.41 304.05 200.33 299.57 198.24 294.52 196.16 288.93 194.07 282.86 191.98 276.36 189.9 269.49 187.81 262.3 185.73 254.89 183.64 247.32 181.55 239.7 179.47 232.13 177.38 224.73 175.3 217.65 173.21 211.07 171.12 205.15 169.04 200.09 166.95 196.04 164.87 193.05 162.78 191.08 160.69 190.01 158.61 189.62 156.52 189.7 154.44 190.06 152.35 190.53 150.26 190.97 148.18 191.31 146.09 191.47 144.01 191.41 141.92 191.14 139.83 190.66 137.75 190.01 135.66 189.26 133.58 188.49 131.49 187.79 129.4 187.29 127.32 187.11 125.23 187.34 123.15 188.11 121.06 189.47 118.97 191.46 116.89 194.06 114.8 197.2 112.72 200.8 110.63 204.75 108.54 208.95 106.46 213.32 104.37 217.81 102.29 222.39 100.2 227.08 98.11 231.88 96.03 236.84 93.94 241.99 91.86 247.34 89.77 252.9 87.68 258.62 85.6 264.47 83.51 270.37 81.43 276.24 79.34 281.99 77.25 287.56 75.17 292.86 73.08 297.83 71 302.43 68.91 306.62 66.82 310.37 64.74 313.69 62.65 316.57" clip-path="url(#cpNDEuOTB8NDk4LjUyfDM0OS40NXwyNy44MA==)" style="stroke-width:1.07;stroke:none"/><polyline points="62.65 200.72 64.74 204.81 66.82 208.8 68.91 212.53 71 215.81 73.08 218.48 75.17 220.4 77.25 221.46 79.34 221.57 81.43 220.67 83.51 218.78 85.6 215.93 87.68 212.18 89.77 207.66 91.86 202.53 93.94 196.97 96.03 191.18 98.11 185.37 100.2 179.76 102.29 174.58 104.37 170.02 106.46 166.26 108.54 163.44 110.63 161.63 112.72 160.9 114.8 161.27 116.89 162.64 118.97 164.94 121.06 168 123.15 171.66 125.23 175.69 127.32 179.85 129.4 183.92 131.49 187.64 133.58 190.79 135.66 193.21 137.75 194.78 139.83 195.38 141.92 195 144.01 193.63 146.09 191.4 148.18 188.4 150.26 184.8 152.35 180.79 154.44 176.61 156.52 172.42 158.61 168.45 160.69 164.83 162.78 161.69 164.87 159.18 166.95 157.24 169.04 155.94 171.12 155.17 173.21 154.89 175.3 154.94 177.38 155.24 179.47 155.65 181.55 156.08 183.64 156.4 185.73 156.62 187.81 156.65 189.9 156.51 191.98 156.29 194.07 155.99 196.16 155.75 198.24 155.63 200.33 155.76 202.41 156.19 204.5 157.04 206.59 158.33 208.67 160.1 210.76 162.38 212.84 165.15 214.93 168.35 217.02 171.95 219.1 175.91 221.19 180.12 223.27 184.54 225.36 189.1 227.45 193.76 229.53 198.41 231.62 203.02 233.7 207.56 235.79 211.96 237.88 216.19 239.96 220.21 242.05 223.96 244.13 227.4 246.22 230.47 248.31 233.12 250.39 235.3 252.48 236.94 254.56 238 256.65 238.42 258.74 238.17 260.82 237.21 262.91 235.49 264.99 233.03 267.08 229.83 269.17 225.85 271.25 221.17 273.34 215.78 275.42 209.77 277.51 203.16 279.6 196.03 281.68 188.49 283.77 180.59 285.85 172.45 287.94 164.21 290.03 155.94 292.11 147.8 294.2 139.94 296.28 132.46 298.37 125.52 300.46 119.23 302.54 113.69 304.63 109.05 306.71 105.38 308.8 102.72 310.89 101.12 312.97 100.6 315.06 101.13 317.14 102.68 319.23 105.16 321.32 108.5 323.4 112.6 325.49 117.31 327.57 122.51 329.66 128.08 331.75 133.87 333.83 139.76 335.92 145.62 338 151.37 340.09 156.93 342.18 162.22 344.26 167.17 346.35 171.78 348.43 176.01 350.52 179.86 352.61 183.34 354.69 186.45 356.78 189.27 358.86 191.78 360.95 194.04 363.04 196.11 365.12 198 367.21 199.8 369.29 201.56 371.38 203.35 373.47 205.2 375.55 207.2 377.64 209.39 379.72 211.85 381.81 214.6 383.9 217.74 385.98 221.28 388.07 225.27 390.15 229.69 392.24 234.5 394.33 239.73 396.41 245.26 398.5 251.04 400.58 256.96 402.67 262.88 404.76 268.61 406.84 274.01 408.93 278.92 411.01 283.12 413.1 286.48 415.19 288.83 417.27 290.09 419.36 290.11 421.44 288.9 423.53 286.45 425.62 282.8 427.7 278.07 429.79 272.37 431.87 265.87 433.96 258.82 436.05 251.4 438.13 243.85 440.22 236.39 442.3 229.24 444.39 222.56 446.48 216.54 448.56 211.24 450.65 206.74 452.73 203.09 454.82 200.24 456.91 198.16 458.99 196.75 461.08 195.93 463.16 195.54 465.25 195.52 467.33 195.71 469.42 196.04 471.51 196.41 473.59 196.8 475.68 197.14 477.76 197.46" clip-path="url(#cpNDEuOTB8NDk4LjUyfDM0OS40NXwyNy44MA==)" style="stroke-width:1.07;stroke:#f50;stroke-opacity:.5;stroke-linecap:butt"/><polyline points="62.65 226.93 64.74 222.3 66.82 217.28 68.91 212.06 71 206.71 73.08 201.31 75.17 195.97 77.25 190.72 79.34 185.67 81.43 180.84 83.51 176.32 85.6 172.14 87.68 168.38 89.77 165.05 91.86 162.22 93.94 159.93 96.03 158.21 98.11 157.1 100.2 156.62 102.29 156.76 104.37 157.52 106.46 158.87 108.54 160.73 110.63 163.07 112.72 165.76 114.8 168.71 116.89 171.79 118.97 174.83 121.06 177.76 123.15 180.37 125.23 182.55 127.32 184.18 129.4 185.16 131.49 185.4 133.58 184.86 135.66 183.51 137.75 181.41 139.83 178.56 141.92 175.09 144.01 171.07 146.09 166.65 148.18 162.02 150.26 157.34 152.35 152.78 154.44 148.5 156.52 144.68 158.61 141.46 160.69 138.92 162.78 137.21 164.87 136.31 166.95 136.29 169.04 137.09 171.12 138.69 173.21 141 175.3 143.94 177.38 147.41 179.47 151.27 181.55 155.41 183.64 159.74 185.73 164.13 187.81 168.53 189.9 172.83 191.98 177.04 194.07 181.07 196.16 184.95 198.24 188.62 200.33 192.17 202.41 195.57 204.5 198.86 206.59 202.05 208.67 205.21 210.76 208.31 212.84 211.42 214.93 214.53 217.02 217.67 219.1 220.83 221.19 224 223.27 227.17 225.36 230.3 227.45 233.38 229.53 236.32 231.62 239.1 233.7 241.65 235.79 243.86 237.88 245.68 239.96 247.02 242.05 247.78 244.13 247.93 246.22 247.36 248.31 246.08 250.39 244.02 252.48 241.22 254.56 237.66 256.65 233.44 258.74 228.59 260.82 223.23 262.91 217.49 264.99 211.51 267.08 205.41 269.17 199.36 271.25 193.48 273.34 187.92 275.42 182.81 277.51 178.24 279.6 174.29 281.68 171.05 283.77 168.52 285.85 166.75 287.94 165.66 290.03 165.28 292.11 165.5 294.2 166.28 296.28 167.51 298.37 169.08 300.46 170.87 302.54 172.77 304.63 174.67 306.71 176.45 308.8 178.03 310.89 179.28 312.97 180.18 315.06 180.66 317.14 180.7 319.23 180.29 321.32 179.46 323.4 178.27 325.49 176.77 327.57 175.1 329.66 173.32 331.75 171.6 333.83 170.03 335.92 168.77 338 167.89 340.09 167.53 342.18 167.76 344.26 168.64 346.35 170.19 348.43 172.41 350.52 175.29 352.61 178.77 354.69 182.77 356.78 187.18 358.86 191.9 360.95 196.81 363.04 201.76 365.12 206.62 367.21 211.31 369.29 215.71 371.38 219.73 373.47 223.31 375.55 226.4 377.64 229.01 379.72 231.14 381.81 232.81 383.9 234.12 385.98 235.13 388.07 235.92 390.15 236.63 392.24 237.39 394.33 238.26 396.41 239.41 398.5 240.91 400.58 242.88 402.67 245.35 404.76 248.35 406.84 251.89 408.93 255.95 411.01 260.42 413.1 265.23 415.19 270.23 417.27 275.27 419.36 280.13 421.44 284.67 423.53 288.68 425.62 291.95 427.7 294.36 429.79 295.74 431.87 295.99 433.96 295.07 436.05 292.93 438.13 289.61 440.22 285.22 442.3 279.79 444.39 273.55 446.48 266.65 448.56 259.26 450.65 251.61 452.73 243.89 454.82 236.3 456.91 228.99 458.99 222.13 461.08 215.81 463.16 210.09 465.25 205.01 467.33 200.58 469.42 196.72 471.51 193.36 473.59 190.41 475.68 187.71 477.76 185.16" clip-path="url(#cpNDEuOTB8NDk4LjUyfDM0OS40NXwyNy44MA==)" style="stroke-width:1.07;stroke:#f50;stroke-opacity:.5;stroke-linecap:butt"/><polyline points="62.65 42.42 64.74 50.8 66.82 59.51 68.91 68.34 71 77.17 73.08 85.86 75.17 94.29 77.25 102.35 79.34 109.96 81.43 117.1 83.51 123.75 85.6 129.87 87.68 135.49 89.77 140.64 91.86 145.32 93.94 149.56 96.03 153.36 98.11 156.75 100.2 159.67 102.29 162.11 104.37 164.06 106.46 165.46 108.54 166.25 110.63 166.43 112.72 165.95 114.8 164.78 116.89 162.96 118.97 160.49 121.06 157.44 123.15 153.9 125.23 149.94 127.32 145.66 129.4 141.21 131.49 136.69 133.58 132.21 135.66 127.94 137.75 123.97 139.83 120.37 141.92 117.27 144.01 114.73 146.09 112.8 148.18 111.58 150.26 111.06 152.35 111.28 154.44 112.3 156.52 114.07 158.61 116.64 160.69 119.97 162.78 124.05 164.87 128.84 166.95 134.27 169.04 140.27 171.12 146.72 173.21 153.53 175.3 160.54 177.38 167.62 179.47 174.58 181.55 181.27 183.64 187.56 185.73 193.26 187.81 198.29 189.9 202.49 191.98 205.83 194.07 208.27 196.16 209.82 198.24 210.53 200.33 210.47 202.41 209.77 204.5 208.55 206.59 206.98 208.67 205.24 210.76 203.51 212.84 201.93 214.93 200.69 217.02 199.89 219.1 199.65 221.19 200.08 223.27 201.17 225.36 202.97 227.45 205.44 229.53 208.57 231.62 212.25 233.7 216.37 235.79 220.81 237.88 225.44 239.96 230.08 242.05 234.54 244.13 238.7 246.22 242.36 248.31 245.32 250.39 247.44 252.48 248.57 254.56 248.59 256.65 247.37 258.74 244.87 260.82 241.03 262.91 235.86 264.99 229.42 267.08 221.76 269.17 213.02 271.25 203.38 273.34 193.01 275.42 182.17 277.51 171.08 279.6 160.03 281.68 149.29 283.77 139.09 285.85 129.7 287.94 121.37 290.03 114.22 292.11 108.47 294.2 104.22 296.28 101.5 298.37 100.35 300.46 100.73 302.54 102.57 304.63 105.76 306.71 110.15 308.8 115.55 310.89 121.81 312.97 128.68 315.06 135.98 317.14 143.49 319.23 151.08 321.32 158.49 323.4 165.64 325.49 172.37 327.57 178.53 329.66 184.11 331.75 189.01 333.83 193.17 335.92 196.57 338 199.24 340.09 201.17 342.18 202.39 344.26 202.96 346.35 202.97 348.43 202.43 350.52 201.47 352.61 200.24 354.69 198.8 356.78 197.26 358.86 195.74 360.95 194.38 363.04 193.26 365.12 192.49 367.21 192.15 369.29 192.27 371.38 192.92 373.47 194.11 375.55 195.84 377.64 198.07 379.72 200.82 381.81 203.98 383.9 207.54 385.98 211.39 388.07 215.5 390.15 219.8 392.24 224.23 394.33 228.72 396.41 233.28 398.5 237.83 400.58 242.34 402.67 246.79 404.76 251.15 406.84 255.4 408.93 259.5 411.01 263.41 413.1 267.11 415.19 270.52 417.27 273.57 419.36 276.24 421.44 278.41 423.53 280.04 425.62 281.04 427.7 281.32 429.79 280.89 431.87 279.67 433.96 277.64 436.05 274.81 438.13 271.2 440.22 266.86 442.3 261.86 444.39 256.24 446.48 250.1 448.56 243.59 450.65 236.78 452.73 229.79 454.82 222.7 456.91 215.6 458.99 208.55 461.08 201.6 463.16 194.79 465.25 188.1 467.33 181.52 469.42 175.05 471.51 168.62 473.59 162.23 475.68 155.85 477.76 149.42" clip-path="url(#cpNDEuOTB8NDk4LjUyfDM0OS40NXwyNy44MA==)" style="stroke-width:1.07;stroke:#f50;stroke-opacity:.5;stroke-linecap:butt"/><polyline points="62.65 167.97 64.74 161.84 66.82 156.01 68.91 150.61 71 145.6 73.08 141.01 75.17 136.82 77.25 132.96 79.34 129.4 81.43 126.04 83.51 122.86 85.6 119.79 87.68 116.82 89.77 113.87 91.86 111.01 93.94 108.2 96.03 105.53 98.11 103.01 100.2 100.71 102.29 98.72 104.37 97.1 106.46 95.94 108.54 95.3 110.63 95.21 112.72 95.76 114.8 96.95 116.89 98.77 118.97 101.23 121.06 104.29 123.15 107.88 125.23 111.99 127.32 116.46 129.4 121.26 131.49 126.23 133.58 131.31 135.66 136.33 137.75 141.2 139.83 145.77 141.92 149.97 144.01 153.66 146.09 156.78 148.18 159.2 150.26 160.91 152.35 161.88 154.44 162.07 156.52 161.53 158.61 160.3 160.69 158.46 162.78 156.18 164.87 153.55 166.95 150.8 169.04 148.06 171.12 145.55 173.21 143.49 175.3 142.07 177.38 141.44 179.47 141.77 181.55 143.14 183.64 145.63 185.73 149.28 187.81 154.04 189.9 159.82 191.98 166.53 194.07 173.97 196.16 181.99 198.24 190.34 200.33 198.83 202.41 207.24 204.5 215.35 206.59 223 208.67 230.03 210.76 236.31 212.84 241.77 214.93 246.35 217.02 250.04 219.1 252.85 221.19 254.79 223.27 255.92 225.36 256.31 227.45 255.98 229.53 255.02 231.62 253.48 233.7 251.39 235.79 248.81 237.88 245.75 239.96 242.29 242.05 238.46 244.13 234.24 246.22 229.73 248.31 224.95 250.39 219.95 252.48 214.79 254.56 209.52 256.65 204.21 258.74 198.93 260.82 193.76 262.91 188.71 264.99 183.87 267.08 179.27 269.17 174.93 271.25 170.88 273.34 167.12 275.42 163.66 277.51 160.46 279.6 157.51 281.68 154.77 283.77 152.23 285.85 149.78 287.94 147.45 290.03 145.18 292.11 142.97 294.2 140.76 296.28 138.59 298.37 136.42 300.46 134.33 302.54 132.32 304.63 130.43 306.71 128.78 308.8 127.37 310.89 126.3 312.97 125.65 315.06 125.5 317.14 125.94 319.23 127 321.32 128.72 323.4 131.19 325.49 134.36 327.57 138.27 329.66 142.88 331.75 148.13 333.83 153.96 335.92 160.29 338 167.03 340.09 174.04 342.18 181.21 344.26 188.44 346.35 195.58 348.43 202.5 350.52 209.1 352.61 215.25 354.69 220.87 356.78 225.86 358.86 230.13 360.95 233.66 363.04 236.41 365.12 238.36 367.21 239.52 369.29 239.95 371.38 239.69 373.47 238.81 375.55 237.44 377.64 235.67 379.72 233.63 381.81 231.46 383.9 229.26 385.98 227.18 388.07 225.27 390.15 223.67 392.24 222.38 394.33 221.49 396.41 220.94 398.5 220.72 400.58 220.76 402.67 221.01 404.76 221.31 406.84 221.58 408.93 221.69 411.01 221.48 413.1 220.87 415.19 219.72 417.27 217.98 419.36 215.57 421.44 212.44 423.53 208.63 425.62 204.17 427.7 199.11 429.79 193.56 431.87 187.71 433.96 181.66 436.05 175.6 438.13 169.76 440.22 164.33 442.3 159.5 444.39 155.44 446.48 152.31 448.56 150.24 450.65 149.33 452.73 149.64 454.82 151.16 456.91 153.89 458.99 157.74 461.08 162.59 463.16 168.33 465.25 174.74 467.33 181.64 469.42 188.83 471.51 196.03 473.59 203.05 475.68 209.63 477.76 215.54" clip-path="url(#cpNDEuOTB8NDk4LjUyfDM0OS40NXwyNy44MA==)" style="stroke-width:1.07;stroke:#f50;stroke-opacity:.5;stroke-linecap:butt"/><polyline points="62.65 165.03 64.74 172.06 66.82 179.08 68.91 185.84 71 192.16 73.08 197.88 75.17 202.82 77.25 206.92 79.34 210.03 81.43 212.12 83.51 213.14 85.6 213.09 87.68 211.97 89.77 209.82 91.86 206.69 93.94 202.64 96.03 197.74 98.11 192.1 100.2 185.87 102.29 179.11 104.37 172 106.46 164.7 108.54 157.38 110.63 150.18 112.72 143.29 114.8 136.86 116.89 131.03 118.97 125.93 121.06 121.66 123.15 118.3 125.23 115.89 127.32 114.41 129.4 113.87 131.49 114.19 133.58 115.31 135.66 117.13 137.75 119.49 139.83 122.3 141.92 125.41 144.01 128.68 146.09 131.98 148.18 135.17 150.26 138.15 152.35 140.79 154.44 143.01 156.52 144.72 158.61 145.89 160.69 146.45 162.78 146.33 164.87 145.55 166.95 144.13 169.04 142.05 171.12 139.37 173.21 136.13 175.3 132.43 177.38 128.35 179.47 124.04 181.55 119.54 183.64 115.06 185.73 110.72 187.81 106.67 189.9 103.04 191.98 99.96 194.07 97.56 196.16 95.9 198.24 95.14 200.33 95.27 202.41 96.36 204.5 98.43 206.59 101.47 208.67 105.44 210.76 110.33 212.84 116.04 214.93 122.55 217.02 129.75 219.1 137.56 221.19 145.88 223.27 154.64 225.36 163.73 227.45 173.06 229.53 182.48 231.62 191.94 233.7 201.28 235.79 210.41 237.88 219.18 239.96 227.44 242.05 235.06 244.13 241.9 246.22 247.76 248.31 252.53 250.39 256.06 252.48 258.22 254.56 258.9 256.65 258.01 258.74 255.55 260.82 251.51 262.91 245.91 264.99 238.87 267.08 230.54 269.17 221.1 271.25 210.8 273.34 199.89 275.42 188.68 277.51 177.43 279.6 166.49 281.68 156.14 283.77 146.65 285.85 138.26 287.94 131.18 290.03 125.59 292.11 121.59 294.2 119.26 296.28 118.6 298.37 119.62 300.46 122.21 302.54 126.26 304.63 131.66 306.71 138.22 308.8 145.74 310.89 154.03 312.97 162.84 315.06 172 317.14 181.23 319.23 190.37 321.32 199.17 323.4 207.47 325.49 215.09 327.57 221.89 329.66 227.72 331.75 232.53 333.83 236.22 335.92 238.76 338 240.15 340.09 240.42 342.18 239.58 344.26 237.74 346.35 234.95 348.43 231.34 350.52 227.04 352.61 222.16 354.69 216.84 356.78 211.24 358.86 205.51 360.95 199.78 363.04 194.22 365.12 188.95 367.21 184.09 369.29 179.79 371.38 176.17 373.47 173.31 375.55 171.34 377.64 170.29 379.72 170.23 381.81 171.23 383.9 173.27 385.98 176.32 388.07 180.38 390.15 185.32 392.24 191.09 394.33 197.57 396.41 204.58 398.5 211.97 400.58 219.59 402.67 227.2 404.76 234.65 406.84 241.78 408.93 248.42 411.01 254.4 413.1 259.64 415.19 264.04 417.27 267.6 419.36 270.23 421.44 272 423.53 272.93 425.62 273.11 427.7 272.6 429.79 271.54 431.87 270.02 433.96 268.18 436.05 266.1 438.13 263.88 440.22 261.62 442.3 259.37 444.39 257.2 446.48 255.13 448.56 253.16 450.65 251.33 452.73 249.61 454.82 247.99 456.91 246.48 458.99 245.04 461.08 243.67 463.16 242.36 465.25 241.12 467.33 239.95 469.42 238.87 471.51 237.84 473.59 236.93 475.68 236.1 477.76 235.31" clip-path="url(#cpNDEuOTB8NDk4LjUyfDM0OS40NXwyNy44MA==)" style="stroke-width:1.07;stroke:#f50;stroke-opacity:.5;stroke-linecap:butt"/><circle cx="304.02" cy="133.21" r="1.95" clip-path="url(#cpNDEuOTB8NDk4LjUyfDM0OS40NXwyNy44MA==)" style="stroke-width:.71;fill:#000"/><circle cx="251.73" cy="226.77" r="1.95" clip-path="url(#cpNDEuOTB8NDk4LjUyfDM0OS40NXwyNy44MA==)" style="stroke-width:.71;fill:#000"/><circle cx="174.24" cy="168.56" r="1.95" clip-path="url(#cpNDEuOTB8NDk4LjUyfDM0OS40NXwyNy44MA==)" style="stroke-width:.71;fill:#000"/><circle cx="293.11" cy="136.64" r="1.95" clip-path="url(#cpNDEuOTB8NDk4LjUyfDM0OS40NXwyNy44MA==)" style="stroke-width:.71;fill:#000"/><circle cx="158.64" cy="141.19" r="1.95" clip-path="url(#cpNDEuOTB8NDk4LjUyfDM0OS40NXwyNy44MA==)" style="stroke-width:.71;fill:#000"/><circle cx="288.16" cy="150.81" r="1.95" clip-path="url(#cpNDEuOTB8NDk4LjUyfDM0OS40NXwyNy44MA==)" style="stroke-width:.71;fill:#000"/><circle cx="248.44" cy="243.64" r="1.95" clip-path="url(#cpNDEuOTB8NDk4LjUyfDM0OS40NXwyNy44MA==)" style="stroke-width:.71;fill:#000"/><circle cx="116.74" cy="145.01" r="1.95" clip-path="url(#cpNDEuOTB8NDk4LjUyfDM0OS40NXwyNy44MA==)" style="stroke-width:.71;fill:#000"/><circle cx="320.74" cy="132.88" r="1.95" clip-path="url(#cpNDEuOTB8NDk4LjUyfDM0OS40NXwyNy44MA==)" style="stroke-width:.71;fill:#000"/><circle cx="290.13" cy="159.23" r="1.95" clip-path="url(#cpNDEuOTB8NDk4LjUyfDM0OS40NXwyNy44MA==)" style="stroke-width:.71;fill:#000"/><circle cx="124.61" cy="136.25" r="1.95" clip-path="url(#cpNDEuOTB8NDk4LjUyfDM0OS40NXwyNy44MA==)" style="stroke-width:.71;fill:#000"/><circle cx="294.93" cy="129.15" r="1.95" clip-path="url(#cpNDEuOTB8NDk4LjUyfDM0OS40NXwyNy44MA==)" style="stroke-width:.71;fill:#000"/><circle cx="239.86" cy="246.67" r="1.95" clip-path="url(#cpNDEuOTB8NDk4LjUyfDM0OS40NXwyNy44MA==)" style="stroke-width:.71;fill:#000"/><circle cx="248.51" cy="232.17" r="1.95" clip-path="url(#cpNDEuOTB8NDk4LjUyfDM0OS40NXwyNy44MA==)" style="stroke-width:.71;fill:#000"/><circle cx="408.56" cy="254.16" r="1.95" clip-path="url(#cpNDEuOTB8NDk4LjUyfDM0OS40NXwyNy44MA==)" style="stroke-width:.71;fill:#000"/><circle cx="361.36" cy="207.32" r="1.95" clip-path="url(#cpNDEuOTB8NDk4LjUyfDM0OS40NXwyNy44MA==)" style="stroke-width:.71;fill:#000"/><circle cx="252.31" cy="234.36" r="1.95" clip-path="url(#cpNDEuOTB8NDk4LjUyfDM0OS40NXwyNy44MA==)" style="stroke-width:.71;fill:#000"/><circle cx="279.04" cy="174.45" r="1.95" clip-path="url(#cpNDEuOTB8NDk4LjUyfDM0OS40NXwyNy44MA==)" style="stroke-width:.71;fill:#000"/><circle cx="163.3" cy="152.87" r="1.95" clip-path="url(#cpNDEuOTB8NDk4LjUyfDM0OS40NXwyNy44MA==)" style="stroke-width:.71;fill:#000"/><circle cx="94.14" cy="193.87" r="1.95" clip-path="url(#cpNDEuOTB8NDk4LjUyfDM0OS40NXwyNy44MA==)" style="stroke-width:.71;fill:#000"/><defs><clipPath id="cpMC4wMHw1MDQuMDB8Mzc4LjAwfDAuMDA="><rect width="504" height="378" x="0" y="0"/></clipPath></defs><g clip-path="url(#cpMC4wMHw1MDQuMDB8Mzc4LjAwfDAuMDA=)"><text x="28.43" y="328.55" lengthAdjust="spacingAndGlyphs" textLength="8.54" style="font-size:9.6px;fill:#4d4d4d;font-family:Arial">-2</text></g><g clip-path="url(#cpMC4wMHw1MDQuMDB8Mzc4LjAwfDAuMDA=)"><text x="28.43" y="262.65" lengthAdjust="spacingAndGlyphs" textLength="8.54" style="font-size:9.6px;fill:#4d4d4d;font-family:Arial">-1</text></g><g clip-path="url(#cpMC4wMHw1MDQuMDB8Mzc4LjAwfDAuMDA=)"><text x="31.63" y="196.75" lengthAdjust="spacingAndGlyphs" textLength="5.34" style="font-size:9.6px;fill:#4d4d4d;font-family:Arial">0</text></g><g clip-path="url(#cpMC4wMHw1MDQuMDB8Mzc4LjAwfDAuMDA=)"><text x="31.63" y="130.85" lengthAdjust="spacingAndGlyphs" textLength="5.34" style="font-size:9.6px;fill:#4d4d4d;font-family:Arial">1</text></g><g clip-path="url(#cpMC4wMHw1MDQuMDB8Mzc4LjAwfDAuMDA=)"><text x="31.63" y="64.95" lengthAdjust="spacingAndGlyphs" textLength="5.34" style="font-size:9.6px;fill:#4d4d4d;font-family:Arial">2</text></g><polyline points="39.16 325.12 41.9 325.12" clip-path="url(#cpMC4wMHw1MDQuMDB8Mzc4LjAwfDAuMDA=)" style="stroke-width:1.07;stroke:#333;stroke-linecap:butt"/><polyline points="39.16 259.22 41.9 259.22" clip-path="url(#cpMC4wMHw1MDQuMDB8Mzc4LjAwfDAuMDA=)" style="stroke-width:1.07;stroke:#333;stroke-linecap:butt"/><polyline points="39.16 193.31 41.9 193.31" clip-path="url(#cpMC4wMHw1MDQuMDB8Mzc4LjAwfDAuMDA=)" style="stroke-width:1.07;stroke:#333;stroke-linecap:butt"/><polyline points="39.16 127.41 41.9 127.41" clip-path="url(#cpMC4wMHw1MDQuMDB8Mzc4LjAwfDAuMDA=)" style="stroke-width:1.07;stroke:#333;stroke-linecap:butt"/><polyline points="39.16 61.51 41.9 61.51" clip-path="url(#cpMC4wMHw1MDQuMDB8Mzc4LjAwfDAuMDA=)" style="stroke-width:1.07;stroke:#333;stroke-linecap:butt"/><polyline points="48.82 352.19 48.82 349.45" clip-path="url(#cpMC4wMHw1MDQuMDB8Mzc4LjAwfDAuMDA=)" style="stroke-width:1.07;stroke:#333;stroke-linecap:butt"/><polyline points="159.51 352.19 159.51 349.45" clip-path="url(#cpMC4wMHw1MDQuMDB8Mzc4LjAwfDAuMDA=)" style="stroke-width:1.07;stroke:#333;stroke-linecap:butt"/><polyline points="270.21 352.19 270.21 349.45" clip-path="url(#cpMC4wMHw1MDQuMDB8Mzc4LjAwfDAuMDA=)" style="stroke-width:1.07;stroke:#333;stroke-linecap:butt"/><polyline points="380.91 352.19 380.91 349.45" clip-path="url(#cpMC4wMHw1MDQuMDB8Mzc4LjAwfDAuMDA=)" style="stroke-width:1.07;stroke:#333;stroke-linecap:butt"/><polyline points="491.6 352.19 491.6 349.45" clip-path="url(#cpMC4wMHw1MDQuMDB8Mzc4LjAwfDAuMDA=)" style="stroke-width:1.07;stroke:#333;stroke-linecap:butt"/><g clip-path="url(#cpMC4wMHw1MDQuMDB8Mzc4LjAwfDAuMDA=)"><text x="44.55" y="361.25" lengthAdjust="spacingAndGlyphs" textLength="8.54" style="font-size:9.6px;fill:#4d4d4d;font-family:Arial">-8</text></g><g clip-path="url(#cpMC4wMHw1MDQuMDB8Mzc4LjAwfDAuMDA=)"><text x="155.24" y="361.25" lengthAdjust="spacingAndGlyphs" textLength="8.54" style="font-size:9.6px;fill:#4d4d4d;font-family:Arial">-4</text></g><g clip-path="url(#cpMC4wMHw1MDQuMDB8Mzc4LjAwfDAuMDA=)"><text x="267.54" y="361.25" lengthAdjust="spacingAndGlyphs" textLength="5.34" style="font-size:9.6px;fill:#4d4d4d;font-family:Arial">0</text></g><g clip-path="url(#cpMC4wMHw1MDQuMDB8Mzc4LjAwfDAuMDA=)"><text x="378.24" y="361.25" lengthAdjust="spacingAndGlyphs" textLength="5.34" style="font-size:9.6px;fill:#4d4d4d;font-family:Arial">4</text></g><g clip-path="url(#cpMC4wMHw1MDQuMDB8Mzc4LjAwfDAuMDA=)"><text x="488.93" y="361.25" lengthAdjust="spacingAndGlyphs" textLength="5.34" style="font-size:9.6px;fill:#4d4d4d;font-family:Arial">8</text></g><g clip-path="url(#cpMC4wMHw1MDQuMDB8Mzc4LjAwfDAuMDA=)"><text x="493.72" y="371.42" lengthAdjust="spacingAndGlyphs" textLength="4.8" style="font-size:9.6px;fill:#4d4d4d;font-family:Arial">x</text></g><g clip-path="url(#cpMC4wMHw1MDQuMDB8Mzc4LjAwfDAuMDA=)"><text x="5.48" y="34.68" lengthAdjust="spacingAndGlyphs" textLength="22.95" style="font-size:9.6px;fill:#4d4d4d;font-family:Arial">value</text></g><g clip-path="url(#cpMC4wMHw1MDQuMDB8Mzc4LjAwfDAuMDA=)"><text x="41.9" y="18.36" lengthAdjust="spacingAndGlyphs" textLength="156.06" style="font-size:18px;fill:#4d4d4d;font-family:Arial">Posterior Predictive</text></g></svg>