<svg xmlns="http://www.w3.org/2000/svg" xmlns:xlink="http://www.w3.org/1999/xlink" viewBox="0 0 504 378"><defs><style type="text/css">polyline,rect{fill:none;stroke:#000;stroke-linecap:round;stroke-linejoin:round;stroke-miterlimit:10}</style></defs><rect width="100%" height="100%" style="stroke:none;fill:none"/><defs><clipPath id="cpMzEuMjd8NDk4LjUyfDM0Ni4yOHwyMy4yNw=="><rect width="467.25" height="323.01" x="31.27" y="23.27"/></clipPath></defs><polyline points="31.27 338.72 498.52 338.72" clip-path="url(#cpMzEuMjd8NDk4LjUyfDM0Ni4yOHwyMy4yNw==)" style="stroke-width:.53;stroke:#ebebeb;stroke-linecap:butt"/><polyline points="31.27 275.28 498.52 275.28" clip-path="url(#cpMzEuMjd8NDk4LjUyfDM0Ni4yOHwyMy4yNw==)" style="stroke-width:.53;stroke:#ebebeb;stroke-linecap:butt"/><polyline points="31.27 211.83 498.52 211.83" clip-path="url(#cpMzEuMjd8NDk4LjUyfDM0Ni4yOHwyMy4yNw==)" style="stroke-width:.53;stroke:#ebebeb;stroke-linecap:butt"/><polyline points="31.27 148.39 498.52 148.39" clip-path="url(#cpMzEuMjd8NDk4LjUyfDM0Ni4yOHwyMy4yNw==)" style="stroke-width:.53;stroke:#ebebeb;stroke-linecap:butt"/><polyline points="31.27 84.94 498.52 84.94" clip-path="url(#cpMzEuMjd8NDk4LjUyfDM0Ni4yOHwyMy4yNw==)" style="stroke-width:.53;stroke:#ebebeb;stroke-linecap:butt"/><polyline points="105.6 346.28 105.6 23.27" clip-path="url(#cpMzEuMjd8NDk4LjUyfDM0Ni4yOHwyMy4yNw==)" style="stroke-width:.53;stroke:#ebebeb;stroke-linecap:butt"/><polyline points="211.8 346.28 211.8 23.27" clip-path="url(#cpMzEuMjd8NDk4LjUyfDM0Ni4yOHwyMy4yNw==)" style="stroke-width:.53;stroke:#ebebeb;stroke-linecap:butt"/><polyline points="317.99 346.28 317.99 23.27" clip-path="url(#cpMzEuMjd8NDk4LjUyfDM0Ni4yOHwyMy4yNw==)" style="stroke-width:.53;stroke:#ebebeb;stroke-linecap:butt"/><polyline points="424.19 346.28 424.19 23.27" clip-path="url(#cpMzEuMjd8NDk4LjUyfDM0Ni4yOHwyMy4yNw==)" style="stroke-width:.53;stroke:#ebebeb;stroke-linecap:butt"/><polyline points="31.27 307 498.52 307" clip-path="url(#cpMzEuMjd8NDk4LjUyfDM0Ni4yOHwyMy4yNw==)" style="stroke-width:1.07;stroke:#ebebeb;stroke-linecap:butt"/><polyline points="31.27 243.55 498.52 243.55" clip-path="url(#cpMzEuMjd8NDk4LjUyfDM0Ni4yOHwyMy4yNw==)" style="stroke-width:1.07;stroke:#ebebeb;stroke-linecap:butt"/><polyline points="31.27 180.11 498.52 180.11" clip-path="url(#cpMzEuMjd8NDk4LjUyfDM0Ni4yOHwyMy4yNw==)" style="stroke-width:1.07;stroke:#ebebeb;stroke-linecap:butt"/><polyline points="31.27 116.66 498.52 116.66" clip-path="url(#cpMzEuMjd8NDk4LjUyfDM0Ni4yOHwyMy4yNw==)" style="stroke-width:1.07;stroke:#ebebeb;stroke-linecap:butt"/><polyline points="31.27 53.22 498.52 53.22" clip-path="url(#cpMzEuMjd8NDk4LjUyfDM0Ni4yOHwyMy4yNw==)" style="stroke-width:1.07;stroke:#ebebeb;stroke-linecap:butt"/><polyline points="52.51 346.28 52.51 23.27" clip-path="url(#cpMzEuMjd8NDk4LjUyfDM0Ni4yOHwyMy4yNw==)" style="stroke-width:1.07;stroke:#ebebeb;stroke-linecap:butt"/><polyline points="158.7 346.28 158.7 23.27" clip-path="url(#cpMzEuMjd8NDk4LjUyfDM0Ni4yOHwyMy4yNw==)" style="stroke-width:1.07;stroke:#ebebeb;stroke-linecap:butt"/><polyline points="264.89 346.28 264.89 23.27" clip-path="url(#cpMzEuMjd8NDk4LjUyfDM0Ni4yOHwyMy4yNw==)" style="stroke-width:1.07;stroke:#ebebeb;stroke-linecap:butt"/><polyline points="371.09 346.28 371.09 23.27" clip-path="url(#cpMzEuMjd8NDk4LjUyfDM0Ni4yOHwyMy4yNw==)" style="stroke-width:1.07;stroke:#ebebeb;stroke-linecap:butt"/><polyline points="477.28 346.28 477.28 23.27" clip-path="url(#cpMzEuMjd8NDk4LjUyfDM0Ni4yOHwyMy4yNw==)" style="stroke-width:1.07;stroke:#ebebeb;stroke-linecap:butt"/><polyline points="52.51 129.14 61 115.48 69.5 99.69 77.99 82 86.49 63.96 94.99 48.42 103.48 38.84 111.98 37.95 120.47 46.57 128.97 63 137.46 83.31 145.96 102.49 154.45 115.97 162.95 120.88 171.44 116.74 179.94 105.27 188.44 89.62 196.93 73.24 205.43 59.01 213.92 48.74 222.42 43.13 230.91 42.19 239.41 45.61 247.9 53.2 256.4 64.91 264.89 80.76 273.39 100.48 281.89 123.3 290.38 147.79 298.88 172.12 307.37 194.41 315.87 213.21 324.36 227.87 332.86 238.55 341.35 246.06 349.85 251.45 358.35 255.65 366.84 259.15 375.34 261.91 383.83 263.42 392.33 262.93 400.82 259.75 409.32 253.56 417.81 244.52 426.31 233.26 434.8 220.69 443.3 207.74 451.8 195.05 460.29 182.77 468.79 170.49 477.28 157.43" clip-path="url(#cpMzEuMjd8NDk4LjUyfDM0Ni4yOHwyMy4yNw==)" style="stroke-width:1.07;stroke:#f50;stroke-opacity:.5;stroke-linecap:butt"/><polyline points="52.51 241.77 61 271.48 69.5 296.66 77.99 315.76 86.49 327.68 94.99 331.59 103.48 327.07 111.98 314.44 120.47 295.27 128.97 272.36 137.46 249.2 145.96 228.95 154.45 213.45 162.95 202.82 171.44 195.84 179.94 190.78 188.44 186.37 196.93 182.25 205.43 178.9 213.92 177.05 222.42 177.08 230.91 178.67 239.41 181 247.9 183.16 256.4 184.74 264.89 185.92 273.39 187.28 281.89 189.31 290.38 191.93 298.88 194.3 307.37 195.12 315.87 193.12 324.36 187.8 332.86 179.98 341.35 171.87 349.85 166.55 358.35 166.94 366.84 174.56 375.34 188.8 383.83 206.86 392.33 224.73 400.82 238.55 409.32 245.98 417.81 246.76 426.31 242.51 434.8 235.79 443.3 229.2 451.8 224.68 460.29 223.38 468.79 225.77 477.28 231.76" clip-path="url(#cpMzEuMjd8NDk4LjUyfDM0Ni4yOHwyMy4yNw==)" style="stroke-width:1.07;stroke:#f50;stroke-opacity:.5;stroke-linecap:butt"/><polyline points="52.51 177.88 61 186.66 69.5 195.2 77.99 197.87 86.49 190.07 94.99 170.51 103.48 142.04 111.98 110.94 120.47 84.79 128.97 70.03 137.46 70.02 145.96 84.38 154.45 109.52 162.95 139.95 171.44 170 179.94 195.18 188.44 213.03 196.93 223.17 205.43 226.86 213.92 226.25 222.42 223.72 230.91 221.47 239.41 221.34 247.9 224.66 256.4 232.01 264.89 242.93 273.39 255.88 281.89 268.55 290.38 278.58 298.88 284.38 307.37 285.66 315.87 283.39 324.36 279.2 332.86 274.59 341.35 270.2 349.85 265.72 358.35 260.08 366.84 251.99 375.34 240.52 383.83 225.36 392.33 207.05 400.82 186.8 409.32 166.42 417.81 147.96 426.31 133.4 434.8 124.33 443.3 121.67 451.8 125.55 460.29 135.41 468.79 150.24 477.28 168.76" clip-path="url(#cpMzEuMjd8NDk4LjUyfDM0Ni4yOHwyMy4yNw==)" style="stroke-width:1.07;stroke:#f50;stroke-opacity:.5;stroke-linecap:butt"/><polyline points="52.51 142.92 61 133.85 69.5 128.88 77.99 127.77 86.49 130.33 94.99 136.5 103.48 146.16 111.98 158.91 120.47 173.81 128.97 189.39 137.46 203.8 145.96 215.11 154.45 221.65 162.95 222.36 171.44 216.99 179.94 206.24 188.44 191.61 196.93 175.15 205.43 158.94 213.92 144.65 222.42 133.15 230.91 124.47 239.41 118.12 247.9 113.58 256.4 110.7 264.89 109.85 273.39 111.5 281.89 115.72 290.38 121.75 298.88 128.03 307.37 132.71 315.87 134.38 324.36 132.51 332.86 127.56 341.35 120.58 349.85 112.69 358.35 104.77 366.84 97.4 375.34 91.19 383.83 86.98 392.33 85.89 400.82 89.08 409.32 97.23 417.81 110.25 426.31 127.16 434.8 146.2 443.3 165.17 451.8 181.77 460.29 193.96 468.79 200.41 477.28 200.83" clip-path="url(#cpMzEuMjd8NDk4LjUyfDM0Ni4yOHwyMy4yNw==)" style="stroke-width:1.07;stroke:#f50;stroke-opacity:.5;stroke-linecap:butt"/><polyline points="52.51 147.67 61 159.16 69.5 164.17 77.99 163.24 86.49 158.29 94.99 152.02 103.48 147.07 111.98 145.4 120.47 147.83 128.97 153.89 137.46 162.02 145.96 169.94 154.45 175.33 162.95 176.55 171.44 173.15 179.94 165.98 188.44 156.82 196.93 147.79 205.43 140.74 213.92 136.99 222.42 137.36 230.91 142.31 239.41 152.05 247.9 166.53 256.4 185.17 264.89 206.77 273.39 229.51 281.89 251.25 290.38 269.99 298.88 284.35 307.37 293.76 315.87 298.42 324.36 298.79 332.86 295.23 341.35 287.75 349.85 276.21 358.35 260.87 366.84 242.92 375.34 224.61 383.83 208.88 392.33 198.35 400.82 194.31 409.32 195.9 417.81 200.26 426.31 203.36 434.8 201.51 443.3 192.58 451.8 176.74 460.29 156.19 468.79 134.4 477.28 114.99" clip-path="url(#cpMzEuMjd8NDk4LjUyfDM0Ni4yOHwyMy4yNw==)" style="stroke-width:1.07;stroke:#f50;stroke-opacity:.5;stroke-linecap:butt"/><defs><clipPath id="cpMC4wMHw1MDQuMDB8Mzc4LjAwfDAuMDA="><rect width="504" height="378" x="0" y="0"/></clipPath></defs><g clip-path="url(#cpMC4wMHw1MDQuMDB8Mzc4LjAwfDAuMDA=)"><text x="18.51" y="310.15" lengthAdjust="spacingAndGlyphs" textLength="7.82" style="font-size:8.8px;fill:#4d4d4d;font-family:Arial">-2</text></g><g clip-path="url(#cpMC4wMHw1MDQuMDB8Mzc4LjAwfDAuMDA=)"><text x="18.51" y="246.7" lengthAdjust="spacingAndGlyphs" textLength="7.82" style="font-size:8.8px;fill:#4d4d4d;font-family:Arial">-1</text></g><g clip-path="url(#cpMC4wMHw1MDQuMDB8Mzc4LjAwfDAuMDA=)"><text x="21.44" y="183.26" lengthAdjust="spacingAndGlyphs" textLength="4.89" style="font-size:8.8px;fill:#4d4d4d;font-family:Arial">0</text></g><g clip-path="url(#cpMC4wMHw1MDQuMDB8Mzc4LjAwfDAuMDA=)"><text x="21.44" y="119.81" lengthAdjust="spacingAndGlyphs" textLength="4.89" style="font-size:8.8px;fill:#4d4d4d;font-family:Arial">1</text></g><g clip-path="url(#cpMC4wMHw1MDQuMDB8Mzc4LjAwfDAuMDA=)"><text x="21.44" y="56.37" lengthAdjust="spacingAndGlyphs" textLength="4.89" style="font-size:8.8px;fill:#4d4d4d;font-family:Arial">2</text></g><g clip-path="url(#cpMC4wMHw1MDQuMDB8Mzc4LjAwfDAuMDA=)"><text x="44.93" y="357.51" lengthAdjust="spacingAndGlyphs" textLength="15.16" style="font-size:8.8px;fill:#4d4d4d;font-family:Arial">-5.0</text></g><g clip-path="url(#cpMC4wMHw1MDQuMDB8Mzc4LjAwfDAuMDA=)"><text x="151.12" y="357.51" lengthAdjust="spacingAndGlyphs" textLength="15.16" style="font-size:8.8px;fill:#4d4d4d;font-family:Arial">-2.5</text></g><g clip-path="url(#cpMC4wMHw1MDQuMDB8Mzc4LjAwfDAuMDA=)"><text x="258.78" y="357.51" lengthAdjust="spacingAndGlyphs" textLength="12.23" style="font-size:8.8px;fill:#4d4d4d;font-family:Arial">0.0</text></g><g clip-path="url(#cpMC4wMHw1MDQuMDB8Mzc4LjAwfDAuMDA=)"><text x="364.97" y="357.51" lengthAdjust="spacingAndGlyphs" textLength="12.23" style="font-size:8.8px;fill:#4d4d4d;font-family:Arial">2.5</text></g><g clip-path="url(#cpMC4wMHw1MDQuMDB8Mzc4LjAwfDAuMDA=)"><text x="471.17" y="357.51" lengthAdjust="spacingAndGlyphs" textLength="12.23" style="font-size:8.8px;fill:#4d4d4d;font-family:Arial">5.0</text></g><g clip-path="url(#cpMC4wMHw1MDQuMDB8Mzc4LjAwfDAuMDA=)"><text x="262.14" y="370.1" lengthAdjust="spacingAndGlyphs" textLength="5.5" style="font-size:11px;font-family:Arial">x</text></g><g clip-path="url(#cpMC4wMHw1MDQuMDB8Mzc4LjAwfDAuMDA=)"><text style="font-size:11px;font-family:Arial" lengthAdjust="spacingAndGlyphs" textLength="26.3" transform="translate(13.35,197.92) rotate(-90)">value</text></g><g clip-path="url(#cpMC4wMHw1MDQuMDB8Mzc4LjAwfDAuMDA=)"><text x="31.27" y="14.93" lengthAdjust="spacingAndGlyphs" textLength="27.87" style="font-size:13.2px;font-family:Arial">Prior</text></g></svg>