<svg xmlns="http://www.w3.org/2000/svg" xmlns:xlink="http://www.w3.org/1999/xlink" viewBox="0 0 504 378"><defs><style type="text/css">polyline,rect{fill:none;stroke:#000;stroke-linecap:round;stroke-linejoin:round;stroke-miterlimit:10}</style></defs><rect width="100%" height="100%" style="stroke:none;fill:none"/><rect width="504" height="378" x="0" y="0" style="stroke-width:1.07;stroke:none"/><defs><clipPath id="cpNDEuOTB8NDk4LjUyfDM0OS40NXwyNy44MA=="><rect width="456.62" height="321.64" x="41.9" y="27.8"/></clipPath></defs><polyline points="62.65 133.23 70.95 119.62 79.26 103.9 87.56 86.29 95.86 68.32 104.16 52.85 112.47 43.31 120.77 42.42 129.07 51.01 137.37 67.37 145.67 87.59 153.98 106.69 162.28 120.11 170.58 125 178.88 120.88 187.19 109.46 195.49 93.87 203.79 77.56 212.09 63.4 220.4 53.17 228.7 47.59 237 46.64 245.3 50.05 253.6 57.61 261.91 69.27 270.21 85.05 278.51 104.69 286.81 127.41 295.12 151.8 303.42 176.03 311.72 198.22 320.02 216.95 328.32 231.54 336.63 242.18 344.93 249.66 353.23 255.02 361.53 259.2 369.84 262.69 378.14 265.44 386.44 266.94 394.74 266.45 403.04 263.28 411.35 257.12 419.65 248.12 427.95 236.91 436.25 224.39 444.56 211.49 452.86 198.86 461.16 186.63 469.46 174.41 477.76 161.4" clip-path="url(#cpNDEuOTB8NDk4LjUyfDM0OS40NXwyNy44MA==)" style="stroke-width:1.07;stroke:#f50;stroke-opacity:.5;stroke-linecap:butt"/><polyline points="62.65 245.38 70.95 274.97 79.26 300.04 87.56 319.06 95.86 330.93 104.16 334.83 112.47 330.32 120.77 317.75 129.07 298.66 137.37 275.84 145.67 252.78 153.98 232.62 162.28 217.18 170.58 206.6 178.88 199.64 187.19 194.61 195.49 190.22 203.79 186.12 212.09 182.78 220.4 180.94 228.7 180.96 237 182.55 245.3 184.86 253.6 187.02 261.91 188.59 270.21 189.76 278.51 191.12 286.81 193.15 295.12 195.75 303.42 198.12 311.72 198.93 320.02 196.94 328.32 191.64 336.63 183.85 344.93 175.77 353.23 170.48 361.53 170.86 369.84 178.46 378.14 192.63 386.44 210.62 394.74 228.41 403.04 242.18 411.35 249.57 419.65 250.35 427.95 246.11 436.25 239.43 444.56 232.86 452.86 228.36 461.16 227.07 469.46 229.45 477.76 235.41" clip-path="url(#cpNDEuOTB8NDk4LjUyfDM0OS40NXwyNy44MA==)" style="stroke-width:1.07;stroke:#f50;stroke-opacity:.5;stroke-linecap:butt"/><polyline points="62.65 181.76 70.95 190.5 79.26 199.01 87.56 201.66 95.86 193.9 104.16 174.42 112.47 146.07 120.77 115.1 129.07 89.06 137.37 74.36 145.67 74.35 153.98 88.66 162.28 113.69 170.58 143.99 178.88 173.91 187.19 198.99 195.49 216.76 203.79 226.86 212.09 230.53 220.4 229.93 228.7 227.41 237 225.17 245.3 225.04 253.6 228.35 261.91 235.66 270.21 246.54 278.51 259.43 286.81 272.05 295.12 282.04 303.42 287.81 311.72 289.08 320.02 286.82 328.32 282.66 336.63 278.06 344.93 273.69 353.23 269.23 361.53 263.61 369.84 255.56 378.14 244.13 386.44 229.05 394.74 210.8 403.04 190.65 411.35 170.35 419.65 151.97 427.95 137.47 436.25 128.44 444.56 125.79 452.86 129.65 461.16 139.47 469.46 154.24 477.76 172.68" clip-path="url(#cpNDEuOTB8NDk4LjUyfDM0OS40NXwyNy44MA==)" style="stroke-width:1.07;stroke:#f50;stroke-opacity:.5;stroke-linecap:butt"/><polyline points="62.65 146.95 70.95 137.92 79.26 132.96 87.56 131.86 95.86 134.41 104.16 140.55 112.47 150.18 120.77 162.87 129.07 177.71 137.37 193.22 145.67 207.57 153.98 218.83 162.28 225.35 170.58 226.05 178.88 220.71 187.19 210 195.49 195.44 203.79 179.04 212.09 162.9 220.4 148.67 228.7 137.22 237 128.58 245.3 122.26 253.6 117.73 261.91 114.87 270.21 114.02 278.51 115.66 286.81 119.87 295.12 125.87 303.42 132.12 311.72 136.78 320.02 138.44 328.32 136.58 336.63 131.66 344.93 124.7 353.23 116.85 361.53 108.96 369.84 101.63 378.14 95.44 386.44 91.24 394.74 90.16 403.04 93.33 411.35 101.45 419.65 114.42 427.95 131.26 436.25 150.22 444.56 169.11 452.86 185.64 461.16 197.78 469.46 204.19 477.76 204.61" clip-path="url(#cpNDEuOTB8NDk4LjUyfDM0OS40NXwyNy44MA==)" style="stroke-width:1.07;stroke:#f50;stroke-opacity:.5;stroke-linecap:butt"/><polyline points="62.65 151.68 70.95 163.13 79.26 168.11 87.56 167.18 95.86 162.26 104.16 156.01 112.47 151.08 120.77 149.42 129.07 151.84 137.37 157.88 145.67 165.97 153.98 173.85 162.28 179.22 170.58 180.44 178.88 177.05 187.19 169.91 195.49 160.79 203.79 151.8 212.09 144.78 220.4 141.05 228.7 141.41 237 146.34 245.3 156.04 253.6 170.46 261.91 189.02 270.21 210.53 278.51 233.17 286.81 254.82 295.12 273.49 303.42 287.78 311.72 297.16 320.02 301.79 328.32 302.16 336.63 298.62 344.93 291.16 353.23 279.67 361.53 264.4 369.84 246.53 378.14 228.3 386.44 212.63 394.74 202.15 403.04 198.12 411.35 199.71 419.65 204.04 427.95 207.14 436.25 205.29 444.56 196.4 452.86 180.62 461.16 160.16 469.46 138.46 477.76 119.14" clip-path="url(#cpNDEuOTB8NDk4LjUyfDM0OS40NXwyNy44MA==)" style="stroke-width:1.07;stroke:#f50;stroke-opacity:.5;stroke-linecap:butt"/><defs><clipPath id="cpMC4wMHw1MDQuMDB8Mzc4LjAwfDAuMDA="><rect width="504" height="378" x="0" y="0"/></clipPath></defs><g clip-path="url(#cpMC4wMHw1MDQuMDB8Mzc4LjAwfDAuMDA=)"><text x="28.43" y="313.77" lengthAdjust="spacingAndGlyphs" textLength="8.54" style="font-size:9.6px;fill:#4d4d4d;font-family:Arial">-2</text></g><g clip-path="url(#cpMC4wMHw1MDQuMDB8Mzc4LjAwfDAuMDA=)"><text x="28.43" y="250.59" lengthAdjust="spacingAndGlyphs" textLength="8.54" style="font-size:9.6px;fill:#4d4d4d;font-family:Arial">-1</text></g><g clip-path="url(#cpMC4wMHw1MDQuMDB8Mzc4LjAwfDAuMDA=)"><text x="31.63" y="187.42" lengthAdjust="spacingAndGlyphs" textLength="5.34" style="font-size:9.6px;fill:#4d4d4d;font-family:Arial">0</text></g><g clip-path="url(#cpMC4wMHw1MDQuMDB8Mzc4LjAwfDAuMDA=)"><text x="31.63" y="124.24" lengthAdjust="spacingAndGlyphs" textLength="5.34" style="font-size:9.6px;fill:#4d4d4d;font-family:Arial">1</text></g><g clip-path="url(#cpMC4wMHw1MDQuMDB8Mzc4LjAwfDAuMDA=)"><text x="31.63" y="61.06" lengthAdjust="spacingAndGlyphs" textLength="5.34" style="font-size:9.6px;fill:#4d4d4d;font-family:Arial">2</text></g><polyline points="39.16 310.33 41.9 310.33" clip-path="url(#cpMC4wMHw1MDQuMDB8Mzc4LjAwfDAuMDA=)" style="stroke-width:1.07;stroke:#333;stroke-linecap:butt"/><polyline points="39.16 247.16 41.9 247.16" clip-path="url(#cpMC4wMHw1MDQuMDB8Mzc4LjAwfDAuMDA=)" style="stroke-width:1.07;stroke:#333;stroke-linecap:butt"/><polyline points="39.16 183.98 41.9 183.98" clip-path="url(#cpMC4wMHw1MDQuMDB8Mzc4LjAwfDAuMDA=)" style="stroke-width:1.07;stroke:#333;stroke-linecap:butt"/><polyline points="39.16 120.8 41.9 120.8" clip-path="url(#cpMC4wMHw1MDQuMDB8Mzc4LjAwfDAuMDA=)" style="stroke-width:1.07;stroke:#333;stroke-linecap:butt"/><polyline points="39.16 57.63 41.9 57.63" clip-path="url(#cpMC4wMHw1MDQuMDB8Mzc4LjAwfDAuMDA=)" style="stroke-width:1.07;stroke:#333;stroke-linecap:butt"/><polyline points="62.65 352.19 62.65 349.45" clip-path="url(#cpMC4wMHw1MDQuMDB8Mzc4LjAwfDAuMDA=)" style="stroke-width:1.07;stroke:#333;stroke-linecap:butt"/><polyline points="166.43 352.19 166.43 349.45" clip-path="url(#cpMC4wMHw1MDQuMDB8Mzc4LjAwfDAuMDA=)" style="stroke-width:1.07;stroke:#333;stroke-linecap:butt"/><polyline points="270.21 352.19 270.21 349.45" clip-path="url(#cpMC4wMHw1MDQuMDB8Mzc4LjAwfDAuMDA=)" style="stroke-width:1.07;stroke:#333;stroke-linecap:butt"/><polyline points="373.99 352.19 373.99 349.45" clip-path="url(#cpMC4wMHw1MDQuMDB8Mzc4LjAwfDAuMDA=)" style="stroke-width:1.07;stroke:#333;stroke-linecap:butt"/><polyline points="477.76 352.19 477.76 349.45" clip-path="url(#cpMC4wMHw1MDQuMDB8Mzc4LjAwfDAuMDA=)" style="stroke-width:1.07;stroke:#333;stroke-linecap:butt"/><g clip-path="url(#cpMC4wMHw1MDQuMDB8Mzc4LjAwfDAuMDA=)"><text x="54.38" y="361.25" lengthAdjust="spacingAndGlyphs" textLength="16.54" style="font-size:9.6px;fill:#4d4d4d;font-family:Arial">-5.0</text></g><g clip-path="url(#cpMC4wMHw1MDQuMDB8Mzc4LjAwfDAuMDA=)"><text x="158.16" y="361.25" lengthAdjust="spacingAndGlyphs" textLength="16.54" style="font-size:9.6px;fill:#4d4d4d;font-family:Arial">-2.5</text></g><g clip-path="url(#cpMC4wMHw1MDQuMDB8Mzc4LjAwfDAuMDA=)"><text x="263.54" y="361.25" lengthAdjust="spacingAndGlyphs" textLength="13.35" style="font-size:9.6px;fill:#4d4d4d;font-family:Arial">0.0</text></g><g clip-path="url(#cpMC4wMHw1MDQuMDB8Mzc4LjAwfDAuMDA=)"><text x="367.31" y="361.25" lengthAdjust="spacingAndGlyphs" textLength="13.35" style="font-size:9.6px;fill:#4d4d4d;font-family:Arial">2.5</text></g><g clip-path="url(#cpMC4wMHw1MDQuMDB8Mzc4LjAwfDAuMDA=)"><text x="471.09" y="361.25" lengthAdjust="spacingAndGlyphs" textLength="13.35" style="font-size:9.6px;fill:#4d4d4d;font-family:Arial">5.0</text></g><g clip-path="url(#cpMC4wMHw1MDQuMDB8Mzc4LjAwfDAuMDA=)"><text x="493.72" y="371.42" lengthAdjust="spacingAndGlyphs" textLength="4.8" style="font-size:9.6px;fill:#4d4d4d;font-family:Arial">x</text></g><g clip-path="url(#cpMC4wMHw1MDQuMDB8Mzc4LjAwfDAuMDA=)"><text x="5.48" y="34.68" lengthAdjust="spacingAndGlyphs" textLength="22.95" style="font-size:9.6px;fill:#4d4d4d;font-family:Arial">value</text></g><g clip-path="url(#cpMC4wMHw1MDQuMDB8Mzc4LjAwfDAuMDA=)"><text x="41.9" y="18.36" lengthAdjust="spacingAndGlyphs" textLength="38" style="font-size:18px;fill:#4d4d4d;font-family:Arial">Prior</text></g></svg>