<svg xmlns="http://www.w3.org/2000/svg" xmlns:xlink="http://www.w3.org/1999/xlink" viewBox="0 0 504 378"><defs><style type="text/css">circle,polygon,polyline,rect{fill:none;stroke:#000;stroke-linecap:round;stroke-linejoin:round;stroke-miterlimit:10}</style></defs><rect width="100%" height="100%" style="stroke:none;fill:none"/><defs><clipPath id="cpMzEuMjd8NDk4LjUyfDM0Ni4yOHwyMy4yNw=="><rect width="467.25" height="323.01" x="31.27" y="23.27"/></clipPath></defs><polyline points="31.27 288.76 498.52 288.76" clip-path="url(#cpMzEuMjd8NDk4LjUyfDM0Ni4yOHwyMy4yNw==)" style="stroke-width:.53;stroke:#ebebeb;stroke-linecap:butt"/><polyline points="31.27 222.57 498.52 222.57" clip-path="url(#cpMzEuMjd8NDk4LjUyfDM0Ni4yOHwyMy4yNw==)" style="stroke-width:.53;stroke:#ebebeb;stroke-linecap:butt"/><polyline points="31.27 156.39 498.52 156.39" clip-path="url(#cpMzEuMjd8NDk4LjUyfDM0Ni4yOHwyMy4yNw==)" style="stroke-width:.53;stroke:#ebebeb;stroke-linecap:butt"/><polyline points="31.27 90.21 498.52 90.21" clip-path="url(#cpMzEuMjd8NDk4LjUyfDM0Ni4yOHwyMy4yNw==)" style="stroke-width:.53;stroke:#ebebeb;stroke-linecap:butt"/><polyline points="31.27 24.03 498.52 24.03" clip-path="url(#cpMzEuMjd8NDk4LjUyfDM0Ni4yOHwyMy4yNw==)" style="stroke-width:.53;stroke:#ebebeb;stroke-linecap:butt"/><polyline points="94.99 346.28 94.99 23.27" clip-path="url(#cpMzEuMjd8NDk4LjUyfDM0Ni4yOHwyMy4yNw==)" style="stroke-width:.53;stroke:#ebebeb;stroke-linecap:butt"/><polyline points="208.26 346.28 208.26 23.27" clip-path="url(#cpMzEuMjd8NDk4LjUyfDM0Ni4yOHwyMy4yNw==)" style="stroke-width:.53;stroke:#ebebeb;stroke-linecap:butt"/><polyline points="321.53 346.28 321.53 23.27" clip-path="url(#cpMzEuMjd8NDk4LjUyfDM0Ni4yOHwyMy4yNw==)" style="stroke-width:.53;stroke:#ebebeb;stroke-linecap:butt"/><polyline points="434.8 346.28 434.8 23.27" clip-path="url(#cpMzEuMjd8NDk4LjUyfDM0Ni4yOHwyMy4yNw==)" style="stroke-width:.53;stroke:#ebebeb;stroke-linecap:butt"/><polyline points="31.27 321.85 498.52 321.85" clip-path="url(#cpMzEuMjd8NDk4LjUyfDM0Ni4yOHwyMy4yNw==)" style="stroke-width:1.07;stroke:#ebebeb;stroke-linecap:butt"/><polyline points="31.27 255.66 498.52 255.66" clip-path="url(#cpMzEuMjd8NDk4LjUyfDM0Ni4yOHwyMy4yNw==)" style="stroke-width:1.07;stroke:#ebebeb;stroke-linecap:butt"/><polyline points="31.27 189.48 498.52 189.48" clip-path="url(#cpMzEuMjd8NDk4LjUyfDM0Ni4yOHwyMy4yNw==)" style="stroke-width:1.07;stroke:#ebebeb;stroke-linecap:butt"/><polyline points="31.27 123.3 498.52 123.3" clip-path="url(#cpMzEuMjd8NDk4LjUyfDM0Ni4yOHwyMy4yNw==)" style="stroke-width:1.07;stroke:#ebebeb;stroke-linecap:butt"/><polyline points="31.27 57.12 498.52 57.12" clip-path="url(#cpMzEuMjd8NDk4LjUyfDM0Ni4yOHwyMy4yNw==)" style="stroke-width:1.07;stroke:#ebebeb;stroke-linecap:butt"/><polyline points="38.35 346.28 38.35 23.27" clip-path="url(#cpMzEuMjd8NDk4LjUyfDM0Ni4yOHwyMy4yNw==)" style="stroke-width:1.07;stroke:#ebebeb;stroke-linecap:butt"/><polyline points="151.62 346.28 151.62 23.27" clip-path="url(#cpMzEuMjd8NDk4LjUyfDM0Ni4yOHwyMy4yNw==)" style="stroke-width:1.07;stroke:#ebebeb;stroke-linecap:butt"/><polyline points="264.89 346.28 264.89 23.27" clip-path="url(#cpMzEuMjd8NDk4LjUyfDM0Ni4yOHwyMy4yNw==)" style="stroke-width:1.07;stroke:#ebebeb;stroke-linecap:butt"/><polyline points="378.17 346.28 378.17 23.27" clip-path="url(#cpMzEuMjd8NDk4LjUyfDM0Ni4yOHwyMy4yNw==)" style="stroke-width:1.07;stroke:#ebebeb;stroke-linecap:butt"/><polyline points="491.44 346.28 491.44 23.27" clip-path="url(#cpMzEuMjd8NDk4LjUyfDM0Ni4yOHwyMy4yNw==)" style="stroke-width:1.07;stroke:#ebebeb;stroke-linecap:butt"/><polygon points="52.51 83.99 54.64 87.45 56.78 91.12 58.91 94.96 61.05 98.91 63.18 102.91 65.32 106.89 67.45 110.76 69.58 114.44 71.72 117.82 73.85 120.82 75.99 123.33 78.12 125.29 80.26 126.63 82.39 127.33 84.53 127.39 86.66 126.84 88.8 125.77 90.93 124.26 93.06 122.4 95.2 120.31 97.33 118.06 99.47 115.7 101.6 113.27 103.74 110.76 105.87 108.14 108.01 105.39 110.14 102.49 112.28 99.42 114.41 96.22 116.54 92.96 118.68 89.75 120.81 86.7 122.95 83.96 125.08 81.64 127.22 79.87 129.35 78.72 131.49 78.27 133.62 78.56 135.76 79.6 137.89 81.38 140.02 83.85 142.16 86.94 144.29 90.55 146.43 94.55 148.56 98.77 150.7 103.01 152.83 107.04 154.97 110.6 157.1 113.46 159.24 115.45 161.37 116.5 163.5 116.66 165.64 116.04 167.77 114.82 169.91 113.15 172.04 111.2 174.18 109.11 176.31 106.98 178.45 104.94 180.58 103.05 182.72 101.42 184.85 100.11 186.98 99.2 189.12 98.74 191.25 98.78 193.39 99.37 195.52 100.55 197.66 102.34 199.79 104.75 201.93 107.78 204.06 111.44 206.2 115.69 208.33 120.51 210.46 125.85 212.6 131.66 214.73 137.86 216.87 144.4 219 151.16 221.14 158.07 223.27 165 225.41 171.85 227.54 178.46 229.67 184.7 231.81 190.37 233.94 195.27 236.08 199.16 238.21 201.76 240.35 202.83 242.48 202.21 244.62 199.93 246.75 196.25 248.89 191.52 251.02 186.1 253.15 180.29 255.29 174.33 257.42 168.41 259.56 162.65 261.69 157.15 263.83 152 265.96 147.22 268.1 142.84 270.23 138.85 272.37 135.24 274.5 131.94 276.63 128.89 278.77 126 280.9 123.15 283.04 120.24 285.17 117.17 287.31 113.9 289.44 110.45 291.58 106.88 293.71 103.33 295.85 99.92 297.98 96.77 300.11 93.96 302.25 91.55 304.38 89.55 306.52 87.96 308.65 86.74 310.79 85.87 312.92 85.3 315.06 85 317.19 84.97 319.33 85.19 321.46 85.68 323.59 86.47 325.73 87.6 327.86 89.09 330 91 332.13 93.35 334.27 96.16 336.4 99.44 338.54 103.17 340.67 107.3 342.81 111.77 344.94 116.5 347.07 121.34 349.21 126.15 351.34 130.77 353.48 135.01 355.61 138.72 357.75 141.78 359.88 144.11 362.02 145.73 364.15 146.72 366.29 147.22 368.42 147.39 370.55 147.41 372.69 147.45 374.82 147.67 376.96 148.19 379.09 149.11 381.23 150.48 383.36 152.34 385.5 154.69 387.63 157.5 389.77 160.68 391.9 164.13 394.03 167.72 396.17 171.25 398.3 174.51 400.44 177.25 402.57 179.21 404.71 180.14 406.84 179.86 408.98 178.27 411.11 175.38 413.25 171.32 415.38 166.27 417.51 160.46 419.65 154.1 421.78 147.4 423.92 140.53 426.05 133.64 428.19 126.86 430.32 120.28 432.46 113.97 434.59 108 436.73 102.41 438.86 97.22 440.99 92.44 443.13 88.08 445.26 84.13 447.4 80.58 449.53 77.41 451.67 74.59 453.8 72.1 455.94 69.92 458.07 68.01 460.21 66.36 462.34 64.92 464.47 63.69 466.61 62.63 468.74 61.72 470.88 60.95 473.01 60.29 475.15 59.74 477.28 59.27 477.28 323.79 475.15 324.16 473.01 324.58 470.88 325.05 468.74 325.58 466.61 326.15 464.47 326.76 462.34 327.41 460.21 328.08 458.07 328.75 455.94 329.42 453.8 330.05 451.67 330.61 449.53 331.08 447.4 331.42 445.26 331.59 443.13 331.56 440.99 331.28 438.86 330.73 436.73 329.86 434.59 328.65 432.46 327.08 430.32 325.14 428.19 322.85 426.05 320.23 423.92 317.32 421.78 314.2 419.65 310.96 417.51 307.74 415.38 304.69 413.25 302 411.11 299.86 408.98 298.44 406.84 297.83 404.71 298.05 402.57 299 400.44 300.48 398.3 302.28 396.17 304.13 394.03 305.83 391.9 307.17 389.77 308 387.63 308.2 385.5 307.71 383.36 306.47 381.23 304.48 379.09 301.76 376.96 298.37 374.82 294.38 372.69 289.9 370.55 285.08 368.42 280.05 366.29 275.01 364.15 270.12 362.02 265.55 359.88 261.44 357.75 257.86 355.61 254.82 353.48 252.25 351.34 250.03 349.21 248 347.07 246 344.94 243.87 342.81 241.49 340.67 238.75 338.54 235.6 336.4 232 334.27 227.96 332.13 223.51 330 218.72 327.86 213.66 325.73 208.42 323.59 203.12 321.46 197.87 319.33 192.76 317.19 187.89 315.06 183.36 312.92 179.21 310.79 175.5 308.65 172.24 306.52 169.46 304.38 167.15 302.25 165.32 300.11 163.99 297.98 163.18 295.85 162.96 293.71 163.39 291.58 164.57 289.44 166.61 287.31 169.57 285.17 173.5 283.04 178.33 280.9 183.95 278.77 190.19 276.63 196.85 274.5 203.72 272.37 210.62 270.23 217.37 268.1 223.82 265.96 229.83 263.83 235.31 261.69 240.16 259.56 244.33 257.42 247.81 255.29 250.6 253.15 252.76 251.02 254.41 248.89 255.72 246.75 256.95 244.62 258.42 242.48 260.47 240.35 263.31 238.21 266.99 236.08 271.37 233.94 276.2 231.81 281.25 229.67 286.31 227.54 291.21 225.41 295.83 223.27 300.06 221.14 303.84 219 307.09 216.87 309.77 214.73 311.85 212.6 313.29 210.46 314.08 208.33 314.19 206.2 313.63 204.06 312.38 201.93 310.45 199.79 307.84 197.66 304.59 195.52 300.69 193.39 296.19 191.25 291.12 189.12 285.51 186.98 279.41 184.85 272.88 182.72 265.98 180.58 258.76 178.45 251.32 176.31 243.72 174.18 236.06 172.04 228.46 169.91 221.03 167.77 213.93 165.64 207.31 163.5 201.37 161.37 196.29 159.24 192.22 157.1 189.21 154.97 187.24 152.83 186.16 150.7 185.77 148.56 185.85 146.43 186.21 144.29 186.68 142.16 187.13 140.02 187.47 137.89 187.63 135.76 187.57 133.62 187.3 131.49 186.81 129.35 186.16 127.22 185.41 125.08 184.63 122.95 183.94 120.81 183.44 118.68 183.25 116.54 183.49 114.41 184.25 112.28 185.62 110.14 187.62 108.01 190.23 105.87 193.38 103.74 197 101.6 200.96 99.47 205.18 97.33 209.57 95.2 214.08 93.06 218.69 90.93 223.39 88.8 228.21 86.66 233.19 84.53 238.36 82.39 243.74 80.26 249.32 78.12 255.07 75.99 260.94 73.85 266.86 71.72 272.76 69.58 278.54 67.45 284.13 65.32 289.45 63.18 294.44 61.05 299.06 58.91 303.27 56.78 307.04 54.64 310.37 52.51 313.26" clip-path="url(#cpMzEuMjd8NDk4LjUyfDM0Ni4yOHwyMy4yNw==)" style="stroke-width:0;stroke:none;fill:#ebebeb"/><polyline points="52.51 83.99 54.64 87.45 56.78 91.12 58.91 94.96 61.05 98.91 63.18 102.91 65.32 106.89 67.45 110.76 69.58 114.44 71.72 117.82 73.85 120.82 75.99 123.33 78.12 125.29 80.26 126.63 82.39 127.33 84.53 127.39 86.66 126.84 88.8 125.77 90.93 124.26 93.06 122.4 95.2 120.31 97.33 118.06 99.47 115.7 101.6 113.27 103.74 110.76 105.87 108.14 108.01 105.39 110.14 102.49 112.28 99.42 114.41 96.22 116.54 92.96 118.68 89.75 120.81 86.7 122.95 83.96 125.08 81.64 127.22 79.87 129.35 78.72 131.49 78.27 133.62 78.56 135.76 79.6 137.89 81.38 140.02 83.85 142.16 86.94 144.29 90.55 146.43 94.55 148.56 98.77 150.7 103.01 152.83 107.04 154.97 110.6 157.1 113.46 159.24 115.45 161.37 116.5 163.5 116.66 165.64 116.04 167.77 114.82 169.91 113.15 172.04 111.2 174.18 109.11 176.31 106.98 178.45 104.94 180.58 103.05 182.72 101.42 184.85 100.11 186.98 99.2 189.12 98.74 191.25 98.78 193.39 99.37 195.52 100.55 197.66 102.34 199.79 104.75 201.93 107.78 204.06 111.44 206.2 115.69 208.33 120.51 210.46 125.85 212.6 131.66 214.73 137.86 216.87 144.4 219 151.16 221.14 158.07 223.27 165 225.41 171.85 227.54 178.46 229.67 184.7 231.81 190.37 233.94 195.27 236.08 199.16 238.21 201.76 240.35 202.83 242.48 202.21 244.62 199.93 246.75 196.25 248.89 191.52 251.02 186.1 253.15 180.29 255.29 174.33 257.42 168.41 259.56 162.65 261.69 157.15 263.83 152 265.96 147.22 268.1 142.84 270.23 138.85 272.37 135.24 274.5 131.94 276.63 128.89 278.77 126 280.9 123.15 283.04 120.24 285.17 117.17 287.31 113.9 289.44 110.45 291.58 106.88 293.71 103.33 295.85 99.92 297.98 96.77 300.11 93.96 302.25 91.55 304.38 89.55 306.52 87.96 308.65 86.74 310.79 85.87 312.92 85.3 315.06 85 317.19 84.97 319.33 85.19 321.46 85.68 323.59 86.47 325.73 87.6 327.86 89.09 330 91 332.13 93.35 334.27 96.16 336.4 99.44 338.54 103.17 340.67 107.3 342.81 111.77 344.94 116.5 347.07 121.34 349.21 126.15 351.34 130.77 353.48 135.01 355.61 138.72 357.75 141.78 359.88 144.11 362.02 145.73 364.15 146.72 366.29 147.22 368.42 147.39 370.55 147.41 372.69 147.45 374.82 147.67 376.96 148.19 379.09 149.11 381.23 150.48 383.36 152.34 385.5 154.69 387.63 157.5 389.77 160.68 391.9 164.13 394.03 167.72 396.17 171.25 398.3 174.51 400.44 177.25 402.57 179.21 404.71 180.14 406.84 179.86 408.98 178.27 411.11 175.38 413.25 171.32 415.38 166.27 417.51 160.46 419.65 154.1 421.78 147.4 423.92 140.53 426.05 133.64 428.19 126.86 430.32 120.28 432.46 113.97 434.59 108 436.73 102.41 438.86 97.22 440.99 92.44 443.13 88.08 445.26 84.13 447.4 80.58 449.53 77.41 451.67 74.59 453.8 72.1 455.94 69.92 458.07 68.01 460.21 66.36 462.34 64.92 464.47 63.69 466.61 62.63 468.74 61.72 470.88 60.95 473.01 60.29 475.15 59.74 477.28 59.27" clip-path="url(#cpMzEuMjd8NDk4LjUyfDM0Ni4yOHwyMy4yNw==)" style="stroke-width:1.07;stroke:none"/><polyline points="477.28 323.79 475.15 324.16 473.01 324.58 470.88 325.05 468.74 325.58 466.61 326.15 464.47 326.76 462.34 327.41 460.21 328.08 458.07 328.75 455.94 329.42 453.8 330.05 451.67 330.61 449.53 331.08 447.4 331.42 445.26 331.59 443.13 331.56 440.99 331.28 438.86 330.73 436.73 329.86 434.59 328.65 432.46 327.08 430.32 325.14 428.19 322.85 426.05 320.23 423.92 317.32 421.78 314.2 419.65 310.96 417.51 307.74 415.38 304.69 413.25 302 411.11 299.86 408.98 298.44 406.84 297.83 404.71 298.05 402.57 299 400.44 300.48 398.3 302.28 396.17 304.13 394.03 305.83 391.9 307.17 389.77 308 387.63 308.2 385.5 307.71 383.36 306.47 381.23 304.48 379.09 301.76 376.96 298.37 374.82 294.38 372.69 289.9 370.55 285.08 368.42 280.05 366.29 275.01 364.15 270.12 362.02 265.55 359.88 261.44 357.75 257.86 355.61 254.82 353.48 252.25 351.34 250.03 349.21 248 347.07 246 344.94 243.87 342.81 241.49 340.67 238.75 338.54 235.6 336.4 232 334.27 227.96 332.13 223.51 330 218.72 327.86 213.66 325.73 208.42 323.59 203.12 321.46 197.87 319.33 192.76 317.19 187.89 315.06 183.36 312.92 179.21 310.79 175.5 308.65 172.24 306.52 169.46 304.38 167.15 302.25 165.32 300.11 163.99 297.98 163.18 295.85 162.96 293.71 163.39 291.58 164.57 289.44 166.61 287.31 169.57 285.17 173.5 283.04 178.33 280.9 183.95 278.77 190.19 276.63 196.85 274.5 203.72 272.37 210.62 270.23 217.37 268.1 223.82 265.96 229.83 263.83 235.31 261.69 240.16 259.56 244.33 257.42 247.81 255.29 250.6 253.15 252.76 251.02 254.41 248.89 255.72 246.75 256.95 244.62 258.42 242.48 260.47 240.35 263.31 238.21 266.99 236.08 271.37 233.94 276.2 231.81 281.25 229.67 286.31 227.54 291.21 225.41 295.83 223.27 300.06 221.14 303.84 219 307.09 216.87 309.77 214.73 311.85 212.6 313.29 210.46 314.08 208.33 314.19 206.2 313.63 204.06 312.38 201.93 310.45 199.79 307.84 197.66 304.59 195.52 300.69 193.39 296.19 191.25 291.12 189.12 285.51 186.98 279.41 184.85 272.88 182.72 265.98 180.58 258.76 178.45 251.32 176.31 243.72 174.18 236.06 172.04 228.46 169.91 221.03 167.77 213.93 165.64 207.31 163.5 201.37 161.37 196.29 159.24 192.22 157.1 189.21 154.97 187.24 152.83 186.16 150.7 185.77 148.56 185.85 146.43 186.21 144.29 186.68 142.16 187.13 140.02 187.47 137.89 187.63 135.76 187.57 133.62 187.3 131.49 186.81 129.35 186.16 127.22 185.41 125.08 184.63 122.95 183.94 120.81 183.44 118.68 183.25 116.54 183.49 114.41 184.25 112.28 185.62 110.14 187.62 108.01 190.23 105.87 193.38 103.74 197 101.6 200.96 99.47 205.18 97.33 209.57 95.2 214.08 93.06 218.69 90.93 223.39 88.8 228.21 86.66 233.19 84.53 238.36 82.39 243.74 80.26 249.32 78.12 255.07 75.99 260.94 73.85 266.86 71.72 272.76 69.58 278.54 67.45 284.13 65.32 289.45 63.18 294.44 61.05 299.06 58.91 303.27 56.78 307.04 54.64 310.37 52.51 313.26" clip-path="url(#cpMzEuMjd8NDk4LjUyfDM0Ni4yOHwyMy4yNw==)" style="stroke-width:1.07;stroke:none"/><polygon points="52.51 83.99 54.64 87.45 56.78 91.12 58.91 94.96 61.05 98.91 63.18 102.91 65.32 106.89 67.45 110.76 69.58 114.44 71.72 117.82 73.85 120.82 75.99 123.33 78.12 125.29 80.26 126.63 82.39 127.33 84.53 127.39 86.66 126.84 88.8 125.77 90.93 124.26 93.06 122.4 95.2 120.31 97.33 118.06 99.47 115.7 101.6 113.27 103.74 110.76 105.87 108.14 108.01 105.39 110.14 102.49 112.28 99.42 114.41 96.22 116.54 92.96 118.68 89.75 120.81 86.7 122.95 83.96 125.08 81.64 127.22 79.87 129.35 78.72 131.49 78.27 133.62 78.56 135.76 79.6 137.89 81.38 140.02 83.85 142.16 86.94 144.29 90.55 146.43 94.55 148.56 98.77 150.7 103.01 152.83 107.04 154.97 110.6 157.1 113.46 159.24 115.45 161.37 116.5 163.5 116.66 165.64 116.04 167.77 114.82 169.91 113.15 172.04 111.2 174.18 109.11 176.31 106.98 178.45 104.94 180.58 103.05 182.72 101.42 184.85 100.11 186.98 99.2 189.12 98.74 191.25 98.78 193.39 99.37 195.52 100.55 197.66 102.34 199.79 104.75 201.93 107.78 204.06 111.44 206.2 115.69 208.33 120.51 210.46 125.85 212.6 131.66 214.73 137.86 216.87 144.4 219 151.16 221.14 158.07 223.27 165 225.41 171.85 227.54 178.46 229.67 184.7 231.81 190.37 233.94 195.27 236.08 199.16 238.21 201.76 240.35 202.83 242.48 202.21 244.62 199.93 246.75 196.25 248.89 191.52 251.02 186.1 253.15 180.29 255.29 174.33 257.42 168.41 259.56 162.65 261.69 157.15 263.83 152 265.96 147.22 268.1 142.84 270.23 138.85 272.37 135.24 274.5 131.94 276.63 128.89 278.77 126 280.9 123.15 283.04 120.24 285.17 117.17 287.31 113.9 289.44 110.45 291.58 106.88 293.71 103.33 295.85 99.92 297.98 96.77 300.11 93.96 302.25 91.55 304.38 89.55 306.52 87.96 308.65 86.74 310.79 85.87 312.92 85.3 315.06 85 317.19 84.97 319.33 85.19 321.46 85.68 323.59 86.47 325.73 87.6 327.86 89.09 330 91 332.13 93.35 334.27 96.16 336.4 99.44 338.54 103.17 340.67 107.3 342.81 111.77 344.94 116.5 347.07 121.34 349.21 126.15 351.34 130.77 353.48 135.01 355.61 138.72 357.75 141.78 359.88 144.11 362.02 145.73 364.15 146.72 366.29 147.22 368.42 147.39 370.55 147.41 372.69 147.45 374.82 147.67 376.96 148.19 379.09 149.11 381.23 150.48 383.36 152.34 385.5 154.69 387.63 157.5 389.77 160.68 391.9 164.13 394.03 167.72 396.17 171.25 398.3 174.51 400.44 177.25 402.57 179.21 404.71 180.14 406.84 179.86 408.98 178.27 411.11 175.38 413.25 171.32 415.38 166.27 417.51 160.46 419.65 154.1 421.78 147.4 423.92 140.53 426.05 133.64 428.19 126.86 430.32 120.28 432.46 113.97 434.59 108 436.73 102.41 438.86 97.22 440.99 92.44 443.13 88.08 445.26 84.13 447.4 80.58 449.53 77.41 451.67 74.59 453.8 72.1 455.94 69.92 458.07 68.01 460.21 66.36 462.34 64.92 464.47 63.69 466.61 62.63 468.74 61.72 470.88 60.95 473.01 60.29 475.15 59.74 477.28 59.27 477.28 323.79 475.15 324.16 473.01 324.58 470.88 325.05 468.74 325.58 466.61 326.15 464.47 326.76 462.34 327.41 460.21 328.08 458.07 328.75 455.94 329.42 453.8 330.05 451.67 330.61 449.53 331.08 447.4 331.42 445.26 331.59 443.13 331.56 440.99 331.28 438.86 330.73 436.73 329.86 434.59 328.65 432.46 327.08 430.32 325.14 428.19 322.85 426.05 320.23 423.92 317.32 421.78 314.2 419.65 310.96 417.51 307.74 415.38 304.69 413.25 302 411.11 299.86 408.98 298.44 406.84 297.83 404.71 298.05 402.57 299 400.44 300.48 398.3 302.28 396.17 304.13 394.03 305.83 391.9 307.17 389.77 308 387.63 308.2 385.5 307.71 383.36 306.47 381.23 304.48 379.09 301.76 376.96 298.37 374.82 294.38 372.69 289.9 370.55 285.08 368.42 280.05 366.29 275.01 364.15 270.12 362.02 265.55 359.88 261.44 357.75 257.86 355.61 254.82 353.48 252.25 351.34 250.03 349.21 248 347.07 246 344.94 243.87 342.81 241.49 340.67 238.75 338.54 235.6 336.4 232 334.27 227.96 332.13 223.51 330 218.72 327.86 213.66 325.73 208.42 323.59 203.12 321.46 197.87 319.33 192.76 317.19 187.89 315.06 183.36 312.92 179.21 310.79 175.5 308.65 172.24 306.52 169.46 304.38 167.15 302.25 165.32 300.11 163.99 297.98 163.18 295.85 162.96 293.71 163.39 291.58 164.57 289.44 166.61 287.31 169.57 285.17 173.5 283.04 178.33 280.9 183.95 278.77 190.19 276.63 196.85 274.5 203.72 272.37 210.62 270.23 217.37 268.1 223.82 265.96 229.83 263.83 235.31 261.69 240.16 259.56 244.33 257.42 247.81 255.29 250.6 253.15 252.76 251.02 254.41 248.89 255.72 246.75 256.95 244.62 258.42 242.48 260.47 240.35 263.31 238.21 266.99 236.08 271.37 233.94 276.2 231.81 281.25 229.67 286.31 227.54 291.21 225.41 295.83 223.27 300.06 221.14 303.84 219 307.09 216.87 309.77 214.73 311.85 212.6 313.29 210.46 314.08 208.33 314.19 206.2 313.63 204.06 312.38 201.93 310.45 199.79 307.84 197.66 304.59 195.52 300.69 193.39 296.19 191.25 291.12 189.12 285.51 186.98 279.41 184.85 272.88 182.72 265.98 180.58 258.76 178.45 251.32 176.31 243.72 174.18 236.06 172.04 228.46 169.91 221.03 167.77 213.93 165.64 207.31 163.5 201.37 161.37 196.29 159.24 192.22 157.1 189.21 154.97 187.24 152.83 186.16 150.7 185.77 148.56 185.85 146.43 186.21 144.29 186.68 142.16 187.13 140.02 187.47 137.89 187.63 135.76 187.57 133.62 187.3 131.49 186.81 129.35 186.16 127.22 185.41 125.08 184.63 122.95 183.94 120.81 183.44 118.68 183.25 116.54 183.49 114.41 184.25 112.28 185.62 110.14 187.62 108.01 190.23 105.87 193.38 103.74 197 101.6 200.96 99.47 205.18 97.33 209.57 95.2 214.08 93.06 218.69 90.93 223.39 88.8 228.21 86.66 233.19 84.53 238.36 82.39 243.74 80.26 249.32 78.12 255.07 75.99 260.94 73.85 266.86 71.72 272.76 69.58 278.54 67.45 284.13 65.32 289.45 63.18 294.44 61.05 299.06 58.91 303.27 56.78 307.04 54.64 310.37 52.51 313.26" clip-path="url(#cpMzEuMjd8NDk4LjUyfDM0Ni4yOHwyMy4yNw==)" style="stroke-width:0;stroke:none;fill:#ebebeb"/><polyline points="52.51 83.99 54.64 87.45 56.78 91.12 58.91 94.96 61.05 98.91 63.18 102.91 65.32 106.89 67.45 110.76 69.58 114.44 71.72 117.82 73.85 120.82 75.99 123.33 78.12 125.29 80.26 126.63 82.39 127.33 84.53 127.39 86.66 126.84 88.8 125.77 90.93 124.26 93.06 122.4 95.2 120.31 97.33 118.06 99.47 115.7 101.6 113.27 103.74 110.76 105.87 108.14 108.01 105.39 110.14 102.49 112.28 99.42 114.41 96.22 116.54 92.96 118.68 89.75 120.81 86.7 122.95 83.96 125.08 81.64 127.22 79.87 129.35 78.72 131.49 78.27 133.62 78.56 135.76 79.6 137.89 81.38 140.02 83.85 142.16 86.94 144.29 90.55 146.43 94.55 148.56 98.77 150.7 103.01 152.83 107.04 154.97 110.6 157.1 113.46 159.24 115.45 161.37 116.5 163.5 116.66 165.64 116.04 167.77 114.82 169.91 113.15 172.04 111.2 174.18 109.11 176.31 106.98 178.45 104.94 180.58 103.05 182.72 101.42 184.85 100.11 186.98 99.2 189.12 98.74 191.25 98.78 193.39 99.37 195.52 100.55 197.66 102.34 199.79 104.75 201.93 107.78 204.06 111.44 206.2 115.69 208.33 120.51 210.46 125.85 212.6 131.66 214.73 137.86 216.87 144.4 219 151.16 221.14 158.07 223.27 165 225.41 171.85 227.54 178.46 229.67 184.7 231.81 190.37 233.94 195.27 236.08 199.16 238.21 201.76 240.35 202.83 242.48 202.21 244.62 199.93 246.75 196.25 248.89 191.52 251.02 186.1 253.15 180.29 255.29 174.33 257.42 168.41 259.56 162.65 261.69 157.15 263.83 152 265.96 147.22 268.1 142.84 270.23 138.85 272.37 135.24 274.5 131.94 276.63 128.89 278.77 126 280.9 123.15 283.04 120.24 285.17 117.17 287.31 113.9 289.44 110.45 291.58 106.88 293.71 103.33 295.85 99.92 297.98 96.77 300.11 93.96 302.25 91.55 304.38 89.55 306.52 87.96 308.65 86.74 310.79 85.87 312.92 85.3 315.06 85 317.19 84.97 319.33 85.19 321.46 85.68 323.59 86.47 325.73 87.6 327.86 89.09 330 91 332.13 93.35 334.27 96.16 336.4 99.44 338.54 103.17 340.67 107.3 342.81 111.77 344.94 116.5 347.07 121.34 349.21 126.15 351.34 130.77 353.48 135.01 355.61 138.72 357.75 141.78 359.88 144.11 362.02 145.73 364.15 146.72 366.29 147.22 368.42 147.39 370.55 147.41 372.69 147.45 374.82 147.67 376.96 148.19 379.09 149.11 381.23 150.48 383.36 152.34 385.5 154.69 387.63 157.5 389.77 160.68 391.9 164.13 394.03 167.72 396.17 171.25 398.3 174.51 400.44 177.25 402.57 179.21 404.71 180.14 406.84 179.86 408.98 178.27 411.11 175.38 413.25 171.32 415.38 166.27 417.51 160.46 419.65 154.1 421.78 147.4 423.92 140.53 426.05 133.64 428.19 126.86 430.32 120.28 432.46 113.97 434.59 108 436.73 102.41 438.86 97.22 440.99 92.44 443.13 88.08 445.26 84.13 447.4 80.58 449.53 77.41 451.67 74.59 453.8 72.1 455.94 69.92 458.07 68.01 460.21 66.36 462.34 64.92 464.47 63.69 466.61 62.63 468.74 61.72 470.88 60.95 473.01 60.29 475.15 59.74 477.28 59.27" clip-path="url(#cpMzEuMjd8NDk4LjUyfDM0Ni4yOHwyMy4yNw==)" style="stroke-width:1.07;stroke:none"/><polyline points="477.28 323.79 475.15 324.16 473.01 324.58 470.88 325.05 468.74 325.58 466.61 326.15 464.47 326.76 462.34 327.41 460.21 328.08 458.07 328.75 455.94 329.42 453.8 330.05 451.67 330.61 449.53 331.08 447.4 331.42 445.26 331.59 443.13 331.56 440.99 331.28 438.86 330.73 436.73 329.86 434.59 328.65 432.46 327.08 430.32 325.14 428.19 322.85 426.05 320.23 423.92 317.32 421.78 314.2 419.65 310.96 417.51 307.74 415.38 304.69 413.25 302 411.11 299.86 408.98 298.44 406.84 297.83 404.71 298.05 402.57 299 400.44 300.48 398.3 302.28 396.17 304.13 394.03 305.83 391.9 307.17 389.77 308 387.63 308.2 385.5 307.71 383.36 306.47 381.23 304.48 379.09 301.76 376.96 298.37 374.82 294.38 372.69 289.9 370.55 285.08 368.42 280.05 366.29 275.01 364.15 270.12 362.02 265.55 359.88 261.44 357.75 257.86 355.61 254.82 353.48 252.25 351.34 250.03 349.21 248 347.07 246 344.94 243.87 342.81 241.49 340.67 238.75 338.54 235.6 336.4 232 334.27 227.96 332.13 223.51 330 218.72 327.86 213.66 325.73 208.42 323.59 203.12 321.46 197.87 319.33 192.76 317.19 187.89 315.06 183.36 312.92 179.21 310.79 175.5 308.65 172.24 306.52 169.46 304.38 167.15 302.25 165.32 300.11 163.99 297.98 163.18 295.85 162.96 293.71 163.39 291.58 164.57 289.44 166.61 287.31 169.57 285.17 173.5 283.04 178.33 280.9 183.95 278.77 190.19 276.63 196.85 274.5 203.72 272.37 210.62 270.23 217.37 268.1 223.82 265.96 229.83 263.83 235.31 261.69 240.16 259.56 244.33 257.42 247.81 255.29 250.6 253.15 252.76 251.02 254.41 248.89 255.72 246.75 256.95 244.62 258.42 242.48 260.47 240.35 263.31 238.21 266.99 236.08 271.37 233.94 276.2 231.81 281.25 229.67 286.31 227.54 291.21 225.41 295.83 223.27 300.06 221.14 303.84 219 307.09 216.87 309.77 214.73 311.85 212.6 313.29 210.46 314.08 208.33 314.19 206.2 313.63 204.06 312.38 201.93 310.45 199.79 307.84 197.66 304.59 195.52 300.69 193.39 296.19 191.25 291.12 189.12 285.51 186.98 279.41 184.85 272.88 182.72 265.98 180.58 258.76 178.45 251.32 176.31 243.72 174.18 236.06 172.04 228.46 169.91 221.03 167.77 213.93 165.64 207.31 163.5 201.37 161.37 196.29 159.24 192.22 157.1 189.21 154.97 187.24 152.83 186.16 150.7 185.77 148.56 185.85 146.43 186.21 144.29 186.68 142.16 187.13 140.02 187.47 137.89 187.63 135.76 187.57 133.62 187.3 131.49 186.81 129.35 186.16 127.22 185.41 125.08 184.63 122.95 183.94 120.81 183.44 118.68 183.25 116.54 183.49 114.41 184.25 112.28 185.62 110.14 187.62 108.01 190.23 105.87 193.38 103.74 197 101.6 200.96 99.47 205.18 97.33 209.57 95.2 214.08 93.06 218.69 90.93 223.39 88.8 228.21 86.66 233.19 84.53 238.36 82.39 243.74 80.26 249.32 78.12 255.07 75.99 260.94 73.85 266.86 71.72 272.76 69.58 278.54 67.45 284.13 65.32 289.45 63.18 294.44 61.05 299.06 58.91 303.27 56.78 307.04 54.64 310.37 52.51 313.26" clip-path="url(#cpMzEuMjd8NDk4LjUyfDM0Ni4yOHwyMy4yNw==)" style="stroke-width:1.07;stroke:none"/><polygon points="52.51 83.99 54.64 87.45 56.78 91.12 58.91 94.96 61.05 98.91 63.18 102.91 65.32 106.89 67.45 110.76 69.58 114.44 71.72 117.82 73.85 120.82 75.99 123.33 78.12 125.29 80.26 126.63 82.39 127.33 84.53 127.39 86.66 126.84 88.8 125.77 90.93 124.26 93.06 122.4 95.2 120.31 97.33 118.06 99.47 115.7 101.6 113.27 103.74 110.76 105.87 108.14 108.01 105.39 110.14 102.49 112.28 99.42 114.41 96.22 116.54 92.96 118.68 89.75 120.81 86.7 122.95 83.96 125.08 81.64 127.22 79.87 129.35 78.72 131.49 78.27 133.62 78.56 135.76 79.6 137.89 81.38 140.02 83.85 142.16 86.94 144.29 90.55 146.43 94.55 148.56 98.77 150.7 103.01 152.83 107.04 154.97 110.6 157.1 113.46 159.24 115.45 161.37 116.5 163.5 116.66 165.64 116.04 167.77 114.82 169.91 113.15 172.04 111.2 174.18 109.11 176.31 106.98 178.45 104.94 180.58 103.05 182.72 101.42 184.85 100.11 186.98 99.2 189.12 98.74 191.25 98.78 193.39 99.37 195.52 100.55 197.66 102.34 199.79 104.75 201.93 107.78 204.06 111.44 206.2 115.69 208.33 120.51 210.46 125.85 212.6 131.66 214.73 137.86 216.87 144.4 219 151.16 221.14 158.07 223.27 165 225.41 171.85 227.54 178.46 229.67 184.7 231.81 190.37 233.94 195.27 236.08 199.16 238.21 201.76 240.35 202.83 242.48 202.21 244.62 199.93 246.75 196.25 248.89 191.52 251.02 186.1 253.15 180.29 255.29 174.33 257.42 168.41 259.56 162.65 261.69 157.15 263.83 152 265.96 147.22 268.1 142.84 270.23 138.85 272.37 135.24 274.5 131.94 276.63 128.89 278.77 126 280.9 123.15 283.04 120.24 285.17 117.17 287.31 113.9 289.44 110.45 291.58 106.88 293.71 103.33 295.85 99.92 297.98 96.77 300.11 93.96 302.25 91.55 304.38 89.55 306.52 87.96 308.65 86.74 310.79 85.87 312.92 85.3 315.06 85 317.19 84.97 319.33 85.19 321.46 85.68 323.59 86.47 325.73 87.6 327.86 89.09 330 91 332.13 93.35 334.27 96.16 336.4 99.44 338.54 103.17 340.67 107.3 342.81 111.77 344.94 116.5 347.07 121.34 349.21 126.15 351.34 130.77 353.48 135.01 355.61 138.72 357.75 141.78 359.88 144.11 362.02 145.73 364.15 146.72 366.29 147.22 368.42 147.39 370.55 147.41 372.69 147.45 374.82 147.67 376.96 148.19 379.09 149.11 381.23 150.48 383.36 152.34 385.5 154.69 387.63 157.5 389.77 160.68 391.9 164.13 394.03 167.72 396.17 171.25 398.3 174.51 400.44 177.25 402.57 179.21 404.71 180.14 406.84 179.86 408.98 178.27 411.11 175.38 413.25 171.32 415.38 166.27 417.51 160.46 419.65 154.1 421.78 147.4 423.92 140.53 426.05 133.64 428.19 126.86 430.32 120.28 432.46 113.97 434.59 108 436.73 102.41 438.86 97.22 440.99 92.44 443.13 88.08 445.26 84.13 447.4 80.58 449.53 77.41 451.67 74.59 453.8 72.1 455.94 69.92 458.07 68.01 460.21 66.36 462.34 64.92 464.47 63.69 466.61 62.63 468.74 61.72 470.88 60.95 473.01 60.29 475.15 59.74 477.28 59.27 477.28 323.79 475.15 324.16 473.01 324.58 470.88 325.05 468.74 325.58 466.61 326.15 464.47 326.76 462.34 327.41 460.21 328.08 458.07 328.75 455.94 329.42 453.8 330.05 451.67 330.61 449.53 331.08 447.4 331.42 445.26 331.59 443.13 331.56 440.99 331.28 438.86 330.73 436.73 329.86 434.59 328.65 432.46 327.08 430.32 325.14 428.19 322.85 426.05 320.23 423.92 317.32 421.78 314.2 419.65 310.96 417.51 307.74 415.38 304.69 413.25 302 411.11 299.86 408.98 298.44 406.84 297.83 404.71 298.05 402.57 299 400.44 300.48 398.3 302.28 396.17 304.13 394.03 305.83 391.9 307.17 389.77 308 387.63 308.2 385.5 307.71 383.36 306.47 381.23 304.48 379.09 301.76 376.96 298.37 374.82 294.38 372.69 289.9 370.55 285.08 368.42 280.05 366.29 275.01 364.15 270.12 362.02 265.55 359.88 261.44 357.75 257.86 355.61 254.82 353.48 252.25 351.34 250.03 349.21 248 347.07 246 344.94 243.87 342.81 241.49 340.67 238.75 338.54 235.6 336.4 232 334.27 227.96 332.13 223.51 330 218.72 327.86 213.66 325.73 208.42 323.59 203.12 321.46 197.87 319.33 192.76 317.19 187.89 315.06 183.36 312.92 179.21 310.79 175.5 308.65 172.24 306.52 169.46 304.38 167.15 302.25 165.32 300.11 163.99 297.98 163.18 295.85 162.96 293.71 163.39 291.58 164.57 289.44 166.61 287.31 169.57 285.17 173.5 283.04 178.33 280.9 183.95 278.77 190.19 276.63 196.85 274.5 203.72 272.37 210.62 270.23 217.37 268.1 223.82 265.96 229.83 263.83 235.31 261.69 240.16 259.56 244.33 257.42 247.81 255.29 250.6 253.15 252.76 251.02 254.41 248.89 255.72 246.75 256.95 244.62 258.42 242.48 260.47 240.35 263.31 238.21 266.99 236.08 271.37 233.94 276.2 231.81 281.25 229.67 286.31 227.54 291.21 225.41 295.83 223.27 300.06 221.14 303.84 219 307.09 216.87 309.77 214.73 311.85 212.6 313.29 210.46 314.08 208.33 314.19 206.2 313.63 204.06 312.38 201.93 310.45 199.79 307.84 197.66 304.59 195.52 300.69 193.39 296.19 191.25 291.12 189.12 285.51 186.98 279.41 184.85 272.88 182.72 265.98 180.58 258.76 178.45 251.32 176.31 243.72 174.18 236.06 172.04 228.46 169.91 221.03 167.77 213.93 165.64 207.31 163.5 201.37 161.37 196.29 159.24 192.22 157.1 189.21 154.97 187.24 152.83 186.16 150.7 185.77 148.56 185.85 146.43 186.21 144.29 186.68 142.16 187.13 140.02 187.47 137.89 187.63 135.76 187.57 133.62 187.3 131.49 186.81 129.35 186.16 127.22 185.41 125.08 184.63 122.95 183.94 120.81 183.44 118.68 183.25 116.54 183.49 114.41 184.25 112.28 185.62 110.14 187.62 108.01 190.23 105.87 193.38 103.74 197 101.6 200.96 99.47 205.18 97.33 209.57 95.2 214.08 93.06 218.69 90.93 223.39 88.8 228.21 86.66 233.19 84.53 238.36 82.39 243.74 80.26 249.32 78.12 255.07 75.99 260.94 73.85 266.86 71.72 272.76 69.58 278.54 67.45 284.13 65.32 289.45 63.18 294.44 61.05 299.06 58.91 303.27 56.78 307.04 54.64 310.37 52.51 313.26" clip-path="url(#cpMzEuMjd8NDk4LjUyfDM0Ni4yOHwyMy4yNw==)" style="stroke-width:0;stroke:none;fill:#ebebeb"/><polyline points="52.51 83.99 54.64 87.45 56.78 91.12 58.91 94.96 61.05 98.91 63.18 102.91 65.32 106.89 67.45 110.76 69.58 114.44 71.72 117.82 73.85 120.82 75.99 123.33 78.12 125.29 80.26 126.63 82.39 127.33 84.53 127.39 86.66 126.84 88.8 125.77 90.93 124.26 93.06 122.4 95.2 120.31 97.33 118.06 99.47 115.7 101.6 113.27 103.74 110.76 105.87 108.14 108.01 105.39 110.14 102.49 112.28 99.42 114.41 96.22 116.54 92.96 118.68 89.75 120.81 86.7 122.95 83.96 125.08 81.64 127.22 79.87 129.35 78.72 131.49 78.27 133.62 78.56 135.76 79.6 137.89 81.38 140.02 83.85 142.16 86.94 144.29 90.55 146.43 94.55 148.56 98.77 150.7 103.01 152.83 107.04 154.97 110.6 157.1 113.46 159.24 115.45 161.37 116.5 163.5 116.66 165.64 116.04 167.77 114.82 169.91 113.15 172.04 111.2 174.18 109.11 176.31 106.98 178.45 104.94 180.58 103.05 182.72 101.42 184.85 100.11 186.98 99.2 189.12 98.74 191.25 98.78 193.39 99.37 195.52 100.55 197.66 102.34 199.79 104.75 201.93 107.78 204.06 111.44 206.2 115.69 208.33 120.51 210.46 125.85 212.6 131.66 214.73 137.86 216.87 144.4 219 151.16 221.14 158.07 223.27 165 225.41 171.85 227.54 178.46 229.67 184.7 231.81 190.37 233.94 195.27 236.08 199.16 238.21 201.76 240.35 202.83 242.48 202.21 244.62 199.93 246.75 196.25 248.89 191.52 251.02 186.1 253.15 180.29 255.29 174.33 257.42 168.41 259.56 162.65 261.69 157.15 263.83 152 265.96 147.22 268.1 142.84 270.23 138.85 272.37 135.24 274.5 131.94 276.63 128.89 278.77 126 280.9 123.15 283.04 120.24 285.17 117.17 287.31 113.9 289.44 110.45 291.58 106.88 293.71 103.33 295.85 99.92 297.98 96.77 300.11 93.96 302.25 91.55 304.38 89.55 306.52 87.96 308.65 86.74 310.79 85.87 312.92 85.3 315.06 85 317.19 84.97 319.33 85.19 321.46 85.68 323.59 86.47 325.73 87.6 327.86 89.09 330 91 332.13 93.35 334.27 96.16 336.4 99.44 338.54 103.17 340.67 107.3 342.81 111.77 344.94 116.5 347.07 121.34 349.21 126.15 351.34 130.77 353.48 135.01 355.61 138.72 357.75 141.78 359.88 144.11 362.02 145.73 364.15 146.72 366.29 147.22 368.42 147.39 370.55 147.41 372.69 147.45 374.82 147.67 376.96 148.19 379.09 149.11 381.23 150.48 383.36 152.34 385.5 154.69 387.63 157.5 389.77 160.68 391.9 164.13 394.03 167.72 396.17 171.25 398.3 174.51 400.44 177.25 402.57 179.21 404.71 180.14 406.84 179.86 408.98 178.27 411.11 175.38 413.25 171.32 415.38 166.27 417.51 160.46 419.65 154.1 421.78 147.4 423.92 140.53 426.05 133.64 428.19 126.86 430.32 120.28 432.46 113.97 434.59 108 436.73 102.41 438.86 97.22 440.99 92.44 443.13 88.08 445.26 84.13 447.4 80.58 449.53 77.41 451.67 74.59 453.8 72.1 455.94 69.92 458.07 68.01 460.21 66.36 462.34 64.92 464.47 63.69 466.61 62.63 468.74 61.72 470.88 60.95 473.01 60.29 475.15 59.74 477.28 59.27" clip-path="url(#cpMzEuMjd8NDk4LjUyfDM0Ni4yOHwyMy4yNw==)" style="stroke-width:1.07;stroke:none"/><polyline points="477.28 323.79 475.15 324.16 473.01 324.58 470.88 325.05 468.74 325.58 466.61 326.15 464.47 326.76 462.34 327.41 460.21 328.08 458.07 328.75 455.94 329.42 453.8 330.05 451.67 330.61 449.53 331.08 447.4 331.42 445.26 331.59 443.13 331.56 440.99 331.28 438.86 330.73 436.73 329.86 434.59 328.65 432.46 327.08 430.32 325.14 428.19 322.85 426.05 320.23 423.92 317.32 421.78 314.2 419.65 310.96 417.51 307.74 415.38 304.69 413.25 302 411.11 299.86 408.98 298.44 406.84 297.83 404.71 298.05 402.57 299 400.44 300.48 398.3 302.28 396.17 304.13 394.03 305.83 391.9 307.17 389.77 308 387.63 308.2 385.5 307.71 383.36 306.47 381.23 304.48 379.09 301.76 376.96 298.37 374.82 294.38 372.69 289.9 370.55 285.08 368.42 280.05 366.29 275.01 364.15 270.12 362.02 265.55 359.88 261.44 357.75 257.86 355.61 254.82 353.48 252.25 351.34 250.03 349.21 248 347.07 246 344.94 243.87 342.81 241.49 340.67 238.75 338.54 235.6 336.4 232 334.27 227.96 332.13 223.51 330 218.72 327.86 213.66 325.73 208.42 323.59 203.12 321.46 197.87 319.33 192.76 317.19 187.89 315.06 183.36 312.92 179.21 310.79 175.5 308.65 172.24 306.52 169.46 304.38 167.15 302.25 165.32 300.11 163.99 297.98 163.18 295.85 162.96 293.71 163.39 291.58 164.57 289.44 166.61 287.31 169.57 285.17 173.5 283.04 178.33 280.9 183.95 278.77 190.19 276.63 196.85 274.5 203.72 272.37 210.62 270.23 217.37 268.1 223.82 265.96 229.83 263.83 235.31 261.69 240.16 259.56 244.33 257.42 247.81 255.29 250.6 253.15 252.76 251.02 254.41 248.89 255.72 246.75 256.95 244.62 258.42 242.48 260.47 240.35 263.31 238.21 266.99 236.08 271.37 233.94 276.2 231.81 281.25 229.67 286.31 227.54 291.21 225.41 295.83 223.27 300.06 221.14 303.84 219 307.09 216.87 309.77 214.73 311.85 212.6 313.29 210.46 314.08 208.33 314.19 206.2 313.63 204.06 312.38 201.93 310.45 199.79 307.84 197.66 304.59 195.52 300.69 193.39 296.19 191.25 291.12 189.12 285.51 186.98 279.41 184.85 272.88 182.72 265.98 180.58 258.76 178.45 251.32 176.31 243.72 174.18 236.06 172.04 228.46 169.91 221.03 167.77 213.93 165.64 207.31 163.5 201.37 161.37 196.29 159.24 192.22 157.1 189.21 154.97 187.24 152.83 186.16 150.7 185.77 148.56 185.85 146.43 186.21 144.29 186.68 142.16 187.13 140.02 187.47 137.89 187.63 135.76 187.57 133.62 187.3 131.49 186.81 129.35 186.16 127.22 185.41 125.08 184.63 122.95 183.94 120.81 183.44 118.68 183.25 116.54 183.49 114.41 184.25 112.28 185.62 110.14 187.62 108.01 190.23 105.87 193.38 103.74 197 101.6 200.96 99.47 205.18 97.33 209.57 95.2 214.08 93.06 218.69 90.93 223.39 88.8 228.21 86.66 233.19 84.53 238.36 82.39 243.74 80.26 249.32 78.12 255.07 75.99 260.94 73.85 266.86 71.72 272.76 69.58 278.54 67.45 284.13 65.32 289.45 63.18 294.44 61.05 299.06 58.91 303.27 56.78 307.04 54.64 310.37 52.51 313.26" clip-path="url(#cpMzEuMjd8NDk4LjUyfDM0Ni4yOHwyMy4yNw==)" style="stroke-width:1.07;stroke:none"/><polygon points="52.51 83.99 54.64 87.45 56.78 91.12 58.91 94.96 61.05 98.91 63.18 102.91 65.32 106.89 67.45 110.76 69.58 114.44 71.72 117.82 73.85 120.82 75.99 123.33 78.12 125.29 80.26 126.63 82.39 127.33 84.53 127.39 86.66 126.84 88.8 125.77 90.93 124.26 93.06 122.4 95.2 120.31 97.33 118.06 99.47 115.7 101.6 113.27 103.74 110.76 105.87 108.14 108.01 105.39 110.14 102.49 112.28 99.42 114.41 96.22 116.54 92.96 118.68 89.75 120.81 86.7 122.95 83.96 125.08 81.64 127.22 79.87 129.35 78.72 131.49 78.27 133.62 78.56 135.76 79.6 137.89 81.38 140.02 83.85 142.16 86.94 144.29 90.55 146.43 94.55 148.56 98.77 150.7 103.01 152.83 107.04 154.97 110.6 157.1 113.46 159.24 115.45 161.37 116.5 163.5 116.66 165.64 116.04 167.77 114.82 169.91 113.15 172.04 111.2 174.18 109.11 176.31 106.98 178.45 104.94 180.58 103.05 182.72 101.42 184.85 100.11 186.98 99.2 189.12 98.74 191.25 98.78 193.39 99.37 195.52 100.55 197.66 102.34 199.79 104.75 201.93 107.78 204.06 111.44 206.2 115.69 208.33 120.51 210.46 125.85 212.6 131.66 214.73 137.86 216.87 144.4 219 151.16 221.14 158.07 223.27 165 225.41 171.85 227.54 178.46 229.67 184.7 231.81 190.37 233.94 195.27 236.08 199.16 238.21 201.76 240.35 202.83 242.48 202.21 244.62 199.93 246.75 196.25 248.89 191.52 251.02 186.1 253.15 180.29 255.29 174.33 257.42 168.41 259.56 162.65 261.69 157.15 263.83 152 265.96 147.22 268.1 142.84 270.23 138.85 272.37 135.24 274.5 131.94 276.63 128.89 278.77 126 280.9 123.15 283.04 120.24 285.17 117.17 287.31 113.9 289.44 110.45 291.58 106.88 293.71 103.33 295.85 99.92 297.98 96.77 300.11 93.96 302.25 91.55 304.38 89.55 306.52 87.96 308.65 86.74 310.79 85.87 312.92 85.3 315.06 85 317.19 84.97 319.33 85.19 321.46 85.68 323.59 86.47 325.73 87.6 327.86 89.09 330 91 332.13 93.35 334.27 96.16 336.4 99.44 338.54 103.17 340.67 107.3 342.81 111.77 344.94 116.5 347.07 121.34 349.21 126.15 351.34 130.77 353.48 135.01 355.61 138.72 357.75 141.78 359.88 144.11 362.02 145.73 364.15 146.72 366.29 147.22 368.42 147.39 370.55 147.41 372.69 147.45 374.82 147.67 376.96 148.19 379.09 149.11 381.23 150.48 383.36 152.34 385.5 154.69 387.63 157.5 389.77 160.68 391.9 164.13 394.03 167.72 396.17 171.25 398.3 174.51 400.44 177.25 402.57 179.21 404.71 180.14 406.84 179.86 408.98 178.27 411.11 175.38 413.25 171.32 415.38 166.27 417.51 160.46 419.65 154.1 421.78 147.4 423.92 140.53 426.05 133.64 428.19 126.86 430.32 120.28 432.46 113.97 434.59 108 436.73 102.41 438.86 97.22 440.99 92.44 443.13 88.08 445.26 84.13 447.4 80.58 449.53 77.41 451.67 74.59 453.8 72.1 455.94 69.92 458.07 68.01 460.21 66.36 462.34 64.92 464.47 63.69 466.61 62.63 468.74 61.72 470.88 60.95 473.01 60.29 475.15 59.74 477.28 59.27 477.28 323.79 475.15 324.16 473.01 324.58 470.88 325.05 468.74 325.58 466.61 326.15 464.47 326.76 462.34 327.41 460.21 328.08 458.07 328.75 455.94 329.42 453.8 330.05 451.67 330.61 449.53 331.08 447.4 331.42 445.26 331.59 443.13 331.56 440.99 331.28 438.86 330.73 436.73 329.86 434.59 328.65 432.46 327.08 430.32 325.14 428.19 322.85 426.05 320.23 423.92 317.32 421.78 314.2 419.65 310.96 417.51 307.74 415.38 304.69 413.25 302 411.11 299.86 408.98 298.44 406.84 297.83 404.71 298.05 402.57 299 400.44 300.48 398.3 302.28 396.17 304.13 394.03 305.83 391.9 307.17 389.77 308 387.63 308.2 385.5 307.71 383.36 306.47 381.23 304.48 379.09 301.76 376.96 298.37 374.82 294.38 372.69 289.9 370.55 285.08 368.42 280.05 366.29 275.01 364.15 270.12 362.02 265.55 359.88 261.44 357.75 257.86 355.61 254.82 353.48 252.25 351.34 250.03 349.21 248 347.07 246 344.94 243.87 342.81 241.49 340.67 238.75 338.54 235.6 336.4 232 334.27 227.96 332.13 223.51 330 218.72 327.86 213.66 325.73 208.42 323.59 203.12 321.46 197.87 319.33 192.76 317.19 187.89 315.06 183.36 312.92 179.21 310.79 175.5 308.65 172.24 306.52 169.46 304.38 167.15 302.25 165.32 300.11 163.99 297.98 163.18 295.85 162.96 293.71 163.39 291.58 164.57 289.44 166.61 287.31 169.57 285.17 173.5 283.04 178.33 280.9 183.95 278.77 190.19 276.63 196.85 274.5 203.72 272.37 210.62 270.23 217.37 268.1 223.82 265.96 229.83 263.83 235.31 261.69 240.16 259.56 244.33 257.42 247.81 255.29 250.6 253.15 252.76 251.02 254.41 248.89 255.72 246.75 256.95 244.62 258.42 242.48 260.47 240.35 263.31 238.21 266.99 236.08 271.37 233.94 276.2 231.81 281.25 229.67 286.31 227.54 291.21 225.41 295.83 223.27 300.06 221.14 303.84 219 307.09 216.87 309.77 214.73 311.85 212.6 313.29 210.46 314.08 208.33 314.19 206.2 313.63 204.06 312.38 201.93 310.45 199.79 307.84 197.66 304.59 195.52 300.69 193.39 296.19 191.25 291.12 189.12 285.51 186.98 279.41 184.85 272.88 182.72 265.98 180.58 258.76 178.45 251.32 176.31 243.72 174.18 236.06 172.04 228.46 169.91 221.03 167.77 213.93 165.64 207.31 163.5 201.37 161.37 196.29 159.24 192.22 157.1 189.21 154.97 187.24 152.83 186.16 150.7 185.77 148.56 185.85 146.43 186.21 144.29 186.68 142.16 187.13 140.02 187.47 137.89 187.63 135.76 187.57 133.62 187.3 131.49 186.81 129.35 186.16 127.22 185.41 125.08 184.63 122.95 183.94 120.81 183.44 118.68 183.25 116.54 183.49 114.41 184.25 112.28 185.62 110.14 187.62 108.01 190.23 105.87 193.38 103.74 197 101.6 200.96 99.47 205.18 97.33 209.57 95.2 214.08 93.06 218.69 90.93 223.39 88.8 228.21 86.66 233.19 84.53 238.36 82.39 243.74 80.26 249.32 78.12 255.07 75.99 260.94 73.85 266.86 71.72 272.76 69.58 278.54 67.45 284.13 65.32 289.45 63.18 294.44 61.05 299.06 58.91 303.27 56.78 307.04 54.64 310.37 52.51 313.26" clip-path="url(#cpMzEuMjd8NDk4LjUyfDM0Ni4yOHwyMy4yNw==)" style="stroke-width:0;stroke:none;fill:#ebebeb"/><polyline points="52.51 83.99 54.64 87.45 56.78 91.12 58.91 94.96 61.05 98.91 63.18 102.91 65.32 106.89 67.45 110.76 69.58 114.44 71.72 117.82 73.85 120.82 75.99 123.33 78.12 125.29 80.26 126.63 82.39 127.33 84.53 127.39 86.66 126.84 88.8 125.77 90.93 124.26 93.06 122.4 95.2 120.31 97.33 118.06 99.47 115.7 101.6 113.27 103.74 110.76 105.87 108.14 108.01 105.39 110.14 102.49 112.28 99.42 114.41 96.22 116.54 92.96 118.68 89.75 120.81 86.7 122.95 83.96 125.08 81.64 127.22 79.87 129.35 78.72 131.49 78.27 133.62 78.56 135.76 79.6 137.89 81.38 140.02 83.85 142.16 86.94 144.29 90.55 146.43 94.55 148.56 98.77 150.7 103.01 152.83 107.04 154.97 110.6 157.1 113.46 159.24 115.45 161.37 116.5 163.5 116.66 165.64 116.04 167.77 114.82 169.91 113.15 172.04 111.2 174.18 109.11 176.31 106.98 178.45 104.94 180.58 103.05 182.72 101.42 184.85 100.11 186.98 99.2 189.12 98.74 191.25 98.78 193.39 99.37 195.52 100.55 197.66 102.34 199.79 104.75 201.93 107.78 204.06 111.44 206.2 115.69 208.33 120.51 210.46 125.85 212.6 131.66 214.73 137.86 216.87 144.4 219 151.16 221.14 158.07 223.27 165 225.41 171.85 227.54 178.46 229.67 184.7 231.81 190.37 233.94 195.27 236.08 199.16 238.21 201.76 240.35 202.83 242.48 202.21 244.62 199.93 246.75 196.25 248.89 191.52 251.02 186.1 253.15 180.29 255.29 174.33 257.42 168.41 259.56 162.65 261.69 157.15 263.83 152 265.96 147.22 268.1 142.84 270.23 138.85 272.37 135.24 274.5 131.94 276.63 128.89 278.77 126 280.9 123.15 283.04 120.24 285.17 117.17 287.31 113.9 289.44 110.45 291.58 106.88 293.71 103.33 295.85 99.92 297.98 96.77 300.11 93.96 302.25 91.55 304.38 89.55 306.52 87.96 308.65 86.74 310.79 85.87 312.92 85.3 315.06 85 317.19 84.97 319.33 85.19 321.46 85.68 323.59 86.47 325.73 87.6 327.86 89.09 330 91 332.13 93.35 334.27 96.16 336.4 99.44 338.54 103.17 340.67 107.3 342.81 111.77 344.94 116.5 347.07 121.34 349.21 126.15 351.34 130.77 353.48 135.01 355.61 138.72 357.75 141.78 359.88 144.11 362.02 145.73 364.15 146.72 366.29 147.22 368.42 147.39 370.55 147.41 372.69 147.45 374.82 147.67 376.96 148.19 379.09 149.11 381.23 150.48 383.36 152.34 385.5 154.69 387.63 157.5 389.77 160.68 391.9 164.13 394.03 167.72 396.17 171.25 398.3 174.51 400.44 177.25 402.57 179.21 404.71 180.14 406.84 179.86 408.98 178.27 411.11 175.38 413.25 171.32 415.38 166.27 417.51 160.46 419.65 154.1 421.78 147.4 423.92 140.53 426.05 133.64 428.19 126.86 430.32 120.28 432.46 113.97 434.59 108 436.73 102.41 438.86 97.22 440.99 92.44 443.13 88.08 445.26 84.13 447.4 80.58 449.53 77.41 451.67 74.59 453.8 72.1 455.94 69.92 458.07 68.01 460.21 66.36 462.34 64.92 464.47 63.69 466.61 62.63 468.74 61.72 470.88 60.95 473.01 60.29 475.15 59.74 477.28 59.27" clip-path="url(#cpMzEuMjd8NDk4LjUyfDM0Ni4yOHwyMy4yNw==)" style="stroke-width:1.07;stroke:none"/><polyline points="477.28 323.79 475.15 324.16 473.01 324.58 470.88 325.05 468.74 325.58 466.61 326.15 464.47 326.76 462.34 327.41 460.21 328.08 458.07 328.75 455.94 329.42 453.8 330.05 451.67 330.61 449.53 331.08 447.4 331.42 445.26 331.59 443.13 331.56 440.99 331.28 438.86 330.73 436.73 329.86 434.59 328.65 432.46 327.08 430.32 325.14 428.19 322.85 426.05 320.23 423.92 317.32 421.78 314.2 419.65 310.96 417.51 307.74 415.38 304.69 413.25 302 411.11 299.86 408.98 298.44 406.84 297.83 404.71 298.05 402.57 299 400.44 300.48 398.3 302.28 396.17 304.13 394.03 305.83 391.9 307.17 389.77 308 387.63 308.2 385.5 307.71 383.36 306.47 381.23 304.48 379.09 301.76 376.96 298.37 374.82 294.38 372.69 289.9 370.55 285.08 368.42 280.05 366.29 275.01 364.15 270.12 362.02 265.55 359.88 261.44 357.75 257.86 355.61 254.82 353.48 252.25 351.34 250.03 349.21 248 347.07 246 344.94 243.87 342.81 241.49 340.67 238.75 338.54 235.6 336.4 232 334.27 227.96 332.13 223.51 330 218.72 327.86 213.66 325.73 208.42 323.59 203.12 321.46 197.87 319.33 192.76 317.19 187.89 315.06 183.36 312.92 179.21 310.79 175.5 308.65 172.24 306.52 169.46 304.38 167.15 302.25 165.32 300.11 163.99 297.98 163.18 295.85 162.96 293.71 163.39 291.58 164.57 289.44 166.61 287.31 169.57 285.17 173.5 283.04 178.33 280.9 183.95 278.77 190.19 276.63 196.85 274.5 203.72 272.37 210.62 270.23 217.37 268.1 223.82 265.96 229.83 263.83 235.31 261.69 240.16 259.56 244.33 257.42 247.81 255.29 250.6 253.15 252.76 251.02 254.41 248.89 255.72 246.75 256.95 244.62 258.42 242.48 260.47 240.35 263.31 238.21 266.99 236.08 271.37 233.94 276.2 231.81 281.25 229.67 286.31 227.54 291.21 225.41 295.83 223.27 300.06 221.14 303.84 219 307.09 216.87 309.77 214.73 311.85 212.6 313.29 210.46 314.08 208.33 314.19 206.2 313.63 204.06 312.38 201.93 310.45 199.79 307.84 197.66 304.59 195.52 300.69 193.39 296.19 191.25 291.12 189.12 285.51 186.98 279.41 184.85 272.88 182.72 265.98 180.58 258.76 178.45 251.32 176.31 243.72 174.18 236.06 172.04 228.46 169.91 221.03 167.77 213.93 165.64 207.31 163.5 201.37 161.37 196.29 159.24 192.22 157.1 189.21 154.97 187.24 152.83 186.16 150.7 185.77 148.56 185.85 146.43 186.21 144.29 186.68 142.16 187.13 140.02 187.47 137.89 187.63 135.76 187.57 133.62 187.3 131.49 186.81 129.35 186.16 127.22 185.41 125.08 184.63 122.95 183.94 120.81 183.44 118.68 183.25 116.54 183.49 114.41 184.25 112.28 185.62 110.14 187.62 108.01 190.23 105.87 193.38 103.74 197 101.6 200.96 99.47 205.18 97.33 209.57 95.2 214.08 93.06 218.69 90.93 223.39 88.8 228.21 86.66 233.19 84.53 238.36 82.39 243.74 80.26 249.32 78.12 255.07 75.99 260.94 73.85 266.86 71.72 272.76 69.58 278.54 67.45 284.13 65.32 289.45 63.18 294.44 61.05 299.06 58.91 303.27 56.78 307.04 54.64 310.37 52.51 313.26" clip-path="url(#cpMzEuMjd8NDk4LjUyfDM0Ni4yOHwyMy4yNw==)" style="stroke-width:1.07;stroke:none"/><polygon points="52.51 83.99 54.64 87.45 56.78 91.12 58.91 94.96 61.05 98.91 63.18 102.91 65.32 106.89 67.45 110.76 69.58 114.44 71.72 117.82 73.85 120.82 75.99 123.33 78.12 125.29 80.26 126.63 82.39 127.33 84.53 127.39 86.66 126.84 88.8 125.77 90.93 124.26 93.06 122.4 95.2 120.31 97.33 118.06 99.47 115.7 101.6 113.27 103.74 110.76 105.87 108.14 108.01 105.39 110.14 102.49 112.28 99.42 114.41 96.22 116.54 92.96 118.68 89.75 120.81 86.7 122.95 83.96 125.08 81.64 127.22 79.87 129.35 78.72 131.49 78.27 133.62 78.56 135.76 79.6 137.89 81.38 140.02 83.85 142.16 86.94 144.29 90.55 146.43 94.55 148.56 98.77 150.7 103.01 152.83 107.04 154.97 110.6 157.1 113.46 159.24 115.45 161.37 116.5 163.5 116.66 165.64 116.04 167.77 114.82 169.91 113.15 172.04 111.2 174.18 109.11 176.31 106.98 178.45 104.94 180.58 103.05 182.72 101.42 184.85 100.11 186.98 99.2 189.12 98.74 191.25 98.78 193.39 99.37 195.52 100.55 197.66 102.34 199.79 104.75 201.93 107.78 204.06 111.44 206.2 115.69 208.33 120.51 210.46 125.85 212.6 131.66 214.73 137.86 216.87 144.4 219 151.16 221.14 158.07 223.27 165 225.41 171.85 227.54 178.46 229.67 184.7 231.81 190.37 233.94 195.27 236.08 199.16 238.21 201.76 240.35 202.83 242.48 202.21 244.62 199.93 246.75 196.25 248.89 191.52 251.02 186.1 253.15 180.29 255.29 174.33 257.42 168.41 259.56 162.65 261.69 157.15 263.83 152 265.96 147.22 268.1 142.84 270.23 138.85 272.37 135.24 274.5 131.94 276.63 128.89 278.77 126 280.9 123.15 283.04 120.24 285.17 117.17 287.31 113.9 289.44 110.45 291.58 106.88 293.71 103.33 295.85 99.92 297.98 96.77 300.11 93.96 302.25 91.55 304.38 89.55 306.52 87.96 308.65 86.74 310.79 85.87 312.92 85.3 315.06 85 317.19 84.97 319.33 85.19 321.46 85.68 323.59 86.47 325.73 87.6 327.86 89.09 330 91 332.13 93.35 334.27 96.16 336.4 99.44 338.54 103.17 340.67 107.3 342.81 111.77 344.94 116.5 347.07 121.34 349.21 126.15 351.34 130.77 353.48 135.01 355.61 138.72 357.75 141.78 359.88 144.11 362.02 145.73 364.15 146.72 366.29 147.22 368.42 147.39 370.55 147.41 372.69 147.45 374.82 147.67 376.96 148.19 379.09 149.11 381.23 150.48 383.36 152.34 385.5 154.69 387.63 157.5 389.77 160.68 391.9 164.13 394.03 167.72 396.17 171.25 398.3 174.51 400.44 177.25 402.57 179.21 404.71 180.14 406.84 179.86 408.98 178.27 411.11 175.38 413.25 171.32 415.38 166.27 417.51 160.46 419.65 154.1 421.78 147.4 423.92 140.53 426.05 133.64 428.19 126.86 430.32 120.28 432.46 113.97 434.59 108 436.73 102.41 438.86 97.22 440.99 92.44 443.13 88.08 445.26 84.13 447.4 80.58 449.53 77.41 451.67 74.59 453.8 72.1 455.94 69.92 458.07 68.01 460.21 66.36 462.34 64.92 464.47 63.69 466.61 62.63 468.74 61.72 470.88 60.95 473.01 60.29 475.15 59.74 477.28 59.27 477.28 323.79 475.15 324.16 473.01 324.58 470.88 325.05 468.74 325.58 466.61 326.15 464.47 326.76 462.34 327.41 460.21 328.08 458.07 328.75 455.94 329.42 453.8 330.05 451.67 330.61 449.53 331.08 447.4 331.42 445.26 331.59 443.13 331.56 440.99 331.28 438.86 330.73 436.73 329.86 434.59 328.65 432.46 327.08 430.32 325.14 428.19 322.85 426.05 320.23 423.92 317.32 421.78 314.2 419.65 310.96 417.51 307.74 415.38 304.69 413.25 302 411.11 299.86 408.98 298.44 406.84 297.83 404.71 298.05 402.57 299 400.44 300.48 398.3 302.28 396.17 304.13 394.03 305.83 391.9 307.17 389.77 308 387.63 308.2 385.5 307.71 383.36 306.47 381.23 304.48 379.09 301.76 376.96 298.37 374.82 294.38 372.69 289.9 370.55 285.08 368.42 280.05 366.29 275.01 364.15 270.12 362.02 265.55 359.88 261.44 357.75 257.86 355.61 254.82 353.48 252.25 351.34 250.03 349.21 248 347.07 246 344.94 243.87 342.81 241.49 340.67 238.75 338.54 235.6 336.4 232 334.27 227.96 332.13 223.51 330 218.72 327.86 213.66 325.73 208.42 323.59 203.12 321.46 197.87 319.33 192.76 317.19 187.89 315.06 183.36 312.92 179.21 310.79 175.5 308.65 172.24 306.52 169.46 304.38 167.15 302.25 165.32 300.11 163.99 297.98 163.18 295.85 162.96 293.71 163.39 291.58 164.57 289.44 166.61 287.31 169.57 285.17 173.5 283.04 178.33 280.9 183.95 278.77 190.19 276.63 196.85 274.5 203.72 272.37 210.62 270.23 217.37 268.1 223.82 265.96 229.83 263.83 235.31 261.69 240.16 259.56 244.33 257.42 247.81 255.29 250.6 253.15 252.76 251.02 254.41 248.89 255.72 246.75 256.95 244.62 258.42 242.48 260.47 240.35 263.31 238.21 266.99 236.08 271.37 233.94 276.2 231.81 281.25 229.67 286.31 227.54 291.21 225.41 295.83 223.27 300.06 221.14 303.84 219 307.09 216.87 309.77 214.73 311.85 212.6 313.29 210.46 314.08 208.33 314.19 206.2 313.63 204.06 312.38 201.93 310.45 199.79 307.84 197.66 304.59 195.52 300.69 193.39 296.19 191.25 291.12 189.12 285.51 186.98 279.41 184.85 272.88 182.72 265.98 180.58 258.76 178.45 251.32 176.31 243.72 174.18 236.06 172.04 228.46 169.91 221.03 167.77 213.93 165.64 207.31 163.5 201.37 161.37 196.29 159.24 192.22 157.1 189.21 154.97 187.24 152.83 186.16 150.7 185.77 148.56 185.85 146.43 186.21 144.29 186.68 142.16 187.13 140.02 187.47 137.89 187.63 135.76 187.57 133.62 187.3 131.49 186.81 129.35 186.16 127.22 185.41 125.08 184.63 122.95 183.94 120.81 183.44 118.68 183.25 116.54 183.49 114.41 184.25 112.28 185.62 110.14 187.62 108.01 190.23 105.87 193.38 103.74 197 101.6 200.96 99.47 205.18 97.33 209.57 95.2 214.08 93.06 218.69 90.93 223.39 88.8 228.21 86.66 233.19 84.53 238.36 82.39 243.74 80.26 249.32 78.12 255.07 75.99 260.94 73.85 266.86 71.72 272.76 69.58 278.54 67.45 284.13 65.32 289.45 63.18 294.44 61.05 299.06 58.91 303.27 56.78 307.04 54.64 310.37 52.51 313.26" clip-path="url(#cpMzEuMjd8NDk4LjUyfDM0Ni4yOHwyMy4yNw==)" style="stroke-width:0;stroke:none;fill:#ebebeb"/><polyline points="52.51 83.99 54.64 87.45 56.78 91.12 58.91 94.96 61.05 98.91 63.18 102.91 65.32 106.89 67.45 110.76 69.58 114.44 71.72 117.82 73.85 120.82 75.99 123.33 78.12 125.29 80.26 126.63 82.39 127.33 84.53 127.39 86.66 126.84 88.8 125.77 90.93 124.26 93.06 122.4 95.2 120.31 97.33 118.06 99.47 115.7 101.6 113.27 103.74 110.76 105.87 108.14 108.01 105.39 110.14 102.49 112.28 99.42 114.41 96.22 116.54 92.96 118.68 89.75 120.81 86.7 122.95 83.96 125.08 81.64 127.22 79.87 129.35 78.72 131.49 78.27 133.62 78.56 135.76 79.6 137.89 81.38 140.02 83.85 142.16 86.94 144.29 90.55 146.43 94.55 148.56 98.77 150.7 103.01 152.83 107.04 154.97 110.6 157.1 113.46 159.24 115.45 161.37 116.5 163.5 116.66 165.64 116.04 167.77 114.82 169.91 113.15 172.04 111.2 174.18 109.11 176.31 106.98 178.45 104.94 180.58 103.05 182.72 101.42 184.85 100.11 186.98 99.2 189.12 98.74 191.25 98.78 193.39 99.37 195.52 100.55 197.66 102.34 199.79 104.75 201.93 107.78 204.06 111.44 206.2 115.69 208.33 120.51 210.46 125.85 212.6 131.66 214.73 137.86 216.87 144.4 219 151.16 221.14 158.07 223.27 165 225.41 171.85 227.54 178.46 229.67 184.7 231.81 190.37 233.94 195.27 236.08 199.16 238.21 201.76 240.35 202.83 242.48 202.21 244.62 199.93 246.75 196.25 248.89 191.52 251.02 186.1 253.15 180.29 255.29 174.33 257.42 168.41 259.56 162.65 261.69 157.15 263.83 152 265.96 147.22 268.1 142.84 270.23 138.85 272.37 135.24 274.5 131.94 276.63 128.89 278.77 126 280.9 123.15 283.04 120.24 285.17 117.17 287.31 113.9 289.44 110.45 291.58 106.88 293.71 103.33 295.85 99.92 297.98 96.77 300.11 93.96 302.25 91.55 304.38 89.55 306.52 87.96 308.65 86.74 310.79 85.87 312.92 85.3 315.06 85 317.19 84.97 319.33 85.19 321.46 85.68 323.59 86.47 325.73 87.6 327.86 89.09 330 91 332.13 93.35 334.27 96.16 336.4 99.44 338.54 103.17 340.67 107.3 342.81 111.77 344.94 116.5 347.07 121.34 349.21 126.15 351.34 130.77 353.48 135.01 355.61 138.72 357.75 141.78 359.88 144.11 362.02 145.73 364.15 146.72 366.29 147.22 368.42 147.39 370.55 147.41 372.69 147.45 374.82 147.67 376.96 148.19 379.09 149.11 381.23 150.48 383.36 152.34 385.5 154.69 387.63 157.5 389.77 160.68 391.9 164.13 394.03 167.72 396.17 171.25 398.3 174.51 400.44 177.25 402.57 179.21 404.71 180.14 406.84 179.86 408.98 178.27 411.11 175.38 413.25 171.32 415.38 166.27 417.51 160.46 419.65 154.1 421.78 147.4 423.92 140.53 426.05 133.64 428.19 126.86 430.32 120.28 432.46 113.97 434.59 108 436.73 102.41 438.86 97.22 440.99 92.44 443.13 88.08 445.26 84.13 447.4 80.58 449.53 77.41 451.67 74.59 453.8 72.1 455.94 69.92 458.07 68.01 460.21 66.36 462.34 64.92 464.47 63.69 466.61 62.63 468.74 61.72 470.88 60.95 473.01 60.29 475.15 59.74 477.28 59.27" clip-path="url(#cpMzEuMjd8NDk4LjUyfDM0Ni4yOHwyMy4yNw==)" style="stroke-width:1.07;stroke:none"/><polyline points="477.28 323.79 475.15 324.16 473.01 324.58 470.88 325.05 468.74 325.58 466.61 326.15 464.47 326.76 462.34 327.41 460.21 328.08 458.07 328.75 455.94 329.42 453.8 330.05 451.67 330.61 449.53 331.08 447.4 331.42 445.26 331.59 443.13 331.56 440.99 331.28 438.86 330.73 436.73 329.86 434.59 328.65 432.46 327.08 430.32 325.14 428.19 322.85 426.05 320.23 423.92 317.32 421.78 314.2 419.65 310.96 417.51 307.74 415.38 304.69 413.25 302 411.11 299.86 408.98 298.44 406.84 297.83 404.71 298.05 402.57 299 400.44 300.48 398.3 302.28 396.17 304.13 394.03 305.83 391.9 307.17 389.77 308 387.63 308.2 385.5 307.71 383.36 306.47 381.23 304.48 379.09 301.76 376.96 298.37 374.82 294.38 372.69 289.9 370.55 285.08 368.42 280.05 366.29 275.01 364.15 270.12 362.02 265.55 359.88 261.44 357.75 257.86 355.61 254.82 353.48 252.25 351.34 250.03 349.21 248 347.07 246 344.94 243.87 342.81 241.49 340.67 238.75 338.54 235.6 336.4 232 334.27 227.96 332.13 223.51 330 218.72 327.86 213.66 325.73 208.42 323.59 203.12 321.46 197.87 319.33 192.76 317.19 187.89 315.06 183.36 312.92 179.21 310.79 175.5 308.65 172.24 306.52 169.46 304.38 167.15 302.25 165.32 300.11 163.99 297.98 163.18 295.85 162.96 293.71 163.39 291.58 164.57 289.44 166.61 287.31 169.57 285.17 173.5 283.04 178.33 280.9 183.95 278.77 190.19 276.63 196.85 274.5 203.72 272.37 210.62 270.23 217.37 268.1 223.82 265.96 229.83 263.83 235.31 261.69 240.16 259.56 244.33 257.42 247.81 255.29 250.6 253.15 252.76 251.02 254.41 248.89 255.72 246.75 256.95 244.62 258.42 242.48 260.47 240.35 263.31 238.21 266.99 236.08 271.37 233.94 276.2 231.81 281.25 229.67 286.31 227.54 291.21 225.41 295.83 223.27 300.06 221.14 303.84 219 307.09 216.87 309.77 214.73 311.85 212.6 313.29 210.46 314.08 208.33 314.19 206.2 313.63 204.06 312.38 201.93 310.45 199.79 307.84 197.66 304.59 195.52 300.69 193.39 296.19 191.25 291.12 189.12 285.51 186.98 279.41 184.85 272.88 182.72 265.98 180.58 258.76 178.45 251.32 176.31 243.72 174.18 236.06 172.04 228.46 169.91 221.03 167.77 213.93 165.64 207.31 163.5 201.37 161.37 196.29 159.24 192.22 157.1 189.21 154.97 187.24 152.83 186.16 150.7 185.77 148.56 185.85 146.43 186.21 144.29 186.68 142.16 187.13 140.02 187.47 137.89 187.63 135.76 187.57 133.62 187.3 131.49 186.81 129.35 186.16 127.22 185.41 125.08 184.63 122.95 183.94 120.81 183.44 118.68 183.25 116.54 183.49 114.41 184.25 112.28 185.62 110.14 187.62 108.01 190.23 105.87 193.38 103.74 197 101.6 200.96 99.47 205.18 97.33 209.57 95.2 214.08 93.06 218.69 90.93 223.39 88.8 228.21 86.66 233.19 84.53 238.36 82.39 243.74 80.26 249.32 78.12 255.07 75.99 260.94 73.85 266.86 71.72 272.76 69.58 278.54 67.45 284.13 65.32 289.45 63.18 294.44 61.05 299.06 58.91 303.27 56.78 307.04 54.64 310.37 52.51 313.26" clip-path="url(#cpMzEuMjd8NDk4LjUyfDM0Ni4yOHwyMy4yNw==)" style="stroke-width:1.07;stroke:none"/><polyline points="52.51 196.92 54.64 201.03 56.78 205.03 58.91 208.78 61.05 212.07 63.18 214.75 65.32 216.68 67.45 217.75 69.58 217.85 71.72 216.96 73.85 215.06 75.99 212.19 78.12 208.43 80.26 203.89 82.39 198.74 84.53 193.15 86.66 187.34 88.8 181.5 90.93 175.87 93.06 170.66 95.2 166.09 97.33 162.31 99.47 159.48 101.6 157.66 103.74 156.93 105.87 157.31 108.01 158.68 110.14 160.99 112.28 164.06 114.41 167.73 116.54 171.78 118.68 175.96 120.81 180.05 122.95 183.78 125.08 186.94 127.22 189.38 129.35 190.95 131.49 191.56 133.62 191.18 135.76 189.8 137.89 187.56 140.02 184.54 142.16 180.93 144.29 176.91 146.43 172.71 148.56 168.5 150.7 164.51 152.83 160.88 154.97 157.73 157.1 155.21 159.24 153.26 161.37 151.95 163.5 151.18 165.64 150.89 167.77 150.95 169.91 151.24 172.04 151.66 174.18 152.09 176.31 152.41 178.45 152.63 180.58 152.67 182.72 152.53 184.85 152.3 186.98 152 189.12 151.75 191.25 151.63 193.39 151.76 195.52 152.2 197.66 153.05 199.79 154.35 201.93 156.13 204.06 158.41 206.2 161.19 208.33 164.41 210.46 168.03 212.6 172 214.73 176.23 216.87 180.67 219 185.25 221.14 189.93 223.27 194.6 225.41 199.23 227.54 203.79 229.67 208.2 231.81 212.45 233.94 216.49 236.08 220.26 238.21 223.71 240.35 226.8 242.48 229.46 244.62 231.64 246.75 233.3 248.89 234.35 251.02 234.78 253.15 234.53 255.29 233.57 257.42 231.84 259.56 229.36 261.69 226.15 263.83 222.16 265.96 217.45 268.1 212.05 270.23 206.01 272.37 199.37 274.5 192.21 276.63 184.64 278.77 176.7 280.9 168.53 283.04 160.25 285.17 151.95 287.31 143.78 289.44 135.88 291.58 128.37 293.71 121.4 295.85 115.08 297.98 109.52 300.11 104.86 302.25 101.17 304.38 98.5 306.52 96.89 308.65 96.37 310.79 96.91 312.92 98.46 315.06 100.96 317.19 104.3 319.33 108.42 321.46 113.16 323.59 118.38 325.73 123.97 327.86 129.78 330 135.7 332.13 141.59 334.27 147.36 336.4 152.94 338.54 158.25 340.67 163.23 342.81 167.85 344.94 172.1 347.07 175.97 349.21 179.46 351.34 182.59 353.48 185.42 355.61 187.94 357.75 190.21 359.88 192.29 362.02 194.19 364.15 196 366.29 197.76 368.42 199.56 370.55 201.42 372.69 203.43 374.82 205.63 376.96 208.1 379.09 210.86 381.23 214.01 383.36 217.57 385.5 221.57 387.63 226.01 389.77 230.84 391.9 236.1 394.03 241.65 396.17 247.46 398.3 253.39 400.44 259.34 402.57 265.1 404.71 270.52 406.84 275.45 408.98 279.67 411.11 283.04 413.25 285.4 415.38 286.67 417.51 286.69 419.65 285.47 421.78 283.02 423.92 279.35 426.05 274.6 428.19 268.88 430.32 262.35 432.46 255.26 434.59 247.81 436.73 240.23 438.86 232.74 440.99 225.56 443.13 218.85 445.26 212.81 447.4 207.48 449.53 202.96 451.67 199.29 453.8 196.44 455.94 194.35 458.07 192.93 460.21 192.11 462.34 191.72 464.47 191.7 466.61 191.89 468.74 192.22 470.88 192.59 473.01 192.98 475.15 193.33 477.28 193.65" clip-path="url(#cpMzEuMjd8NDk4LjUyfDM0Ni4yOHwyMy4yNw==)" style="stroke-width:1.07;stroke:#f50;stroke-linecap:butt"/><polyline points="52.51 223.24 54.64 218.59 56.78 213.54 58.91 208.31 61.05 202.93 63.18 197.51 65.32 192.15 67.45 186.88 69.58 181.81 71.72 176.96 73.85 172.42 75.99 168.22 78.12 164.44 80.26 161.1 82.39 158.25 84.53 155.95 86.66 154.23 88.8 153.11 90.93 152.64 93.06 152.78 95.2 153.53 97.33 154.89 99.47 156.76 101.6 159.11 103.74 161.81 105.87 164.77 108.01 167.87 110.14 170.92 112.28 173.86 114.41 176.48 116.54 178.67 118.68 180.31 120.81 181.29 122.95 181.53 125.08 180.99 127.22 179.64 129.35 177.52 131.49 174.66 133.62 171.18 135.76 167.14 137.89 162.71 140.02 158.06 142.16 153.36 144.29 148.77 146.43 144.48 148.56 140.64 150.7 137.4 152.83 134.86 154.97 133.14 157.1 132.24 159.24 132.21 161.37 133.02 163.5 134.62 165.64 136.95 167.77 139.9 169.91 143.38 172.04 147.26 174.18 151.42 176.31 155.76 178.45 160.17 180.58 164.59 182.72 168.91 184.85 173.14 186.98 177.18 189.12 181.08 191.25 184.77 193.39 188.33 195.52 191.74 197.66 195.05 199.79 198.26 201.93 201.43 204.06 204.54 206.2 207.67 208.33 210.79 210.46 213.94 212.6 217.11 214.73 220.3 216.87 223.48 219 226.63 221.14 229.72 223.27 232.67 225.41 235.46 227.54 238.02 229.67 240.24 231.81 242.07 233.94 243.42 236.08 244.18 238.21 244.33 240.35 243.76 242.48 242.47 244.62 240.41 246.75 237.59 248.89 234.02 251.02 229.77 253.15 224.9 255.29 219.53 257.42 213.76 259.56 207.76 261.69 201.63 263.83 195.55 265.96 189.65 268.1 184.07 270.23 178.93 272.37 174.35 274.5 170.38 276.63 167.13 278.77 164.59 280.9 162.8 283.04 161.71 285.17 161.33 287.31 161.55 289.44 162.33 291.58 163.57 293.71 165.14 295.85 166.94 297.98 168.85 300.11 170.76 302.25 172.55 304.38 174.13 306.52 175.38 308.65 176.29 310.79 176.77 312.92 176.81 315.06 176.4 317.19 175.57 319.33 174.37 321.46 172.87 323.59 171.19 325.73 169.4 327.86 167.68 330 166.1 332.13 164.83 334.27 163.95 336.4 163.59 338.54 163.82 340.67 164.7 342.81 166.25 344.94 168.49 347.07 171.38 349.21 174.88 351.34 178.89 353.48 183.32 355.61 188.06 357.75 192.99 359.88 197.96 362.02 202.85 364.15 207.55 366.29 211.97 368.42 216.01 370.55 219.61 372.69 222.71 374.82 225.33 376.96 227.47 379.09 229.14 381.23 230.46 383.36 231.47 385.5 232.27 387.63 232.98 389.77 233.74 391.9 234.62 394.03 235.77 396.17 237.28 398.3 239.26 400.44 241.74 402.57 244.75 404.71 248.31 406.84 252.39 408.98 256.87 411.11 261.71 413.25 266.72 415.38 271.78 417.51 276.67 419.65 281.22 421.78 285.25 423.92 288.53 426.05 290.96 428.19 292.34 430.32 292.59 432.46 291.67 434.59 289.52 436.73 286.19 438.86 281.77 440.99 276.32 443.13 270.06 445.26 263.12 447.4 255.71 449.53 248.02 451.67 240.27 453.8 232.65 455.94 225.31 458.07 218.42 460.21 212.07 462.34 206.33 464.47 201.23 466.61 196.78 468.74 192.9 470.88 189.53 473.01 186.56 475.15 183.85 477.28 181.29" clip-path="url(#cpMzEuMjd8NDk4LjUyfDM0Ni4yOHwyMy4yNw==)" style="stroke-width:1.07;stroke:#f50;stroke-linecap:butt"/><polyline points="52.51 37.95 54.64 46.37 56.78 55.11 58.91 63.98 61.05 72.85 63.18 81.57 65.32 90.04 67.45 98.13 69.58 105.78 71.72 112.95 73.85 119.62 75.99 125.76 78.12 131.41 80.26 136.58 82.39 141.29 84.53 145.55 86.66 149.36 88.8 152.76 90.93 155.69 93.06 158.15 95.2 160.1 97.33 161.51 99.47 162.3 101.6 162.48 103.74 162 105.87 160.83 108.01 159 110.14 156.52 112.28 153.46 114.41 149.9 116.54 145.92 118.68 141.62 120.81 137.16 122.95 132.61 125.08 128.12 127.22 123.83 129.35 119.84 131.49 116.23 133.62 113.12 135.76 110.57 137.89 108.63 140.02 107.4 142.16 106.88 144.29 107.1 146.43 108.12 148.56 109.9 150.7 112.49 152.83 115.83 154.97 119.92 157.1 124.74 159.24 130.18 161.37 136.21 163.5 142.69 165.64 149.53 167.77 156.57 169.91 163.68 172.04 170.67 174.18 177.39 176.31 183.7 178.45 189.43 180.58 194.48 182.72 198.69 184.85 202.05 186.98 204.51 189.12 206.06 191.25 206.77 193.39 206.71 195.52 206.01 197.66 204.78 199.79 203.21 201.93 201.46 204.06 199.72 206.2 198.14 208.33 196.88 210.46 196.08 212.6 195.85 214.73 196.28 216.87 197.37 219 199.18 221.14 201.66 223.27 204.8 225.41 208.5 227.54 212.64 229.67 217.09 231.81 221.75 233.94 226.41 236.08 230.89 238.21 235.06 240.35 238.74 242.48 241.71 244.62 243.84 246.75 244.98 248.89 244.99 251.02 243.77 253.15 241.26 255.29 237.4 257.42 232.21 259.56 225.74 261.69 218.05 263.83 209.27 265.96 199.59 268.1 189.18 270.23 178.29 272.37 167.15 274.5 156.06 276.63 145.27 278.77 135.03 280.9 125.6 283.04 117.23 285.17 110.05 287.31 104.28 289.44 100.01 291.58 97.27 293.71 96.12 295.85 96.5 297.98 98.35 300.11 101.56 302.25 105.97 304.38 111.39 306.52 117.67 308.65 124.58 310.79 131.9 312.92 139.44 315.06 147.07 317.19 154.51 319.33 161.69 321.46 168.45 323.59 174.64 325.73 180.23 327.86 185.16 330 189.34 332.13 192.75 334.27 195.44 336.4 197.37 338.54 198.6 340.67 199.16 342.81 199.18 344.94 198.64 347.07 197.68 349.21 196.44 351.34 194.99 353.48 193.44 355.61 191.92 357.75 190.55 359.88 189.43 362.02 188.65 364.15 188.31 366.29 188.44 368.42 189.09 370.55 190.28 372.69 192.02 374.82 194.26 376.96 197.02 379.09 200.2 381.23 203.77 383.36 207.64 385.5 211.76 387.63 216.08 389.77 220.53 391.9 225.04 394.03 229.62 396.17 234.18 398.3 238.72 400.44 243.18 402.57 247.56 404.71 251.83 406.84 255.95 408.98 259.87 411.11 263.59 413.25 267.01 415.38 270.08 417.51 272.76 419.65 274.94 421.78 276.57 423.92 277.58 426.05 277.86 428.19 277.43 430.32 276.2 432.46 274.17 434.59 271.33 436.73 267.7 438.86 263.34 440.99 258.31 443.13 252.67 445.26 246.51 447.4 239.97 449.53 233.14 451.67 226.11 453.8 218.99 455.94 211.86 458.07 204.78 460.21 197.81 462.34 190.96 464.47 184.24 466.61 177.64 468.74 171.14 470.88 164.68 473.01 158.27 475.15 151.85 477.28 145.4" clip-path="url(#cpMzEuMjd8NDk4LjUyfDM0Ni4yOHwyMy4yNw==)" style="stroke-width:1.07;stroke:#f50;stroke-linecap:butt"/><polyline points="52.51 164.03 54.64 157.87 56.78 152.02 58.91 146.6 61.05 141.56 63.18 136.96 65.32 132.75 67.45 128.87 69.58 125.3 71.72 121.92 73.85 118.73 75.99 115.65 78.12 112.66 80.26 109.7 82.39 106.82 84.53 104.01 86.66 101.33 88.8 98.79 90.93 96.49 93.06 94.49 95.2 92.86 97.33 91.7 99.47 91.05 101.6 90.96 103.74 91.52 105.87 92.71 108.01 94.53 110.14 97 112.28 100.08 114.41 103.68 116.54 107.81 118.68 112.3 120.81 117.12 122.95 122.11 125.08 127.21 127.22 132.26 129.35 137.14 131.49 141.74 133.62 145.95 135.76 149.66 137.89 152.79 140.02 155.22 142.16 156.94 144.29 157.91 146.43 158.1 148.56 157.56 150.7 156.32 152.83 154.48 154.97 152.19 157.1 149.55 159.24 146.78 161.37 144.04 163.5 141.52 165.64 139.45 167.77 138.01 169.91 137.39 172.04 137.71 174.18 139.09 176.31 141.6 178.45 145.27 180.58 150.04 182.72 155.85 184.85 162.58 186.98 170.05 189.12 178.11 191.25 186.5 193.39 195.02 195.52 203.46 197.66 211.61 199.79 219.29 201.93 226.35 204.06 232.66 206.2 238.15 208.33 242.74 210.46 246.45 212.6 249.27 214.73 251.22 216.87 252.35 219 252.74 221.14 252.42 223.27 251.45 225.41 249.9 227.54 247.8 229.67 245.21 231.81 242.14 233.94 238.67 236.08 234.82 238.21 230.58 240.35 226.06 242.48 221.25 244.62 216.23 246.75 211.04 248.89 205.76 251.02 200.42 253.15 195.12 255.29 189.93 257.42 184.86 259.56 180 261.69 175.38 263.83 171.02 265.96 166.95 268.1 163.17 270.23 159.7 272.37 156.49 274.5 153.52 276.63 150.77 278.77 148.23 280.9 145.76 283.04 143.42 285.17 141.15 287.31 138.92 289.44 136.71 291.58 134.52 293.71 132.35 295.85 130.25 297.98 128.22 300.11 126.33 302.25 124.67 304.38 123.26 306.52 122.19 308.65 121.53 310.79 121.38 312.92 121.82 315.06 122.88 317.19 124.61 319.33 127.09 321.46 130.28 323.59 134.2 325.73 138.83 327.86 144.11 330 149.96 332.13 156.32 334.27 163.08 336.4 170.13 338.54 177.33 340.67 184.59 342.81 191.76 344.94 198.7 347.07 205.33 349.21 211.51 351.34 217.16 353.48 222.16 355.61 226.45 357.75 230 359.88 232.76 362.02 234.72 364.15 235.88 366.29 236.31 368.42 236.05 370.55 235.17 372.69 233.8 374.82 232.02 376.96 229.97 379.09 227.78 381.23 225.58 383.36 223.49 385.5 221.57 387.63 219.96 389.77 218.67 391.9 217.77 394.03 217.22 396.17 217 398.3 217.04 400.44 217.29 402.57 217.6 404.71 217.87 406.84 217.97 408.98 217.76 411.11 217.16 413.25 216 415.38 214.25 417.51 211.83 419.65 208.69 421.78 204.87 423.92 200.38 426.05 195.31 428.19 189.73 430.32 183.85 432.46 177.77 434.59 171.69 436.73 165.82 438.86 160.38 440.99 155.52 443.13 151.44 445.26 148.3 447.4 146.22 449.53 145.31 451.67 145.62 453.8 147.15 455.94 149.89 458.07 153.76 460.21 158.63 462.34 164.39 464.47 170.83 466.61 177.76 468.74 184.97 470.88 192.21 473.01 199.26 475.15 205.87 477.28 211.8" clip-path="url(#cpMzEuMjd8NDk4LjUyfDM0Ni4yOHwyMy4yNw==)" style="stroke-width:1.07;stroke:#f50;stroke-linecap:butt"/><polyline points="52.51 161.08 54.64 168.13 56.78 175.18 58.91 181.98 61.05 188.33 63.18 194.07 65.32 199.03 67.45 203.14 69.58 206.27 71.72 208.37 73.85 209.39 75.99 209.34 78.12 208.22 80.26 206.06 82.39 202.91 84.53 198.84 86.66 193.93 88.8 188.26 90.93 182 93.06 175.21 95.2 168.08 97.33 160.75 99.47 153.39 101.6 146.17 103.74 139.25 105.87 132.79 108.01 126.93 110.14 121.81 112.28 117.52 114.41 114.15 116.54 111.73 118.68 110.25 120.81 109.7 122.95 110.02 125.08 111.14 127.22 112.98 129.35 115.34 131.49 118.17 133.62 121.28 135.76 124.58 137.89 127.89 140.02 131.09 142.16 134.09 144.29 136.73 146.43 138.96 148.56 140.68 150.7 141.85 152.83 142.42 154.97 142.29 157.1 141.52 159.24 140.09 161.37 138 163.5 135.3 165.64 132.06 167.77 128.34 169.91 124.24 172.04 119.91 174.18 115.4 176.31 110.89 178.45 106.54 180.58 102.47 182.72 98.82 184.85 95.73 186.98 93.32 189.12 91.66 191.25 90.89 193.39 91.02 195.52 92.12 197.66 94.2 199.79 97.24 201.93 101.24 204.06 106.15 206.2 111.88 208.33 118.41 210.46 125.65 212.6 133.49 214.73 141.85 216.87 150.65 219 159.78 221.14 169.14 223.27 178.6 225.41 188.1 227.54 197.48 229.67 206.65 231.81 215.45 233.94 223.75 236.08 231.41 238.21 238.27 240.35 244.16 242.48 248.95 244.62 252.49 246.75 254.66 248.89 255.34 251.02 254.45 253.15 251.99 255.29 247.92 257.42 242.3 259.56 235.23 261.69 226.86 263.83 217.39 265.96 207.04 268.1 196.08 270.23 184.82 272.37 173.53 274.5 162.54 276.63 152.15 278.77 142.61 280.9 134.19 283.04 127.08 285.17 121.47 287.31 117.46 289.44 115.12 291.58 114.45 293.71 115.48 295.85 118.08 297.98 122.14 300.11 127.57 302.25 134.15 304.38 141.71 306.52 150.03 308.65 158.88 310.79 168.08 312.92 177.35 315.06 186.52 317.19 195.36 319.33 203.69 321.46 211.35 323.59 218.18 325.73 224.03 327.86 228.86 330 232.57 332.13 235.12 334.27 236.52 336.4 236.79 338.54 235.94 340.67 234.09 342.81 231.3 344.94 227.67 347.07 223.35 349.21 218.45 351.34 213.11 353.48 207.48 355.61 201.73 357.75 195.98 359.88 190.39 362.02 185.1 364.15 180.22 366.29 175.9 368.42 172.26 370.55 169.39 372.69 167.41 374.82 166.36 376.96 166.3 379.09 167.3 381.23 169.36 383.36 172.41 385.5 176.49 387.63 181.45 389.77 187.25 391.9 193.76 394.03 200.8 396.17 208.22 398.3 215.87 400.44 223.52 402.57 230.99 404.71 238.16 406.84 244.82 408.98 250.83 411.11 256.09 413.25 260.51 415.38 264.08 417.51 266.72 419.65 268.5 421.78 269.44 423.92 269.62 426.05 269.11 428.19 268.04 430.32 266.52 432.46 264.66 434.59 262.58 436.73 260.34 438.86 258.07 440.99 255.81 443.13 253.63 445.26 251.56 447.4 249.59 449.53 247.75 451.67 246.02 453.8 244.39 455.94 242.87 458.07 241.43 460.21 240.05 462.34 238.73 464.47 237.49 466.61 236.31 468.74 235.23 470.88 234.2 473.01 233.28 475.15 232.45 477.28 231.65" clip-path="url(#cpMzEuMjd8NDk4LjUyfDM0Ni4yOHwyMy4yNw==)" style="stroke-width:1.07;stroke:#f50;stroke-linecap:butt"/><circle cx="299.49" cy="129.12" r="1.95" clip-path="url(#cpMzEuMjd8NDk4LjUyfDM0Ni4yOHwyMy4yNw==)" style="stroke-width:.71;fill:#000"/><circle cx="245.99" cy="223.08" r="1.95" clip-path="url(#cpMzEuMjd8NDk4LjUyfDM0Ni4yOHwyMy4yNw==)" style="stroke-width:.71;fill:#000"/><circle cx="166.69" cy="164.62" r="1.95" clip-path="url(#cpMzEuMjd8NDk4LjUyfDM0Ni4yOHwyMy4yNw==)" style="stroke-width:.71;fill:#000"/><circle cx="288.33" cy="132.56" r="1.95" clip-path="url(#cpMzEuMjd8NDk4LjUyfDM0Ni4yOHwyMy4yNw==)" style="stroke-width:.71;fill:#000"/><circle cx="150.73" cy="137.14" r="1.95" clip-path="url(#cpMzEuMjd8NDk4LjUyfDM0Ni4yOHwyMy4yNw==)" style="stroke-width:.71;fill:#000"/><circle cx="283.26" cy="146.79" r="1.95" clip-path="url(#cpMzEuMjd8NDk4LjUyfDM0Ni4yOHwyMy4yNw==)" style="stroke-width:.71;fill:#000"/><circle cx="242.62" cy="240.02" r="1.95" clip-path="url(#cpMzEuMjd8NDk4LjUyfDM0Ni4yOHwyMy4yNw==)" style="stroke-width:.71;fill:#000"/><circle cx="107.85" cy="140.97" r="1.95" clip-path="url(#cpMzEuMjd8NDk4LjUyfDM0Ni4yOHwyMy4yNw==)" style="stroke-width:.71;fill:#000"/><circle cx="316.6" cy="128.79" r="1.95" clip-path="url(#cpMzEuMjd8NDk4LjUyfDM0Ni4yOHwyMy4yNw==)" style="stroke-width:.71;fill:#000"/><circle cx="285.28" cy="155.25" r="1.95" clip-path="url(#cpMzEuMjd8NDk4LjUyfDM0Ni4yOHwyMy4yNw==)" style="stroke-width:.71;fill:#000"/><circle cx="115.9" cy="132.18" r="1.95" clip-path="url(#cpMzEuMjd8NDk4LjUyfDM0Ni4yOHwyMy4yNw==)" style="stroke-width:.71;fill:#000"/><circle cx="290.19" cy="125.04" r="1.95" clip-path="url(#cpMzEuMjd8NDk4LjUyfDM0Ni4yOHwyMy4yNw==)" style="stroke-width:.71;fill:#000"/><circle cx="233.84" cy="243.06" r="1.95" clip-path="url(#cpMzEuMjd8NDk4LjUyfDM0Ni4yOHwyMy4yNw==)" style="stroke-width:.71;fill:#000"/><circle cx="242.69" cy="228.5" r="1.95" clip-path="url(#cpMzEuMjd8NDk4LjUyfDM0Ni4yOHwyMy4yNw==)" style="stroke-width:.71;fill:#000"/><circle cx="406.47" cy="250.58" r="1.95" clip-path="url(#cpMzEuMjd8NDk4LjUyfDM0Ni4yOHwyMy4yNw==)" style="stroke-width:.71;fill:#000"/><circle cx="358.17" cy="203.54" r="1.95" clip-path="url(#cpMzEuMjd8NDk4LjUyfDM0Ni4yOHwyMy4yNw==)" style="stroke-width:.71;fill:#000"/><circle cx="246.58" cy="230.7" r="1.95" clip-path="url(#cpMzEuMjd8NDk4LjUyfDM0Ni4yOHwyMy4yNw==)" style="stroke-width:.71;fill:#000"/><circle cx="273.93" cy="170.54" r="1.95" clip-path="url(#cpMzEuMjd8NDk4LjUyfDM0Ni4yOHwyMy4yNw==)" style="stroke-width:.71;fill:#000"/><circle cx="155.5" cy="148.87" r="1.95" clip-path="url(#cpMzEuMjd8NDk4LjUyfDM0Ni4yOHwyMy4yNw==)" style="stroke-width:.71;fill:#000"/><circle cx="84.73" cy="190.04" r="1.95" clip-path="url(#cpMzEuMjd8NDk4LjUyfDM0Ni4yOHwyMy4yNw==)" style="stroke-width:.71;fill:#000"/><defs><clipPath id="cpMC4wMHw1MDQuMDB8Mzc4LjAwfDAuMDA="><rect width="504" height="378" x="0" y="0"/></clipPath></defs><g clip-path="url(#cpMC4wMHw1MDQuMDB8Mzc4LjAwfDAuMDA=)"><text x="18.51" y="325" lengthAdjust="spacingAndGlyphs" textLength="7.82" style="font-size:8.8px;fill:#4d4d4d;font-family:Arial">-2</text></g><g clip-path="url(#cpMC4wMHw1MDQuMDB8Mzc4LjAwfDAuMDA=)"><text x="18.51" y="258.81" lengthAdjust="spacingAndGlyphs" textLength="7.82" style="font-size:8.8px;fill:#4d4d4d;font-family:Arial">-1</text></g><g clip-path="url(#cpMC4wMHw1MDQuMDB8Mzc4LjAwfDAuMDA=)"><text x="21.44" y="192.63" lengthAdjust="spacingAndGlyphs" textLength="4.89" style="font-size:8.8px;fill:#4d4d4d;font-family:Arial">0</text></g><g clip-path="url(#cpMC4wMHw1MDQuMDB8Mzc4LjAwfDAuMDA=)"><text x="21.44" y="126.45" lengthAdjust="spacingAndGlyphs" textLength="4.89" style="font-size:8.8px;fill:#4d4d4d;font-family:Arial">1</text></g><g clip-path="url(#cpMC4wMHw1MDQuMDB8Mzc4LjAwfDAuMDA=)"><text x="21.44" y="60.27" lengthAdjust="spacingAndGlyphs" textLength="4.89" style="font-size:8.8px;fill:#4d4d4d;font-family:Arial">2</text></g><g clip-path="url(#cpMC4wMHw1MDQuMDB8Mzc4LjAwfDAuMDA=)"><text x="34.44" y="357.51" lengthAdjust="spacingAndGlyphs" textLength="7.82" style="font-size:8.8px;fill:#4d4d4d;font-family:Arial">-8</text></g><g clip-path="url(#cpMC4wMHw1MDQuMDB8Mzc4LjAwfDAuMDA=)"><text x="147.71" y="357.51" lengthAdjust="spacingAndGlyphs" textLength="7.82" style="font-size:8.8px;fill:#4d4d4d;font-family:Arial">-4</text></g><g clip-path="url(#cpMC4wMHw1MDQuMDB8Mzc4LjAwfDAuMDA=)"><text x="262.45" y="357.51" lengthAdjust="spacingAndGlyphs" textLength="4.89" style="font-size:8.8px;fill:#4d4d4d;font-family:Arial">0</text></g><g clip-path="url(#cpMC4wMHw1MDQuMDB8Mzc4LjAwfDAuMDA=)"><text x="375.72" y="357.51" lengthAdjust="spacingAndGlyphs" textLength="4.89" style="font-size:8.8px;fill:#4d4d4d;font-family:Arial">4</text></g><g clip-path="url(#cpMC4wMHw1MDQuMDB8Mzc4LjAwfDAuMDA=)"><text x="488.99" y="357.51" lengthAdjust="spacingAndGlyphs" textLength="4.89" style="font-size:8.8px;fill:#4d4d4d;font-family:Arial">8</text></g><g clip-path="url(#cpMC4wMHw1MDQuMDB8Mzc4LjAwfDAuMDA=)"><text x="262.14" y="370.1" lengthAdjust="spacingAndGlyphs" textLength="5.5" style="font-size:11px;font-family:Arial">x</text></g><g clip-path="url(#cpMC4wMHw1MDQuMDB8Mzc4LjAwfDAuMDA=)"><text style="font-size:11px;font-family:Arial" lengthAdjust="spacingAndGlyphs" textLength="26.3" transform="translate(13.35,197.92) rotate(-90)">value</text></g><g clip-path="url(#cpMC4wMHw1MDQuMDB8Mzc4LjAwfDAuMDA=)"><text x="31.27" y="14.93" lengthAdjust="spacingAndGlyphs" textLength="114.44" style="font-size:13.2px;font-family:Arial">Posterior Predictive</text></g></svg>