<svg xmlns="http://www.w3.org/2000/svg" xmlns:xlink="http://www.w3.org/1999/xlink" viewBox="0 0 504 378"><defs><style type="text/css">polyline,rect{fill:none;stroke:#000;stroke-linecap:round;stroke-linejoin:round;stroke-miterlimit:10}</style></defs><rect width="100%" height="100%" style="stroke:none;fill:none"/><defs><clipPath id="cpMzEuMjd8NDk4LjUyfDM0Ni4yOHwyMy4yNw=="><rect width="467.25" height="323.01" x="31.27" y="23.27"/></clipPath></defs><polyline points="31.27 345.08 498.52 345.08" clip-path="url(#cpMzEuMjd8NDk4LjUyfDM0Ni4yOHwyMy4yNw==)" style="stroke-width:.53;stroke:#ebebeb;stroke-linecap:butt"/><polyline points="31.27 278.81 498.52 278.81" clip-path="url(#cpMzEuMjd8NDk4LjUyfDM0Ni4yOHwyMy4yNw==)" style="stroke-width:.53;stroke:#ebebeb;stroke-linecap:butt"/><polyline points="31.27 212.53 498.52 212.53" clip-path="url(#cpMzEuMjd8NDk4LjUyfDM0Ni4yOHwyMy4yNw==)" style="stroke-width:.53;stroke:#ebebeb;stroke-linecap:butt"/><polyline points="31.27 146.25 498.52 146.25" clip-path="url(#cpMzEuMjd8NDk4LjUyfDM0Ni4yOHwyMy4yNw==)" style="stroke-width:.53;stroke:#ebebeb;stroke-linecap:butt"/><polyline points="31.27 79.98 498.52 79.98" clip-path="url(#cpMzEuMjd8NDk4LjUyfDM0Ni4yOHwyMy4yNw==)" style="stroke-width:.53;stroke:#ebebeb;stroke-linecap:butt"/><polyline points="105.6 346.28 105.6 23.27" clip-path="url(#cpMzEuMjd8NDk4LjUyfDM0Ni4yOHwyMy4yNw==)" style="stroke-width:.53;stroke:#ebebeb;stroke-linecap:butt"/><polyline points="211.8 346.28 211.8 23.27" clip-path="url(#cpMzEuMjd8NDk4LjUyfDM0Ni4yOHwyMy4yNw==)" style="stroke-width:.53;stroke:#ebebeb;stroke-linecap:butt"/><polyline points="317.99 346.28 317.99 23.27" clip-path="url(#cpMzEuMjd8NDk4LjUyfDM0Ni4yOHwyMy4yNw==)" style="stroke-width:.53;stroke:#ebebeb;stroke-linecap:butt"/><polyline points="424.19 346.28 424.19 23.27" clip-path="url(#cpMzEuMjd8NDk4LjUyfDM0Ni4yOHwyMy4yNw==)" style="stroke-width:.53;stroke:#ebebeb;stroke-linecap:butt"/><polyline points="31.27 311.95 498.52 311.95" clip-path="url(#cpMzEuMjd8NDk4LjUyfDM0Ni4yOHwyMy4yNw==)" style="stroke-width:1.07;stroke:#ebebeb;stroke-linecap:butt"/><polyline points="31.27 245.67 498.52 245.67" clip-path="url(#cpMzEuMjd8NDk4LjUyfDM0Ni4yOHwyMy4yNw==)" style="stroke-width:1.07;stroke:#ebebeb;stroke-linecap:butt"/><polyline points="31.27 179.39 498.52 179.39" clip-path="url(#cpMzEuMjd8NDk4LjUyfDM0Ni4yOHwyMy4yNw==)" style="stroke-width:1.07;stroke:#ebebeb;stroke-linecap:butt"/><polyline points="31.27 113.12 498.52 113.12" clip-path="url(#cpMzEuMjd8NDk4LjUyfDM0Ni4yOHwyMy4yNw==)" style="stroke-width:1.07;stroke:#ebebeb;stroke-linecap:butt"/><polyline points="31.27 46.84 498.52 46.84" clip-path="url(#cpMzEuMjd8NDk4LjUyfDM0Ni4yOHwyMy4yNw==)" style="stroke-width:1.07;stroke:#ebebeb;stroke-linecap:butt"/><polyline points="52.51 346.28 52.51 23.27" clip-path="url(#cpMzEuMjd8NDk4LjUyfDM0Ni4yOHwyMy4yNw==)" style="stroke-width:1.07;stroke:#ebebeb;stroke-linecap:butt"/><polyline points="158.7 346.28 158.7 23.27" clip-path="url(#cpMzEuMjd8NDk4LjUyfDM0Ni4yOHwyMy4yNw==)" style="stroke-width:1.07;stroke:#ebebeb;stroke-linecap:butt"/><polyline points="264.89 346.28 264.89 23.27" clip-path="url(#cpMzEuMjd8NDk4LjUyfDM0Ni4yOHwyMy4yNw==)" style="stroke-width:1.07;stroke:#ebebeb;stroke-linecap:butt"/><polyline points="371.09 346.28 371.09 23.27" clip-path="url(#cpMzEuMjd8NDk4LjUyfDM0Ni4yOHwyMy4yNw==)" style="stroke-width:1.07;stroke:#ebebeb;stroke-linecap:butt"/><polyline points="477.28 346.28 477.28 23.27" clip-path="url(#cpMzEuMjd8NDk4LjUyfDM0Ni4yOHwyMy4yNw==)" style="stroke-width:1.07;stroke:#ebebeb;stroke-linecap:butt"/><polyline points="52.51 237.71 61 219.44 69.5 198.77 77.99 178.8 86.49 163.25 94.99 155.57 103.48 157.85 111.98 169.94 120.47 189.25 128.97 211.29 137.46 230.89 145.96 243.72 154.45 247.54 162.95 242.64 171.44 231.53 179.94 217.83 188.44 205.08 196.93 195.74 205.43 190.66 213.92 189.32 222.42 190.31 230.91 192.14 239.41 193.74 247.9 194.71 256.4 195.07 264.89 194.93 273.39 194.1 281.89 192.01 290.38 187.88 298.88 181.15 307.37 171.86 315.87 160.84 324.36 149.48 332.86 139.28 341.35 131.34 349.85 126.02 358.35 122.93 366.84 121.37 375.34 120.79 383.83 121.17 392.33 123.14 400.82 127.77 409.32 136.11 417.81 148.82 426.31 165.85 434.8 186.37 443.3 208.93 451.8 231.78 460.29 253.24 468.79 272 477.28 287.13" clip-path="url(#cpMzEuMjd8NDk4LjUyfDM0Ni4yOHwyMy4yNw==)" style="stroke-width:1.07;stroke:#f50;stroke-opacity:.5;stroke-linecap:butt"/><polyline points="52.51 270.87 61 272.68 69.5 263.45 77.99 244.89 86.49 220.44 94.99 194.36 103.48 170.82 111.98 153.09 120.47 142.98 128.97 140.56 137.46 144.23 145.96 151.47 154.45 159.76 162.95 167.55 171.44 174.59 179.94 181.55 188.44 189.27 196.93 197.91 205.43 206.76 213.92 214.53 222.42 220.11 230.91 223.09 239.41 223.83 247.9 223.05 256.4 221.25 264.89 218.35 273.39 213.82 281.89 207.11 290.38 198.25 298.88 188.14 307.37 178.48 315.87 171.2 324.36 167.75 332.86 168.45 341.35 172.18 349.85 176.77 358.35 179.74 366.84 179.22 375.34 174.58 383.83 166.48 392.33 156.53 400.82 146.54 409.32 138.04 417.81 131.9 426.31 128.4 434.8 127.5 443.3 129.15 451.8 133.4 460.29 140.39 468.79 150.16 477.28 162.42" clip-path="url(#cpMzEuMjd8NDk4LjUyfDM0Ni4yOHwyMy4yNw==)" style="stroke-width:1.07;stroke:#f50;stroke-opacity:.5;stroke-linecap:butt"/><polyline points="52.51 327.44 61 331.59 69.5 330.4 77.99 324.48 86.49 314.44 94.99 300.72 103.48 283.59 111.98 263.33 120.47 240.53 128.97 216.29 137.46 192.33 145.96 170.78 154.45 153.74 162.95 142.81 171.44 138.59 179.94 140.54 188.44 147.06 196.93 155.99 205.43 165.12 213.92 172.82 222.42 178.38 230.91 182.07 239.41 185 247.9 188.78 256.4 195.02 264.89 204.93 273.39 218.87 281.89 236.2 290.38 255.17 298.88 273.26 307.37 287.62 315.87 295.88 324.36 296.88 332.86 291.33 341.35 281.77 349.85 272.03 358.35 266.01 366.84 266.47 375.34 274.04 383.83 287.13 392.33 302.53 400.82 316.59 409.32 326.45 417.81 330.64 426.31 329.18 434.8 323.02 443.3 313.42 451.8 301.5 460.29 288.21 468.79 274.5 477.28 261.5" clip-path="url(#cpMzEuMjd8NDk4LjUyfDM0Ni4yOHwyMy4yNw==)" style="stroke-width:1.07;stroke:#f50;stroke-opacity:.5;stroke-linecap:butt"/><polyline points="52.51 171.44 61 170.71 69.5 173.79 77.99 179.65 86.49 186.26 94.99 191.35 103.48 193.45 111.98 192.61 120.47 190.54 128.97 189.75 137.46 192.33 145.96 198.8 154.45 207.75 162.95 216.3 171.44 221.26 179.94 220.32 188.44 212.79 196.93 199.85 205.43 184.01 213.92 168.37 222.42 155.66 230.91 147.53 239.41 144.27 247.9 144.96 256.4 148.22 264.89 152.99 273.39 159.04 281.89 166.89 290.38 177.2 298.88 190.03 307.37 204.41 315.87 218.58 324.36 230.66 332.86 239.34 341.35 244.13 349.85 245.22 358.35 243.06 366.84 238.07 375.34 230.78 383.83 222.08 392.33 213.39 400.82 206.39 409.32 202.45 417.81 201.97 426.31 204.02 434.8 206.56 443.3 207.13 451.8 203.72 460.29 195.46 468.79 182.82 477.28 167.35" clip-path="url(#cpMzEuMjd8NDk4LjUyfDM0Ni4yOHwyMy4yNw==)" style="stroke-width:1.07;stroke:#f50;stroke-opacity:.5;stroke-linecap:butt"/><polyline points="52.51 181.87 61 166.65 69.5 149.47 77.99 131.4 86.49 113.35 94.99 96.19 103.48 80.83 111.98 68.26 120.47 59.37 128.97 54.67 137.46 54.21 145.96 57.52 154.45 63.96 162.95 72.9 171.44 83.86 179.94 96.39 188.44 109.81 196.93 123.04 205.43 134.77 213.92 143.99 222.42 150.53 230.91 155.32 239.41 160.06 247.9 166.49 256.4 175.5 264.89 186.68 273.39 198.46 281.89 208.65 290.38 215.15 298.88 216.62 307.37 212.72 315.87 204.21 324.36 192.61 332.86 179.79 341.35 167.39 349.85 156.41 358.35 147.12 366.84 139.32 375.34 132.61 383.83 126.63 392.33 120.92 400.82 114.78 409.32 107.22 417.81 97.33 426.31 84.81 434.8 70.41 443.3 56.04 451.8 44.34 460.29 37.95 468.79 38.85 477.28 47.87" clip-path="url(#cpMzEuMjd8NDk4LjUyfDM0Ni4yOHwyMy4yNw==)" style="stroke-width:1.07;stroke:#f50;stroke-opacity:.5;stroke-linecap:butt"/><defs><clipPath id="cpMC4wMHw1MDQuMDB8Mzc4LjAwfDAuMDA="><rect width="504" height="378" x="0" y="0"/></clipPath></defs><g clip-path="url(#cpMC4wMHw1MDQuMDB8Mzc4LjAwfDAuMDA=)"><text x="18.51" y="315.1" lengthAdjust="spacingAndGlyphs" textLength="7.82" style="font-size:8.8px;fill:#4d4d4d;font-family:Arial">-2</text></g><g clip-path="url(#cpMC4wMHw1MDQuMDB8Mzc4LjAwfDAuMDA=)"><text x="18.51" y="248.82" lengthAdjust="spacingAndGlyphs" textLength="7.82" style="font-size:8.8px;fill:#4d4d4d;font-family:Arial">-1</text></g><g clip-path="url(#cpMC4wMHw1MDQuMDB8Mzc4LjAwfDAuMDA=)"><text x="21.44" y="182.54" lengthAdjust="spacingAndGlyphs" textLength="4.89" style="font-size:8.8px;fill:#4d4d4d;font-family:Arial">0</text></g><g clip-path="url(#cpMC4wMHw1MDQuMDB8Mzc4LjAwfDAuMDA=)"><text x="21.44" y="116.27" lengthAdjust="spacingAndGlyphs" textLength="4.89" style="font-size:8.8px;fill:#4d4d4d;font-family:Arial">1</text></g><g clip-path="url(#cpMC4wMHw1MDQuMDB8Mzc4LjAwfDAuMDA=)"><text x="21.44" y="49.99" lengthAdjust="spacingAndGlyphs" textLength="4.89" style="font-size:8.8px;fill:#4d4d4d;font-family:Arial">2</text></g><g clip-path="url(#cpMC4wMHw1MDQuMDB8Mzc4LjAwfDAuMDA=)"><text x="44.93" y="357.51" lengthAdjust="spacingAndGlyphs" textLength="15.16" style="font-size:8.8px;fill:#4d4d4d;font-family:Arial">-5.0</text></g><g clip-path="url(#cpMC4wMHw1MDQuMDB8Mzc4LjAwfDAuMDA=)"><text x="151.12" y="357.51" lengthAdjust="spacingAndGlyphs" textLength="15.16" style="font-size:8.8px;fill:#4d4d4d;font-family:Arial">-2.5</text></g><g clip-path="url(#cpMC4wMHw1MDQuMDB8Mzc4LjAwfDAuMDA=)"><text x="258.78" y="357.51" lengthAdjust="spacingAndGlyphs" textLength="12.23" style="font-size:8.8px;fill:#4d4d4d;font-family:Arial">0.0</text></g><g clip-path="url(#cpMC4wMHw1MDQuMDB8Mzc4LjAwfDAuMDA=)"><text x="364.97" y="357.51" lengthAdjust="spacingAndGlyphs" textLength="12.23" style="font-size:8.8px;fill:#4d4d4d;font-family:Arial">2.5</text></g><g clip-path="url(#cpMC4wMHw1MDQuMDB8Mzc4LjAwfDAuMDA=)"><text x="471.17" y="357.51" lengthAdjust="spacingAndGlyphs" textLength="12.23" style="font-size:8.8px;fill:#4d4d4d;font-family:Arial">5.0</text></g><g clip-path="url(#cpMC4wMHw1MDQuMDB8Mzc4LjAwfDAuMDA=)"><text x="262.14" y="370.1" lengthAdjust="spacingAndGlyphs" textLength="5.5" style="font-size:11px;font-family:Arial">x</text></g><g clip-path="url(#cpMC4wMHw1MDQuMDB8Mzc4LjAwfDAuMDA=)"><text style="font-size:11px;font-family:Arial" lengthAdjust="spacingAndGlyphs" textLength="26.3" transform="translate(13.35,197.92) rotate(-90)">value</text></g><g clip-path="url(#cpMC4wMHw1MDQuMDB8Mzc4LjAwfDAuMDA=)"><text x="31.27" y="14.93" lengthAdjust="spacingAndGlyphs" textLength="27.87" style="font-size:13.2px;font-family:Arial">Prior</text></g></svg>