<svg xmlns="http://www.w3.org/2000/svg" xmlns:xlink="http://www.w3.org/1999/xlink" viewBox="0 0 504 378"><defs><style type="text/css">polyline,rect{fill:none;stroke:#000;stroke-linecap:round;stroke-linejoin:round;stroke-miterlimit:10}</style></defs><rect width="100%" height="100%" style="stroke:none;fill:none"/><rect width="504" height="378" x="0" y="0" style="stroke-width:1.07;stroke:none"/><defs><clipPath id="cpNDEuOTB8NDk4LjUyfDM0OS40NXwyNy44MA=="><rect width="456.62" height="321.64" x="41.9" y="27.8"/></clipPath></defs><polyline points="62.65 241.34 70.95 223.15 79.26 202.56 87.56 182.68 95.86 167.2 104.16 159.55 112.47 161.81 120.77 173.85 129.07 193.09 137.37 215.03 145.67 234.55 153.98 247.32 162.28 251.12 170.58 246.25 178.88 235.18 187.19 221.54 195.49 208.85 203.79 199.54 212.09 194.49 220.4 193.15 228.7 194.14 237 195.96 245.3 197.56 253.6 198.52 261.91 198.88 270.21 198.74 278.51 197.92 286.81 195.84 295.12 191.72 303.42 185.01 311.72 175.77 320.02 164.79 328.32 153.48 336.63 143.33 344.93 135.42 353.23 130.12 361.53 127.04 369.84 125.49 378.14 124.91 386.44 125.29 394.74 127.26 403.04 131.86 411.35 140.17 419.65 152.83 427.95 169.78 436.25 190.21 444.56 212.68 452.86 235.43 461.16 256.81 469.46 275.48 477.76 290.55" clip-path="url(#cpNDEuOTB8NDk4LjUyfDM0OS40NXwyNy44MA==)" style="stroke-width:1.07;stroke:#f50;stroke-opacity:.5;stroke-linecap:butt"/><polyline points="62.65 274.35 70.95 276.16 79.26 266.97 87.56 248.49 95.86 224.14 104.16 198.17 112.47 174.73 120.77 157.07 129.07 147.01 137.37 144.6 145.67 148.26 153.98 155.46 162.28 163.72 170.58 171.48 178.88 178.48 187.19 185.42 195.49 193.1 203.79 201.71 212.09 210.52 220.4 218.25 228.7 223.81 237 226.78 245.3 227.52 253.6 226.74 261.91 224.95 270.21 222.06 278.51 217.55 286.81 210.87 295.12 202.05 303.42 191.98 311.72 182.36 320.02 175.11 328.32 171.68 336.63 172.37 344.93 176.09 353.23 180.66 361.53 183.61 369.84 183.1 378.14 178.47 386.44 170.41 394.74 160.5 403.04 150.56 411.35 142.09 419.65 135.98 427.95 132.49 436.25 131.6 444.56 133.24 452.86 137.47 461.16 144.43 469.46 154.16 477.76 166.37" clip-path="url(#cpNDEuOTB8NDk4LjUyfDM0OS40NXwyNy44MA==)" style="stroke-width:1.07;stroke:#f50;stroke-opacity:.5;stroke-linecap:butt"/><polyline points="62.65 330.68 70.95 334.83 79.26 333.64 87.56 327.74 95.86 317.74 104.16 304.08 112.47 287.02 120.77 266.85 129.07 244.14 137.37 220.01 145.67 196.15 153.98 174.69 162.28 157.73 170.58 146.84 178.88 142.64 187.19 144.58 195.49 151.07 203.79 159.96 212.09 169.05 220.4 176.73 228.7 182.26 237 185.93 245.3 188.85 253.6 192.62 261.91 198.83 270.21 208.69 278.51 222.58 286.81 239.83 295.12 258.73 303.42 276.74 311.72 291.04 320.02 299.26 328.32 300.26 336.63 294.73 344.93 285.22 353.23 275.51 361.53 269.52 369.84 269.97 378.14 277.52 386.44 290.55 394.74 305.88 403.04 319.89 411.35 329.7 419.65 333.88 427.95 332.42 436.25 326.29 444.56 316.72 452.86 304.86 461.16 291.63 469.46 277.97 477.76 265.03" clip-path="url(#cpNDEuOTB8NDk4LjUyfDM0OS40NXwyNy44MA==)" style="stroke-width:1.07;stroke:#f50;stroke-opacity:.5;stroke-linecap:butt"/><polyline points="62.65 175.35 70.95 174.62 79.26 177.69 87.56 183.52 95.86 190.11 104.16 195.18 112.47 197.27 120.77 196.43 129.07 194.37 137.37 193.58 145.67 196.15 153.98 202.59 162.28 211.5 170.58 220.02 178.88 224.96 187.19 224.02 195.49 216.53 203.79 203.64 212.09 187.87 220.4 172.29 228.7 159.63 237 151.54 245.3 148.29 253.6 148.98 261.91 152.23 270.21 156.98 278.51 163 286.81 170.82 295.12 181.09 303.42 193.86 311.72 208.18 320.02 222.29 328.32 234.32 336.63 242.96 344.93 247.73 353.23 248.82 361.53 246.66 369.84 241.69 378.14 234.44 386.44 225.78 394.74 217.12 403.04 210.15 411.35 206.22 419.65 205.75 427.95 207.79 436.25 210.32 444.56 210.89 452.86 207.49 461.16 199.27 469.46 186.68 477.76 171.27" clip-path="url(#cpNDEuOTB8NDk4LjUyfDM0OS40NXwyNy44MA==)" style="stroke-width:1.07;stroke:#f50;stroke-opacity:.5;stroke-linecap:butt"/><polyline points="62.65 185.74 70.95 170.58 79.26 153.48 87.56 135.48 95.86 117.51 104.16 100.41 112.47 85.12 120.77 72.6 129.07 63.75 137.37 59.08 145.67 58.61 153.98 61.92 162.28 68.33 170.58 77.23 178.88 88.14 187.19 100.62 195.49 113.98 203.79 127.16 212.09 138.84 220.4 148.02 228.7 154.53 237 159.29 245.3 164.02 253.6 170.42 261.91 179.39 270.21 190.53 278.51 202.26 286.81 212.4 295.12 218.88 303.42 220.34 311.72 216.46 320.02 207.98 328.32 196.43 336.63 183.66 344.93 171.32 353.23 160.38 361.53 151.13 369.84 143.36 378.14 136.68 386.44 130.72 394.74 125.04 403.04 118.93 411.35 111.41 419.65 101.56 427.95 89.08 436.25 74.74 444.56 60.44 452.86 48.78 461.16 42.42 469.46 43.32 477.76 52.3" clip-path="url(#cpNDEuOTB8NDk4LjUyfDM0OS40NXwyNy44MA==)" style="stroke-width:1.07;stroke:#f50;stroke-opacity:.5;stroke-linecap:butt"/><defs><clipPath id="cpMC4wMHw1MDQuMDB8Mzc4LjAwfDAuMDA="><rect width="504" height="378" x="0" y="0"/></clipPath></defs><g clip-path="url(#cpMC4wMHw1MDQuMDB8Mzc4LjAwfDAuMDA=)"><text x="28.43" y="318.7" lengthAdjust="spacingAndGlyphs" textLength="8.54" style="font-size:9.6px;fill:#4d4d4d;font-family:Arial">-2</text></g><g clip-path="url(#cpMC4wMHw1MDQuMDB8Mzc4LjAwfDAuMDA=)"><text x="28.43" y="252.7" lengthAdjust="spacingAndGlyphs" textLength="8.54" style="font-size:9.6px;fill:#4d4d4d;font-family:Arial">-1</text></g><g clip-path="url(#cpMC4wMHw1MDQuMDB8Mzc4LjAwfDAuMDA=)"><text x="31.63" y="186.7" lengthAdjust="spacingAndGlyphs" textLength="5.34" style="font-size:9.6px;fill:#4d4d4d;font-family:Arial">0</text></g><g clip-path="url(#cpMC4wMHw1MDQuMDB8Mzc4LjAwfDAuMDA=)"><text x="31.63" y="120.71" lengthAdjust="spacingAndGlyphs" textLength="5.34" style="font-size:9.6px;fill:#4d4d4d;font-family:Arial">1</text></g><g clip-path="url(#cpMC4wMHw1MDQuMDB8Mzc4LjAwfDAuMDA=)"><text x="31.63" y="54.71" lengthAdjust="spacingAndGlyphs" textLength="5.34" style="font-size:9.6px;fill:#4d4d4d;font-family:Arial">2</text></g><polyline points="39.16 315.26 41.9 315.26" clip-path="url(#cpMC4wMHw1MDQuMDB8Mzc4LjAwfDAuMDA=)" style="stroke-width:1.07;stroke:#333;stroke-linecap:butt"/><polyline points="39.16 249.26 41.9 249.26" clip-path="url(#cpMC4wMHw1MDQuMDB8Mzc4LjAwfDAuMDA=)" style="stroke-width:1.07;stroke:#333;stroke-linecap:butt"/><polyline points="39.16 183.27 41.9 183.27" clip-path="url(#cpMC4wMHw1MDQuMDB8Mzc4LjAwfDAuMDA=)" style="stroke-width:1.07;stroke:#333;stroke-linecap:butt"/><polyline points="39.16 117.27 41.9 117.27" clip-path="url(#cpMC4wMHw1MDQuMDB8Mzc4LjAwfDAuMDA=)" style="stroke-width:1.07;stroke:#333;stroke-linecap:butt"/><polyline points="39.16 51.28 41.9 51.28" clip-path="url(#cpMC4wMHw1MDQuMDB8Mzc4LjAwfDAuMDA=)" style="stroke-width:1.07;stroke:#333;stroke-linecap:butt"/><polyline points="62.65 352.19 62.65 349.45" clip-path="url(#cpMC4wMHw1MDQuMDB8Mzc4LjAwfDAuMDA=)" style="stroke-width:1.07;stroke:#333;stroke-linecap:butt"/><polyline points="166.43 352.19 166.43 349.45" clip-path="url(#cpMC4wMHw1MDQuMDB8Mzc4LjAwfDAuMDA=)" style="stroke-width:1.07;stroke:#333;stroke-linecap:butt"/><polyline points="270.21 352.19 270.21 349.45" clip-path="url(#cpMC4wMHw1MDQuMDB8Mzc4LjAwfDAuMDA=)" style="stroke-width:1.07;stroke:#333;stroke-linecap:butt"/><polyline points="373.99 352.19 373.99 349.45" clip-path="url(#cpMC4wMHw1MDQuMDB8Mzc4LjAwfDAuMDA=)" style="stroke-width:1.07;stroke:#333;stroke-linecap:butt"/><polyline points="477.76 352.19 477.76 349.45" clip-path="url(#cpMC4wMHw1MDQuMDB8Mzc4LjAwfDAuMDA=)" style="stroke-width:1.07;stroke:#333;stroke-linecap:butt"/><g clip-path="url(#cpMC4wMHw1MDQuMDB8Mzc4LjAwfDAuMDA=)"><text x="54.38" y="361.25" lengthAdjust="spacingAndGlyphs" textLength="16.54" style="font-size:9.6px;fill:#4d4d4d;font-family:Arial">-5.0</text></g><g clip-path="url(#cpMC4wMHw1MDQuMDB8Mzc4LjAwfDAuMDA=)"><text x="158.16" y="361.25" lengthAdjust="spacingAndGlyphs" textLength="16.54" style="font-size:9.6px;fill:#4d4d4d;font-family:Arial">-2.5</text></g><g clip-path="url(#cpMC4wMHw1MDQuMDB8Mzc4LjAwfDAuMDA=)"><text x="263.54" y="361.25" lengthAdjust="spacingAndGlyphs" textLength="13.35" style="font-size:9.6px;fill:#4d4d4d;font-family:Arial">0.0</text></g><g clip-path="url(#cpMC4wMHw1MDQuMDB8Mzc4LjAwfDAuMDA=)"><text x="367.31" y="361.25" lengthAdjust="spacingAndGlyphs" textLength="13.35" style="font-size:9.6px;fill:#4d4d4d;font-family:Arial">2.5</text></g><g clip-path="url(#cpMC4wMHw1MDQuMDB8Mzc4LjAwfDAuMDA=)"><text x="471.09" y="361.25" lengthAdjust="spacingAndGlyphs" textLength="13.35" style="font-size:9.6px;fill:#4d4d4d;font-family:Arial">5.0</text></g><g clip-path="url(#cpMC4wMHw1MDQuMDB8Mzc4LjAwfDAuMDA=)"><text x="493.72" y="371.42" lengthAdjust="spacingAndGlyphs" textLength="4.8" style="font-size:9.6px;fill:#4d4d4d;font-family:Arial">x</text></g><g clip-path="url(#cpMC4wMHw1MDQuMDB8Mzc4LjAwfDAuMDA=)"><text x="5.48" y="34.68" lengthAdjust="spacingAndGlyphs" textLength="22.95" style="font-size:9.6px;fill:#4d4d4d;font-family:Arial">value</text></g><g clip-path="url(#cpMC4wMHw1MDQuMDB8Mzc4LjAwfDAuMDA=)"><text x="41.9" y="18.36" lengthAdjust="spacingAndGlyphs" textLength="38" style="font-size:18px;fill:#4d4d4d;font-family:Arial">Prior</text></g></svg>