<svg xmlns="http://www.w3.org/2000/svg" xmlns:xlink="http://www.w3.org/1999/xlink" viewBox="0 0 504 378"><defs><style type="text/css">circle,line,polygon,polyline,rect{fill:none;stroke:#000;stroke-linecap:round;stroke-linejoin:round;stroke-miterlimit:10}</style></defs><rect width="100%" height="100%" style="stroke:none;fill:none"/><defs><clipPath id="cpNTkuMDR8NDczLjc2fDMwNC41Nnw1OS4wNA=="><rect width="414.72" height="245.52" x="59.04" y="59.04"/></clipPath></defs><polyline points="168.59 76.06 171.13 74.85 173.56 73.78 175.89 72.86 178.11 72.08 180.22 71.44 182.23 70.92 184.13 70.51 185.93 70.23 187.62 70.05 189.2 69.96 190.68 69.98 192.06 70.08 193.33 70.26 194.49 70.51 195.55 70.84 196.5 71.22 197.34 71.66 198.08 72.15 198.72 72.68 199.24 73.25 199.67 73.84 199.98 74.46 200.2 75.1 200.3 75.74 200.3 76.39 200.2 77.03 199.98 77.67 199.67 78.28 199.24 78.88 198.72 79.44 198.08 79.98 197.34 80.46 196.5 80.9 195.55 81.29 194.49 81.61 193.33 81.87 192.06 82.05 190.68 82.15 189.2 82.16 187.62 82.08 185.93 81.9 184.13 81.61 182.23 81.21 180.22 80.69 178.11 80.04 175.89 79.26 173.56 78.34 171.13 77.28 168.59 76.06 168.59 76.06" clip-path="url(#cpNTkuMDR8NDczLjc2fDMwNC41Nnw1OS4wNA==)" style="stroke-width:.75;stroke:#a9a9a9"/><line x1="169.83" x2="168.59" y1="75.47" y2="76.06" clip-path="url(#cpNTkuMDR8NDczLjc2fDMwNC41Nnw1OS4wNA==)" style="stroke-width:.75;stroke:#a9a9a9"/><polygon points="179.68 65.88 178.98 66.89 178.2 67.95 177.31 69.07 176.26 70.25 174.97 71.56 173.2 73.09 168.56 76 168.62 76.13 173.8 74.33 176.1 73.91 177.93 73.72 179.51 73.65 180.93 73.65 182.25 73.7 183.48 73.8" clip-path="url(#cpNTkuMDR8NDczLjc2fDMwNC41Nnw1OS4wNA==)" style="stroke-width:.75;stroke:#a9a9a9;fill:#a9a9a9"/><g clip-path="url(#cpNTkuMDR8NDczLjc2fDMwNC41Nnw1OS4wNA==)"><text x="189.81" y="80.09" lengthAdjust="spacingAndGlyphs" textLength="21" style="font-size:12px;fill:#00008b;font-family:Times">0.67</text></g><polyline points="380.07 112.12 382.6 110.9 385.03 109.84 387.36 108.92 389.58 108.14 391.69 107.49 393.7 106.97 395.6 106.57 397.4 106.28 399.09 106.1 400.68 106.02 402.16 106.03 403.53 106.13 404.8 106.31 405.96 106.57 407.02 106.89 407.97 107.28 408.81 107.72 409.55 108.21 410.19 108.74 410.72 109.3 411.14 109.9 411.46 110.52 411.67 111.15 411.77 111.79 411.77 112.44 411.67 113.09 411.46 113.72 411.14 114.34 410.72 114.93 410.19 115.5 409.55 116.03 408.81 116.52 407.97 116.96 407.02 117.34 405.96 117.67 404.8 117.92 403.53 118.1 402.16 118.2 400.68 118.22 399.09 118.14 397.4 117.95 395.6 117.67 393.7 117.27 391.69 116.74 389.58 116.1 387.36 115.32 385.03 114.4 382.6 113.33 380.07 112.12 380.07 112.12" clip-path="url(#cpNTkuMDR8NDczLjc2fDMwNC41Nnw1OS4wNA==)" style="stroke-width:.75;stroke:#a9a9a9"/><line x1="381.3" x2="380.07" y1="111.52" y2="112.12" clip-path="url(#cpNTkuMDR8NDczLjc2fDMwNC41Nnw1OS4wNA==)" style="stroke-width:.75;stroke:#a9a9a9"/><polygon points="391.15 101.93 390.46 102.95 389.67 104.01 388.78 105.12 387.73 106.31 386.44 107.61 384.68 109.14 380.04 112.05 380.1 112.18 385.27 110.39 387.57 109.97 389.4 109.78 390.98 109.7 392.41 109.7 393.72 109.76 394.95 109.85" clip-path="url(#cpNTkuMDR8NDczLjc2fDMwNC41Nnw1OS4wNA==)" style="stroke-width:.75;stroke:#a9a9a9;fill:#a9a9a9"/><g clip-path="url(#cpNTkuMDR8NDczLjc2fDMwNC41Nnw1OS4wNA==)"><text x="401.29" y="116.11" lengthAdjust="spacingAndGlyphs" textLength="21" style="font-size:12px;fill:#00008b;font-family:Times">0.13</text></g><polyline points="352.81 287.54 355.35 286.32 357.78 285.26 360.1 284.34 362.32 283.56 364.44 282.91 366.45 282.39 368.35 281.99 370.14 281.7 371.84 281.52 373.42 281.44 374.9 281.45 376.27 281.55 377.54 281.73 378.71 281.99 379.76 282.31 380.71 282.7 381.56 283.14 382.3 283.62 382.93 284.16 383.46 284.72 383.88 285.32 384.2 285.93 384.41 286.57 384.52 287.21 384.52 287.86 384.41 288.5 384.2 289.14 383.88 289.76 383.46 290.35 382.93 290.92 382.3 291.45 381.56 291.94 380.71 292.38 379.76 292.76 378.71 293.09 377.54 293.34 376.27 293.52 374.9 293.62 373.42 293.64 371.84 293.55 370.14 293.37 368.35 293.09 366.45 292.68 364.44 292.16 362.32 291.52 360.1 290.74 357.78 289.82 355.35 288.75 352.81 287.54 352.81 287.54" clip-path="url(#cpNTkuMDR8NDczLjc2fDMwNC41Nnw1OS4wNA==)" style="stroke-width:.75;stroke:#a9a9a9"/><line x1="354.05" x2="352.81" y1="286.94" y2="287.54" clip-path="url(#cpNTkuMDR8NDczLjc2fDMwNC41Nnw1OS4wNA==)" style="stroke-width:.75;stroke:#a9a9a9"/><polygon points="363.9 277.35 363.2 278.37 362.42 279.43 361.53 280.54 360.48 281.73 359.19 283.03 357.42 284.56 352.78 287.47 352.84 287.6 358.02 285.8 360.32 285.39 362.14 285.19 363.72 285.12 365.15 285.12 366.46 285.17 367.69 285.27" clip-path="url(#cpNTkuMDR8NDczLjc2fDMwNC41Nnw1OS4wNA==)" style="stroke-width:.75;stroke:#a9a9a9;fill:#a9a9a9"/><g clip-path="url(#cpNTkuMDR8NDczLjc2fDMwNC41Nnw1OS4wNA==)"><text x="374.03" y="291.5" lengthAdjust="spacingAndGlyphs" textLength="21" style="font-size:12px;fill:#00008b;font-family:Times">0.74</text></g><line x1="169.9" x2="364.32" y1="77.64" y2="110.78" clip-path="url(#cpNTkuMDR8NDczLjc2fDMwNC41Nnw1OS4wNA==)" style="stroke-width:.75;stroke:#a9a9a9"/><line x1="166.82" x2="339.67" y1="83.13" y2="281.56" clip-path="url(#cpNTkuMDR8NDczLjc2fDMwNC41Nnw1OS4wNA==)" style="stroke-width:.75;stroke:#a9a9a9"/><line x1="362.9" x2="168.48" y1="110.54" y2="77.4" clip-path="url(#cpNTkuMDR8NDczLjc2fDMwNC41Nnw1OS4wNA==)" style="stroke-width:.75;stroke:#a9a9a9"/><line x1="370.7" x2="346.1" y1="121.38" y2="279.7" clip-path="url(#cpNTkuMDR8NDczLjc2fDMwNC41Nnw1OS4wNA==)" style="stroke-width:.75;stroke:#a9a9a9"/><line x1="338.73" x2="165.87" y1="280.47" y2="82.04" clip-path="url(#cpNTkuMDR8NDczLjc2fDMwNC41Nnw1OS4wNA==)" style="stroke-width:.75;stroke:#a9a9a9"/><line x1="346.32" x2="370.92" y1="278.28" y2="119.95" clip-path="url(#cpNTkuMDR8NDczLjc2fDMwNC41Nnw1OS4wNA==)" style="stroke-width:.75;stroke:#a9a9a9"/><polygon points="349.39 112.69 350.54 112.27 351.79 111.85 353.16 111.46 354.7 111.1 356.51 110.78 358.84 110.55 364.31 110.86 364.33 110.71 359.07 109.19 356.95 108.2 355.35 107.3 354.02 106.45 352.85 105.63 351.81 104.82 350.86 104.04" clip-path="url(#cpNTkuMDR8NDczLjc2fDMwNC41Nnw1OS4wNA==)" style="stroke-width:.75;stroke:#a9a9a9;fill:#a9a9a9"/><polygon points="326.9 273.58 328.07 273.98 329.3 274.45 330.61 275.02 332.03 275.71 333.63 276.61 335.58 277.91 339.62 281.6 339.73 281.51 336.62 277 335.6 274.89 334.93 273.19 334.44 271.68 334.06 270.31 333.76 269.02 333.52 267.81" clip-path="url(#cpNTkuMDR8NDczLjc2fDMwNC41Nnw1OS4wNA==)" style="stroke-width:.75;stroke:#a9a9a9;fill:#a9a9a9"/><polygon points="183.41 75.49 182.26 75.92 181.01 76.33 179.64 76.72 178.1 77.08 176.29 77.4 173.96 77.63 168.49 77.33 168.47 77.47 173.73 78.99 175.85 79.98 177.45 80.88 178.78 81.73 179.95 82.55 180.99 83.36 181.94 84.15" clip-path="url(#cpNTkuMDR8NDczLjc2fDMwNC41Nnw1OS4wNA==)" style="stroke-width:.75;stroke:#a9a9a9;fill:#a9a9a9"/><polygon points="343.97 264.8 344.41 265.95 344.85 267.19 345.26 268.55 345.64 270.09 345.99 271.89 346.25 274.22 346.03 279.69 346.17 279.71 347.61 274.43 348.57 272.29 349.45 270.68 350.28 269.33 351.09 268.16 351.88 267.11 352.65 266.15" clip-path="url(#cpNTkuMDR8NDczLjc2fDMwNC41Nnw1OS4wNA==)" style="stroke-width:.75;stroke:#a9a9a9;fill:#a9a9a9"/><polygon points="178.64 90.02 177.48 89.62 176.25 89.15 174.94 88.58 173.51 87.89 171.91 86.99 169.97 85.69 165.93 82 165.82 82.09 168.93 86.6 169.94 88.71 170.61 90.41 171.11 91.92 171.49 93.29 171.78 94.58 172.02 95.79" clip-path="url(#cpNTkuMDR8NDczLjc2fDMwNC41Nnw1OS4wNA==)" style="stroke-width:.75;stroke:#a9a9a9;fill:#a9a9a9"/><polygon points="373.05 134.86 372.6 133.71 372.17 132.46 371.76 131.1 371.37 129.56 371.03 127.76 370.76 125.44 370.99 119.97 370.85 119.94 369.4 125.23 368.45 127.36 367.57 128.97 366.74 130.32 365.93 131.5 365.14 132.55 364.37 133.51" clip-path="url(#cpNTkuMDR8NDczLjc2fDMwNC41Nnw1OS4wNA==)" style="stroke-width:.75;stroke:#a9a9a9;fill:#a9a9a9"/><g clip-path="url(#cpNTkuMDR8NDczLjc2fDMwNC41Nnw1OS4wNA==)"><text x="223.26" y="92.5" lengthAdjust="spacingAndGlyphs" textLength="21" style="font-size:12px;fill:#00008b;font-family:Times">0.24</text></g><g clip-path="url(#cpNTkuMDR8NDczLjc2fDMwNC41Nnw1OS4wNA==)"><text x="213.31" y="152.52" lengthAdjust="spacingAndGlyphs" textLength="21" style="font-size:12px;fill:#00008b;font-family:Times">0.08</text></g><g clip-path="url(#cpNTkuMDR8NDczLjc2fDMwNC41Nnw1OS4wNA==)"><text x="288.54" y="103.69" lengthAdjust="spacingAndGlyphs" textLength="21" style="font-size:12px;fill:#00008b;font-family:Times">0.46</text></g><g clip-path="url(#cpNTkuMDR8NDczLjc2fDMwNC41Nnw1OS4wNA==)"><text x="352.15" y="177.16" lengthAdjust="spacingAndGlyphs" textLength="21" style="font-size:12px;fill:#00008b;font-family:Times">0.41</text></g><g clip-path="url(#cpNTkuMDR8NDczLjc2fDMwNC41Nnw1OS4wNA==)"><text x="271.24" y="219.01" lengthAdjust="spacingAndGlyphs" textLength="21" style="font-size:12px;fill:#00008b;font-family:Times">0.11</text></g><g clip-path="url(#cpNTkuMDR8NDczLjc2fDMwNC41Nnw1OS4wNA==)"><text x="343.87" y="230.5" lengthAdjust="spacingAndGlyphs" textLength="21" style="font-size:12px;fill:#00008b;font-family:Times">0.15</text></g><circle cx="160.66" cy="76.06" r="7.93" clip-path="url(#cpNTkuMDR8NDczLjc2fDMwNC41Nnw1OS4wNA==)" style="stroke-width:.75;fill:#e69f00"/><circle cx="372.14" cy="112.12" r="7.93" clip-path="url(#cpNTkuMDR8NDczLjc2fDMwNC41Nnw1OS4wNA==)" style="stroke-width:.75;fill:#e69f00"/><circle cx="344.88" cy="287.54" r="7.93" clip-path="url(#cpNTkuMDR8NDczLjc2fDMwNC41Nnw1OS4wNA==)" style="stroke-width:.75;fill:#e69f00"/><defs><clipPath id="cpMC4wMHw1MDQuMDB8Mzc4LjAwfDAuMDA="><rect width="504" height="378" x="0" y="0"/></clipPath></defs><g clip-path="url(#cpMC4wMHw1MDQuMDB8Mzc4LjAwfDAuMDA=)"><text x="158" y="78.8" lengthAdjust="spacingAndGlyphs" textLength="5.33" style="font-size:12px;fill:#00008b;font-family:Times">a</text></g><g clip-path="url(#cpMC4wMHw1MDQuMDB8Mzc4LjAwfDAuMDA=)"><text x="369.14" y="116.15" lengthAdjust="spacingAndGlyphs" textLength="6" style="font-size:12px;fill:#00008b;font-family:Times">b</text></g><g clip-path="url(#cpMC4wMHw1MDQuMDB8Mzc4LjAwfDAuMDA=)"><text x="342.22" y="290.24" lengthAdjust="spacingAndGlyphs" textLength="5.33" style="font-size:12px;fill:#00008b;font-family:Times">c</text></g></svg>