<svg xmlns="http://www.w3.org/2000/svg" xmlns:xlink="http://www.w3.org/1999/xlink" viewBox="0 0 504 378"><defs><style type="text/css">circle,polyline,rect{fill:none;stroke:#000;stroke-linecap:round;stroke-linejoin:round;stroke-miterlimit:10}</style></defs><rect width="100%" height="100%" style="stroke:none;fill:none"/><rect width="504" height="378" x="0" y="0" style="stroke-width:1.07;stroke:none"/><defs><clipPath id="cpNTAuOTd8Mzc3LjE3fDM0OS40NXw1LjQ4"><rect width="326.2" height="343.97" x="50.97" y="5.48"/></clipPath></defs><polyline points="362.34 26.7 359.35 24.74 358.55 24.27 356.35 22.99 353.35 21.49 352.5 21.11" clip-path="url(#cpNTAuOTd8Mzc3LjE3fDM0OS40NXw1LjQ4)" style="stroke-width:1.07;stroke:#ebebeb;stroke-linecap:butt"/><polyline points="276.29 21.11 275.47 21.39 272.48 22.49 269.48 23.73 268.28 24.27 266.49 25.04 263.49 26.44 261.57 27.43 260.5 27.96 257.5 29.54 255.67 30.59 254.51 31.23 251.51 33 250.32 33.75 248.52 34.84 245.52 36.79 245.35 36.91 242.53 38.75 240.64 40.07 239.53 40.82 236.54 42.95 236.16 43.22 233.54 45.11 231.85 46.38 230.54 47.35 227.73 49.54 227.55 49.68 224.55 52.05 223.76 52.7 221.56 54.51 219.99 55.86 218.56 57.1 216.45 59.02 215.57 59.84 213.14 62.18 212.57 62.75 210.07 65.33 209.58 65.88 207.26 68.49 206.58 69.31 204.69 71.65 203.59 73.15 202.37 74.81 200.59 77.55 200.32 77.97 198.45 81.13 197.6 82.8 196.82 84.29 195.39 87.44 194.6 89.5 194.16 90.6 193.07 93.76 192.18 96.92 191.6 99.4 191.44 100.08 190.79 103.24 190.27 106.4 189.87 109.55 189.56 112.71 189.33 115.87 189.16 119.03 189.04 122.19 188.95 125.35 188.88 128.5 188.82 131.66 188.76 134.82 188.67 137.98 188.61 139.74 188.55 141.14 188.37 144.3 188.14 147.46 187.82 150.61 187.41 153.77 186.89 156.93 186.25 160.09 185.61 162.68 185.45 163.25 184.36 166.41 183.02 169.57 182.62 170.39 181.15 172.72 179.62 174.74 178.42 175.88 176.63 177.34 173.63 178.84 172.95 179.04 170.64 179.63 167.64 179.93 164.65 179.91 161.65 179.67 158.66 179.29 157.15 179.04 155.66 178.81 152.66 178.27 149.67 177.71 146.67 177.16 143.68 176.64 140.68 176.17 138.63 175.88 137.69 175.75 134.69 175.37 131.7 175.06 128.7 174.83 125.71 174.69 122.71 174.63 119.72 174.66 116.72 174.77 113.72 174.98 110.73 175.28 107.73 175.68 106.48 175.88 104.74 176.14 101.74 176.67 98.75 177.3 95.75 178.02 92.76 178.86 92.17 179.04 89.76 179.73 86.77 180.69 83.77 181.79 82.74 182.2 80.78 182.94 77.78 184.19 75.29 185.36 74.79 185.58 71.79 187.03 69.08 188.52 68.79 188.67 65.8 190.38" clip-path="url(#cpNTAuOTd8Mzc3LjE3fDM0OS40NXw1LjQ4)" style="stroke-width:1.07;stroke:#ebebeb;stroke-linecap:butt"/><polyline points="149.81 333.81 152.66 331.07 153.08 330.65 155.66 327.94 156.07 327.49 158.66 324.5 158.8 324.33 161.33 321.18 161.65 320.75 163.69 318.02 164.65 316.63 165.87 314.86 167.64 312.07 167.88 311.7 169.8 308.54 170.64 307.03 171.58 305.38 173.23 302.23 173.63 301.37 174.79 299.07 176.22 295.91 176.63 294.91 177.58 292.75 178.81 289.59 179.62 287.24 179.92 286.43 180.98 283.27 181.9 280.12 182.62 277.25 182.7 276.96 183.46 273.8 184.11 270.64 184.66 267.48 185.13 264.32 185.54 261.16 185.61 260.5 185.93 258.01 186.3 254.85 186.66 251.69 187.03 248.53 187.44 245.37 187.91 242.21 188.47 239.05 188.61 238.38 189.22 235.9 190.16 232.74 191.33 229.58 191.6 228.95 192.99 226.42 194.6 224.05 195.32 223.26 197.6 221.16 199.29 220.1 200.59 219.39 203.59 218.31 206.58 217.65 209.58 217.27 212.57 217.06 215.57 216.96 216.54 216.94 218.56 216.92 221.56 216.92 224.55 216.93 227.55 216.93 230.54 216.92 233.54 216.88 236.54 216.82 239.53 216.72 242.53 216.59 245.52 216.42 248.52 216.21 251.51 215.97 254.51 215.68 257.5 215.35 260.5 214.98 263.49 214.56 266.49 214.1 268.33 213.79 269.48 213.61 272.48 213.11 275.47 212.57 278.47 211.98 281.47 211.34 284.46 210.64 284.51 210.63 287.46 209.98 290.45 209.27 293.45 208.51 296.44 207.69 297.19 207.47 299.44 206.89 302.43 206.06 305.43 205.17 308.13 204.31 308.42 204.23 311.42 203.33 314.41 202.37 317.41 201.33 317.89 201.15 320.41 200.32 323.4 199.26 326.4 198.1 326.66 197.99 329.39 196.98 332.39 195.77 334.52 194.83 335.38 194.49 338.38 193.2 341.37 191.77 341.55 191.68 344.37 190.35 347.36 188.78 347.84 188.52 350.36 187.19 353.35 185.42 353.46 185.36 356.35 183.63 358.5 182.2 359.35 181.65 362.34 179.55" clip-path="url(#cpNTAuOTd8Mzc3LjE3fDM0OS40NXw1LjQ4)" style="stroke-width:1.07;stroke:#ebebeb;stroke-linecap:butt"/><polyline points="362.34 48.93 359.82 46.38 359.35 45.93 356.35 43.32 356.22 43.22 353.35 41.02 351.95 40.07 350.36 39.01 347.36 37.26 346.68 36.91 344.37 35.71 341.37 34.39 339.69 33.75 338.38 33.24 335.38 32.24 332.39 31.42 329.39 30.75 328.54 30.59 326.4 30.18 323.4 29.74 320.41 29.42 317.41 29.21 314.41 29.11 311.42 29.11 308.42 29.22 305.43 29.43 302.43 29.73 299.44 30.14 296.83 30.59 296.44 30.65 293.45 31.22 290.45 31.9 287.46 32.69 284.46 33.6 284.03 33.75 281.47 34.57 278.47 35.65 275.47 36.87 275.4 36.91 272.48 38.14 269.48 39.54 268.44 40.07 266.49 41.02 263.49 42.62 262.42 43.22 260.5 44.29 257.5 46.08 257.02 46.38 254.51 47.92 252.04 49.54 251.51 49.88 248.52 51.9 247.39 52.7 245.52 54.01 243.03 55.86 242.53 56.23 239.53 58.52 238.91 59.02 236.54 60.92 235.03 62.18 233.54 63.45 231.41 65.33 230.54 66.13 228.05 68.49 227.55 68.99 224.95 71.65 224.55 72.08 222.12 74.81 221.56 75.49 219.55 77.97 218.56 79.31 217.25 81.13 215.57 83.74 215.22 84.29 213.41 87.44 212.57 89.13 211.84 90.6 210.48 93.76 209.58 96.27 209.34 96.92 208.35 100.08 207.56 103.24 206.94 106.4 206.58 108.75 206.45 109.55 206.08 112.71 205.83 115.87 205.7 119.03 205.66 122.19 205.71 125.35 205.84 128.5 206.04 131.66 206.31 134.82 206.58 137.48 206.63 137.98 206.99 141.14 207.4 144.3 207.86 147.46 208.39 150.61 208.98 153.77 209.58 156.63 209.64 156.93 210.35 160.09 211.17 163.25 212.13 166.41 212.57 167.7 213.23 169.57 214.54 172.72 215.57 174.82 216.12 175.88 218.05 179.04 218.56 179.76 220.47 182.2 221.56 183.4 223.56 185.36 224.55 186.22 227.55 188.46 227.63 188.52 230.54 190.29 233.29 191.68 233.54 191.79 236.54 193.05 239.53 194.09 242.12 194.83 242.53 194.95 245.52 195.67 248.52 196.26 251.51 196.72 254.51 197.07 257.5 197.33 260.5 197.49 263.49 197.58 266.49 197.58 269.48 197.52 272.48 197.39 275.47 197.19 278.47 196.93 281.47 196.61 284.46 196.23 287.46 195.78 290.45 195.28 292.78 194.83 293.45 194.72 296.44 194.15 299.44 193.52 302.43 192.82 305.43 192.05 306.79 191.68 308.42 191.26 311.42 190.44 314.41 189.54 317.41 188.56 317.52 188.52 320.41 187.58 323.4 186.52 326.36 185.36 326.4 185.34 329.39 184.18 332.39 182.88 333.85 182.2 335.38 181.52 338.38 180.07 340.31 179.04 341.37 178.49 344.37 176.83 345.93 175.88 347.36 175.02 350.36 173.06 350.85 172.72 353.35 170.97 355.2 169.57 356.35 168.66 359.03 166.41 359.35 166.13 362.34 163.34" clip-path="url(#cpNTAuOTd8Mzc3LjE3fDM0OS40NXw1LjQ4)" style="stroke-width:1.07;stroke:#ebebeb;stroke-linecap:butt"/><polyline points="126.44 333.81 128.7 332.48 131.44 330.65 131.7 330.48 134.69 328.27 135.66 327.49 137.69 325.8 139.32 324.33 140.68 323.05 142.55 321.18 143.68 319.98 145.44 318.02 146.67 316.54 148.03 314.86 149.67 312.66 150.38 311.7 152.5 308.54 152.66 308.27 154.45 305.38 155.66 303.2 156.21 302.23 157.81 299.07 158.66 297.2 159.26 295.91 160.57 292.75 161.65 289.76 161.72 289.59 162.78 286.43 163.68 283.27 164.44 280.12 164.65 279.07 165.1 276.96 165.64 273.8 166.07 270.64 166.37 267.48 166.57 264.32 166.68 261.16 166.69 258.01 166.62 254.85 166.48 251.69 166.26 248.53 165.98 245.37 165.62 242.21 165.19 239.05 164.68 235.9 164.65 235.72 164.11 232.74 163.42 229.58 162.59 226.42 161.65 223.49 161.58 223.26 160.4 220.1 158.91 216.94 158.66 216.48 157.12 213.79 155.66 211.67 154.89 210.63 152.66 208.04 152.13 207.47 149.67 205.15 148.68 204.31 146.67 202.77 144.27 201.15 143.68 200.78 140.68 199.09 138.39 197.99 137.69 197.67 134.69 196.45 131.7 195.44 129.51 194.83 128.7 194.61 125.71 193.93 122.71 193.4 119.72 193.03 116.72 192.79 113.72 192.68 110.73 192.7 107.73 192.85 104.74 193.11 101.74 193.49 98.75 194 95.75 194.64 94.98 194.83 92.76 195.37 89.76 196.22 86.77 197.22 84.75 197.99 83.77 198.35 80.78 199.6 77.78 201.04 77.57 201.15 74.79 202.6 71.9 204.31 71.79 204.38 68.79 206.32 67.21 207.47 65.8 208.51" clip-path="url(#cpNTAuOTd8Mzc3LjE3fDM0OS40NXw1LjQ4)" style="stroke-width:1.07;stroke:#ebebeb;stroke-linecap:butt"/><polyline points="362.34 66.7 361.46 65.33 359.35 62.39 359.18 62.18 356.58 59.02 356.35 58.76 353.56 55.86 353.35 55.65 350.36 52.97 350.02 52.7 347.36 50.64 345.75 49.54 344.37 48.63 341.37 46.89 340.38 46.38 338.38 45.37 335.38 44.08 333.03 43.22 332.39 42.99 329.39 42.05 326.4 41.29 323.4 40.69 320.41 40.24 318.72 40.07 317.41 39.92 314.41 39.72 311.42 39.65 308.42 39.7 305.43 39.87 303.41 40.07 302.43 40.15 299.44 40.54 296.44 41.04 293.45 41.65 290.45 42.39 287.55 43.22 287.46 43.25 284.46 44.18 281.47 45.24 278.61 46.38 278.47 46.44 275.47 47.69 272.48 49.09 271.59 49.54 269.48 50.58 266.49 52.19 265.59 52.7 263.49 53.88 260.5 55.71 260.26 55.86 257.5 57.59 255.4 59.02 254.51 59.62 251.51 61.74 250.92 62.18 248.52 63.97 246.78 65.33 245.52 66.34 242.95 68.49 242.53 68.86 239.53 71.55 239.42 71.65 236.54 74.45 236.18 74.81 233.54 77.63 233.23 77.97 230.58 81.13 230.54 81.17 228.19 84.29 227.55 85.24 226.08 87.44 224.55 90.07 224.25 90.6 222.64 93.76 221.56 96.28 221.28 96.92 220.12 100.08 219.18 103.24 218.56 105.84 218.43 106.4 217.83 109.55 217.4 112.71 217.12 115.87 216.99 119.03 216.98 122.19 217.09 125.35 217.32 128.5 217.65 131.66 218.1 134.82 218.56 137.49 218.65 137.98 219.28 141.14 220.02 144.3 220.89 147.46 221.56 149.58 221.88 150.61 223 153.77 224.3 156.93 224.55 157.48 225.78 160.09 227.51 163.25 227.55 163.32 229.51 166.41 230.54 167.83 231.91 169.57 233.54 171.42 234.8 172.72 236.54 174.34 238.41 175.88 239.53 176.74 242.53 178.73 243.06 179.04 245.52 180.4 248.52 181.79 249.55 182.2 251.51 182.96 254.51 183.93 257.5 184.72 260.5 185.35 260.53 185.36 263.49 185.87 266.49 186.27 269.48 186.54 272.48 186.71 275.47 186.79 278.47 186.77 281.47 186.67 284.46 186.49 287.46 186.22 290.45 185.88 293.45 185.47 294.12 185.36 296.44 185.01 299.44 184.49 302.43 183.89 305.43 183.22 308.42 182.47 309.39 182.2 311.42 181.67 314.41 180.82 317.41 179.87 319.76 179.04 320.41 178.83 323.4 177.75 326.4 176.55 327.92 175.88 329.39 175.26 332.39 173.88 334.65 172.72 335.38 172.36 338.38 170.74 340.35 169.57 341.37 168.96 344.37 167.02 345.25 166.41 347.36 164.9 349.5 163.25 350.36 162.55 353.2 160.09 353.35 159.95 356.35 157.03 356.44 156.93 359.3 153.77 359.35 153.71 361.81 150.61 362.34 149.86" clip-path="url(#cpNTAuOTd8Mzc3LjE3fDM0OS40NXw1LjQ4)" style="stroke-width:1.07;stroke:#ebebeb;stroke-linecap:butt"/><polyline points="65.8 322.59 68.19 324.33 68.79 324.76 71.79 326.58 73.55 327.49 74.79 328.11 77.78 329.38 80.78 330.4 81.69 330.65 83.77 331.22 86.77 331.82 89.76 332.23 92.76 332.45 95.75 332.48 98.75 332.33 101.74 332.01 104.74 331.5 107.73 330.79 108.22 330.65 110.73 329.92 113.72 328.86 116.72 327.57 116.87 327.49 119.72 326.09 122.71 324.35 122.74 324.33 125.71 322.39 127.35 321.18 128.7 320.14 131.2 318.02 131.7 317.57 134.5 314.86 134.69 314.66 137.37 311.7 137.69 311.32 139.91 308.54 140.68 307.47 142.15 305.38 143.68 302.96 144.14 302.23 145.91 299.07 146.67 297.53 147.48 295.91 148.86 292.75 149.67 290.62 150.07 289.59 151.13 286.43 152.01 283.27 152.66 280.43 152.74 280.12 153.35 276.96 153.82 273.8 154.15 270.64 154.34 267.48 154.42 264.32 154.38 261.16 154.23 258.01 153.97 254.85 153.6 251.69 153.12 248.53 152.66 246.07 152.54 245.37 151.85 242.21 151.03 239.05 150.05 235.9 149.67 234.82 148.92 232.74 147.58 229.58 146.67 227.76 145.98 226.42 144.07 223.26 143.68 222.69 141.75 220.1 140.68 218.84 138.89 216.94 137.69 215.8 135.26 213.79 134.69 213.35 131.7 211.36 130.4 210.63 128.7 209.73 125.71 208.41 123.04 207.47 122.71 207.36 119.72 206.52 116.72 205.91 113.72 205.49 110.73 205.25 107.73 205.17 104.74 205.27 101.74 205.51 98.75 205.92 95.75 206.48 92.76 207.22 91.91 207.47 89.76 208.09 86.77 209.14 83.77 210.39 83.26 210.63 80.78 211.8 77.78 213.44 77.22 213.79 74.79 215.3 72.47 216.94 71.79 217.44 68.79 219.87 68.53 220.1 65.8 222.65" clip-path="url(#cpNTAuOTd8Mzc3LjE3fDM0OS40NXw1LjQ4)" style="stroke-width:1.07;stroke:#ebebeb;stroke-linecap:butt"/><polyline points="362.34 85.4 361.94 84.29 360.65 81.13 359.35 78.38 359.14 77.97 357.42 74.81 356.35 73.07 355.43 71.65 353.35 68.78 353.13 68.49 350.47 65.33 350.36 65.22 347.36 62.21 347.33 62.18 344.37 59.64 343.55 59.02 341.37 57.44 338.87 55.86 338.38 55.56 335.38 53.94 332.65 52.7 332.39 52.58 329.39 51.41 326.4 50.46 323.4 49.71 322.57 49.54 320.41 49.1 317.41 48.65 314.41 48.36 311.42 48.22 308.42 48.21 305.43 48.34 302.43 48.59 299.44 48.99 296.44 49.51 296.29 49.54 293.45 50.13 290.45 50.88 287.46 51.76 284.68 52.7 284.46 52.77 281.47 53.87 278.47 55.11 276.83 55.86 275.47 56.46 272.48 57.93 270.44 59.02 269.48 59.52 266.49 61.22 264.93 62.18 263.49 63.05 260.5 65.01 260.02 65.33 257.5 67.08 255.58 68.49 254.51 69.3 251.55 71.65 251.51 71.69 248.52 74.24 247.88 74.81 245.52 77.02 244.55 77.97 242.53 80.07 241.54 81.13 239.53 83.48 238.86 84.29 236.54 87.37 236.48 87.44 234.37 90.6 233.54 92.04 232.55 93.76 230.99 96.92 230.54 97.99 229.67 100.08 228.57 103.24 227.71 106.4 227.55 107.15 227.03 109.55 226.53 112.71 226.22 115.87 226.07 119.03 226.08 122.19 226.24 125.35 226.55 128.5 227 131.66 227.55 134.59 227.59 134.82 228.31 137.98 229.18 141.14 230.23 144.3 230.54 145.13 231.44 147.46 232.85 150.61 233.54 151.98 234.49 153.77 236.4 156.93 236.54 157.13 238.64 160.09 239.53 161.2 241.32 163.25 242.53 164.5 244.57 166.41 245.52 167.22 248.52 169.48 248.64 169.57 251.51 171.38 254.04 172.72 254.51 172.96 257.5 174.3 260.5 175.4 262.07 175.88 263.49 176.31 266.49 177.06 269.48 177.64 272.48 178.09 275.47 178.4 278.47 178.6 281.47 178.69 284.46 178.67 287.46 178.57 290.45 178.38 293.45 178.09 296.44 177.73 299.44 177.28 302.43 176.74 305.43 176.11 306.36 175.88 308.42 175.41 311.42 174.64 314.41 173.77 317.41 172.79 317.59 172.72 320.41 171.75 323.4 170.59 325.78 169.57 326.4 169.3 329.39 167.92 332.33 166.41 332.39 166.38 335.38 164.71 337.75 163.25 338.38 162.85 341.37 160.81 342.35 160.09 344.37 158.53 346.29 156.93 347.36 155.98 349.69 153.77 350.36 153.08 352.63 150.61 353.35 149.75 355.19 147.46 356.35 145.83 357.4 144.3 359.3 141.14 359.35 141.06 360.96 137.98 362.33 134.82 362.34 134.8" clip-path="url(#cpNTAuOTd8Mzc3LjE3fDM0OS40NXw1LjQ4)" style="stroke-width:1.07;stroke:#ebebeb;stroke-linecap:butt"/><polyline points="65.8 310.51 66.9 311.7 68.79 313.56 70.31 314.86 71.79 316.04 74.71 318.02 74.79 318.07 77.78 319.71 80.78 321.04 81.17 321.18 83.77 322.07 86.77 322.84 89.76 323.36 92.76 323.64 95.75 323.71 98.75 323.55 101.74 323.17 104.74 322.58 107.73 321.76 109.39 321.18 110.73 320.7 113.72 319.4 116.39 318.02 116.72 317.84 119.72 315.99 121.32 314.86 122.71 313.83 125.26 311.7 125.71 311.3 128.52 308.54 128.7 308.35 131.29 305.38 131.7 304.86 133.67 302.23 134.69 300.69 135.73 299.07 137.52 295.91 137.69 295.57 139.07 292.75 140.39 289.59 140.68 288.76 141.52 286.43 142.45 283.27 143.21 280.12 143.68 277.57 143.79 276.96 144.23 273.8 144.51 270.64 144.64 267.48 144.63 264.32 144.47 261.16 144.18 258.01 143.74 254.85 143.68 254.48 143.18 251.69 142.47 248.53 141.6 245.37 140.68 242.62 140.54 242.21 139.29 239.05 137.8 235.9 137.69 235.69 136 232.74 134.69 230.78 133.81 229.58 131.7 227.05 131.1 226.42 128.7 224.15 127.6 223.26 125.71 221.86 122.83 220.1 122.71 220.04 119.72 218.61 116.72 217.51 114.66 216.94 113.72 216.7 110.73 216.14 107.73 215.82 104.74 215.72 101.74 215.83 98.75 216.14 95.75 216.66 94.59 216.94 92.76 217.38 89.76 218.31 86.77 219.47 85.39 220.1 83.77 220.86 80.78 222.51 79.59 223.26 77.78 224.45 75.16 226.42 74.79 226.71 71.79 229.37 71.57 229.58 68.79 232.48 68.57 232.74 66.02 235.9 65.8 236.19" clip-path="url(#cpNTAuOTd8Mzc3LjE3fDM0OS40NXw1LjQ4)" style="stroke-width:1.07;stroke:#ebebeb;stroke-linecap:butt"/><polyline points="308.42 55.64 305.43 55.72 303.65 55.86 302.43 55.95 299.44 56.31 296.44 56.81 293.45 57.45 290.45 58.23 287.88 59.02 287.46 59.14 284.46 60.17 281.47 61.34 279.56 62.18 278.47 62.64 275.47 64.07 273.06 65.33 272.48 65.64 269.48 67.33 267.59 68.49 266.49 69.17 263.49 71.16 262.8 71.65 260.5 73.31 258.55 74.81 257.5 75.65 254.76 77.97 254.51 78.19 251.51 80.98 251.36 81.13 248.52 84.09 248.34 84.29 245.66 87.44 245.52 87.62 243.3 90.6 242.53 91.78 241.25 93.76 239.53 96.86 239.5 96.92 238 100.08 236.78 103.24 236.54 104.02 235.78 106.4 235.02 109.55 234.47 112.71 234.12 115.87 233.97 119.03 234 122.19 234.2 125.35 234.58 128.5 235.14 131.66 235.88 134.82 236.54 137.07 236.8 137.98 237.92 141.14 239.26 144.3 239.53 144.85 240.85 147.46 242.53 150.29 242.73 150.61 244.95 153.77 245.52 154.49 247.62 156.93 248.52 157.87 250.88 160.09 251.51 160.64 254.51 162.93 254.97 163.25 257.5 164.85 260.41 166.41 260.5 166.45 263.49 167.79 266.49 168.89 268.74 169.57 269.48 169.79 272.48 170.51 275.47 171.07 278.47 171.48 281.47 171.75 284.46 171.9 287.46 171.93 290.45 171.86 293.45 171.68 296.44 171.39 299.44 171.01 302.43 170.53 305.43 169.94 307.04 169.57 308.42 169.26 311.42 168.49 314.41 167.6 317.41 166.59 317.91 166.41 320.41 165.49 323.4 164.25 325.56 163.25 326.4 162.86 329.39 161.33 331.57 160.09 332.39 159.62 335.38 157.71 336.5 156.93 338.38 155.57 340.63 153.77 341.37 153.15 344.14 150.61 344.37 150.39 347.14 147.46 347.36 147.19 349.71 144.3 350.36 143.39 351.91 141.14 353.35 138.71 353.77 137.98 355.36 134.82 356.35 132.46 356.68 131.66 357.78 128.5 358.65 125.35 359.31 122.19 359.35 121.97 359.81 119.03 360.13 115.87 360.28 112.71 360.27 109.55 360.1 106.4 359.78 103.24 359.35 100.4 359.3 100.08 358.67 96.92 357.87 93.76 356.89 90.6 356.35 89.12 355.72 87.44 354.34 84.29 353.35 82.32 352.72 81.13 350.83 77.97 350.36 77.26 348.62 74.81 347.36 73.22 346.01 71.65 344.37 69.91 342.9 68.49 341.37 67.13 339.11 65.33 338.38 64.79 335.38 62.8 334.28 62.18 332.39 61.13 329.39 59.73 327.57 59.02 326.4 58.57 323.4 57.61 320.41 56.87 317.41 56.31 314.41 55.93 313.41 55.86 311.42 55.71 308.42 55.64" clip-path="url(#cpNTAuOTd8Mzc3LjE3fDM0OS40NXw1LjQ4)" style="stroke-width:1.07;stroke:#ebebeb;stroke-linecap:butt"/><polyline points="65.8 295.93 67.53 299.07 68.79 301 69.67 302.23 71.79 304.77 72.37 305.38 74.79 307.66 75.88 308.54 77.78 309.93 80.74 311.7 80.78 311.72 83.77 313.08 86.77 314.09 89.76 314.78 90.36 314.86 92.76 315.17 95.75 315.27 98.75 315.11 100.49 314.86 101.74 314.67 104.74 313.96 107.73 312.96 110.68 311.7 110.73 311.68 113.72 310.05 116.04 308.54 116.72 308.07 119.72 305.68 120.04 305.38 122.71 302.77 123.22 302.23 125.71 299.23 125.84 299.07 128.02 295.91 128.7 294.77 129.85 292.75 131.39 289.59 131.7 288.85 132.67 286.43 133.71 283.27 134.53 280.12 134.69 279.28 135.15 276.96 135.58 273.8 135.82 270.64 135.89 267.48 135.78 264.32 135.5 261.16 135.05 258.01 134.69 256.21 134.41 254.85 133.58 251.69 132.55 248.53 131.7 246.39 131.26 245.37 129.69 242.21 128.7 240.54 127.74 239.05 125.71 236.36 125.31 235.9 122.71 233.24 122.13 232.74 119.72 230.86 117.68 229.58 116.72 229.03 113.72 227.66 110.73 226.67 109.6 226.42 107.73 226.02 104.74 225.68 101.74 225.62 98.75 225.82 95.75 226.3 95.25 226.42 92.76 227.04 89.76 228.05 86.77 229.36 86.35 229.58 83.77 230.99 81.11 232.74 80.78 232.97 77.78 235.37 77.21 235.9 74.79 238.28 74.09 239.05 71.79 241.82 71.5 242.21 69.34 245.37 68.79 246.26 67.51 248.53 65.96 251.69 65.8 252.07" clip-path="url(#cpNTAuOTd8Mzc3LjE3fDM0OS40NXw1LjQ4)" style="stroke-width:1.07;stroke:#ebebeb;stroke-linecap:butt"/><polyline points="317.41 63.3 314.41 62.8 311.42 62.49 308.42 62.36 305.43 62.39 302.43 62.58 299.44 62.92 296.44 63.42 293.45 64.06 290.45 64.87 288.97 65.33 287.46 65.81 284.46 66.88 281.47 68.12 280.66 68.49 278.47 69.5 275.47 71.03 274.36 71.65 272.48 72.71 269.48 74.57 269.12 74.81 266.49 76.6 264.63 77.97 263.49 78.84 260.7 81.13 260.5 81.3 257.5 84.04 257.25 84.29 254.51 87.13 254.22 87.44 251.57 90.6 251.51 90.68 249.27 93.76 248.52 94.96 247.3 96.92 245.65 100.08 245.52 100.37 244.27 103.24 243.17 106.4 242.53 108.78 242.32 109.55 241.7 112.71 241.32 115.87 241.16 119.03 241.21 122.19 241.47 125.35 241.94 128.5 242.53 131.2 242.63 131.66 243.53 134.82 244.67 137.98 245.52 139.93 246.07 141.14 247.77 144.3 248.52 145.49 249.82 147.46 251.51 149.66 252.31 150.61 254.51 152.96 255.35 153.77 257.5 155.64 259.18 156.93 260.5 157.86 263.49 159.69 264.25 160.09 266.49 161.21 269.48 162.45 271.82 163.25 272.48 163.47 275.47 164.28 278.47 164.91 281.47 165.37 284.46 165.68 287.46 165.85 290.45 165.89 293.45 165.81 296.44 165.6 299.44 165.28 302.43 164.85 305.43 164.29 308.42 163.61 309.79 163.25 311.42 162.82 314.41 161.91 317.41 160.85 319.33 160.09 320.41 159.66 323.4 158.31 326.1 156.93 326.4 156.78 329.39 155.05 331.39 153.77 332.39 153.1 335.38 150.88 335.71 150.61 338.38 148.32 339.3 147.46 341.37 145.34 342.32 144.3 344.37 141.79 344.88 141.14 347.03 137.98 347.36 137.41 348.83 134.82 350.33 131.66 350.36 131.58 351.56 128.5 352.54 125.35 353.28 122.19 353.35 121.76 353.82 119.03 354.17 115.87 354.32 112.71 354.28 109.55 354.07 106.4 353.67 103.24 353.35 101.51 353.09 100.08 352.32 96.92 351.35 93.76 350.36 91.12 350.16 90.6 348.72 87.44 347.36 84.92 347 84.29 344.96 81.13 344.37 80.32 342.51 77.97 341.37 76.67 339.56 74.81 338.38 73.69 335.93 71.65 335.38 71.22 332.39 69.17 331.22 68.49 329.39 67.46 326.4 66.06 324.52 65.33 323.4 64.91 320.41 63.99 317.41 63.3" clip-path="url(#cpNTAuOTd8Mzc3LjE3fDM0OS40NXw1LjQ4)" style="stroke-width:1.07;stroke:#ebebeb;stroke-linecap:butt"/><polyline points="101.74 235.73 98.75 235.8 98.05 235.9 95.75 236.23 92.76 237.02 89.76 238.19 88.07 239.05 86.77 239.76 83.77 241.8 83.26 242.21 80.78 244.41 79.84 245.37 77.78 247.73 77.17 248.53 75.02 251.69 74.79 252.09 73.31 254.85 71.9 258.01 71.79 258.29 70.81 261.16 69.96 264.32 69.35 267.48 68.98 270.64 68.83 273.8 68.92 276.96 69.26 280.12 69.85 283.27 70.71 286.43 71.79 289.39 71.87 289.59 73.46 292.75 74.79 294.89 75.5 295.91 77.78 298.63 78.22 299.07 80.78 301.31 82.08 302.23 83.77 303.29 86.77 304.73 88.73 305.38 89.76 305.7 92.76 306.25 95.75 306.44 98.75 306.27 101.74 305.75 103.03 305.38 104.74 304.86 107.73 303.58 110.18 302.23 110.73 301.9 113.72 299.7 114.46 299.07 116.72 296.89 117.62 295.91 119.72 293.29 120.1 292.75 122.07 289.59 122.71 288.37 123.65 286.43 124.9 283.27 125.71 280.66 125.87 280.12 126.55 276.96 127 273.8 127.22 270.64 127.21 267.48 126.98 264.32 126.53 261.16 125.84 258.01 125.71 257.54 124.86 254.85 123.59 251.69 122.71 249.9 121.95 248.53 119.84 245.37 119.72 245.21 116.99 242.21 116.72 241.95 113.72 239.61 112.81 239.05 110.73 237.92 107.73 236.76 104.74 236.04 103.38 235.9 101.74 235.73" clip-path="url(#cpNTAuOTd8Mzc3LjE3fDM0OS40NXw1LjQ4)" style="stroke-width:1.07;stroke:#ebebeb;stroke-linecap:butt"/><polyline points="320.41 70.76 317.41 69.91 314.41 69.28 311.42 68.87 308.42 68.65 305.43 68.63 302.43 68.78 299.44 69.1 296.44 69.59 293.45 70.25 290.45 71.07 288.7 71.65 287.46 72.06 284.46 73.21 281.47 74.52 280.88 74.81 278.47 76.01 275.47 77.68 275 77.97 272.48 79.55 270.19 81.13 269.48 81.64 266.49 83.97 266.1 84.29 263.49 86.6 262.6 87.44 260.5 89.6 259.58 90.6 257.5 93.1 256.98 93.76 254.77 96.92 254.51 97.35 252.91 100.08 251.51 102.95 251.38 103.24 250.14 106.4 249.2 109.55 248.53 112.71 248.52 112.84 248.12 115.87 247.96 119.03 248.04 122.19 248.37 125.35 248.52 126.16 248.95 128.5 249.78 131.66 250.89 134.82 251.51 136.24 252.31 137.98 254.07 141.14 254.51 141.81 256.25 144.3 257.5 145.83 258.96 147.46 260.5 148.97 262.38 150.61 263.49 151.5 266.49 153.56 266.85 153.77 269.48 155.23 272.48 156.61 273.33 156.93 275.47 157.71 278.47 158.59 281.47 159.26 284.46 159.75 287.46 160.07 287.92 160.09 290.45 160.23 293.45 160.24 296.44 160.11 296.65 160.09 299.44 159.84 302.43 159.44 305.43 158.91 308.42 158.23 311.42 157.41 312.9 156.93 314.41 156.44 317.41 155.31 320.41 154 320.87 153.77 323.4 152.49 326.4 150.77 326.63 150.61 329.39 148.77 331.15 147.46 332.39 146.46 334.83 144.3 335.38 143.76 337.86 141.14 338.38 140.52 340.37 137.98 341.37 136.51 342.46 134.82 344.18 131.66 344.37 131.24 345.57 128.5 346.67 125.35 347.36 122.74 347.51 122.19 348.1 119.03 348.47 115.87 348.62 112.71 348.56 109.55 348.28 106.4 347.79 103.24 347.36 101.29 347.09 100.08 346.15 96.92 344.96 93.76 344.37 92.46 343.48 90.6 341.68 87.44 341.37 86.97 339.48 84.29 338.38 82.91 336.78 81.13 335.38 79.71 333.43 77.97 332.39 77.12 329.39 75 329.08 74.81 326.4 73.28 323.4 71.88 322.81 71.65 320.41 70.76" clip-path="url(#cpNTAuOTd8Mzc3LjE3fDM0OS40NXw1LjQ4)" style="stroke-width:1.07;stroke:#ebebeb;stroke-linecap:butt"/><polyline points="104.74 248.29 101.74 247.54 98.75 247.36 95.75 247.73 93.07 248.53 92.76 248.63 89.76 250.2 87.69 251.69 86.77 252.44 84.44 254.85 83.77 255.65 82.16 258.01 80.78 260.47 80.44 261.16 79.24 264.32 78.39 267.48 77.88 270.64 77.78 272.54 77.72 273.8 77.78 274.84 77.91 276.96 78.49 280.12 79.46 283.27 80.78 286.26 80.87 286.43 83.06 289.59 83.77 290.41 86.38 292.75 86.77 293.04 89.76 294.67 92.76 295.66 94.67 295.91 95.75 296.03 98 295.91 98.75 295.86 101.74 295.12 104.74 293.84 106.53 292.75 107.73 291.91 110.31 289.59 110.73 289.14 112.82 286.43 113.72 284.99 114.66 283.27 115.98 280.12 116.72 277.64 116.9 276.96 117.42 273.8 117.61 270.64 117.48 267.48 117.02 264.32 116.72 263.11 116.16 261.16 114.86 258.01 113.72 255.93 113 254.85 110.73 252.14 110.23 251.69 107.73 249.79 105.28 248.53 104.74 248.29" clip-path="url(#cpNTAuOTd8Mzc3LjE3fDM0OS40NXw1LjQ4)" style="stroke-width:1.07;stroke:#ebebeb;stroke-linecap:butt"/><polyline points="308.42 74.74 305.43 74.65 302.43 74.75 301.89 74.81 299.44 75.06 296.44 75.55 293.45 76.23 290.45 77.09 287.93 77.97 287.46 78.14 284.46 79.38 281.47 80.82 280.89 81.13 278.47 82.48 275.58 84.29 275.47 84.36 272.48 86.52 271.3 87.44 269.48 88.99 267.72 90.6 266.49 91.85 264.71 93.76 263.49 95.24 262.18 96.92 260.5 99.41 260.07 100.08 258.35 103.24 257.5 105.15 256.97 106.4 255.92 109.55 255.18 112.71 254.74 115.87 254.59 119.03 254.72 122.19 255.14 125.35 255.86 128.5 256.89 131.66 257.5 133.09 258.28 134.82 260.07 137.98 260.5 138.61 262.36 141.14 263.49 142.44 265.29 144.3 266.49 145.38 269.12 147.46 269.48 147.71 272.48 149.56 274.53 150.61 275.47 151.06 278.47 152.24 281.47 153.17 284.04 153.77 284.46 153.87 287.46 154.35 290.45 154.65 293.45 154.77 296.44 154.72 299.44 154.51 302.43 154.14 304.49 153.77 305.43 153.6 308.42 152.91 311.42 152.04 314.41 150.99 315.33 150.61 317.41 149.73 320.41 148.26 321.85 147.46 323.4 146.53 326.4 144.51 326.68 144.3 329.39 142.09 330.45 141.14 332.39 139.19 333.49 137.98 335.38 135.61 335.97 134.82 337.97 131.66 338.38 130.89 339.57 128.5 340.83 125.35 341.37 123.57 341.78 122.19 342.44 119.03 342.84 115.87 342.99 112.71 342.88 109.55 342.53 106.4 341.93 103.24 341.37 101.2 341.05 100.08 339.88 96.92 338.39 93.76 338.38 93.73 336.5 90.6 335.38 89.03 334.13 87.44 332.39 85.5 331.14 84.29 329.39 82.75 327.22 81.13 326.4 80.56 323.4 78.82 321.59 77.97 320.41 77.44 317.41 76.38 314.41 75.59 311.42 75.05 309.1 74.81 308.42 74.74" clip-path="url(#cpNTAuOTd8Mzc3LjE3fDM0OS40NXw1LjQ4)" style="stroke-width:1.07;stroke:#ebebeb;stroke-linecap:butt"/><polyline points="98.75 269.51 99.57 270.64 99.48 273.8 98.75 274.79 95.75 274.8 95.1 273.8 95.25 270.64 95.75 269.9 98.75 269.51" clip-path="url(#cpNTAuOTd8Mzc3LjE3fDM0OS40NXw1LjQ4)" style="stroke-width:1.07;stroke:#ebebeb;stroke-linecap:butt"/><polyline points="308.42 80.84 305.43 80.66 302.43 80.72 299.44 80.99 298.63 81.13 296.44 81.49 293.45 82.21 290.45 83.14 287.46 84.28 287.46 84.29 284.46 85.69 281.47 87.31 281.25 87.44 278.47 89.25 276.62 90.6 275.47 91.51 272.9 93.76 272.48 94.17 269.89 96.92 269.48 97.41 267.43 100.08 266.49 101.53 265.44 103.24 263.88 106.4 263.49 107.4 262.7 109.55 261.89 112.71 261.42 115.87 261.28 119.03 261.48 122.19 262.03 125.35 262.95 128.5 263.49 129.85 264.28 131.66 266.08 134.82 266.49 135.41 268.48 137.98 269.48 139.06 271.68 141.14 272.48 141.79 275.47 143.9 276.15 144.3 278.47 145.53 281.47 146.8 283.41 147.46 284.46 147.78 287.46 148.47 290.45 148.93 293.45 149.18 296.44 149.22 299.44 149.07 302.43 148.73 305.43 148.19 308.42 147.46 308.45 147.46 311.42 146.5 314.41 145.32 316.61 144.3 317.41 143.9 320.41 142.16 321.94 141.14 323.4 140.07 325.91 137.98 326.4 137.53 328.99 134.82 329.39 134.34 331.41 131.66 332.39 130.11 333.32 128.5 334.8 125.35 335.38 123.7 335.89 122.19 336.64 119.03 337.08 115.87 337.21 112.71 337.05 109.55 336.59 106.4 335.82 103.24 335.38 101.94 334.7 100.08 333.19 96.92 332.39 95.55 331.21 93.76 329.39 91.44 328.64 90.6 326.4 88.43 325.19 87.44 323.4 86.13 320.41 84.34 320.3 84.29 317.41 82.99 314.41 81.98 311.42 81.27 310.46 81.13 308.42 80.84" clip-path="url(#cpNTAuOTd8Mzc3LjE3fDM0OS40NXw1LjQ4)" style="stroke-width:1.07;stroke:#ebebeb;stroke-linecap:butt"/><polyline points="308.42 87.24 305.43 86.94 302.43 86.93 299.44 87.18 297.9 87.44 296.44 87.7 293.45 88.5 290.45 89.54 288.02 90.6 287.46 90.86 284.46 92.53 282.55 93.76 281.47 94.54 278.53 96.92 278.47 96.97 275.47 100.05 275.45 100.08 273.06 103.24 272.48 104.18 271.22 106.4 269.84 109.55 269.48 110.74 268.92 112.71 268.42 115.87 268.33 119.03 268.64 122.19 269.38 125.35 269.48 125.62 270.64 128.5 272.44 131.66 272.48 131.72 275.02 134.82 275.47 135.27 278.47 137.82 278.7 137.98 281.47 139.67 284.46 141.1 284.56 141.14 287.46 142.1 290.45 142.79 293.45 143.22 296.44 143.38 299.44 143.29 302.43 142.97 305.43 142.4 308.42 141.6 309.74 141.14 311.42 140.51 314.41 139.1 316.41 137.98 317.41 137.36 320.41 135.16 320.81 134.82 323.4 132.32 324 131.66 326.4 128.56 326.43 128.5 328.22 125.35 329.39 122.59 329.55 122.19 330.42 119.03 330.91 115.87 331.03 112.71 330.78 109.55 330.15 106.4 329.39 104.01 329.12 103.24 327.57 100.08 326.4 98.22 325.45 96.92 323.4 94.61 322.5 93.76 320.41 92.07 318.15 90.6 317.41 90.17 314.41 88.82 311.42 87.85 309.49 87.44 308.42 87.24" clip-path="url(#cpNTAuOTd8Mzc3LjE3fDM0OS40NXw1LjQ4)" style="stroke-width:1.07;stroke:#ebebeb;stroke-linecap:butt"/><polyline points="314.41 96.88 311.42 95.46 308.42 94.51 305.43 93.99 302.43 93.86 299.44 94.1 296.44 94.7 293.45 95.62 290.45 96.88 290.38 96.92 287.46 98.66 285.46 100.08 284.46 100.92 282.07 103.24 281.47 103.96 279.65 106.4 278.47 108.5 277.93 109.55 276.84 112.71 276.28 115.87 276.26 119.03 276.8 122.19 277.95 125.35 278.47 126.28 279.9 128.5 281.47 130.27 282.95 131.66 284.46 132.78 287.46 134.51 288.19 134.82 290.45 135.64 293.45 136.34 296.44 136.69 299.44 136.71 302.43 136.4 305.43 135.77 308.42 134.83 308.43 134.82 311.42 133.39 314.28 131.66 314.41 131.57 317.41 129 317.9 128.5 320.41 125.38 320.43 125.35 322.12 122.19 323.27 119.03 323.4 118.37 323.84 115.87 323.92 112.71 323.52 109.55 323.4 109.12 322.53 106.4 320.93 103.24 320.41 102.48 318.42 100.08 317.41 99.12 314.47 96.92 314.41 96.88" clip-path="url(#cpNTAuOTd8Mzc3LjE3fDM0OS40NXw1LjQ4)" style="stroke-width:1.07;stroke:#ebebeb;stroke-linecap:butt"/><polyline points="302.43 103 299.44 103.17 299.17 103.24 296.44 104.02 293.45 105.48 292.11 106.4 290.45 107.9 289.01 109.55 287.46 112.29 287.26 112.71 286.6 115.87 286.81 119.03 287.46 120.8 288.1 122.19 290.45 124.88 291.03 125.35 293.45 126.67 296.44 127.61 299.44 127.89 302.43 127.56 305.43 126.64 308.04 125.35 308.42 125.09 311.42 122.36 311.57 122.19 313.38 119.03 314.28 115.87 314.23 112.71 313.17 109.55 311.42 106.97 310.87 106.4 308.42 104.67 305.43 103.42 304.32 103.24 302.43 103" clip-path="url(#cpNTAuOTd8Mzc3LjE3fDM0OS40NXw1LjQ4)" style="stroke-width:1.07;stroke:#ebebeb;stroke-linecap:butt"/><circle cx="235.25" cy="121.41" r="1.95" clip-path="url(#cpNTAuOTd8Mzc3LjE3fDM0OS40NXw1LjQ4)" style="stroke-width:.71;stroke:#c0bba5;fill:#c0bba5"/><circle cx="82.74" cy="268.91" r="1.95" clip-path="url(#cpNTAuOTd8Mzc3LjE3fDM0OS40NXw1LjQ4)" style="stroke-width:.71;stroke:#4c0000;fill:#4c0000"/><circle cx="212.63" cy="150.91" r="1.95" clip-path="url(#cpNTAuOTd8Mzc3LjE3fDM0OS40NXw1LjQ4)" style="stroke-width:.71;stroke:#c0bba5;fill:#c0bba5"/><circle cx="123.67" cy="221.71" r="1.95" clip-path="url(#cpNTAuOTd8Mzc3LjE3fDM0OS40NXw1LjQ4)" style="stroke-width:.71;stroke:#4c0000;fill:#4c0000"/><circle cx="314.3" cy="86.01" r="1.95" clip-path="url(#cpNTAuOTd8Mzc3LjE3fDM0OS40NXw1LjQ4)" style="stroke-width:.71;stroke:#c0bba5;fill:#c0bba5"/><circle cx="174.5" cy="263.01" r="1.95" clip-path="url(#cpNTAuOTd8Mzc3LjE3fDM0OS40NXw1LjQ4)" style="stroke-width:.71;stroke:#4e0102;fill:#4e0102"/><circle cx="328.45" cy="68.31" r="1.95" clip-path="url(#cpNTAuOTd8Mzc3LjE3fDM0OS40NXw1LjQ4)" style="stroke-width:.71;stroke:#c0bba5;fill:#c0bba5"/><circle cx="235.25" cy="86.01" r="1.95" clip-path="url(#cpNTAuOTd8Mzc3LjE3fDM0OS40NXw1LjQ4)" style="stroke-width:.71;stroke:#c0bba5;fill:#c0bba5"/><circle cx="95.45" cy="286.61" r="1.95" clip-path="url(#cpNTAuOTd8Mzc3LjE3fDM0OS40NXw1LjQ4)" style="stroke-width:.71;stroke:#4c0000;fill:#4c0000"/><circle cx="298.8" cy="86.01" r="1.95" clip-path="url(#cpNTAuOTd8Mzc3LjE3fDM0OS40NXw1LjQ4)" style="stroke-width:.71;stroke:#c0bba5;fill:#c0bba5"/><circle cx="85.54" cy="268.91" r="1.95" clip-path="url(#cpNTAuOTd8Mzc3LjE3fDM0OS40NXw1LjQ4)" style="stroke-width:.71;stroke:#4c0000;fill:#4c0000"/><circle cx="262.11" cy="91.91" r="1.95" clip-path="url(#cpNTAuOTd8Mzc3LjE3fDM0OS40NXw1LjQ4)" style="stroke-width:.71;stroke:#c0bba5;fill:#c0bba5"/><circle cx="286.09" cy="127.31" r="1.95" clip-path="url(#cpNTAuOTd8Mzc3LjE3fDM0OS40NXw1LjQ4)" style="stroke-width:.71;stroke:#c0bba5;fill:#c0bba5"/><circle cx="78.51" cy="310.21" r="1.95" clip-path="url(#cpNTAuOTd8Mzc3LjE3fDM0OS40NXw1LjQ4)" style="stroke-width:.71;stroke:#4c0000;fill:#4c0000"/><circle cx="328.45" cy="97.81" r="1.95" clip-path="url(#cpNTAuOTd8Mzc3LjE3fDM0OS40NXw1LjQ4)" style="stroke-width:.71;stroke:#c0bba5;fill:#c0bba5"/><circle cx="113.84" cy="280.71" r="1.95" clip-path="url(#cpNTAuOTd8Mzc3LjE3fDM0OS40NXw1LjQ4)" style="stroke-width:.71;stroke:#4c0000;fill:#4c0000"/><circle cx="78.51" cy="221.71" r="1.95" clip-path="url(#cpNTAuOTd8Mzc3LjE3fDM0OS40NXw1LjQ4)" style="stroke-width:.71;stroke:#4c0000;fill:#4c0000"/><circle cx="336.92" cy="91.91" r="1.95" clip-path="url(#cpNTAuOTd8Mzc3LjE3fDM0OS40NXw1LjQ4)" style="stroke-width:.71;stroke:#c0bba5;fill:#c0bba5"/><circle cx="65.8" cy="280.71" r="1.95" clip-path="url(#cpNTAuOTd8Mzc3LjE3fDM0OS40NXw1LjQ4)" style="stroke-width:.71;stroke:#4c0000;fill:#4c0000"/><circle cx="290.32" cy="121.41" r="1.95" clip-path="url(#cpNTAuOTd8Mzc3LjE3fDM0OS40NXw1LjQ4)" style="stroke-width:.71;stroke:#c0bba5;fill:#c0bba5"/><circle cx="82.74" cy="286.61" r="1.95" clip-path="url(#cpNTAuOTd8Mzc3LjE3fDM0OS40NXw1LjQ4)" style="stroke-width:.71;stroke:#4c0000;fill:#4c0000"/><circle cx="78.51" cy="310.21" r="1.95" clip-path="url(#cpNTAuOTd8Mzc3LjE3fDM0OS40NXw1LjQ4)" style="stroke-width:.71;stroke:#4c0000;fill:#4c0000"/><circle cx="222.54" cy="127.31" r="1.95" clip-path="url(#cpNTAuOTd8Mzc3LjE3fDM0OS40NXw1LjQ4)" style="stroke-width:.71;stroke:#c0bba5;fill:#c0bba5"/><circle cx="190.09" cy="180.41" r="1.95" clip-path="url(#cpNTAuOTd8Mzc3LjE3fDM0OS40NXw1LjQ4)" style="stroke-width:.71;stroke:#c0baa1;fill:#c0baa1"/><circle cx="314.3" cy="150.91" r="1.95" clip-path="url(#cpNTAuOTd8Mzc3LjE3fDM0OS40NXw1LjQ4)" style="stroke-width:.71;stroke:#c0bba5;fill:#c0bba5"/><circle cx="235.25" cy="97.81" r="1.95" clip-path="url(#cpNTAuOTd8Mzc3LjE3fDM0OS40NXw1LjQ4)" style="stroke-width:.71;stroke:#c0bba5;fill:#c0bba5"/><circle cx="96.89" cy="263.01" r="1.95" clip-path="url(#cpNTAuOTd8Mzc3LjE3fDM0OS40NXw1LjQ4)" style="stroke-width:.71;stroke:#4c0000;fill:#4c0000"/><circle cx="276.17" cy="139.11" r="1.95" clip-path="url(#cpNTAuOTd8Mzc3LjE3fDM0OS40NXw1LjQ4)" style="stroke-width:.71;stroke:#c0bba5;fill:#c0bba5"/><circle cx="256.43" cy="127.31" r="1.95" clip-path="url(#cpNTAuOTd8Mzc3LjE3fDM0OS40NXw1LjQ4)" style="stroke-width:.71;stroke:#c0bba5;fill:#c0bba5"/><circle cx="305.83" cy="121.41" r="1.95" clip-path="url(#cpNTAuOTd8Mzc3LjE3fDM0OS40NXw1LjQ4)" style="stroke-width:.71;stroke:#c0bba5;fill:#c0bba5"/><circle cx="294.56" cy="156.81" r="1.95" clip-path="url(#cpNTAuOTd8Mzc3LjE3fDM0OS40NXw1LjQ4)" style="stroke-width:.71;stroke:#c0bba5;fill:#c0bba5"/><circle cx="308.71" cy="133.21" r="1.95" clip-path="url(#cpNTAuOTd8Mzc3LjE3fDM0OS40NXw1LjQ4)" style="stroke-width:.71;stroke:#c0bba5;fill:#c0bba5"/><circle cx="215.51" cy="198.11" r="1.95" clip-path="url(#cpNTAuOTd8Mzc3LjE3fDM0OS40NXw1LjQ4)" style="stroke-width:.71;stroke:#c0bba5;fill:#c0bba5"/><circle cx="271.94" cy="115.51" r="1.95" clip-path="url(#cpNTAuOTd8Mzc3LjE3fDM0OS40NXw1LjQ4)" style="stroke-width:.71;stroke:#c0bba5;fill:#c0bba5"/><circle cx="254.99" cy="150.91" r="1.95" clip-path="url(#cpNTAuOTd8Mzc3LjE3fDM0OS40NXw1LjQ4)" style="stroke-width:.71;stroke:#c0bba5;fill:#c0bba5"/><circle cx="101.13" cy="280.71" r="1.95" clip-path="url(#cpNTAuOTd8Mzc3LjE3fDM0OS40NXw1LjQ4)" style="stroke-width:.71;stroke:#4c0000;fill:#4c0000"/><circle cx="88.42" cy="304.31" r="1.95" clip-path="url(#cpNTAuOTd8Mzc3LjE3fDM0OS40NXw1LjQ4)" style="stroke-width:.71;stroke:#4c0000;fill:#4c0000"/><circle cx="339.72" cy="115.51" r="1.95" clip-path="url(#cpNTAuOTd8Mzc3LjE3fDM0OS40NXw1LjQ4)" style="stroke-width:.71;stroke:#c0bba5;fill:#c0bba5"/><circle cx="85.54" cy="239.41" r="1.95" clip-path="url(#cpNTAuOTd8Mzc3LjE3fDM0OS40NXw1LjQ4)" style="stroke-width:.71;stroke:#4c0000;fill:#4c0000"/><circle cx="335.48" cy="56.51" r="1.95" clip-path="url(#cpNTAuOTd8Mzc3LjE3fDM0OS40NXw1LjQ4)" style="stroke-width:.71;stroke:#c0bba5;fill:#c0bba5"/><circle cx="298.8" cy="115.51" r="1.95" clip-path="url(#cpNTAuOTd8Mzc3LjE3fDM0OS40NXw1LjQ4)" style="stroke-width:.71;stroke:#c0bba5;fill:#c0bba5"/><circle cx="89.78" cy="245.31" r="1.95" clip-path="url(#cpNTAuOTd8Mzc3LjE3fDM0OS40NXw1LjQ4)" style="stroke-width:.71;stroke:#4c0000;fill:#4c0000"/><circle cx="317.18" cy="91.91" r="1.95" clip-path="url(#cpNTAuOTd8Mzc3LjE3fDM0OS40NXw1LjQ4)" style="stroke-width:.71;stroke:#c0bba5;fill:#c0bba5"/><circle cx="78.51" cy="245.31" r="1.95" clip-path="url(#cpNTAuOTd8Mzc3LjE3fDM0OS40NXw1LjQ4)" style="stroke-width:.71;stroke:#4c0000;fill:#4c0000"/><circle cx="314.3" cy="156.81" r="1.95" clip-path="url(#cpNTAuOTd8Mzc3LjE3fDM0OS40NXw1LjQ4)" style="stroke-width:.71;stroke:#c0bba5;fill:#c0bba5"/><circle cx="211.27" cy="97.81" r="1.95" clip-path="url(#cpNTAuOTd8Mzc3LjE3fDM0OS40NXw1LjQ4)" style="stroke-width:.71;stroke:#c0bba5;fill:#c0bba5"/><circle cx="254.99" cy="209.91" r="1.95" clip-path="url(#cpNTAuOTd8Mzc3LjE3fDM0OS40NXw1LjQ4)" style="stroke-width:.71;stroke:#c0bba5;fill:#c0bba5"/><circle cx="108.16" cy="274.81" r="1.95" clip-path="url(#cpNTAuOTd8Mzc3LjE3fDM0OS40NXw1LjQ4)" style="stroke-width:.71;stroke:#4c0000;fill:#4c0000"/><circle cx="322.77" cy="103.71" r="1.95" clip-path="url(#cpNTAuOTd8Mzc3LjE3fDM0OS40NXw1LjQ4)" style="stroke-width:.71;stroke:#c0bba5;fill:#c0bba5"/><circle cx="99.69" cy="239.41" r="1.95" clip-path="url(#cpNTAuOTd8Mzc3LjE3fDM0OS40NXw1LjQ4)" style="stroke-width:.71;stroke:#4c0000;fill:#4c0000"/><circle cx="336.92" cy="145.01" r="1.95" clip-path="url(#cpNTAuOTd8Mzc3LjE3fDM0OS40NXw1LjQ4)" style="stroke-width:.71;stroke:#c0bba5;fill:#c0bba5"/><circle cx="329.81" cy="56.51" r="1.95" clip-path="url(#cpNTAuOTd8Mzc3LjE3fDM0OS40NXw1LjQ4)" style="stroke-width:.71;stroke:#c0bba5;fill:#c0bba5"/><circle cx="85.54" cy="268.91" r="1.95" clip-path="url(#cpNTAuOTd8Mzc3LjE3fDM0OS40NXw1LjQ4)" style="stroke-width:.71;stroke:#4c0000;fill:#4c0000"/><circle cx="339.72" cy="115.51" r="1.95" clip-path="url(#cpNTAuOTd8Mzc3LjE3fDM0OS40NXw1LjQ4)" style="stroke-width:.71;stroke:#c0bba5;fill:#c0bba5"/><circle cx="77.07" cy="268.91" r="1.95" clip-path="url(#cpNTAuOTd8Mzc3LjE3fDM0OS40NXw1LjQ4)" style="stroke-width:.71;stroke:#4c0000;fill:#4c0000"/><circle cx="343.96" cy="97.81" r="1.95" clip-path="url(#cpNTAuOTd8Mzc3LjE3fDM0OS40NXw1LjQ4)" style="stroke-width:.71;stroke:#c0bba5;fill:#c0bba5"/><circle cx="245.16" cy="168.61" r="1.95" clip-path="url(#cpNTAuOTd8Mzc3LjE3fDM0OS40NXw1LjQ4)" style="stroke-width:.71;stroke:#c0bba5;fill:#c0bba5"/><circle cx="71.48" cy="209.91" r="1.95" clip-path="url(#cpNTAuOTd8Mzc3LjE3fDM0OS40NXw1LjQ4)" style="stroke-width:.71;stroke:#4c0000;fill:#4c0000"/><circle cx="317.18" cy="133.21" r="1.95" clip-path="url(#cpNTAuOTd8Mzc3LjE3fDM0OS40NXw1LjQ4)" style="stroke-width:.71;stroke:#c0bba5;fill:#c0bba5"/><circle cx="296" cy="109.61" r="1.95" clip-path="url(#cpNTAuOTd8Mzc3LjE3fDM0OS40NXw1LjQ4)" style="stroke-width:.71;stroke:#c0bba5;fill:#c0bba5"/><circle cx="119.43" cy="239.41" r="1.95" clip-path="url(#cpNTAuOTd8Mzc3LjE3fDM0OS40NXw1LjQ4)" style="stroke-width:.71;stroke:#4c0000;fill:#4c0000"/><circle cx="311.5" cy="91.91" r="1.95" clip-path="url(#cpNTAuOTd8Mzc3LjE3fDM0OS40NXw1LjQ4)" style="stroke-width:.71;stroke:#c0bba5;fill:#c0bba5"/><circle cx="78.51" cy="304.31" r="1.95" clip-path="url(#cpNTAuOTd8Mzc3LjE3fDM0OS40NXw1LjQ4)" style="stroke-width:.71;stroke:#4c0000;fill:#4c0000"/><circle cx="336.92" cy="103.71" r="1.95" clip-path="url(#cpNTAuOTd8Mzc3LjE3fDM0OS40NXw1LjQ4)" style="stroke-width:.71;stroke:#c0bba5;fill:#c0bba5"/><circle cx="84.18" cy="233.51" r="1.95" clip-path="url(#cpNTAuOTd8Mzc3LjE3fDM0OS40NXw1LjQ4)" style="stroke-width:.71;stroke:#4c0000;fill:#4c0000"/><circle cx="303.03" cy="44.71" r="1.95" clip-path="url(#cpNTAuOTd8Mzc3LjE3fDM0OS40NXw1LjQ4)" style="stroke-width:.71;stroke:#c0bba5;fill:#c0bba5"/><circle cx="283.29" cy="127.31" r="1.95" clip-path="url(#cpNTAuOTd8Mzc3LjE3fDM0OS40NXw1LjQ4)" style="stroke-width:.71;stroke:#c0bba5;fill:#c0bba5"/><circle cx="328.45" cy="127.31" r="1.95" clip-path="url(#cpNTAuOTd8Mzc3LjE3fDM0OS40NXw1LjQ4)" style="stroke-width:.71;stroke:#c0bba5;fill:#c0bba5"/><circle cx="105.37" cy="204.01" r="1.95" clip-path="url(#cpNTAuOTd8Mzc3LjE3fDM0OS40NXw1LjQ4)" style="stroke-width:.71;stroke:#4c0000;fill:#4c0000"/><circle cx="328.45" cy="156.81" r="1.95" clip-path="url(#cpNTAuOTd8Mzc3LjE3fDM0OS40NXw1LjQ4)" style="stroke-width:.71;stroke:#c0bba5;fill:#c0bba5"/><circle cx="271.94" cy="103.71" r="1.95" clip-path="url(#cpNTAuOTd8Mzc3LjE3fDM0OS40NXw1LjQ4)" style="stroke-width:.71;stroke:#c0bba5;fill:#c0bba5"/><circle cx="96.89" cy="257.11" r="1.95" clip-path="url(#cpNTAuOTd8Mzc3LjE3fDM0OS40NXw1LjQ4)" style="stroke-width:.71;stroke:#4c0000;fill:#4c0000"/><circle cx="311.5" cy="121.41" r="1.95" clip-path="url(#cpNTAuOTd8Mzc3LjE3fDM0OS40NXw1LjQ4)" style="stroke-width:.71;stroke:#c0bba5;fill:#c0bba5"/><circle cx="269.14" cy="168.61" r="1.95" clip-path="url(#cpNTAuOTd8Mzc3LjE3fDM0OS40NXw1LjQ4)" style="stroke-width:.71;stroke:#c0bba5;fill:#c0bba5"/><circle cx="98.25" cy="221.71" r="1.95" clip-path="url(#cpNTAuOTd8Mzc3LjE3fDM0OS40NXw1LjQ4)" style="stroke-width:.71;stroke:#4c0000;fill:#4c0000"/><circle cx="359.54" cy="139.11" r="1.95" clip-path="url(#cpNTAuOTd8Mzc3LjE3fDM0OS40NXw1LjQ4)" style="stroke-width:.71;stroke:#c0bba5;fill:#c0bba5"/><circle cx="101.13" cy="233.51" r="1.95" clip-path="url(#cpNTAuOTd8Mzc3LjE3fDM0OS40NXw1LjQ4)" style="stroke-width:.71;stroke:#4c0000;fill:#4c0000"/><circle cx="317.18" cy="127.31" r="1.95" clip-path="url(#cpNTAuOTd8Mzc3LjE3fDM0OS40NXw1LjQ4)" style="stroke-width:.71;stroke:#c0bba5;fill:#c0bba5"/><circle cx="259.23" cy="139.11" r="1.95" clip-path="url(#cpNTAuOTd8Mzc3LjE3fDM0OS40NXw1LjQ4)" style="stroke-width:.71;stroke:#c0bba5;fill:#c0bba5"/><circle cx="235.25" cy="97.81" r="1.95" clip-path="url(#cpNTAuOTd8Mzc3LjE3fDM0OS40NXw1LjQ4)" style="stroke-width:.71;stroke:#c0bba5;fill:#c0bba5"/><circle cx="280.41" cy="145.01" r="1.95" clip-path="url(#cpNTAuOTd8Mzc3LjE3fDM0OS40NXw1LjQ4)" style="stroke-width:.71;stroke:#c0bba5;fill:#c0bba5"/><circle cx="297.36" cy="103.71" r="1.95" clip-path="url(#cpNTAuOTd8Mzc3LjE3fDM0OS40NXw1LjQ4)" style="stroke-width:.71;stroke:#c0bba5;fill:#c0bba5"/><circle cx="277.61" cy="174.51" r="1.95" clip-path="url(#cpNTAuOTd8Mzc3LjE3fDM0OS40NXw1LjQ4)" style="stroke-width:.71;stroke:#c0bba5;fill:#c0bba5"/><circle cx="153.32" cy="204.01" r="1.95" clip-path="url(#cpNTAuOTd8Mzc3LjE3fDM0OS40NXw1LjQ4)" style="stroke-width:.71;stroke:#4d0001;fill:#4d0001"/><circle cx="274.82" cy="156.81" r="1.95" clip-path="url(#cpNTAuOTd8Mzc3LjE3fDM0OS40NXw1LjQ4)" style="stroke-width:.71;stroke:#c0bba5;fill:#c0bba5"/><circle cx="348.19" cy="68.31" r="1.95" clip-path="url(#cpNTAuOTd8Mzc3LjE3fDM0OS40NXw1LjQ4)" style="stroke-width:.71;stroke:#c0bba5;fill:#c0bba5"/><circle cx="264.91" cy="139.11" r="1.95" clip-path="url(#cpNTAuOTd8Mzc3LjE3fDM0OS40NXw1LjQ4)" style="stroke-width:.71;stroke:#c0bba5;fill:#c0bba5"/><circle cx="312.95" cy="115.51" r="1.95" clip-path="url(#cpNTAuOTd8Mzc3LjE3fDM0OS40NXw1LjQ4)" style="stroke-width:.71;stroke:#c0bba5;fill:#c0bba5"/><circle cx="113.84" cy="304.31" r="1.95" clip-path="url(#cpNTAuOTd8Mzc3LjE3fDM0OS40NXw1LjQ4)" style="stroke-width:.71;stroke:#4c0000;fill:#4c0000"/><circle cx="269.14" cy="80.11" r="1.95" clip-path="url(#cpNTAuOTd8Mzc3LjE3fDM0OS40NXw1LjQ4)" style="stroke-width:.71;stroke:#c0bba5;fill:#c0bba5"/><circle cx="116.63" cy="233.51" r="1.95" clip-path="url(#cpNTAuOTd8Mzc3LjE3fDM0OS40NXw1LjQ4)" style="stroke-width:.71;stroke:#4c0000;fill:#4c0000"/><circle cx="297.36" cy="56.51" r="1.95" clip-path="url(#cpNTAuOTd8Mzc3LjE3fDM0OS40NXw1LjQ4)" style="stroke-width:.71;stroke:#c0bba5;fill:#c0bba5"/><circle cx="88.42" cy="292.51" r="1.95" clip-path="url(#cpNTAuOTd8Mzc3LjE3fDM0OS40NXw1LjQ4)" style="stroke-width:.71;stroke:#4c0000;fill:#4c0000"/><circle cx="338.36" cy="127.31" r="1.95" clip-path="url(#cpNTAuOTd8Mzc3LjE3fDM0OS40NXw1LjQ4)" style="stroke-width:.71;stroke:#c0bba5;fill:#c0bba5"/><circle cx="85.54" cy="215.81" r="1.95" clip-path="url(#cpNTAuOTd8Mzc3LjE3fDM0OS40NXw1LjQ4)" style="stroke-width:.71;stroke:#4c0000;fill:#4c0000"/><circle cx="294.56" cy="162.71" r="1.95" clip-path="url(#cpNTAuOTd8Mzc3LjE3fDM0OS40NXw1LjQ4)" style="stroke-width:.71;stroke:#c0bba5;fill:#c0bba5"/><circle cx="325.65" cy="91.91" r="1.95" clip-path="url(#cpNTAuOTd8Mzc3LjE3fDM0OS40NXw1LjQ4)" style="stroke-width:.71;stroke:#c0bba5;fill:#c0bba5"/><circle cx="247.96" cy="145.01" r="1.95" clip-path="url(#cpNTAuOTd8Mzc3LjE3fDM0OS40NXw1LjQ4)" style="stroke-width:.71;stroke:#c0bba5;fill:#c0bba5"/><circle cx="88.42" cy="286.61" r="1.95" clip-path="url(#cpNTAuOTd8Mzc3LjE3fDM0OS40NXw1LjQ4)" style="stroke-width:.71;stroke:#4c0000;fill:#4c0000"/><circle cx="345.4" cy="103.71" r="1.95" clip-path="url(#cpNTAuOTd8Mzc3LjE3fDM0OS40NXw1LjQ4)" style="stroke-width:.71;stroke:#c0bba5;fill:#c0bba5"/><circle cx="140.61" cy="221.71" r="1.95" clip-path="url(#cpNTAuOTd8Mzc3LjE3fDM0OS40NXw1LjQ4)" style="stroke-width:.71;stroke:#4c0000;fill:#4c0000"/><circle cx="300.24" cy="68.31" r="1.95" clip-path="url(#cpNTAuOTd8Mzc3LjE3fDM0OS40NXw1LjQ4)" style="stroke-width:.71;stroke:#c0bba5;fill:#c0bba5"/><circle cx="108.16" cy="298.41" r="1.95" clip-path="url(#cpNTAuOTd8Mzc3LjE3fDM0OS40NXw1LjQ4)" style="stroke-width:.71;stroke:#4c0000;fill:#4c0000"/><circle cx="311.5" cy="97.81" r="1.95" clip-path="url(#cpNTAuOTd8Mzc3LjE3fDM0OS40NXw1LjQ4)" style="stroke-width:.71;stroke:#c0bba5;fill:#c0bba5"/><circle cx="273.38" cy="109.61" r="1.95" clip-path="url(#cpNTAuOTd8Mzc3LjE3fDM0OS40NXw1LjQ4)" style="stroke-width:.71;stroke:#c0bba5;fill:#c0bba5"/><circle cx="88.42" cy="310.21" r="1.95" clip-path="url(#cpNTAuOTd8Mzc3LjE3fDM0OS40NXw1LjQ4)" style="stroke-width:.71;stroke:#4c0000;fill:#4c0000"/><circle cx="328.45" cy="91.91" r="1.95" clip-path="url(#cpNTAuOTd8Mzc3LjE3fDM0OS40NXw1LjQ4)" style="stroke-width:.71;stroke:#c0bba5;fill:#c0bba5"/><circle cx="81.3" cy="280.71" r="1.95" clip-path="url(#cpNTAuOTd8Mzc3LjE3fDM0OS40NXw1LjQ4)" style="stroke-width:.71;stroke:#4c0000;fill:#4c0000"/><circle cx="341.16" cy="80.11" r="1.95" clip-path="url(#cpNTAuOTd8Mzc3LjE3fDM0OS40NXw1LjQ4)" style="stroke-width:.71;stroke:#c0bba5;fill:#c0bba5"/><circle cx="242.28" cy="109.61" r="1.95" clip-path="url(#cpNTAuOTd8Mzc3LjE3fDM0OS40NXw1LjQ4)" style="stroke-width:.71;stroke:#c0bba5;fill:#c0bba5"/><circle cx="331.25" cy="145.01" r="1.95" clip-path="url(#cpNTAuOTd8Mzc3LjE3fDM0OS40NXw1LjQ4)" style="stroke-width:.71;stroke:#c0bba5;fill:#c0bba5"/><circle cx="125.11" cy="239.41" r="1.95" clip-path="url(#cpNTAuOTd8Mzc3LjE3fDM0OS40NXw1LjQ4)" style="stroke-width:.71;stroke:#4c0000;fill:#4c0000"/><circle cx="345.4" cy="62.41" r="1.95" clip-path="url(#cpNTAuOTd8Mzc3LjE3fDM0OS40NXw1LjQ4)" style="stroke-width:.71;stroke:#c0bba5;fill:#c0bba5"/><circle cx="304.47" cy="121.41" r="1.95" clip-path="url(#cpNTAuOTd8Mzc3LjE3fDM0OS40NXw1LjQ4)" style="stroke-width:.71;stroke:#c0bba5;fill:#c0bba5"/><circle cx="74.27" cy="239.41" r="1.95" clip-path="url(#cpNTAuOTd8Mzc3LjE3fDM0OS40NXw1LjQ4)" style="stroke-width:.71;stroke:#4c0000;fill:#4c0000"/><circle cx="322.77" cy="109.61" r="1.95" clip-path="url(#cpNTAuOTd8Mzc3LjE3fDM0OS40NXw1LjQ4)" style="stroke-width:.71;stroke:#c0bba5;fill:#c0bba5"/><circle cx="126.55" cy="292.51" r="1.95" clip-path="url(#cpNTAuOTd8Mzc3LjE3fDM0OS40NXw1LjQ4)" style="stroke-width:.71;stroke:#4c0000;fill:#4c0000"/><circle cx="319.98" cy="86.01" r="1.95" clip-path="url(#cpNTAuOTd8Mzc3LjE3fDM0OS40NXw1LjQ4)" style="stroke-width:.71;stroke:#c0bba5;fill:#c0bba5"/><circle cx="84.18" cy="239.41" r="1.95" clip-path="url(#cpNTAuOTd8Mzc3LjE3fDM0OS40NXw1LjQ4)" style="stroke-width:.71;stroke:#4c0000;fill:#4c0000"/><circle cx="304.47" cy="74.21" r="1.95" clip-path="url(#cpNTAuOTd8Mzc3LjE3fDM0OS40NXw1LjQ4)" style="stroke-width:.71;stroke:#c0bba5;fill:#c0bba5"/><circle cx="151.97" cy="274.81" r="1.95" clip-path="url(#cpNTAuOTd8Mzc3LjE3fDM0OS40NXw1LjQ4)" style="stroke-width:.71;stroke:#4c0000;fill:#4c0000"/><circle cx="274.82" cy="180.41" r="1.95" clip-path="url(#cpNTAuOTd8Mzc3LjE3fDM0OS40NXw1LjQ4)" style="stroke-width:.71;stroke:#c0bba5;fill:#c0bba5"/><circle cx="290.32" cy="133.21" r="1.95" clip-path="url(#cpNTAuOTd8Mzc3LjE3fDM0OS40NXw1LjQ4)" style="stroke-width:.71;stroke:#c0bba5;fill:#c0bba5"/><circle cx="96.89" cy="257.11" r="1.95" clip-path="url(#cpNTAuOTd8Mzc3LjE3fDM0OS40NXw1LjQ4)" style="stroke-width:.71;stroke:#4c0000;fill:#4c0000"/><circle cx="319.98" cy="68.31" r="1.95" clip-path="url(#cpNTAuOTd8Mzc3LjE3fDM0OS40NXw1LjQ4)" style="stroke-width:.71;stroke:#c0bba5;fill:#c0bba5"/><circle cx="249.4" cy="109.61" r="1.95" clip-path="url(#cpNTAuOTd8Mzc3LjE3fDM0OS40NXw1LjQ4)" style="stroke-width:.71;stroke:#c0bba5;fill:#c0bba5"/><circle cx="92.66" cy="322.01" r="1.95" clip-path="url(#cpNTAuOTd8Mzc3LjE3fDM0OS40NXw1LjQ4)" style="stroke-width:.71;stroke:#4c0000;fill:#4c0000"/><circle cx="311.5" cy="103.71" r="1.95" clip-path="url(#cpNTAuOTd8Mzc3LjE3fDM0OS40NXw1LjQ4)" style="stroke-width:.71;stroke:#c0bba5;fill:#c0bba5"/><circle cx="122.31" cy="263.01" r="1.95" clip-path="url(#cpNTAuOTd8Mzc3LjE3fDM0OS40NXw1LjQ4)" style="stroke-width:.71;stroke:#4c0000;fill:#4c0000"/><circle cx="324.21" cy="56.51" r="1.95" clip-path="url(#cpNTAuOTd8Mzc3LjE3fDM0OS40NXw1LjQ4)" style="stroke-width:.71;stroke:#c0bba5;fill:#c0bba5"/><circle cx="88.42" cy="322.01" r="1.95" clip-path="url(#cpNTAuOTd8Mzc3LjE3fDM0OS40NXw1LjQ4)" style="stroke-width:.71;stroke:#4c0000;fill:#4c0000"/><circle cx="283.29" cy="97.81" r="1.95" clip-path="url(#cpNTAuOTd8Mzc3LjE3fDM0OS40NXw1LjQ4)" style="stroke-width:.71;stroke:#c0bba5;fill:#c0bba5"/><circle cx="167.47" cy="257.11" r="1.95" clip-path="url(#cpNTAuOTd8Mzc3LjE3fDM0OS40NXw1LjQ4)" style="stroke-width:.71;stroke:#4d0001;fill:#4d0001"/><circle cx="297.36" cy="62.41" r="1.95" clip-path="url(#cpNTAuOTd8Mzc3LjE3fDM0OS40NXw1LjQ4)" style="stroke-width:.71;stroke:#c0bba5;fill:#c0bba5"/><circle cx="85.54" cy="316.11" r="1.95" clip-path="url(#cpNTAuOTd8Mzc3LjE3fDM0OS40NXw1LjQ4)" style="stroke-width:.71;stroke:#4c0000;fill:#4c0000"/><circle cx="301.59" cy="103.71" r="1.95" clip-path="url(#cpNTAuOTd8Mzc3LjE3fDM0OS40NXw1LjQ4)" style="stroke-width:.71;stroke:#c0bba5;fill:#c0bba5"/><circle cx="89.78" cy="286.61" r="1.95" clip-path="url(#cpNTAuOTd8Mzc3LjE3fDM0OS40NXw1LjQ4)" style="stroke-width:.71;stroke:#4c0000;fill:#4c0000"/><circle cx="348.19" cy="80.11" r="1.95" clip-path="url(#cpNTAuOTd8Mzc3LjE3fDM0OS40NXw1LjQ4)" style="stroke-width:.71;stroke:#c0bba5;fill:#c0bba5"/><circle cx="102.49" cy="274.81" r="1.95" clip-path="url(#cpNTAuOTd8Mzc3LjE3fDM0OS40NXw1LjQ4)" style="stroke-width:.71;stroke:#4c0000;fill:#4c0000"/><circle cx="246.52" cy="121.41" r="1.95" clip-path="url(#cpNTAuOTd8Mzc3LjE3fDM0OS40NXw1LjQ4)" style="stroke-width:.71;stroke:#c0bba5;fill:#c0bba5"/><circle cx="288.88" cy="109.61" r="1.95" clip-path="url(#cpNTAuOTd8Mzc3LjE3fDM0OS40NXw1LjQ4)" style="stroke-width:.71;stroke:#c0bba5;fill:#c0bba5"/><circle cx="119.43" cy="233.51" r="1.95" clip-path="url(#cpNTAuOTd8Mzc3LjE3fDM0OS40NXw1LjQ4)" style="stroke-width:.71;stroke:#4c0000;fill:#4c0000"/><circle cx="314.3" cy="103.71" r="1.95" clip-path="url(#cpNTAuOTd8Mzc3LjE3fDM0OS40NXw1LjQ4)" style="stroke-width:.71;stroke:#c0bba5;fill:#c0bba5"/><circle cx="338.36" cy="133.21" r="1.95" clip-path="url(#cpNTAuOTd8Mzc3LjE3fDM0OS40NXw1LjQ4)" style="stroke-width:.71;stroke:#c0bba5;fill:#c0bba5"/><circle cx="297.36" cy="139.11" r="1.95" clip-path="url(#cpNTAuOTd8Mzc3LjE3fDM0OS40NXw1LjQ4)" style="stroke-width:.71;stroke:#c0bba5;fill:#c0bba5"/><circle cx="98.25" cy="239.41" r="1.95" clip-path="url(#cpNTAuOTd8Mzc3LjE3fDM0OS40NXw1LjQ4)" style="stroke-width:.71;stroke:#4c0000;fill:#4c0000"/><circle cx="322.77" cy="115.51" r="1.95" clip-path="url(#cpNTAuOTd8Mzc3LjE3fDM0OS40NXw1LjQ4)" style="stroke-width:.71;stroke:#c0bba5;fill:#c0bba5"/><circle cx="101.13" cy="298.41" r="1.95" clip-path="url(#cpNTAuOTd8Mzc3LjE3fDM0OS40NXw1LjQ4)" style="stroke-width:.71;stroke:#4c0000;fill:#4c0000"/><circle cx="362.34" cy="21.11" r="1.95" clip-path="url(#cpNTAuOTd8Mzc3LjE3fDM0OS40NXw1LjQ4)" style="stroke-width:.71;stroke:#c0bba5;fill:#c0bba5"/><circle cx="82.74" cy="274.81" r="1.95" clip-path="url(#cpNTAuOTd8Mzc3LjE3fDM0OS40NXw1LjQ4)" style="stroke-width:.71;stroke:#4c0000;fill:#4c0000"/><circle cx="356.66" cy="133.21" r="1.95" clip-path="url(#cpNTAuOTd8Mzc3LjE3fDM0OS40NXw1LjQ4)" style="stroke-width:.71;stroke:#c0bba5;fill:#c0bba5"/><circle cx="269.14" cy="133.21" r="1.95" clip-path="url(#cpNTAuOTd8Mzc3LjE3fDM0OS40NXw1LjQ4)" style="stroke-width:.71;stroke:#c0bba5;fill:#c0bba5"/><circle cx="133.58" cy="204.01" r="1.95" clip-path="url(#cpNTAuOTd8Mzc3LjE3fDM0OS40NXw1LjQ4)" style="stroke-width:.71;stroke:#4c0000;fill:#4c0000"/><circle cx="319.98" cy="109.61" r="1.95" clip-path="url(#cpNTAuOTd8Mzc3LjE3fDM0OS40NXw1LjQ4)" style="stroke-width:.71;stroke:#c0bba5;fill:#c0bba5"/><circle cx="232.46" cy="168.61" r="1.95" clip-path="url(#cpNTAuOTd8Mzc3LjE3fDM0OS40NXw1LjQ4)" style="stroke-width:.71;stroke:#c0bba5;fill:#c0bba5"/><circle cx="269.14" cy="174.51" r="1.95" clip-path="url(#cpNTAuOTd8Mzc3LjE3fDM0OS40NXw1LjQ4)" style="stroke-width:.71;stroke:#c0bba5;fill:#c0bba5"/><circle cx="311.5" cy="109.61" r="1.95" clip-path="url(#cpNTAuOTd8Mzc3LjE3fDM0OS40NXw1LjQ4)" style="stroke-width:.71;stroke:#c0bba5;fill:#c0bba5"/><circle cx="276.17" cy="38.81" r="1.95" clip-path="url(#cpNTAuOTd8Mzc3LjE3fDM0OS40NXw1LjQ4)" style="stroke-width:.71;stroke:#c0bba5;fill:#c0bba5"/><circle cx="82.74" cy="274.81" r="1.95" clip-path="url(#cpNTAuOTd8Mzc3LjE3fDM0OS40NXw1LjQ4)" style="stroke-width:.71;stroke:#4c0000;fill:#4c0000"/><circle cx="266.35" cy="62.41" r="1.95" clip-path="url(#cpNTAuOTd8Mzc3LjE3fDM0OS40NXw1LjQ4)" style="stroke-width:.71;stroke:#c0bba5;fill:#c0bba5"/><circle cx="116.63" cy="322.01" r="1.95" clip-path="url(#cpNTAuOTd8Mzc3LjE3fDM0OS40NXw1LjQ4)" style="stroke-width:.71;stroke:#4c0000;fill:#4c0000"/><circle cx="281.85" cy="80.11" r="1.95" clip-path="url(#cpNTAuOTd8Mzc3LjE3fDM0OS40NXw1LjQ4)" style="stroke-width:.71;stroke:#c0bba5;fill:#c0bba5"/><circle cx="99.69" cy="245.31" r="1.95" clip-path="url(#cpNTAuOTd8Mzc3LjE3fDM0OS40NXw1LjQ4)" style="stroke-width:.71;stroke:#4c0000;fill:#4c0000"/><circle cx="254.99" cy="127.31" r="1.95" clip-path="url(#cpNTAuOTd8Mzc3LjE3fDM0OS40NXw1LjQ4)" style="stroke-width:.71;stroke:#c0bba5;fill:#c0bba5"/><circle cx="226.78" cy="198.11" r="1.95" clip-path="url(#cpNTAuOTd8Mzc3LjE3fDM0OS40NXw1LjQ4)" style="stroke-width:.71;stroke:#c0bba5;fill:#c0bba5"/><circle cx="318.54" cy="139.11" r="1.95" clip-path="url(#cpNTAuOTd8Mzc3LjE3fDM0OS40NXw1LjQ4)" style="stroke-width:.71;stroke:#c0bba5;fill:#c0bba5"/><circle cx="130.78" cy="215.81" r="1.95" clip-path="url(#cpNTAuOTd8Mzc3LjE3fDM0OS40NXw1LjQ4)" style="stroke-width:.71;stroke:#4c0000;fill:#4c0000"/><circle cx="353.87" cy="68.31" r="1.95" clip-path="url(#cpNTAuOTd8Mzc3LjE3fDM0OS40NXw1LjQ4)" style="stroke-width:.71;stroke:#c0bba5;fill:#c0bba5"/><circle cx="94.01" cy="280.71" r="1.95" clip-path="url(#cpNTAuOTd8Mzc3LjE3fDM0OS40NXw1LjQ4)" style="stroke-width:.71;stroke:#4c0000;fill:#4c0000"/><circle cx="321.42" cy="38.81" r="1.95" clip-path="url(#cpNTAuOTd8Mzc3LjE3fDM0OS40NXw1LjQ4)" style="stroke-width:.71;stroke:#c0bba5;fill:#c0bba5"/><circle cx="92.66" cy="298.41" r="1.95" clip-path="url(#cpNTAuOTd8Mzc3LjE3fDM0OS40NXw1LjQ4)" style="stroke-width:.71;stroke:#4c0000;fill:#4c0000"/><circle cx="106.72" cy="251.21" r="1.95" clip-path="url(#cpNTAuOTd8Mzc3LjE3fDM0OS40NXw1LjQ4)" style="stroke-width:.71;stroke:#4c0000;fill:#4c0000"/><circle cx="318.54" cy="133.21" r="1.95" clip-path="url(#cpNTAuOTd8Mzc3LjE3fDM0OS40NXw1LjQ4)" style="stroke-width:.71;stroke:#c0bba5;fill:#c0bba5"/><circle cx="212.63" cy="186.31" r="1.95" clip-path="url(#cpNTAuOTd8Mzc3LjE3fDM0OS40NXw1LjQ4)" style="stroke-width:.71;stroke:#c0bba5;fill:#c0bba5"/><circle cx="283.29" cy="109.61" r="1.95" clip-path="url(#cpNTAuOTd8Mzc3LjE3fDM0OS40NXw1LjQ4)" style="stroke-width:.71;stroke:#c0bba5;fill:#c0bba5"/><circle cx="297.36" cy="109.61" r="1.95" clip-path="url(#cpNTAuOTd8Mzc3LjE3fDM0OS40NXw1LjQ4)" style="stroke-width:.71;stroke:#c0bba5;fill:#c0bba5"/><circle cx="311.5" cy="156.81" r="1.95" clip-path="url(#cpNTAuOTd8Mzc3LjE3fDM0OS40NXw1LjQ4)" style="stroke-width:.71;stroke:#c0bba5;fill:#c0bba5"/><circle cx="135.02" cy="292.51" r="1.95" clip-path="url(#cpNTAuOTd8Mzc3LjE3fDM0OS40NXw1LjQ4)" style="stroke-width:.71;stroke:#4c0000;fill:#4c0000"/><circle cx="269.14" cy="86.01" r="1.95" clip-path="url(#cpNTAuOTd8Mzc3LjE3fDM0OS40NXw1LjQ4)" style="stroke-width:.71;stroke:#c0bba5;fill:#c0bba5"/><circle cx="283.29" cy="150.91" r="1.95" clip-path="url(#cpNTAuOTd8Mzc3LjE3fDM0OS40NXw1LjQ4)" style="stroke-width:.71;stroke:#c0bba5;fill:#c0bba5"/><circle cx="89.78" cy="263.01" r="1.95" clip-path="url(#cpNTAuOTd8Mzc3LjE3fDM0OS40NXw1LjQ4)" style="stroke-width:.71;stroke:#4c0000;fill:#4c0000"/><circle cx="318.54" cy="133.21" r="1.95" clip-path="url(#cpNTAuOTd8Mzc3LjE3fDM0OS40NXw1LjQ4)" style="stroke-width:.71;stroke:#c0bba5;fill:#c0bba5"/><circle cx="290.32" cy="97.81" r="1.95" clip-path="url(#cpNTAuOTd8Mzc3LjE3fDM0OS40NXw1LjQ4)" style="stroke-width:.71;stroke:#c0bba5;fill:#c0bba5"/><circle cx="249.4" cy="97.81" r="1.95" clip-path="url(#cpNTAuOTd8Mzc3LjE3fDM0OS40NXw1LjQ4)" style="stroke-width:.71;stroke:#c0bba5;fill:#c0bba5"/><circle cx="102.49" cy="286.61" r="1.95" clip-path="url(#cpNTAuOTd8Mzc3LjE3fDM0OS40NXw1LjQ4)" style="stroke-width:.71;stroke:#4c0000;fill:#4c0000"/><circle cx="305.83" cy="127.31" r="1.95" clip-path="url(#cpNTAuOTd8Mzc3LjE3fDM0OS40NXw1LjQ4)" style="stroke-width:.71;stroke:#c0bba5;fill:#c0bba5"/><circle cx="276.17" cy="91.91" r="1.95" clip-path="url(#cpNTAuOTd8Mzc3LjE3fDM0OS40NXw1LjQ4)" style="stroke-width:.71;stroke:#c0bba5;fill:#c0bba5"/><circle cx="85.54" cy="316.11" r="1.95" clip-path="url(#cpNTAuOTd8Mzc3LjE3fDM0OS40NXw1LjQ4)" style="stroke-width:.71;stroke:#4c0000;fill:#4c0000"/><circle cx="304.47" cy="97.81" r="1.95" clip-path="url(#cpNTAuOTd8Mzc3LjE3fDM0OS40NXw1LjQ4)" style="stroke-width:.71;stroke:#c0bba5;fill:#c0bba5"/><circle cx="115.19" cy="263.01" r="1.95" clip-path="url(#cpNTAuOTd8Mzc3LjE3fDM0OS40NXw1LjQ4)" style="stroke-width:.71;stroke:#4c0000;fill:#4c0000"/><circle cx="336.92" cy="109.61" r="1.95" clip-path="url(#cpNTAuOTd8Mzc3LjE3fDM0OS40NXw1LjQ4)" style="stroke-width:.71;stroke:#c0bba5;fill:#c0bba5"/><circle cx="85.54" cy="251.21" r="1.95" clip-path="url(#cpNTAuOTd8Mzc3LjE3fDM0OS40NXw1LjQ4)" style="stroke-width:.71;stroke:#4c0000;fill:#4c0000"/><circle cx="336.92" cy="139.11" r="1.95" clip-path="url(#cpNTAuOTd8Mzc3LjE3fDM0OS40NXw1LjQ4)" style="stroke-width:.71;stroke:#c0bba5;fill:#c0bba5"/><circle cx="277.61" cy="91.91" r="1.95" clip-path="url(#cpNTAuOTd8Mzc3LjE3fDM0OS40NXw1LjQ4)" style="stroke-width:.71;stroke:#c0bba5;fill:#c0bba5"/><circle cx="266.26" cy="133.21" r="1.95" clip-path="url(#cpNTAuOTd8Mzc3LjE3fDM0OS40NXw1LjQ4)" style="stroke-width:.71;stroke:#c0bba5;fill:#c0bba5"/><circle cx="288.88" cy="109.61" r="1.95" clip-path="url(#cpNTAuOTd8Mzc3LjE3fDM0OS40NXw1LjQ4)" style="stroke-width:.71;stroke:#c0bba5;fill:#c0bba5"/><circle cx="226.78" cy="74.21" r="1.95" clip-path="url(#cpNTAuOTd8Mzc3LjE3fDM0OS40NXw1LjQ4)" style="stroke-width:.71;stroke:#c0bba5;fill:#c0bba5"/><circle cx="300.15" cy="133.21" r="1.95" clip-path="url(#cpNTAuOTd8Mzc3LjE3fDM0OS40NXw1LjQ4)" style="stroke-width:.71;stroke:#c0bba5;fill:#c0bba5"/><circle cx="120.87" cy="286.61" r="1.95" clip-path="url(#cpNTAuOTd8Mzc3LjE3fDM0OS40NXw1LjQ4)" style="stroke-width:.71;stroke:#4c0000;fill:#4c0000"/><circle cx="325.65" cy="127.31" r="1.95" clip-path="url(#cpNTAuOTd8Mzc3LjE3fDM0OS40NXw1LjQ4)" style="stroke-width:.71;stroke:#c0bba5;fill:#c0bba5"/><circle cx="108.16" cy="233.51" r="1.95" clip-path="url(#cpNTAuOTd8Mzc3LjE3fDM0OS40NXw1LjQ4)" style="stroke-width:.71;stroke:#4c0000;fill:#4c0000"/><circle cx="298.8" cy="103.71" r="1.95" clip-path="url(#cpNTAuOTd8Mzc3LjE3fDM0OS40NXw1LjQ4)" style="stroke-width:.71;stroke:#c0bba5;fill:#c0bba5"/><circle cx="280.41" cy="50.61" r="1.95" clip-path="url(#cpNTAuOTd8Mzc3LjE3fDM0OS40NXw1LjQ4)" style="stroke-width:.71;stroke:#c0bba5;fill:#c0bba5"/><circle cx="88.42" cy="274.81" r="1.95" clip-path="url(#cpNTAuOTd8Mzc3LjE3fDM0OS40NXw1LjQ4)" style="stroke-width:.71;stroke:#4c0000;fill:#4c0000"/><circle cx="319.98" cy="127.31" r="1.95" clip-path="url(#cpNTAuOTd8Mzc3LjE3fDM0OS40NXw1LjQ4)" style="stroke-width:.71;stroke:#c0bba5;fill:#c0bba5"/><circle cx="81.3" cy="316.11" r="1.95" clip-path="url(#cpNTAuOTd8Mzc3LjE3fDM0OS40NXw1LjQ4)" style="stroke-width:.71;stroke:#4c0000;fill:#4c0000"/><circle cx="300.24" cy="133.21" r="1.95" clip-path="url(#cpNTAuOTd8Mzc3LjE3fDM0OS40NXw1LjQ4)" style="stroke-width:.71;stroke:#c0bba5;fill:#c0bba5"/><circle cx="256.43" cy="91.91" r="1.95" clip-path="url(#cpNTAuOTd8Mzc3LjE3fDM0OS40NXw1LjQ4)" style="stroke-width:.71;stroke:#c0bba5;fill:#c0bba5"/><circle cx="94.01" cy="298.41" r="1.95" clip-path="url(#cpNTAuOTd8Mzc3LjE3fDM0OS40NXw1LjQ4)" style="stroke-width:.71;stroke:#4c0000;fill:#4c0000"/><circle cx="311.5" cy="97.81" r="1.95" clip-path="url(#cpNTAuOTd8Mzc3LjE3fDM0OS40NXw1LjQ4)" style="stroke-width:.71;stroke:#c0bba5;fill:#c0bba5"/><circle cx="132.14" cy="168.61" r="1.95" clip-path="url(#cpNTAuOTd8Mzc3LjE3fDM0OS40NXw1LjQ4)" style="stroke-width:.71;stroke:#4c0000;fill:#4c0000"/><circle cx="328.45" cy="115.51" r="1.95" clip-path="url(#cpNTAuOTd8Mzc3LjE3fDM0OS40NXw1LjQ4)" style="stroke-width:.71;stroke:#c0bba5;fill:#c0bba5"/><circle cx="88.42" cy="298.41" r="1.95" clip-path="url(#cpNTAuOTd8Mzc3LjE3fDM0OS40NXw1LjQ4)" style="stroke-width:.71;stroke:#4c0000;fill:#4c0000"/><circle cx="254.99" cy="145.01" r="1.95" clip-path="url(#cpNTAuOTd8Mzc3LjE3fDM0OS40NXw1LjQ4)" style="stroke-width:.71;stroke:#c0bba5;fill:#c0bba5"/><circle cx="219.75" cy="209.91" r="1.95" clip-path="url(#cpNTAuOTd8Mzc3LjE3fDM0OS40NXw1LjQ4)" style="stroke-width:.71;stroke:#c0bba5;fill:#c0bba5"/><circle cx="288.88" cy="139.11" r="1.95" clip-path="url(#cpNTAuOTd8Mzc3LjE3fDM0OS40NXw1LjQ4)" style="stroke-width:.71;stroke:#c0bba5;fill:#c0bba5"/><circle cx="133.58" cy="274.81" r="1.95" clip-path="url(#cpNTAuOTd8Mzc3LjE3fDM0OS40NXw1LjQ4)" style="stroke-width:.71;stroke:#4c0000;fill:#4c0000"/><circle cx="336.92" cy="32.91" r="1.95" clip-path="url(#cpNTAuOTd8Mzc3LjE3fDM0OS40NXw1LjQ4)" style="stroke-width:.71;stroke:#c0bba5;fill:#c0bba5"/><circle cx="99.69" cy="263.01" r="1.95" clip-path="url(#cpNTAuOTd8Mzc3LjE3fDM0OS40NXw1LjQ4)" style="stroke-width:.71;stroke:#4c0000;fill:#4c0000"/><circle cx="281.85" cy="139.11" r="1.95" clip-path="url(#cpNTAuOTd8Mzc3LjE3fDM0OS40NXw1LjQ4)" style="stroke-width:.71;stroke:#c0bba5;fill:#c0bba5"/><circle cx="88.42" cy="292.51" r="1.95" clip-path="url(#cpNTAuOTd8Mzc3LjE3fDM0OS40NXw1LjQ4)" style="stroke-width:.71;stroke:#4c0000;fill:#4c0000"/><circle cx="291.76" cy="103.71" r="1.95" clip-path="url(#cpNTAuOTd8Mzc3LjE3fDM0OS40NXw1LjQ4)" style="stroke-width:.71;stroke:#c0bba5;fill:#c0bba5"/><circle cx="78.51" cy="268.91" r="1.95" clip-path="url(#cpNTAuOTd8Mzc3LjE3fDM0OS40NXw1LjQ4)" style="stroke-width:.71;stroke:#4c0000;fill:#4c0000"/><circle cx="310.06" cy="145.01" r="1.95" clip-path="url(#cpNTAuOTd8Mzc3LjE3fDM0OS40NXw1LjQ4)" style="stroke-width:.71;stroke:#c0bba5;fill:#c0bba5"/><circle cx="269.14" cy="127.31" r="1.95" clip-path="url(#cpNTAuOTd8Mzc3LjE3fDM0OS40NXw1LjQ4)" style="stroke-width:.71;stroke:#c0bba5;fill:#c0bba5"/><circle cx="279.05" cy="121.41" r="1.95" clip-path="url(#cpNTAuOTd8Mzc3LjE3fDM0OS40NXw1LjQ4)" style="stroke-width:.71;stroke:#c0bba5;fill:#c0bba5"/><circle cx="276.17" cy="127.31" r="1.95" clip-path="url(#cpNTAuOTd8Mzc3LjE3fDM0OS40NXw1LjQ4)" style="stroke-width:.71;stroke:#c0bba5;fill:#c0bba5"/><circle cx="291.76" cy="127.31" r="1.95" clip-path="url(#cpNTAuOTd8Mzc3LjE3fDM0OS40NXw1LjQ4)" style="stroke-width:.71;stroke:#c0bba5;fill:#c0bba5"/><circle cx="262.11" cy="174.51" r="1.95" clip-path="url(#cpNTAuOTd8Mzc3LjE3fDM0OS40NXw1LjQ4)" style="stroke-width:.71;stroke:#c0bba5;fill:#c0bba5"/><circle cx="315.74" cy="121.41" r="1.95" clip-path="url(#cpNTAuOTd8Mzc3LjE3fDM0OS40NXw1LjQ4)" style="stroke-width:.71;stroke:#c0bba5;fill:#c0bba5"/><circle cx="276.17" cy="174.51" r="1.95" clip-path="url(#cpNTAuOTd8Mzc3LjE3fDM0OS40NXw1LjQ4)" style="stroke-width:.71;stroke:#c0bba5;fill:#c0bba5"/><circle cx="135.02" cy="268.91" r="1.95" clip-path="url(#cpNTAuOTd8Mzc3LjE3fDM0OS40NXw1LjQ4)" style="stroke-width:.71;stroke:#4c0000;fill:#4c0000"/><circle cx="284.65" cy="80.11" r="1.95" clip-path="url(#cpNTAuOTd8Mzc3LjE3fDM0OS40NXw1LjQ4)" style="stroke-width:.71;stroke:#c0bba5;fill:#c0bba5"/><circle cx="118.08" cy="292.51" r="1.95" clip-path="url(#cpNTAuOTd8Mzc3LjE3fDM0OS40NXw1LjQ4)" style="stroke-width:.71;stroke:#4c0000;fill:#4c0000"/><circle cx="307.27" cy="56.51" r="1.95" clip-path="url(#cpNTAuOTd8Mzc3LjE3fDM0OS40NXw1LjQ4)" style="stroke-width:.71;stroke:#c0bba5;fill:#c0bba5"/><circle cx="89.78" cy="268.91" r="1.95" clip-path="url(#cpNTAuOTd8Mzc3LjE3fDM0OS40NXw1LjQ4)" style="stroke-width:.71;stroke:#4c0000;fill:#4c0000"/><circle cx="86.98" cy="268.91" r="1.95" clip-path="url(#cpNTAuOTd8Mzc3LjE3fDM0OS40NXw1LjQ4)" style="stroke-width:.71;stroke:#4c0000;fill:#4c0000"/><circle cx="293.12" cy="133.21" r="1.95" clip-path="url(#cpNTAuOTd8Mzc3LjE3fDM0OS40NXw1LjQ4)" style="stroke-width:.71;stroke:#c0bba5;fill:#c0bba5"/><circle cx="264.91" cy="121.41" r="1.95" clip-path="url(#cpNTAuOTd8Mzc3LjE3fDM0OS40NXw1LjQ4)" style="stroke-width:.71;stroke:#c0bba5;fill:#c0bba5"/><circle cx="127.9" cy="209.91" r="1.95" clip-path="url(#cpNTAuOTd8Mzc3LjE3fDM0OS40NXw1LjQ4)" style="stroke-width:.71;stroke:#4c0000;fill:#4c0000"/><circle cx="281.85" cy="145.01" r="1.95" clip-path="url(#cpNTAuOTd8Mzc3LjE3fDM0OS40NXw1LjQ4)" style="stroke-width:.71;stroke:#c0bba5;fill:#c0bba5"/><circle cx="129.34" cy="310.21" r="1.95" clip-path="url(#cpNTAuOTd8Mzc3LjE3fDM0OS40NXw1LjQ4)" style="stroke-width:.71;stroke:#4c0000;fill:#4c0000"/><circle cx="348.19" cy="80.11" r="1.95" clip-path="url(#cpNTAuOTd8Mzc3LjE3fDM0OS40NXw1LjQ4)" style="stroke-width:.71;stroke:#c0bba5;fill:#c0bba5"/><circle cx="175.94" cy="215.81" r="1.95" clip-path="url(#cpNTAuOTd8Mzc3LjE3fDM0OS40NXw1LjQ4)" style="stroke-width:.71;stroke:#7b2f2f;fill:#7b2f2f"/><circle cx="318.54" cy="86.01" r="1.95" clip-path="url(#cpNTAuOTd8Mzc3LjE3fDM0OS40NXw1LjQ4)" style="stroke-width:.71;stroke:#c0bba5;fill:#c0bba5"/><circle cx="254.99" cy="103.71" r="1.95" clip-path="url(#cpNTAuOTd8Mzc3LjE3fDM0OS40NXw1LjQ4)" style="stroke-width:.71;stroke:#c0bba5;fill:#c0bba5"/><circle cx="106.72" cy="251.21" r="1.95" clip-path="url(#cpNTAuOTd8Mzc3LjE3fDM0OS40NXw1LjQ4)" style="stroke-width:.71;stroke:#4c0000;fill:#4c0000"/><circle cx="300.24" cy="103.71" r="1.95" clip-path="url(#cpNTAuOTd8Mzc3LjE3fDM0OS40NXw1LjQ4)" style="stroke-width:.71;stroke:#c0bba5;fill:#c0bba5"/><circle cx="110.96" cy="192.21" r="1.95" clip-path="url(#cpNTAuOTd8Mzc3LjE3fDM0OS40NXw1LjQ4)" style="stroke-width:.71;stroke:#4c0000;fill:#4c0000"/><circle cx="298.8" cy="150.91" r="1.95" clip-path="url(#cpNTAuOTd8Mzc3LjE3fDM0OS40NXw1LjQ4)" style="stroke-width:.71;stroke:#c0bba5;fill:#c0bba5"/><circle cx="116.63" cy="268.91" r="1.95" clip-path="url(#cpNTAuOTd8Mzc3LjE3fDM0OS40NXw1LjQ4)" style="stroke-width:.71;stroke:#4c0000;fill:#4c0000"/><circle cx="307.27" cy="97.81" r="1.95" clip-path="url(#cpNTAuOTd8Mzc3LjE3fDM0OS40NXw1LjQ4)" style="stroke-width:.71;stroke:#c0bba5;fill:#c0bba5"/><circle cx="232.46" cy="156.81" r="1.95" clip-path="url(#cpNTAuOTd8Mzc3LjE3fDM0OS40NXw1LjQ4)" style="stroke-width:.71;stroke:#c0bba5;fill:#c0bba5"/><circle cx="311.5" cy="156.81" r="1.95" clip-path="url(#cpNTAuOTd8Mzc3LjE3fDM0OS40NXw1LjQ4)" style="stroke-width:.71;stroke:#c0bba5;fill:#c0bba5"/><circle cx="281.85" cy="68.31" r="1.95" clip-path="url(#cpNTAuOTd8Mzc3LjE3fDM0OS40NXw1LjQ4)" style="stroke-width:.71;stroke:#c0bba5;fill:#c0bba5"/><circle cx="253.64" cy="115.51" r="1.95" clip-path="url(#cpNTAuOTd8Mzc3LjE3fDM0OS40NXw1LjQ4)" style="stroke-width:.71;stroke:#c0bba5;fill:#c0bba5"/><circle cx="262.11" cy="168.61" r="1.95" clip-path="url(#cpNTAuOTd8Mzc3LjE3fDM0OS40NXw1LjQ4)" style="stroke-width:.71;stroke:#c0bba5;fill:#c0bba5"/><circle cx="307.27" cy="97.81" r="1.95" clip-path="url(#cpNTAuOTd8Mzc3LjE3fDM0OS40NXw1LjQ4)" style="stroke-width:.71;stroke:#c0bba5;fill:#c0bba5"/><circle cx="99.69" cy="257.11" r="1.95" clip-path="url(#cpNTAuOTd8Mzc3LjE3fDM0OS40NXw1LjQ4)" style="stroke-width:.71;stroke:#4c0000;fill:#4c0000"/><circle cx="293.12" cy="121.41" r="1.95" clip-path="url(#cpNTAuOTd8Mzc3LjE3fDM0OS40NXw1LjQ4)" style="stroke-width:.71;stroke:#c0bba5;fill:#c0bba5"/><circle cx="334.13" cy="127.31" r="1.95" clip-path="url(#cpNTAuOTd8Mzc3LjE3fDM0OS40NXw1LjQ4)" style="stroke-width:.71;stroke:#c0bba5;fill:#c0bba5"/><circle cx="314.3" cy="91.91" r="1.95" clip-path="url(#cpNTAuOTd8Mzc3LjE3fDM0OS40NXw1LjQ4)" style="stroke-width:.71;stroke:#c0bba5;fill:#c0bba5"/><circle cx="86.98" cy="245.31" r="1.95" clip-path="url(#cpNTAuOTd8Mzc3LjE3fDM0OS40NXw1LjQ4)" style="stroke-width:.71;stroke:#4c0000;fill:#4c0000"/><circle cx="290.32" cy="97.81" r="1.95" clip-path="url(#cpNTAuOTd8Mzc3LjE3fDM0OS40NXw1LjQ4)" style="stroke-width:.71;stroke:#c0bba5;fill:#c0bba5"/><circle cx="98.25" cy="333.81" r="1.95" clip-path="url(#cpNTAuOTd8Mzc3LjE3fDM0OS40NXw1LjQ4)" style="stroke-width:.71;stroke:#4c0000;fill:#4c0000"/><circle cx="120.87" cy="233.51" r="1.95" clip-path="url(#cpNTAuOTd8Mzc3LjE3fDM0OS40NXw1LjQ4)" style="stroke-width:.71;stroke:#4c0000;fill:#4c0000"/><circle cx="332.69" cy="145.01" r="1.95" clip-path="url(#cpNTAuOTd8Mzc3LjE3fDM0OS40NXw1LjQ4)" style="stroke-width:.71;stroke:#c0bba5;fill:#c0bba5"/><circle cx="279.05" cy="109.61" r="1.95" clip-path="url(#cpNTAuOTd8Mzc3LjE3fDM0OS40NXw1LjQ4)" style="stroke-width:.71;stroke:#c0bba5;fill:#c0bba5"/><circle cx="112.4" cy="316.11" r="1.95" clip-path="url(#cpNTAuOTd8Mzc3LjE3fDM0OS40NXw1LjQ4)" style="stroke-width:.71;stroke:#4c0000;fill:#4c0000"/><circle cx="304.47" cy="56.51" r="1.95" clip-path="url(#cpNTAuOTd8Mzc3LjE3fDM0OS40NXw1LjQ4)" style="stroke-width:.71;stroke:#c0bba5;fill:#c0bba5"/><circle cx="84.18" cy="316.11" r="1.95" clip-path="url(#cpNTAuOTd8Mzc3LjE3fDM0OS40NXw1LjQ4)" style="stroke-width:.71;stroke:#4c0000;fill:#4c0000"/><circle cx="308.71" cy="150.91" r="1.95" clip-path="url(#cpNTAuOTd8Mzc3LjE3fDM0OS40NXw1LjQ4)" style="stroke-width:.71;stroke:#c0bba5;fill:#c0bba5"/><defs><clipPath id="cpMC4wMHw1MDQuMDB8Mzc4LjAwfDAuMDA="><rect width="504" height="378" x="0" y="0"/></clipPath></defs><g clip-path="url(#cpMC4wMHw1MDQuMDB8Mzc4LjAwfDAuMDA=)"><text x="35.36" y="295.95" lengthAdjust="spacingAndGlyphs" textLength="10.68" style="font-size:9.6px;fill:#4d4d4d;font-family:Arial">50</text></g><g clip-path="url(#cpMC4wMHw1MDQuMDB8Mzc4LjAwfDAuMDA=)"><text x="35.36" y="236.95" lengthAdjust="spacingAndGlyphs" textLength="10.68" style="font-size:9.6px;fill:#4d4d4d;font-family:Arial">60</text></g><g clip-path="url(#cpMC4wMHw1MDQuMDB8Mzc4LjAwfDAuMDA=)"><text x="35.36" y="177.95" lengthAdjust="spacingAndGlyphs" textLength="10.68" style="font-size:9.6px;fill:#4d4d4d;font-family:Arial">70</text></g><g clip-path="url(#cpMC4wMHw1MDQuMDB8Mzc4LjAwfDAuMDA=)"><text x="35.36" y="118.95" lengthAdjust="spacingAndGlyphs" textLength="10.68" style="font-size:9.6px;fill:#4d4d4d;font-family:Arial">80</text></g><g clip-path="url(#cpMC4wMHw1MDQuMDB8Mzc4LjAwfDAuMDA=)"><text x="35.36" y="59.95" lengthAdjust="spacingAndGlyphs" textLength="10.68" style="font-size:9.6px;fill:#4d4d4d;font-family:Arial">90</text></g><polyline points="48.23 292.51 50.97 292.51" clip-path="url(#cpMC4wMHw1MDQuMDB8Mzc4LjAwfDAuMDA=)" style="stroke-width:1.07;stroke:#333;stroke-linecap:butt"/><polyline points="48.23 233.51 50.97 233.51" clip-path="url(#cpMC4wMHw1MDQuMDB8Mzc4LjAwfDAuMDA=)" style="stroke-width:1.07;stroke:#333;stroke-linecap:butt"/><polyline points="48.23 174.51 50.97 174.51" clip-path="url(#cpMC4wMHw1MDQuMDB8Mzc4LjAwfDAuMDA=)" style="stroke-width:1.07;stroke:#333;stroke-linecap:butt"/><polyline points="48.23 115.51 50.97 115.51" clip-path="url(#cpMC4wMHw1MDQuMDB8Mzc4LjAwfDAuMDA=)" style="stroke-width:1.07;stroke:#333;stroke-linecap:butt"/><polyline points="48.23 56.51 50.97 56.51" clip-path="url(#cpMC4wMHw1MDQuMDB8Mzc4LjAwfDAuMDA=)" style="stroke-width:1.07;stroke:#333;stroke-linecap:butt"/><polyline points="99.69 352.19 99.69 349.45" clip-path="url(#cpMC4wMHw1MDQuMDB8Mzc4LjAwfDAuMDA=)" style="stroke-width:1.07;stroke:#333;stroke-linecap:butt"/><polyline points="184.42 352.19 184.42 349.45" clip-path="url(#cpMC4wMHw1MDQuMDB8Mzc4LjAwfDAuMDA=)" style="stroke-width:1.07;stroke:#333;stroke-linecap:butt"/><polyline points="269.14 352.19 269.14 349.45" clip-path="url(#cpMC4wMHw1MDQuMDB8Mzc4LjAwfDAuMDA=)" style="stroke-width:1.07;stroke:#333;stroke-linecap:butt"/><polyline points="353.87 352.19 353.87 349.45" clip-path="url(#cpMC4wMHw1MDQuMDB8Mzc4LjAwfDAuMDA=)" style="stroke-width:1.07;stroke:#333;stroke-linecap:butt"/><g clip-path="url(#cpMC4wMHw1MDQuMDB8Mzc4LjAwfDAuMDA=)"><text x="97.02" y="361.25" lengthAdjust="spacingAndGlyphs" textLength="5.34" style="font-size:9.6px;fill:#4d4d4d;font-family:Arial">2</text></g><g clip-path="url(#cpMC4wMHw1MDQuMDB8Mzc4LjAwfDAuMDA=)"><text x="181.75" y="361.25" lengthAdjust="spacingAndGlyphs" textLength="5.34" style="font-size:9.6px;fill:#4d4d4d;font-family:Arial">3</text></g><g clip-path="url(#cpMC4wMHw1MDQuMDB8Mzc4LjAwfDAuMDA=)"><text x="266.47" y="361.25" lengthAdjust="spacingAndGlyphs" textLength="5.34" style="font-size:9.6px;fill:#4d4d4d;font-family:Arial">4</text></g><g clip-path="url(#cpMC4wMHw1MDQuMDB8Mzc4LjAwfDAuMDA=)"><text x="351.2" y="361.25" lengthAdjust="spacingAndGlyphs" textLength="5.34" style="font-size:9.6px;fill:#4d4d4d;font-family:Arial">5</text></g><g clip-path="url(#cpMC4wMHw1MDQuMDB8Mzc4LjAwfDAuMDA=)"><text x="337.68" y="371.42" lengthAdjust="spacingAndGlyphs" textLength="39.49" style="font-size:9.6px;fill:#4d4d4d;font-family:Arial">eruptions</text></g><g clip-path="url(#cpMC4wMHw1MDQuMDB8Mzc4LjAwfDAuMDA=)"><text x="5.48" y="12.35" lengthAdjust="spacingAndGlyphs" textLength="29.88" style="font-size:9.6px;fill:#4d4d4d;font-family:Arial">waiting</text></g><rect width="110.39" height="84.34" x="388.13" y="135.29" clip-path="url(#cpMC4wMHw1MDQuMDB8Mzc4LjAwfDAuMDA=)" style="stroke-width:1.07;stroke:none"/><g clip-path="url(#cpMC4wMHw1MDQuMDB8Mzc4LjAwfDAuMDA=)"><text x="393.61" y="153.18" lengthAdjust="spacingAndGlyphs" textLength="100.04" style="font-size:15px;fill:#4d4d4d;font-family:Arial">Prob. Cluster 1</text></g><rect width="17.28" height="17.28" x="393.61" y="162.31" clip-path="url(#cpMC4wMHw1MDQuMDB8Mzc4LjAwfDAuMDA=)" style="stroke-width:1.07;stroke:none"/><circle cx="402.25" cy="170.95" r="1.95" clip-path="url(#cpMC4wMHw1MDQuMDB8Mzc4LjAwfDAuMDA=)" style="stroke-width:.71;stroke:#af9a6d;fill:#af9a6d"/><rect width="17.28" height="17.28" x="393.61" y="179.59" clip-path="url(#cpMC4wMHw1MDQuMDB8Mzc4LjAwfDAuMDA=)" style="stroke-width:1.07;stroke:none"/><circle cx="402.25" cy="188.23" r="1.95" clip-path="url(#cpMC4wMHw1MDQuMDB8Mzc4LjAwfDAuMDA=)" style="stroke-width:.71;stroke:#a16d5a;fill:#a16d5a"/><rect width="17.28" height="17.28" x="393.61" y="196.87" clip-path="url(#cpMC4wMHw1MDQuMDB8Mzc4LjAwfDAuMDA=)" style="stroke-width:1.07;stroke:none"/><circle cx="402.25" cy="205.51" r="1.95" clip-path="url(#cpMC4wMHw1MDQuMDB8Mzc4LjAwfDAuMDA=)" style="stroke-width:.71;stroke:#863a3a;fill:#863a3a"/><g clip-path="url(#cpMC4wMHw1MDQuMDB8Mzc4LjAwfDAuMDA=)"><text x="418.36" y="174.39" lengthAdjust="spacingAndGlyphs" textLength="18.68" style="font-size:9.6px;fill:#4d4d4d;font-family:Arial">0.25</text></g><g clip-path="url(#cpMC4wMHw1MDQuMDB8Mzc4LjAwfDAuMDA=)"><text x="418.36" y="191.67" lengthAdjust="spacingAndGlyphs" textLength="18.68" style="font-size:9.6px;fill:#4d4d4d;font-family:Arial">0.50</text></g><g clip-path="url(#cpMC4wMHw1MDQuMDB8Mzc4LjAwfDAuMDA=)"><text x="418.36" y="208.95" lengthAdjust="spacingAndGlyphs" textLength="18.68" style="font-size:9.6px;fill:#4d4d4d;font-family:Arial">0.75</text></g></svg>