<svg xmlns="http://www.w3.org/2000/svg" xmlns:xlink="http://www.w3.org/1999/xlink" viewBox="0 0 504 378"><defs><style type="text/css">line,polyline,rect{fill:none;stroke:#000;stroke-linecap:round;stroke-linejoin:round;stroke-miterlimit:10}</style></defs><rect width="100%" height="100%" style="stroke:none;fill:none"/><rect width="504" height="378" x="0" y="0" style="stroke-width:1.07;stroke:none"/><defs><clipPath id="cpNTEuNDV8NDk4LjUyfDMzNC42MHw1LjQ4"><rect width="447.07" height="329.12" x="51.45" y="5.48"/></clipPath></defs><line x1="234.34" x2="234.34" y1="334.6" y2="5.48" clip-path="url(#cpNTEuNDV8NDk4LjUyfDMzNC42MHw1LjQ4)" style="stroke-width:1.07;stroke:#000;stroke-opacity:.5;stroke-dasharray:5.69,5.69;stroke-linecap:butt"/><line x1="51.45" x2="498.52" y1="20.44" y2="20.44" clip-path="url(#cpNTEuNDV8NDk4LjUyfDMzNC42MHw1LjQ4)" style="stroke-width:1.07;stroke:#000;stroke-opacity:.5;stroke-dasharray:5.69,5.69;stroke-linecap:butt"/><polyline points="71.77 277.09 75.88 261.84 79.98 247.23 84.09 233.23 88.19 219.82 92.3 206.98 96.41 194.71 100.51 182.97 104.62 171.76 108.72 161.06 112.83 150.85 116.93 141.12 121.04 131.85 125.14 123.04 129.25 114.67 133.35 106.73 137.46 99.2 141.56 92.08 145.67 85.36 149.77 79.03 153.88 73.06 157.98 67.47 162.09 62.23 166.2 57.34 170.3 52.79 174.41 48.58 178.51 44.69 182.62 41.11 186.72 37.84 190.83 34.88 194.93 32.21 199.04 29.83 203.14 27.74 207.25 25.92 211.35 24.37 215.46 23.08 219.56 22.06 223.67 21.28 227.78 20.76 231.88 20.48 235.99 20.44 240.09 20.63 244.2 21.05 248.3 21.7 252.41 22.57 256.51 23.65 260.62 24.94 264.72 26.45 268.83 28.15 272.93 30.06 277.04 32.16 281.14 34.46 285.25 36.94 289.35 39.62 293.46 42.47 297.57 45.51 301.67 48.72 305.78 52.1 309.88 55.66 313.99 59.38 318.09 63.27 322.2 67.31 326.3 71.52 330.41 75.89 334.51 80.41 338.62 85.08 342.72 89.9 346.83 94.87 350.93 99.98 355.04 105.23 359.15 110.63 363.25 116.16 367.36 121.83 371.46 127.63 375.57 133.56 379.67 139.62 383.78 145.82 387.88 152.13 391.99 158.57 396.09 165.14 400.2 171.82 404.3 178.62 408.41 185.54 412.51 192.58 416.62 199.73 420.72 206.99 424.83 214.36 428.94 221.85 433.04 229.44 437.15 237.13 441.25 244.93 445.36 252.84 449.46 260.84 453.57 268.95 457.67 277.16 461.78 285.46 465.88 293.87 469.99 302.36 474.09 310.95 478.2 319.64" clip-path="url(#cpNTEuNDV8NDk4LjUyfDMzNC42MHw1LjQ4)" style="stroke-width:4.27;stroke:#f50;stroke-linecap:butt"/><defs><clipPath id="cpMC4wMHw1MDQuMDB8Mzc4LjAwfDAuMDA="><rect width="504" height="378" x="0" y="0"/></clipPath></defs><polyline points="71.77 337.34 71.77 334.6" clip-path="url(#cpMC4wMHw1MDQuMDB8Mzc4LjAwfDAuMDA=)" style="stroke-width:1.07;stroke:#333;stroke-linecap:butt"/><polyline points="153.06 337.34 153.06 334.6" clip-path="url(#cpMC4wMHw1MDQuMDB8Mzc4LjAwfDAuMDA=)" style="stroke-width:1.07;stroke:#333;stroke-linecap:butt"/><polyline points="234.34 337.34 234.34 334.6" clip-path="url(#cpMC4wMHw1MDQuMDB8Mzc4LjAwfDAuMDA=)" style="stroke-width:1.07;stroke:#333;stroke-linecap:butt"/><polyline points="315.63 337.34 315.63 334.6" clip-path="url(#cpMC4wMHw1MDQuMDB8Mzc4LjAwfDAuMDA=)" style="stroke-width:1.07;stroke:#333;stroke-linecap:butt"/><polyline points="396.91 337.34 396.91 334.6" clip-path="url(#cpMC4wMHw1MDQuMDB8Mzc4LjAwfDAuMDA=)" style="stroke-width:1.07;stroke:#333;stroke-linecap:butt"/><polyline points="478.2 337.34 478.2 334.6" clip-path="url(#cpMC4wMHw1MDQuMDB8Mzc4LjAwfDAuMDA=)" style="stroke-width:1.07;stroke:#333;stroke-linecap:butt"/><g clip-path="url(#cpMC4wMHw1MDQuMDB8Mzc4LjAwfDAuMDA=)"><text x="67.88" y="348.9" lengthAdjust="spacingAndGlyphs" textLength="7.79" style="font-size:14px;fill:#1a1a1a;font-family:Arial">3</text></g><g clip-path="url(#cpMC4wMHw1MDQuMDB8Mzc4LjAwfDAuMDA=)"><text x="149.17" y="348.9" lengthAdjust="spacingAndGlyphs" textLength="7.79" style="font-size:14px;fill:#1a1a1a;font-family:Arial">4</text></g><g clip-path="url(#cpMC4wMHw1MDQuMDB8Mzc4LjAwfDAuMDA=)"><text x="230.45" y="348.9" lengthAdjust="spacingAndGlyphs" textLength="7.79" style="font-size:14px;fill:#1a1a1a;font-family:Arial">5</text></g><g clip-path="url(#cpMC4wMHw1MDQuMDB8Mzc4LjAwfDAuMDA=)"><text x="311.74" y="348.9" lengthAdjust="spacingAndGlyphs" textLength="7.79" style="font-size:14px;fill:#1a1a1a;font-family:Arial">6</text></g><g clip-path="url(#cpMC4wMHw1MDQuMDB8Mzc4LjAwfDAuMDA=)"><text x="393.02" y="348.9" lengthAdjust="spacingAndGlyphs" textLength="7.79" style="font-size:14px;fill:#1a1a1a;font-family:Arial">7</text></g><g clip-path="url(#cpMC4wMHw1MDQuMDB8Mzc4LjAwfDAuMDA=)"><text x="474.31" y="348.9" lengthAdjust="spacingAndGlyphs" textLength="7.79" style="font-size:14px;fill:#1a1a1a;font-family:Arial">8</text></g><g clip-path="url(#cpMC4wMHw1MDQuMDB8Mzc4LjAwfDAuMDA=)"><text x="266.48" y="369.88" lengthAdjust="spacingAndGlyphs" textLength="17.02" style="font-size:24px;fill:#1a1a1a;font-family:PT Serif">θ</text></g><g clip-path="url(#cpMC4wMHw1MDQuMDB8Mzc4LjAwfDAuMDA=)"><text x="5.48" y="173.48" lengthAdjust="spacingAndGlyphs" textLength="43.23" style="font-size:9.6px;fill:#4d4d4d;font-family:Arial">Likelihood</text></g></svg>