<svg xmlns="http://www.w3.org/2000/svg" xmlns:xlink="http://www.w3.org/1999/xlink" viewBox="0 0 504 378"><defs><style type="text/css">circle,line,polyline,rect{fill:none;stroke:#000;stroke-linecap:round;stroke-linejoin:round;stroke-miterlimit:10}</style></defs><rect width="100%" height="100%" style="stroke:none;fill:none"/><rect width="504" height="378" x="0" y="0" style="stroke-width:1.07;stroke:none"/><defs><clipPath id="cpNjUuOTF8NDk4LjUyfDMzOS40M3w1LjQ4"><rect width="432.61" height="333.95" x="65.91" y="5.48"/></clipPath></defs><polyline points="85.58 324.25 85.78 324.23 85.82 324.22 86.93 324.09 88.26 323.94 88.83 323.87 88.92 323.86 89.4 323.8 89.45 323.79 89.52 323.78 89.69 323.76 90.21 323.7 90.22 323.7 90.33 323.68 91.6 323.52 92.13 323.45 93.33 323.29 94.01 323.2 94.25 323.17 94.61 323.12 95.89 322.95 96 322.93 96.24 322.9 96.63 322.84 97.17 322.76 97.55 322.71 98.62 322.55 98.71 322.54 98.95 322.51 99.05 322.49 99.18 322.47 99.31 322.45 99.75 322.39 100.49 322.27 100.51 322.27 101.41 322.13 101.86 322.06 101.95 322.05 102.08 322.03 103.03 321.88 103.35 321.82 103.94 321.73 104.61 321.62 104.92 321.57 105.05 321.55 105.06 321.55 105.38 321.49 105.59 321.46 105.83 321.42 106.4 321.32 106.78 321.25 107.65 321.1 107.87 321.06 108.02 321.04 108.27 320.99 108.65 320.93 109.39 320.79 109.46 320.78 109.56 320.76 109.78 320.72 110.18 320.65 110.19 320.65 110.44 320.6 110.62 320.57 110.64 320.56 110.97 320.5 111.24 320.45 111.28 320.44 112.01 320.31 112.64 320.19 112.89 320.14 113.08 320.1 113.59 320 113.8 319.96 113.9 319.94 114.7 319.78 115.13 319.69 115.29 319.66 115.34 319.65 115.41 319.64 115.44 319.63 116.34 319.45 117.45 319.22 117.79 319.14 118.24 319.05 118.66 318.96 118.91 318.9 119.08 318.87 121.94 318.23 122.1 318.19 122.23 318.16 122.41 318.12 122.53 318.09 123.58 317.84 124.11 317.72 124.23 317.69 124.5 317.62 124.78 317.55 125.69 317.33 126.4 317.16 126.43 317.15 127.06 316.99 127.57 316.86 127.91 316.78 128 316.75 128.02 316.75 128.52 316.62 129.76 316.29 130.48 316.1 131.21 315.9 131.42 315.84 131.88 315.72 132.03 315.68 132.43 315.56 132.9 315.43 132.98 315.41 133.67 315.21 133.78 315.18 134.5 314.97 134.57 314.95 135.6 314.65 135.69 314.63 135.92 314.56 136.01 314.53 136.81 314.29 136.82 314.29 137.13 314.19 137.31 314.14 137.37 314.12 137.73 314.01 137.87 313.96 137.9 313.96 138.03 313.92 138.81 313.67 139.3 313.52 139.65 313.41 140.64 313.09 141.22 312.9 141.44 312.83 141.49 312.81 141.62 312.77 141.68 312.75 142.78 312.38 143.08 312.28 143.14 312.26 143.28 312.21 143.4 312.17 143.43 312.16 143.47 312.15 145.23 311.53 146.03 311.25 146.04 311.25 146.26 311.17 146.78 310.98 147.13 310.85 147.37 310.77 147.44 310.74 147.98 310.54 148.7 310.27 148.9 310.2 149.28 310.05 149.77 309.87 150 309.78 150.05 309.76 150.2 309.7 150.22 309.7 151.11 309.35 151.74 309.1 151.84 309.06 152.1 308.96 152.72 308.71 153.36 308.45 153.45 308.41 154.03 308.18 154.51 307.98 154.55 307.96 154.59 307.94 154.84 307.84 155.03 307.76 155.12 307.72 155.14 307.71 156.29 307.23 156.41 307.18 156.43 307.16 157.94 306.51 158.39 306.31 158.87 306.09 158.97 306.05 159.06 306.01 159.16 305.96 159.57 305.78 159.8 305.67 160.38 305.41 160.38 305.41 160.75 305.24 160.79 305.22 161.19 305.03 161.37 304.95 162.7 304.32 163.6 303.88 164.48 303.45 164.6 303.39 164.88 303.25 164.97 303.21 165.88 302.75 166.18 302.61 166.24 302.57 166.79 302.29 166.99 302.19 167.22 302.07 168.13 301.6 168.6 301.35 168.8 301.24 168.82 301.23 169.02 301.12 170.84 300.14 171.17 299.96 171.71 299.66 172.21 299.38 172.41 299.27 173.18 298.83 173.52 298.64 173.72 298.52 173.97 298.38 174.21 298.24 175.11 297.72 175.82 297.3 176.49 296.9 177.57 296.24 178.5 295.67 179.08 295.31 179.13 295.27 179.43 295.09 179.43 295.08 179.62 294.96 179.62 294.96 179.9 294.79 180.2 294.6 180.65 294.31 180.74 294.25 181.46 293.78 181.74 293.6 182.62 293.02 182.68 292.98 184.31 291.89 185.87 290.82 186.02 290.71 186.34 290.49 186.52 290.36 186.67 290.25 186.73 290.21 186.9 290.09 187.73 289.5 187.82 289.44 188.41 289.01 188.43 289 188.45 288.98 189.13 288.49 189.27 288.38 189.63 288.12 190.29 287.63 190.3 287.63 190.41 287.54 190.55 287.43 190.98 287.12 191.11 287.02 191.49 286.73 191.93 286.4 192.13 286.24 192.49 285.97 192.67 285.83 194.02 284.78 194.09 284.72 194.41 284.47 194.44 284.44 194.53 284.38 195.62 283.5 196.17 283.06 196.46 282.82 196.6 282.71 196.7 282.63 197.22 282.21 198.84 280.85 200.19 279.71 200.43 279.5 200.69 279.28 200.69 279.28 200.74 279.23 200.84 279.15 202.3 277.87 202.48 277.71 202.67 277.54 203.87 276.46 204.16 276.2 205.45 275.03 205.74 274.75 206.38 274.17 206.47 274.08 207.84 272.79 207.95 272.69 208.12 272.52 208.8 271.87 209.46 271.23 209.61 271.08 209.96 270.75 210.28 270.43 211.67 269.06 211.94 268.79 213 267.72 213.15 267.56 213.19 267.52 213.84 266.86 214.29 266.39 214.53 266.16 214.54 266.14 215.28 265.37 215.89 264.73 215.96 264.66 216.31 264.29 216.41 264.19 216.44 264.15 216.51 264.08 217.12 263.44 217.18 263.37 217.28 263.26 217.56 262.96 217.73 262.78 218.02 262.47 218.42 262.04 218.59 261.85 218.95 261.46 219.05 261.35 219.1 261.3 219.67 260.67 220.04 260.27 220.73 259.51 221.39 258.77 221.59 258.54 221.81 258.3 222.09 257.98 222.2 257.86 222.21 257.84 222.23 257.82 222.33 257.71 222.4 257.63 222.48 257.53 223.14 256.78 223.52 256.36 223.55 256.31 224.16 255.62 224.31 255.44 224.43 255.31 225.51 254.04 225.55 254 225.63 253.9 225.81 253.69 226.3 253.12 227.01 252.28 227.58 251.6 227.74 251.41 228.29 250.74 229.42 249.38 229.58 249.18 230.41 248.16 230.45 248.11 230.88 247.58 230.9 247.57 230.91 247.54 231.12 247.29 231.48 246.84 231.9 246.32 231.98 246.22 232.54 245.52 232.83 245.15 234.22 243.39 234.43 243.13 234.66 242.83 234.73 242.74 234.91 242.51 235.35 241.94 235.39 241.89 235.65 241.55 235.7 241.49 236 241.1 236.18 240.86 236.33 240.68 236.41 240.57 237.11 239.65 237.12 239.64 237.52 239.12 237.89 238.63 238.22 238.2 238.65 237.63 238.68 237.59 239.18 236.92 239.58 236.39 240.2 235.55 241.46 233.85 241.68 233.55 241.74 233.48 242.05 233.05 242.23 232.8 242.33 232.67 242.59 232.32 242.77 232.08 242.92 231.87 243.45 231.13 244.83 229.23 244.86 229.19 244.87 229.17 245.28 228.6 245.85 227.8 246.56 226.8 246.98 226.21 247.03 226.14 247.76 225.11 248.51 224.03 248.62 223.88 248.83 223.57 249.62 222.45 249.8 222.18 249.81 222.17 250.45 221.24 250.55 221.1 251.03 220.4 251.49 219.74 251.68 219.46 251.87 219.19 252.1 218.85 252.87 217.73 253.75 216.42 253.8 216.35 253.91 216.19 254.25 215.68 254.29 215.63 254.98 214.61 254.98 214.6 255.49 213.84 255.9 213.24 255.99 213.1 256.24 212.73 256.26 212.7 256.33 212.59 256.37 212.54 256.76 211.96 257.13 211.39 257.59 210.7 257.62 210.67 257.77 210.44 258.92 208.7 259.13 208.37 259.19 208.28 259.19 208.28 259.33 208.07 259.36 208.02 260.8 205.84 260.82 205.81 261.66 204.52 262.47 203.27 263 202.45 263.29 202.01 263.35 201.92 263.51 201.67 263.81 201.2 264.09 200.77 264.36 200.36 264.7 199.83 264.78 199.71 265.85 198.04 266.05 197.73 266.26 197.41 266.57 196.92 266.83 196.51 267.29 195.79 267.78 195.03 269.02 193.08 269.86 191.76 270.21 191.21 270.42 190.87 270.92 190.09 271.04 189.9 271.14 189.74 271.16 189.7 271.54 189.11 271.75 188.77 272.28 187.93 272.45 187.66 272.59 187.44 272.66 187.34 273 186.79 273.04 186.74 273.09 186.64 273.16 186.54 273.2 186.48 273.35 186.23 273.52 185.97 274.03 185.16 274.91 183.75 274.95 183.7 275.81 182.33 276.06 181.93 276.33 181.5 276.52 181.2 277.59 179.49 277.93 178.94 278.02 178.8 278.04 178.76 279.05 177.15 279.1 177.07 279.34 176.69 279.43 176.55 279.87 175.85 280 175.63 280.03 175.59 280.24 175.26 280.67 174.57 281.06 173.93 281.13 173.83 281.39 173.42 282.14 172.2 282.31 171.95 282.66 171.38 282.74 171.26 282.86 171.06 283.29 170.38 284.15 169 284.27 168.8 284.7 168.11 284.74 168.05 284.87 167.84 284.98 167.67 285.96 166.11 286.29 165.58 286.37 165.45 287.77 163.21 288.09 162.71 288.32 162.34 288.59 161.92 288.67 161.78 289.04 161.19 289.29 160.8 289.31 160.77 290.73 158.5 290.82 158.37 291.42 157.42 291.94 156.6 292.22 156.14 292.64 155.48 292.73 155.35 292.91 155.05 293.02 154.89 293.64 153.9 293.67 153.85 294.1 153.17 294.11 153.16 294.81 152.06 294.99 151.78 296.88 148.81 297.25 148.24 297.51 147.83 297.64 147.63 298.5 146.28 298.56 146.19 298.64 146.06 299.39 144.9 300.22 143.62 300.74 142.82 300.94 142.51 302.16 140.63 302.86 139.56 303.03 139.3 303.31 138.88 303.35 138.81 303.59 138.44 304.48 137.09 305.33 135.8 305.95 134.86 306.38 134.21 306.46 134.1 306.7 133.74 307.28 132.87 307.68 132.27 308.63 130.85 310.39 128.24 311.46 126.68 312.22 125.56 312.75 124.79 312.8 124.72 312.83 124.68 313.98 123.01 314.35 122.48 316.25 119.77 316.6 119.27 316.65 119.19 316.79 118.99 317.64 117.8 318.33 116.83 318.83 116.13 319.66 114.97 319.95 114.57 320.27 114.14 320.6 113.67 320.72 113.51 320.87 113.31 321.18 112.88 321.96 111.81 322.77 110.72 322.77 110.72 322.85 110.61 323.3 110 323.44 109.81 323.89 109.21 325.08 107.62 325.19 107.47 325.3 107.33 326.25 106.08 327.12 104.93 329.39 102 329.4 101.99 329.54 101.8 329.65 101.66 329.93 101.31 330.58 100.48 330.95 100.02 331.09 99.84 331.3 99.58 331.85 98.89 332.82 97.68 333.33 97.05 333.58 96.74 333.73 96.56 334.54 95.56 335.09 94.9 335.1 94.89 335.51 94.39 336.28 93.46 337.15 92.43 337.98 91.45 338.01 91.42 338.21 91.18 338.72 90.58 338.81 90.48 338.81 90.47 339.5 89.68 339.74 89.4 339.89 89.23 340.26 88.8 340.47 88.55 340.88 88.09 341.39 87.51 341.7 87.15 341.81 87.04 342.36 86.41 342.9 85.81 342.91 85.8 343.47 85.18 344.13 84.45 344.22 84.35 344.54 84 344.91 83.59 345.3 83.17 345.77 82.66 346.17 82.23 346.3 82.09 346.8 81.56 348.03 80.25 348.15 80.13 348.32 79.95 349.06 79.18 349.48 78.75 350.38 77.82 351.21 76.98 351.23 76.96 351.35 76.84 351.51 76.67 351.72 76.46 351.98 76.2 353.43 74.76 353.96 74.24 354.77 73.45 354.87 73.36 355.63 72.63 356.12 72.16 356.57 71.74 356.58 71.72 356.65 71.66 356.9 71.42 357.51 70.85 357.56 70.81 357.87 70.51 358.67 69.78 358.77 69.68 359.24 69.26 359.4 69.11 360.27 68.32 360.63 68 361.71 67.04 361.83 66.93 362.29 66.53 363.04 65.87 363.36 65.6 364.05 65 364.18 64.89 364.27 64.82 365.12 64.1 365.36 63.89 365.55 63.74 365.64 63.66 365.66 63.64 365.67 63.63 366.53 62.92 366.63 62.84 366.87 62.64 366.87 62.64 366.97 62.56 367.27 62.31 367.47 62.15 367.67 61.98 367.8 61.88 368.16 61.59 368.58 61.25 368.78 61.1 369.95 60.16 370.07 60.07 370.07 60.07 370.08 60.06 370.28 59.9 370.38 59.83 370.38 59.83 370.74 59.55 371.44 59.01 371.67 58.83 371.7 58.81 372.28 58.37 372.47 58.22 372.92 57.88 373.09 57.75 373.26 57.63 373.46 57.47 373.5 57.44 373.62 57.36 374.52 56.69 375.43 56.03 376.35 55.37 376.87 54.99 376.91 54.96 377.66 54.44 377.71 54.4 378.5 53.85 379.13 53.42 379.5 53.17 380.36 52.58 380.77 52.3 380.91 52.22 381.02 52.14 381.04 52.13 381.74 51.66 382.28 51.31 382.33 51.28 383.04 50.81 383.15 50.75 383.22 50.7 383.62 50.45 383.85 50.3 384.49 49.89 385.14 49.48 385.21 49.44 385.63 49.18 386.85 48.43 387.06 48.31 387.18 48.23 387.57 48 388.24 47.6 388.39 47.51 388.56 47.41 388.59 47.39 391 46 391.12 45.93 391.19 45.89 391.24 45.86 391.47 45.73 391.53 45.7 391.67 45.62 391.81 45.54 392.24 45.3 392.64 45.07 393.1 44.82 393.36 44.68 393.4 44.66 393.46 44.62 394.03 44.32 394.19 44.23 395.21 43.68 395.82 43.36 395.88 43.33 395.93 43.31 397.12 42.69 397.33 42.58 397.85 42.32 398.87 41.8 399.06 41.71 399.65 41.42 400.57 40.97 400.78 40.87 401.35 40.6 401.85 40.36 402.69 39.96 404.4 39.17 404.9 38.95 404.96 38.92 405.41 38.72 405.56 38.66 405.73 38.58 407.46 37.82 407.88 37.64 407.98 37.6 408.06 37.56 408.11 37.55 408.37 37.43 408.45 37.4 408.94 37.19 409.1 37.13 410.9 36.39 411.03 36.33 411.18 36.27 411.36 36.2 411.62 36.1 411.67 36.08 411.88 35.99 412.03 35.93 412.59 35.71 412.68 35.68 414.11 35.12 414.58 34.94 414.85 34.84 415.24 34.7 415.65 34.54 416.07 34.38 416.11 34.37 416.4 34.26 416.89 34.08 417.1 34.01 418.08 33.65 418.33 33.56 418.98 33.34 419.6 33.12 419.63 33.11 420.23 32.9 420.47 32.82 421.39 32.51 421.81 32.37 422.22 32.23 422.76 32.05 423.23 31.9 424.02 31.64 424.22 31.58 424.55 31.48 424.74 31.42 425.18 31.28 425.46 31.19 425.54 31.17 425.64 31.13 426.43 30.89 426.6 30.84 427.55 30.55 427.56 30.55 428 30.41 428.86 30.16 429.32 30.03 429.37 30.01 429.78 29.89 430.02 29.82 430.16 29.79 430.47 29.7 430.67 29.64 431.4 29.43 431.75 29.33 431.87 29.3 433.1 28.96 433.68 28.81 434.17 28.68 434.17 28.68 436.43 28.09 436.71 28.02 436.97 27.95 437.57 27.8 437.71 27.77 438.65 27.53 438.87 27.48 439.22 27.4 439.87 27.24 440.38 27.12 440.71 27.04 441.29 26.9 441.7 26.81 441.99 26.74 442.36 26.66 442.37 26.65 442.73 26.57 443.46 26.41 443.59 26.38 444.09 26.27 444.57 26.16 444.93 26.08 446.14 25.82 447.11 25.62 447.58 25.52 447.7 25.5 448.94 25.24 448.98 25.24 449.1 25.21 449.44 25.15 449.47 25.14 449.79 25.08 450.25 24.98 450.6 24.92 450.72 24.89 450.77 24.88 450.83 24.87 451.02 24.83 451.21 24.8 451.55 24.73 452.33 24.58 452.42 24.57 452.46 24.56 453.16 24.43 453.17 24.43 453.19 24.42 453.57 24.35 454.54 24.18 454.63 24.16 454.91 24.11 455.38 24.02 456.07 23.9 456.24 23.87 456.32 23.86 456.42 23.84 456.71 23.79 456.72 23.79 456.99 23.74 457.1 23.72 457.14 23.71 457.84 23.6 457.94 23.58 458.02 23.56 458.39 23.5 458.77 23.44 459.57 23.31 460.51 23.15 460.59 23.14 460.66 23.13 460.92 23.09 461.22 23.04 461.43 23.01 461.67 22.97 462.05 22.91 462.2 22.88 463.12 22.74 463.37 22.7 463.56 22.67 463.69 22.66 463.86 22.63 464.05 22.6 464.44 22.54 464.83 22.48 464.97 22.46 466.76 22.2 466.88 22.18 467.13 22.15 467.25 22.13 467.42 22.11 467.46 22.1 468.54 21.95 468.96 21.89 469.3 21.85 469.5 21.82 470.44 21.69 471.15 21.6 471.41 21.57 471.62 21.54 472.91 21.37 473.01 21.36 473.49 21.3 473.8 21.26 474.49 21.17 474.75 21.14 475.19 21.09 475.21 21.09 475.38 21.07 475.67 21.03 475.7 21.03 476 20.99 476.04 20.99 476.42 20.94 476.49 20.93 477.29 20.84 477.34 20.83 477.35 20.83 478.67 20.68 478.86 20.66" clip-path="url(#cpNjUuOTF8NDk4LjUyfDMzOS40M3w1LjQ4)" style="stroke-width:1.07;stroke:#000;stroke-opacity:.25;stroke-linecap:butt"/><circle cx="232.74" cy="245.26" r="1.95" clip-path="url(#cpNjUuOTF8NDk4LjUyfDMzOS40M3w1LjQ4)" style="stroke-width:.71;stroke:#225b60;fill:#225b60"/><circle cx="281.97" cy="172.48" r="1.95" clip-path="url(#cpNjUuOTF8NDk4LjUyfDMzOS40M3w1LjQ4)" style="stroke-width:.71;stroke:#808133;fill:#808133"/><circle cx="380.43" cy="52.54" r="1.95" clip-path="url(#cpNjUuOTF8NDk4LjUyfDMzOS40M3w1LjQ4)" style="stroke-width:.71;stroke:#f49e71;fill:#f49e71"/><line x1="220.44" x2="245.05" y1="260.74" y2="229.78" clip-path="url(#cpNjUuOTF8NDk4LjUyfDMzOS40M3w1LjQ4)" style="stroke-width:2.13;stroke:#225b60;stroke-linecap:butt"/><line x1="269.66" x2="294.28" y1="192.17" y2="152.8" clip-path="url(#cpNjUuOTF8NDk4LjUyfDMzOS40M3w1LjQ4)" style="stroke-width:2.13;stroke:#808133;stroke-linecap:butt"/><line x1="368.12" x2="392.73" y1="60.81" y2="44.27" clip-path="url(#cpNjUuOTF8NDk4LjUyfDMzOS40M3w1LjQ4)" style="stroke-width:2.13;stroke:#f49e71;stroke-linecap:butt"/><defs><clipPath id="cpMC4wMHw1MDQuMDB8Mzc4LjAwfDAuMDA="><rect width="504" height="378" x="0" y="0"/></clipPath></defs><g clip-path="url(#cpMC4wMHw1MDQuMDB8Mzc4LjAwfDAuMDA=)"><text x="42.3" y="333.41" lengthAdjust="spacingAndGlyphs" textLength="18.68" style="font-size:9.6px;fill:#4d4d4d;font-family:Arial">0.00</text></g><g clip-path="url(#cpMC4wMHw1MDQuMDB8Mzc4LjAwfDAuMDA=)"><text x="42.3" y="254.66" lengthAdjust="spacingAndGlyphs" textLength="18.68" style="font-size:9.6px;fill:#4d4d4d;font-family:Arial">0.25</text></g><g clip-path="url(#cpMC4wMHw1MDQuMDB8Mzc4LjAwfDAuMDA=)"><text x="42.3" y="175.92" lengthAdjust="spacingAndGlyphs" textLength="18.68" style="font-size:9.6px;fill:#4d4d4d;font-family:Arial">0.50</text></g><g clip-path="url(#cpMC4wMHw1MDQuMDB8Mzc4LjAwfDAuMDA=)"><text x="42.3" y="97.17" lengthAdjust="spacingAndGlyphs" textLength="18.68" style="font-size:9.6px;fill:#4d4d4d;font-family:Arial">0.75</text></g><g clip-path="url(#cpMC4wMHw1MDQuMDB8Mzc4LjAwfDAuMDA=)"><text x="42.3" y="18.43" lengthAdjust="spacingAndGlyphs" textLength="18.68" style="font-size:9.6px;fill:#4d4d4d;font-family:Arial">1.00</text></g><polyline points="63.17 329.97 65.91 329.97" clip-path="url(#cpMC4wMHw1MDQuMDB8Mzc4LjAwfDAuMDA=)" style="stroke-width:1.07;stroke:#333;stroke-linecap:butt"/><polyline points="63.17 251.23 65.91 251.23" clip-path="url(#cpMC4wMHw1MDQuMDB8Mzc4LjAwfDAuMDA=)" style="stroke-width:1.07;stroke:#333;stroke-linecap:butt"/><polyline points="63.17 172.48 65.91 172.48" clip-path="url(#cpMC4wMHw1MDQuMDB8Mzc4LjAwfDAuMDA=)" style="stroke-width:1.07;stroke:#333;stroke-linecap:butt"/><polyline points="63.17 93.74 65.91 93.74" clip-path="url(#cpMC4wMHw1MDQuMDB8Mzc4LjAwfDAuMDA=)" style="stroke-width:1.07;stroke:#333;stroke-linecap:butt"/><polyline points="63.17 14.99 65.91 14.99" clip-path="url(#cpMC4wMHw1MDQuMDB8Mzc4LjAwfDAuMDA=)" style="stroke-width:1.07;stroke:#333;stroke-linecap:butt"/><polyline points="85.06 342.17 85.06 339.43" clip-path="url(#cpMC4wMHw1MDQuMDB8Mzc4LjAwfDAuMDA=)" style="stroke-width:1.07;stroke:#333;stroke-linecap:butt"/><polyline points="183.51 342.17 183.51 339.43" clip-path="url(#cpMC4wMHw1MDQuMDB8Mzc4LjAwfDAuMDA=)" style="stroke-width:1.07;stroke:#333;stroke-linecap:butt"/><polyline points="281.97 342.17 281.97 339.43" clip-path="url(#cpMC4wMHw1MDQuMDB8Mzc4LjAwfDAuMDA=)" style="stroke-width:1.07;stroke:#333;stroke-linecap:butt"/><polyline points="380.43 342.17 380.43 339.43" clip-path="url(#cpMC4wMHw1MDQuMDB8Mzc4LjAwfDAuMDA=)" style="stroke-width:1.07;stroke:#333;stroke-linecap:butt"/><polyline points="478.88 342.17 478.88 339.43" clip-path="url(#cpMC4wMHw1MDQuMDB8Mzc4LjAwfDAuMDA=)" style="stroke-width:1.07;stroke:#333;stroke-linecap:butt"/><g clip-path="url(#cpMC4wMHw1MDQuMDB8Mzc4LjAwfDAuMDA=)"><text x="80.79" y="351.23" lengthAdjust="spacingAndGlyphs" textLength="8.54" style="font-size:9.6px;fill:#4d4d4d;font-family:Arial">-4</text></g><g clip-path="url(#cpMC4wMHw1MDQuMDB8Mzc4LjAwfDAuMDA=)"><text x="179.25" y="351.23" lengthAdjust="spacingAndGlyphs" textLength="8.54" style="font-size:9.6px;fill:#4d4d4d;font-family:Arial">-2</text></g><g clip-path="url(#cpMC4wMHw1MDQuMDB8Mzc4LjAwfDAuMDA=)"><text x="279.3" y="351.23" lengthAdjust="spacingAndGlyphs" textLength="5.34" style="font-size:9.6px;fill:#4d4d4d;font-family:Arial">0</text></g><g clip-path="url(#cpMC4wMHw1MDQuMDB8Mzc4LjAwfDAuMDA=)"><text x="377.76" y="351.23" lengthAdjust="spacingAndGlyphs" textLength="5.34" style="font-size:9.6px;fill:#4d4d4d;font-family:Arial">2</text></g><g clip-path="url(#cpMC4wMHw1MDQuMDB8Mzc4LjAwfDAuMDA=)"><text x="476.21" y="351.23" lengthAdjust="spacingAndGlyphs" textLength="5.34" style="font-size:9.6px;fill:#4d4d4d;font-family:Arial">4</text></g><g clip-path="url(#cpMC4wMHw1MDQuMDB8Mzc4LjAwfDAuMDA=)"><text x="493.72" y="361.41" lengthAdjust="spacingAndGlyphs" textLength="4.8" style="font-size:9.6px;fill:#4d4d4d;font-family:Arial">x</text></g><g clip-path="url(#cpMC4wMHw1MDQuMDB8Mzc4LjAwfDAuMDA=)"><text x="5.48" y="12.35" lengthAdjust="spacingAndGlyphs" textLength="36.82" style="font-size:9.6px;fill:#4d4d4d;font-family:Arial">nonlin(x)</text></g><g clip-path="url(#cpMC4wMHw1MDQuMDB8Mzc4LjAwfDAuMDA=)"><text x="395.15" y="371.42" lengthAdjust="spacingAndGlyphs" textLength="103.37" style="font-size:4.8px;fill:#4d4d4d;font-family:Arial">This plot reproduces the one in Trask&apos;s blog post</text></g></svg>