<svg xmlns="http://www.w3.org/2000/svg" xmlns:xlink="http://www.w3.org/1999/xlink" viewBox="0 0 504 378"><defs><style type="text/css">line,polyline,rect{fill:none;stroke:#000;stroke-linecap:round;stroke-linejoin:round;stroke-miterlimit:10}</style></defs><rect width="100%" height="100%" style="stroke:none;fill:none"/><rect width="504" height="378" x="0" y="0" style="stroke-width:1.07;stroke:none"/><defs><clipPath id="cpNDkuOTB8NDEyLjk0fDM0OS40NXw1LjQ4"><rect width="363.04" height="343.97" x="49.9" y="5.48"/></clipPath></defs><polyline points="66.4 100.44 83.78 68.31 101.15 49.43 118.52 37.94 135.89 31 153.26 26.88 170.63 24.45 188 23.04 205.37 22.22 222.74 21.75 240.11 21.48 257.48 21.32 274.85 21.23 292.22 21.18 309.59 21.15 326.96 21.13 344.33 21.12 361.7 21.12 379.07 21.12 396.44 21.11" clip-path="url(#cpNDkuOTB8NDEyLjk0fDM0OS40NXw1LjQ4)" style="stroke-width:1.07;stroke:#001959;stroke-linecap:butt"/><polyline points="66.4 125.65 83.78 106.55 101.15 96.67 118.52 91.19 135.89 88.07 153.26 86.28 170.63 85.25 188 84.66 205.37 84.32 222.74 84.13 240.11 84.01 257.48 83.95 274.85 83.91 292.22 83.89 309.59 83.88 326.96 83.87 344.33 83.87 361.7 83.87 379.07 83.86 396.44 83.86" clip-path="url(#cpNDkuOTB8NDEyLjk0fDM0OS40NXw1LjQ4)" style="stroke-width:1.07;stroke:#3e6c54;stroke-linecap:butt"/><polyline points="66.4 130.65 83.78 113.34 101.15 104.07 118.52 98.77 135.89 95.68 153.26 93.87 170.63 92.81 188 92.19 205.37 91.83 222.74 91.62 240.11 91.5 257.48 91.43 274.85 91.39 292.22 91.37 309.59 91.35 326.96 91.35 344.33 91.34 361.7 91.34 379.07 91.34 396.44 91.34" clip-path="url(#cpNDkuOTB8NDEyLjk0fDM0OS40NXw1LjQ4)" style="stroke-width:1.07;stroke:#d49347;stroke-linecap:butt"/><polyline points="66.4 256.64 83.78 292.64 101.15 310.92 118.52 320.88 135.89 326.45 153.26 329.61 170.63 331.41 188 332.44 205.37 333.03 222.74 333.36 240.11 333.56 257.48 333.67 274.85 333.73 292.22 333.76 309.59 333.78 326.96 333.8 344.33 333.8 361.7 333.81 379.07 333.81 396.44 333.81" clip-path="url(#cpNDkuOTB8NDEyLjk0fDM0OS40NXw1LjQ4)" style="stroke-width:1.07;stroke:#f9ccf9;stroke-linecap:butt"/><defs><clipPath id="cpMC4wMHw1MDQuMDB8Mzc4LjAwfDAuMDA="><rect width="504" height="378" x="0" y="0"/></clipPath></defs><g clip-path="url(#cpMC4wMHw1MDQuMDB8Mzc4LjAwfDAuMDA=)"><text x="28.43" y="272.5" lengthAdjust="spacingAndGlyphs" textLength="16.54" style="font-size:9.6px;fill:#4d4d4d;font-family:Arial">-0.2</text></g><g clip-path="url(#cpMC4wMHw1MDQuMDB8Mzc4LjAwfDAuMDA=)"><text x="31.63" y="174.18" lengthAdjust="spacingAndGlyphs" textLength="13.35" style="font-size:9.6px;fill:#4d4d4d;font-family:Arial">0.0</text></g><g clip-path="url(#cpMC4wMHw1MDQuMDB8Mzc4LjAwfDAuMDA=)"><text x="31.63" y="75.85" lengthAdjust="spacingAndGlyphs" textLength="13.35" style="font-size:9.6px;fill:#4d4d4d;font-family:Arial">0.2</text></g><polyline points="47.16 269.06 49.9 269.06" clip-path="url(#cpMC4wMHw1MDQuMDB8Mzc4LjAwfDAuMDA=)" style="stroke-width:1.07;stroke:#333;stroke-linecap:butt"/><polyline points="47.16 170.74 49.9 170.74" clip-path="url(#cpMC4wMHw1MDQuMDB8Mzc4LjAwfDAuMDA=)" style="stroke-width:1.07;stroke:#333;stroke-linecap:butt"/><polyline points="47.16 72.42 49.9 72.42" clip-path="url(#cpMC4wMHw1MDQuMDB8Mzc4LjAwfDAuMDA=)" style="stroke-width:1.07;stroke:#333;stroke-linecap:butt"/><polyline points="135.89 352.19 135.89 349.45" clip-path="url(#cpMC4wMHw1MDQuMDB8Mzc4LjAwfDAuMDA=)" style="stroke-width:1.07;stroke:#333;stroke-linecap:butt"/><polyline points="222.74 352.19 222.74 349.45" clip-path="url(#cpMC4wMHw1MDQuMDB8Mzc4LjAwfDAuMDA=)" style="stroke-width:1.07;stroke:#333;stroke-linecap:butt"/><polyline points="309.59 352.19 309.59 349.45" clip-path="url(#cpMC4wMHw1MDQuMDB8Mzc4LjAwfDAuMDA=)" style="stroke-width:1.07;stroke:#333;stroke-linecap:butt"/><polyline points="396.44 352.19 396.44 349.45" clip-path="url(#cpMC4wMHw1MDQuMDB8Mzc4LjAwfDAuMDA=)" style="stroke-width:1.07;stroke:#333;stroke-linecap:butt"/><g clip-path="url(#cpMC4wMHw1MDQuMDB8Mzc4LjAwfDAuMDA=)"><text x="133.22" y="361.25" lengthAdjust="spacingAndGlyphs" textLength="5.34" style="font-size:9.6px;fill:#4d4d4d;font-family:Arial">5</text></g><g clip-path="url(#cpMC4wMHw1MDQuMDB8Mzc4LjAwfDAuMDA=)"><text x="217.4" y="361.25" lengthAdjust="spacingAndGlyphs" textLength="10.68" style="font-size:9.6px;fill:#4d4d4d;font-family:Arial">10</text></g><g clip-path="url(#cpMC4wMHw1MDQuMDB8Mzc4LjAwfDAuMDA=)"><text x="304.25" y="361.25" lengthAdjust="spacingAndGlyphs" textLength="10.68" style="font-size:9.6px;fill:#4d4d4d;font-family:Arial">15</text></g><g clip-path="url(#cpMC4wMHw1MDQuMDB8Mzc4LjAwfDAuMDA=)"><text x="391.1" y="361.25" lengthAdjust="spacingAndGlyphs" textLength="10.68" style="font-size:9.6px;fill:#4d4d4d;font-family:Arial">20</text></g><g clip-path="url(#cpMC4wMHw1MDQuMDB8Mzc4LjAwfDAuMDA=)"><text x="399.6" y="371.42" lengthAdjust="spacingAndGlyphs" textLength="13.34" style="font-size:9.6px;fill:#4d4d4d;font-family:Arial">iter</text></g><g clip-path="url(#cpMC4wMHw1MDQuMDB8Mzc4LjAwfDAuMDA=)"><text x="5.48" y="12.35" lengthAdjust="spacingAndGlyphs" textLength="22.95" style="font-size:9.6px;fill:#4d4d4d;font-family:Arial">value</text></g><rect width="74.62" height="101.62" x="423.9" y="126.65" clip-path="url(#cpMC4wMHw1MDQuMDB8Mzc4LjAwfDAuMDA=)" style="stroke-width:1.07;stroke:none"/><g clip-path="url(#cpMC4wMHw1MDQuMDB8Mzc4LjAwfDAuMDA=)"><text x="429.38" y="144.54" lengthAdjust="spacingAndGlyphs" textLength="28.35" style="font-size:15px;fill:#4d4d4d;font-family:Arial">coef</text></g><rect width="17.28" height="17.28" x="429.38" y="153.67" clip-path="url(#cpMC4wMHw1MDQuMDB8Mzc4LjAwfDAuMDA=)" style="stroke-width:1.07;stroke:none"/><line x1="431.11" x2="444.93" y1="162.31" y2="162.31" clip-path="url(#cpMC4wMHw1MDQuMDB8Mzc4LjAwfDAuMDA=)" style="stroke-width:1.07;stroke:#001959;stroke-linecap:butt"/><rect width="17.28" height="17.28" x="429.38" y="170.95" clip-path="url(#cpMC4wMHw1MDQuMDB8Mzc4LjAwfDAuMDA=)" style="stroke-width:1.07;stroke:none"/><line x1="431.11" x2="444.93" y1="179.59" y2="179.59" clip-path="url(#cpMC4wMHw1MDQuMDB8Mzc4LjAwfDAuMDA=)" style="stroke-width:1.07;stroke:#3e6c54;stroke-linecap:butt"/><rect width="17.28" height="17.28" x="429.38" y="188.23" clip-path="url(#cpMC4wMHw1MDQuMDB8Mzc4LjAwfDAuMDA=)" style="stroke-width:1.07;stroke:none"/><line x1="431.11" x2="444.93" y1="196.87" y2="196.87" clip-path="url(#cpMC4wMHw1MDQuMDB8Mzc4LjAwfDAuMDA=)" style="stroke-width:1.07;stroke:#d49347;stroke-linecap:butt"/><rect width="17.28" height="17.28" x="429.38" y="205.51" clip-path="url(#cpMC4wMHw1MDQuMDB8Mzc4LjAwfDAuMDA=)" style="stroke-width:1.07;stroke:none"/><line x1="431.11" x2="444.93" y1="214.15" y2="214.15" clip-path="url(#cpMC4wMHw1MDQuMDB8Mzc4LjAwfDAuMDA=)" style="stroke-width:1.07;stroke:#f9ccf9;stroke-linecap:butt"/><g clip-path="url(#cpMC4wMHw1MDQuMDB8Mzc4LjAwfDAuMDA=)"><text x="454.13" y="165.75" lengthAdjust="spacingAndGlyphs" textLength="37.35" style="font-size:9.6px;fill:#4d4d4d;font-family:Arial">Intercept</text></g><g clip-path="url(#cpMC4wMHw1MDQuMDB8Mzc4LjAwfDAuMDA=)"><text x="454.13" y="183.03" lengthAdjust="spacingAndGlyphs" textLength="13.88" style="font-size:9.6px;fill:#4d4d4d;font-family:Arial">gre</text></g><g clip-path="url(#cpMC4wMHw1MDQuMDB8Mzc4LjAwfDAuMDA=)"><text x="454.13" y="200.31" lengthAdjust="spacingAndGlyphs" textLength="16.02" style="font-size:9.6px;fill:#4d4d4d;font-family:Arial">gpa</text></g><g clip-path="url(#cpMC4wMHw1MDQuMDB8Mzc4LjAwfDAuMDA=)"><text x="454.13" y="217.59" lengthAdjust="spacingAndGlyphs" textLength="18.68" style="font-size:9.6px;fill:#4d4d4d;font-family:Arial">rank</text></g></svg>