<svg xmlns="http://www.w3.org/2000/svg" xmlns:xlink="http://www.w3.org/1999/xlink" viewBox="0 0 504 378"><defs><style type="text/css">line,polyline,rect{fill:none;stroke:#000;stroke-linecap:round;stroke-linejoin:round;stroke-miterlimit:10}</style></defs><rect width="100%" height="100%" style="stroke:none;fill:none"/><defs><clipPath id="cpMzguNjF8NDE4LjgyfDM0Ni4yOHw1LjQ4"><rect width="380.22" height="340.8" x="38.61" y="5.48"/></clipPath></defs><polyline points="38.61 315.34 418.82 315.34" clip-path="url(#cpMzguNjF8NDE4LjgyfDM0Ni4yOHw1LjQ4)" style="stroke-width:.53;stroke:#ebebeb;stroke-linecap:butt"/><polyline points="38.61 217.93 418.82 217.93" clip-path="url(#cpMzguNjF8NDE4LjgyfDM0Ni4yOHw1LjQ4)" style="stroke-width:.53;stroke:#ebebeb;stroke-linecap:butt"/><polyline points="38.61 120.51 418.82 120.51" clip-path="url(#cpMzguNjF8NDE4LjgyfDM0Ni4yOHw1LjQ4)" style="stroke-width:.53;stroke:#ebebeb;stroke-linecap:butt"/><polyline points="38.61 23.09 418.82 23.09" clip-path="url(#cpMzguNjF8NDE4LjgyfDM0Ni4yOHw1LjQ4)" style="stroke-width:.53;stroke:#ebebeb;stroke-linecap:butt"/><polyline points="83.18 346.28 83.18 5.48" clip-path="url(#cpMzguNjF8NDE4LjgyfDM0Ni4yOHw1LjQ4)" style="stroke-width:.53;stroke:#ebebeb;stroke-linecap:butt"/><polyline points="174.14 346.28 174.14 5.48" clip-path="url(#cpMzguNjF8NDE4LjgyfDM0Ni4yOHw1LjQ4)" style="stroke-width:.53;stroke:#ebebeb;stroke-linecap:butt"/><polyline points="265.1 346.28 265.1 5.48" clip-path="url(#cpMzguNjF8NDE4LjgyfDM0Ni4yOHw1LjQ4)" style="stroke-width:.53;stroke:#ebebeb;stroke-linecap:butt"/><polyline points="356.06 346.28 356.06 5.48" clip-path="url(#cpMzguNjF8NDE4LjgyfDM0Ni4yOHw1LjQ4)" style="stroke-width:.53;stroke:#ebebeb;stroke-linecap:butt"/><polyline points="38.61 266.63 418.82 266.63" clip-path="url(#cpMzguNjF8NDE4LjgyfDM0Ni4yOHw1LjQ4)" style="stroke-width:1.07;stroke:#ebebeb;stroke-linecap:butt"/><polyline points="38.61 169.22 418.82 169.22" clip-path="url(#cpMzguNjF8NDE4LjgyfDM0Ni4yOHw1LjQ4)" style="stroke-width:1.07;stroke:#ebebeb;stroke-linecap:butt"/><polyline points="38.61 71.8 418.82 71.8" clip-path="url(#cpMzguNjF8NDE4LjgyfDM0Ni4yOHw1LjQ4)" style="stroke-width:1.07;stroke:#ebebeb;stroke-linecap:butt"/><polyline points="128.66 346.28 128.66 5.48" clip-path="url(#cpMzguNjF8NDE4LjgyfDM0Ni4yOHw1LjQ4)" style="stroke-width:1.07;stroke:#ebebeb;stroke-linecap:butt"/><polyline points="219.62 346.28 219.62 5.48" clip-path="url(#cpMzguNjF8NDE4LjgyfDM0Ni4yOHw1LjQ4)" style="stroke-width:1.07;stroke:#ebebeb;stroke-linecap:butt"/><polyline points="310.58 346.28 310.58 5.48" clip-path="url(#cpMzguNjF8NDE4LjgyfDM0Ni4yOHw1LjQ4)" style="stroke-width:1.07;stroke:#ebebeb;stroke-linecap:butt"/><polyline points="401.54 346.28 401.54 5.48" clip-path="url(#cpMzguNjF8NDE4LjgyfDM0Ni4yOHw1LjQ4)" style="stroke-width:1.07;stroke:#ebebeb;stroke-linecap:butt"/><polyline points="55.89 99.56 74.08 67.73 92.28 49.02 110.47 37.64 128.66 30.77 146.85 26.68 165.04 24.28 183.24 22.88 201.43 22.07 219.62 21.6 237.81 21.33 256 21.18 274.2 21.09 292.39 21.04 310.58 21.01 328.77 20.99 346.97 20.98 365.16 20.98 383.35 20.97 401.54 20.97" clip-path="url(#cpMzguNjF8NDE4LjgyfDM0Ni4yOHw1LjQ4)" style="stroke-width:1.07;stroke:#f8766d;stroke-linecap:butt"/><polyline points="55.89 124.54 74.08 105.62 92.28 95.83 110.47 90.4 128.66 87.31 146.85 85.54 165.04 84.52 183.24 83.93 201.43 83.6 219.62 83.4 237.81 83.29 256 83.23 274.2 83.19 292.39 83.17 310.58 83.16 328.77 83.15 346.97 83.15 365.16 83.14 383.35 83.14 401.54 83.14" clip-path="url(#cpMzguNjF8NDE4LjgyfDM0Ni4yOHw1LjQ4)" style="stroke-width:1.07;stroke:#7cae00;stroke-linecap:butt"/><polyline points="55.89 129.49 74.08 112.34 92.28 103.16 110.47 97.91 128.66 94.85 146.85 93.05 165.04 92 183.24 91.39 201.43 91.03 219.62 90.83 237.81 90.71 256 90.64 274.2 90.6 292.39 90.58 310.58 90.56 328.77 90.56 346.97 90.55 365.16 90.55 383.35 90.55 401.54 90.55" clip-path="url(#cpMzguNjF8NDE4LjgyfDM0Ni4yOHw1LjQ4)" style="stroke-width:1.07;stroke:#00bfc4;stroke-linecap:butt"/><polyline points="55.89 254.33 74.08 290 92.28 308.11 110.47 317.97 128.66 323.5 146.85 326.63 165.04 328.41 183.24 329.43 201.43 330.01 219.62 330.34 237.81 330.53 256 330.64 274.2 330.7 292.39 330.74 310.58 330.76 328.77 330.77 346.97 330.78 365.16 330.78 383.35 330.78 401.54 330.79" clip-path="url(#cpMzguNjF8NDE4LjgyfDM0Ni4yOHw1LjQ4)" style="stroke-width:1.07;stroke:#c77cff;stroke-linecap:butt"/><defs><clipPath id="cpMC4wMHw1MDQuMDB8Mzc4LjAwfDAuMDA="><rect width="504" height="378" x="0" y="0"/></clipPath></defs><g clip-path="url(#cpMC4wMHw1MDQuMDB8Mzc4LjAwfDAuMDA=)"><text x="18.51" y="269.78" lengthAdjust="spacingAndGlyphs" textLength="15.16" style="font-size:8.8px;fill:#4d4d4d;font-family:Arial">-0.2</text></g><g clip-path="url(#cpMC4wMHw1MDQuMDB8Mzc4LjAwfDAuMDA=)"><text x="21.44" y="172.37" lengthAdjust="spacingAndGlyphs" textLength="12.23" style="font-size:8.8px;fill:#4d4d4d;font-family:Arial">0.0</text></g><g clip-path="url(#cpMC4wMHw1MDQuMDB8Mzc4LjAwfDAuMDA=)"><text x="21.44" y="74.95" lengthAdjust="spacingAndGlyphs" textLength="12.23" style="font-size:8.8px;fill:#4d4d4d;font-family:Arial">0.2</text></g><g clip-path="url(#cpMC4wMHw1MDQuMDB8Mzc4LjAwfDAuMDA=)"><text x="126.21" y="357.51" lengthAdjust="spacingAndGlyphs" textLength="4.89" style="font-size:8.8px;fill:#4d4d4d;font-family:Arial">5</text></g><g clip-path="url(#cpMC4wMHw1MDQuMDB8Mzc4LjAwfDAuMDA=)"><text x="214.73" y="357.51" lengthAdjust="spacingAndGlyphs" textLength="9.79" style="font-size:8.8px;fill:#4d4d4d;font-family:Arial">10</text></g><g clip-path="url(#cpMC4wMHw1MDQuMDB8Mzc4LjAwfDAuMDA=)"><text x="305.69" y="357.51" lengthAdjust="spacingAndGlyphs" textLength="9.79" style="font-size:8.8px;fill:#4d4d4d;font-family:Arial">15</text></g><g clip-path="url(#cpMC4wMHw1MDQuMDB8Mzc4LjAwfDAuMDA=)"><text x="396.65" y="357.51" lengthAdjust="spacingAndGlyphs" textLength="9.79" style="font-size:8.8px;fill:#4d4d4d;font-family:Arial">20</text></g><g clip-path="url(#cpMC4wMHw1MDQuMDB8Mzc4LjAwfDAuMDA=)"><text x="221.08" y="370.1" lengthAdjust="spacingAndGlyphs" textLength="15.28" style="font-size:11px;font-family:Arial">iter</text></g><g clip-path="url(#cpMC4wMHw1MDQuMDB8Mzc4LjAwfDAuMDA=)"><text style="font-size:11px;font-family:Arial" lengthAdjust="spacingAndGlyphs" textLength="26.3" transform="translate(13.35,189.03) rotate(-90)">value</text></g><g clip-path="url(#cpMC4wMHw1MDQuMDB8Mzc4LjAwfDAuMDA=)"><text x="435.26" y="142.52" lengthAdjust="spacingAndGlyphs" textLength="20.79" style="font-size:11px;font-family:Arial">coef</text></g><line x1="436.99" x2="450.81" y1="157.86" y2="157.86" clip-path="url(#cpMC4wMHw1MDQuMDB8Mzc4LjAwfDAuMDA=)" style="stroke-width:1.07;stroke:#f8766d;stroke-linecap:butt"/><line x1="436.99" x2="450.81" y1="175.14" y2="175.14" clip-path="url(#cpMC4wMHw1MDQuMDB8Mzc4LjAwfDAuMDA=)" style="stroke-width:1.07;stroke:#7cae00;stroke-linecap:butt"/><line x1="436.99" x2="450.81" y1="192.42" y2="192.42" clip-path="url(#cpMC4wMHw1MDQuMDB8Mzc4LjAwfDAuMDA=)" style="stroke-width:1.07;stroke:#00bfc4;stroke-linecap:butt"/><line x1="436.99" x2="450.81" y1="209.7" y2="209.7" clip-path="url(#cpMC4wMHw1MDQuMDB8Mzc4LjAwfDAuMDA=)" style="stroke-width:1.07;stroke:#c77cff;stroke-linecap:butt"/><g clip-path="url(#cpMC4wMHw1MDQuMDB8Mzc4LjAwfDAuMDA=)"><text x="458.02" y="161.01" lengthAdjust="spacingAndGlyphs" textLength="34.24" style="font-size:8.8px;font-family:Arial">Intercept</text></g><g clip-path="url(#cpMC4wMHw1MDQuMDB8Mzc4LjAwfDAuMDA=)"><text x="458.02" y="178.29" lengthAdjust="spacingAndGlyphs" textLength="12.72" style="font-size:8.8px;font-family:Arial">gre</text></g><g clip-path="url(#cpMC4wMHw1MDQuMDB8Mzc4LjAwfDAuMDA=)"><text x="458.02" y="195.57" lengthAdjust="spacingAndGlyphs" textLength="14.68" style="font-size:8.8px;font-family:Arial">gpa</text></g><g clip-path="url(#cpMC4wMHw1MDQuMDB8Mzc4LjAwfDAuMDA=)"><text x="458.02" y="212.85" lengthAdjust="spacingAndGlyphs" textLength="17.12" style="font-size:8.8px;font-family:Arial">rank</text></g></svg>