<svg xmlns="http://www.w3.org/2000/svg" xmlns:xlink="http://www.w3.org/1999/xlink" viewBox="0 0 504 252"><defs><style type="text/css">line,polyline,rect{fill:none;stroke:#000;stroke-linecap:round;stroke-linejoin:round;stroke-miterlimit:10}</style></defs><rect width="100%" height="100%" style="stroke:none;fill:none"/><rect width="504" height="252" x="0" y="0" style="stroke-width:1.07;stroke:none"/><defs><clipPath id="cpNS40OHwxOTMuNTN8MjQ2LjUyfDUuNDg="><rect width="188.05" height="241.04" x="5.48" y="5.48"/></clipPath></defs><rect width="188.05" height="241.04" x="5.48" y="5.48" clip-path="url(#cpNS40OHwxOTMuNTN8MjQ2LjUyfDUuNDg=)" style="stroke-width:1.07;stroke:none"/><defs><clipPath id="cpMC4wMHw1MDQuMDB8MjUyLjAwfDAuMDA="><rect width="504" height="252" x="0" y="0"/></clipPath></defs><defs><clipPath id="cpNDMuMTJ8MTg4LjA1fDIxNy4zNXwzMy4zMg=="><rect width="144.93" height="184.03" x="43.12" y="33.32"/></clipPath></defs><polyline points="49.71 196.44 51.9 196.46 54.1 196.49 56.3 196.53 58.49 196.58 60.69 196.63 62.88 196.7 65.08 196.79 67.27 196.9 69.47 197.04 71.67 197.21 73.86 197.43 76.06 197.69 78.25 198.01 80.45 198.4 82.65 198.87 84.84 199.43 87.04 200.08 89.23 200.85 91.43 201.71 93.62 202.67 95.82 203.71 98.02 204.79 100.21 205.87 102.41 206.89 104.6 207.79 106.8 208.48 109 208.91 111.19 208.98 113.39 208.64 115.58 207.82 117.78 206.45 119.97 204.51 122.17 202 124.37 198.97 126.56 195.55 128.76 191.89 130.95 188.17 133.15 184.61 135.35 181.38 137.54 178.6 139.74 176.36 141.93 174.67 144.13 173.52 146.32 172.85 148.52 172.6 150.72 172.67 152.91 172.99 155.11 173.48 157.3 174.02 159.5 174.49 161.7 174.71 163.89 174.43 166.09 173.25 168.28 170.6 170.48 165.64 172.67 157.17 174.87 143.44 177.07 122.02 179.26 89.58 181.46 41.69" clip-path="url(#cpNDMuMTJ8MTg4LjA1fDIxNy4zNXwzMy4zMg==)" style="stroke-width:1.07;stroke-linecap:butt"/><defs><clipPath id="cpMC4wMHw1MDQuMDB8MjUyLjAwfDAuMDA="><rect width="504" height="252" x="0" y="0"/></clipPath></defs><g clip-path="url(#cpMC4wMHw1MDQuMDB8MjUyLjAwfDAuMDA=)"><text x="32.85" y="171.09" lengthAdjust="spacingAndGlyphs" textLength="5.34" style="font-size:9.6px;fill:#4d4d4d;font-family:Arial">3</text></g><g clip-path="url(#cpMC4wMHw1MDQuMDB8MjUyLjAwfDAuMDA=)"><text x="32.85" y="109.1" lengthAdjust="spacingAndGlyphs" textLength="5.34" style="font-size:9.6px;fill:#4d4d4d;font-family:Arial">4</text></g><g clip-path="url(#cpMC4wMHw1MDQuMDB8MjUyLjAwfDAuMDA=)"><text x="32.85" y="47.11" lengthAdjust="spacingAndGlyphs" textLength="5.34" style="font-size:9.6px;fill:#4d4d4d;font-family:Arial">5</text></g><polyline points="40.38 167.66 43.12 167.66" clip-path="url(#cpMC4wMHw1MDQuMDB8MjUyLjAwfDAuMDA=)" style="stroke-width:1.07;stroke:#333;stroke-linecap:butt"/><polyline points="40.38 105.67 43.12 105.67" clip-path="url(#cpMC4wMHw1MDQuMDB8MjUyLjAwfDAuMDA=)" style="stroke-width:1.07;stroke:#333;stroke-linecap:butt"/><polyline points="40.38 43.68 43.12 43.68" clip-path="url(#cpMC4wMHw1MDQuMDB8MjUyLjAwfDAuMDA=)" style="stroke-width:1.07;stroke:#333;stroke-linecap:butt"/><polyline points="71.67 220.09 71.67 217.35" clip-path="url(#cpMC4wMHw1MDQuMDB8MjUyLjAwfDAuMDA=)" style="stroke-width:1.07;stroke:#333;stroke-linecap:butt"/><polyline points="115.58 220.09 115.58 217.35" clip-path="url(#cpMC4wMHw1MDQuMDB8MjUyLjAwfDAuMDA=)" style="stroke-width:1.07;stroke:#333;stroke-linecap:butt"/><polyline points="159.5 220.09 159.5 217.35" clip-path="url(#cpMC4wMHw1MDQuMDB8MjUyLjAwfDAuMDA=)" style="stroke-width:1.07;stroke:#333;stroke-linecap:butt"/><g clip-path="url(#cpMC4wMHw1MDQuMDB8MjUyLjAwfDAuMDA=)"><text x="59.39" y="229.15" lengthAdjust="spacingAndGlyphs" textLength="24.55" style="font-size:9.6px;fill:#4d4d4d;font-family:Arial">1e-05</text></g><g clip-path="url(#cpMC4wMHw1MDQuMDB8MjUyLjAwfDAuMDA=)"><text x="103.31" y="229.15" lengthAdjust="spacingAndGlyphs" textLength="24.55" style="font-size:9.6px;fill:#4d4d4d;font-family:Arial">1e-03</text></g><g clip-path="url(#cpMC4wMHw1MDQuMDB8MjUyLjAwfDAuMDA=)"><text x="147.22" y="229.15" lengthAdjust="spacingAndGlyphs" textLength="24.55" style="font-size:9.6px;fill:#4d4d4d;font-family:Arial">1e-01</text></g><g clip-path="url(#cpMC4wMHw1MDQuMDB8MjUyLjAwfDAuMDA=)"><text x="156.56" y="239.79" lengthAdjust="spacingAndGlyphs" textLength="31.49" style="font-size:9.6px;fill:#4d4d4d;font-family:Arial">lambda</text></g><g clip-path="url(#cpMC4wMHw1MDQuMDB8MjUyLjAwfDAuMDA=)"><text x="11.39" y="40.19" lengthAdjust="spacingAndGlyphs" textLength="20.8" style="font-size:9.6px;fill:#4d4d4d;font-family:Arial">GCV</text></g><g clip-path="url(#cpMC4wMHw1MDQuMDB8MjUyLjAwfDAuMDA=)"><text x="43.12" y="23.86" lengthAdjust="spacingAndGlyphs" textLength="88.02" style="font-size:18px;fill:#4d4d4d;font-family:Arial">GCV score</text></g><defs><clipPath id="cpMTkzLjUzfDQ5OC41MnwyNDYuNTJ8NS40OA=="><rect width="305" height="241.04" x="193.53" y="5.48"/></clipPath></defs><rect width="305" height="241.04" x="193.53" y="5.48" clip-path="url(#cpMTkzLjUzfDQ5OC41MnwyNDYuNTJ8NS40OA==)" style="stroke-width:1.07;stroke:none"/><defs><clipPath id="cpMC4wMHw1MDQuMDB8MjUyLjAwfDAuMDA="><rect width="504" height="252" x="0" y="0"/></clipPath></defs><defs><clipPath id="cpMjM4LjcxfDM4My42M3wyMTcuMzV8MzMuMzI="><rect width="144.93" height="184.03" x="238.71" y="33.32"/></clipPath></defs><polyline points="245.29 152.87 247.49 152.87 249.69 152.87 251.88 152.88 254.08 152.88 256.27 152.88 258.47 152.89 260.66 152.9 262.86 152.91 265.06 152.92 267.25 152.93 269.45 152.95 271.64 152.97 273.84 153 276.04 153.03 278.23 153.07 280.43 153.12 282.62 153.17 284.82 153.24 287.01 153.32 289.21 153.42 291.41 153.52 293.6 153.63 295.8 153.75 297.99 153.87 300.19 153.99 302.39 154.09 304.58 154.18 306.78 154.23 308.97 154.24 311.17 154.21 313.36 154.13 315.56 154.01 317.76 153.84 319.95 153.64 322.15 153.42 324.34 153.19 326.54 152.96 328.74 152.73 330.93 152.52 333.13 152.33 335.32 152.17 337.52 152.02 339.71 151.9 341.91 151.8 344.11 151.72 346.3 151.65 348.5 151.59 350.69 151.54 352.89 151.5 355.09 151.47 357.28 151.44 359.48 151.41 361.67 151.39 363.87 151.38 366.06 151.39 368.26 151.4 370.46 151.44 372.65 151.49 374.85 151.58 377.04 151.68" clip-path="url(#cpMjM4LjcxfDM4My42M3wyMTcuMzV8MzMuMzI=)" style="stroke-width:1.07;stroke:#001959;stroke-linecap:butt"/><polyline points="245.29 152.87 247.49 152.87 249.69 152.88 251.88 152.89 254.08 152.9 256.27 152.92 258.47 152.94 260.66 152.96 262.86 152.99 265.06 153.03 267.25 153.08 269.45 153.14 271.64 153.21 273.84 153.31 276.04 153.42 278.23 153.55 280.43 153.72 282.62 153.91 284.82 154.15 287.01 154.42 289.21 154.72 291.41 155.06 293.6 155.43 295.8 155.8 297.99 156.17 300.19 156.5 302.39 156.76 304.58 156.91 306.78 156.92 308.97 156.76 311.17 156.41 313.36 155.86 315.56 155.13 317.76 154.23 319.95 153.2 322.15 152.11 324.34 150.99 326.54 149.9 328.74 148.89 330.93 147.98 333.13 147.19 335.32 146.55 337.52 146.03 339.71 145.64 341.91 145.36 344.11 145.17 346.3 145.05 348.5 144.99 350.69 144.98 352.89 145 355.09 145.05 357.28 145.12 359.48 145.22 361.67 145.33 363.87 145.46 366.06 145.6 368.26 145.78 370.46 145.97 372.65 146.2 374.85 146.45 377.04 146.75" clip-path="url(#cpMjM4LjcxfDM4My42M3wyMTcuMzV8MzMuMzI=)" style="stroke-width:1.07;stroke:#13435f;stroke-linecap:butt"/><polyline points="245.29 41.69 247.49 41.72 249.69 41.77 251.88 41.82 254.08 41.89 256.27 41.98 258.47 42.09 260.66 42.23 262.86 42.4 265.06 42.62 267.25 42.89 269.45 43.22 271.64 43.64 273.84 44.17 276.04 44.81 278.23 45.61 280.43 46.59 282.62 47.78 284.82 49.23 287.01 50.96 289.21 53.02 291.41 55.44 293.6 58.24 295.8 61.44 297.99 65.03 300.19 68.99 302.39 73.28 304.58 77.86 306.78 82.66 308.97 87.61 311.17 92.64 313.36 97.69 315.56 102.7 317.76 107.59 319.95 112.3 322.15 116.77 324.34 120.93 326.54 124.76 328.74 128.2 330.93 131.24 333.13 133.88 335.32 136.15 337.52 138.05 339.71 139.64 341.91 140.94 344.11 142.01 346.3 142.87 348.5 143.57 350.69 144.14 352.89 144.6 355.09 144.98 357.28 145.3 359.48 145.57 361.67 145.81 363.87 146.03 366.06 146.24 368.26 146.44 370.46 146.65 372.65 146.88 374.85 147.13 377.04 147.4" clip-path="url(#cpMjM4LjcxfDM4My42M3wyMTcuMzV8MzMuMzI=)" style="stroke-width:1.07;stroke:#396a57;stroke-linecap:butt"/><polyline points="245.29 208.98 247.49 208.98 249.69 208.96 251.88 208.95 254.08 208.93 256.27 208.91 258.47 208.88 260.66 208.85 262.86 208.8 265.06 208.75 267.25 208.68 269.45 208.59 271.64 208.48 273.84 208.34 276.04 208.17 278.23 207.96 280.43 207.7 282.62 207.37 284.82 206.98 287.01 206.49 289.21 205.9 291.41 205.18 293.6 204.32 295.8 203.3 297.99 202.1 300.19 200.7 302.39 199.08 304.58 197.23 306.78 195.13 308.97 192.79 311.17 190.22 313.36 187.42 315.56 184.43 317.76 181.3 319.95 178.1 322.15 174.88 324.34 171.72 326.54 168.68 328.74 165.82 330.93 163.18 333.13 160.78 335.32 158.64 337.52 156.74 339.71 155.09 341.91 153.66 344.11 152.44 346.3 151.4 348.5 150.53 350.69 149.81 352.89 149.22 355.09 148.74 357.28 148.36 359.48 148.07 361.67 147.85 363.87 147.7 366.06 147.61 368.26 147.57 370.46 147.58 372.65 147.65 374.85 147.76 377.04 147.93" clip-path="url(#cpMjM4LjcxfDM4My42M3wyMTcuMzV8MzMuMzI=)" style="stroke-width:1.07;stroke:#767f36;stroke-linecap:butt"/><polyline points="245.29 141.6 247.49 141.61 249.69 141.62 251.88 141.63 254.08 141.65 256.27 141.66 258.47 141.69 260.66 141.72 262.86 141.75 265.06 141.8 267.25 141.86 269.45 141.93 271.64 142.02 273.84 142.13 276.04 142.26 278.23 142.43 280.43 142.63 282.62 142.87 284.82 143.17 287.01 143.52 289.21 143.92 291.41 144.4 293.6 144.93 295.8 145.52 297.99 146.16 300.19 146.83 302.39 147.51 304.58 148.18 306.78 148.82 308.97 149.41 311.17 149.92 313.36 150.35 315.56 150.69 317.76 150.93 319.95 151.1 322.15 151.21 324.34 151.26 326.54 151.28 328.74 151.28 330.93 151.27 333.13 151.26 335.32 151.25 337.52 151.26 339.71 151.27 341.91 151.29 344.11 151.31 346.3 151.33 348.5 151.35 350.69 151.37 352.89 151.37 355.09 151.37 357.28 151.36 359.48 151.35 361.67 151.33 363.87 151.3 366.06 151.27 368.26 151.25 370.46 151.24 372.65 151.24 374.85 151.26 377.04 151.31" clip-path="url(#cpMjM4LjcxfDM4My42M3wyMTcuMzV8MzMuMzI=)" style="stroke-width:1.07;stroke:#c7913d;stroke-linecap:butt"/><polyline points="245.29 184.8 247.49 184.77 249.69 184.72 251.88 184.66 254.08 184.58 256.27 184.49 258.47 184.37 260.66 184.22 262.86 184.04 265.06 183.81 267.25 183.52 269.45 183.16 271.64 182.71 273.84 182.15 276.04 181.47 278.23 180.63 280.43 179.61 282.62 178.37 284.82 176.88 287.01 175.12 289.21 173.06 291.41 170.69 293.6 168.02 295.8 165.06 297.99 161.88 300.19 158.55 302.39 155.17 304.58 151.88 306.78 148.78 308.97 146.01 311.17 143.65 313.36 141.77 315.56 140.4 317.76 139.51 319.95 139.08 322.15 139.02 324.34 139.26 326.54 139.72 328.74 140.3 330.93 140.96 333.13 141.63 335.32 142.27 337.52 142.87 339.71 143.41 341.91 143.88 344.11 144.3 346.3 144.65 348.5 144.95 350.69 145.21 352.89 145.43 355.09 145.62 357.28 145.79 359.48 145.94 361.67 146.08 363.87 146.22 366.06 146.37 368.26 146.52 370.46 146.69 372.65 146.88 374.85 147.09 377.04 147.34" clip-path="url(#cpMjM4LjcxfDM4My42M3wyMTcuMzV8MzMuMzI=)" style="stroke-width:1.07;stroke:#fca68c;stroke-linecap:butt"/><defs><clipPath id="cpMC4wMHw1MDQuMDB8MjUyLjAwfDAuMDA="><rect width="504" height="252" x="0" y="0"/></clipPath></defs><g clip-path="url(#cpMC4wMHw1MDQuMDB8MjUyLjAwfDAuMDA=)"><text x="228.44" y="159.53" lengthAdjust="spacingAndGlyphs" textLength="5.34" style="font-size:9.6px;fill:#4d4d4d;font-family:Arial">0</text></g><g clip-path="url(#cpMC4wMHw1MDQuMDB8MjUyLjAwfDAuMDA=)"><text x="223.1" y="91.74" lengthAdjust="spacingAndGlyphs" textLength="10.68" style="font-size:9.6px;fill:#4d4d4d;font-family:Arial">50</text></g><polyline points="235.97 156.1 238.71 156.1" clip-path="url(#cpMC4wMHw1MDQuMDB8MjUyLjAwfDAuMDA=)" style="stroke-width:1.07;stroke:#333;stroke-linecap:butt"/><polyline points="235.97 88.31 238.71 88.31" clip-path="url(#cpMC4wMHw1MDQuMDB8MjUyLjAwfDAuMDA=)" style="stroke-width:1.07;stroke:#333;stroke-linecap:butt"/><polyline points="267.25 220.09 267.25 217.35" clip-path="url(#cpMC4wMHw1MDQuMDB8MjUyLjAwfDAuMDA=)" style="stroke-width:1.07;stroke:#333;stroke-linecap:butt"/><polyline points="311.17 220.09 311.17 217.35" clip-path="url(#cpMC4wMHw1MDQuMDB8MjUyLjAwfDAuMDA=)" style="stroke-width:1.07;stroke:#333;stroke-linecap:butt"/><polyline points="355.09 220.09 355.09 217.35" clip-path="url(#cpMC4wMHw1MDQuMDB8MjUyLjAwfDAuMDA=)" style="stroke-width:1.07;stroke:#333;stroke-linecap:butt"/><g clip-path="url(#cpMC4wMHw1MDQuMDB8MjUyLjAwfDAuMDA=)"><text x="254.98" y="229.15" lengthAdjust="spacingAndGlyphs" textLength="24.55" style="font-size:9.6px;fill:#4d4d4d;font-family:Arial">1e-05</text></g><g clip-path="url(#cpMC4wMHw1MDQuMDB8MjUyLjAwfDAuMDA=)"><text x="298.89" y="229.15" lengthAdjust="spacingAndGlyphs" textLength="24.55" style="font-size:9.6px;fill:#4d4d4d;font-family:Arial">1e-03</text></g><g clip-path="url(#cpMC4wMHw1MDQuMDB8MjUyLjAwfDAuMDA=)"><text x="342.81" y="229.15" lengthAdjust="spacingAndGlyphs" textLength="24.55" style="font-size:9.6px;fill:#4d4d4d;font-family:Arial">1e-01</text></g><g clip-path="url(#cpMC4wMHw1MDQuMDB8MjUyLjAwfDAuMDA=)"><text x="352.15" y="239.79" lengthAdjust="spacingAndGlyphs" textLength="31.49" style="font-size:9.6px;fill:#4d4d4d;font-family:Arial">lambda</text></g><g clip-path="url(#cpMC4wMHw1MDQuMDB8MjUyLjAwfDAuMDA=)"><text x="199.35" y="40.19" lengthAdjust="spacingAndGlyphs" textLength="22.95" style="font-size:9.6px;fill:#4d4d4d;font-family:Arial">value</text></g><rect width="98.45" height="136.18" x="394.59" y="57.25" clip-path="url(#cpMC4wMHw1MDQuMDB8MjUyLjAwfDAuMDA=)" style="stroke-width:1.07;stroke:none"/><g clip-path="url(#cpMC4wMHw1MDQuMDB8MjUyLjAwfDAuMDA=)"><text x="400.07" y="75.13" lengthAdjust="spacingAndGlyphs" textLength="28.35" style="font-size:15px;fill:#4d4d4d;font-family:Arial">coef</text></g><rect width="17.28" height="17.28" x="400.07" y="84.27" clip-path="url(#cpMC4wMHw1MDQuMDB8MjUyLjAwfDAuMDA=)" style="stroke-width:1.07;stroke:none"/><line x1="401.8" x2="415.62" y1="92.91" y2="92.91" clip-path="url(#cpMC4wMHw1MDQuMDB8MjUyLjAwfDAuMDA=)" style="stroke-width:1.07;stroke:#001959;stroke-linecap:butt"/><rect width="17.28" height="17.28" x="400.07" y="101.55" clip-path="url(#cpMC4wMHw1MDQuMDB8MjUyLjAwfDAuMDA=)" style="stroke-width:1.07;stroke:none"/><line x1="401.8" x2="415.62" y1="110.19" y2="110.19" clip-path="url(#cpMC4wMHw1MDQuMDB8MjUyLjAwfDAuMDA=)" style="stroke-width:1.07;stroke:#13435f;stroke-linecap:butt"/><rect width="17.28" height="17.28" x="400.07" y="118.83" clip-path="url(#cpMC4wMHw1MDQuMDB8MjUyLjAwfDAuMDA=)" style="stroke-width:1.07;stroke:none"/><line x1="401.8" x2="415.62" y1="127.47" y2="127.47" clip-path="url(#cpMC4wMHw1MDQuMDB8MjUyLjAwfDAuMDA=)" style="stroke-width:1.07;stroke:#396a57;stroke-linecap:butt"/><rect width="17.28" height="17.28" x="400.07" y="136.11" clip-path="url(#cpMC4wMHw1MDQuMDB8MjUyLjAwfDAuMDA=)" style="stroke-width:1.07;stroke:none"/><line x1="401.8" x2="415.62" y1="144.75" y2="144.75" clip-path="url(#cpMC4wMHw1MDQuMDB8MjUyLjAwfDAuMDA=)" style="stroke-width:1.07;stroke:#767f36;stroke-linecap:butt"/><rect width="17.28" height="17.28" x="400.07" y="153.39" clip-path="url(#cpMC4wMHw1MDQuMDB8MjUyLjAwfDAuMDA=)" style="stroke-width:1.07;stroke:none"/><line x1="401.8" x2="415.62" y1="162.03" y2="162.03" clip-path="url(#cpMC4wMHw1MDQuMDB8MjUyLjAwfDAuMDA=)" style="stroke-width:1.07;stroke:#c7913d;stroke-linecap:butt"/><rect width="17.28" height="17.28" x="400.07" y="170.67" clip-path="url(#cpMC4wMHw1MDQuMDB8MjUyLjAwfDAuMDA=)" style="stroke-width:1.07;stroke:none"/><line x1="401.8" x2="415.62" y1="179.31" y2="179.31" clip-path="url(#cpMC4wMHw1MDQuMDB8MjUyLjAwfDAuMDA=)" style="stroke-width:1.07;stroke:#fca68c;stroke-linecap:butt"/><g clip-path="url(#cpMC4wMHw1MDQuMDB8MjUyLjAwfDAuMDA=)"><text x="424.82" y="96.34" lengthAdjust="spacingAndGlyphs" textLength="60.28" style="font-size:9.6px;fill:#4d4d4d;font-family:Arial">Armed.Forces</text></g><g clip-path="url(#cpMC4wMHw1MDQuMDB8MjUyLjAwfDAuMDA=)"><text x="424.82" y="113.62" lengthAdjust="spacingAndGlyphs" textLength="42.69" style="font-size:9.6px;fill:#4d4d4d;font-family:Arial">Employed</text></g><g clip-path="url(#cpMC4wMHw1MDQuMDB8MjUyLjAwfDAuMDA=)"><text x="424.82" y="130.9" lengthAdjust="spacingAndGlyphs" textLength="20.8" style="font-size:9.6px;fill:#4d4d4d;font-family:Arial">GNP</text></g><g clip-path="url(#cpMC4wMHw1MDQuMDB8MjUyLjAwfDAuMDA=)"><text x="424.82" y="148.18" lengthAdjust="spacingAndGlyphs" textLength="45.37" style="font-size:9.6px;fill:#4d4d4d;font-family:Arial">Population</text></g><g clip-path="url(#cpMC4wMHw1MDQuMDB8MjUyLjAwfDAuMDA=)"><text x="424.82" y="165.46" lengthAdjust="spacingAndGlyphs" textLength="53.9" style="font-size:9.6px;fill:#4d4d4d;font-family:Arial">Unemployed</text></g><g clip-path="url(#cpMC4wMHw1MDQuMDB8MjUyLjAwfDAuMDA=)"><text x="424.82" y="182.74" lengthAdjust="spacingAndGlyphs" textLength="20.28" style="font-size:9.6px;fill:#4d4d4d;font-family:Arial">Year</text></g><g clip-path="url(#cpMC4wMHw1MDQuMDB8MjUyLjAwfDAuMDA=)"><text x="238.71" y="23.86" lengthAdjust="spacingAndGlyphs" textLength="176.09" style="font-size:18px;fill:#4d4d4d;font-family:Arial">Betas Across Lambda</text></g></svg>