<svg xmlns="http://www.w3.org/2000/svg" xmlns:xlink="http://www.w3.org/1999/xlink" viewBox="0 0 504 378"><defs><style type="text/css">circle,line,polyline,rect{fill:none;stroke:#000;stroke-linecap:round;stroke-linejoin:round;stroke-miterlimit:10}</style></defs><rect width="100%" height="100%" style="stroke:none;fill:none"/><rect width="504" height="378" x="0" y="0" style="stroke-width:1.07;stroke:none"/><defs><clipPath id="cpNTMuNjV8NDA3LjMzfDM0OS40NXw1LjQ4"><rect width="353.68" height="343.97" x="53.65" y="5.48"/></clipPath></defs><polyline points="69.73 305.45 70.05 289.99 70.37 276.87 70.69 263.65 71.01 267.87 71.33 269.79 71.66 277.75 71.98 268.36 72.3 267.58 72.62 276.58 72.94 275.18 73.27 276.36 73.59 271.54 73.91 262.24 74.23 261.78 74.55 250.72 74.87 245.09 75.2 244.76 75.52 241.1 75.84 230.73 76.16 222.06 76.48 223.24 76.81 220.44 77.13 206.7 77.45 209.87 77.77 208.53 78.09 208.74 78.42 205.63 78.74 199.71 79.06 208.54 79.38 205.69 79.7 197.85 80.02 200.44 80.35 204.36 80.67 203.43 80.99 205.84 81.31 199.92 81.63 196.11 81.96 192.62 82.28 195.03 82.6 190.13 82.92 189.37 83.24 195.13 83.56 191.27 83.89 188.02 84.21 189.18 84.53 188.52 84.85 182.33 85.17 180.32 85.5 183.35 85.82 183.55 86.14 177.5 86.46 177.02 86.78 177.93 87.11 172.32 87.43 171.3 87.75 168.91 88.07 166.3 88.39 158.95 88.71 161.19 89.04 159.26 89.36 156.24 89.68 153.15 90 149.23 90.32 143.71 90.65 142.46 90.97 140.32 91.29 140.19 91.61 139.51 91.93 140.94 92.25 143.14 92.58 141.28 92.9 139.65 93.22 138.1 93.54 136.79 93.86 135.14 94.19 137.91 94.51 141.86 94.83 142.1 95.15 142.7 95.47 143.95 95.8 147.22 96.12 147.89 96.44 146.07 96.76 142.57 97.08 137.59 97.4 135.95 97.73 130.66 98.05 129.47 98.37 129.69 98.69 132.82 99.01 126.31 99.34 121.9 99.66 119.35 99.98 116.7 100.3 113.17 100.62 111.01 100.94 108.24 101.27 105.24 101.59 105.17 101.91 104.93 102.23 104.47 102.55 105.51 102.88 101.19 103.2 103.78 103.52 102.72 103.84 103.88 104.16 103.24 104.49 101.96 104.81 101.59 105.13 106.89 105.45 111.29 105.77 109.79 106.09 110.57 106.42 109.81 106.74 107.46 107.06 107.49 107.38 108.12 107.7 107.6 108.03 104.05 108.35 101.22 108.67 97.65 108.99 93.78 109.31 96.08 109.63 98.43 109.96 97.8 110.28 97.92 110.6 100.71 110.92 103.71 111.24 101.17 111.57 97.59 111.89 96.6 112.21 95.99 112.53 95.58 112.85 96.31 113.18 98.15 113.5 98.17 113.82 100.15 114.14 99.17 114.46 97.54 114.78 97.79 115.11 94.55 115.43 91.31 115.75 88.93 116.07 90.78 116.39 92.74 116.72 91.82 117.04 91.03 117.36 89.54 117.68 91.41 118 91.56 118.32 90.68 118.65 92.66 118.97 92.13 119.29 88.65 119.61 90.32 119.93 87.81 120.26 86.07 120.58 84.26 120.9 81.68 121.22 81.46 121.54 80.98 121.87 82.24 122.19 81.19 122.51 78.87 122.83 78.22 123.15 75.8 123.47 73.58 123.8 75.24 124.12 74.18 124.44 74.35 124.76 74.34 125.08 74.31 125.41 76.17 125.73 74.23 126.05 75.39 126.37 74.45 126.69 76.45 127.01 76.78 127.34 76.89 127.66 78.14 127.98 78.24 128.3 76.25 128.62 74.95 128.95 75.9 129.27 75.63 129.59 75.35 129.91 75.75 130.23 75.55 130.56 75.73 130.88 72.35 131.2 72.13 131.52 71.22 131.84 71.83 132.16 70.82 132.49 70.09 132.81 69.2 133.13 68.9 133.45 65.75 133.77 68.72 134.1 67.7 134.42 66.55 134.74 67.34 135.06 67.02 135.38 68.07 135.7 68.83 136.03 71.6 136.35 69.38 136.67 69.93 136.99 68.93 137.31 69.1 137.64 66.06 137.96 65.39 138.28 62.24 138.6 61.87 138.92 59.55 139.25 59.2 139.57 58.56 139.89 58.76 140.21 58.31 140.53 56.97 140.85 56.06 141.18 57.9 141.5 55.85 141.82 56.7 142.14 55.36 142.46 54.95 142.79 54.62 143.11 53.87 143.43 54.92 143.75 54.87 144.07 55.7 144.39 54.88 144.72 54.32 145.04 56.06 145.36 56.56 145.68 57.67 146 58.46 146.33 58.2 146.65 60.54 146.97 57.73 147.29 56.85 147.61 59.39 147.94 60.42 148.26 59.65 148.58 62.68 148.9 62.97 149.22 62.76 149.54 60.8 149.87 58.37 150.19 56.3 150.51 54.07 150.83 54.56 151.15 52.86 151.48 52.75 151.8 50.29 152.12 49.59 152.44 48.65 152.76 48.08 153.08 46.85 153.41 46.2 153.73 46.66 154.05 46.37 154.37 42.68 154.69 43.9 155.02 43.22 155.34 42.69 155.66 41.48 155.98 44.5 156.3 45.94 156.63 45.87 156.95 46.75 157.27 47.09 157.59 45.98 157.91 45.58 158.23 46.59 158.56 46.59 158.88 44.22 159.2 41.95 159.52 42.55 159.84 40.7 160.17 39.87 160.49 38.89 160.81 39.84 161.13 41.75 161.45 39.82 161.77 40.86 162.1 41.62 162.42 41.36 162.74 43.28 163.06 42.29 163.38 40.52 163.71 40.92 164.03 43.07 164.35 43.59 164.67 44.08 164.99 42.69 165.32 41.4 165.64 40.91 165.96 41.25 166.28 41.36 166.6 40.54 166.92 39.33 167.25 36.94 167.57 38.45 167.89 38 168.21 37.66 168.53 39.69 168.86 39.97 169.18 40.5 169.5 41.7 169.82 41.27 170.14 44.27 170.47 42.89 170.79 41.07 171.11 39.33 171.43 38.21 171.75 37.68 172.07 37.51 172.4 37.69 172.72 38.58 173.04 38.27 173.36 37.4 173.68 39.13 174.01 39.35 174.33 39.77 174.65 39.2 174.97 40.31 175.29 38.99 175.61 39.57 175.94 37.94 176.26 38.43 176.58 36.94 176.9 37.27 177.22 36.46 177.55 36.18 177.87 36.29 178.19 34.3 178.51 34.08 178.83 33.59 179.16 33.74 179.48 34.18 179.8 31.45 180.12 31.62 180.44 31.46 180.76 30.96 181.09 30.78 181.41 29.28 181.73 30.69 182.05 31.13 182.37 32.66 182.7 33.43 183.02 32.82 183.34 31.81 183.66 28.53 183.98 27.88 184.3 28.05 184.63 29.33 184.95 28.85 185.27 27.59 185.59 28.02 185.91 27.56 186.24 27.28 186.56 27.77 186.88 26.9 187.2 28.47 187.52 26.23 187.85 26.14 188.17 25.66 188.49 25.33 188.81 26.94 189.13 26.43 189.45 26.56 189.78 27.76 190.1 27.37 190.42 29.61 190.74 27.91 191.06 29.01 191.39 29.13 191.71 27.01 192.03 28.81 192.35 27.16 192.67 26.37 192.99 25.33 193.32 27.79 193.64 27.95 193.96 29.42 194.28 30.25 194.6 29.89 194.93 30.86 195.25 29.45 195.57 29.73 195.89 31.64 196.21 30.55 196.54 31.21 196.86 32.29 197.18 30.89 197.5 30.45 197.82 29.87 198.14 29.59 198.47 30.47 198.79 30.41 199.11 30.68 199.43 31.48 199.75 33.35 200.08 32.8 200.4 33.39 200.72 32.01 201.04 30.96 201.36 31.3 201.68 31.08 202.01 30.04 202.33 30.43 202.65 27.31 202.97 26.73 203.29 26.91 203.62 26.72 203.94 26.85 204.26 25.36 204.58 24 204.9 23.99 205.23 24.14 205.55 23.53 205.87 24.2 206.19 24.04 206.51 24.21 206.83 25.59 207.16 26.23 207.48 27.61 207.8 26.5 208.12 27.96 208.44 28.35 208.77 29.52 209.09 29.5 209.41 30.05 209.73 27.31 210.05 27.54 210.37 26.68 210.7 26.37 211.02 25.64 211.34 24.5 211.66 25.08 211.98 26.31 212.31 25.68 212.63 26.81 212.95 25.22 213.27 26.41 213.59 29.2 213.92 30.31 214.24 30.71 214.56 28.65 214.88 27.66 215.2 25.9 215.52 27.33 215.85 26.1 216.17 26.79 216.49 25.96 216.81 28.09 217.13 27.07 217.46 27.31 217.78 27.51 218.1 26.16 218.42 25.76 218.74 25.63 219.06 24.85 219.39 25.86 219.71 27.38 220.03 26.3 220.35 24.85 220.67 24.36 221 24.32 221.32 22.82 221.64 22.67 221.96 22.32 222.28 22.24 222.61 21.44 222.93 22.72 223.25 23.19 223.57 23.37 223.89 25.12 224.21 24.34 224.54 24.1 224.86 24.93 225.18 24.57 225.5 24.42 225.82 25.08 226.15 25.13 226.47 25.97 226.79 25.4 227.11 26.8 227.43 26.59 227.75 25.79 228.08 25.5 228.4 26.4 228.72 27.58 229.04 29.27 229.36 28.7 229.69 28.49 230.01 28.4 230.33 27.63 230.65 29.01 230.97 28.51 231.3 29.87 231.62 30.17 231.94 32.27 232.26 33.93 232.58 34.72 232.9 34.37 233.23 34.11 233.55 33.15 233.87 32.73 234.19 32.29 234.51 33.24 234.84 34.32 235.16 34.93 235.48 36.79 235.8 36.92 236.12 37.09 236.44 37.55 236.77 37.31 237.09 38.68 237.41 40.56 237.73 39.87 238.05 40.8 238.38 41.66 238.7 42.11 239.02 42.86 239.34 41.58 239.66 40.46 239.99 40.41 240.31 40.58 240.63 41.11 240.95 40.07 241.27 39.68 241.59 39.39 241.92 40.92 242.24 40 242.56 40.55 242.88 40.17 243.2 40.08 243.53 38.71 243.85 37.29 244.17 35.95 244.49 35.99 244.81 36.1 245.13 36.01 245.46 35.56 245.78 35.58 246.1 36.88 246.42 37.74 246.74 38.87 247.07 39.53 247.39 38.22 247.71 38.3 248.03 37.59 248.35 37.63 248.68 36.68 249 38.53 249.32 38.93 249.64 38.96 249.96 38.57 250.28 38.81 250.61 39 250.93 37.86 251.25 37.24 251.57 37.54 251.89 37.55 252.22 36.86 252.54 38.36 252.86 37.51 253.18 36.13 253.5 36.71 253.82 36.66 254.15 38.2 254.47 38.31 254.79 37.97 255.11 38.66 255.43 38.77 255.76 39.69 256.08 39.76 256.4 39.96 256.72 39.44 257.04 38.69 257.37 37.06 257.69 36.2 258.01 36.57 258.33 36.71 258.65 35.03 258.97 36.21 259.3 36.39 259.62 34.03 259.94 34.35 260.26 35.47 260.58 35.12 260.91 36.3 261.23 37.68 261.55 37.8 261.87 38.89 262.19 39.28 262.51 38.07 262.84 36.15 263.16 36.87 263.48 37.28 263.8 36.93 264.12 37.93 264.45 37.91 264.77 38.85 265.09 39.67 265.41 39.82 265.73 39.9 266.06 39.06 266.38 39.41 266.7 38.77 267.02 40.42 267.34 40.16 267.66 39.38 267.99 39.31 268.31 39.37 268.63 39.75 268.95 39.59 269.27 38.75 269.6 37.75 269.92 37.5 270.24 37.94 270.56 36.23 270.88 35.23 271.21 36.13 271.53 35.9 271.85 37.45 272.17 38.97 272.49 39.73 272.81 39.66 273.14 40.17 273.46 38.97 273.78 36.98 274.1 36.14 274.42 34.91 274.75 34.07 275.07 33 275.39 30.67 275.71 31.31 276.03 32.42 276.35 29.96 276.68 30.53 277 31.71 277.32 32.62 277.64 31.83 277.96 32.3 278.29 32.66 278.61 32.94 278.93 32.09 279.25 32.14 279.57 31.31 279.9 31.29 280.22 30.21 280.54 29.44 280.86 29 281.18 28.39 281.5 30.11 281.83 30.33 282.15 30.62 282.47 32.03 282.79 31.89 283.11 31.31 283.44 30.78 283.76 31.49 284.08 31.19 284.4 30.78 284.72 29.12 285.04 30.18 285.37 29.58 285.69 29.85 286.01 29.62 286.33 30.63 286.65 31.39 286.98 32.83 287.3 32.95 287.62 32.74 287.94 32.98 288.26 33.65 288.59 33.1 288.91 32.23 289.23 32.45 289.55 31.17 289.87 32.34 290.19 31.64 290.52 30.94 290.84 31.74 291.16 31.19 291.48 30.55 291.8 29.58 292.13 29.23 292.45 30.03 292.77 30.64 293.09 31.12 293.41 30.19 293.73 30.79 294.06 31.81 294.38 31.43 294.7 30.7 295.02 28.8 295.34 28 295.67 28.01 295.99 27.91 296.31 28.65 296.63 26.66 296.95 27.34 297.28 27.15 297.6 26.45 297.92 27.76 298.24 26.98 298.56 26.63 298.88 26.89 299.21 26.55 299.53 27.02 299.85 29.01 300.17 28.35 300.49 28.72 300.82 27.32 301.14 28.09 301.46 27.33 301.78 26.92 302.1 26.91 302.42 27.97 302.75 27.87 303.07 29.17 303.39 29.91 303.71 30.57 304.03 29.56 304.36 31.01 304.68 31.76 305 33.07 305.32 32.72 305.64 32.33 305.97 30.76 306.29 31.36 306.61 30.03 306.93 29.41 307.25 29.3 307.57 28.54 307.9 29.3 308.22 29.55 308.54 30.23 308.86 28.23 309.18 28.98 309.51 28.96 309.83 28.45 310.15 30.33 310.47 29.78 310.79 31.32 311.11 30.8 311.44 32.36 311.76 33 312.08 32.96 312.4 33.45 312.72 34.46 313.05 32.75 313.37 32.55 313.69 30.79 314.01 31.4 314.33 31.74 314.66 30.07 314.98 29.87 315.3 29.85 315.62 28.73 315.94 29.19 316.26 30.34 316.59 30.15 316.91 30.58 317.23 30.66 317.55 30.11 317.87 31.46 318.2 32.75 318.52 31.66 318.84 31.57 319.16 30.63 319.48 30.76 319.8 30.21 320.13 29.85 320.45 30.52 320.77 29.5 321.09 28.72 321.41 28.52 321.74 28.55 322.06 26.56 322.38 27.95 322.7 28.9 323.02 27.35 323.35 27.48 323.67 28.94 323.99 29.27 324.31 28.85 324.63 27.81 324.95 27.4 325.28 27.89 325.6 29.07 325.92 27.77 326.24 27.69 326.56 28.24 326.89 28.69 327.21 27.95 327.53 29.21 327.85 29.58 328.17 28.52 328.49 28.01 328.82 27.65 329.14 27.58 329.46 28.22 329.78 28.3 330.1 29.06 330.43 28.43 330.75 28.18 331.07 28.53 331.39 27.59 331.71 26.13 332.04 25.22 332.36 24.41 332.68 24.84 333 23.98 333.32 24.98 333.64 24.1 333.97 23.04 334.29 22.83 334.61 22.91 334.93 23.57 335.25 24.74 335.58 24.84 335.9 25.08 336.22 24.06 336.54 24.9 336.86 24.97 337.18 25.26 337.51 25.61 337.83 25.04 338.15 25.02 338.47 24.88 338.79 24.4 339.12 25.73 339.44 25.75 339.76 25.69 340.08 25.93 340.4 25.3 340.73 26.59 341.05 28.94 341.37 29.95 341.69 29.49 342.01 28.04 342.33 26.77 342.66 27.97 342.98 28.55 343.3 27.63 343.62 27.63 343.94 27.18 344.27 26.5 344.59 25.52 344.91 24.19 345.23 24.1 345.55 24.11 345.87 25.78 346.2 25.13 346.52 25.27 346.84 26.49 347.16 26.41 347.48 25.98 347.81 27 348.13 27.47 348.45 27.33 348.77 28.31 349.09 28.27 349.42 28.27 349.74 27.04 350.06 25.87 350.38 26.46 350.7 25.13 351.02 24.59 351.35 25.97 351.67 26.8 351.99 27.47 352.31 27.55 352.63 27.95 352.96 28.9 353.28 29.9 353.6 28.72 353.92 28.48 354.24 28.36 354.56 28.42 354.89 27.8 355.21 27.35 355.53 27.11 355.85 25.09 356.17 25.55 356.5 24.78 356.82 23.86 357.14 23.66 357.46 24.73 357.78 25.07 358.11 24.68 358.43 25 358.75 24.87 359.07 25.32 359.39 24.79 359.71 23.66 360.04 24.23 360.36 25.21 360.68 25.76 361 25.94 361.32 26.5 361.65 27.53 361.97 26.18 362.29 26.63 362.61 25.8 362.93 26.5 363.25 26.92 363.58 26.55 363.9 26.68 364.22 26.02 364.54 25.69 364.86 25.6 365.19 25.92 365.51 27.05 365.83 27.71 366.15 28.59 366.47 28.79 366.8 28.77 367.12 28.24 367.44 28.78 367.76 29.46 368.08 29.36 368.4 29.53 368.73 29.51 369.05 27.49 369.37 26.6 369.69 27.26 370.01 26.62 370.34 27.22 370.66 28.59 370.98 27.54 371.3 27.4 371.62 27.39 371.95 27.98 372.27 27.02 372.59 26.88 372.91 25.86 373.23 25.54 373.55 25.07 373.88 25.79 374.2 25.64 374.52 26.49 374.84 28.38 375.16 27.59 375.49 26.52 375.81 26.25 376.13 25.99 376.45 25.69 376.77 27.17 377.09 27.98 377.42 28.4 377.74 28.59 378.06 28.24 378.38 27.25 378.7 26.02 379.03 25.96 379.35 25.52 379.67 25.73 379.99 25.63 380.31 24.95 380.64 24.53 380.96 24.89 381.28 24.44 381.6 23.69 381.92 24.22 382.24 23.9 382.57 23.15 382.89 22.52 383.21 22.69 383.53 22.14 383.85 21.11 384.18 21.88 384.5 23.55 384.82 22.87 385.14 23.58 385.46 24.23 385.78 23.64 386.11 24.75 386.43 24.54 386.75 22.77 387.07 23.64 387.39 24.05 387.72 23.69 388.04 23.51 388.36 24.41 388.68 24.21 389 24.57 389.33 25.4 389.65 24.46 389.97 23.14 390.29 24.3 390.61 23.43 390.93 23.34 391.26 22.97" clip-path="url(#cpNTMuNjV8NDA3LjMzfDM0OS40NXw1LjQ4)" style="stroke-width:1.07;stroke:#001959;stroke-linecap:butt"/><polyline points="69.73 272.04 70.05 266.76 70.37 251.34 70.69 271.95 71.01 273.17 71.33 273.83 71.66 270.58 71.98 274.5 72.3 274.83 72.62 268.46 72.94 269 73.27 268.05 73.59 271.07 73.91 270.55 74.23 270.16 74.55 271.36 74.87 274.24 75.2 274.53 75.52 277.6 75.84 259.1 76.16 258.19 76.48 257.73 76.81 258.71 77.13 252.87 77.45 250.82 77.77 252.63 78.09 252.74 78.42 255.7 78.74 255.79 79.06 247.79 79.38 244.76 79.7 248.51 80.02 246.66 80.35 244.66 80.67 246.2 80.99 243.34 81.31 255.23 81.63 259.91 81.96 260.86 82.28 259.82 82.6 253.32 82.92 254.05 83.24 249.5 83.56 250.51 83.89 253.53 84.21 252.49 84.53 253.17 84.85 260.33 85.17 261.31 85.5 259.9 85.82 259.57 86.14 262.92 86.46 263.42 86.78 262.55 87.11 263.43 87.43 262.87 87.75 259.06 88.07 261.02 88.39 250.19 88.71 247.82 89.04 246.65 89.36 239.79 89.68 239.89 90 242.26 90.32 242.3 90.65 240.26 90.97 242.51 91.29 242.35 91.61 241.51 91.93 241.96 92.25 241.97 92.58 242.76 92.9 243.32 93.22 242.38 93.54 239.86 93.86 240.09 94.19 236.51 94.51 233.84 94.83 233.9 95.15 233.72 95.47 233.51 95.8 232.98 96.12 232.12 96.44 232.42 96.76 229.58 97.08 226.25 97.4 225.38 97.73 227.47 98.05 227.69 98.37 227.44 98.69 227.27 99.01 225.58 99.34 218.13 99.66 215.6 99.98 216.91 100.3 215.65 100.62 218.1 100.94 215.67 101.27 212.73 101.59 212.59 101.91 212.49 102.23 212.71 102.55 212.78 102.88 214.99 103.2 212.81 103.52 212.63 103.84 211.57 104.16 211.46 104.49 211 104.81 211.02 105.13 209.94 105.45 206.94 105.77 208.69 106.09 209.39 106.42 209.37 106.74 207.31 107.06 207.27 107.38 207.38 107.7 207.01 108.03 207.11 108.35 207.69 108.67 210.68 108.99 202.52 109.31 204.29 109.63 208.65 109.96 208.6 110.28 208.52 110.6 204.26 110.92 202.32 111.24 201.73 111.57 198.04 111.89 197.79 112.21 198.52 112.53 198.23 112.85 197 113.18 196.32 113.5 196.31 113.82 192.42 114.14 191.51 114.46 192.54 114.78 192.45 115.11 187.9 115.43 185.82 115.75 186.08 116.07 187.04 116.39 187.84 116.72 186.29 117.04 186.07 117.36 185.3 117.68 185.96 118 185.91 118.32 185.82 118.65 189.11 118.97 189.58 119.29 189.15 119.61 191.46 119.93 192.07 120.26 193.95 120.58 195.58 120.9 196.61 121.22 196.81 121.54 196.94 121.87 196.39 122.19 196.59 122.51 195.61 122.83 195.2 123.15 191.01 123.47 191.17 123.8 190.61 124.12 188.99 124.44 189.29 124.76 189.29 125.08 189.3 125.41 185.82 125.73 183.02 126.05 182.03 126.37 183.11 126.69 189.17 127.01 189.25 127.34 189.24 127.66 185.86 127.98 185.85 128.3 183.93 128.62 183.4 128.95 184.25 129.27 183.72 129.59 183.4 129.91 183.19 130.23 183.05 130.56 183.02 130.88 184.83 131.2 185.47 131.52 186.19 131.84 186.49 132.16 184.31 132.49 183.95 132.81 183.4 133.13 183.69 133.45 183.18 133.77 177.12 134.1 176.63 134.42 175.84 134.74 175.99 135.06 175.76 135.38 176.09 135.7 176.65 136.03 181.62 136.35 179.22 136.67 179.23 136.99 180.32 137.31 180.39 137.64 181.58 137.96 180.59 138.28 185.48 138.6 185.62 138.92 184.67 139.25 184.72 139.57 185.1 139.89 185.04 140.21 184.77 140.53 183.61 140.85 183.02 141.18 187.05 141.5 184.74 141.82 184.97 142.14 185.82 142.46 184.67 142.79 184.45 143.11 184.95 143.43 185.14 143.75 185.15 144.07 184.93 144.39 185.66 144.72 185.6 145.04 186.14 145.36 185.61 145.68 182.18 146 181.99 146.33 181.98 146.65 183.32 146.97 183.16 147.29 182.81 147.61 180.11 147.94 180.82 148.26 180.28 148.58 181.02 148.9 181.4 149.22 181.32 149.54 180.81 149.87 180.17 150.19 179.28 150.51 176.97 150.83 177.19 151.15 176.08 151.48 176.21 151.8 177.11 152.12 176.09 152.44 177.22 152.76 177.08 153.08 176.59 153.41 175.96 153.73 175.8 154.05 175.76 154.37 182.05 154.69 182.45 155.02 182.89 155.34 183.01 155.66 184.4 155.98 185.54 156.3 186.47 156.63 186.49 156.95 188.06 157.27 188.28 157.59 187.26 157.91 186.46 158.23 185.82 158.56 185.82 158.88 183.54 159.2 183.55 159.52 183.74 159.84 185.57 160.17 185.19 160.49 185.86 160.81 186.61 161.13 185.09 161.45 184.48 161.77 183.62 162.1 183.44 162.42 183.83 162.74 184.07 163.06 183.11 163.38 182.79 163.71 182.09 164.03 180.77 164.35 181.62 164.67 182.5 164.99 184.13 165.32 184.59 165.64 184.42 165.96 184.53 166.28 184.47 166.6 185.24 166.92 185.45 167.25 183.06 167.57 183.1 167.89 183.38 168.21 183.56 168.53 186.8 168.86 186.68 169.18 187.08 169.5 188.83 169.82 188.64 170.14 187.38 170.47 187.44 170.79 188.33 171.11 186.2 171.43 186.37 171.75 185.55 172.07 185.64 172.4 185.53 172.72 185.65 173.04 185.65 173.36 186.08 173.68 183.37 174.01 183.38 174.33 183.08 174.65 182.48 174.97 181.42 175.29 179.94 175.61 179.56 175.94 179.08 176.26 179.52 176.58 180.29 176.9 180.47 177.22 180.54 177.55 180.86 177.87 180.83 178.19 177.63 178.51 177.68 178.83 178.07 179.16 178.06 179.48 178.21 179.8 175.61 180.12 175.8 180.44 175.79 180.76 175.21 181.09 175.34 181.41 178.82 181.73 178.16 182.05 177.94 182.37 174.46 182.7 174.89 183.02 175.35 183.34 175.58 183.66 180.63 183.98 180.29 184.3 180.6 184.63 179.51 184.95 179.56 185.27 177.18 185.59 177.57 185.91 176.72 186.24 176.72 186.56 176.64 186.88 177.07 187.2 179.24 187.52 182.02 187.85 181.99 188.17 182.01 188.49 181.3 188.81 180.35 189.13 181.1 189.45 181.13 189.78 181.08 190.1 181.4 190.42 181.68 190.74 182.14 191.06 181.41 191.39 181.47 191.71 182.16 192.03 178.95 192.35 183.16 192.67 183.59 192.99 182.14 193.32 184.12 193.64 184.31 193.96 185.69 194.28 185.94 194.6 186.46 194.93 186.65 195.25 184.5 195.57 183.59 195.89 182.16 196.21 181.01 196.54 181.34 196.86 182.16 197.18 181.55 197.5 181.32 197.82 181.31 198.14 181.55 198.47 180.52 198.79 180.52 199.11 180.41 199.43 179.71 199.75 180.47 200.08 180.38 200.4 181.23 200.72 182.72 201.04 183.25 201.36 183.22 201.68 183.52 202.01 183.81 202.33 183.54 202.65 189.87 202.97 190.02 203.29 189.93 203.62 189.72 203.94 189.65 204.26 188.86 204.58 188.68 204.9 188.69 205.23 188.74 205.55 188.8 205.87 188.91 206.19 188.81 206.51 188.83 206.83 190.89 207.16 190.96 207.48 189.33 207.8 188.55 208.12 186.86 208.44 186.17 208.77 185.27 209.09 185.29 209.41 184.97 209.73 180.84 210.05 181.2 210.37 180.61 210.7 180.98 211.02 180.97 211.34 180.44 211.66 180.37 211.98 180.57 212.31 181.13 212.63 179.76 212.95 177.65 213.27 177.95 213.59 176.87 213.92 177.21 214.24 177.99 214.56 177.28 214.88 175.96 215.2 173.68 215.52 173.13 215.85 172.24 216.17 171.82 216.49 172.98 216.81 170.55 217.13 170.7 217.46 171.1 217.78 171.12 218.1 172.15 218.42 172.06 218.74 171.98 219.06 172.94 219.39 171.93 219.71 169.16 220.03 170.45 220.35 171.66 220.67 171.79 221 171.74 221.32 170.48 221.64 170.44 221.96 170.62 222.28 170.63 222.61 170.21 222.93 169.6 223.25 170.08 223.57 170.26 223.89 168.33 224.21 168.88 224.54 168.61 224.86 167.29 225.18 167.14 225.5 167.11 225.82 169.09 226.15 168.94 226.47 168.28 226.79 167.91 227.11 170.11 227.43 169.95 227.75 171.03 228.08 170.42 228.4 168.93 228.72 167.7 229.04 167.63 229.36 166.45 229.69 166.35 230.01 166.28 230.33 165.04 230.65 166.32 230.97 166.89 231.3 167.79 231.62 167.76 231.94 171.26 232.26 170.88 232.58 169.76 232.9 169.6 233.23 169.51 233.55 169.53 233.87 169.94 234.19 170.29 234.51 170.27 234.84 171.32 235.16 171.12 235.48 169.6 235.8 169.26 236.12 169.34 236.44 169.52 236.77 169.23 237.09 171.11 237.41 170.86 237.73 170.02 238.05 170.02 238.38 169.48 238.7 169.12 239.02 168.87 239.34 168.6 239.66 168.63 239.99 168.62 240.31 168.65 240.63 169 240.95 169.27 241.27 168.67 241.59 168.55 241.92 166.83 242.24 167.07 242.56 167.33 242.88 167.48 243.2 167.45 243.53 166.89 243.85 165.14 244.17 165.97 244.49 165.97 244.81 165.91 245.13 166.01 245.46 166.79 245.78 166.79 246.1 167.53 246.42 168.05 246.74 166.57 247.07 165.87 247.39 167.27 247.71 167.22 248.03 167.1 248.35 167.12 248.68 167.86 249 162.91 249.32 163.26 249.64 163.28 249.96 163.53 250.28 163.3 250.61 163.24 250.93 163.13 251.25 162.72 251.57 163.1 251.89 163.08 252.22 162.89 252.54 164.77 252.86 165.48 253.18 165.77 253.5 164.8 253.82 164.79 254.15 163.87 254.47 163.77 254.79 164.02 255.11 164.31 255.43 164.09 255.76 163.72 256.08 163.66 256.4 163.48 256.72 163.24 257.04 163 257.37 163.16 257.69 162.73 258.01 162.52 258.33 162.25 258.65 160.44 258.97 160.18 259.3 160.12 259.62 159.77 259.94 159.99 260.26 160.45 260.58 160.13 260.91 160.18 261.23 159.52 261.55 159.49 261.87 160.34 262.19 160.03 262.51 161.12 262.84 160.55 263.16 160.97 263.48 160.32 263.8 160.06 264.12 160.07 264.45 160.08 264.77 161.06 265.09 162.21 265.41 162.05 265.73 162.12 266.06 162.62 266.38 162.66 266.7 162.37 267.02 162.58 267.34 162.95 267.66 163.32 267.99 163.23 268.31 163.24 268.63 162.93 268.95 163.03 269.27 162.19 269.6 161.86 269.92 162.07 270.24 162.07 270.56 161.1 270.88 159.47 271.21 158.72 271.53 158.8 271.85 160.28 272.17 159.61 272.49 160.67 272.81 160.59 273.14 159.79 273.46 159.3 273.78 161.98 274.1 163.15 274.42 163.06 274.75 163.02 275.07 163.05 275.39 160.25 275.71 160.43 276.03 159.72 276.35 159.44 276.68 159.16 277 159.08 277.32 158.08 277.64 158.16 277.96 158.21 278.29 157.96 278.61 157.98 278.93 158.51 279.25 158.48 279.57 158.64 279.9 158.63 280.22 158.84 280.54 158.7 280.86 158.29 281.18 158.45 281.5 158.28 281.83 158.39 282.15 158.04 282.47 158.78 282.79 158.85 283.11 159.49 283.44 160.39 283.76 159.9 284.08 160.24 284.4 160.7 284.72 158.11 285.04 156.88 285.37 156.3 285.69 156.44 286.01 156.64 286.33 156.04 286.65 155.74 286.98 156 287.3 155.96 287.62 155.8 287.94 155.74 288.26 154.33 288.59 154.38 288.91 155.94 289.23 156.14 289.55 157.05 289.87 155.8 290.19 156.19 290.52 155.79 290.84 154.31 291.16 154.18 291.48 154.77 291.8 154.78 292.13 154.55 292.45 154.99 292.77 155.88 293.09 155.93 293.41 156.56 293.73 157.78 294.06 157.48 294.38 157.19 294.7 156.53 295.02 155.7 295.34 154.6 295.67 154.59 295.99 154.72 296.31 154.46 296.63 155.51 296.95 155.73 297.28 155.9 297.6 155.43 297.92 153.96 298.24 152.65 298.56 152.16 298.88 152.04 299.21 152 299.53 151.83 299.85 149.51 300.17 151.2 300.49 151.19 300.82 151.24 301.14 152.46 301.46 153.92 301.78 154.19 302.1 154.19 302.42 154.54 302.75 154.52 303.07 153.74 303.39 153.88 303.71 153.73 304.03 153.62 304.36 152.82 304.68 153.68 305 155.02 305.32 154.57 305.64 154.71 305.97 155.17 306.29 154.97 306.61 153.2 306.93 153.38 307.25 153.37 307.57 153.1 307.9 153.59 308.22 153.53 308.54 155.06 308.86 156.85 309.18 155.82 309.51 155.82 309.83 154.95 310.15 155.04 310.47 154.98 310.79 156.27 311.11 156.32 311.44 156.48 311.76 157.23 312.08 157.23 312.4 156.87 312.72 157.26 313.05 159.08 313.37 159.37 313.69 159.58 314.01 158.92 314.33 159.11 314.66 159.35 314.98 159.5 315.3 159.47 315.62 159.59 315.94 160.22 316.26 160.09 316.59 160.15 316.91 160.31 317.23 160.38 317.55 158.93 317.87 157.56 318.2 157.33 318.52 156.18 318.84 156.15 319.16 156.33 319.48 156.16 319.8 156.31 320.13 156.38 320.45 156.32 320.77 154.73 321.09 155.08 321.41 155.39 321.74 155.41 322.06 155.63 322.38 155.35 322.7 155.94 323.02 160.31 323.35 160.23 323.67 160.02 323.99 160.21 324.31 160.32 324.63 161.33 324.95 161.19 325.28 161.2 325.6 161.32 325.92 159.85 326.24 159.89 326.56 159.23 326.89 158.66 327.21 159.4 327.53 157.71 327.85 157.69 328.17 155.82 328.49 155.87 328.82 155.59 329.14 155.66 329.46 155.52 329.78 155.56 330.1 155.3 330.43 154.81 330.75 154.65 331.07 154.43 331.39 155.14 331.71 151.82 332.04 151.99 332.36 151.98 332.68 151.96 333 152.44 333.32 151.54 333.64 152.5 333.97 151.57 334.29 151.77 334.61 151.82 334.93 152.71 335.25 154.03 335.58 154.02 335.9 153.89 336.22 154.96 336.54 154.95 336.86 154.93 337.18 154.97 337.51 154.77 337.83 154.42 338.15 154.41 338.47 154.27 338.79 153.21 339.12 153.46 339.44 153.45 339.76 153.45 340.08 153.07 340.4 152.99 340.73 152.46 341.05 153.39 341.37 153.13 341.69 153.74 342.01 153.69 342.33 155.37 342.66 156.42 342.98 155.38 343.3 155.51 343.62 155.51 343.94 156.17 344.27 155.24 344.59 156.08 344.91 156.74 345.23 156.73 345.55 156.72 345.87 155.04 346.2 154.78 346.52 154.71 346.84 155.32 347.16 155.36 347.48 155.76 347.81 155.67 348.13 155.97 348.45 155.93 348.77 155.87 349.09 155.94 349.42 155.93 349.74 155.98 350.06 156.97 350.38 156.85 350.7 156.51 351.02 157.32 351.35 158.29 351.67 158.49 351.99 159.28 352.31 159.36 352.63 159.16 352.96 158.69 353.28 157.72 353.6 158.14 353.92 157.92 354.24 157.71 354.56 157.77 354.89 158.89 355.21 158.53 355.53 158.28 355.85 157.06 356.17 156.67 356.5 155.86 356.82 155.2 357.14 155.07 357.46 154.67 357.78 154.95 358.11 154.91 358.43 154.89 358.75 154.7 359.07 155.04 359.39 156.55 359.71 157.02 360.04 156.18 360.36 156.75 360.68 156.51 361 156.67 361.32 156.93 361.65 156.95 361.97 157.06 362.29 156.9 362.61 156.74 362.93 155.97 363.25 156.25 363.58 156.4 363.9 156.3 364.22 156.51 364.54 155.89 364.86 156.06 365.19 155.94 365.51 156.06 365.83 155.71 366.15 155.35 366.47 155.43 366.8 155.42 367.12 155.78 367.44 156.08 367.76 156.2 368.08 156.14 368.4 155.92 368.73 155.93 369.05 156.32 369.37 155.47 369.69 155.13 370.01 155.78 370.34 156.24 370.66 156.87 370.98 158.16 371.3 157.88 371.62 157.86 371.95 157.05 372.27 155.01 372.59 155.26 372.91 155.16 373.23 155.52 373.55 155.69 373.88 155.45 374.2 155.4 374.52 154.46 374.84 149.36 375.16 149.43 375.49 150.21 375.81 150.15 376.13 150.36 376.45 150.13 376.77 150.17 377.09 150.65 377.42 150.23 377.74 150.2 378.06 150.08 378.38 150.16 378.7 148.18 379.03 148.3 379.35 147.98 379.67 147.99 379.99 147.9 380.31 147.96 380.64 149.08 380.96 149.23 381.28 149.33 381.6 150.05 381.92 149.72 382.24 149.7 382.57 147.9 382.89 147.78 383.21 147.63 383.53 146.61 383.85 147.04 384.18 146.42 384.5 144.39 384.82 144.83 385.14 146.17 385.46 146.74 385.78 146.32 386.11 146.48 386.43 146.42 386.75 145.4 387.07 145.59 387.39 145.65 387.72 145.32 388.04 145.35 388.36 145.57 388.68 145.75 389 146.3 389.33 147.44 389.65 149.11 389.97 149.39 390.29 150.02 390.61 149.6 390.93 149.54 391.26 149.7" clip-path="url(#cpNTMuNjV8NDA3LjMzfDM0OS40NXw1LjQ4)" style="stroke-width:1.07;stroke:#4d724c;stroke-linecap:butt"/><polyline points="69.73 272.05 70.05 266.34 70.37 284.47 70.69 275.94 71.01 278.98 71.33 275.27 71.66 282.88 71.98 285.21 72.3 285.79 72.62 290.47 72.94 288.38 73.27 290.53 73.59 297.12 73.91 302.03 74.23 301.95 74.55 300.96 74.87 304.41 75.2 305.45 75.52 306.86 75.84 321.69 76.16 321.32 76.48 320.05 76.81 320.48 77.13 333.81 77.45 332.11 77.77 332.78 78.09 333.15 78.42 330.21 78.74 332.07 79.06 318.84 79.38 315.22 79.7 327.71 80.02 324.32 80.35 320.95 80.67 321.95 80.99 319.54 81.31 311.32 81.63 311.76 81.96 314.49 82.28 316.27 82.6 315.19 82.92 316.21 83.24 312.55 83.56 310.19 83.89 303.18 84.21 305.2 84.53 304.59 84.85 304.68 85.17 308.61 85.5 306.1 85.82 306.05 86.14 302.63 86.46 302.6 86.78 302.66 87.11 291.68 87.43 291.25 87.75 291.97 88.07 293.17 88.39 292.39 88.71 290.34 89.04 287.39 89.36 288.36 89.68 290.21 90 294.09 90.32 288.25 90.65 290.04 90.97 291.18 91.29 291.13 91.61 291.21 91.93 291.62 92.25 288.37 92.58 289.27 92.9 292.39 93.22 293.86 93.54 292.18 93.86 291.71 94.19 291.97 94.51 287.81 94.83 287.66 95.15 286.97 95.47 287.05 95.8 289.89 96.12 290.12 96.44 291.39 96.76 289.17 97.08 286.94 97.4 285.33 97.73 288.08 98.05 289.72 98.37 289.7 98.69 290.83 99.01 279.64 99.34 279.99 99.66 278.76 99.98 279.01 100.3 270.8 100.62 267.7 100.94 268.39 101.27 268.81 101.59 268.81 101.91 268.78 102.23 269.07 102.55 269.16 102.88 272.45 103.2 269.35 103.52 268.42 103.84 269.26 104.16 269.65 104.49 267.87 104.81 267.95 105.13 266.27 105.45 261.61 105.77 261.65 106.09 261.53 106.42 261.47 106.74 260.3 107.06 260.33 107.38 260.56 107.7 259.98 108.03 255.77 108.35 264.52 108.67 265.89 108.99 263.54 109.31 260.79 109.63 258.38 109.96 258.2 110.28 258.14 110.6 253.04 110.92 255.91 111.24 258.17 111.57 256.7 111.89 256.27 112.21 255.28 112.53 255.19 112.85 255.71 113.18 257.93 113.5 257.92 113.82 254.47 114.14 254.32 114.46 252.04 114.78 251.67 115.11 248.21 115.43 248.42 115.75 248.17 116.07 247.48 116.39 249.66 116.72 248.26 117.04 246.93 117.36 248.46 117.68 249.98 118 249.92 118.32 250.85 118.65 251.68 118.97 251.69 119.29 248.73 119.61 251.91 119.93 249.15 120.26 250.44 120.58 250.17 120.9 246.3 121.22 246.03 121.54 246.84 121.87 248.11 122.19 248.49 122.51 250.04 122.83 250.8 123.15 251.6 123.47 249.97 123.8 252.52 124.12 252.36 124.44 252.35 124.76 252.35 125.08 252.31 125.41 250.16 125.73 249.64 126.05 250.92 126.37 249.85 126.69 250.74 127.01 250.32 127.34 250.23 127.66 249.26 127.98 249.11 128.3 249.03 128.62 247.33 128.95 244.86 129.27 244.64 129.59 244.7 129.91 244.37 130.23 244.2 130.56 244.32 130.88 243.97 131.2 244.2 131.52 244.89 131.84 243.82 132.16 241.77 132.49 241.89 132.81 242.61 133.13 243.32 133.45 244.79 133.77 243.01 134.1 244.57 134.42 241.59 134.74 242.34 135.06 242.87 135.38 244.16 135.7 245.01 136.03 246.79 136.35 245.83 136.67 245.91 136.99 245.24 137.31 245.04 137.64 247.2 137.96 247.94 138.28 248.52 138.6 248.46 138.92 246.91 139.25 246.71 139.57 245.68 139.89 245.81 140.21 245.19 140.53 243.57 140.85 244.16 141.18 245.69 141.5 244.66 141.82 244.77 142.14 246.11 142.46 245.84 142.79 245.82 143.11 246.11 143.43 247.19 143.75 247.13 144.07 247.94 144.39 250.28 144.72 250.83 145.04 252.63 145.36 252.21 145.68 252.71 146 252.87 146.33 252.55 146.65 250.71 146.97 250.89 147.29 250.55 147.61 254.14 147.94 253.94 148.26 253.69 148.58 249.2 148.9 249.4 149.22 249.35 149.54 247.97 149.87 249.07 150.19 245.24 150.51 245.58 150.83 245.64 151.15 245.84 151.48 245.73 151.8 247.82 152.12 247.67 152.44 247.07 152.76 247.85 153.08 247.55 153.41 247.97 153.73 248.7 154.05 248.48 154.37 255.34 154.69 256.55 155.02 256.39 155.34 256.71 155.66 257.18 155.98 253.05 156.3 253.65 156.63 253.78 156.95 253.65 157.27 253.81 157.59 253.71 157.91 253.34 158.23 253.4 158.56 253.39 158.88 255.59 159.2 251.87 159.52 250.84 159.84 252.97 160.17 253.77 160.49 255.36 160.81 256.85 161.13 258.96 161.45 256.15 161.77 255.47 162.1 255.54 162.42 255.24 162.74 257.4 163.06 256.81 163.38 256.51 163.71 256.02 164.03 256.73 164.35 256.63 164.67 256.28 164.99 253.94 165.32 254.9 165.64 254.77 165.96 254.96 166.28 255.08 166.6 254.76 166.92 252.22 167.25 251.09 167.57 250.31 167.89 250.26 168.21 250.01 168.53 245.31 168.86 245.28 169.18 245.31 169.5 245 169.82 244.98 170.14 238.81 170.47 238.31 170.79 238.31 171.11 239.2 171.43 242.48 171.75 242.71 172.07 242.69 172.4 242.67 172.72 242.12 173.04 242.02 173.36 242.84 173.68 244.08 174.01 244.28 174.33 244.68 174.65 244.22 174.97 243.82 175.29 243.85 175.61 244.6 175.94 243.57 176.26 243.75 176.58 241.78 176.9 241.57 177.22 241.55 177.55 241.17 177.87 241.14 178.19 240.86 178.51 240.9 178.83 240.28 179.16 240.3 179.48 240.33 179.8 242.26 180.12 242.19 180.44 242.44 180.76 242.23 181.09 242.07 181.41 244.16 181.73 244.76 182.05 244.91 182.37 245.22 182.7 245.27 183.02 244.24 183.34 243.89 183.66 239.14 183.98 238.84 184.3 238.92 184.63 238.21 184.95 236.89 185.27 236.97 185.59 236.75 185.91 236.56 186.24 236.45 186.56 236.81 186.88 237.64 187.2 237.41 187.52 233.79 187.85 233.83 188.17 234.01 188.49 233.8 188.81 232.8 189.13 232.2 189.45 232.26 189.78 232.37 190.1 233.01 190.42 232.21 190.74 228.66 191.06 228.33 191.39 228.41 191.71 230.44 192.03 227.5 192.35 226.3 192.67 225.14 192.99 226.78 193.32 228.91 193.64 228.97 193.96 228.42 194.28 229.91 194.6 230.28 194.93 230.16 195.25 229.2 195.57 228.89 195.89 231.06 196.21 231.18 196.54 232.01 196.86 231.98 197.18 233.05 197.5 233.65 197.82 234.48 198.14 234.52 198.47 232.72 198.79 232.81 199.11 233.36 199.43 233.21 199.75 235.81 200.08 234.87 200.4 234.95 200.72 234.94 201.04 234.73 201.36 234.97 201.68 234.79 202.01 236.92 202.33 236.94 202.65 234.97 202.97 235.07 203.29 235.11 203.62 234.94 203.94 234.92 204.26 232.57 204.58 231.94 204.9 231.95 205.23 231.92 205.55 231.57 205.87 231.68 206.19 231.9 206.51 231.58 206.83 231.48 207.16 231.93 207.48 230.92 207.8 230.49 208.12 231.37 208.44 231.75 208.77 232.46 209.09 232.46 209.41 231.57 209.73 233.01 210.05 233.22 210.37 232.82 210.7 233.11 211.02 232.87 211.34 232.98 211.66 233.74 211.98 233.7 212.31 233.95 212.63 233.65 212.95 235.1 213.27 236.7 213.59 237.18 213.92 236.48 214.24 236.65 214.56 234.8 214.88 235.23 215.2 235.8 215.52 235.71 215.85 238.29 216.17 238.4 216.49 238.37 216.81 237.78 217.13 238.88 217.46 239.15 217.78 239.05 218.1 238.86 218.42 237.97 218.74 238.05 219.06 238.61 219.39 238.77 219.71 238.31 220.03 238.87 220.35 238.25 220.67 238.13 221 238.17 221.32 240.37 221.64 240.27 221.96 240.58 222.28 240.66 222.61 239.62 222.93 239.72 223.25 239.45 223.57 239.6 223.89 242.01 224.21 241.2 224.54 241.45 224.86 240.92 225.18 240.79 225.5 241.01 225.82 240.74 226.15 240.74 226.47 240.69 226.79 240.55 227.11 240.82 227.43 240.63 227.75 240.67 228.08 240.93 228.4 240.81 228.72 240.55 229.04 240.62 229.36 239.73 229.69 239.61 230.01 239.43 230.33 238.52 230.65 241.15 230.97 241.87 231.3 240.85 231.62 240.68 231.94 239.99 232.26 239.32 232.58 239.71 232.9 240.17 233.23 240.31 233.55 240.89 233.87 241.05 234.19 241.33 234.51 242.55 234.84 243.43 235.16 243.59 235.48 240.8 235.8 241.21 236.12 241.38 236.44 241.98 236.77 242.46 237.09 242.13 237.41 243.67 237.73 243.38 238.05 243.98 238.38 244.52 238.7 244.31 239.02 244.11 239.34 245.37 239.66 244.08 239.99 244.19 240.31 244.13 240.63 244.59 240.95 244.82 241.27 244.22 241.59 243.95 241.92 242.54 242.24 242.6 242.56 242.61 242.88 242.5 243.2 242.55 243.53 243.45 243.85 243.85 244.17 242.54 244.49 242.59 244.81 242.51 245.13 242.51 245.46 242.99 245.78 242.97 246.1 242.12 246.42 240.91 246.74 238.49 247.07 239.03 247.39 238.47 247.71 238.4 248.03 237.67 248.35 237.74 248.68 240.31 249 242.57 249.32 243.08 249.64 243.09 249.96 243.3 250.28 243.03 250.61 242.85 250.93 243.62 251.25 244.98 251.57 244.78 251.89 244.8 252.22 245.36 252.54 247.85 252.86 247.89 253.18 247.73 253.5 248.03 253.82 248.07 254.15 246.82 254.47 246.77 254.79 246.12 255.11 246.43 255.43 246.42 255.76 245.33 256.08 245.32 256.4 245.4 256.72 245.6 257.04 246.31 257.37 247.94 257.69 248.14 258.01 248.27 258.33 248.42 258.65 250.79 258.97 249.79 259.3 249.39 259.62 249.11 259.94 249.35 260.26 249.66 260.58 249.19 260.91 249.92 261.23 249.06 261.55 249.23 261.87 249.75 262.19 249.99 262.51 251.18 262.84 251.69 263.16 250.75 263.48 250.72 263.8 250.21 264.12 249.72 264.45 249.72 264.77 250.51 265.09 249.12 265.41 248.9 265.73 248.82 266.06 248.56 266.38 248.59 266.7 247.73 267.02 245.56 267.34 245.69 267.66 247.43 267.99 247.32 268.31 247.38 268.63 247.12 268.95 247.16 269.27 247.29 269.6 245.37 269.92 245.36 270.24 245.55 270.56 244.28 270.88 243.55 271.21 241.95 271.53 241.76 271.85 240.24 272.17 240.19 272.49 238.63 272.81 238.61 273.14 238.06 273.46 240.83 273.78 244.32 274.1 245.58 274.42 244.86 274.75 244.59 275.07 243.82 275.39 245.13 275.71 245.25 276.03 245.73 276.35 245.95 276.68 245.28 277 246.69 277.32 248.31 277.64 246.62 277.96 247.06 278.29 246.99 278.61 246.95 278.93 247.23 279.25 247.21 279.57 247.26 279.9 247.29 280.22 247.28 280.54 247.09 280.86 247.54 281.18 248.66 281.5 248 281.83 247.28 282.15 247.8 282.47 248.83 282.79 248.97 283.11 248.96 283.44 249.06 283.76 247.81 284.08 248.09 284.4 247.67 284.72 249.71 285.04 248.86 285.37 249.34 285.69 249.68 286.01 249.73 286.33 250.33 286.65 250.95 286.98 250.37 287.3 250.23 287.62 250.19 287.94 250.1 288.26 251.14 288.59 251.45 288.91 251.73 289.23 251.89 289.55 252.8 289.87 252.78 290.19 252.41 290.52 252.71 290.84 251.67 291.16 251.49 291.48 251.68 291.8 253.78 292.13 253.68 292.45 253.79 292.77 252.7 293.09 252.43 293.41 252.61 293.73 252.26 294.06 252.86 294.38 253.49 294.7 254.23 295.02 255.14 295.34 253.9 295.67 253.9 295.99 254.01 296.31 255.23 296.63 255.72 296.95 256.12 297.28 255.89 297.6 255.58 297.92 257.4 298.24 258.06 298.56 257.46 298.88 256.95 299.21 257.31 299.53 257.01 299.85 257.51 300.17 257.85 300.49 258.08 300.82 257.44 301.14 258.01 301.46 256.8 301.78 257.43 302.1 257.43 302.42 257.13 302.75 257.22 303.07 254.74 303.39 254.07 303.71 253.86 304.03 255.94 304.36 255.38 304.68 255.8 305 253.99 305.32 253.99 305.64 254.55 305.97 254.64 306.29 255.21 306.61 258.28 306.93 256.76 307.25 256.9 307.57 256.15 307.9 257.81 308.22 257.56 308.54 257.07 308.86 254.92 309.18 254.27 309.51 254.29 309.83 253.44 310.15 256.93 310.47 257.06 310.79 260.71 311.11 259.69 311.44 259.57 311.76 259.03 312.08 259.06 312.4 259.77 312.72 260.35 313.05 259.19 313.37 259.19 313.69 258.86 314.01 258.54 314.33 258.95 314.66 259.52 314.98 259.11 315.3 259.1 315.62 257.94 315.94 258.64 316.26 258.58 316.59 258.94 316.91 258.66 317.23 258.71 317.55 258.01 317.87 258.3 318.2 259.44 318.52 258.36 318.84 258.27 319.16 257.52 319.48 257.5 319.8 256.91 320.13 257.1 320.45 257.35 320.77 257.89 321.09 257.5 321.41 257.39 321.74 257.39 322.06 257.33 322.38 257.97 322.7 256.84 323.02 255.17 323.35 255.21 323.67 256.05 323.99 255.99 324.31 256.83 324.63 256.01 324.95 256.12 325.28 256.44 325.6 259.01 325.92 260.6 326.24 260.5 326.56 260.28 326.89 260.26 327.21 260.67 327.53 260.01 327.85 259.56 328.17 259.41 328.49 259.16 328.82 259.23 329.14 259.34 329.46 259.07 329.78 259.1 330.1 258.51 330.43 258.91 330.75 259.22 331.07 259.44 331.39 260.1 331.71 255.29 332.04 254.32 332.36 254.46 332.68 254.46 333 255.11 333.32 255.4 333.64 255.39 333.97 257.3 334.29 257.7 334.61 257.75 334.93 256.16 335.25 255.69 335.58 255.87 335.9 255.46 336.22 255.14 336.54 256.51 336.86 256.55 337.18 256.94 337.51 256.59 337.83 256.21 338.15 256.21 338.47 256.02 338.79 254.76 339.12 254.92 339.44 254.95 339.76 254.98 340.08 254.89 340.4 255.25 340.73 253.44 341.05 253.62 341.37 253.57 341.69 253.23 342.01 253.56 342.33 254.77 342.66 254.61 342.98 255.73 343.3 255.3 343.62 255.3 343.94 254.8 344.27 253.52 344.59 251.77 344.91 252.37 345.23 252.38 345.55 252.37 345.87 252.02 346.2 251.72 346.52 251.65 346.84 250.15 347.16 250.17 347.48 249.52 347.81 251.5 348.13 251.3 348.45 251.18 348.77 251.05 349.09 251.05 349.42 251.06 349.74 253.07 350.06 250.88 350.38 251.37 350.7 253.84 351.02 254.03 351.35 256.25 351.67 256.35 351.99 256.48 352.31 256.55 352.63 256.96 352.96 257.58 353.28 258.01 353.6 256.21 353.92 255.79 354.24 255.76 354.56 255.75 354.89 255.74 355.21 255.58 355.53 255.74 355.85 254.4 356.17 253.78 356.5 251.99 356.82 254.33 357.14 254.3 357.46 254.23 357.78 254.42 358.11 254.59 358.43 255.38 358.75 255.4 359.07 255.41 359.39 254.8 359.71 253.98 360.04 254.09 360.36 253.92 360.68 253.79 361 253.54 361.32 253.9 361.65 254.38 361.97 255.84 362.29 255.75 362.61 254.64 362.93 255.57 363.25 255.04 363.58 254.73 363.9 254.74 364.22 254.48 364.54 254.78 364.86 254.8 365.19 254.1 365.51 253.24 365.83 253.03 366.15 254.22 366.47 254 366.8 254 367.12 253.95 367.44 253.18 367.76 253.37 368.08 253.21 368.4 253.38 368.73 253.35 369.05 253.8 369.37 252.92 369.69 251.29 370.01 252.12 370.34 252.01 370.66 252.16 370.98 251.6 371.3 251.49 371.62 251.5 371.95 251.21 372.27 251.55 372.59 251.64 372.91 251.77 373.23 251.48 373.55 251.25 373.88 250.93 374.2 251.03 374.52 250.94 374.84 250.53 375.16 249.52 375.49 252.04 375.81 252.31 376.13 252.15 376.45 251.94 376.77 250.94 377.09 250.76 377.42 251.55 377.74 251.34 378.06 250.69 378.38 250.36 378.7 249.02 379.03 249.05 379.35 249.56 379.67 249.65 379.99 249.61 380.31 249.91 380.64 250.29 380.96 250.78 381.28 251.42 381.6 250.31 381.92 249.98 382.24 250.6 382.57 248.89 382.89 248.65 383.21 248.47 383.53 248.68 383.85 249.53 384.18 249.78 384.5 250.01 384.82 250.89 385.14 251.08 385.46 250.62 385.78 250.23 386.11 250.92 386.43 250.93 386.75 252.39 387.07 251.96 387.39 251.54 387.72 251.23 388.04 250.98 388.36 251.03 388.68 250.95 389 250.88 389.33 251.07 389.65 249.23 389.97 248.86 390.29 250.49 390.61 250.27 390.93 250.4 391.26 250.86" clip-path="url(#cpNTMuNjV8NDA3LjMzfDM0OS40NXw1LjQ4)" style="stroke-width:1.07;stroke:#f49e71;stroke-linecap:butt"/><circle cx="391.26" cy="22.97" r="3.56" clip-path="url(#cpNTMuNjV8NDA3LjMzfDM0OS40NXw1LjQ4)" style="stroke-width:.71;stroke:#001959;fill:#001959"/><circle cx="391.26" cy="149.7" r="3.56" clip-path="url(#cpNTMuNjV8NDA3LjMzfDM0OS40NXw1LjQ4)" style="stroke-width:.71;stroke:#4d724c;fill:#4d724c"/><circle cx="391.26" cy="250.86" r="3.56" clip-path="url(#cpNTMuNjV8NDA3LjMzfDM0OS40NXw1LjQ4)" style="stroke-width:.71;stroke:#f49e71;fill:#f49e71"/><g clip-path="url(#cpNTMuNjV8NDA3LjMzfDM0OS40NXw1LjQ4)"><text style="font-size:11.38px;fill:#001959;font-family:Arial" lengthAdjust="spacingAndGlyphs" textLength="22.15" transform="translate(401.97,18.02) rotate(-45)">1.02</text></g><g clip-path="url(#cpNTMuNjV8NDA3LjMzfDM0OS40NXw1LjQ4)"><text style="font-size:11.38px;fill:#4d724c;font-family:Arial" lengthAdjust="spacingAndGlyphs" textLength="22.15" transform="translate(401.97,144.75) rotate(-45)">0.54</text></g><g clip-path="url(#cpNTMuNjV8NDA3LjMzfDM0OS40NXw1LjQ4)"><text style="font-size:11.38px;fill:#f49e71;font-family:Arial" lengthAdjust="spacingAndGlyphs" textLength="22.15" transform="translate(401.97,245.90) rotate(-45)">0.15</text></g><defs><clipPath id="cpMC4wMHw1MDQuMDB8Mzc4LjAwfDAuMDA="><rect width="504" height="378" x="0" y="0"/></clipPath></defs><g clip-path="url(#cpMC4wMHw1MDQuMDB8Mzc4LjAwfDAuMDA=)"><text x="30.03" y="292.74" lengthAdjust="spacingAndGlyphs" textLength="18.68" style="font-size:9.6px;fill:#4d4d4d;font-family:Arial">0.00</text></g><g clip-path="url(#cpMC4wMHw1MDQuMDB8Mzc4LjAwfDAuMDA=)"><text x="30.03" y="227.73" lengthAdjust="spacingAndGlyphs" textLength="18.68" style="font-size:9.6px;fill:#4d4d4d;font-family:Arial">0.25</text></g><g clip-path="url(#cpMC4wMHw1MDQuMDB8Mzc4LjAwfDAuMDA=)"><text x="30.03" y="162.71" lengthAdjust="spacingAndGlyphs" textLength="18.68" style="font-size:9.6px;fill:#4d4d4d;font-family:Arial">0.50</text></g><g clip-path="url(#cpMC4wMHw1MDQuMDB8Mzc4LjAwfDAuMDA=)"><text x="30.03" y="97.69" lengthAdjust="spacingAndGlyphs" textLength="18.68" style="font-size:9.6px;fill:#4d4d4d;font-family:Arial">0.75</text></g><g clip-path="url(#cpMC4wMHw1MDQuMDB8Mzc4LjAwfDAuMDA=)"><text x="30.03" y="32.68" lengthAdjust="spacingAndGlyphs" textLength="18.68" style="font-size:9.6px;fill:#4d4d4d;font-family:Arial">1.00</text></g><polyline points="50.91 289.3 53.65 289.3" clip-path="url(#cpMC4wMHw1MDQuMDB8Mzc4LjAwfDAuMDA=)" style="stroke-width:1.07;stroke:#333;stroke-linecap:butt"/><polyline points="50.91 224.29 53.65 224.29" clip-path="url(#cpMC4wMHw1MDQuMDB8Mzc4LjAwfDAuMDA=)" style="stroke-width:1.07;stroke:#333;stroke-linecap:butt"/><polyline points="50.91 159.27 53.65 159.27" clip-path="url(#cpMC4wMHw1MDQuMDB8Mzc4LjAwfDAuMDA=)" style="stroke-width:1.07;stroke:#333;stroke-linecap:butt"/><polyline points="50.91 94.26 53.65 94.26" clip-path="url(#cpMC4wMHw1MDQuMDB8Mzc4LjAwfDAuMDA=)" style="stroke-width:1.07;stroke:#333;stroke-linecap:butt"/><polyline points="50.91 29.24 53.65 29.24" clip-path="url(#cpMC4wMHw1MDQuMDB8Mzc4LjAwfDAuMDA=)" style="stroke-width:1.07;stroke:#333;stroke-linecap:butt"/><polyline points="69.4 352.19 69.4 349.45" clip-path="url(#cpMC4wMHw1MDQuMDB8Mzc4LjAwfDAuMDA=)" style="stroke-width:1.07;stroke:#333;stroke-linecap:butt"/><polyline points="149.87 352.19 149.87 349.45" clip-path="url(#cpMC4wMHw1MDQuMDB8Mzc4LjAwfDAuMDA=)" style="stroke-width:1.07;stroke:#333;stroke-linecap:butt"/><polyline points="230.33 352.19 230.33 349.45" clip-path="url(#cpMC4wMHw1MDQuMDB8Mzc4LjAwfDAuMDA=)" style="stroke-width:1.07;stroke:#333;stroke-linecap:butt"/><polyline points="310.79 352.19 310.79 349.45" clip-path="url(#cpMC4wMHw1MDQuMDB8Mzc4LjAwfDAuMDA=)" style="stroke-width:1.07;stroke:#333;stroke-linecap:butt"/><polyline points="391.26 352.19 391.26 349.45" clip-path="url(#cpMC4wMHw1MDQuMDB8Mzc4LjAwfDAuMDA=)" style="stroke-width:1.07;stroke:#333;stroke-linecap:butt"/><g clip-path="url(#cpMC4wMHw1MDQuMDB8Mzc4LjAwfDAuMDA=)"><text x="66.73" y="361.25" lengthAdjust="spacingAndGlyphs" textLength="5.34" style="font-size:9.6px;fill:#4d4d4d;font-family:Arial">0</text></g><g clip-path="url(#cpMC4wMHw1MDQuMDB8Mzc4LjAwfDAuMDA=)"><text x="141.86" y="361.25" lengthAdjust="spacingAndGlyphs" textLength="16.02" style="font-size:9.6px;fill:#4d4d4d;font-family:Arial">250</text></g><g clip-path="url(#cpMC4wMHw1MDQuMDB8Mzc4LjAwfDAuMDA=)"><text x="222.32" y="361.25" lengthAdjust="spacingAndGlyphs" textLength="16.02" style="font-size:9.6px;fill:#4d4d4d;font-family:Arial">500</text></g><g clip-path="url(#cpMC4wMHw1MDQuMDB8Mzc4LjAwfDAuMDA=)"><text x="302.78" y="361.25" lengthAdjust="spacingAndGlyphs" textLength="16.02" style="font-size:9.6px;fill:#4d4d4d;font-family:Arial">750</text></g><g clip-path="url(#cpMC4wMHw1MDQuMDB8Mzc4LjAwfDAuMDA=)"><text x="380.58" y="361.25" lengthAdjust="spacingAndGlyphs" textLength="21.36" style="font-size:9.6px;fill:#4d4d4d;font-family:Arial">1000</text></g><g clip-path="url(#cpMC4wMHw1MDQuMDB8Mzc4LjAwfDAuMDA=)"><text x="372.65" y="371.42" lengthAdjust="spacingAndGlyphs" textLength="34.69" style="font-size:9.6px;fill:#4d4d4d;font-family:Arial">Iteration</text></g><g clip-path="url(#cpMC4wMHw1MDQuMDB8Mzc4LjAwfDAuMDA=)"><text x="5.48" y="12.35" lengthAdjust="spacingAndGlyphs" textLength="24.55" style="font-size:9.6px;fill:#4d4d4d;font-family:Arial">Value</text></g><rect width="80.23" height="84.34" x="418.29" y="135.29" clip-path="url(#cpMC4wMHw1MDQuMDB8Mzc4LjAwfDAuMDA=)" style="stroke-width:1.07;stroke:none"/><g clip-path="url(#cpMC4wMHw1MDQuMDB8Mzc4LjAwfDAuMDA=)"><text x="423.77" y="153.18" lengthAdjust="spacingAndGlyphs" textLength="70.03" style="font-size:15px;fill:#4d4d4d;font-family:Arial">Parameter</text></g><rect width="17.28" height="17.28" x="423.77" y="162.31" clip-path="url(#cpMC4wMHw1MDQuMDB8Mzc4LjAwfDAuMDA=)" style="stroke-width:1.07;stroke:none"/><line x1="425.5" x2="439.32" y1="170.95" y2="170.95" clip-path="url(#cpMC4wMHw1MDQuMDB8Mzc4LjAwfDAuMDA=)" style="stroke-width:1.07;stroke:#001959;stroke-linecap:butt"/><circle cx="432.41" cy="170.95" r="3.56" clip-path="url(#cpMC4wMHw1MDQuMDB8Mzc4LjAwfDAuMDA=)" style="stroke-width:.71;stroke:#001959;fill:#001959"/><g clip-path="url(#cpMC4wMHw1MDQuMDB8Mzc4LjAwfDAuMDA=)"><text style="font-size:11.38px;fill:#001959;font-family:Arial" lengthAdjust="spacingAndGlyphs" textLength="6.33" transform="translate(433.05,176.07) rotate(-45)">a</text></g><rect width="17.28" height="17.28" x="423.77" y="179.59" clip-path="url(#cpMC4wMHw1MDQuMDB8Mzc4LjAwfDAuMDA=)" style="stroke-width:1.07;stroke:none"/><line x1="425.5" x2="439.32" y1="188.23" y2="188.23" clip-path="url(#cpMC4wMHw1MDQuMDB8Mzc4LjAwfDAuMDA=)" style="stroke-width:1.07;stroke:#4d724c;stroke-linecap:butt"/><circle cx="432.41" cy="188.23" r="3.56" clip-path="url(#cpMC4wMHw1MDQuMDB8Mzc4LjAwfDAuMDA=)" style="stroke-width:.71;stroke:#4d724c;fill:#4d724c"/><g clip-path="url(#cpMC4wMHw1MDQuMDB8Mzc4LjAwfDAuMDA=)"><text style="font-size:11.38px;fill:#4d724c;font-family:Arial" lengthAdjust="spacingAndGlyphs" textLength="6.33" transform="translate(433.05,193.35) rotate(-45)">a</text></g><rect width="17.28" height="17.28" x="423.77" y="196.87" clip-path="url(#cpMC4wMHw1MDQuMDB8Mzc4LjAwfDAuMDA=)" style="stroke-width:1.07;stroke:none"/><line x1="425.5" x2="439.32" y1="205.51" y2="205.51" clip-path="url(#cpMC4wMHw1MDQuMDB8Mzc4LjAwfDAuMDA=)" style="stroke-width:1.07;stroke:#f49e71;stroke-linecap:butt"/><circle cx="432.41" cy="205.51" r="3.56" clip-path="url(#cpMC4wMHw1MDQuMDB8Mzc4LjAwfDAuMDA=)" style="stroke-width:.71;stroke:#f49e71;fill:#f49e71"/><g clip-path="url(#cpMC4wMHw1MDQuMDB8Mzc4LjAwfDAuMDA=)"><text style="font-size:11.38px;fill:#f49e71;font-family:Arial" lengthAdjust="spacingAndGlyphs" textLength="6.33" transform="translate(433.05,210.63) rotate(-45)">a</text></g><g clip-path="url(#cpMC4wMHw1MDQuMDB8Mzc4LjAwfDAuMDA=)"><text x="448.52" y="174.39" lengthAdjust="spacingAndGlyphs" textLength="37.35" style="font-size:9.6px;fill:#4d4d4d;font-family:Arial">Intercept</text></g><g clip-path="url(#cpMC4wMHw1MDQuMDB8Mzc4LjAwfDAuMDA=)"><text x="448.52" y="191.67" lengthAdjust="spacingAndGlyphs" textLength="10.14" style="font-size:9.6px;fill:#4d4d4d;font-family:Arial">x1</text></g><g clip-path="url(#cpMC4wMHw1MDQuMDB8Mzc4LjAwfDAuMDA=)"><text x="448.52" y="208.95" lengthAdjust="spacingAndGlyphs" textLength="10.14" style="font-size:9.6px;fill:#4d4d4d;font-family:Arial">x2</text></g></svg>