<svg xmlns="http://www.w3.org/2000/svg" xmlns:xlink="http://www.w3.org/1999/xlink" viewBox="0 0 504 378"><defs><style type="text/css">line,polyline,rect{fill:none;stroke:#000;stroke-linecap:round;stroke-linejoin:round;stroke-miterlimit:10}</style></defs><rect width="100%" height="100%" style="stroke:none;fill:none"/><rect width="504" height="378" x="0" y="0" style="stroke-width:1.07;stroke:none"/><defs><clipPath id="cpODguODh8MjIxLjc3fDE3NC41N3wyMy42Mw=="><rect width="132.89" height="150.94" x="88.88" y="23.63"/></clipPath></defs><line x1="88.88" x2="221.77" y1="159.8" y2="159.8" clip-path="url(#cpODguODh8MjIxLjc3fDE3NC41N3wyMy42Mw==)" style="stroke-width:.53;stroke:#6497b1;stroke-linecap:butt"/><line x1="92.05" x2="92.05" y1="36.65" y2="159.8" clip-path="url(#cpODguODh8MjIxLjc3fDE3NC41N3wyMy42Mw==)" style="stroke-width:.43;stroke:#d1e1ec;stroke-linecap:butt"/><line x1="98.37" x2="98.37" y1="100.72" y2="159.8" clip-path="url(#cpODguODh8MjIxLjc3fDE3NC41N3wyMy42Mw==)" style="stroke-width:.43;stroke:#d1e1ec;stroke-linecap:butt"/><line x1="104.7" x2="104.7" y1="124.4" y2="159.8" clip-path="url(#cpODguODh8MjIxLjc3fDE3NC41N3wyMy42Mw==)" style="stroke-width:.43;stroke:#d1e1ec;stroke-linecap:butt"/><line x1="111.03" x2="111.03" y1="134.16" y2="159.8" clip-path="url(#cpODguODh8MjIxLjc3fDE3NC41N3wyMy42Mw==)" style="stroke-width:.43;stroke:#d1e1ec;stroke-linecap:butt"/><line x1="117.36" x2="117.36" y1="146.78" y2="159.8" clip-path="url(#cpODguODh8MjIxLjc3fDE3NC41N3wyMy42Mw==)" style="stroke-width:.43;stroke:#d1e1ec;stroke-linecap:butt"/><line x1="123.69" x2="123.69" y1="149.94" y2="159.8" clip-path="url(#cpODguODh8MjIxLjc3fDE3NC41N3wyMy42Mw==)" style="stroke-width:.43;stroke:#d1e1ec;stroke-linecap:butt"/><line x1="130.01" x2="130.01" y1="150.1" y2="159.8" clip-path="url(#cpODguODh8MjIxLjc3fDE3NC41N3wyMy42Mw==)" style="stroke-width:.43;stroke:#d1e1ec;stroke-linecap:butt"/><line x1="136.34" x2="136.34" y1="155.35" y2="159.8" clip-path="url(#cpODguODh8MjIxLjc3fDE3NC41N3wyMy42Mw==)" style="stroke-width:.43;stroke:#d1e1ec;stroke-linecap:butt"/><line x1="142.67" x2="142.67" y1="157.5" y2="159.8" clip-path="url(#cpODguODh8MjIxLjc3fDE3NC41N3wyMy42Mw==)" style="stroke-width:.43;stroke:#d1e1ec;stroke-linecap:butt"/><line x1="149" x2="149" y1="160.63" y2="159.8" clip-path="url(#cpODguODh8MjIxLjc3fDE3NC41N3wyMy42Mw==)" style="stroke-width:.43;stroke:#d1e1ec;stroke-linecap:butt"/><line x1="155.33" x2="155.33" y1="159.21" y2="159.8" clip-path="url(#cpODguODh8MjIxLjc3fDE3NC41N3wyMy42Mw==)" style="stroke-width:.43;stroke:#d1e1ec;stroke-linecap:butt"/><line x1="161.66" x2="161.66" y1="159.01" y2="159.8" clip-path="url(#cpODguODh8MjIxLjc3fDE3NC41N3wyMy42Mw==)" style="stroke-width:.43;stroke:#d1e1ec;stroke-linecap:butt"/><line x1="167.98" x2="167.98" y1="162.73" y2="159.8" clip-path="url(#cpODguODh8MjIxLjc3fDE3NC41N3wyMy42Mw==)" style="stroke-width:.43;stroke:#d1e1ec;stroke-linecap:butt"/><line x1="174.31" x2="174.31" y1="159.87" y2="159.8" clip-path="url(#cpODguODh8MjIxLjc3fDE3NC41N3wyMy42Mw==)" style="stroke-width:.43;stroke:#d1e1ec;stroke-linecap:butt"/><line x1="180.64" x2="180.64" y1="161.36" y2="159.8" clip-path="url(#cpODguODh8MjIxLjc3fDE3NC41N3wyMy42Mw==)" style="stroke-width:.43;stroke:#d1e1ec;stroke-linecap:butt"/><line x1="186.97" x2="186.97" y1="159.36" y2="159.8" clip-path="url(#cpODguODh8MjIxLjc3fDE3NC41N3wyMy42Mw==)" style="stroke-width:.43;stroke:#d1e1ec;stroke-linecap:butt"/><line x1="193.3" x2="193.3" y1="156.43" y2="159.8" clip-path="url(#cpODguODh8MjIxLjc3fDE3NC41N3wyMy42Mw==)" style="stroke-width:.43;stroke:#d1e1ec;stroke-linecap:butt"/><line x1="199.63" x2="199.63" y1="157.22" y2="159.8" clip-path="url(#cpODguODh8MjIxLjc3fDE3NC41N3wyMy42Mw==)" style="stroke-width:.43;stroke:#d1e1ec;stroke-linecap:butt"/><line x1="205.95" x2="205.95" y1="157.32" y2="159.8" clip-path="url(#cpODguODh8MjIxLjc3fDE3NC41N3wyMy42Mw==)" style="stroke-width:.43;stroke:#d1e1ec;stroke-linecap:butt"/><line x1="212.28" x2="212.28" y1="156.61" y2="159.8" clip-path="url(#cpODguODh8MjIxLjc3fDE3NC41N3wyMy42Mw==)" style="stroke-width:.43;stroke:#d1e1ec;stroke-linecap:butt"/><line x1="218.61" x2="218.61" y1="160.16" y2="159.8" clip-path="url(#cpODguODh8MjIxLjc3fDE3NC41N3wyMy42Mw==)" style="stroke-width:.43;stroke:#d1e1ec;stroke-linecap:butt"/><polyline points="92.05 36.65 98.37 100.72 104.7 124.4 111.03 134.16 117.36 146.78 123.69 149.94 130.01 150.1 136.34 155.35 142.67 157.5 149 160.63 155.33 159.21 161.66 159.01 167.98 162.73 174.31 159.87 180.64 161.36 186.97 159.36 193.3 156.43 199.63 157.22 205.95 157.32 212.28 156.61 218.61 160.16" clip-path="url(#cpODguODh8MjIxLjc3fDE3NC41N3wyMy42Mw==)" style="stroke-width:1.07;stroke:#03396c;stroke-linecap:butt"/><line x1="88.88" x2="221.77" y1="174.57" y2="174.57" clip-path="url(#cpODguODh8MjIxLjc3fDE3NC41N3wyMy42Mw==)" style="stroke-width:1.07;stroke-linecap:butt"/><line x1="88.88" x2="88.88" y1="174.57" y2="23.63" clip-path="url(#cpODguODh8MjIxLjc3fDE3NC41N3wyMy42Mw==)" style="stroke-width:1.07;stroke-linecap:butt"/><defs><clipPath id="cpMC4wMHw1MDQuMDB8Mzc4LjAwfDAuMDA="><rect width="504" height="378" x="0" y="0"/></clipPath></defs><defs><clipPath id="cpODguODh8MjIxLjc3fDM0OS4xNHwxOTguMjA="><rect width="132.89" height="150.94" x="88.88" y="198.2"/></clipPath></defs><line x1="88.88" x2="221.77" y1="334.36" y2="334.36" clip-path="url(#cpODguODh8MjIxLjc3fDM0OS4xNHwxOTguMjA=)" style="stroke-width:.53;stroke:#6497b1;stroke-linecap:butt"/><line x1="92.05" x2="92.05" y1="211.21" y2="334.36" clip-path="url(#cpODguODh8MjIxLjc3fDM0OS4xNHwxOTguMjA=)" style="stroke-width:.43;stroke:#d1e1ec;stroke-linecap:butt"/><line x1="98.37" x2="98.37" y1="277.63" y2="334.36" clip-path="url(#cpODguODh8MjIxLjc3fDM0OS4xNHwxOTguMjA=)" style="stroke-width:.43;stroke:#d1e1ec;stroke-linecap:butt"/><line x1="104.7" x2="104.7" y1="306.41" y2="334.36" clip-path="url(#cpODguODh8MjIxLjc3fDM0OS4xNHwxOTguMjA=)" style="stroke-width:.43;stroke:#d1e1ec;stroke-linecap:butt"/><line x1="111.03" x2="111.03" y1="324.98" y2="334.36" clip-path="url(#cpODguODh8MjIxLjc3fDM0OS4xNHwxOTguMjA=)" style="stroke-width:.43;stroke:#d1e1ec;stroke-linecap:butt"/><line x1="117.36" x2="117.36" y1="334.06" y2="334.36" clip-path="url(#cpODguODh8MjIxLjc3fDM0OS4xNHwxOTguMjA=)" style="stroke-width:.43;stroke:#d1e1ec;stroke-linecap:butt"/><line x1="123.69" x2="123.69" y1="333.74" y2="334.36" clip-path="url(#cpODguODh8MjIxLjc3fDM0OS4xNHwxOTguMjA=)" style="stroke-width:.43;stroke:#d1e1ec;stroke-linecap:butt"/><line x1="130.01" x2="130.01" y1="337.94" y2="334.36" clip-path="url(#cpODguODh8MjIxLjc3fDM0OS4xNHwxOTguMjA=)" style="stroke-width:.43;stroke:#d1e1ec;stroke-linecap:butt"/><line x1="136.34" x2="136.34" y1="336.52" y2="334.36" clip-path="url(#cpODguODh8MjIxLjc3fDM0OS4xNHwxOTguMjA=)" style="stroke-width:.43;stroke:#d1e1ec;stroke-linecap:butt"/><line x1="142.67" x2="142.67" y1="337.87" y2="334.36" clip-path="url(#cpODguODh8MjIxLjc3fDM0OS4xNHwxOTguMjA=)" style="stroke-width:.43;stroke:#d1e1ec;stroke-linecap:butt"/><line x1="149" x2="149" y1="337.78" y2="334.36" clip-path="url(#cpODguODh8MjIxLjc3fDM0OS4xNHwxOTguMjA=)" style="stroke-width:.43;stroke:#d1e1ec;stroke-linecap:butt"/><line x1="155.33" x2="155.33" y1="337.62" y2="334.36" clip-path="url(#cpODguODh8MjIxLjc3fDM0OS4xNHwxOTguMjA=)" style="stroke-width:.43;stroke:#d1e1ec;stroke-linecap:butt"/><line x1="161.66" x2="161.66" y1="340.6" y2="334.36" clip-path="url(#cpODguODh8MjIxLjc3fDM0OS4xNHwxOTguMjA=)" style="stroke-width:.43;stroke:#d1e1ec;stroke-linecap:butt"/><line x1="167.98" x2="167.98" y1="340.61" y2="334.36" clip-path="url(#cpODguODh8MjIxLjc3fDM0OS4xNHwxOTguMjA=)" style="stroke-width:.43;stroke:#d1e1ec;stroke-linecap:butt"/><line x1="174.31" x2="174.31" y1="339.29" y2="334.36" clip-path="url(#cpODguODh8MjIxLjc3fDM0OS4xNHwxOTguMjA=)" style="stroke-width:.43;stroke:#d1e1ec;stroke-linecap:butt"/><line x1="180.64" x2="180.64" y1="336.27" y2="334.36" clip-path="url(#cpODguODh8MjIxLjc3fDM0OS4xNHwxOTguMjA=)" style="stroke-width:.43;stroke:#d1e1ec;stroke-linecap:butt"/><line x1="186.97" x2="186.97" y1="336.35" y2="334.36" clip-path="url(#cpODguODh8MjIxLjc3fDM0OS4xNHwxOTguMjA=)" style="stroke-width:.43;stroke:#d1e1ec;stroke-linecap:butt"/><line x1="193.3" x2="193.3" y1="335.01" y2="334.36" clip-path="url(#cpODguODh8MjIxLjc3fDM0OS4xNHwxOTguMjA=)" style="stroke-width:.43;stroke:#d1e1ec;stroke-linecap:butt"/><line x1="199.63" x2="199.63" y1="334.58" y2="334.36" clip-path="url(#cpODguODh8MjIxLjc3fDM0OS4xNHwxOTguMjA=)" style="stroke-width:.43;stroke:#d1e1ec;stroke-linecap:butt"/><line x1="205.95" x2="205.95" y1="332.04" y2="334.36" clip-path="url(#cpODguODh8MjIxLjc3fDM0OS4xNHwxOTguMjA=)" style="stroke-width:.43;stroke:#d1e1ec;stroke-linecap:butt"/><line x1="212.28" x2="212.28" y1="333.49" y2="334.36" clip-path="url(#cpODguODh8MjIxLjc3fDM0OS4xNHwxOTguMjA=)" style="stroke-width:.43;stroke:#d1e1ec;stroke-linecap:butt"/><line x1="218.61" x2="218.61" y1="336.41" y2="334.36" clip-path="url(#cpODguODh8MjIxLjc3fDM0OS4xNHwxOTguMjA=)" style="stroke-width:.43;stroke:#d1e1ec;stroke-linecap:butt"/><polyline points="92.05 211.21 98.37 277.63 104.7 306.41 111.03 324.98 117.36 334.06 123.69 333.74 130.01 337.94 136.34 336.52 142.67 337.87 149 337.78 155.33 337.62 161.66 340.6 167.98 340.61 174.31 339.29 180.64 336.27 186.97 336.35 193.3 335.01 199.63 334.58 205.95 332.04 212.28 333.49 218.61 336.41" clip-path="url(#cpODguODh8MjIxLjc3fDM0OS4xNHwxOTguMjA=)" style="stroke-width:1.07;stroke:#03396c;stroke-linecap:butt"/><line x1="88.88" x2="221.77" y1="349.14" y2="349.14" clip-path="url(#cpODguODh8MjIxLjc3fDM0OS4xNHwxOTguMjA=)" style="stroke-width:1.07;stroke-linecap:butt"/><line x1="88.88" x2="88.88" y1="349.14" y2="198.2" clip-path="url(#cpODguODh8MjIxLjc3fDM0OS4xNHwxOTguMjA=)" style="stroke-width:1.07;stroke-linecap:butt"/><defs><clipPath id="cpMC4wMHw1MDQuMDB8Mzc4LjAwfDAuMDA="><rect width="504" height="378" x="0" y="0"/></clipPath></defs><defs><clipPath id="cpMjI3LjI1fDM2MC4xNXwxNzQuNTd8MjMuNjM="><rect width="132.89" height="150.94" x="227.25" y="23.63"/></clipPath></defs><line x1="227.25" x2="360.15" y1="159.8" y2="159.8" clip-path="url(#cpMjI3LjI1fDM2MC4xNXwxNzQuNTd8MjMuNjM=)" style="stroke-width:.53;stroke:#6497b1;stroke-linecap:butt"/><line x1="230.42" x2="230.42" y1="36.65" y2="159.8" clip-path="url(#cpMjI3LjI1fDM2MC4xNXwxNzQuNTd8MjMuNjM=)" style="stroke-width:.43;stroke:#d1e1ec;stroke-linecap:butt"/><line x1="236.75" x2="236.75" y1="103.52" y2="159.8" clip-path="url(#cpMjI3LjI1fDM2MC4xNXwxNzQuNTd8MjMuNjM=)" style="stroke-width:.43;stroke:#d1e1ec;stroke-linecap:butt"/><line x1="243.07" x2="243.07" y1="133.33" y2="159.8" clip-path="url(#cpMjI3LjI1fDM2MC4xNXwxNzQuNTd8MjMuNjM=)" style="stroke-width:.43;stroke:#d1e1ec;stroke-linecap:butt"/><line x1="249.4" x2="249.4" y1="147.02" y2="159.8" clip-path="url(#cpMjI3LjI1fDM2MC4xNXwxNzQuNTd8MjMuNjM=)" style="stroke-width:.43;stroke:#d1e1ec;stroke-linecap:butt"/><line x1="255.73" x2="255.73" y1="159.56" y2="159.8" clip-path="url(#cpMjI3LjI1fDM2MC4xNXwxNzQuNTd8MjMuNjM=)" style="stroke-width:.43;stroke:#d1e1ec;stroke-linecap:butt"/><line x1="262.06" x2="262.06" y1="160.49" y2="159.8" clip-path="url(#cpMjI3LjI1fDM2MC4xNXwxNzQuNTd8MjMuNjM=)" style="stroke-width:.43;stroke:#d1e1ec;stroke-linecap:butt"/><line x1="268.39" x2="268.39" y1="157.17" y2="159.8" clip-path="url(#cpMjI3LjI1fDM2MC4xNXwxNzQuNTd8MjMuNjM=)" style="stroke-width:.43;stroke:#d1e1ec;stroke-linecap:butt"/><line x1="274.72" x2="274.72" y1="160.47" y2="159.8" clip-path="url(#cpMjI3LjI1fDM2MC4xNXwxNzQuNTd8MjMuNjM=)" style="stroke-width:.43;stroke:#d1e1ec;stroke-linecap:butt"/><line x1="281.04" x2="281.04" y1="159.26" y2="159.8" clip-path="url(#cpMjI3LjI1fDM2MC4xNXwxNzQuNTd8MjMuNjM=)" style="stroke-width:.43;stroke:#d1e1ec;stroke-linecap:butt"/><line x1="287.37" x2="287.37" y1="158.06" y2="159.8" clip-path="url(#cpMjI3LjI1fDM2MC4xNXwxNzQuNTd8MjMuNjM=)" style="stroke-width:.43;stroke:#d1e1ec;stroke-linecap:butt"/><line x1="293.7" x2="293.7" y1="154.74" y2="159.8" clip-path="url(#cpMjI3LjI1fDM2MC4xNXwxNzQuNTd8MjMuNjM=)" style="stroke-width:.43;stroke:#d1e1ec;stroke-linecap:butt"/><line x1="300.03" x2="300.03" y1="157.57" y2="159.8" clip-path="url(#cpMjI3LjI1fDM2MC4xNXwxNzQuNTd8MjMuNjM=)" style="stroke-width:.43;stroke:#d1e1ec;stroke-linecap:butt"/><line x1="306.36" x2="306.36" y1="162.35" y2="159.8" clip-path="url(#cpMjI3LjI1fDM2MC4xNXwxNzQuNTd8MjMuNjM=)" style="stroke-width:.43;stroke:#d1e1ec;stroke-linecap:butt"/><line x1="312.69" x2="312.69" y1="160.83" y2="159.8" clip-path="url(#cpMjI3LjI1fDM2MC4xNXwxNzQuNTd8MjMuNjM=)" style="stroke-width:.43;stroke:#d1e1ec;stroke-linecap:butt"/><line x1="319.01" x2="319.01" y1="166.16" y2="159.8" clip-path="url(#cpMjI3LjI1fDM2MC4xNXwxNzQuNTd8MjMuNjM=)" style="stroke-width:.43;stroke:#d1e1ec;stroke-linecap:butt"/><line x1="325.34" x2="325.34" y1="164.37" y2="159.8" clip-path="url(#cpMjI3LjI1fDM2MC4xNXwxNzQuNTd8MjMuNjM=)" style="stroke-width:.43;stroke:#d1e1ec;stroke-linecap:butt"/><line x1="331.67" x2="331.67" y1="157.99" y2="159.8" clip-path="url(#cpMjI3LjI1fDM2MC4xNXwxNzQuNTd8MjMuNjM=)" style="stroke-width:.43;stroke:#d1e1ec;stroke-linecap:butt"/><line x1="338" x2="338" y1="157.4" y2="159.8" clip-path="url(#cpMjI3LjI1fDM2MC4xNXwxNzQuNTd8MjMuNjM=)" style="stroke-width:.43;stroke:#d1e1ec;stroke-linecap:butt"/><line x1="344.33" x2="344.33" y1="151.69" y2="159.8" clip-path="url(#cpMjI3LjI1fDM2MC4xNXwxNzQuNTd8MjMuNjM=)" style="stroke-width:.43;stroke:#d1e1ec;stroke-linecap:butt"/><line x1="350.66" x2="350.66" y1="147.04" y2="159.8" clip-path="url(#cpMjI3LjI1fDM2MC4xNXwxNzQuNTd8MjMuNjM=)" style="stroke-width:.43;stroke:#d1e1ec;stroke-linecap:butt"/><line x1="356.98" x2="356.98" y1="155" y2="159.8" clip-path="url(#cpMjI3LjI1fDM2MC4xNXwxNzQuNTd8MjMuNjM=)" style="stroke-width:.43;stroke:#d1e1ec;stroke-linecap:butt"/><polyline points="230.42 36.65 236.75 103.52 243.07 133.33 249.4 147.02 255.73 159.56 262.06 160.49 268.39 157.17 274.72 160.47 281.04 159.26 287.37 158.06 293.7 154.74 300.03 157.57 306.36 162.35 312.69 160.83 319.01 166.16 325.34 164.37 331.67 157.99 338 157.4 344.33 151.69 350.66 147.04 356.98 155" clip-path="url(#cpMjI3LjI1fDM2MC4xNXwxNzQuNTd8MjMuNjM=)" style="stroke-width:1.07;stroke:#03396c;stroke-linecap:butt"/><line x1="227.25" x2="360.15" y1="174.57" y2="174.57" clip-path="url(#cpMjI3LjI1fDM2MC4xNXwxNzQuNTd8MjMuNjM=)" style="stroke-width:1.07;stroke-linecap:butt"/><line x1="227.25" x2="227.25" y1="174.57" y2="23.63" clip-path="url(#cpMjI3LjI1fDM2MC4xNXwxNzQuNTd8MjMuNjM=)" style="stroke-width:1.07;stroke-linecap:butt"/><defs><clipPath id="cpMC4wMHw1MDQuMDB8Mzc4LjAwfDAuMDA="><rect width="504" height="378" x="0" y="0"/></clipPath></defs><defs><clipPath id="cpMjI3LjI1fDM2MC4xNXwzNDkuMTR8MTk4LjIw"><rect width="132.89" height="150.94" x="227.25" y="198.2"/></clipPath></defs><line x1="227.25" x2="360.15" y1="334.36" y2="334.36" clip-path="url(#cpMjI3LjI1fDM2MC4xNXwzNDkuMTR8MTk4LjIw)" style="stroke-width:.53;stroke:#6497b1;stroke-linecap:butt"/><line x1="230.42" x2="230.42" y1="211.21" y2="334.36" clip-path="url(#cpMjI3LjI1fDM2MC4xNXwzNDkuMTR8MTk4LjIw)" style="stroke-width:.43;stroke:#d1e1ec;stroke-linecap:butt"/><line x1="236.75" x2="236.75" y1="262.25" y2="334.36" clip-path="url(#cpMjI3LjI1fDM2MC4xNXwzNDkuMTR8MTk4LjIw)" style="stroke-width:.43;stroke:#d1e1ec;stroke-linecap:butt"/><line x1="243.07" x2="243.07" y1="295.27" y2="334.36" clip-path="url(#cpMjI3LjI1fDM2MC4xNXwzNDkuMTR8MTk4LjIw)" style="stroke-width:.43;stroke:#d1e1ec;stroke-linecap:butt"/><line x1="249.4" x2="249.4" y1="312.28" y2="334.36" clip-path="url(#cpMjI3LjI1fDM2MC4xNXwzNDkuMTR8MTk4LjIw)" style="stroke-width:.43;stroke:#d1e1ec;stroke-linecap:butt"/><line x1="255.73" x2="255.73" y1="324.21" y2="334.36" clip-path="url(#cpMjI3LjI1fDM2MC4xNXwzNDkuMTR8MTk4LjIw)" style="stroke-width:.43;stroke:#d1e1ec;stroke-linecap:butt"/><line x1="262.06" x2="262.06" y1="331.1" y2="334.36" clip-path="url(#cpMjI3LjI1fDM2MC4xNXwzNDkuMTR8MTk4LjIw)" style="stroke-width:.43;stroke:#d1e1ec;stroke-linecap:butt"/><line x1="268.39" x2="268.39" y1="334.67" y2="334.36" clip-path="url(#cpMjI3LjI1fDM2MC4xNXwzNDkuMTR8MTk4LjIw)" style="stroke-width:.43;stroke:#d1e1ec;stroke-linecap:butt"/><line x1="274.72" x2="274.72" y1="340.02" y2="334.36" clip-path="url(#cpMjI3LjI1fDM2MC4xNXwzNDkuMTR8MTk4LjIw)" style="stroke-width:.43;stroke:#d1e1ec;stroke-linecap:butt"/><line x1="281.04" x2="281.04" y1="342.28" y2="334.36" clip-path="url(#cpMjI3LjI1fDM2MC4xNXwzNDkuMTR8MTk4LjIw)" style="stroke-width:.43;stroke:#d1e1ec;stroke-linecap:butt"/><line x1="287.37" x2="287.37" y1="342" y2="334.36" clip-path="url(#cpMjI3LjI1fDM2MC4xNXwzNDkuMTR8MTk4LjIw)" style="stroke-width:.43;stroke:#d1e1ec;stroke-linecap:butt"/><line x1="293.7" x2="293.7" y1="341.75" y2="334.36" clip-path="url(#cpMjI3LjI1fDM2MC4xNXwzNDkuMTR8MTk4LjIw)" style="stroke-width:.43;stroke:#d1e1ec;stroke-linecap:butt"/><line x1="300.03" x2="300.03" y1="341.78" y2="334.36" clip-path="url(#cpMjI3LjI1fDM2MC4xNXwzNDkuMTR8MTk4LjIw)" style="stroke-width:.43;stroke:#d1e1ec;stroke-linecap:butt"/><line x1="306.36" x2="306.36" y1="340.57" y2="334.36" clip-path="url(#cpMjI3LjI1fDM2MC4xNXwzNDkuMTR8MTk4LjIw)" style="stroke-width:.43;stroke:#d1e1ec;stroke-linecap:butt"/><line x1="312.69" x2="312.69" y1="338.35" y2="334.36" clip-path="url(#cpMjI3LjI1fDM2MC4xNXwzNDkuMTR8MTk4LjIw)" style="stroke-width:.43;stroke:#d1e1ec;stroke-linecap:butt"/><line x1="319.01" x2="319.01" y1="338.37" y2="334.36" clip-path="url(#cpMjI3LjI1fDM2MC4xNXwzNDkuMTR8MTk4LjIw)" style="stroke-width:.43;stroke:#d1e1ec;stroke-linecap:butt"/><line x1="325.34" x2="325.34" y1="339.33" y2="334.36" clip-path="url(#cpMjI3LjI1fDM2MC4xNXwzNDkuMTR8MTk4LjIw)" style="stroke-width:.43;stroke:#d1e1ec;stroke-linecap:butt"/><line x1="331.67" x2="331.67" y1="338.36" y2="334.36" clip-path="url(#cpMjI3LjI1fDM2MC4xNXwzNDkuMTR8MTk4LjIw)" style="stroke-width:.43;stroke:#d1e1ec;stroke-linecap:butt"/><line x1="338" x2="338" y1="330.42" y2="334.36" clip-path="url(#cpMjI3LjI1fDM2MC4xNXwzNDkuMTR8MTk4LjIw)" style="stroke-width:.43;stroke:#d1e1ec;stroke-linecap:butt"/><line x1="344.33" x2="344.33" y1="323.69" y2="334.36" clip-path="url(#cpMjI3LjI1fDM2MC4xNXwzNDkuMTR8MTk4LjIw)" style="stroke-width:.43;stroke:#d1e1ec;stroke-linecap:butt"/><line x1="350.66" x2="350.66" y1="321.38" y2="334.36" clip-path="url(#cpMjI3LjI1fDM2MC4xNXwzNDkuMTR8MTk4LjIw)" style="stroke-width:.43;stroke:#d1e1ec;stroke-linecap:butt"/><line x1="356.98" x2="356.98" y1="316.55" y2="334.36" clip-path="url(#cpMjI3LjI1fDM2MC4xNXwzNDkuMTR8MTk4LjIw)" style="stroke-width:.43;stroke:#d1e1ec;stroke-linecap:butt"/><polyline points="230.42 211.21 236.75 262.25 243.07 295.27 249.4 312.28 255.73 324.21 262.06 331.1 268.39 334.67 274.72 340.02 281.04 342.28 287.37 342 293.7 341.75 300.03 341.78 306.36 340.57 312.69 338.35 319.01 338.37 325.34 339.33 331.67 338.36 338 330.42 344.33 323.69 350.66 321.38 356.98 316.55" clip-path="url(#cpMjI3LjI1fDM2MC4xNXwzNDkuMTR8MTk4LjIw)" style="stroke-width:1.07;stroke:#03396c;stroke-linecap:butt"/><line x1="227.25" x2="360.15" y1="349.14" y2="349.14" clip-path="url(#cpMjI3LjI1fDM2MC4xNXwzNDkuMTR8MTk4LjIw)" style="stroke-width:1.07;stroke-linecap:butt"/><line x1="227.25" x2="227.25" y1="349.14" y2="198.2" clip-path="url(#cpMjI3LjI1fDM2MC4xNXwzNDkuMTR8MTk4LjIw)" style="stroke-width:1.07;stroke-linecap:butt"/><defs><clipPath id="cpMC4wMHw1MDQuMDB8Mzc4LjAwfDAuMDA="><rect width="504" height="378" x="0" y="0"/></clipPath></defs><defs><clipPath id="cpMzY1LjYzfDQ5OC41MnwxNzQuNTd8MjMuNjM="><rect width="132.89" height="150.94" x="365.63" y="23.63"/></clipPath></defs><line x1="365.63" x2="498.52" y1="159.8" y2="159.8" clip-path="url(#cpMzY1LjYzfDQ5OC41MnwxNzQuNTd8MjMuNjM=)" style="stroke-width:.53;stroke:#6497b1;stroke-linecap:butt"/><line x1="368.79" x2="368.79" y1="36.65" y2="159.8" clip-path="url(#cpMzY1LjYzfDQ5OC41MnwxNzQuNTd8MjMuNjM=)" style="stroke-width:.43;stroke:#d1e1ec;stroke-linecap:butt"/><line x1="375.12" x2="375.12" y1="104.36" y2="159.8" clip-path="url(#cpMzY1LjYzfDQ5OC41MnwxNzQuNTd8MjMuNjM=)" style="stroke-width:.43;stroke:#d1e1ec;stroke-linecap:butt"/><line x1="381.45" x2="381.45" y1="131.83" y2="159.8" clip-path="url(#cpMzY1LjYzfDQ5OC41MnwxNzQuNTd8MjMuNjM=)" style="stroke-width:.43;stroke:#d1e1ec;stroke-linecap:butt"/><line x1="387.78" x2="387.78" y1="144.26" y2="159.8" clip-path="url(#cpMzY1LjYzfDQ5OC41MnwxNzQuNTd8MjMuNjM=)" style="stroke-width:.43;stroke:#d1e1ec;stroke-linecap:butt"/><line x1="394.1" x2="394.1" y1="157.38" y2="159.8" clip-path="url(#cpMzY1LjYzfDQ5OC41MnwxNzQuNTd8MjMuNjM=)" style="stroke-width:.43;stroke:#d1e1ec;stroke-linecap:butt"/><line x1="400.43" x2="400.43" y1="159.62" y2="159.8" clip-path="url(#cpMzY1LjYzfDQ5OC41MnwxNzQuNTd8MjMuNjM=)" style="stroke-width:.43;stroke:#d1e1ec;stroke-linecap:butt"/><line x1="406.76" x2="406.76" y1="157" y2="159.8" clip-path="url(#cpMzY1LjYzfDQ5OC41MnwxNzQuNTd8MjMuNjM=)" style="stroke-width:.43;stroke:#d1e1ec;stroke-linecap:butt"/><line x1="413.09" x2="413.09" y1="160.28" y2="159.8" clip-path="url(#cpMzY1LjYzfDQ5OC41MnwxNzQuNTd8MjMuNjM=)" style="stroke-width:.43;stroke:#d1e1ec;stroke-linecap:butt"/><line x1="419.42" x2="419.42" y1="157.25" y2="159.8" clip-path="url(#cpMzY1LjYzfDQ5OC41MnwxNzQuNTd8MjMuNjM=)" style="stroke-width:.43;stroke:#d1e1ec;stroke-linecap:butt"/><line x1="425.75" x2="425.75" y1="156.37" y2="159.8" clip-path="url(#cpMzY1LjYzfDQ5OC41MnwxNzQuNTd8MjMuNjM=)" style="stroke-width:.43;stroke:#d1e1ec;stroke-linecap:butt"/><line x1="432.07" x2="432.07" y1="152.3" y2="159.8" clip-path="url(#cpMzY1LjYzfDQ5OC41MnwxNzQuNTd8MjMuNjM=)" style="stroke-width:.43;stroke:#d1e1ec;stroke-linecap:butt"/><line x1="438.4" x2="438.4" y1="156.58" y2="159.8" clip-path="url(#cpMzY1LjYzfDQ5OC41MnwxNzQuNTd8MjMuNjM=)" style="stroke-width:.43;stroke:#d1e1ec;stroke-linecap:butt"/><line x1="444.73" x2="444.73" y1="163.63" y2="159.8" clip-path="url(#cpMzY1LjYzfDQ5OC41MnwxNzQuNTd8MjMuNjM=)" style="stroke-width:.43;stroke:#d1e1ec;stroke-linecap:butt"/><line x1="451.06" x2="451.06" y1="162.37" y2="159.8" clip-path="url(#cpMzY1LjYzfDQ5OC41MnwxNzQuNTd8MjMuNjM=)" style="stroke-width:.43;stroke:#d1e1ec;stroke-linecap:butt"/><line x1="457.39" x2="457.39" y1="166.62" y2="159.8" clip-path="url(#cpMzY1LjYzfDQ5OC41MnwxNzQuNTd8MjMuNjM=)" style="stroke-width:.43;stroke:#d1e1ec;stroke-linecap:butt"/><line x1="463.72" x2="463.72" y1="164.67" y2="159.8" clip-path="url(#cpMzY1LjYzfDQ5OC41MnwxNzQuNTd8MjMuNjM=)" style="stroke-width:.43;stroke:#d1e1ec;stroke-linecap:butt"/><line x1="470.04" x2="470.04" y1="158.35" y2="159.8" clip-path="url(#cpMzY1LjYzfDQ5OC41MnwxNzQuNTd8MjMuNjM=)" style="stroke-width:.43;stroke:#d1e1ec;stroke-linecap:butt"/><line x1="476.37" x2="476.37" y1="158.34" y2="159.8" clip-path="url(#cpMzY1LjYzfDQ5OC41MnwxNzQuNTd8MjMuNjM=)" style="stroke-width:.43;stroke:#d1e1ec;stroke-linecap:butt"/><line x1="482.7" x2="482.7" y1="155.16" y2="159.8" clip-path="url(#cpMzY1LjYzfDQ5OC41MnwxNzQuNTd8MjMuNjM=)" style="stroke-width:.43;stroke:#d1e1ec;stroke-linecap:butt"/><line x1="489.03" x2="489.03" y1="150.94" y2="159.8" clip-path="url(#cpMzY1LjYzfDQ5OC41MnwxNzQuNTd8MjMuNjM=)" style="stroke-width:.43;stroke:#d1e1ec;stroke-linecap:butt"/><line x1="495.36" x2="495.36" y1="158.64" y2="159.8" clip-path="url(#cpMzY1LjYzfDQ5OC41MnwxNzQuNTd8MjMuNjM=)" style="stroke-width:.43;stroke:#d1e1ec;stroke-linecap:butt"/><polyline points="368.79 36.65 375.12 104.36 381.45 131.83 387.78 144.26 394.1 157.38 400.43 159.62 406.76 157 413.09 160.28 419.42 157.25 425.75 156.37 432.07 152.3 438.4 156.58 444.73 163.63 451.06 162.37 457.39 166.62 463.72 164.67 470.04 158.35 476.37 158.34 482.7 155.16 489.03 150.94 495.36 158.64" clip-path="url(#cpMzY1LjYzfDQ5OC41MnwxNzQuNTd8MjMuNjM=)" style="stroke-width:1.07;stroke:#03396c;stroke-linecap:butt"/><line x1="365.63" x2="498.52" y1="174.57" y2="174.57" clip-path="url(#cpMzY1LjYzfDQ5OC41MnwxNzQuNTd8MjMuNjM=)" style="stroke-width:1.07;stroke-linecap:butt"/><line x1="365.63" x2="365.63" y1="174.57" y2="23.63" clip-path="url(#cpMzY1LjYzfDQ5OC41MnwxNzQuNTd8MjMuNjM=)" style="stroke-width:1.07;stroke-linecap:butt"/><defs><clipPath id="cpMC4wMHw1MDQuMDB8Mzc4LjAwfDAuMDA="><rect width="504" height="378" x="0" y="0"/></clipPath></defs><defs><clipPath id="cpMzY1LjYzfDQ5OC41MnwzNDkuMTR8MTk4LjIw"><rect width="132.89" height="150.94" x="365.63" y="198.2"/></clipPath></defs><defs><clipPath id="cpMC4wMHw1MDQuMDB8Mzc4LjAwfDAuMDA="><rect width="504" height="378" x="0" y="0"/></clipPath></defs><defs><clipPath id="cpODguODh8MjIxLjc3fDE5OC4yMHwxODAuMDU="><rect width="132.89" height="18.15" x="88.88" y="180.05"/></clipPath></defs><g clip-path="url(#cpODguODh8MjIxLjc3fDE5OC4yMHwxODAuMDU=)"><text x="140.92" y="192.56" lengthAdjust="spacingAndGlyphs" textLength="28.81" style="font-size:9.6px;fill:#1a1a1a;font-family:Arial">money</text></g><defs><clipPath id="cpMC4wMHw1MDQuMDB8Mzc4LjAwfDAuMDA="><rect width="504" height="378" x="0" y="0"/></clipPath></defs><defs><clipPath id="cpMjI3LjI1fDM2MC4xNXwxOTguMjB8MTgwLjA1"><rect width="132.89" height="18.15" x="227.25" y="180.05"/></clipPath></defs><g clip-path="url(#cpMjI3LjI1fDM2MC4xNXwxOTguMjB8MTgwLjA1)"><text x="284.63" y="192.56" lengthAdjust="spacingAndGlyphs" textLength="18.15" style="font-size:9.6px;fill:#1a1a1a;font-family:Arial">loan</text></g><defs><clipPath id="cpMC4wMHw1MDQuMDB8Mzc4LjAwfDAuMDA="><rect width="504" height="378" x="0" y="0"/></clipPath></defs><defs><clipPath id="cpMzY1LjYzfDQ5OC41MnwxOTguMjB8MTgwLjA1"><rect width="132.89" height="18.15" x="365.63" y="180.05"/></clipPath></defs><defs><clipPath id="cpMC4wMHw1MDQuMDB8Mzc4LjAwfDAuMDA="><rect width="504" height="378" x="0" y="0"/></clipPath></defs><defs><clipPath id="cpODguODh8MjIxLjc3fDIzLjYzfDUuNDg="><rect width="132.89" height="18.15" x="88.88" y="5.48"/></clipPath></defs><g clip-path="url(#cpODguODh8MjIxLjc3fDIzLjYzfDUuNDg=)"><text x="146" y="17.99" lengthAdjust="spacingAndGlyphs" textLength="18.67" style="font-size:9.6px;fill:#1a1a1a;font-family:Arial">river</text></g><defs><clipPath id="cpMC4wMHw1MDQuMDB8Mzc4LjAwfDAuMDA="><rect width="504" height="378" x="0" y="0"/></clipPath></defs><defs><clipPath id="cpMjI3LjI1fDM2MC4xNXwyMy42M3w1LjQ4"><rect width="132.89" height="18.15" x="227.25" y="5.48"/></clipPath></defs><g clip-path="url(#cpMjI3LjI1fDM2MC4xNXwyMy42M3w1LjQ4)"><text x="279.03" y="17.99" lengthAdjust="spacingAndGlyphs" textLength="29.34" style="font-size:9.6px;fill:#1a1a1a;font-family:Arial">stream</text></g><defs><clipPath id="cpMC4wMHw1MDQuMDB8Mzc4LjAwfDAuMDA="><rect width="504" height="378" x="0" y="0"/></clipPath></defs><defs><clipPath id="cpMzY1LjYzfDQ5OC41MnwyMy42M3w1LjQ4"><rect width="132.89" height="18.15" x="365.63" y="5.48"/></clipPath></defs><g clip-path="url(#cpMzY1LjYzfDQ5OC41MnwyMy42M3w1LjQ4)"><text x="421.67" y="17.99" lengthAdjust="spacingAndGlyphs" textLength="20.82" style="font-size:9.6px;fill:#1a1a1a;font-family:Arial">bank</text></g><defs><clipPath id="cpMC4wMHw1MDQuMDB8Mzc4LjAwfDAuMDA="><rect width="504" height="378" x="0" y="0"/></clipPath></defs><polyline points="92.05 351.88 92.05 349.14" clip-path="url(#cpMC4wMHw1MDQuMDB8Mzc4LjAwfDAuMDA=)" style="stroke-width:1.07;stroke:#333;stroke-linecap:butt"/><polyline points="123.69 351.88 123.69 349.14" clip-path="url(#cpMC4wMHw1MDQuMDB8Mzc4LjAwfDAuMDA=)" style="stroke-width:1.07;stroke:#333;stroke-linecap:butt"/><polyline points="155.33 351.88 155.33 349.14" clip-path="url(#cpMC4wMHw1MDQuMDB8Mzc4LjAwfDAuMDA=)" style="stroke-width:1.07;stroke:#333;stroke-linecap:butt"/><polyline points="186.97 351.88 186.97 349.14" clip-path="url(#cpMC4wMHw1MDQuMDB8Mzc4LjAwfDAuMDA=)" style="stroke-width:1.07;stroke:#333;stroke-linecap:butt"/><polyline points="218.61 351.88 218.61 349.14" clip-path="url(#cpMC4wMHw1MDQuMDB8Mzc4LjAwfDAuMDA=)" style="stroke-width:1.07;stroke:#333;stroke-linecap:butt"/><g clip-path="url(#cpMC4wMHw1MDQuMDB8Mzc4LjAwfDAuMDA=)"><text x="89.38" y="360.94" lengthAdjust="spacingAndGlyphs" textLength="5.34" style="font-size:9.6px;fill:#4d4d4d;font-family:Arial">0</text></g><g clip-path="url(#cpMC4wMHw1MDQuMDB8Mzc4LjAwfDAuMDA=)"><text x="121.02" y="360.94" lengthAdjust="spacingAndGlyphs" textLength="5.34" style="font-size:9.6px;fill:#4d4d4d;font-family:Arial">5</text></g><g clip-path="url(#cpMC4wMHw1MDQuMDB8Mzc4LjAwfDAuMDA=)"><text x="149.99" y="360.94" lengthAdjust="spacingAndGlyphs" textLength="10.68" style="font-size:9.6px;fill:#4d4d4d;font-family:Arial">10</text></g><g clip-path="url(#cpMC4wMHw1MDQuMDB8Mzc4LjAwfDAuMDA=)"><text x="181.63" y="360.94" lengthAdjust="spacingAndGlyphs" textLength="10.68" style="font-size:9.6px;fill:#4d4d4d;font-family:Arial">15</text></g><g clip-path="url(#cpMC4wMHw1MDQuMDB8Mzc4LjAwfDAuMDA=)"><text x="213.27" y="360.94" lengthAdjust="spacingAndGlyphs" textLength="10.68" style="font-size:9.6px;fill:#4d4d4d;font-family:Arial">20</text></g><polyline points="230.42 351.88 230.42 349.14" clip-path="url(#cpMC4wMHw1MDQuMDB8Mzc4LjAwfDAuMDA=)" style="stroke-width:1.07;stroke:#333;stroke-linecap:butt"/><polyline points="262.06 351.88 262.06 349.14" clip-path="url(#cpMC4wMHw1MDQuMDB8Mzc4LjAwfDAuMDA=)" style="stroke-width:1.07;stroke:#333;stroke-linecap:butt"/><polyline points="293.7 351.88 293.7 349.14" clip-path="url(#cpMC4wMHw1MDQuMDB8Mzc4LjAwfDAuMDA=)" style="stroke-width:1.07;stroke:#333;stroke-linecap:butt"/><polyline points="325.34 351.88 325.34 349.14" clip-path="url(#cpMC4wMHw1MDQuMDB8Mzc4LjAwfDAuMDA=)" style="stroke-width:1.07;stroke:#333;stroke-linecap:butt"/><polyline points="356.98 351.88 356.98 349.14" clip-path="url(#cpMC4wMHw1MDQuMDB8Mzc4LjAwfDAuMDA=)" style="stroke-width:1.07;stroke:#333;stroke-linecap:butt"/><g clip-path="url(#cpMC4wMHw1MDQuMDB8Mzc4LjAwfDAuMDA=)"><text x="227.75" y="360.94" lengthAdjust="spacingAndGlyphs" textLength="5.34" style="font-size:9.6px;fill:#4d4d4d;font-family:Arial">0</text></g><g clip-path="url(#cpMC4wMHw1MDQuMDB8Mzc4LjAwfDAuMDA=)"><text x="259.39" y="360.94" lengthAdjust="spacingAndGlyphs" textLength="5.34" style="font-size:9.6px;fill:#4d4d4d;font-family:Arial">5</text></g><g clip-path="url(#cpMC4wMHw1MDQuMDB8Mzc4LjAwfDAuMDA=)"><text x="288.36" y="360.94" lengthAdjust="spacingAndGlyphs" textLength="10.68" style="font-size:9.6px;fill:#4d4d4d;font-family:Arial">10</text></g><g clip-path="url(#cpMC4wMHw1MDQuMDB8Mzc4LjAwfDAuMDA=)"><text x="320" y="360.94" lengthAdjust="spacingAndGlyphs" textLength="10.68" style="font-size:9.6px;fill:#4d4d4d;font-family:Arial">15</text></g><g clip-path="url(#cpMC4wMHw1MDQuMDB8Mzc4LjAwfDAuMDA=)"><text x="351.64" y="360.94" lengthAdjust="spacingAndGlyphs" textLength="10.68" style="font-size:9.6px;fill:#4d4d4d;font-family:Arial">20</text></g><polyline points="368.79 177.31 368.79 174.57" clip-path="url(#cpMC4wMHw1MDQuMDB8Mzc4LjAwfDAuMDA=)" style="stroke-width:1.07;stroke:#333;stroke-linecap:butt"/><polyline points="400.43 177.31 400.43 174.57" clip-path="url(#cpMC4wMHw1MDQuMDB8Mzc4LjAwfDAuMDA=)" style="stroke-width:1.07;stroke:#333;stroke-linecap:butt"/><polyline points="432.07 177.31 432.07 174.57" clip-path="url(#cpMC4wMHw1MDQuMDB8Mzc4LjAwfDAuMDA=)" style="stroke-width:1.07;stroke:#333;stroke-linecap:butt"/><polyline points="463.72 177.31 463.72 174.57" clip-path="url(#cpMC4wMHw1MDQuMDB8Mzc4LjAwfDAuMDA=)" style="stroke-width:1.07;stroke:#333;stroke-linecap:butt"/><polyline points="495.36 177.31 495.36 174.57" clip-path="url(#cpMC4wMHw1MDQuMDB8Mzc4LjAwfDAuMDA=)" style="stroke-width:1.07;stroke:#333;stroke-linecap:butt"/><g clip-path="url(#cpMC4wMHw1MDQuMDB8Mzc4LjAwfDAuMDA=)"><text x="366.12" y="186.37" lengthAdjust="spacingAndGlyphs" textLength="5.34" style="font-size:9.6px;fill:#4d4d4d;font-family:Arial">0</text></g><g clip-path="url(#cpMC4wMHw1MDQuMDB8Mzc4LjAwfDAuMDA=)"><text x="397.76" y="186.37" lengthAdjust="spacingAndGlyphs" textLength="5.34" style="font-size:9.6px;fill:#4d4d4d;font-family:Arial">5</text></g><g clip-path="url(#cpMC4wMHw1MDQuMDB8Mzc4LjAwfDAuMDA=)"><text x="426.73" y="186.37" lengthAdjust="spacingAndGlyphs" textLength="10.68" style="font-size:9.6px;fill:#4d4d4d;font-family:Arial">10</text></g><g clip-path="url(#cpMC4wMHw1MDQuMDB8Mzc4LjAwfDAuMDA=)"><text x="458.38" y="186.37" lengthAdjust="spacingAndGlyphs" textLength="10.68" style="font-size:9.6px;fill:#4d4d4d;font-family:Arial">15</text></g><g clip-path="url(#cpMC4wMHw1MDQuMDB8Mzc4LjAwfDAuMDA=)"><text x="490.02" y="186.37" lengthAdjust="spacingAndGlyphs" textLength="10.68" style="font-size:9.6px;fill:#4d4d4d;font-family:Arial">20</text></g><g clip-path="url(#cpMC4wMHw1MDQuMDB8Mzc4LjAwfDAuMDA=)"><text x="70.6" y="163.23" lengthAdjust="spacingAndGlyphs" textLength="13.35" style="font-size:9.6px;fill:#4d4d4d;font-family:Arial">0.0</text></g><g clip-path="url(#cpMC4wMHw1MDQuMDB8Mzc4LjAwfDAuMDA=)"><text x="70.6" y="101.66" lengthAdjust="spacingAndGlyphs" textLength="13.35" style="font-size:9.6px;fill:#4d4d4d;font-family:Arial">0.5</text></g><g clip-path="url(#cpMC4wMHw1MDQuMDB8Mzc4LjAwfDAuMDA=)"><text x="70.6" y="40.08" lengthAdjust="spacingAndGlyphs" textLength="13.35" style="font-size:9.6px;fill:#4d4d4d;font-family:Arial">1.0</text></g><polyline points="86.14 159.8 88.88 159.8" clip-path="url(#cpMC4wMHw1MDQuMDB8Mzc4LjAwfDAuMDA=)" style="stroke-width:1.07;stroke:#333;stroke-linecap:butt"/><polyline points="86.14 98.22 88.88 98.22" clip-path="url(#cpMC4wMHw1MDQuMDB8Mzc4LjAwfDAuMDA=)" style="stroke-width:1.07;stroke:#333;stroke-linecap:butt"/><polyline points="86.14 36.65 88.88 36.65" clip-path="url(#cpMC4wMHw1MDQuMDB8Mzc4LjAwfDAuMDA=)" style="stroke-width:1.07;stroke:#333;stroke-linecap:butt"/><g clip-path="url(#cpMC4wMHw1MDQuMDB8Mzc4LjAwfDAuMDA=)"><text x="70.6" y="337.8" lengthAdjust="spacingAndGlyphs" textLength="13.35" style="font-size:9.6px;fill:#4d4d4d;font-family:Arial">0.0</text></g><g clip-path="url(#cpMC4wMHw1MDQuMDB8Mzc4LjAwfDAuMDA=)"><text x="70.6" y="276.23" lengthAdjust="spacingAndGlyphs" textLength="13.35" style="font-size:9.6px;fill:#4d4d4d;font-family:Arial">0.5</text></g><g clip-path="url(#cpMC4wMHw1MDQuMDB8Mzc4LjAwfDAuMDA=)"><text x="70.6" y="214.65" lengthAdjust="spacingAndGlyphs" textLength="13.35" style="font-size:9.6px;fill:#4d4d4d;font-family:Arial">1.0</text></g><polyline points="86.14 334.36 88.88 334.36" clip-path="url(#cpMC4wMHw1MDQuMDB8Mzc4LjAwfDAuMDA=)" style="stroke-width:1.07;stroke:#333;stroke-linecap:butt"/><polyline points="86.14 272.79 88.88 272.79" clip-path="url(#cpMC4wMHw1MDQuMDB8Mzc4LjAwfDAuMDA=)" style="stroke-width:1.07;stroke:#333;stroke-linecap:butt"/><polyline points="86.14 211.21 88.88 211.21" clip-path="url(#cpMC4wMHw1MDQuMDB8Mzc4LjAwfDAuMDA=)" style="stroke-width:1.07;stroke:#333;stroke-linecap:butt"/><g clip-path="url(#cpMC4wMHw1MDQuMDB8Mzc4LjAwfDAuMDA=)"><text x="482.5" y="371.42" lengthAdjust="spacingAndGlyphs" textLength="16.02" style="font-size:9.6px;fill:#4d4d4d;font-family:Arial">Lag</text></g><g clip-path="url(#cpMC4wMHw1MDQuMDB8Mzc4LjAwfDAuMDA=)"><text x="5.48" y="30.5" lengthAdjust="spacingAndGlyphs" textLength="64.57" style="font-size:9.6px;fill:#4d4d4d;font-family:Arial">Autocorrelation</text></g></svg>