<svg xmlns="http://www.w3.org/2000/svg" xmlns:xlink="http://www.w3.org/1999/xlink" viewBox="0 0 504 378"><defs><style type="text/css">line,polyline,rect{fill:none;stroke:#000;stroke-linecap:round;stroke-linejoin:round;stroke-miterlimit:10}</style></defs><rect width="100%" height="100%" style="stroke:none;fill:none"/><rect width="504" height="378" x="0" y="0" style="stroke-width:1.07;stroke:none"/><defs><clipPath id="cpODguODh8MjIxLjc3fDE3NC41N3wyMy42Mw=="><rect width="132.89" height="150.94" x="88.88" y="23.63"/></clipPath></defs><line x1="88.88" x2="221.77" y1="154.56" y2="154.56" clip-path="url(#cpODguODh8MjIxLjc3fDE3NC41N3wyMy42Mw==)" style="stroke-width:.53;stroke:#6497b1;stroke-linecap:butt"/><line x1="92.05" x2="92.05" y1="36.4" y2="154.56" clip-path="url(#cpODguODh8MjIxLjc3fDE3NC41N3wyMy42Mw==)" style="stroke-width:.43;stroke:#d1e1ec;stroke-linecap:butt"/><line x1="98.37" x2="98.37" y1="99.56" y2="154.56" clip-path="url(#cpODguODh8MjIxLjc3fDE3NC41N3wyMy42Mw==)" style="stroke-width:.43;stroke:#d1e1ec;stroke-linecap:butt"/><line x1="104.7" x2="104.7" y1="130.7" y2="154.56" clip-path="url(#cpODguODh8MjIxLjc3fDE3NC41N3wyMy42Mw==)" style="stroke-width:.43;stroke:#d1e1ec;stroke-linecap:butt"/><line x1="111.03" x2="111.03" y1="142.58" y2="154.56" clip-path="url(#cpODguODh8MjIxLjc3fDE3NC41N3wyMy42Mw==)" style="stroke-width:.43;stroke:#d1e1ec;stroke-linecap:butt"/><line x1="117.36" x2="117.36" y1="146.51" y2="154.56" clip-path="url(#cpODguODh8MjIxLjc3fDE3NC41N3wyMy42Mw==)" style="stroke-width:.43;stroke:#d1e1ec;stroke-linecap:butt"/><line x1="123.69" x2="123.69" y1="150.5" y2="154.56" clip-path="url(#cpODguODh8MjIxLjc3fDE3NC41N3wyMy42Mw==)" style="stroke-width:.43;stroke:#d1e1ec;stroke-linecap:butt"/><line x1="130.01" x2="130.01" y1="147.58" y2="154.56" clip-path="url(#cpODguODh8MjIxLjc3fDE3NC41N3wyMy42Mw==)" style="stroke-width:.43;stroke:#d1e1ec;stroke-linecap:butt"/><line x1="136.34" x2="136.34" y1="146.99" y2="154.56" clip-path="url(#cpODguODh8MjIxLjc3fDE3NC41N3wyMy42Mw==)" style="stroke-width:.43;stroke:#d1e1ec;stroke-linecap:butt"/><line x1="142.67" x2="142.67" y1="148.29" y2="154.56" clip-path="url(#cpODguODh8MjIxLjc3fDE3NC41N3wyMy42Mw==)" style="stroke-width:.43;stroke:#d1e1ec;stroke-linecap:butt"/><line x1="149" x2="149" y1="150.04" y2="154.56" clip-path="url(#cpODguODh8MjIxLjc3fDE3NC41N3wyMy42Mw==)" style="stroke-width:.43;stroke:#d1e1ec;stroke-linecap:butt"/><line x1="155.33" x2="155.33" y1="152.46" y2="154.56" clip-path="url(#cpODguODh8MjIxLjc3fDE3NC41N3wyMy42Mw==)" style="stroke-width:.43;stroke:#d1e1ec;stroke-linecap:butt"/><line x1="161.66" x2="161.66" y1="158.13" y2="154.56" clip-path="url(#cpODguODh8MjIxLjc3fDE3NC41N3wyMy42Mw==)" style="stroke-width:.43;stroke:#d1e1ec;stroke-linecap:butt"/><line x1="167.98" x2="167.98" y1="157.04" y2="154.56" clip-path="url(#cpODguODh8MjIxLjc3fDE3NC41N3wyMy42Mw==)" style="stroke-width:.43;stroke:#d1e1ec;stroke-linecap:butt"/><line x1="174.31" x2="174.31" y1="157.81" y2="154.56" clip-path="url(#cpODguODh8MjIxLjc3fDE3NC41N3wyMy42Mw==)" style="stroke-width:.43;stroke:#d1e1ec;stroke-linecap:butt"/><line x1="180.64" x2="180.64" y1="161.9" y2="154.56" clip-path="url(#cpODguODh8MjIxLjc3fDE3NC41N3wyMy42Mw==)" style="stroke-width:.43;stroke:#d1e1ec;stroke-linecap:butt"/><line x1="186.97" x2="186.97" y1="163.78" y2="154.56" clip-path="url(#cpODguODh8MjIxLjc3fDE3NC41N3wyMy42Mw==)" style="stroke-width:.43;stroke:#d1e1ec;stroke-linecap:butt"/><line x1="193.3" x2="193.3" y1="160.62" y2="154.56" clip-path="url(#cpODguODh8MjIxLjc3fDE3NC41N3wyMy42Mw==)" style="stroke-width:.43;stroke:#d1e1ec;stroke-linecap:butt"/><line x1="199.63" x2="199.63" y1="161.42" y2="154.56" clip-path="url(#cpODguODh8MjIxLjc3fDE3NC41N3wyMy42Mw==)" style="stroke-width:.43;stroke:#d1e1ec;stroke-linecap:butt"/><line x1="205.95" x2="205.95" y1="162.6" y2="154.56" clip-path="url(#cpODguODh8MjIxLjc3fDE3NC41N3wyMy42Mw==)" style="stroke-width:.43;stroke:#d1e1ec;stroke-linecap:butt"/><line x1="212.28" x2="212.28" y1="159.12" y2="154.56" clip-path="url(#cpODguODh8MjIxLjc3fDE3NC41N3wyMy42Mw==)" style="stroke-width:.43;stroke:#d1e1ec;stroke-linecap:butt"/><line x1="218.61" x2="218.61" y1="167.71" y2="154.56" clip-path="url(#cpODguODh8MjIxLjc3fDE3NC41N3wyMy42Mw==)" style="stroke-width:.43;stroke:#d1e1ec;stroke-linecap:butt"/><polyline points="92.05 36.4 98.37 99.56 104.7 130.7 111.03 142.58 117.36 146.51 123.69 150.5 130.01 147.58 136.34 146.99 142.67 148.29 149 150.04 155.33 152.46 161.66 158.13 167.98 157.04 174.31 157.81 180.64 161.9 186.97 163.78 193.3 160.62 199.63 161.42 205.95 162.6 212.28 159.12 218.61 167.71" clip-path="url(#cpODguODh8MjIxLjc3fDE3NC41N3wyMy42Mw==)" style="stroke-width:1.07;stroke:#03396c;stroke-linecap:butt"/><line x1="88.88" x2="221.77" y1="174.57" y2="174.57" clip-path="url(#cpODguODh8MjIxLjc3fDE3NC41N3wyMy42Mw==)" style="stroke-width:1.07;stroke-linecap:butt"/><line x1="88.88" x2="88.88" y1="174.57" y2="23.63" clip-path="url(#cpODguODh8MjIxLjc3fDE3NC41N3wyMy42Mw==)" style="stroke-width:1.07;stroke-linecap:butt"/><defs><clipPath id="cpMC4wMHw1MDQuMDB8Mzc4LjAwfDAuMDA="><rect width="504" height="378" x="0" y="0"/></clipPath></defs><defs><clipPath id="cpODguODh8MjIxLjc3fDM0OS4xNHwxOTguMjA="><rect width="132.89" height="150.94" x="88.88" y="198.2"/></clipPath></defs><line x1="88.88" x2="221.77" y1="329.13" y2="329.13" clip-path="url(#cpODguODh8MjIxLjc3fDM0OS4xNHwxOTguMjA=)" style="stroke-width:.53;stroke:#6497b1;stroke-linecap:butt"/><line x1="92.05" x2="92.05" y1="210.96" y2="329.13" clip-path="url(#cpODguODh8MjIxLjc3fDM0OS4xNHwxOTguMjA=)" style="stroke-width:.43;stroke:#d1e1ec;stroke-linecap:butt"/><line x1="98.37" x2="98.37" y1="268.3" y2="329.13" clip-path="url(#cpODguODh8MjIxLjc3fDM0OS4xNHwxOTguMjA=)" style="stroke-width:.43;stroke:#d1e1ec;stroke-linecap:butt"/><line x1="104.7" x2="104.7" y1="308.11" y2="329.13" clip-path="url(#cpODguODh8MjIxLjc3fDM0OS4xNHwxOTguMjA=)" style="stroke-width:.43;stroke:#d1e1ec;stroke-linecap:butt"/><line x1="111.03" x2="111.03" y1="322.75" y2="329.13" clip-path="url(#cpODguODh8MjIxLjc3fDM0OS4xNHwxOTguMjA=)" style="stroke-width:.43;stroke:#d1e1ec;stroke-linecap:butt"/><line x1="117.36" x2="117.36" y1="331.66" y2="329.13" clip-path="url(#cpODguODh8MjIxLjc3fDM0OS4xNHwxOTguMjA=)" style="stroke-width:.43;stroke:#d1e1ec;stroke-linecap:butt"/><line x1="123.69" x2="123.69" y1="333.64" y2="329.13" clip-path="url(#cpODguODh8MjIxLjc3fDM0OS4xNHwxOTguMjA=)" style="stroke-width:.43;stroke:#d1e1ec;stroke-linecap:butt"/><line x1="130.01" x2="130.01" y1="333.59" y2="329.13" clip-path="url(#cpODguODh8MjIxLjc3fDM0OS4xNHwxOTguMjA=)" style="stroke-width:.43;stroke:#d1e1ec;stroke-linecap:butt"/><line x1="136.34" x2="136.34" y1="327.78" y2="329.13" clip-path="url(#cpODguODh8MjIxLjc3fDM0OS4xNHwxOTguMjA=)" style="stroke-width:.43;stroke:#d1e1ec;stroke-linecap:butt"/><line x1="142.67" x2="142.67" y1="328.92" y2="329.13" clip-path="url(#cpODguODh8MjIxLjc3fDM0OS4xNHwxOTguMjA=)" style="stroke-width:.43;stroke:#d1e1ec;stroke-linecap:butt"/><line x1="149" x2="149" y1="334.52" y2="329.13" clip-path="url(#cpODguODh8MjIxLjc3fDM0OS4xNHwxOTguMjA=)" style="stroke-width:.43;stroke:#d1e1ec;stroke-linecap:butt"/><line x1="155.33" x2="155.33" y1="337.93" y2="329.13" clip-path="url(#cpODguODh8MjIxLjc3fDM0OS4xNHwxOTguMjA=)" style="stroke-width:.43;stroke:#d1e1ec;stroke-linecap:butt"/><line x1="161.66" x2="161.66" y1="337.21" y2="329.13" clip-path="url(#cpODguODh8MjIxLjc3fDM0OS4xNHwxOTguMjA=)" style="stroke-width:.43;stroke:#d1e1ec;stroke-linecap:butt"/><line x1="167.98" x2="167.98" y1="335.8" y2="329.13" clip-path="url(#cpODguODh8MjIxLjc3fDM0OS4xNHwxOTguMjA=)" style="stroke-width:.43;stroke:#d1e1ec;stroke-linecap:butt"/><line x1="174.31" x2="174.31" y1="332.22" y2="329.13" clip-path="url(#cpODguODh8MjIxLjc3fDM0OS4xNHwxOTguMjA=)" style="stroke-width:.43;stroke:#d1e1ec;stroke-linecap:butt"/><line x1="180.64" x2="180.64" y1="326.56" y2="329.13" clip-path="url(#cpODguODh8MjIxLjc3fDM0OS4xNHwxOTguMjA=)" style="stroke-width:.43;stroke:#d1e1ec;stroke-linecap:butt"/><line x1="186.97" x2="186.97" y1="322.85" y2="329.13" clip-path="url(#cpODguODh8MjIxLjc3fDM0OS4xNHwxOTguMjA=)" style="stroke-width:.43;stroke:#d1e1ec;stroke-linecap:butt"/><line x1="193.3" x2="193.3" y1="329.8" y2="329.13" clip-path="url(#cpODguODh8MjIxLjc3fDM0OS4xNHwxOTguMjA=)" style="stroke-width:.43;stroke:#d1e1ec;stroke-linecap:butt"/><line x1="199.63" x2="199.63" y1="333.6" y2="329.13" clip-path="url(#cpODguODh8MjIxLjc3fDM0OS4xNHwxOTguMjA=)" style="stroke-width:.43;stroke:#d1e1ec;stroke-linecap:butt"/><line x1="205.95" x2="205.95" y1="332.77" y2="329.13" clip-path="url(#cpODguODh8MjIxLjc3fDM0OS4xNHwxOTguMjA=)" style="stroke-width:.43;stroke:#d1e1ec;stroke-linecap:butt"/><line x1="212.28" x2="212.28" y1="329.18" y2="329.13" clip-path="url(#cpODguODh8MjIxLjc3fDM0OS4xNHwxOTguMjA=)" style="stroke-width:.43;stroke:#d1e1ec;stroke-linecap:butt"/><line x1="218.61" x2="218.61" y1="329.27" y2="329.13" clip-path="url(#cpODguODh8MjIxLjc3fDM0OS4xNHwxOTguMjA=)" style="stroke-width:.43;stroke:#d1e1ec;stroke-linecap:butt"/><polyline points="92.05 210.96 98.37 268.3 104.7 308.11 111.03 322.75 117.36 331.66 123.69 333.64 130.01 333.59 136.34 327.78 142.67 328.92 149 334.52 155.33 337.93 161.66 337.21 167.98 335.8 174.31 332.22 180.64 326.56 186.97 322.85 193.3 329.8 199.63 333.6 205.95 332.77 212.28 329.18 218.61 329.27" clip-path="url(#cpODguODh8MjIxLjc3fDM0OS4xNHwxOTguMjA=)" style="stroke-width:1.07;stroke:#03396c;stroke-linecap:butt"/><line x1="88.88" x2="221.77" y1="349.14" y2="349.14" clip-path="url(#cpODguODh8MjIxLjc3fDM0OS4xNHwxOTguMjA=)" style="stroke-width:1.07;stroke-linecap:butt"/><line x1="88.88" x2="88.88" y1="349.14" y2="198.2" clip-path="url(#cpODguODh8MjIxLjc3fDM0OS4xNHwxOTguMjA=)" style="stroke-width:1.07;stroke-linecap:butt"/><defs><clipPath id="cpMC4wMHw1MDQuMDB8Mzc4LjAwfDAuMDA="><rect width="504" height="378" x="0" y="0"/></clipPath></defs><defs><clipPath id="cpMjI3LjI1fDM2MC4xNXwxNzQuNTd8MjMuNjM="><rect width="132.89" height="150.94" x="227.25" y="23.63"/></clipPath></defs><line x1="227.25" x2="360.15" y1="154.56" y2="154.56" clip-path="url(#cpMjI3LjI1fDM2MC4xNXwxNzQuNTd8MjMuNjM=)" style="stroke-width:.53;stroke:#6497b1;stroke-linecap:butt"/><line x1="230.42" x2="230.42" y1="36.4" y2="154.56" clip-path="url(#cpMjI3LjI1fDM2MC4xNXwxNzQuNTd8MjMuNjM=)" style="stroke-width:.43;stroke:#d1e1ec;stroke-linecap:butt"/><line x1="236.75" x2="236.75" y1="97.18" y2="154.56" clip-path="url(#cpMjI3LjI1fDM2MC4xNXwxNzQuNTd8MjMuNjM=)" style="stroke-width:.43;stroke:#d1e1ec;stroke-linecap:butt"/><line x1="243.07" x2="243.07" y1="122.19" y2="154.56" clip-path="url(#cpMjI3LjI1fDM2MC4xNXwxNzQuNTd8MjMuNjM=)" style="stroke-width:.43;stroke:#d1e1ec;stroke-linecap:butt"/><line x1="249.4" x2="249.4" y1="138.16" y2="154.56" clip-path="url(#cpMjI3LjI1fDM2MC4xNXwxNzQuNTd8MjMuNjM=)" style="stroke-width:.43;stroke:#d1e1ec;stroke-linecap:butt"/><line x1="255.73" x2="255.73" y1="146.28" y2="154.56" clip-path="url(#cpMjI3LjI1fDM2MC4xNXwxNzQuNTd8MjMuNjM=)" style="stroke-width:.43;stroke:#d1e1ec;stroke-linecap:butt"/><line x1="262.06" x2="262.06" y1="148.7" y2="154.56" clip-path="url(#cpMjI3LjI1fDM2MC4xNXwxNzQuNTd8MjMuNjM=)" style="stroke-width:.43;stroke:#d1e1ec;stroke-linecap:butt"/><line x1="268.39" x2="268.39" y1="150.08" y2="154.56" clip-path="url(#cpMjI3LjI1fDM2MC4xNXwxNzQuNTd8MjMuNjM=)" style="stroke-width:.43;stroke:#d1e1ec;stroke-linecap:butt"/><line x1="274.72" x2="274.72" y1="148.03" y2="154.56" clip-path="url(#cpMjI3LjI1fDM2MC4xNXwxNzQuNTd8MjMuNjM=)" style="stroke-width:.43;stroke:#d1e1ec;stroke-linecap:butt"/><line x1="281.04" x2="281.04" y1="147.49" y2="154.56" clip-path="url(#cpMjI3LjI1fDM2MC4xNXwxNzQuNTd8MjMuNjM=)" style="stroke-width:.43;stroke:#d1e1ec;stroke-linecap:butt"/><line x1="287.37" x2="287.37" y1="150.14" y2="154.56" clip-path="url(#cpMjI3LjI1fDM2MC4xNXwxNzQuNTd8MjMuNjM=)" style="stroke-width:.43;stroke:#d1e1ec;stroke-linecap:butt"/><line x1="293.7" x2="293.7" y1="150.36" y2="154.56" clip-path="url(#cpMjI3LjI1fDM2MC4xNXwxNzQuNTd8MjMuNjM=)" style="stroke-width:.43;stroke:#d1e1ec;stroke-linecap:butt"/><line x1="300.03" x2="300.03" y1="153.26" y2="154.56" clip-path="url(#cpMjI3LjI1fDM2MC4xNXwxNzQuNTd8MjMuNjM=)" style="stroke-width:.43;stroke:#d1e1ec;stroke-linecap:butt"/><line x1="306.36" x2="306.36" y1="153.82" y2="154.56" clip-path="url(#cpMjI3LjI1fDM2MC4xNXwxNzQuNTd8MjMuNjM=)" style="stroke-width:.43;stroke:#d1e1ec;stroke-linecap:butt"/><line x1="312.69" x2="312.69" y1="155.6" y2="154.56" clip-path="url(#cpMjI3LjI1fDM2MC4xNXwxNzQuNTd8MjMuNjM=)" style="stroke-width:.43;stroke:#d1e1ec;stroke-linecap:butt"/><line x1="319.01" x2="319.01" y1="156.04" y2="154.56" clip-path="url(#cpMjI3LjI1fDM2MC4xNXwxNzQuNTd8MjMuNjM=)" style="stroke-width:.43;stroke:#d1e1ec;stroke-linecap:butt"/><line x1="325.34" x2="325.34" y1="154.49" y2="154.56" clip-path="url(#cpMjI3LjI1fDM2MC4xNXwxNzQuNTd8MjMuNjM=)" style="stroke-width:.43;stroke:#d1e1ec;stroke-linecap:butt"/><line x1="331.67" x2="331.67" y1="153.94" y2="154.56" clip-path="url(#cpMjI3LjI1fDM2MC4xNXwxNzQuNTd8MjMuNjM=)" style="stroke-width:.43;stroke:#d1e1ec;stroke-linecap:butt"/><line x1="338" x2="338" y1="155.46" y2="154.56" clip-path="url(#cpMjI3LjI1fDM2MC4xNXwxNzQuNTd8MjMuNjM=)" style="stroke-width:.43;stroke:#d1e1ec;stroke-linecap:butt"/><line x1="344.33" x2="344.33" y1="163.48" y2="154.56" clip-path="url(#cpMjI3LjI1fDM2MC4xNXwxNzQuNTd8MjMuNjM=)" style="stroke-width:.43;stroke:#d1e1ec;stroke-linecap:butt"/><line x1="350.66" x2="350.66" y1="160.01" y2="154.56" clip-path="url(#cpMjI3LjI1fDM2MC4xNXwxNzQuNTd8MjMuNjM=)" style="stroke-width:.43;stroke:#d1e1ec;stroke-linecap:butt"/><line x1="356.98" x2="356.98" y1="167.16" y2="154.56" clip-path="url(#cpMjI3LjI1fDM2MC4xNXwxNzQuNTd8MjMuNjM=)" style="stroke-width:.43;stroke:#d1e1ec;stroke-linecap:butt"/><polyline points="230.42 36.4 236.75 97.18 243.07 122.19 249.4 138.16 255.73 146.28 262.06 148.7 268.39 150.08 274.72 148.03 281.04 147.49 287.37 150.14 293.7 150.36 300.03 153.26 306.36 153.82 312.69 155.6 319.01 156.04 325.34 154.49 331.67 153.94 338 155.46 344.33 163.48 350.66 160.01 356.98 167.16" clip-path="url(#cpMjI3LjI1fDM2MC4xNXwxNzQuNTd8MjMuNjM=)" style="stroke-width:1.07;stroke:#03396c;stroke-linecap:butt"/><line x1="227.25" x2="360.15" y1="174.57" y2="174.57" clip-path="url(#cpMjI3LjI1fDM2MC4xNXwxNzQuNTd8MjMuNjM=)" style="stroke-width:1.07;stroke-linecap:butt"/><line x1="227.25" x2="227.25" y1="174.57" y2="23.63" clip-path="url(#cpMjI3LjI1fDM2MC4xNXwxNzQuNTd8MjMuNjM=)" style="stroke-width:1.07;stroke-linecap:butt"/><defs><clipPath id="cpMC4wMHw1MDQuMDB8Mzc4LjAwfDAuMDA="><rect width="504" height="378" x="0" y="0"/></clipPath></defs><defs><clipPath id="cpMjI3LjI1fDM2MC4xNXwzNDkuMTR8MTk4LjIw"><rect width="132.89" height="150.94" x="227.25" y="198.2"/></clipPath></defs><line x1="227.25" x2="360.15" y1="329.13" y2="329.13" clip-path="url(#cpMjI3LjI1fDM2MC4xNXwzNDkuMTR8MTk4LjIw)" style="stroke-width:.53;stroke:#6497b1;stroke-linecap:butt"/><line x1="230.42" x2="230.42" y1="210.96" y2="329.13" clip-path="url(#cpMjI3LjI1fDM2MC4xNXwzNDkuMTR8MTk4LjIw)" style="stroke-width:.43;stroke:#d1e1ec;stroke-linecap:butt"/><line x1="236.75" x2="236.75" y1="275.77" y2="329.13" clip-path="url(#cpMjI3LjI1fDM2MC4xNXwzNDkuMTR8MTk4LjIw)" style="stroke-width:.43;stroke:#d1e1ec;stroke-linecap:butt"/><line x1="243.07" x2="243.07" y1="307.61" y2="329.13" clip-path="url(#cpMjI3LjI1fDM2MC4xNXwzNDkuMTR8MTk4LjIw)" style="stroke-width:.43;stroke:#d1e1ec;stroke-linecap:butt"/><line x1="249.4" x2="249.4" y1="320.75" y2="329.13" clip-path="url(#cpMjI3LjI1fDM2MC4xNXwzNDkuMTR8MTk4LjIw)" style="stroke-width:.43;stroke:#d1e1ec;stroke-linecap:butt"/><line x1="255.73" x2="255.73" y1="335.29" y2="329.13" clip-path="url(#cpMjI3LjI1fDM2MC4xNXwzNDkuMTR8MTk4LjIw)" style="stroke-width:.43;stroke:#d1e1ec;stroke-linecap:butt"/><line x1="262.06" x2="262.06" y1="338.94" y2="329.13" clip-path="url(#cpMjI3LjI1fDM2MC4xNXwzNDkuMTR8MTk4LjIw)" style="stroke-width:.43;stroke:#d1e1ec;stroke-linecap:butt"/><line x1="268.39" x2="268.39" y1="332.63" y2="329.13" clip-path="url(#cpMjI3LjI1fDM2MC4xNXwzNDkuMTR8MTk4LjIw)" style="stroke-width:.43;stroke:#d1e1ec;stroke-linecap:butt"/><line x1="274.72" x2="274.72" y1="327.11" y2="329.13" clip-path="url(#cpMjI3LjI1fDM2MC4xNXwzNDkuMTR8MTk4LjIw)" style="stroke-width:.43;stroke:#d1e1ec;stroke-linecap:butt"/><line x1="281.04" x2="281.04" y1="328.3" y2="329.13" clip-path="url(#cpMjI3LjI1fDM2MC4xNXwzNDkuMTR8MTk4LjIw)" style="stroke-width:.43;stroke:#d1e1ec;stroke-linecap:butt"/><line x1="287.37" x2="287.37" y1="325.99" y2="329.13" clip-path="url(#cpMjI3LjI1fDM2MC4xNXwzNDkuMTR8MTk4LjIw)" style="stroke-width:.43;stroke:#d1e1ec;stroke-linecap:butt"/><line x1="293.7" x2="293.7" y1="324.2" y2="329.13" clip-path="url(#cpMjI3LjI1fDM2MC4xNXwzNDkuMTR8MTk4LjIw)" style="stroke-width:.43;stroke:#d1e1ec;stroke-linecap:butt"/><line x1="300.03" x2="300.03" y1="331.61" y2="329.13" clip-path="url(#cpMjI3LjI1fDM2MC4xNXwzNDkuMTR8MTk4LjIw)" style="stroke-width:.43;stroke:#d1e1ec;stroke-linecap:butt"/><line x1="306.36" x2="306.36" y1="332.74" y2="329.13" clip-path="url(#cpMjI3LjI1fDM2MC4xNXwzNDkuMTR8MTk4LjIw)" style="stroke-width:.43;stroke:#d1e1ec;stroke-linecap:butt"/><line x1="312.69" x2="312.69" y1="332.84" y2="329.13" clip-path="url(#cpMjI3LjI1fDM2MC4xNXwzNDkuMTR8MTk4LjIw)" style="stroke-width:.43;stroke:#d1e1ec;stroke-linecap:butt"/><line x1="319.01" x2="319.01" y1="331.19" y2="329.13" clip-path="url(#cpMjI3LjI1fDM2MC4xNXwzNDkuMTR8MTk4LjIw)" style="stroke-width:.43;stroke:#d1e1ec;stroke-linecap:butt"/><line x1="325.34" x2="325.34" y1="332.82" y2="329.13" clip-path="url(#cpMjI3LjI1fDM2MC4xNXwzNDkuMTR8MTk4LjIw)" style="stroke-width:.43;stroke:#d1e1ec;stroke-linecap:butt"/><line x1="331.67" x2="331.67" y1="329.24" y2="329.13" clip-path="url(#cpMjI3LjI1fDM2MC4xNXwzNDkuMTR8MTk4LjIw)" style="stroke-width:.43;stroke:#d1e1ec;stroke-linecap:butt"/><line x1="338" x2="338" y1="330.8" y2="329.13" clip-path="url(#cpMjI3LjI1fDM2MC4xNXwzNDkuMTR8MTk4LjIw)" style="stroke-width:.43;stroke:#d1e1ec;stroke-linecap:butt"/><line x1="344.33" x2="344.33" y1="334.24" y2="329.13" clip-path="url(#cpMjI3LjI1fDM2MC4xNXwzNDkuMTR8MTk4LjIw)" style="stroke-width:.43;stroke:#d1e1ec;stroke-linecap:butt"/><line x1="350.66" x2="350.66" y1="335.31" y2="329.13" clip-path="url(#cpMjI3LjI1fDM2MC4xNXwzNDkuMTR8MTk4LjIw)" style="stroke-width:.43;stroke:#d1e1ec;stroke-linecap:butt"/><line x1="356.98" x2="356.98" y1="333.43" y2="329.13" clip-path="url(#cpMjI3LjI1fDM2MC4xNXwzNDkuMTR8MTk4LjIw)" style="stroke-width:.43;stroke:#d1e1ec;stroke-linecap:butt"/><polyline points="230.42 210.96 236.75 275.77 243.07 307.61 249.4 320.75 255.73 335.29 262.06 338.94 268.39 332.63 274.72 327.11 281.04 328.3 287.37 325.99 293.7 324.2 300.03 331.61 306.36 332.74 312.69 332.84 319.01 331.19 325.34 332.82 331.67 329.24 338 330.8 344.33 334.24 350.66 335.31 356.98 333.43" clip-path="url(#cpMjI3LjI1fDM2MC4xNXwzNDkuMTR8MTk4LjIw)" style="stroke-width:1.07;stroke:#03396c;stroke-linecap:butt"/><line x1="227.25" x2="360.15" y1="349.14" y2="349.14" clip-path="url(#cpMjI3LjI1fDM2MC4xNXwzNDkuMTR8MTk4LjIw)" style="stroke-width:1.07;stroke-linecap:butt"/><line x1="227.25" x2="227.25" y1="349.14" y2="198.2" clip-path="url(#cpMjI3LjI1fDM2MC4xNXwzNDkuMTR8MTk4LjIw)" style="stroke-width:1.07;stroke-linecap:butt"/><defs><clipPath id="cpMC4wMHw1MDQuMDB8Mzc4LjAwfDAuMDA="><rect width="504" height="378" x="0" y="0"/></clipPath></defs><defs><clipPath id="cpMzY1LjYzfDQ5OC41MnwxNzQuNTd8MjMuNjM="><rect width="132.89" height="150.94" x="365.63" y="23.63"/></clipPath></defs><line x1="365.63" x2="498.52" y1="154.56" y2="154.56" clip-path="url(#cpMzY1LjYzfDQ5OC41MnwxNzQuNTd8MjMuNjM=)" style="stroke-width:.53;stroke:#6497b1;stroke-linecap:butt"/><line x1="368.79" x2="368.79" y1="36.4" y2="154.56" clip-path="url(#cpMzY1LjYzfDQ5OC41MnwxNzQuNTd8MjMuNjM=)" style="stroke-width:.43;stroke:#d1e1ec;stroke-linecap:butt"/><line x1="375.12" x2="375.12" y1="102.1" y2="154.56" clip-path="url(#cpMzY1LjYzfDQ5OC41MnwxNzQuNTd8MjMuNjM=)" style="stroke-width:.43;stroke:#d1e1ec;stroke-linecap:butt"/><line x1="381.45" x2="381.45" y1="131.61" y2="154.56" clip-path="url(#cpMzY1LjYzfDQ5OC41MnwxNzQuNTd8MjMuNjM=)" style="stroke-width:.43;stroke:#d1e1ec;stroke-linecap:butt"/><line x1="387.78" x2="387.78" y1="147.37" y2="154.56" clip-path="url(#cpMzY1LjYzfDQ5OC41MnwxNzQuNTd8MjMuNjM=)" style="stroke-width:.43;stroke:#d1e1ec;stroke-linecap:butt"/><line x1="394.1" x2="394.1" y1="149.47" y2="154.56" clip-path="url(#cpMzY1LjYzfDQ5OC41MnwxNzQuNTd8MjMuNjM=)" style="stroke-width:.43;stroke:#d1e1ec;stroke-linecap:butt"/><line x1="400.43" x2="400.43" y1="149.54" y2="154.56" clip-path="url(#cpMzY1LjYzfDQ5OC41MnwxNzQuNTd8MjMuNjM=)" style="stroke-width:.43;stroke:#d1e1ec;stroke-linecap:butt"/><line x1="406.76" x2="406.76" y1="145.74" y2="154.56" clip-path="url(#cpMzY1LjYzfDQ5OC41MnwxNzQuNTd8MjMuNjM=)" style="stroke-width:.43;stroke:#d1e1ec;stroke-linecap:butt"/><line x1="413.09" x2="413.09" y1="148.88" y2="154.56" clip-path="url(#cpMzY1LjYzfDQ5OC41MnwxNzQuNTd8MjMuNjM=)" style="stroke-width:.43;stroke:#d1e1ec;stroke-linecap:butt"/><line x1="419.42" x2="419.42" y1="151.61" y2="154.56" clip-path="url(#cpMzY1LjYzfDQ5OC41MnwxNzQuNTd8MjMuNjM=)" style="stroke-width:.43;stroke:#d1e1ec;stroke-linecap:butt"/><line x1="425.75" x2="425.75" y1="152.28" y2="154.56" clip-path="url(#cpMzY1LjYzfDQ5OC41MnwxNzQuNTd8MjMuNjM=)" style="stroke-width:.43;stroke:#d1e1ec;stroke-linecap:butt"/><line x1="432.07" x2="432.07" y1="150.15" y2="154.56" clip-path="url(#cpMzY1LjYzfDQ5OC41MnwxNzQuNTd8MjMuNjM=)" style="stroke-width:.43;stroke:#d1e1ec;stroke-linecap:butt"/><line x1="438.4" x2="438.4" y1="154.06" y2="154.56" clip-path="url(#cpMzY1LjYzfDQ5OC41MnwxNzQuNTd8MjMuNjM=)" style="stroke-width:.43;stroke:#d1e1ec;stroke-linecap:butt"/><line x1="444.73" x2="444.73" y1="153.56" y2="154.56" clip-path="url(#cpMzY1LjYzfDQ5OC41MnwxNzQuNTd8MjMuNjM=)" style="stroke-width:.43;stroke:#d1e1ec;stroke-linecap:butt"/><line x1="451.06" x2="451.06" y1="154.71" y2="154.56" clip-path="url(#cpMzY1LjYzfDQ5OC41MnwxNzQuNTd8MjMuNjM=)" style="stroke-width:.43;stroke:#d1e1ec;stroke-linecap:butt"/><line x1="457.39" x2="457.39" y1="159.66" y2="154.56" clip-path="url(#cpMzY1LjYzfDQ5OC41MnwxNzQuNTd8MjMuNjM=)" style="stroke-width:.43;stroke:#d1e1ec;stroke-linecap:butt"/><line x1="463.72" x2="463.72" y1="160.78" y2="154.56" clip-path="url(#cpMzY1LjYzfDQ5OC41MnwxNzQuNTd8MjMuNjM=)" style="stroke-width:.43;stroke:#d1e1ec;stroke-linecap:butt"/><line x1="470.04" x2="470.04" y1="158.58" y2="154.56" clip-path="url(#cpMzY1LjYzfDQ5OC41MnwxNzQuNTd8MjMuNjM=)" style="stroke-width:.43;stroke:#d1e1ec;stroke-linecap:butt"/><line x1="476.37" x2="476.37" y1="157.32" y2="154.56" clip-path="url(#cpMzY1LjYzfDQ5OC41MnwxNzQuNTd8MjMuNjM=)" style="stroke-width:.43;stroke:#d1e1ec;stroke-linecap:butt"/><line x1="482.7" x2="482.7" y1="160.12" y2="154.56" clip-path="url(#cpMzY1LjYzfDQ5OC41MnwxNzQuNTd8MjMuNjM=)" style="stroke-width:.43;stroke:#d1e1ec;stroke-linecap:butt"/><line x1="489.03" x2="489.03" y1="157.01" y2="154.56" clip-path="url(#cpMzY1LjYzfDQ5OC41MnwxNzQuNTd8MjMuNjM=)" style="stroke-width:.43;stroke:#d1e1ec;stroke-linecap:butt"/><line x1="495.36" x2="495.36" y1="166.93" y2="154.56" clip-path="url(#cpMzY1LjYzfDQ5OC41MnwxNzQuNTd8MjMuNjM=)" style="stroke-width:.43;stroke:#d1e1ec;stroke-linecap:butt"/><polyline points="368.79 36.4 375.12 102.1 381.45 131.61 387.78 147.37 394.1 149.47 400.43 149.54 406.76 145.74 413.09 148.88 419.42 151.61 425.75 152.28 432.07 150.15 438.4 154.06 444.73 153.56 451.06 154.71 457.39 159.66 463.72 160.78 470.04 158.58 476.37 157.32 482.7 160.12 489.03 157.01 495.36 166.93" clip-path="url(#cpMzY1LjYzfDQ5OC41MnwxNzQuNTd8MjMuNjM=)" style="stroke-width:1.07;stroke:#03396c;stroke-linecap:butt"/><line x1="365.63" x2="498.52" y1="174.57" y2="174.57" clip-path="url(#cpMzY1LjYzfDQ5OC41MnwxNzQuNTd8MjMuNjM=)" style="stroke-width:1.07;stroke-linecap:butt"/><line x1="365.63" x2="365.63" y1="174.57" y2="23.63" clip-path="url(#cpMzY1LjYzfDQ5OC41MnwxNzQuNTd8MjMuNjM=)" style="stroke-width:1.07;stroke-linecap:butt"/><defs><clipPath id="cpMC4wMHw1MDQuMDB8Mzc4LjAwfDAuMDA="><rect width="504" height="378" x="0" y="0"/></clipPath></defs><defs><clipPath id="cpMzY1LjYzfDQ5OC41MnwzNDkuMTR8MTk4LjIw"><rect width="132.89" height="150.94" x="365.63" y="198.2"/></clipPath></defs><defs><clipPath id="cpMC4wMHw1MDQuMDB8Mzc4LjAwfDAuMDA="><rect width="504" height="378" x="0" y="0"/></clipPath></defs><defs><clipPath id="cpODguODh8MjIxLjc3fDE5OC4yMHwxODAuMDU="><rect width="132.89" height="18.15" x="88.88" y="180.05"/></clipPath></defs><g clip-path="url(#cpODguODh8MjIxLjc3fDE5OC4yMHwxODAuMDU=)"><text x="140.92" y="192.56" lengthAdjust="spacingAndGlyphs" textLength="28.81" style="font-size:9.6px;fill:#1a1a1a;font-family:Arial">money</text></g><defs><clipPath id="cpMC4wMHw1MDQuMDB8Mzc4LjAwfDAuMDA="><rect width="504" height="378" x="0" y="0"/></clipPath></defs><defs><clipPath id="cpMjI3LjI1fDM2MC4xNXwxOTguMjB8MTgwLjA1"><rect width="132.89" height="18.15" x="227.25" y="180.05"/></clipPath></defs><g clip-path="url(#cpMjI3LjI1fDM2MC4xNXwxOTguMjB8MTgwLjA1)"><text x="284.63" y="192.56" lengthAdjust="spacingAndGlyphs" textLength="18.15" style="font-size:9.6px;fill:#1a1a1a;font-family:Arial">loan</text></g><defs><clipPath id="cpMC4wMHw1MDQuMDB8Mzc4LjAwfDAuMDA="><rect width="504" height="378" x="0" y="0"/></clipPath></defs><defs><clipPath id="cpMzY1LjYzfDQ5OC41MnwxOTguMjB8MTgwLjA1"><rect width="132.89" height="18.15" x="365.63" y="180.05"/></clipPath></defs><defs><clipPath id="cpMC4wMHw1MDQuMDB8Mzc4LjAwfDAuMDA="><rect width="504" height="378" x="0" y="0"/></clipPath></defs><defs><clipPath id="cpODguODh8MjIxLjc3fDIzLjYzfDUuNDg="><rect width="132.89" height="18.15" x="88.88" y="5.48"/></clipPath></defs><g clip-path="url(#cpODguODh8MjIxLjc3fDIzLjYzfDUuNDg=)"><text x="146" y="17.99" lengthAdjust="spacingAndGlyphs" textLength="18.67" style="font-size:9.6px;fill:#1a1a1a;font-family:Arial">river</text></g><defs><clipPath id="cpMC4wMHw1MDQuMDB8Mzc4LjAwfDAuMDA="><rect width="504" height="378" x="0" y="0"/></clipPath></defs><defs><clipPath id="cpMjI3LjI1fDM2MC4xNXwyMy42M3w1LjQ4"><rect width="132.89" height="18.15" x="227.25" y="5.48"/></clipPath></defs><g clip-path="url(#cpMjI3LjI1fDM2MC4xNXwyMy42M3w1LjQ4)"><text x="279.03" y="17.99" lengthAdjust="spacingAndGlyphs" textLength="29.34" style="font-size:9.6px;fill:#1a1a1a;font-family:Arial">stream</text></g><defs><clipPath id="cpMC4wMHw1MDQuMDB8Mzc4LjAwfDAuMDA="><rect width="504" height="378" x="0" y="0"/></clipPath></defs><defs><clipPath id="cpMzY1LjYzfDQ5OC41MnwyMy42M3w1LjQ4"><rect width="132.89" height="18.15" x="365.63" y="5.48"/></clipPath></defs><g clip-path="url(#cpMzY1LjYzfDQ5OC41MnwyMy42M3w1LjQ4)"><text x="421.67" y="17.99" lengthAdjust="spacingAndGlyphs" textLength="20.82" style="font-size:9.6px;fill:#1a1a1a;font-family:Arial">bank</text></g><defs><clipPath id="cpMC4wMHw1MDQuMDB8Mzc4LjAwfDAuMDA="><rect width="504" height="378" x="0" y="0"/></clipPath></defs><polyline points="92.05 351.88 92.05 349.14" clip-path="url(#cpMC4wMHw1MDQuMDB8Mzc4LjAwfDAuMDA=)" style="stroke-width:1.07;stroke:#333;stroke-linecap:butt"/><polyline points="123.69 351.88 123.69 349.14" clip-path="url(#cpMC4wMHw1MDQuMDB8Mzc4LjAwfDAuMDA=)" style="stroke-width:1.07;stroke:#333;stroke-linecap:butt"/><polyline points="155.33 351.88 155.33 349.14" clip-path="url(#cpMC4wMHw1MDQuMDB8Mzc4LjAwfDAuMDA=)" style="stroke-width:1.07;stroke:#333;stroke-linecap:butt"/><polyline points="186.97 351.88 186.97 349.14" clip-path="url(#cpMC4wMHw1MDQuMDB8Mzc4LjAwfDAuMDA=)" style="stroke-width:1.07;stroke:#333;stroke-linecap:butt"/><polyline points="218.61 351.88 218.61 349.14" clip-path="url(#cpMC4wMHw1MDQuMDB8Mzc4LjAwfDAuMDA=)" style="stroke-width:1.07;stroke:#333;stroke-linecap:butt"/><g clip-path="url(#cpMC4wMHw1MDQuMDB8Mzc4LjAwfDAuMDA=)"><text x="89.38" y="360.94" lengthAdjust="spacingAndGlyphs" textLength="5.34" style="font-size:9.6px;fill:#4d4d4d;font-family:Arial">0</text></g><g clip-path="url(#cpMC4wMHw1MDQuMDB8Mzc4LjAwfDAuMDA=)"><text x="121.02" y="360.94" lengthAdjust="spacingAndGlyphs" textLength="5.34" style="font-size:9.6px;fill:#4d4d4d;font-family:Arial">5</text></g><g clip-path="url(#cpMC4wMHw1MDQuMDB8Mzc4LjAwfDAuMDA=)"><text x="149.99" y="360.94" lengthAdjust="spacingAndGlyphs" textLength="10.68" style="font-size:9.6px;fill:#4d4d4d;font-family:Arial">10</text></g><g clip-path="url(#cpMC4wMHw1MDQuMDB8Mzc4LjAwfDAuMDA=)"><text x="181.63" y="360.94" lengthAdjust="spacingAndGlyphs" textLength="10.68" style="font-size:9.6px;fill:#4d4d4d;font-family:Arial">15</text></g><g clip-path="url(#cpMC4wMHw1MDQuMDB8Mzc4LjAwfDAuMDA=)"><text x="213.27" y="360.94" lengthAdjust="spacingAndGlyphs" textLength="10.68" style="font-size:9.6px;fill:#4d4d4d;font-family:Arial">20</text></g><polyline points="230.42 351.88 230.42 349.14" clip-path="url(#cpMC4wMHw1MDQuMDB8Mzc4LjAwfDAuMDA=)" style="stroke-width:1.07;stroke:#333;stroke-linecap:butt"/><polyline points="262.06 351.88 262.06 349.14" clip-path="url(#cpMC4wMHw1MDQuMDB8Mzc4LjAwfDAuMDA=)" style="stroke-width:1.07;stroke:#333;stroke-linecap:butt"/><polyline points="293.7 351.88 293.7 349.14" clip-path="url(#cpMC4wMHw1MDQuMDB8Mzc4LjAwfDAuMDA=)" style="stroke-width:1.07;stroke:#333;stroke-linecap:butt"/><polyline points="325.34 351.88 325.34 349.14" clip-path="url(#cpMC4wMHw1MDQuMDB8Mzc4LjAwfDAuMDA=)" style="stroke-width:1.07;stroke:#333;stroke-linecap:butt"/><polyline points="356.98 351.88 356.98 349.14" clip-path="url(#cpMC4wMHw1MDQuMDB8Mzc4LjAwfDAuMDA=)" style="stroke-width:1.07;stroke:#333;stroke-linecap:butt"/><g clip-path="url(#cpMC4wMHw1MDQuMDB8Mzc4LjAwfDAuMDA=)"><text x="227.75" y="360.94" lengthAdjust="spacingAndGlyphs" textLength="5.34" style="font-size:9.6px;fill:#4d4d4d;font-family:Arial">0</text></g><g clip-path="url(#cpMC4wMHw1MDQuMDB8Mzc4LjAwfDAuMDA=)"><text x="259.39" y="360.94" lengthAdjust="spacingAndGlyphs" textLength="5.34" style="font-size:9.6px;fill:#4d4d4d;font-family:Arial">5</text></g><g clip-path="url(#cpMC4wMHw1MDQuMDB8Mzc4LjAwfDAuMDA=)"><text x="288.36" y="360.94" lengthAdjust="spacingAndGlyphs" textLength="10.68" style="font-size:9.6px;fill:#4d4d4d;font-family:Arial">10</text></g><g clip-path="url(#cpMC4wMHw1MDQuMDB8Mzc4LjAwfDAuMDA=)"><text x="320" y="360.94" lengthAdjust="spacingAndGlyphs" textLength="10.68" style="font-size:9.6px;fill:#4d4d4d;font-family:Arial">15</text></g><g clip-path="url(#cpMC4wMHw1MDQuMDB8Mzc4LjAwfDAuMDA=)"><text x="351.64" y="360.94" lengthAdjust="spacingAndGlyphs" textLength="10.68" style="font-size:9.6px;fill:#4d4d4d;font-family:Arial">20</text></g><polyline points="368.79 177.31 368.79 174.57" clip-path="url(#cpMC4wMHw1MDQuMDB8Mzc4LjAwfDAuMDA=)" style="stroke-width:1.07;stroke:#333;stroke-linecap:butt"/><polyline points="400.43 177.31 400.43 174.57" clip-path="url(#cpMC4wMHw1MDQuMDB8Mzc4LjAwfDAuMDA=)" style="stroke-width:1.07;stroke:#333;stroke-linecap:butt"/><polyline points="432.07 177.31 432.07 174.57" clip-path="url(#cpMC4wMHw1MDQuMDB8Mzc4LjAwfDAuMDA=)" style="stroke-width:1.07;stroke:#333;stroke-linecap:butt"/><polyline points="463.72 177.31 463.72 174.57" clip-path="url(#cpMC4wMHw1MDQuMDB8Mzc4LjAwfDAuMDA=)" style="stroke-width:1.07;stroke:#333;stroke-linecap:butt"/><polyline points="495.36 177.31 495.36 174.57" clip-path="url(#cpMC4wMHw1MDQuMDB8Mzc4LjAwfDAuMDA=)" style="stroke-width:1.07;stroke:#333;stroke-linecap:butt"/><g clip-path="url(#cpMC4wMHw1MDQuMDB8Mzc4LjAwfDAuMDA=)"><text x="366.12" y="186.37" lengthAdjust="spacingAndGlyphs" textLength="5.34" style="font-size:9.6px;fill:#4d4d4d;font-family:Arial">0</text></g><g clip-path="url(#cpMC4wMHw1MDQuMDB8Mzc4LjAwfDAuMDA=)"><text x="397.76" y="186.37" lengthAdjust="spacingAndGlyphs" textLength="5.34" style="font-size:9.6px;fill:#4d4d4d;font-family:Arial">5</text></g><g clip-path="url(#cpMC4wMHw1MDQuMDB8Mzc4LjAwfDAuMDA=)"><text x="426.73" y="186.37" lengthAdjust="spacingAndGlyphs" textLength="10.68" style="font-size:9.6px;fill:#4d4d4d;font-family:Arial">10</text></g><g clip-path="url(#cpMC4wMHw1MDQuMDB8Mzc4LjAwfDAuMDA=)"><text x="458.38" y="186.37" lengthAdjust="spacingAndGlyphs" textLength="10.68" style="font-size:9.6px;fill:#4d4d4d;font-family:Arial">15</text></g><g clip-path="url(#cpMC4wMHw1MDQuMDB8Mzc4LjAwfDAuMDA=)"><text x="490.02" y="186.37" lengthAdjust="spacingAndGlyphs" textLength="10.68" style="font-size:9.6px;fill:#4d4d4d;font-family:Arial">20</text></g><g clip-path="url(#cpMC4wMHw1MDQuMDB8Mzc4LjAwfDAuMDA=)"><text x="70.6" y="157.99" lengthAdjust="spacingAndGlyphs" textLength="13.35" style="font-size:9.6px;fill:#4d4d4d;font-family:Arial">0.0</text></g><g clip-path="url(#cpMC4wMHw1MDQuMDB8Mzc4LjAwfDAuMDA=)"><text x="70.6" y="98.91" lengthAdjust="spacingAndGlyphs" textLength="13.35" style="font-size:9.6px;fill:#4d4d4d;font-family:Arial">0.5</text></g><g clip-path="url(#cpMC4wMHw1MDQuMDB8Mzc4LjAwfDAuMDA=)"><text x="70.6" y="39.83" lengthAdjust="spacingAndGlyphs" textLength="13.35" style="font-size:9.6px;fill:#4d4d4d;font-family:Arial">1.0</text></g><polyline points="86.14 154.56 88.88 154.56" clip-path="url(#cpMC4wMHw1MDQuMDB8Mzc4LjAwfDAuMDA=)" style="stroke-width:1.07;stroke:#333;stroke-linecap:butt"/><polyline points="86.14 95.48 88.88 95.48" clip-path="url(#cpMC4wMHw1MDQuMDB8Mzc4LjAwfDAuMDA=)" style="stroke-width:1.07;stroke:#333;stroke-linecap:butt"/><polyline points="86.14 36.4 88.88 36.4" clip-path="url(#cpMC4wMHw1MDQuMDB8Mzc4LjAwfDAuMDA=)" style="stroke-width:1.07;stroke:#333;stroke-linecap:butt"/><g clip-path="url(#cpMC4wMHw1MDQuMDB8Mzc4LjAwfDAuMDA=)"><text x="70.6" y="332.56" lengthAdjust="spacingAndGlyphs" textLength="13.35" style="font-size:9.6px;fill:#4d4d4d;font-family:Arial">0.0</text></g><g clip-path="url(#cpMC4wMHw1MDQuMDB8Mzc4LjAwfDAuMDA=)"><text x="70.6" y="273.48" lengthAdjust="spacingAndGlyphs" textLength="13.35" style="font-size:9.6px;fill:#4d4d4d;font-family:Arial">0.5</text></g><g clip-path="url(#cpMC4wMHw1MDQuMDB8Mzc4LjAwfDAuMDA=)"><text x="70.6" y="214.4" lengthAdjust="spacingAndGlyphs" textLength="13.35" style="font-size:9.6px;fill:#4d4d4d;font-family:Arial">1.0</text></g><polyline points="86.14 329.13 88.88 329.13" clip-path="url(#cpMC4wMHw1MDQuMDB8Mzc4LjAwfDAuMDA=)" style="stroke-width:1.07;stroke:#333;stroke-linecap:butt"/><polyline points="86.14 270.05 88.88 270.05" clip-path="url(#cpMC4wMHw1MDQuMDB8Mzc4LjAwfDAuMDA=)" style="stroke-width:1.07;stroke:#333;stroke-linecap:butt"/><polyline points="86.14 210.96 88.88 210.96" clip-path="url(#cpMC4wMHw1MDQuMDB8Mzc4LjAwfDAuMDA=)" style="stroke-width:1.07;stroke:#333;stroke-linecap:butt"/><g clip-path="url(#cpMC4wMHw1MDQuMDB8Mzc4LjAwfDAuMDA=)"><text x="482.5" y="371.42" lengthAdjust="spacingAndGlyphs" textLength="16.02" style="font-size:9.6px;fill:#4d4d4d;font-family:Arial">Lag</text></g><g clip-path="url(#cpMC4wMHw1MDQuMDB8Mzc4LjAwfDAuMDA=)"><text x="5.48" y="30.5" lengthAdjust="spacingAndGlyphs" textLength="64.57" style="font-size:9.6px;fill:#4d4d4d;font-family:Arial">Autocorrelation</text></g></svg>